<svg id="vector" xmlns="http://www.w3.org/2000/svg" width="137.0d" height="110.0d" viewBox="0 0 137.0 110.0"><path fill="#b1b1b1ff" d="M69.89,109.93C80.65,109.92 91.17,106.7 100.09,100.69C109.02,94.68 115.96,86.15 120.02,76.18C124.13,66.2 125.21,55.23 123.12,44.64C121.03,34.05 115.86,24.31 108.26,16.64C102.61,10.93 95.75,6.56 88.19,3.84C80.62,1.12 72.55,0.12 64.56,0.91C56.56,1.71 48.84,4.27 41.96,8.43C35.08,12.59 29.22,18.22 24.8,24.93C17.82,35.45 14.68,48.06 15.91,60.63C17.14,73.19 22.66,84.95 31.54,93.93C36.56,98.99 42.53,103.02 49.11,105.77C55.7,108.51 62.76,109.93 69.89,109.93Z" fill-opacity="0.15" id="path_0"/><path fill="#ffffffff" d="M91.82,17.77H48.91C47.93,17.78 46.97,17.98 46.06,18.35C45.16,18.73 44.34,19.29 43.65,19.98C42.96,20.68 42.42,21.5 42.05,22.41C41.68,23.31 41.49,24.28 41.5,25.26V82.9C41.49,83.88 41.68,84.85 42.05,85.75C42.42,86.66 42.96,87.48 43.65,88.18C44.34,88.87 45.16,89.43 46.06,89.81C46.97,90.18 47.93,90.38 48.91,90.39H91.82C92.8,90.38 93.77,90.18 94.67,89.81C95.58,89.43 96.4,88.87 97.08,88.18C97.77,87.48 98.32,86.66 98.69,85.75C99.06,84.85 99.25,83.88 99.24,82.9V25.26C99.25,24.28 99.06,23.31 98.69,22.41C98.32,21.5 97.77,20.68 97.08,19.98C96.4,19.29 95.58,18.73 94.67,18.35C93.77,17.98 92.8,17.78 91.82,17.77Z" id="path_1"/><path fill="#aeaeaeff" d="M67.6,30.37H51.44C50.91,30.37 50.4,30.59 50.02,30.96C49.65,31.34 49.43,31.85 49.43,32.38C49.43,32.92 49.65,33.43 50.02,33.8C50.4,34.18 50.91,34.39 51.44,34.39H67.6C68.13,34.39 68.64,34.18 69.02,33.8C69.39,33.43 69.6,32.92 69.6,32.38C69.6,31.85 69.39,31.34 69.02,30.96C68.64,30.59 68.13,30.37 67.6,30.37Z" id="path_2"/><path fill="#e6e6e6ff" d="M88.45,41.62H51.48C50.95,41.62 50.44,41.84 50.06,42.21C49.69,42.59 49.47,43.1 49.47,43.63C49.47,44.17 49.69,44.68 50.06,45.05C50.44,45.43 50.95,45.64 51.48,45.64H88.45C88.98,45.64 89.49,45.43 89.87,45.05C90.25,44.68 90.46,44.17 90.46,43.63C90.46,43.1 90.25,42.59 89.87,42.21C89.49,41.84 88.98,41.62 88.45,41.62Z" id="path_3"/><path fill="#e6e6e6ff" d="M88.45,53.68H51.48C51.06,53.68 50.65,53.85 50.35,54.15C50.05,54.45 49.88,54.86 49.88,55.29C49.88,55.71 50.05,56.12 50.35,56.42C50.65,56.72 51.06,56.89 51.48,56.89H88.45C88.69,56.95 88.94,56.95 89.18,56.89C89.42,56.84 89.65,56.73 89.84,56.57C90.03,56.42 90.19,56.22 90.3,56C90.4,55.78 90.46,55.53 90.46,55.29C90.46,55.04 90.4,54.8 90.3,54.57C90.19,54.35 90.03,54.15 89.84,54C89.65,53.85 89.42,53.74 89.18,53.68C88.94,53.63 88.69,53.63 88.45,53.68Z" id="path_4"/><path fill="#e6e6e6ff" d="M88.45,64.93H51.48C50.95,64.93 50.44,65.14 50.06,65.52C49.69,65.89 49.47,66.41 49.47,66.94C49.47,67.47 49.69,67.98 50.06,68.36C50.44,68.74 50.95,68.95 51.48,68.95H88.45C88.98,68.95 89.49,68.74 89.87,68.36C90.25,67.98 90.46,67.47 90.46,66.94C90.46,66.41 90.25,65.89 89.87,65.52C89.49,65.14 88.98,64.93 88.45,64.93Z" id="path_5"/><path fill="#e6e6e6ff" d="M51.48,76.18H88.45C88.98,76.18 89.49,76.39 89.87,76.77C90.25,77.14 90.46,77.66 90.46,78.19C90.46,78.72 90.25,79.23 89.87,79.61C89.49,79.99 88.98,80.2 88.45,80.2H51.48C50.95,80.2 50.44,79.99 50.06,79.61C49.69,79.23 49.47,78.72 49.47,78.19C49.47,77.66 49.69,77.14 50.06,76.77C50.44,76.39 50.95,76.18 51.48,76.18Z" id="path_6"/><path fill="#a8a8a8ff" d="M125.28,96.71C125.23,95.42 124.69,94.19 123.77,93.29L122.84,92.38L106.17,76.36C110.01,70.91 111.68,64.22 110.87,57.61C110.06,50.99 106.82,44.92 101.78,40.56C96.76,36.23 90.3,33.94 83.67,34.16C77.04,34.37 70.74,37.07 66.02,41.72C62.46,45.19 59.93,49.58 58.73,54.4C57.52,59.23 57.69,64.29 59.2,69.03C60.71,73.76 63.51,77.98 67.29,81.21C71.07,84.44 75.67,86.56 80.58,87.32C87.13,88.31 93.81,86.8 99.3,83.09L116.57,99.69L117.51,100.59C117.95,101.03 118.48,101.36 119.06,101.58C119.64,101.8 120.26,101.9 120.88,101.87C121.49,101.84 122.1,101.68 122.65,101.4C123.21,101.12 123.7,100.73 124.1,100.25C124.92,99.26 125.35,97.99 125.28,96.71ZM84.71,83.55C80.26,83.55 75.9,82.22 72.21,79.73C68.52,77.24 65.65,73.71 63.97,69.59C62.26,65.46 61.82,60.91 62.68,56.53C63.55,52.14 65.69,48.11 68.83,44.93C71.17,42.56 74.01,40.75 77.14,39.62C80.27,38.48 83.62,38.07 86.93,38.39C90.24,38.72 93.44,39.78 96.29,41.5C99.14,43.23 101.57,45.56 103.41,48.34C106.29,52.7 107.59,57.92 107.09,63.12C106.58,68.32 104.29,73.19 100.61,76.91C98.54,79.01 96.06,80.68 93.33,81.82C90.6,82.96 87.67,83.55 84.71,83.55Z" fill-rule="evenodd" id="path_7"/><path fill="#f26840ff" d="M88.71,60.87L94.3,55.26C94.69,54.84 94.94,54.32 95.04,53.76C95.14,53.2 95.08,52.62 94.87,52.09C94.64,51.57 94.27,51.12 93.8,50.8C93.33,50.49 92.78,50.31 92.21,50.31C91.45,50.3 90.71,50.59 90.15,51.12L84.55,56.72L78.95,51.12C78.68,50.83 78.36,50.6 78,50.45C77.64,50.28 77.25,50.2 76.86,50.2C76.46,50.19 76.07,50.26 75.71,50.41C75.35,50.56 75.01,50.77 74.74,51.05C74.46,51.33 74.24,51.66 74.1,52.02C73.87,52.57 73.82,53.17 73.94,53.75C74.07,54.33 74.37,54.85 74.8,55.26L80.42,60.88L74.8,66.5C74.52,66.77 74.29,67.09 74.13,67.45C73.97,67.81 73.89,68.2 73.88,68.59C73.88,68.98 73.96,69.37 74.1,69.73C74.24,70.1 74.46,70.43 74.74,70.71C75.01,70.99 75.34,71.21 75.71,71.36C76.07,71.51 76.46,71.58 76.86,71.57C77.25,71.56 77.64,71.48 77.99,71.32C78.35,71.16 78.68,70.93 78.95,70.65L84.55,65.03L90.15,70.64C90.71,71.13 91.44,71.39 92.19,71.37C92.93,71.34 93.64,71.03 94.17,70.5C94.69,69.98 95,69.27 95.02,68.52C95.04,67.78 94.78,67.05 94.29,66.49L88.71,60.87Z" id="path_8"/><path fill="#949494ff" d="M27.39,27.78C27.38,27.11 27.3,26.46 27.14,25.81C26.57,23.5 24.04,22.01 21.37,21.67C18.69,21.32 15.88,22.12 14.79,24.13C14.52,24.57 14.34,25.06 14.26,25.57C14.19,26.08 14.22,26.6 14.34,27.1C14.63,27.98 15.21,28.72 16,29.2C18.26,30.7 22.2,31.02 24.04,30.37C24.86,30.08 25.67,29.73 26.45,29.33C26,31.95 24.3,34.43 22.05,36.67C17.15,41.49 9.55,45.21 5.41,46.56C5.29,46.6 5.2,46.67 5.14,46.78C5.08,46.88 5.06,47 5.09,47.12C5.11,47.17 5.14,47.22 5.17,47.26C5.2,47.31 5.25,47.35 5.3,47.38C5.34,47.4 5.4,47.42 5.46,47.42C5.51,47.44 5.57,47.44 5.63,47.42C9.84,46.06 17.59,42.28 22.59,37.33C25.17,34.77 27.01,31.89 27.32,28.87C33.16,25.53 37.95,19.55 42.04,14.57C42.11,14.48 42.15,14.37 42.14,14.26C42.13,14.14 42.08,14.03 42,13.95C41.96,13.91 41.91,13.88 41.86,13.87C41.8,13.86 41.75,13.86 41.69,13.87C41.63,13.87 41.58,13.89 41.53,13.91C41.48,13.94 41.44,13.98 41.4,14.02C37.5,18.8 32.93,24.51 27.39,27.78ZM26.58,28.23C26.62,27.49 26.55,26.75 26.38,26.03C25.89,24.03 23.63,22.82 21.3,22.54C19.93,22.33 18.52,22.5 17.24,23.05C16.52,23.35 15.92,23.88 15.53,24.55C15.32,24.89 15.17,25.26 15.11,25.65C15.04,26.05 15.06,26.45 15.16,26.84C15.38,27.51 15.84,28.08 16.45,28.44C18.66,29.7 21.26,30.08 23.74,29.5C24.72,29.16 25.67,28.74 26.58,28.25V28.23Z" fill-rule="evenodd" id="path_9"/><path fill="#878787ff" d="M130.94,73.95C131.48,73.96 132.01,73.8 132.46,73.5C132.92,73.2 133.27,72.78 133.48,72.28C133.69,71.78 133.74,71.23 133.64,70.7C133.54,70.17 133.28,69.68 132.9,69.29C132.51,68.91 132.03,68.65 131.5,68.54C130.97,68.44 130.42,68.49 129.92,68.7C129.42,68.9 128.99,69.25 128.69,69.7C128.39,70.15 128.23,70.68 128.23,71.22C128.22,71.58 128.29,71.93 128.43,72.27C128.56,72.6 128.76,72.9 129.02,73.15C129.27,73.41 129.57,73.61 129.9,73.75C130.23,73.88 130.58,73.95 130.94,73.95Z" fill-opacity="0.38" id="path_10"/><path fill="#878787ff" d="M17.98,92.47L20.86,89.59C21.06,89.38 21.19,89.11 21.24,88.83C21.29,88.54 21.26,88.25 21.15,87.98C21.04,87.71 20.85,87.48 20.61,87.32C20.36,87.15 20.08,87.07 19.78,87.07C19.59,87.06 19.4,87.1 19.22,87.17C19.04,87.24 18.87,87.34 18.73,87.48L15.85,90.35L12.97,87.44C12.83,87.3 12.67,87.18 12.48,87.1C12.29,87.02 12.09,86.97 11.89,86.97C11.69,86.96 11.49,87 11.31,87.07C11.12,87.16 10.95,87.29 10.81,87.44C10.66,87.58 10.55,87.75 10.48,87.94C10.4,88.13 10.36,88.33 10.37,88.53C10.37,88.73 10.41,88.93 10.49,89.12C10.58,89.3 10.69,89.47 10.84,89.61L13.72,92.49L10.84,95.36C10.69,95.5 10.58,95.67 10.49,95.85C10.41,96.04 10.37,96.23 10.37,96.44C10.37,96.64 10.4,96.84 10.48,97.02C10.55,97.21 10.66,97.39 10.81,97.53C10.95,97.67 11.12,97.78 11.31,97.86C11.49,97.93 11.69,97.97 11.89,97.96C12.09,97.96 12.3,97.92 12.48,97.83C12.66,97.76 12.83,97.64 12.97,97.5L15.85,94.6L18.73,97.5C19.02,97.75 19.39,97.88 19.78,97.87C20.17,97.86 20.54,97.7 20.81,97.43C21.08,97.15 21.24,96.79 21.25,96.4C21.26,96.02 21.12,95.65 20.87,95.36L17.98,92.47Z" fill-opacity="0.3" id="path_11"/><path fill="#878787ff" d="M131.82,18.72L135.77,14.79C136.04,14.5 136.22,14.14 136.29,13.75C136.36,13.36 136.32,12.96 136.17,12.6C136.01,12.23 135.75,11.91 135.42,11.69C135.09,11.47 134.69,11.35 134.29,11.35C134.02,11.34 133.76,11.39 133.51,11.48C133.26,11.58 133.04,11.72 132.84,11.91L128.88,15.81L124.93,11.86C124.74,11.66 124.51,11.5 124.25,11.39C124,11.28 123.73,11.22 123.45,11.22C123.17,11.21 122.9,11.26 122.64,11.36C122.38,11.48 122.15,11.65 121.96,11.86C121.76,12.05 121.6,12.28 121.5,12.54C121.4,12.8 121.35,13.07 121.35,13.34C121.36,13.62 121.42,13.89 121.53,14.14C121.64,14.39 121.8,14.62 122,14.81L125.96,18.74L122,22.64C121.8,22.83 121.64,23.06 121.53,23.31C121.42,23.56 121.36,23.84 121.36,24.11C121.35,24.38 121.4,24.66 121.5,24.91C121.61,25.17 121.76,25.4 121.96,25.6C122.16,25.79 122.39,25.94 122.64,26.05C122.9,26.15 123.17,26.2 123.45,26.19C123.73,26.19 124,26.13 124.25,26.02C124.51,25.91 124.74,25.75 124.93,25.56L128.88,21.62L132.84,25.56C133.24,25.9 133.75,26.08 134.28,26.06C134.81,26.05 135.33,25.84 135.7,25.46C136.07,25.08 136.29,24.59 136.31,24.07C136.32,23.54 136.13,23.03 135.78,22.64L131.82,18.72Z" fill-opacity="0.15" id="path_12"/><path fill="#00000000" d="M5.49,72L5.49,72C4.97,71.99 4.46,71.89 3.98,71.69L3.64,72.5L3.98,71.69C3.5,71.49 3.07,71.2 2.7,70.83C2.34,70.46 2.05,70.03 1.85,69.55C1.65,69.07 1.55,68.55 1.56,68.04L1.56,68.03C1.56,67.25 1.79,66.48 2.23,65.83C2.66,65.17 3.28,64.67 4.01,64.37C4.74,64.07 5.53,63.99 6.3,64.15C7.07,64.3 7.78,64.68 8.33,65.24L8.83,64.74L8.33,65.24C8.89,65.8 9.26,66.51 9.41,67.28C9.56,68.05 9.48,68.84 9.17,69.57C8.87,70.29 8.36,70.91 7.7,71.34C7.05,71.77 6.28,72 5.49,72Z" stroke="#8b8b8bff" stroke-width="1.76167" stroke-opacity="0.15" id="path_13"/></svg>