<svg id="vector" xmlns="http://www.w3.org/2000/svg" width="64.0d" height="64.0d" viewBox="0 0 64.0 64.0"><path fill="#ffffffff" d="M32,32m-31.75,0a31.75,31.75 0,1 1,63.5 0a31.75,31.75 0,1 1,-63.5 0" stroke="#e6e6e6ff" stroke-width="0.5" id="path_0"/><path fill="#3e3089ff" d="M45.607,22.985L40.081,26.785L40.134,32.906L45.66,29.107L45.607,22.985Z" id="path_1"/><path fill="#0f8ecdff" d="M32.661,37.972L38.081,34.278V28.157L32.661,31.851V37.972Z" id="path_2"/><path fill="#0f8ecdff" d="M38.081,18.5L32.661,22.194V28.579V29.423L38.081,25.729V18.5Z" id="path_3"/><path fill="#3e3089ff" d="M52.922,42.035L46.607,39.555L41.66,43.038L47.922,45.518L52.922,42.035Z" id="path_4"/><path fill="#2f52a0ff" d="M33.292,39.766L39.344,42.141L44.396,38.658L38.292,36.283L33.292,39.766Z" id="path_5"/><path fill="#3e3089ff" d="M40.976,34.437L40.292,34.911L46.396,37.339L52.343,33.276L46.238,30.848L40.976,34.437Z" id="path_6"/><path fill="#5eb130ff" d="M17.662,22.985L23.241,26.785L23.188,32.906L17.61,29.107L17.662,22.985Z" id="path_7"/><path fill="#0badc2ff" d="M30.608,37.972L25.24,34.278V28.157L30.608,31.851V37.972Z" id="path_8"/><path fill="#0badc2ff" d="M25.24,18.5V25.729L30.608,29.423V28.579V22.194L25.24,18.5Z" id="path_9"/><path fill="#5eb130ff" d="M10.4,42.035L16.663,39.555L21.609,43.038L15.347,45.518L10.4,42.035Z" id="path_10"/><path fill="#41af66ff" d="M30.03,39.766L23.925,42.141L18.873,38.658L24.978,36.283L30.03,39.766Z" id="path_11"/><path fill="#5eb130ff" d="M22.294,34.437L22.978,34.911L16.873,37.339L10.979,33.276L17.031,30.848L22.294,34.437Z" id="path_12"/></svg>