<svg id="vector" xmlns="http://www.w3.org/2000/svg" width="40.0d" height="40.0d" viewBox="0 0 40.0 40.0"><path fill="#ffffffff" d="M20,20m-19.75,0a19.75,19.75 0,1 1,39.5 0a19.75,19.75 0,1 1,-39.5 0" stroke="#e6e6e6ff" stroke-width="0.5" id="path_0"/><path fill="#374760ff" d="M14.525,27.157C14.499,27.139 14.452,27.122 14.382,27.105C14.269,27.08 14.213,27.046 14.213,27.007C14.213,26.955 14.257,26.931 14.348,26.931C14.422,26.931 14.487,26.947 14.543,26.975C14.538,26.925 14.536,26.884 14.536,26.852C14.476,26.834 14.417,26.827 14.36,26.827C14.287,26.827 14.227,26.839 14.183,26.864C14.127,26.897 14.099,26.947 14.099,27.016C14.099,27.077 14.123,27.123 14.169,27.154C14.185,27.164 14.22,27.177 14.278,27.191C14.341,27.209 14.385,27.222 14.406,27.232C14.448,27.25 14.469,27.273 14.469,27.298C14.469,27.361 14.42,27.393 14.322,27.393C14.238,27.393 14.164,27.368 14.099,27.322C14.106,27.364 14.111,27.407 14.111,27.455C14.173,27.482 14.246,27.497 14.331,27.497C14.406,27.497 14.466,27.482 14.51,27.452C14.562,27.418 14.589,27.363 14.589,27.289C14.589,27.229 14.568,27.184 14.525,27.156V27.157Z" id="path_1"/><path fill="#374760ff" d="M15.149,26.838L14.834,27.48H14.959L15.019,27.355H15.387L15.449,27.48H15.593L15.271,26.838H15.15H15.149ZM15.061,27.263L15.201,26.972L15.34,27.263H15.061Z" id="path_2"/><path fill="#374760ff" d="M16.327,27.189C16.327,27.243 16.325,27.279 16.32,27.295C16.311,27.33 16.288,27.355 16.253,27.372C16.23,27.38 16.204,27.386 16.172,27.386C16.116,27.386 16.076,27.373 16.051,27.35C16.025,27.325 16.011,27.284 16.011,27.229V26.847H15.881V27.245C15.881,27.414 15.974,27.498 16.163,27.498C16.353,27.498 16.446,27.413 16.446,27.245V26.847H16.325V27.189H16.327Z" id="path_3"/><path fill="#374760ff" d="M17.087,26.847H16.815V27.48H17.103C17.203,27.48 17.28,27.455 17.338,27.404C17.397,27.35 17.427,27.273 17.427,27.171C17.427,27.064 17.396,26.982 17.334,26.927C17.276,26.873 17.192,26.847 17.087,26.847ZM17.099,27.363H16.944V26.966H17.088C17.225,26.966 17.292,27.027 17.292,27.166C17.292,27.298 17.227,27.364 17.097,27.364L17.099,27.363Z" id="path_4"/><path fill="#374760ff" d="M17.878,26.847H17.749V27.48H17.878V26.847Z" id="path_5"/><path fill="#374760ff" d="M18.89,27.327C18.846,27.284 18.825,27.225 18.825,27.152C18.825,27.084 18.846,27.031 18.886,26.991C18.927,26.952 18.981,26.932 19.048,26.932C19.114,26.932 19.183,26.95 19.255,26.989C19.25,26.961 19.246,26.934 19.246,26.909C19.246,26.898 19.246,26.884 19.246,26.861C19.177,26.839 19.105,26.827 19.034,26.827C18.93,26.827 18.846,26.855 18.784,26.913C18.721,26.972 18.69,27.054 18.69,27.159C18.69,27.207 18.698,27.252 18.714,27.295C18.765,27.432 18.877,27.5 19.049,27.5C19.134,27.5 19.202,27.489 19.258,27.466C19.258,27.43 19.265,27.384 19.276,27.329C19.202,27.372 19.132,27.391 19.063,27.391C18.99,27.391 18.932,27.37 18.888,27.327H18.89Z" id="path_6"/><path fill="#374760ff" d="M19.878,26.827C19.78,26.827 19.701,26.857 19.641,26.92C19.581,26.982 19.552,27.063 19.552,27.163C19.552,27.263 19.581,27.343 19.641,27.404C19.701,27.466 19.78,27.497 19.878,27.497C19.976,27.497 20.055,27.466 20.115,27.404C20.175,27.343 20.205,27.261 20.205,27.161C20.205,27.061 20.175,26.98 20.115,26.918C20.055,26.855 19.976,26.825 19.878,26.825V26.827ZM20.022,27.316C19.987,27.359 19.939,27.379 19.878,27.379C19.816,27.379 19.769,27.357 19.734,27.316C19.701,27.277 19.683,27.225 19.683,27.163C19.683,27.1 19.701,27.048 19.732,27.007C19.767,26.964 19.816,26.945 19.876,26.945C19.936,26.945 19.987,26.966 20.02,27.007C20.053,27.046 20.069,27.098 20.069,27.163C20.069,27.227 20.052,27.277 20.02,27.316H20.022Z" id="path_7"/><path fill="#374760ff" d="M20.972,27.189C20.972,27.243 20.97,27.279 20.965,27.295C20.956,27.33 20.933,27.355 20.898,27.372C20.875,27.38 20.849,27.386 20.817,27.386C20.761,27.386 20.721,27.373 20.696,27.35C20.67,27.325 20.656,27.284 20.656,27.229V26.847H20.526V27.245C20.526,27.414 20.619,27.498 20.808,27.498C20.998,27.498 21.091,27.413 21.091,27.245V26.847H20.97V27.189H20.972Z" id="path_8"/><path fill="#374760ff" d="M21.96,27.296L21.584,26.847H21.46V27.48H21.583V27.027L21.96,27.48H22.085V26.847H21.96V27.296Z" id="path_9"/><path fill="#374760ff" d="M22.604,27.327C22.56,27.284 22.539,27.225 22.539,27.152C22.539,27.084 22.56,27.031 22.601,26.991C22.641,26.952 22.696,26.932 22.762,26.932C22.829,26.932 22.897,26.95 22.969,26.989C22.964,26.961 22.961,26.934 22.961,26.909C22.961,26.898 22.961,26.884 22.961,26.861C22.892,26.839 22.82,26.827 22.748,26.827C22.645,26.827 22.56,26.855 22.499,26.913C22.436,26.972 22.404,27.054 22.404,27.159C22.404,27.207 22.413,27.252 22.429,27.295C22.48,27.432 22.592,27.5 22.764,27.5C22.848,27.5 22.917,27.489 22.973,27.466C22.973,27.43 22.98,27.384 22.99,27.329C22.917,27.372 22.847,27.391 22.778,27.391C22.704,27.391 22.646,27.37 22.603,27.327H22.604Z" id="path_10"/><path fill="#374760ff" d="M23.44,26.847H23.31V27.48H23.44V26.847Z" id="path_11"/><path fill="#374760ff" d="M23.938,26.847H23.809V27.48H24.249V27.361H23.938V26.847Z" id="path_12"/><path fill="#374760ff" d="M25.334,26.827C25.236,26.827 25.157,26.857 25.097,26.92C25.037,26.982 25.008,27.063 25.008,27.163C25.008,27.263 25.037,27.343 25.097,27.404C25.157,27.466 25.236,27.497 25.334,27.497C25.432,27.497 25.511,27.466 25.571,27.404C25.631,27.343 25.661,27.261 25.661,27.161C25.661,27.061 25.631,26.98 25.571,26.918C25.511,26.855 25.432,26.825 25.334,26.825V26.827ZM25.478,27.316C25.443,27.359 25.396,27.379 25.334,27.379C25.273,27.379 25.225,27.357 25.19,27.316C25.157,27.277 25.139,27.225 25.139,27.163C25.139,27.1 25.157,27.048 25.188,27.007C25.223,26.964 25.273,26.945 25.332,26.945C25.392,26.945 25.443,26.966 25.476,27.007C25.51,27.046 25.525,27.098 25.525,27.163C25.525,27.227 25.508,27.277 25.476,27.316H25.478Z" id="path_13"/><path fill="#374760ff" d="M25.982,27.48H26.114V27.213H26.359V27.109H26.114V26.955H26.402V26.847H25.982V27.48Z" id="path_14"/><path fill="#374760ff" d="M27.342,27.198H27.588V27.095H27.342V26.95H27.627V26.847H27.212V27.48H27.643V27.373H27.342V27.198Z" id="path_15"/><path fill="#374760ff" d="M28.476,27.296L28.101,26.847H27.974V27.48H28.097V27.027L28.476,27.48H28.599V26.847H28.476V27.296Z" id="path_16"/><path fill="#374760ff" d="M29.307,27.273H29.442V27.368C29.402,27.384 29.356,27.391 29.303,27.391C29.233,27.391 29.173,27.372 29.128,27.33C29.079,27.288 29.056,27.232 29.056,27.159C29.056,27.086 29.077,27.032 29.117,26.993C29.159,26.952 29.214,26.932 29.286,26.932C29.358,26.932 29.435,26.955 29.531,27.002C29.526,26.968 29.523,26.925 29.523,26.873C29.449,26.841 29.372,26.825 29.288,26.825C29.18,26.825 29.094,26.854 29.029,26.909C28.959,26.97 28.924,27.052 28.924,27.159C28.924,27.266 28.959,27.348 29.029,27.409C29.096,27.466 29.182,27.495 29.288,27.495C29.386,27.495 29.477,27.477 29.561,27.441V27.166H29.307V27.271V27.273Z" id="path_17"/><path fill="#374760ff" d="M30.035,26.847H29.906V27.48H30.035V26.847Z" id="path_18"/><path fill="#374760ff" d="M30.904,27.296L30.529,26.847H30.402V27.48H30.525V27.027L30.904,27.48H31.027V26.847H30.904V27.296Z" id="path_19"/><path fill="#374760ff" d="M31.524,27.198H31.77V27.095H31.524V26.95H31.807V26.847H31.394V27.48H31.824V27.373H31.524V27.198Z" id="path_20"/><path fill="#374760ff" d="M32.286,27.198H32.532V27.095H32.286V26.95H32.57V26.847H32.156V27.48H32.586V27.373H32.286V27.198Z" id="path_21"/><path fill="#374760ff" d="M33.41,27.343C33.394,27.309 33.378,27.282 33.36,27.264C33.339,27.241 33.313,27.225 33.283,27.216C33.381,27.204 33.438,27.139 33.438,27.039C33.438,26.968 33.413,26.916 33.362,26.884C33.322,26.859 33.264,26.848 33.188,26.848H32.918V27.482H33.048V27.245H33.122C33.15,27.245 33.169,27.247 33.18,27.252C33.222,27.27 33.267,27.347 33.322,27.482H33.487C33.473,27.463 33.464,27.447 33.459,27.436C33.441,27.404 33.425,27.373 33.411,27.345L33.41,27.343ZM33.183,27.146H33.048V26.957H33.201C33.237,26.957 33.264,26.963 33.281,26.973C33.304,26.988 33.315,27.011 33.315,27.045C33.315,27.114 33.271,27.148 33.183,27.148V27.146Z" id="path_22"/><path fill="#374760ff" d="M34.166,27.157C34.14,27.139 34.092,27.122 34.022,27.105C33.91,27.08 33.854,27.046 33.854,27.007C33.854,26.955 33.897,26.931 33.989,26.931C34.063,26.931 34.127,26.947 34.184,26.975C34.178,26.925 34.177,26.884 34.177,26.852C34.117,26.834 34.057,26.827 34.001,26.827C33.927,26.827 33.868,26.839 33.824,26.864C33.768,26.897 33.739,26.947 33.739,27.016C33.739,27.077 33.764,27.123 33.81,27.154C33.826,27.164 33.861,27.177 33.919,27.191C33.982,27.209 34.026,27.222 34.047,27.232C34.089,27.25 34.11,27.273 34.11,27.298C34.11,27.361 34.061,27.393 33.963,27.393C33.878,27.393 33.805,27.368 33.739,27.322C33.746,27.364 33.752,27.407 33.752,27.455C33.813,27.482 33.887,27.497 33.971,27.497C34.047,27.497 34.106,27.482 34.15,27.452C34.203,27.418 34.229,27.363 34.229,27.289C34.229,27.229 34.208,27.184 34.166,27.156V27.157Z" id="path_23"/><path fill="#374760ff" d="M14.538,25.091C14.597,25.091 14.625,25.059 14.625,24.995C14.625,24.931 14.596,24.897 14.538,24.897C14.48,24.897 14.45,24.929 14.45,24.995C14.45,25.061 14.48,25.091 14.538,25.091Z" id="path_24"/><path fill="#374760ff" d="M15.579,25.968C15.519,25.968 15.489,26 15.489,26.066C15.489,26.132 15.519,26.163 15.579,26.163C15.638,26.163 15.668,26.131 15.668,26.066C15.668,26.002 15.638,25.968 15.579,25.968Z" id="path_25"/><path fill="#374760ff" d="M15.405,26.066C15.405,26 15.375,25.968 15.315,25.968C15.256,25.968 15.228,26 15.228,26.066C15.228,26.132 15.257,26.163 15.315,26.163C15.373,26.163 15.405,26.131 15.405,26.066Z" id="path_26"/><path fill="#374760ff" d="M17.008,25.058H16.862V25.766H16.757C16.702,25.766 16.657,25.749 16.623,25.713C16.588,25.677 16.571,25.631 16.571,25.574V25.193H16.425V25.766H16.32C16.265,25.766 16.219,25.749 16.186,25.713C16.153,25.677 16.133,25.631 16.133,25.574V25.193H15.988V25.766H15.707C15.656,25.766 15.614,25.752 15.584,25.722C15.552,25.691 15.538,25.65 15.538,25.6V25.059H15.386V25.768H15.157C15.106,25.768 15.066,25.754 15.035,25.723C15.003,25.693 14.987,25.652 14.987,25.602V25.061H14.841V25.909C14.841,26.095 14.745,26.188 14.554,26.188H14.469C14.397,26.188 14.343,26.163 14.304,26.111C14.266,26.059 14.246,25.988 14.246,25.893C14.246,25.747 14.266,25.622 14.304,25.518H14.162C14.115,25.634 14.092,25.763 14.092,25.904C14.092,26.034 14.123,26.136 14.187,26.211C14.25,26.286 14.332,26.323 14.438,26.323H14.561C14.845,26.323 14.987,26.182 14.987,25.899V25.806C15.017,25.865 15.071,25.897 15.15,25.904H15.18H15.537V25.804C15.57,25.87 15.633,25.904 15.73,25.904H16.133V25.804C16.165,25.87 16.228,25.904 16.325,25.904H16.571V25.804C16.602,25.87 16.665,25.904 16.762,25.904H17.008V25.059V25.058Z" id="path_27"/><path fill="#374760ff" d="M18.386,24.897C18.445,24.897 18.474,24.865 18.474,24.8C18.474,24.736 18.444,24.702 18.386,24.702C18.328,24.702 18.298,24.734 18.298,24.8C18.298,24.867 18.328,24.897 18.386,24.897Z" id="path_28"/><path fill="#374760ff" d="M21.956,25.766H21.695C21.644,25.766 21.602,25.752 21.572,25.722C21.541,25.691 21.526,25.65 21.526,25.6V24.581H21.374V25.768H20.873C20.916,25.738 20.949,25.695 20.973,25.638C20.998,25.581 21.012,25.522 21.012,25.461C21.012,25.329 20.977,25.227 20.903,25.152C20.831,25.077 20.736,25.042 20.621,25.042C20.505,25.042 20.405,25.084 20.329,25.172C20.255,25.259 20.219,25.372 20.219,25.507C20.219,25.62 20.238,25.706 20.275,25.766H19.89V25.341C19.89,25.156 19.839,25.013 19.739,24.909C19.639,24.808 19.495,24.756 19.309,24.756C19.176,24.756 19.058,24.774 18.953,24.809L18.991,24.943C19.091,24.909 19.197,24.892 19.307,24.892C19.458,24.892 19.569,24.929 19.639,25.008C19.709,25.084 19.745,25.2 19.745,25.354V25.765H19.486V25.143H19.279C19.13,25.143 19.016,25.175 18.934,25.241C18.851,25.306 18.811,25.399 18.811,25.516C18.811,25.629 18.851,25.711 18.93,25.766H18.63C18.579,25.766 18.537,25.752 18.507,25.722C18.475,25.691 18.461,25.65 18.461,25.6V25.059H18.309V25.768H18.08C18.033,25.768 17.991,25.75 17.95,25.715C17.91,25.679 17.885,25.64 17.875,25.598C17.794,25.284 17.656,25.086 17.455,25.006L17.401,25.138C17.585,25.225 17.706,25.434 17.764,25.768H17.194V25.904H17.912V25.806C17.952,25.868 18.007,25.899 18.075,25.902H18.087H18.461V25.802C18.495,25.868 18.558,25.902 18.653,25.902H21.523V25.802C21.556,25.868 21.619,25.902 21.714,25.902H22.106V24.579H21.953V25.766H21.956ZM19.344,25.766H19.204C19.132,25.766 19.076,25.745 19.032,25.7C18.988,25.656 18.967,25.597 18.967,25.524C18.967,25.363 19.07,25.281 19.278,25.281H19.346V25.766H19.344ZM20.787,25.684C20.74,25.74 20.673,25.766 20.587,25.766H20.433C20.392,25.711 20.373,25.624 20.373,25.507C20.373,25.406 20.398,25.325 20.443,25.265C20.491,25.204 20.55,25.175 20.621,25.175C20.691,25.175 20.749,25.2 20.793,25.25C20.837,25.3 20.858,25.368 20.858,25.456C20.858,25.554 20.835,25.631 20.787,25.684Z" id="path_29"/><path fill="#374760ff" d="M23.069,24.897C23.129,24.897 23.159,24.865 23.159,24.8C23.159,24.736 23.129,24.702 23.069,24.702C23.01,24.702 22.982,24.734 22.982,24.8C22.982,24.867 23.012,24.897 23.069,24.897Z" id="path_30"/><path fill="#374760ff" d="M23.333,24.897C23.392,24.897 23.421,24.865 23.421,24.8C23.421,24.736 23.391,24.702 23.333,24.702C23.275,24.702 23.243,24.734 23.243,24.8C23.243,24.867 23.273,24.897 23.333,24.897Z" id="path_31"/><path fill="#374760ff" d="M23.928,26.066C23.928,26 23.898,25.968 23.838,25.968C23.779,25.968 23.749,26 23.749,26.066C23.749,26.132 23.779,26.163 23.838,26.163C23.898,26.163 23.928,26.131 23.928,26.066Z" id="path_32"/><path fill="#374760ff" d="M24.077,25.058H23.924V25.766H23.521V25.058H23.263C23.122,25.058 23.008,25.097 22.922,25.177C22.836,25.257 22.794,25.366 22.794,25.504C22.794,25.627 22.829,25.725 22.899,25.795C22.969,25.865 23.064,25.9 23.185,25.9H24.077V25.056V25.058ZM23.377,25.766H23.182C23.026,25.766 22.948,25.679 22.948,25.504C22.948,25.407 22.976,25.331 23.033,25.275C23.089,25.22 23.168,25.193 23.27,25.193H23.377V25.766Z" id="path_33"/><path fill="#374760ff" d="M24.012,26.066C24.012,26.131 24.042,26.163 24.102,26.163C24.161,26.163 24.19,26.131 24.19,26.066C24.19,26.002 24.16,25.968 24.102,25.968C24.044,25.968 24.012,26 24.012,26.066Z" id="path_34"/><path fill="#374760ff" d="M24.527,25.004L24.472,25.136C24.656,25.224 24.778,25.433 24.836,25.766H24.265V25.902H24.983V25.77C24.913,25.352 24.762,25.097 24.528,25.004H24.527Z" id="path_35"/><path fill="#374760ff" d="M28.661,25.766H28.434C28.383,25.766 28.343,25.752 28.312,25.722C28.28,25.691 28.264,25.65 28.264,25.6V25.059H28.118V25.768H28.013C27.959,25.768 27.913,25.75 27.88,25.715C27.844,25.679 27.827,25.632 27.827,25.575V25.195H27.681V25.768H27.576C27.521,25.768 27.476,25.75 27.442,25.715C27.407,25.679 27.39,25.632 27.39,25.575V25.195H27.244V25.768H26.809C26.747,25.768 26.684,25.756 26.619,25.733C26.714,25.666 26.789,25.577 26.844,25.465C26.898,25.352 26.926,25.236 26.926,25.115C26.839,25.042 26.714,25.006 26.552,25.006C26.463,25.006 26.377,25.025 26.291,25.066C26.205,25.106 26.136,25.161 26.086,25.233C26.1,25.327 26.135,25.422 26.193,25.516C26.249,25.611 26.314,25.684 26.384,25.736C26.33,25.759 26.261,25.772 26.18,25.772H25.861V25.063H25.636C25.496,25.063 25.382,25.102 25.295,25.183C25.209,25.263 25.167,25.372 25.167,25.509C25.167,25.638 25.201,25.736 25.267,25.804C25.334,25.872 25.427,25.906 25.55,25.906H25.717V25.956C25.717,26.027 25.694,26.084 25.65,26.125C25.606,26.166 25.545,26.188 25.469,26.188C25.394,26.188 25.315,26.164 25.227,26.118L25.159,26.234C25.25,26.293 25.352,26.323 25.466,26.323C25.59,26.323 25.689,26.289 25.757,26.223C25.826,26.157 25.861,26.065 25.861,25.947V25.906H26.182C26.296,25.906 26.403,25.877 26.5,25.818C26.605,25.875 26.71,25.906 26.816,25.906H27.39V25.806C27.421,25.872 27.485,25.906 27.581,25.906H27.827V25.806C27.858,25.872 27.922,25.906 28.018,25.906H28.264V25.806C28.294,25.865 28.348,25.897 28.427,25.904H28.457H28.813V24.581H28.661V25.768V25.766ZM25.712,25.766H25.552C25.396,25.766 25.317,25.679 25.317,25.504C25.317,25.407 25.345,25.331 25.401,25.275C25.457,25.22 25.536,25.193 25.638,25.193H25.712V25.766ZM26.5,25.654C26.366,25.55 26.282,25.424 26.249,25.275C26.279,25.238 26.324,25.206 26.384,25.179C26.444,25.152 26.501,25.14 26.558,25.14C26.656,25.14 26.726,25.156 26.77,25.186C26.758,25.384 26.668,25.54 26.501,25.654H26.5Z" id="path_36"/><path fill="#374760ff" d="M29.256,24.579H29.103V25.902H29.256V24.579Z" id="path_37"/><path fill="#374760ff" d="M30.479,24.897C30.539,24.897 30.567,24.865 30.567,24.8C30.567,24.736 30.538,24.702 30.479,24.702C30.422,24.702 30.39,24.734 30.39,24.8C30.39,24.867 30.42,24.897 30.479,24.897Z" id="path_38"/><path fill="#374760ff" d="M30.216,24.897C30.276,24.897 30.306,24.865 30.306,24.8C30.306,24.736 30.276,24.702 30.216,24.702C30.156,24.702 30.128,24.734 30.128,24.8C30.128,24.867 30.158,24.897 30.216,24.897Z" id="path_39"/><path fill="#374760ff" d="M31.312,24.892V24.806C31.271,24.809 31.224,24.816 31.171,24.824L31.14,24.829C31.104,24.811 31.089,24.783 31.089,24.747C31.089,24.688 31.118,24.658 31.178,24.658C31.208,24.658 31.236,24.665 31.264,24.679L31.291,24.601C31.257,24.583 31.219,24.576 31.178,24.576C31.126,24.576 31.082,24.59 31.05,24.617C31.018,24.643 31.003,24.683 31.003,24.733C31.003,24.779 31.022,24.815 31.062,24.841L30.982,24.854V24.934C31.015,24.927 31.075,24.918 31.159,24.908C31.243,24.897 31.294,24.892 31.313,24.892H31.312Z" id="path_40"/><path fill="#374760ff" d="M31.849,25.968C31.789,25.968 31.759,26 31.759,26.066C31.759,26.132 31.789,26.163 31.849,26.163C31.909,26.163 31.938,26.131 31.938,26.066C31.938,26.002 31.909,25.968 31.849,25.968Z" id="path_41"/><path fill="#374760ff" d="M31.675,26.066C31.675,26 31.645,25.968 31.586,25.968C31.526,25.968 31.498,26 31.498,26.066C31.498,26.132 31.528,26.163 31.586,26.163C31.643,26.163 31.675,26.131 31.675,26.066Z" id="path_42"/><path fill="#374760ff" d="M33.441,25.902H33.787V24.579H33.634V25.766H33.237V25.341C33.237,25.156 33.187,25.013 33.086,24.909C32.986,24.808 32.842,24.756 32.656,24.756C32.523,24.756 32.405,24.774 32.3,24.809L32.339,24.943C32.439,24.909 32.544,24.892 32.655,24.892C32.806,24.892 32.916,24.929 32.986,25.008C33.057,25.084 33.092,25.2 33.092,25.354V25.765H32.834V25.143H32.626C32.477,25.143 32.363,25.175 32.281,25.241C32.198,25.306 32.158,25.399 32.158,25.516C32.158,25.629 32.198,25.711 32.277,25.766H31.977C31.926,25.766 31.884,25.752 31.854,25.722C31.823,25.691 31.808,25.65 31.808,25.6V25.059H31.656V25.768H31.394C31.343,25.768 31.301,25.754 31.271,25.723C31.24,25.693 31.226,25.652 31.226,25.602V25.061H31.073V25.77H30.669V25.061H30.411C30.271,25.061 30.156,25.1 30.07,25.181C29.985,25.261 29.942,25.37 29.942,25.507C29.942,25.631 29.977,25.729 30.048,25.799C30.118,25.868 30.213,25.904 30.334,25.904H31.226V25.804C31.259,25.87 31.322,25.904 31.419,25.904H31.81V25.804C31.844,25.87 31.907,25.904 32.002,25.904H33.445L33.441,25.902ZM30.522,25.766H30.327C30.17,25.766 30.093,25.679 30.093,25.504C30.093,25.407 30.121,25.331 30.178,25.275C30.234,25.22 30.313,25.193 30.415,25.193H30.522V25.766ZM32.688,25.766H32.548C32.475,25.766 32.419,25.745 32.375,25.7C32.332,25.656 32.311,25.597 32.311,25.524C32.311,25.363 32.414,25.281 32.621,25.281H32.69V25.766H32.688Z" id="path_43"/><path fill="#374760ff" d="M34.229,24.579H34.077V25.902H34.229V24.579Z" id="path_44"/><path fill="@drawable/$partner_sce__0" d="M19.07,22.863C18.521,23.24 17.763,23.422 16.813,23.422C15.754,23.422 14.834,23.249 14.057,22.904C14.046,22.304 13.986,21.746 13.897,21.217C14.706,21.817 15.645,22.121 16.694,22.121C17.933,22.121 18.551,21.724 18.551,20.942C18.551,20.628 18.291,20.342 17.761,20.108C17.482,19.987 16.941,19.814 16.142,19.601C15.433,19.408 14.984,19.257 14.783,19.125C14.194,18.728 13.895,18.15 13.895,17.387C13.895,16.514 14.245,15.873 14.954,15.477C15.503,15.163 16.253,15 17.181,15C17.901,15 18.64,15.113 19.388,15.325C19.388,15.732 19.418,16.25 19.478,16.869C18.788,16.493 17.97,16.3 17.041,16.3C15.912,16.3 15.352,16.625 15.352,17.266C15.352,17.764 16.062,18.169 17.48,18.496C18.349,18.689 18.948,18.912 19.278,19.146C19.808,19.512 20.066,20.071 20.066,20.833C20.066,21.747 19.736,22.428 19.067,22.865L19.07,22.863Z" id="path_45"/><path fill="@drawable/$partner_sce__1" d="M28.046,22.995C27.348,23.279 26.468,23.422 25.42,23.422C23.252,23.422 21.855,22.569 21.205,20.851C21.005,20.323 20.905,19.753 20.905,19.155C20.905,17.834 21.305,16.809 22.104,16.066C22.873,15.355 23.923,15 25.23,15C26.129,15 27.018,15.143 27.888,15.416C27.878,15.691 27.869,15.884 27.869,16.016C27.869,16.33 27.899,16.666 27.969,17.021C27.051,16.545 26.18,16.311 25.362,16.311C24.544,16.311 23.844,16.555 23.335,17.052C22.826,17.55 22.566,18.219 22.566,19.064C22.566,19.998 22.836,20.73 23.385,21.269C23.935,21.808 24.674,22.07 25.592,22.07C26.451,22.07 27.341,21.806 28.269,21.278C28.129,21.969 28.06,22.538 28.05,22.995H28.046Z" id="path_46"/><path fill="@drawable/$partner_sce__2" d="M34.375,16.605C34.285,15.937 34.294,15 34.294,15H29.1L30.738,16.311C30.738,16.311 33.401,16.121 34.373,16.605H34.375Z" id="path_47"/><path fill="@drawable/$partner_sce__3" d="M32.716,19.865V18.555C31.259,18.555 29.101,19.21 29.101,19.21C29.101,19.21 31.241,19.865 32.716,19.865Z" id="path_48"/><path fill="@drawable/$partner_sce__4" d="M34.375,21.815C34.285,22.483 34.294,23.42 34.294,23.42H29.1L30.738,22.11C30.738,22.11 33.401,22.299 34.373,21.815H34.375Z" id="path_49"/><path fill="@drawable/$partner_sce__5" d="M11.806,19.49L12.442,18.517L8.72,21.153L5,18.517L5.635,19.49L8.083,21.604L5.516,23.42H7.256L8.72,22.156L10.186,23.42H11.925L9.359,21.604L11.806,19.49Z" id="path_50"/><path fill="@drawable/$partner_sce__6" d="M11.011,17.314C11.011,17.239 11.007,17.164 11,17.091C10.252,16.568 9.728,16.439 9.161,16.475C9.624,16.382 10.167,16.205 10.809,16.325C10.674,16.005 10.474,15.721 10.226,15.495C9.707,15.596 9.229,15.909 8.946,16.223C9.206,15.757 9.35,15.129 9.35,15.129C9.154,15.07 8.945,15.039 8.73,15.039C8.516,15.039 8.307,15.071 8.111,15.129C8.111,15.129 8.255,15.757 8.515,16.223C8.23,15.909 7.753,15.596 7.235,15.495C6.987,15.723 6.789,16.005 6.652,16.325C7.294,16.205 7.839,16.38 8.3,16.475C7.733,16.439 7.208,16.568 6.461,17.091C6.454,17.164 6.45,17.239 6.45,17.314C6.45,17.619 6.504,17.91 6.601,18.178C7.114,17.669 7.686,17.177 8.19,16.837C7.649,17.257 7.152,17.982 7.042,18.935C7.294,19.23 7.616,19.46 7.979,19.596C8.034,18.659 8.26,17.657 8.574,16.875C8.588,17.939 8.455,19.71 8.402,20.565L8.736,20.801L9.059,20.573C9.006,19.723 8.873,17.941 8.887,16.873C9.199,17.655 9.427,18.659 9.482,19.594C9.845,19.458 10.167,19.23 10.419,18.933C10.309,17.98 9.812,17.255 9.271,16.836C9.775,17.175 10.349,17.667 10.86,18.176C10.957,17.909 11.011,17.618 11.011,17.312V17.314Z" id="path_51"/><path fill="@drawable/$partner_sce__7" d="M11.004,17.287C11.004,17.212 11,17.137 10.993,17.064C10.242,16.539 9.715,16.409 9.147,16.444C9.612,16.352 10.156,16.175 10.802,16.295C10.665,15.973 10.465,15.689 10.217,15.461C9.696,15.563 9.217,15.877 8.931,16.193C9.19,15.725 9.336,15.093 9.336,15.093C9.138,15.034 8.929,15.002 8.715,15.002C8.5,15.002 8.29,15.034 8.093,15.093C8.093,15.093 8.237,15.725 8.499,16.193C8.214,15.877 7.733,15.563 7.212,15.461C6.964,15.689 6.764,15.973 6.627,16.295C7.273,16.175 7.819,16.352 8.283,16.444C7.712,16.409 7.186,16.537 6.436,17.064C6.429,17.137 6.425,17.212 6.425,17.287C6.425,17.593 6.48,17.885 6.576,18.155C7.091,17.644 7.665,17.15 8.172,16.809C7.628,17.23 7.131,17.959 7.019,18.916C7.273,19.212 7.595,19.442 7.96,19.578C8.014,18.637 8.242,17.63 8.557,16.844C8.571,17.912 8.437,19.692 8.385,20.551L8.718,20.788L9.041,20.56C8.989,19.706 8.855,17.917 8.869,16.846C9.183,17.632 9.412,18.639 9.466,19.58C9.831,19.444 10.152,19.214 10.407,18.917C10.295,17.96 9.796,17.232 9.254,16.81C9.761,17.152 10.335,17.646 10.849,18.157C10.948,17.887 11,17.594 11,17.289L11.004,17.287Z" id="path_52"/><path fill="@drawable/$partner_sce__8" d="M9.147,16.444C9.382,16.396 9.64,16.328 9.919,16.287C9.889,16.229 9.856,16.173 9.815,16.121C9.708,15.982 9.571,15.873 9.408,15.795C9.22,15.914 9.057,16.053 8.932,16.191C9.018,16.036 9.092,15.862 9.152,15.7C8.894,15.632 8.594,15.621 8.265,15.664C8.327,15.836 8.406,16.023 8.497,16.191C8.348,16.027 8.146,15.862 7.914,15.729C7.519,15.82 7.096,15.98 6.668,16.205C6.654,16.234 6.64,16.264 6.627,16.295C7.273,16.175 7.819,16.352 8.283,16.444C7.712,16.409 7.186,16.537 6.436,17.064C6.429,17.137 6.425,17.212 6.425,17.287C6.425,17.593 6.48,17.885 6.576,18.155C7.091,17.644 7.665,17.15 8.172,16.809C7.628,17.23 7.131,17.959 7.019,18.916C7.273,19.212 7.595,19.442 7.96,19.578C8.014,18.637 8.242,17.63 8.557,16.844C8.567,17.635 8.497,18.817 8.437,19.726C8.623,19.553 8.797,19.376 8.953,19.196C8.904,18.392 8.86,17.489 8.867,16.844C9.082,17.38 9.257,18.019 9.362,18.671C9.624,18.294 9.817,17.917 9.929,17.562C9.733,17.253 9.498,17 9.252,16.809C9.485,16.966 9.735,17.157 9.984,17.366C10.054,17.068 10.065,16.791 10.009,16.546C9.708,16.45 9.431,16.425 9.143,16.444H9.147Z" stroke-opacity="0.7" fill-opacity="0.7" id="path_53"/><path fill="@drawable/$partner_sce__9" d="M5.664,19.507L7.093,20.742C7.279,20.637 7.463,20.521 7.647,20.392L5.03,18.539L5.662,19.507H5.664Z" stroke-opacity="0.6" fill-opacity="0.6" id="path_54"/></svg>