<svg id="vector" xmlns="http://www.w3.org/2000/svg" width="64.0d" height="64.0d" viewBox="0 0 64.0 64.0"><path fill="#ffffffff" d="M32,32m-31.75,0a31.75,31.75 0,1 1,63.5 0a31.75,31.75 0,1 1,-63.5 0" stroke="#e6e6e6ff" stroke-width="0.5" id="path_0"/><path fill="@drawable/$partner_leap__0" d="M4,24h56v16h-56z" id="path_1"/><path fill="#ffffffff" d="M14.689,36.982C14.381,37.301 14.076,37.623 13.764,37.937C13.729,37.973 13.657,37.984 13.602,37.984C11.788,37.986 9.973,37.986 8.158,37.983C8.057,37.983 7.987,38.011 7.917,38.087C7.738,38.282 7.551,38.468 7.365,38.667C6.914,38.676 6.466,38.676 6.006,38.666C6.018,38.612 6.037,38.563 6.07,38.527C6.188,38.399 6.314,38.279 6.43,38.149C6.457,38.118 6.454,38.059 6.465,38.013C6.353,38.004 6.241,37.994 6.114,37.978C6.094,37.964 6.088,37.96 6.081,37.957C6.079,37.924 6.076,37.89 6.076,37.857C6.076,34.523 6.077,31.188 6.089,27.84C6.146,27.796 6.197,27.772 6.235,27.734C6.658,27.302 7.081,26.869 7.499,26.431C7.571,26.356 7.643,26.327 7.745,26.329C8.145,26.334 8.546,26.33 8.947,26.331C9.172,26.332 9.151,26.306 9.151,26.536C9.152,29.452 9.152,32.368 9.153,35.284C9.001,35.444 8.849,35.604 8.678,35.768C8.625,35.806 8.591,35.839 8.537,35.891C8.596,35.905 8.614,35.913 8.631,35.913C9.092,35.913 9.553,35.916 10.014,35.91C10.062,35.91 10.12,35.876 10.156,35.84C10.331,35.668 10.496,35.485 10.674,35.316C10.726,35.267 10.809,35.227 10.878,35.227C12.098,35.222 13.318,35.225 14.539,35.22C14.669,35.219 14.691,35.266 14.69,35.386C14.684,35.917 14.688,36.45 14.689,36.982Z" id="path_2"/><path fill="#ffffffff" d="M58.358,30.897C58.318,30.945 58.279,30.983 58.229,31.006C58.246,30.554 58.278,30.118 58.201,29.665C57.853,29.665 57.511,29.665 57.169,29.665C57.153,29.579 57.14,29.509 57.127,29.439C56.874,28.07 56.086,27.152 54.856,26.623C54.12,26.307 53.342,26.189 52.547,26.188C51.625,26.186 50.703,26.189 49.78,26.184C49.65,26.184 49.556,26.218 49.463,26.316C48.917,26.887 48.366,27.452 47.814,28.015C47.771,28.059 47.708,28.082 47.654,28.115C47.676,28.077 47.691,28.031 47.721,28.001C48.319,27.382 48.918,26.764 49.521,26.151C49.564,26.107 49.639,26.076 49.699,26.075C50.785,26.071 51.871,26.049 52.956,26.079C53.863,26.105 54.744,26.308 55.532,26.795C56.431,27.351 57.013,28.152 57.213,29.227C57.232,29.332 57.257,29.436 57.282,29.552C57.623,29.552 57.971,29.552 58.323,29.552C58.328,29.615 58.332,29.666 58.347,29.722C58.358,30.063 58.358,30.399 58.348,30.752C58.345,30.795 58.352,30.822 58.358,30.849C58.358,30.862 58.358,30.875 58.358,30.897Z" id="path_3"/><path fill="#ffffffff" d="M5.573,25.884C6.081,25.871 6.588,25.871 7.122,25.871C7.095,25.918 7.089,25.935 7.078,25.946C6.602,26.437 6.126,26.927 5.649,27.417C5.634,27.433 5.612,27.441 5.583,27.453C5.573,26.935 5.573,26.416 5.573,25.884Z" id="path_4"/><path fill="#ffffffff" d="M6.456,38.017C6.454,38.059 6.457,38.118 6.43,38.149C6.314,38.279 6.188,38.399 6.07,38.527C6.037,38.563 6.018,38.612 5.992,38.666C5.954,38.676 5.915,38.676 5.864,38.676C5.873,38.641 5.887,38.601 5.913,38.572C6.09,38.387 6.269,38.204 6.456,38.017Z" id="path_5"/><path fill="#ffffffff" d="M25.256,26.129C25.856,26.129 26.443,26.132 27.03,26.126C27.094,26.125 27.172,26.09 27.219,26.044C27.404,25.868 27.578,25.681 27.756,25.499C27.788,25.466 27.821,25.436 27.873,25.386C27.873,26.339 27.873,27.264 27.873,28.201C27.756,28.201 27.641,28.201 27.526,28.201C26.808,28.201 26.091,28.2 25.373,28.204C25.32,28.204 25.252,28.225 25.216,28.262C24.419,29.076 23.626,29.893 22.817,30.726C24.073,30.726 25.313,30.726 26.561,30.726C26.561,31.615 26.561,32.49 26.561,33.377C24.725,33.377 22.887,33.377 21.042,33.377C21.042,33.996 21.042,34.602 21.042,35.221C23.104,35.221 25.165,35.221 27.233,35.221C27.233,36.175 27.233,37.117 27.233,38.072C27.18,38.072 27.13,38.072 27.08,38.072C24.704,38.072 22.328,38.071 19.952,38.074C19.857,38.074 19.79,38.048 19.722,37.978C19.126,37.357 18.524,36.742 17.928,36.122C17.885,36.077 17.85,36.002 17.85,35.941C17.846,32.704 17.847,29.467 17.847,26.231C17.847,26.203 17.847,26.175 17.847,26.129C20.316,26.129 22.779,26.129 25.256,26.129ZM23.648,29.64C23.857,29.427 24.066,29.214 24.288,28.987C23.186,28.987 22.114,28.987 21.043,28.987C21.043,29.573 21.043,30.15 21.043,30.734C21.544,30.734 22.037,30.736 22.53,30.731C22.573,30.73 22.622,30.694 22.655,30.66C22.983,30.327 23.308,29.99 23.648,29.64Z" id="path_6"/><path fill="#ffffffff" d="M47.653,28.128C47.708,28.082 47.771,28.059 47.814,28.015C48.366,27.452 48.917,26.887 49.463,26.316C49.556,26.218 49.65,26.184 49.78,26.184C50.703,26.189 51.625,26.186 52.547,26.188C53.342,26.189 54.12,26.307 54.856,26.623C56.086,27.152 56.874,28.07 57.127,29.439C57.14,29.509 57.153,29.579 57.169,29.665C57.511,29.665 57.853,29.665 58.201,29.665C58.278,30.118 58.246,30.554 58.218,31.004C57.934,31.018 57.65,31.02 57.366,31.021C57.304,31.022 57.251,31.016 57.238,31.109C57.16,31.651 56.971,32.151 56.667,32.601C56.239,33.234 55.677,33.695 54.986,33.995C54.489,34.211 53.976,34.342 53.444,34.419C52.647,34.535 51.845,34.495 51.045,34.504C50.981,34.504 50.917,34.504 50.837,34.504C50.837,34.861 50.826,35.209 50.841,35.557C50.851,35.759 50.792,35.9 50.65,36.042C50.088,36.602 49.539,37.176 48.988,37.749C48.92,37.819 48.853,37.845 48.758,37.844C48.395,37.838 48.032,37.842 47.659,37.842C47.659,35.562 47.659,33.287 47.659,31C47.991,31 48.329,31 48.675,31C48.675,30.525 48.675,30.063 48.675,29.587C48.34,29.587 48.003,29.587 47.65,29.587C47.65,29.097 47.65,28.619 47.653,28.128ZM53.438,31.64C53.707,31.501 53.889,31.282 54.008,30.993C54.322,30.993 54.639,30.99 54.955,30.995C55.038,30.996 55.075,30.973 55.099,30.886C55.215,30.478 55.194,30.081 55.04,29.687C55.008,29.604 54.964,29.579 54.878,29.58C54.599,29.587 54.319,29.587 54.04,29.579C53.987,29.577 53.915,29.539 53.888,29.494C53.703,29.187 53.415,29.013 53.098,28.931C52.777,28.849 52.439,28.828 52.107,28.81C51.74,28.791 51.371,28.806 51.003,28.806C50.949,28.806 50.895,28.806 50.847,28.806C50.847,29.067 50.847,29.309 50.847,29.558C51.201,29.558 51.544,29.558 51.893,29.558C51.893,30.048 51.893,30.529 51.893,31.023C51.54,31.023 51.193,31.023 50.845,31.023C50.845,31.326 50.845,31.616 50.845,31.885C51.456,31.885 52.058,31.889 52.661,31.883C52.933,31.881 53.185,31.79 53.438,31.64Z" id="path_7"/><path fill="#ffffffff" d="M35.832,32.929C35.37,34.126 34.914,35.314 34.46,36.502C34.278,36.977 34.102,37.455 33.918,37.929C33.903,37.967 33.842,38.011 33.803,38.011C33.057,38.016 32.312,38.014 31.556,38.014C31.552,37.976 31.546,37.94 31.546,37.903C31.546,37.146 31.542,36.388 31.55,35.63C31.551,35.524 31.602,35.415 31.643,35.313C31.865,34.764 32.09,34.216 32.315,33.668C32.502,33.215 32.693,32.763 32.879,32.309C33.203,31.517 33.525,30.724 33.85,29.932C34.174,29.145 34.504,28.36 34.828,27.572C35.014,27.119 35.193,26.662 35.381,26.209C35.396,26.174 35.451,26.133 35.487,26.133C36.489,26.129 37.49,26.129 38.489,26.129C39.444,28.454 40.395,30.772 41.349,33.093C41.895,33.093 42.44,33.094 42.985,33.093C43.072,33.093 43.125,33.099 43.168,33.208C43.511,34.062 43.868,34.911 44.219,35.762C44.235,35.8 44.244,35.841 44.258,35.888C43.674,35.888 43.097,35.888 42.508,35.888C42.508,36.596 42.508,37.299 42.508,38.007C41.653,38.007 40.812,38.007 39.964,38.007C39.693,37.296 39.422,36.584 39.146,35.859C39.739,35.859 40.32,35.859 40.917,35.859C40.802,35.558 40.693,35.27 40.583,34.982C40.361,34.399 40.134,33.817 39.919,33.23C39.886,33.137 39.844,33.121 39.762,33.121C39.212,33.124 38.662,33.122 38.104,33.122C37.723,32.123 37.342,31.124 36.962,30.125C36.948,30.124 36.935,30.122 36.921,30.121C36.864,30.254 36.803,30.385 36.751,30.52C36.451,31.297 36.153,32.075 35.855,32.852C35.847,32.874 35.844,32.897 35.832,32.929Z" id="path_8"/><path fill="#ffffffff" d="M9.162,35.28C9.152,32.368 9.152,29.452 9.151,26.536C9.151,26.306 9.172,26.332 8.947,26.331C8.546,26.33 8.145,26.334 7.745,26.329C7.643,26.327 7.571,26.356 7.499,26.431C7.081,26.869 6.658,27.302 6.235,27.734C6.197,27.772 6.146,27.796 6.091,27.827C6.103,27.789 6.118,27.744 6.147,27.713C6.607,27.237 7.068,26.762 7.531,26.289C7.564,26.255 7.614,26.219 7.656,26.219C8.186,26.214 8.717,26.216 9.263,26.216C9.263,26.274 9.263,26.325 9.263,26.376C9.263,29.229 9.264,32.082 9.262,34.935C9.261,35.053 9.299,35.19 9.162,35.28Z" id="path_9"/><path fill="#ffffffff" d="M14.698,36.977C14.688,36.45 14.684,35.917 14.69,35.386C14.691,35.266 14.669,35.219 14.539,35.22C13.318,35.225 12.098,35.222 10.878,35.227C10.809,35.227 10.726,35.267 10.674,35.316C10.496,35.485 10.331,35.668 10.156,35.84C10.12,35.876 10.062,35.91 10.014,35.91C9.553,35.916 9.092,35.914 8.631,35.913C8.614,35.913 8.596,35.905 8.537,35.891C8.591,35.839 8.625,35.806 8.669,35.772C8.716,35.78 8.753,35.797 8.79,35.797C9.19,35.799 9.591,35.801 9.991,35.795C10.048,35.794 10.116,35.764 10.157,35.723C10.34,35.546 10.512,35.357 10.694,35.178C10.729,35.143 10.786,35.111 10.834,35.111C12.138,35.107 13.442,35.108 14.746,35.108C14.759,35.108 14.772,35.113 14.799,35.118C14.799,35.356 14.799,35.594 14.799,35.832C14.799,36.138 14.795,36.445 14.802,36.752C14.804,36.847 14.779,36.918 14.698,36.977Z" id="path_10"/><path fill="#ffffffff" d="M6.08,37.965C6.088,37.96 6.095,37.964 6.102,37.976C6.096,37.978 6.087,37.975 6.08,37.965Z" id="path_11"/></svg>