<svg id="vector" xmlns="http://www.w3.org/2000/svg" width="64.0d" height="64.0d" viewBox="0 0 64.0 64.0"><path fill="#ffffffff" d="M32,32m-31.75,0a31.75,31.75 0,1 1,63.5 0a31.75,31.75 0,1 1,-63.5 0" stroke="#e6e6e6ff" stroke-width="0.5" id="path_0"/><path fill="#41aca5ff" d="M41.462,29.82C36.9,29.82 33.188,26.047 33.188,21.41C33.188,16.773 36.9,13 41.462,13C44.608,13 47.441,14.775 48.856,17.632C49.246,18.419 48.935,19.378 48.16,19.774C47.386,20.17 46.443,19.853 46.053,19.067C45.175,17.292 43.415,16.19 41.462,16.19C38.63,16.19 36.326,18.532 36.326,21.411C36.326,24.289 38.63,26.631 41.462,26.631C43.42,26.631 45.237,25.472 46.089,23.679C46.467,22.886 47.405,22.554 48.185,22.937C48.965,23.321 49.292,24.274 48.915,25.067C48.248,26.47 47.211,27.656 45.919,28.498C44.588,29.363 43.047,29.82 41.462,29.82Z" id="path_1"/><path fill="#41aca5ff" d="M22.274,49.982C17.712,49.982 14,46.21 14,41.572C14,36.935 17.712,33.163 22.274,33.163C26.836,33.163 30.548,36.935 30.548,41.572C30.548,46.21 26.836,49.982 22.274,49.982ZM22.274,36.352C19.442,36.352 17.138,38.694 17.138,41.572C17.138,44.451 19.442,46.793 22.274,46.793C25.106,46.793 27.41,44.451 27.41,41.572C27.41,38.694 25.106,36.352 22.274,36.352Z" id="path_2"/><path fill="#41aca5ff" d="M21.891,29.855C19.595,29.855 17.131,28.907 14.75,26.487C14.099,25.824 14.116,24.74 14.803,24.101C15.448,23.501 16.452,23.552 17.072,24.179C18.948,26.076 20.905,26.844 22.887,26.461C23.795,26.285 24.596,25.902 25.237,25.495L15.885,19.52C15.328,19.163 14.973,18.577 14.911,17.91C14.85,17.244 15.092,16.602 15.575,16.148C18.016,13.853 20.58,12.803 23.196,13.031C25.474,13.228 27.27,14.377 28.412,15.354C29.205,16.032 29.174,17.284 28.351,17.925C27.748,18.394 26.903,18.379 26.323,17.882C25.557,17.225 24.353,16.436 22.895,16.317C21.614,16.213 20.298,16.64 18.966,17.59L28.369,23.597C28.929,23.955 29.285,24.545 29.342,25.215C29.4,25.886 29.152,26.531 28.662,26.984C26.859,28.647 24.481,29.855 21.891,29.855Z" id="path_3"/><path fill="#41aca5ff" d="M41.462,33.163C36.9,33.163 33.188,36.935 33.188,41.572C33.188,41.734 33.193,41.895 33.202,42.055C33.194,42.121 33.188,42.188 33.188,42.257V50.466C33.188,51.347 33.89,52.061 34.757,52.061C35.624,52.061 36.326,51.347 36.326,50.466V48.161C37.738,49.301 39.523,49.982 41.462,49.982C46.024,49.982 49.736,46.21 49.736,41.572C49.736,36.935 46.024,33.163 41.462,33.163ZM41.462,46.793C38.63,46.793 36.326,44.451 36.326,41.572C36.326,38.694 38.63,36.352 41.462,36.352C44.294,36.352 46.598,38.694 46.598,41.572C46.598,44.451 44.294,46.793 41.462,46.793Z" id="path_4"/><path fill="#41aca5ff" d="M41.28,23.229C42.307,23.229 43.14,22.383 43.14,21.338C43.14,20.294 42.307,19.447 41.28,19.447C40.252,19.447 39.419,20.294 39.419,21.338C39.419,22.383 40.252,23.229 41.28,23.229Z" id="path_5"/><path fill="#41aca5ff" d="M41.28,43.464C42.307,43.464 43.14,42.617 43.14,41.573C43.14,40.528 42.307,39.682 41.28,39.682C40.252,39.682 39.419,40.528 39.419,41.573C39.419,42.617 40.252,43.464 41.28,43.464Z" id="path_6"/><path fill="#41aca5ff" d="M21.344,44.32C21.321,44.32 21.299,44.319 21.276,44.319C20.926,44.299 20.599,44.13 20.377,43.855L18.867,41.98C18.514,41.542 18.577,40.897 19.008,40.537C19.439,40.179 20.074,40.243 20.428,40.681L21.407,41.895L24.195,39.117C24.593,38.721 25.231,38.728 25.621,39.132C26.011,39.536 26.005,40.185 25.607,40.581L22.219,43.956C21.986,44.19 21.67,44.32 21.344,44.32Z" id="path_7"/></svg>