<svg id="vector" xmlns="http://www.w3.org/2000/svg" width="64.0d" height="64.0d" viewBox="0 0 64.0 64.0"><path fill="#ffffffff" d="M32,32m-31.75,0a31.75,31.75 0,1 1,63.5 0a31.75,31.75 0,1 1,-63.5 0" stroke="#e6e6e6ff" stroke-width="0.5" id="path_0"/><path fill="#00c8e1ff" d="M15.336,43.741C11.67,43.741 9.875,41.889 9.875,38.23V34.758L13.205,36.799V38.366C13.205,39.921 13.929,40.646 15.463,40.646H15.606C17.146,40.646 17.865,39.916 17.865,38.366V35.778C17.865,34.269 17.437,33.55 16.374,32.896L12.741,30.667C10.496,29.3 9.881,27.531 9.881,25.079V23.397C9.881,19.656 11.712,17.806 15.421,17.806H15.812C19.477,17.806 21.272,19.656 21.272,23.317V25.494L17.949,23.456V23.187C17.949,21.632 17.223,20.907 15.689,20.907H15.547C14.006,20.907 13.288,21.638 13.288,23.187V25.04C13.226,25.621 13.34,26.208 13.615,26.722C13.89,27.236 14.313,27.655 14.828,27.921L18.415,30.106C20.729,31.514 21.264,33.112 21.264,35.694V38.151C21.264,41.889 19.432,43.742 15.724,43.742L15.336,43.741ZM38.621,39.026V18.063H42.03V35.585H43.53V39.026H38.621ZM46.94,39.026V35.584H59.155L57.084,39.024L46.94,39.026ZM28.088,39.026H24.678V18.069H31.495C32.605,18.069 34.664,18.829 35.337,21.677L35.341,21.692C35.351,21.732 35.361,21.774 35.37,21.818C35.399,21.949 35.426,22.096 35.449,22.242L35.459,22.314C35.465,22.356 35.471,22.399 35.477,22.441C35.497,22.607 35.513,22.77 35.525,22.925V23.069C35.539,23.298 35.545,23.487 35.545,23.662V26.638C35.545,26.814 35.539,27.003 35.525,27.231V27.375C35.512,27.54 35.496,27.703 35.477,27.858C35.471,27.901 35.465,27.943 35.459,27.985L35.449,28.057C35.426,28.204 35.401,28.344 35.373,28.488C35.369,28.508 35.364,28.528 35.359,28.549L35.354,28.573L35.34,28.63C34.666,31.476 32.609,32.236 31.498,32.236H28.088V39.032L28.088,39.026ZM28.088,29.132H29.883C30.19,29.159 30.499,29.123 30.792,29.027C31.085,28.931 31.356,28.776 31.589,28.573C31.79,28.338 31.943,28.065 32.038,27.77C32.133,27.474 32.169,27.163 32.143,26.853V23.441C32.143,21.886 31.425,21.161 29.883,21.161H28.087L28.088,29.132Z" id="path_1"/><path fill="#153c3fff" d="M27.451,45.894L29.766,43.568L32.082,45.894L29.766,48.223L27.451,45.894ZM15.269,46.835C9.918,46.835 6.466,43.925 6.466,38.245V32.742L9.8,34.778V38.249C9.8,41.905 11.6,43.752 15.275,43.752H15.667C19.381,43.752 21.222,41.905 21.222,38.168V25.529L24.643,27.61V39.038H28.06V32.253H31.478V39.038H35.204V33.63H38.622V39.038H43.544V33.63H46.962V39.038H48.115L53.437,39.032C52.735,41.1 51.013,42.125 48.243,42.125H23.912C22.702,44.917 19.968,46.835 15.662,46.835H15.269ZM50.382,35.603V32.253L53.8,30.165V35.602L50.382,35.603Z" id="path_2"/></svg>