<svg id="vector" xmlns="http://www.w3.org/2000/svg" width="40.0d" height="40.0d" viewBox="0 0 40.0 40.0"><defs><clipPath id="clip_path_0"><path d="M7.5,6.875h25v22.794h-25z"/></clipPath></defs><path fill="#ffffffff" d="M20,20m-19.75,0a19.75,19.75 0,1 1,39.5 0a19.75,19.75 0,1 1,-39.5 0" stroke="#e6e6e6ff" stroke-width="0.5" id="path_0"/><g id="g_0"><path fill="#9b945fff" d="M15.556,28.739C15.468,28.793 15.343,28.764 15.299,28.66C15.275,28.604 15.29,28.63 15.286,27.465H15.645V27.331H15.286V26.784H15.195C15.128,27.121 15.041,27.386 14.691,27.386V27.465H14.968C14.974,28.61 14.954,28.626 14.987,28.745C15.025,28.884 15.123,28.966 15.281,28.966C15.481,28.966 15.623,28.88 15.712,28.727L15.633,28.674C15.611,28.7 15.585,28.722 15.556,28.739ZM12.699,26.732C12.822,26.963 13.195,26.739 12.995,26.558C12.846,26.432 12.624,26.58 12.699,26.732ZM13.606,27.617C13.606,27.394 14.073,27.241 14.356,27.699L14.472,27.594C14.364,27.453 14.239,27.337 14.065,27.309C13.642,27.241 13.369,27.472 13.369,27.745C13.369,28.067 13.662,28.178 13.954,28.313C14.46,28.545 14.17,28.946 13.799,28.839C13.657,28.797 13.552,28.674 13.466,28.552L13.336,28.669C13.416,28.775 13.512,28.861 13.633,28.911C13.847,29.004 14.204,28.983 14.387,28.827C14.559,28.681 14.619,28.371 14.392,28.176C14.143,27.954 13.606,27.905 13.606,27.617ZM16.678,27.298C16.492,27.298 16.325,27.48 16.22,27.633V27.331H15.904V28.932H16.22V27.823C16.256,27.764 16.303,27.694 16.351,27.645C16.437,27.556 16.496,27.557 16.598,27.61C16.704,27.668 16.823,27.652 16.877,27.607C16.944,27.553 16.948,27.429 16.853,27.355C16.802,27.316 16.741,27.298 16.678,27.298ZM10.313,26.558C10.238,26.625 10.244,26.722 10.313,26.783C10.483,26.931 10.741,26.709 10.57,26.558C10.503,26.5 10.392,26.492 10.313,26.558ZM11.307,27.623V27.331H10.99V28.932H11.307V27.745C11.645,27.419 12.012,27.431 12.012,27.836V28.932H12.331V27.782C12.331,27.648 12.285,27.527 12.213,27.44C11.979,27.158 11.568,27.331 11.307,27.623ZM8.681,28.449H8.664L7.856,26.855H7.5V28.932H7.654V27.243H7.677L8.539,28.932H8.61L9.462,27.231H9.473V28.932H9.824V26.855H9.473M12.711,27.389V28.932H13.027V27.298H12.935M10.286,27.389V28.932H10.602V27.298H10.509M29.392,26.602V28.932H29.709V26.511H29.618M30.794,28.739C30.704,28.793 30.579,28.763 30.536,28.66C30.512,28.605 30.527,28.634 30.523,27.465H30.882V27.331H30.523V26.784H30.432C30.366,27.125 30.277,27.386 29.928,27.386V27.465H30.205C30.211,28.612 30.192,28.624 30.224,28.745C30.248,28.832 30.295,28.902 30.379,28.939C30.477,28.984 30.66,28.975 30.779,28.902C30.85,28.86 30.906,28.801 30.949,28.727L30.87,28.674C30.848,28.7 30.823,28.722 30.794,28.739ZM28.825,27.414C28.659,27.279 28.329,27.279 28.135,27.327C27.612,27.456 27.682,27.86 27.904,27.86C28.025,27.86 28.062,27.767 28.062,27.647C28.062,27.587 28.073,27.526 28.112,27.48C28.185,27.392 28.355,27.39 28.451,27.424C28.538,27.455 28.587,27.525 28.612,27.612C28.639,27.713 28.633,27.917 28.633,27.896C28.401,27.954 28.197,28.008 27.994,28.116C27.287,28.496 27.87,29.335 28.522,28.8C28.558,28.771 28.595,28.742 28.633,28.713V28.932H28.952C28.942,27.686 29.002,27.56 28.825,27.414ZM28.633,28.596C28.544,28.663 28.461,28.727 28.355,28.758C28.09,28.837 27.924,28.553 28.021,28.374C28.121,28.189 28.434,28.064 28.633,27.999V28.596ZM32.45,27.594C32.29,27.136 31.783,27.259 31.459,27.623V26.511H31.368L31.142,26.602V28.932H31.459V27.745C31.792,27.422 32.164,27.428 32.164,27.836V28.932H32.482C32.472,27.774 32.505,27.747 32.45,27.594ZM19.89,27.548C19.383,28.065 19.708,28.966 20.497,28.966C21.257,28.966 21.618,28.015 21.102,27.527C20.787,27.23 20.222,27.206 19.89,27.548ZM20.953,28.48C20.898,28.672 20.756,28.848 20.556,28.848C19.983,28.848 19.812,27.744 20.264,27.463C20.423,27.365 20.712,27.415 20.858,27.66C20.987,27.879 21.014,28.267 20.953,28.48ZM17.949,28.488L17.331,27.332H16.969L17.788,28.857C17.662,29.14 17.615,29.279 17.513,29.355C17.461,29.393 17.386,29.387 17.352,29.372C17.301,29.351 17.301,29.342 17.248,29.322C17.127,29.277 16.979,29.351 16.979,29.485C16.979,29.735 17.542,29.807 17.806,29.212L18.623,27.332H18.453L17.949,28.488ZM22.766,26.591C22.582,26.472 22.235,26.462 22.016,26.695C21.8,26.924 21.847,27.192 21.841,27.331H21.506V27.465H21.841V28.932H22.16V27.465H22.588V27.331H22.16C22.164,27.028 22.133,26.865 22.222,26.729C22.257,26.675 22.314,26.628 22.381,26.628C22.631,26.628 22.483,26.934 22.718,26.934C22.906,26.934 22.946,26.706 22.766,26.591ZM27.307,28.476C27.236,28.569 27.131,28.645 27.002,28.689C26.56,28.846 26.237,28.473 26.237,27.973H27.431C27.431,27.315 26.569,27.065 26.148,27.551C25.676,28.101 26,28.966 26.716,28.966C27.049,28.966 27.386,28.694 27.474,28.371L27.384,28.331C27.369,28.381 27.343,28.429 27.307,28.476ZM26.28,27.674C26.472,27.227 27.033,27.413 27.033,27.845L26.239,27.843C26.244,27.783 26.257,27.726 26.28,27.674ZM25.21,27.802H24.167V26.855H23.818V28.932H24.167V27.936H25.21V28.932H25.559V26.855H25.21" clip-path="url(#clip_path_0)"/><path fill="#9b945fff" d="M25.898,12.858C23.049,13.269 16.841,18.626 16.841,18.626H19.378C20.99,16.813 23.401,14.882 24.678,14.111C25.701,13.494 26.431,13.463 26.431,13.463C28.027,13.315 29.39,14.632 29.213,16.307C29.422,14.329 28.438,12.493 25.898,12.858Z" fill-rule="evenodd"/><path fill="#9b945fff" d="M14.069,12.858C11.53,12.493 10.545,14.329 10.754,16.307C10.576,14.629 11.948,13.316 13.536,13.463C13.536,13.463 14.267,13.494 15.289,14.111C16.469,14.824 18.908,16.736 20.59,18.626H23.126C23.126,18.626 16.919,13.269 14.069,12.858Z" fill-rule="evenodd"/><path fill="#008755ff" d="M19.859,24.558H18.731C18.734,24.537 18.794,24.236 18.794,23.968C18.794,22.627 17.79,22.074 16.809,22.768C16.106,23.264 15.96,23.744 15.532,24.558H15.514V23.224H15.163V24.558H14.143V24.425C14.143,23.015 13.123,22.514 12.249,22.514H10.904V22.812C11.002,22.805 12.146,22.802 12.204,22.802C13.886,22.802 13.763,24.537 13.77,24.558H9.454V22.312C9.352,22.3 9.17,22.292 9.09,22.292C8.453,22.292 7.511,22.75 7.511,23.734C7.511,24.412 8.021,24.817 8.668,24.817H8.78C8.799,24.796 9.04,24.537 9.021,24.558H8.765C7.75,24.558 7.639,23.353 8.303,22.831C8.54,22.645 8.817,22.579 8.982,22.579H9.104V24.817H20.209V20.813H19.859V24.558ZM18.379,24.514L18.368,24.558H15.867L15.883,24.486C16.102,23.512 16.977,22.756 17.585,22.756C17.781,22.756 18.42,22.848 18.42,24.031C18.42,24.105 18.418,24.358 18.379,24.514Z"/><path fill="#008755ff" d="M9.228,21.736C9.375,21.736 9.494,21.617 9.494,21.47C9.494,21.323 9.375,21.204 9.228,21.204C9.081,21.204 8.962,21.323 8.962,21.47C8.962,21.617 9.081,21.736 9.228,21.736Z"/><path fill="#008755ff" d="M21.315,20.813H21.666V24.817H21.315V20.813Z"/><path fill="#008755ff" d="M24.329,21.739C24.476,21.739 24.595,21.619 24.595,21.472C24.595,21.325 24.476,21.206 24.329,21.206C24.182,21.206 24.062,21.325 24.062,21.472C24.062,21.619 24.182,21.739 24.329,21.739Z"/><path fill="#008755ff" d="M8.432,21.736C8.579,21.736 8.698,21.617 8.698,21.47C8.698,21.323 8.579,21.204 8.432,21.204C8.285,21.204 8.165,21.323 8.165,21.47C8.165,21.617 8.285,21.736 8.432,21.736Z"/><path fill="#008755ff" d="M29.67,21.739C29.817,21.739 29.937,21.619 29.937,21.472C29.937,21.325 29.817,21.206 29.67,21.206C29.523,21.206 29.404,21.325 29.404,21.472C29.404,21.619 29.523,21.739 29.67,21.739Z"/><path fill="#008755ff" d="M32.257,22.371C31.345,22.371 30.631,22.992 30.631,23.785C30.631,24.5 31.257,24.865 31.875,24.814C31.895,24.792 32.144,24.537 32.123,24.558H31.891C31.45,24.558 31.004,24.307 31.004,23.746C31.004,23.243 31.469,22.682 32.091,22.682H32.15V24.87C32.15,25.289 32.072,25.677 31.503,25.677C31.454,25.677 31.39,25.671 31.323,25.659L31.279,25.927C31.363,25.943 31.453,25.953 31.594,25.953C31.867,25.953 32.5,25.862 32.5,25.019V22.392C32.403,22.378 32.324,22.371 32.257,22.371ZM29.496,25.036C29.496,25.495 29.311,25.683 28.86,25.683C28.812,25.683 28.741,25.674 28.686,25.665L28.642,25.945C29.496,26.069 29.846,25.69 29.846,25.144V22.668H29.496V25.036ZM26.533,25.036C26.533,25.495 26.348,25.683 25.897,25.683C25.849,25.683 25.779,25.674 25.723,25.665L25.679,25.945C26.534,26.069 26.882,25.688 26.882,25.144V22.668H26.533V25.036Z"/><path fill="#008755ff" d="M25.125,21.739C25.272,21.739 25.391,21.619 25.391,21.472C25.391,21.325 25.272,21.206 25.125,21.206C24.978,21.206 24.858,21.325 24.858,21.472C24.858,21.619 24.978,21.739 25.125,21.739Z"/><path fill="#008755ff" d="M27.954,20.813H28.304V24.817H27.954V20.813ZM23.404,23.763C23.404,24.363 23.902,24.817 24.561,24.817H25.347V22.312C24.205,22.153 23.404,22.888 23.404,23.763ZM24.997,24.558H24.664C23.34,24.558 23.588,22.579 24.87,22.579H24.997V24.558ZM13.873,14.578L13.113,15.338L12.353,14.578L11.487,15.443L12.353,16.308L13.113,15.548L13.873,16.308L14.738,15.443M21.874,8.008C22.66,8.053 23.419,8.397 23.971,9.003C23.33,7.509 21.642,6.793 20.14,7.319C20.063,7.039 20.003,6.875 20.003,6.875C20.003,6.875 19.941,7.039 19.865,7.319C18.357,6.791 16.67,7.516 16.035,9.003C16.586,8.397 17.346,8.053 18.131,8.008C17.219,8.711 16.788,9.846 16.975,10.95C17.125,10.055 17.663,9.291 18.41,8.836C17.842,9.967 18.016,11.334 18.884,12.287C18.374,11.108 18.659,9.728 19.589,8.847C19.568,9.076 19.555,9.316 19.555,9.564C19.555,11.049 20.003,12.253 20.003,12.253C20.006,12.23 20.587,10.665 20.416,8.847C21.346,9.728 21.631,11.108 21.121,12.287C21.978,11.351 22.169,9.979 21.595,8.836C22.342,9.291 22.881,10.055 23.03,10.95C23.216,9.856 22.793,8.716 21.874,8.008Z"/><path fill="#008755ff" d="M22.983,14.999C19.104,10.867 16.896,14.052 16.896,14.052C16.896,14.052 18.788,12.181 22.384,16.154C24,17.94 25.443,18.638 26.607,18.626C27.5,18.617 28.32,18.199 28.898,17.295C28.991,17.149 29.047,16.998 29.047,16.998C28.007,18.234 26.637,18.89 22.983,14.999Z" fill-rule="evenodd"/></g></svg>