<svg id="vector" xmlns="http://www.w3.org/2000/svg" width="64.0d" height="64.0d" viewBox="0 0 64.0 64.0"><path fill="#ffffffff" d="M32,32m-31.75,0a31.75,31.75 0,1 1,63.5 0a31.75,31.75 0,1 1,-63.5 0" stroke="#e6e6e6ff" stroke-width="0.5" id="path_0"/><path fill="#59b8b2ff" d="M35.186,37.356L33.746,36.68L33.835,36.504L33.658,36.415L33.548,36.587L32.581,36.133L32.085,35.9L31.932,35.829L31.779,35.757L31.767,35.75L31.249,35.507L31.206,35.487L31.094,35.435L30.94,35.361L30.817,35.305L30.634,35.219L29.601,34.733L29.33,34.606L29.184,34.537L27.932,33.949L27.58,33.784L27.039,33.53L26.556,33.304L26.465,33.26L25.92,33.304L25.739,33.318L26.593,33.736L27.274,34.07L27.744,34.3L28.693,34.764L29,34.915L29.601,35.209L30.416,35.608L30.422,35.611L30.567,35.682L30.719,35.757L31.249,36.016L31.399,36.09L31.549,36.163L31.549,36.164L32.666,36.71L32.684,36.719L32.898,36.761L33.187,36.817L33.317,36.948L33.17,37.176L33.432,37.307L33.515,37.143L34.953,37.851L35.186,37.357L35.186,37.356Z" id="path_1"/><path fill="#59b8b2ff" d="M31.753,27.313L32.349,26.763L32.581,26.213L32.651,26.047L32.581,26.038L32.447,26.019L32.191,25.982L31.596,27.314L31.616,27.438L31.753,27.313Z" id="path_2"/><path fill="#59b8b2ff" d="M31.414,35.139L31.682,35.014V34.084V33.384V33.304V33.265V32.796V31.868V31.422V30.76V30.436V30.126L31.29,29.784L31.22,29.785L30.817,30.165V30.335V31.243V31.422V32.267V33.218V33.304V33.659V33.783V34.105V34.877V35.014L31.249,35.217L31.414,35.139Z" id="path_3"/><path fill="#59b8b2ff" d="M29.028,31.489L29.098,31.422L29.6,30.949L30.006,30.567L30.446,30.153L30.817,29.803V29.79L30.419,29.796L29.743,29.807L29.6,29.809L29.432,29.812L28.537,30.637L28.144,31L28.045,31.422L27.762,32.64L27.749,32.692L27.79,32.654L29.028,31.489Z" id="path_4"/><path fill="#59b8b2ff" d="M32.569,26.917L32.335,27.134L32.1,27.35L31.668,27.75L31.691,27.892L31.91,27.801L32.083,27.729L32.256,27.657L32.581,27.522L33.759,27.032L34.859,25.996L33.84,25.745L32.581,26.906L32.569,26.917Z" id="path_5"/><path fill="#59b8b2ff" d="M33.561,27.399L33.218,27.542L32.581,27.807L32.11,28.003L31.936,28.074L31.763,28.147L31.666,28.187L31.725,28.237L31.78,28.286L31.848,28.285L31.992,28.283L32.438,28.276L32.581,28.274L32.633,28.274L32.828,28.271L34.018,28.254L34.187,28.252L34.748,28.033L36.161,27.485L35.36,27.001L35.316,26.975L35.017,26.794L33.904,27.256L33.561,27.399Z" id="path_6"/><path fill="#59b8b2ff" d="M30.865,27.501L30.895,27.309L30.359,26.111L29.899,26.177L30.228,26.955L30.865,27.501Z" id="path_7"/><path fill="#59b8b2ff" d="M35.666,28.493L34.491,28.51L34.238,28.514L33.861,28.52L33.732,28.521L33.484,28.525L32.581,28.537L32.544,28.538L32.349,28.541L32.154,28.544L32.082,28.545L32.119,28.576L32.22,28.663L32.32,28.749L32.504,28.905L32.581,28.972L32.617,29.003L32.73,29.1L32.929,29.271L33.186,29.491L33.972,29.479L35.358,29.458L36.654,29.438L36.024,28.836L35.666,28.493Z" id="path_8"/><path fill="#59b8b2ff" d="M29.223,29.552L29.327,29.551L29.524,29.547L29.6,29.546L29.722,29.544L30.556,29.532L29.973,29.312L29.836,29.261L29.698,29.208L29.6,29.171L28.088,28.601L27.367,28.611L27.309,28.612L27.041,28.616L25.927,29.603L27.921,29.572L29.223,29.552Z" id="path_9"/><path fill="#59b8b2ff" d="M28.134,28.337L28.471,28.464L28.807,28.591L29.601,28.89L29.914,29.009L30.052,29.06L30.19,29.112L30.686,29.3L30.777,29.333L30.703,29.269L30.353,28.962L30.253,28.875L30.153,28.788L29.911,28.576L29.763,28.445L29.615,28.316L29.601,28.304L28.66,27.48L27.01,26.795L26.497,27.104L25.869,27.482L26.951,27.891L28.134,28.337Z" id="path_10"/><path fill="#59b8b2ff" d="M31.198,27.079L31.167,27.273L31.13,27.511L31.1,27.702L31.124,27.723L31.219,27.805L31.228,27.812L31.287,27.862L31.319,27.89L31.327,27.897H31.334H31.426L31.413,27.821L31.41,27.808L31.401,27.748L31.385,27.652L31.362,27.514L31.323,27.278L31.289,27.079H31.198Z" id="path_11"/><path fill="#59b8b2ff" d="M29.11,27.524L29.42,27.796L29.601,27.954L30.008,28.311L30.156,28.44L30.304,28.569L30.348,28.608L30.448,28.696L30.547,28.783L30.815,29.018L30.826,29.027L30.831,29.031L30.999,29.178C31.002,29.178 31.003,29.178 31.006,29.177L31.004,29.183L31.069,29.24L31.116,29.28L31.227,29.378L31.249,29.397L31.297,29.439L31.309,29.45L31.348,29.484L31.357,29.493L31.388,29.519L31.447,29.571L31.469,29.589L31.535,29.649L31.681,29.776L31.683,29.777L32.046,30.095L32.581,30.564L33.132,31.046L33.245,31.146L33.403,31.283L33.561,31.422L34.24,32.017L34.74,32.454L34.877,32.574L34.833,32.411L34.8,32.292L34.564,31.422L34.421,30.897L34.198,30.706L34.107,30.627L33.592,30.186L33.09,29.756L32.94,29.627L32.79,29.497L32.736,29.451L32.581,29.319L32.452,29.208L32.339,29.111L32.225,29.014L32.128,28.93L32.027,28.844L31.927,28.758L31.826,28.672L31.722,28.583L31.685,28.55L31.617,28.493L31.534,28.421L31.481,28.376L31.397,28.305L31.393,28.301L31.383,28.291L31.379,28.288L31.281,28.204L31.277,28.2L31.276,28.199L31.23,28.16L31.226,28.156L31.17,28.108L31.125,28.07L31.124,28.071L31.123,28.068L31.076,28.029L31.025,27.985L31.012,27.973L30.934,27.906L30.817,27.806L30.458,27.498L30.234,27.306L30.01,27.114L29.911,27.03L29.601,26.763L28.538,25.852L27.529,26.14L28.801,27.253L29.11,27.524Z" id="path_12"/><path fill="#59b8b2ff" d="M30.413,35.9L30.219,35.992L29.601,36.282L28.951,36.587L28.841,36.415L28.664,36.503L28.753,36.68L27.312,37.356L27.545,37.85L28.984,37.142L29.067,37.306L29.329,37.176L29.182,36.947L29.312,36.817L29.601,36.76L29.815,36.719L29.833,36.709L30.95,36.162L30.413,35.9Z" id="path_13"/><path fill="#59b8b2ff" d="M32.083,35.608L32.581,35.364L33.436,34.945L34.468,34.44L36.759,33.317L36.578,33.303L36.034,33.26L35.942,33.303L34.266,34.091L32.952,34.707L32.581,34.882L31.681,35.304L31.558,35.362L31.681,35.42L32.083,35.608Z" id="path_14"/><path fill="#ee1f5aff" d="M22.667,31.005H19.834C19.816,31.272 19.806,31.541 19.806,31.812C19.806,32.451 19.859,33.081 19.961,33.699H22.838C22.702,33.091 22.628,32.459 22.628,31.811C22.628,31.539 22.643,31.27 22.667,31.005Z" id="path_15"/><path fill="#ee1f5aff" d="M43.202,31.812C43.202,32.45 43.152,33.08 43.054,33.699H46.846C46.933,33.02 46.978,32.332 46.978,31.637C46.978,31.425 46.973,31.214 46.964,31.005H43.175C43.192,31.273 43.202,31.542 43.202,31.812Z" id="path_16"/><path fill="#ee1f5aff" d="M15.214,31.005C15.206,31.215 15.201,31.425 15.201,31.637C15.201,32.332 15.246,33.02 15.333,33.699H19.375C19.278,33.08 19.228,32.45 19.228,31.812C19.228,31.541 19.238,31.272 19.255,31.005H15.214Z" id="path_17"/><path fill="#ee1f5aff" d="M39.69,33.699H42.468C42.571,33.081 42.623,32.451 42.623,31.812C42.623,31.542 42.614,31.272 42.596,31.005H39.862C39.887,31.271 39.901,31.539 39.901,31.811C39.901,32.459 39.827,33.091 39.69,33.699Z" id="path_18"/><path fill="#ee1f5aff" d="M52.974,33.699V31.005H48.556C48.563,31.215 48.568,31.425 48.568,31.636C48.568,32.331 48.527,33.019 48.447,33.699H52.974Z" id="path_19"/><path fill="#ee1f5aff" d="M13.611,31.637C13.611,31.425 13.616,31.215 13.623,31.005H9V33.7H13.731C13.652,33.018 13.611,32.332 13.611,31.637Z" id="path_20"/><path fill="#f57f25ff" d="M19.639,28.683C19.978,27.421 20.522,26.226 21.254,25.137L17.547,23.316C16.861,24.429 16.318,25.617 15.929,26.86L19.639,28.683Z" id="path_21"/><path fill="#f57f25ff" d="M21.779,25.395C21.038,26.479 20.495,27.677 20.169,28.943L22.777,30.224C23.023,28.905 23.568,27.69 24.342,26.654L21.779,25.395Z" id="path_22"/><path fill="#f57f25ff" d="M42.588,35.618C42.176,36.852 41.562,38.013 40.764,39.06L44.133,40.715C44.884,39.641 45.494,38.485 45.953,37.271L42.588,35.618Z" id="path_23"/><path fill="#f57f25ff" d="M47.194,38.441C46.75,39.491 46.208,40.488 45.575,41.423L53.213,45.175L54.93,41.681L47.383,37.973C47.322,38.13 47.26,38.286 47.194,38.441Z" id="path_24"/><path fill="#f57f25ff" d="M14.984,24.833C15.31,24.063 15.688,23.323 16.115,22.613L11.337,20.266L9.62,23.761L14.489,26.153C14.636,25.708 14.8,25.268 14.984,24.833Z" id="path_25"/><path fill="#f57f25ff" d="M40.235,38.8C41.044,37.76 41.66,36.598 42.064,35.36L39.579,34.14C39.219,35.424 38.57,36.589 37.705,37.558L40.235,38.8Z" id="path_26"/><path fill="#fab91aff" d="M35.825,42.878L37.62,45.8L40.529,44.014L38.755,41.127C37.861,41.854 36.876,42.442 35.825,42.878Z" id="path_27"/><path fill="#fab91aff" d="M35.518,42.378C36.573,41.95 37.56,41.364 38.451,40.631L36.997,38.263C36.147,39.019 35.147,39.609 34.048,39.984L35.518,42.378Z" id="path_28"/><path fill="#fab91aff" d="M26.311,20.862L24.332,17.639L21.423,19.426L23.429,22.692C24.305,21.941 25.275,21.326 26.311,20.862Z" id="path_29"/><path fill="#fab91aff" d="M26.617,21.359C25.577,21.817 24.607,22.432 23.735,23.191L25.237,25.635C26.052,24.839 27.024,24.204 28.102,23.777L26.617,21.359Z" id="path_30"/><path fill="#2d4295ff" d="M29.289,49.024V53.302H32.686V49.042C32.158,49.09 31.626,49.115 31.09,49.115C30.484,49.115 29.883,49.085 29.289,49.024Z" id="path_31"/><path fill="#2d4295ff" d="M32.686,23.294V20.498C32.202,20.435 31.711,20.403 31.215,20.403C30.563,20.403 29.919,20.458 29.289,20.565V23.405C29.924,23.256 30.585,23.175 31.264,23.175C31.749,23.175 32.223,23.216 32.686,23.294Z" id="path_32"/><path fill="#2d4295ff" d="M29.289,43.645V47.424C29.882,47.49 30.483,47.526 31.09,47.526C31.626,47.526 32.159,47.498 32.686,47.446V43.71C32.201,43.769 31.711,43.799 31.215,43.799C30.564,43.799 29.92,43.747 29.289,43.645Z" id="path_33"/><path fill="#2d4295ff" d="M29.289,40.217V43.06C29.919,43.166 30.563,43.221 31.215,43.221C31.711,43.221 32.202,43.189 32.686,43.127V40.328C32.223,40.405 31.749,40.448 31.265,40.448C30.585,40.448 29.924,40.366 29.289,40.217Z" id="path_34"/><path fill="#2d4295ff" d="M32.686,19.914V15.827C32.159,15.775 31.626,15.748 31.089,15.748C30.483,15.748 29.882,15.783 29.289,15.849V19.979C29.92,19.878 30.563,19.825 31.215,19.825C31.71,19.825 32.202,19.855 32.686,19.914Z" id="path_35"/><path fill="#2d4295ff" d="M32.686,14.23V10H29.289V14.249C29.884,14.189 30.484,14.158 31.089,14.158C31.625,14.158 32.158,14.183 32.686,14.23Z" id="path_36"/><path fill="#59b8b2ff" d="M38.083,22.722C37.171,22.03 36.166,21.485 35.096,21.099L33.661,23.515C34.776,23.838 35.798,24.378 36.678,25.089L38.083,22.722Z" id="path_37"/><path fill="#59b8b2ff" d="M25.132,37.885L23.652,40.379C24.513,41.142 25.473,41.763 26.504,42.229L27.954,39.787C26.889,39.343 25.932,38.693 25.132,37.885Z" id="path_38"/><path fill="#59b8b2ff" d="M21.371,44.223C22.272,44.923 23.242,45.519 24.264,46.005L26.207,42.73C25.178,42.258 24.218,41.639 23.352,40.884L21.371,44.223Z" id="path_39"/><path fill="#59b8b2ff" d="M41.235,17.413L43.328,13.885L40.407,12.151L38.29,15.717C38.387,15.762 38.484,15.806 38.581,15.851C39.515,16.295 40.401,16.818 41.235,17.413Z" id="path_40"/><path fill="#59b8b2ff" d="M18.305,49.388L21.226,51.122L23.451,47.374C22.424,46.875 21.457,46.281 20.554,45.598L18.305,49.388Z" id="path_41"/><path fill="#59b8b2ff" d="M40.421,18.783C39.499,18.112 38.512,17.545 37.475,17.09L35.396,20.592C36.461,20.988 37.465,21.535 38.38,22.222L40.421,18.783Z" id="path_42"/><path fill="#37a67fff" d="M38.566,27.2L40.671,25.431C40.416,25.071 40.139,24.726 39.84,24.393C39.679,24.214 39.512,24.042 39.341,23.875L37.273,25.615C37.764,26.089 38.198,26.622 38.566,27.2Z" id="path_43"/><path fill="#37a67fff" d="M39.786,23.5C39.951,23.665 40.112,23.832 40.27,24.006C40.573,24.343 40.854,24.694 41.115,25.057L43.746,22.844L42.43,21.278L39.786,23.5Z" id="path_44"/><path fill="#9d1c90ff" d="M42.813,28.65L46.364,27.094C46.116,26.365 45.885,25.712 45.477,24.842L41.939,26.392C42.358,27.259 42.584,27.914 42.813,28.65Z" id="path_45"/><path fill="#9d1c90ff" d="M20.525,35.754C20.909,36.657 21.24,37.267 21.626,37.927L24.198,36.8C23.732,36.139 23.356,35.41 23.089,34.631L20.525,35.754Z" id="path_46"/><path fill="#9d1c90ff" d="M42.275,28.886C42.052,28.148 41.828,27.491 41.409,26.625L38.862,27.742C39.242,28.445 39.528,29.209 39.7,30.015L42.275,28.886Z" id="path_47"/><path fill="#9d1c90ff" d="M9.353,40.65L10.293,42.894L15.997,40.393C15.644,39.721 15.325,39.108 14.93,38.205L9.353,40.65Z" id="path_48"/><path fill="#9d1c90ff" d="M47.821,26.464L54.841,23.406L53.813,21.189L46.93,24.205C46.96,24.243 47.021,24.38 47.079,24.517C47.292,25.018 47.522,25.624 47.821,26.464Z" id="path_49"/><path fill="#9d1c90ff" d="M19.995,35.986L16.382,37.57C16.777,38.467 17.101,39.078 17.465,39.751L21.089,38.162C20.708,37.5 20.38,36.888 19.995,35.986Z" id="path_50"/></svg>