<svg id="vector" xmlns="http://www.w3.org/2000/svg" width="64.0d" height="64.0d" viewBox="0 0 64.0 64.0"><path fill="#ffffffff" d="M32,32m-31.75,0a31.75,31.75 0,1 1,63.5 0a31.75,31.75 0,1 1,-63.5 0" stroke="#e6e6e6ff" stroke-width="0.5" id="path_0"/><path fill="#04ac63ff" d="M32,1C40.279,1 48.066,4.224 53.92,10.08C59.776,15.936 63,23.719 63,32C63,40.281 59.776,48.066 53.92,53.92C48.066,59.776 40.281,63 32,63C23.719,63 15.934,59.776 10.08,53.92C4.224,48.064 1,40.279 1,32C1,23.721 4.224,15.934 10.08,10.08C15.936,4.224 23.721,1 32,1ZM32,61.751C39.946,61.751 47.416,58.656 53.035,53.037C58.654,47.418 61.749,39.949 61.749,32.002C61.749,24.055 58.654,16.586 53.035,10.967C47.417,5.346 39.945,2.253 32,2.253C24.053,2.253 16.583,5.348 10.965,10.967C5.346,16.586 2.251,24.056 2.251,32.002C2.251,39.949 5.346,47.418 10.965,53.037C16.583,58.656 24.053,61.751 32,61.751Z" fill-rule="evenodd" id="path_1"/><path fill="#04ac63ff" d="M32.008,23.112L31.999,23.119L31.991,23.112C31.991,23.112 25.899,17.44 20.976,19.227C20.976,19.227 24.872,18.68 30.998,23.93L30.999,23.931L29.148,25.432L29.135,25.415C28.905,25.125 28.865,24.986 28.88,24.927C29.042,24.912 29.216,24.87 29.31,24.798C29.503,24.644 29.52,24.338 29.346,24.116C29.171,23.894 28.871,23.837 28.677,23.991C28.594,24.058 28.529,24.189 28.507,24.247C28.22,24.903 28.284,25.394 28.622,25.822C28.626,25.825 28.632,25.833 28.641,25.844L28.123,26.266C27.399,26.845 27.149,25.939 27.149,25.939C26.837,25.172 25.979,25.653 25.979,25.653C25.051,26.135 25.503,26.771 25.503,26.771C26.619,28.94 28.732,27.299 28.732,27.299L29.383,26.786C29.404,26.813 29.418,26.83 29.423,26.837C29.761,27.265 30.225,27.441 30.929,27.314C30.994,27.305 31.136,27.272 31.22,27.206C31.413,27.052 31.428,26.748 31.254,26.526C31.079,26.304 30.777,26.249 30.584,26.403C30.49,26.475 30.407,26.638 30.356,26.79C30.293,26.792 30.168,26.722 29.94,26.431L29.9,26.38L32,24.722L34.1,26.38L34.06,26.431C33.831,26.722 33.705,26.792 33.643,26.79C33.591,26.638 33.508,26.475 33.415,26.403C33.221,26.249 32.919,26.304 32.744,26.526C32.57,26.748 32.585,27.052 32.779,27.206C32.862,27.272 33.005,27.304 33.069,27.314C33.774,27.441 34.237,27.265 34.575,26.837C34.581,26.83 34.594,26.813 34.615,26.786L35.266,27.299C35.266,27.299 37.379,28.939 38.496,26.771C38.496,26.771 38.948,26.135 38.019,25.652C38.019,25.652 37.161,25.172 36.849,25.939C36.849,25.939 36.599,26.845 35.875,26.266L35.357,25.844C35.367,25.833 35.372,25.825 35.376,25.821C35.714,25.394 35.779,24.902 35.492,24.247C35.469,24.188 35.404,24.057 35.321,23.991C35.127,23.837 34.827,23.894 34.653,24.116C34.478,24.338 34.495,24.644 34.689,24.798C34.782,24.87 34.957,24.912 35.118,24.927C35.133,24.986 35.093,25.124 34.863,25.415L34.85,25.432L33.001,23.931L33.002,23.93C39.128,18.68 43.024,19.227 43.024,19.227C38.101,17.44 32.008,23.112 32.008,23.112Z" id="path_2"/><path fill="#04ac63ff" d="M29.372,8.61C29.372,8.61 26.199,9.503 27.716,12.307C27.716,12.307 27.635,9.983 29.461,9.457C29.461,9.457 27.058,11.362 29.224,12.97C29.224,12.97 28.778,11.164 30.033,10.34C30.033,10.34 29.144,12.366 30.876,14.073C30.876,14.073 30.474,12.34 31.638,11.386V20.174L30.973,21.025H33.035L32.412,20.174V11.387C33.51,12.34 33.17,14.073 33.17,14.073C34.902,12.366 34.011,10.34 34.011,10.34C35.268,11.165 34.818,12.97 34.818,12.97C36.983,11.362 34.581,9.457 34.581,9.457C36.407,9.983 36.326,12.308 36.326,12.308C37.843,9.503 34.67,8.611 34.67,8.611C36.153,8.392 37.152,10.211 37.152,10.211C36.958,7.299 33.842,7.73 33.842,7.73C34.632,7.113 36.233,7.895 36.233,7.895C35.069,6.273 33.402,6.737 33.402,6.737C33.601,6.363 34.797,6.444 34.797,6.444C33.711,5.385 32.443,6.448 32.443,6.448C32.503,5.863 32,4.948 32,4.948C32,4.948 31.518,5.863 31.579,6.448C31.579,6.448 30.32,5.383 29.233,6.444C29.233,6.444 30.434,6.363 30.635,6.737C30.635,6.737 28.97,6.273 27.806,7.895C27.806,7.895 29.408,7.113 30.198,7.73C30.198,7.73 27.082,7.299 26.889,10.211C26.888,10.211 27.887,8.392 29.372,8.61Z" id="path_3"/><path fill="#04ac63ff" d="M39.51,43.217C39.637,43.232 39.779,43.19 39.937,43.091C40,43.051 40.079,42.995 40.173,42.917C40.138,42.871 40.038,42.736 39.871,42.512C39.797,42.618 39.722,42.74 39.65,42.879C39.578,43.015 39.533,43.129 39.51,43.217Z" id="path_4"/><path fill="#04ac63ff" d="M44,39.605C44.118,39.554 44.303,39.356 44.557,39.014L44.388,38.978C44.177,38.934 44.04,38.917 43.979,38.929C43.924,38.934 43.883,38.957 43.854,38.995C43.811,39.054 43.803,39.143 43.83,39.265C43.856,39.387 43.907,39.502 43.983,39.611L44,39.605Z" id="path_5"/><path fill="#04ac63ff" d="M45.185,37.871C45.294,37.805 45.449,37.584 45.652,37.212L45.48,37.199C45.265,37.184 45.128,37.186 45.069,37.204C45.016,37.218 44.978,37.246 44.956,37.288C44.921,37.351 44.925,37.442 44.969,37.558C45.012,37.674 45.079,37.782 45.168,37.879L45.185,37.871Z" id="path_6"/><path fill="#04ac63ff" d="M18.224,35.169C18.137,35.072 18.034,34.975 17.915,34.875C17.795,34.774 17.696,34.704 17.615,34.664C17.573,34.786 17.583,34.934 17.645,35.108C17.67,35.181 17.71,35.27 17.763,35.376C17.816,35.353 17.97,35.283 18.224,35.169Z" id="path_7"/><path fill="#04ac63ff" d="M32,47.867C22.973,47.867 15.524,41.109 14.438,32.376H19.948C20.987,38.088 25.988,42.419 32,42.419C38.012,42.419 43.013,38.09 44.052,32.376H49.562C48.476,41.107 41.027,47.867 32,47.867ZM19.075,34.216C19.056,34.245 19.033,34.286 19.004,34.345C18.978,34.402 18.955,34.461 18.938,34.52L18.976,34.546C19.003,34.565 19.039,34.588 19.088,34.613C19.138,34.638 19.185,34.659 19.233,34.674C19.176,34.763 19.132,34.862 19.098,34.968L19.145,34.998C19.176,35.019 19.221,35.044 19.28,35.072C19.339,35.101 19.394,35.122 19.449,35.133C19.504,35.055 19.559,34.938 19.616,34.782C19.529,34.733 19.43,34.685 19.318,34.639C19.354,34.592 19.401,34.491 19.456,34.336C19.356,34.275 19.238,34.222 19.107,34.173L19.075,34.216ZM18.315,39.039C18.262,39.035 18.207,39.028 18.15,39.012C18.093,38.997 18.049,38.984 18.017,38.971L17.966,38.953C17.973,38.851 17.994,38.752 18.031,38.657L18.026,38.657L18.026,38.657C17.98,38.649 17.934,38.642 17.886,38.629C17.837,38.615 17.801,38.604 17.776,38.593L17.736,38.577C17.74,38.522 17.75,38.465 17.763,38.408C17.776,38.351 17.79,38.308 17.803,38.276L17.822,38.234C17.951,38.251 18.069,38.276 18.173,38.308C18.15,38.46 18.129,38.56 18.105,38.617C18.213,38.634 18.312,38.657 18.403,38.686C18.382,38.84 18.353,38.957 18.315,39.039ZM31.911,46.678C31.939,46.659 31.975,46.629 32.017,46.589C32.061,46.549 32.097,46.507 32.129,46.465C32.084,46.386 32,46.297 31.88,46.198C31.806,46.258 31.734,46.331 31.662,46.412C31.634,46.365 31.559,46.291 31.44,46.19C31.356,46.26 31.271,46.346 31.187,46.445L31.216,46.482C31.233,46.511 31.261,46.545 31.301,46.587C31.341,46.629 31.385,46.667 31.428,46.701L31.463,46.676C31.486,46.661 31.516,46.636 31.552,46.602C31.59,46.568 31.622,46.532 31.655,46.496C31.715,46.577 31.788,46.65 31.869,46.71L31.911,46.678ZM33.023,46.541C32.98,46.59 32.944,46.627 32.915,46.651L32.872,46.687C32.819,46.655 32.769,46.617 32.722,46.573C32.674,46.53 32.638,46.496 32.617,46.469L32.585,46.429C32.668,46.315 32.754,46.216 32.839,46.137C32.972,46.236 33.069,46.323 33.13,46.397C33.103,46.444 33.067,46.492 33.023,46.541ZM46.469,34.742L44.525,34.096L44.492,34.193L44.654,34.579C44.764,34.611 45.535,34.843 46.966,35.276L47.016,35.125C47.01,35.122 46.989,35.107 46.952,35.08L46.864,35.017C46.773,34.951 46.686,34.888 46.602,34.831C46.518,34.772 46.475,34.744 46.469,34.742ZM39.726,41.736L39.812,41.682L40.395,42.617C40.476,42.746 40.533,42.816 40.568,42.829C40.602,42.841 40.672,42.814 40.778,42.748L40.854,42.7L41.5,42.218L41.676,42.062C41.832,41.925 41.925,41.829 41.957,41.773C41.864,41.682 41.724,41.608 41.54,41.551C41.502,41.539 41.455,41.526 41.4,41.511L41.399,41.511L41.327,41.491L41.242,41.467L41.242,41.467C41.191,41.453 41.149,41.442 41.114,41.432C41.061,41.417 41.029,41.407 41.019,41.403C40.996,41.396 40.958,41.316 40.901,41.164C40.845,41.012 40.822,40.919 40.835,40.889L41.198,39.63L41.27,39.632L41.496,40.023L41.181,41.005L41.84,41.17C42.098,41.232 42.29,41.259 42.415,41.253C42.54,41.246 42.656,41.196 42.762,41.101C42.762,41.101 43.085,40.735 43.138,40.651L41.699,39.402L41.714,38.98L41.782,38.906L43.102,40.127C43.231,40.245 43.326,40.308 43.39,40.31C43.421,40.31 43.565,40.226 43.675,40.104C43.793,39.975 43.875,39.81 43.882,39.763C43.727,39.615 43.609,39.423 43.533,39.185C43.457,38.948 43.47,38.76 43.573,38.621C43.601,38.583 43.637,38.553 43.679,38.532C43.721,38.509 43.763,38.496 43.804,38.488C43.844,38.483 43.899,38.483 43.964,38.488C44.03,38.494 44.085,38.504 44.131,38.513C44.154,38.519 44.182,38.525 44.215,38.533C44.245,38.54 44.28,38.548 44.319,38.557C44.535,38.608 44.664,38.633 44.706,38.633C44.771,38.631 44.832,38.589 44.89,38.511L44.915,38.479L44.993,38.357C45.056,38.243 45.088,38.139 45.09,38.046C44.915,37.921 44.772,37.748 44.664,37.522C44.556,37.296 44.543,37.108 44.626,36.956C44.649,36.914 44.679,36.88 44.719,36.853C44.757,36.827 44.797,36.808 44.837,36.795C44.877,36.781 44.928,36.774 44.995,36.772C45.061,36.77 45.118,36.77 45.164,36.774C45.209,36.778 45.274,36.783 45.355,36.791C45.578,36.812 45.711,36.819 45.75,36.814C45.813,36.804 45.868,36.755 45.916,36.669L45.935,36.633C45.935,36.633 46.136,36.081 46.151,36.007L44.756,35.486L44.429,35.471L44.224,34.945L44.315,34.873L44.499,34.947L44.921,34.907L45.04,35.162L46.043,35.568C46.115,35.597 46.208,35.713 46.329,35.921C46.445,36.123 46.512,36.259 46.527,36.333C46.535,36.383 46.51,36.478 46.453,36.616L46.305,36.968C46.252,37.063 46.191,37.127 46.117,37.165C46.045,37.201 45.952,37.22 45.84,37.222L46.018,37.56C45.959,37.661 45.885,37.771 45.798,37.887C45.709,38.005 45.644,38.069 45.6,38.086C45.583,38.096 45.502,38.097 45.357,38.09C45.43,38.168 45.47,38.246 45.481,38.324C45.492,38.401 45.47,38.491 45.414,38.591L45.3,38.77L45.234,38.861C45.169,38.946 45.099,39.003 45.021,39.03C44.944,39.057 44.85,39.062 44.738,39.049L44.869,39.408C44.797,39.501 44.71,39.6 44.607,39.702C44.505,39.807 44.431,39.864 44.385,39.873C44.366,39.881 44.286,39.871 44.144,39.845C44.203,39.932 44.233,40.015 44.233,40.093C44.233,40.171 44.199,40.257 44.131,40.35L44.026,40.473C43.827,40.688 43.567,40.724 43.288,40.598C43.371,40.857 43.407,41.012 43.396,41.062C43.386,41.111 43.083,41.462 43.083,41.462C42.938,41.588 42.804,41.656 42.676,41.667C42.549,41.679 42.357,41.656 42.099,41.599C42.183,41.941 42.213,42.131 42.188,42.173C42.156,42.256 42.069,42.359 41.93,42.482L41.818,42.581C41.755,42.63 41.692,42.679 41.629,42.728L41.628,42.729L41.628,42.729C41.559,42.782 41.491,42.835 41.423,42.888L41.11,43.111L40.998,43.181C40.764,43.327 40.525,43.268 40.28,43.004L40.286,43.403C40.24,43.458 40.177,43.511 40.094,43.563C39.982,43.633 39.876,43.669 39.775,43.671C39.674,43.673 39.593,43.654 39.526,43.616C39.49,43.593 39.449,43.525 39.397,43.411C39.346,43.295 39.321,43.219 39.323,43.179C39.331,43.095 39.365,42.966 39.426,42.79C39.488,42.613 39.572,42.435 39.68,42.252L39.574,42.11L39.726,41.736ZM39.12,41.559C39.065,41.534 38.957,41.509 38.792,41.488C38.756,41.6 38.728,41.726 38.708,41.864L38.758,41.887C38.79,41.9 38.836,41.914 38.898,41.927C38.961,41.942 39.022,41.95 39.082,41.954L39.1,41.912C39.111,41.883 39.124,41.843 39.139,41.79C39.153,41.737 39.162,41.686 39.166,41.637C39.265,41.673 39.371,41.695 39.483,41.705L39.506,41.65C39.519,41.616 39.534,41.566 39.55,41.504C39.565,41.441 39.572,41.382 39.572,41.325C39.485,41.289 39.358,41.258 39.194,41.238C39.166,41.333 39.141,41.439 39.12,41.559ZM37.782,41.933L37.873,41.889L38.764,43.735C38.765,43.738 38.775,43.792 38.792,43.892C38.809,43.993 38.824,44.099 38.839,44.209C38.857,44.321 38.866,44.382 38.868,44.392L38.725,44.46L38.389,43.808C37.919,42.897 37.662,42.4 37.617,42.316L37.782,41.933ZM33.675,46.184C33.597,46.196 33.5,46.194 33.382,46.181L33.346,46.323C33.391,46.357 33.502,46.414 33.676,46.493C33.851,46.573 33.961,46.611 34.009,46.604C34.107,46.59 34.195,46.541 34.269,46.459C34.343,46.378 34.398,46.279 34.434,46.169C34.47,46.057 34.495,45.951 34.51,45.848C34.525,45.745 34.529,45.658 34.523,45.586C34.649,45.685 34.768,45.727 34.882,45.709L34.928,45.704L35.328,45.633C35.653,45.544 35.934,45.394 36.172,45.183C36.411,45.263 36.695,45.259 37.02,45.168L37.41,45.016C37.548,44.959 37.634,44.912 37.664,44.872C37.706,44.809 37.759,44.665 37.824,44.443C37.888,44.219 37.905,44.073 37.875,44L37.471,43L37.571,42.736L37.248,42.46L37.174,42.276L37.058,42.263L36.825,42.776L37.041,43.021L37.638,44.384C37.571,44.428 37.436,44.491 37.231,44.572L37.038,44.652L36.51,44.811L36.502,44.813C36.637,44.621 36.728,44.424 36.778,44.223C36.781,44.188 36.774,44.122 36.755,44.023C36.736,43.924 36.713,43.86 36.686,43.828C36.639,43.794 36.54,43.778 36.394,43.784C36.248,43.788 36.094,43.813 35.934,43.856C35.792,43.896 35.647,43.947 35.5,44.012C35.351,44.077 35.253,44.13 35.197,44.172C35.114,44.238 35.063,44.46 35.04,44.834L35.148,44.87L35.234,44.66L35.782,45L35.788,45.005C35.765,45.015 35.729,45.026 35.68,45.039L34.86,45.228C34.736,45.244 34.647,45.229 34.592,45.182C34.537,45.134 34.47,45.015 34.392,44.823L34.278,44.53L34.201,44.542L33.979,44.901C34.147,45.18 34.262,45.366 34.322,45.455C34.21,45.896 33.994,46.141 33.675,46.184ZM29.516,43.133C29.625,43.258 29.689,43.347 29.714,43.403C29.809,43.328 29.898,43.264 29.983,43.213C30.092,43.338 30.166,43.444 30.208,43.53C30.17,43.572 30.124,43.611 30.071,43.648C30.016,43.684 29.974,43.71 29.94,43.727L29.89,43.754C29.813,43.672 29.748,43.585 29.699,43.492C29.663,43.526 29.621,43.558 29.575,43.589C29.53,43.619 29.494,43.64 29.465,43.653L29.423,43.672C29.382,43.629 29.34,43.581 29.304,43.53C29.266,43.477 29.241,43.437 29.226,43.407L29.203,43.357C29.311,43.268 29.416,43.192 29.516,43.133ZM28.791,44.738C28.763,44.766 28.73,44.84 28.692,44.96C28.654,45.079 28.641,45.159 28.65,45.199C28.673,45.271 28.725,45.339 28.801,45.406C28.876,45.47 28.981,45.514 29.112,45.537C29.209,45.554 29.292,45.556 29.363,45.544L29.625,45.243C29.632,45.602 29.771,45.805 30.042,45.852L30.171,45.875L31.119,45.943C31.252,45.945 31.343,45.936 31.394,45.911C31.423,45.902 31.503,45.82 31.635,45.664C31.782,45.86 31.983,45.96 32.236,45.966H32.27L32.389,45.962C32.596,45.951 32.741,45.924 32.822,45.884C32.871,45.854 32.94,45.759 33.031,45.602C33.12,45.444 33.166,45.336 33.166,45.28C33.168,45.21 33.152,45.1 33.12,44.948L33.215,44.838L33.209,44.772L33.014,44.301L32.917,44.306L32.63,44.627L32.672,44.749C32.702,44.833 32.737,44.941 32.778,45.074C32.82,45.207 32.852,45.326 32.875,45.429C32.792,45.448 32.619,45.467 32.359,45.48L32.275,45.484C32.1,45.48 31.973,45.457 31.897,45.416C31.931,45.29 31.965,45.057 31.998,44.711L31.92,44.686L31.635,44.861L31.478,45.44C31.396,45.455 31.286,45.461 31.155,45.459L30.253,45.398L30.164,45.383C30.04,45.362 29.97,45.336 29.953,45.304C29.936,45.271 29.94,45.18 29.966,45.03L30.152,43.944L30.052,43.927L29.689,44.105L29.674,44.282C29.473,44.346 29.29,44.424 29.127,44.515C28.964,44.606 28.852,44.681 28.791,44.738ZM28.468,42.793L28.565,42.821L28.001,44.791C27.999,44.796 27.972,44.842 27.917,44.927C27.865,45.011 27.808,45.098 27.747,45.191L27.743,45.197C27.68,45.292 27.648,45.343 27.642,45.353L27.49,45.309L27.702,44.485C27.939,43.564 28.069,43.058 28.09,42.97L28.468,42.793ZM21.703,40.575C21.773,40.353 21.756,40.186 21.649,40.076C21.564,39.987 21.45,39.941 21.306,39.935C21.162,39.931 21.025,39.954 20.898,40.003C20.771,40.053 20.662,40.113 20.575,40.185C20.55,40.206 20.503,40.277 20.437,40.394C20.37,40.514 20.334,40.59 20.328,40.622C20.326,40.637 20.328,40.662 20.334,40.694C20.34,40.726 20.364,40.78 20.406,40.857C20.448,40.933 20.507,41.011 20.583,41.091L20.86,41.382C20.742,41.393 20.619,41.368 20.486,41.309C20.355,41.249 20.237,41.167 20.134,41.059C20.075,40.998 19.996,40.886 19.893,40.723L19.755,40.772C19.753,40.825 19.774,40.952 19.817,41.155C19.861,41.359 19.899,41.478 19.931,41.512C20.055,41.641 20.214,41.698 20.413,41.683C20.613,41.668 20.799,41.607 20.972,41.497L21.135,41.668L21.427,41.957L21.595,42.086C21.86,42.293 22.147,42.428 22.461,42.492C22.54,42.732 22.715,42.956 22.981,43.165L23.167,43.311L23.385,43.485C23.482,43.537 23.569,43.56 23.643,43.552C23.718,43.544 23.807,43.512 23.909,43.457C23.909,43.578 23.934,43.673 23.983,43.74C24.033,43.806 24.105,43.865 24.202,43.916C24.308,43.973 24.399,43.998 24.477,43.996C24.553,43.992 24.638,43.958 24.732,43.896C24.733,44.011 24.758,44.104 24.807,44.173C24.857,44.241 24.931,44.302 25.03,44.353C25.14,44.412 25.235,44.437 25.313,44.429C25.39,44.421 25.48,44.38 25.578,44.302C25.575,44.421 25.594,44.518 25.634,44.592C25.673,44.666 25.744,44.729 25.844,44.782C26.222,44.925 26.414,44.91 26.414,44.91C26.488,44.89 26.623,44.818 26.818,44.695C27.014,44.571 27.126,44.473 27.153,44.399L27.517,43.379L27.774,43.248L27.716,42.828L27.783,42.64L27.707,42.553L27.191,42.779L27.189,43.106L26.725,44.52L26.522,44.471C26.48,44.461 26.438,44.448 26.399,44.431L25.928,44.239C25.92,44.209 25.934,44.16 25.97,44.091L26.283,43.495L26.194,43.448L25.795,43.518L25.577,44.07C25.478,44.033 25.396,43.996 25.332,43.962C25.216,43.902 25.128,43.841 25.068,43.776C25.235,43.55 25.36,43.37 25.442,43.235L25.392,43.167L25.106,43.195L24.686,43.611C24.629,43.59 24.568,43.562 24.502,43.528C24.386,43.467 24.3,43.408 24.242,43.353C24.348,43.209 24.441,43.077 24.519,42.964L24.466,42.893L24.19,42.924L23.892,43.191C23.803,43.155 23.708,43.112 23.609,43.06L23.463,42.931L22.962,42.542L22.956,42.538C23.191,42.53 23.402,42.485 23.592,42.405C23.623,42.388 23.67,42.341 23.738,42.267C23.807,42.193 23.845,42.134 23.854,42.094C23.852,42.035 23.805,41.948 23.713,41.832C23.622,41.716 23.512,41.608 23.381,41.507C23.265,41.416 23.136,41.333 22.996,41.253C22.855,41.173 22.753,41.126 22.688,41.107C22.586,41.08 22.377,41.171 22.063,41.378L22.098,41.486L22.318,41.429L22.375,42.073L22.373,42.081C22.352,42.068 22.322,42.045 22.282,42.014L21.723,41.579L21.484,41.338L21.344,41.192C21.513,41.002 21.632,40.797 21.703,40.575ZM20.48,38.665L20.932,38.619L20.99,38.697C20.922,38.896 20.822,39.123 20.689,39.373C20.556,39.626 20.43,39.795 20.313,39.884C20.277,39.912 20.174,39.939 20.003,39.964C19.832,39.988 19.722,39.992 19.669,39.969C19.646,39.958 19.591,39.907 19.504,39.812C19.418,39.719 19.325,39.605 19.226,39.476C19.029,39.214 19.038,39.001 19.257,38.836C19.329,38.781 19.416,38.735 19.521,38.697C19.625,38.659 19.701,38.639 19.75,38.633L19.804,38.765C19.722,38.804 19.663,38.836 19.627,38.862C19.593,38.887 19.57,38.914 19.557,38.938C19.544,38.965 19.547,39.007 19.565,39.067C19.582,39.128 19.623,39.202 19.69,39.29C19.813,39.453 19.942,39.609 20.075,39.757C20.208,39.521 20.343,39.157 20.48,38.665ZM19.692,38.145L20.013,37.748L19.961,37.664L19.542,37.565L19.455,37.659C19.406,37.713 19.343,37.778 19.268,37.856C19.252,37.873 19.236,37.89 19.219,37.907C19.122,38.008 19.033,38.091 18.953,38.162C18.898,38.099 18.805,37.962 18.676,37.754L17.803,35.999C17.761,35.881 17.75,35.807 17.768,35.775C17.788,35.745 17.869,35.703 18.014,35.652L19.052,35.283L19.018,35.188L18.686,34.959L18.524,35.033C18.369,34.888 18.213,34.767 18.053,34.668C17.896,34.569 17.776,34.508 17.695,34.484C17.657,34.474 17.575,34.48 17.453,34.505C17.33,34.529 17.254,34.556 17.226,34.586C17.174,34.641 17.138,34.719 17.117,34.818C17.098,34.917 17.11,35.029 17.155,35.154C17.187,35.247 17.225,35.321 17.271,35.376L17.662,35.456C17.353,35.639 17.242,35.859 17.336,36.119L17.379,36.242L18.254,37.982C18.363,38.158 18.456,38.274 18.528,38.325C18.577,38.354 18.693,38.369 18.875,38.373C19.058,38.376 19.174,38.365 19.221,38.339C19.282,38.314 19.373,38.247 19.491,38.147L19.633,38.177L19.692,38.145Z" fill-rule="evenodd" id="path_8"/><path fill="#04ac63ff" d="M36.153,44.788L36.202,44.752C36.39,44.583 36.521,44.397 36.593,44.192C36.432,44.192 36.23,44.224 35.989,44.291C35.832,44.334 35.672,44.39 35.509,44.458L35.815,44.634C35.963,44.713 36.075,44.762 36.153,44.788Z" id="path_9"/><path fill="#04ac63ff" d="M22.768,42.244L22.827,42.259C23.074,42.309 23.301,42.301 23.51,42.238C23.413,42.111 23.265,41.969 23.068,41.815C22.939,41.715 22.798,41.619 22.646,41.53L22.688,41.882C22.715,42.047 22.741,42.166 22.768,42.244Z" id="path_10"/><path fill="#04ac63ff" d="M20.92,40.744L21.177,41.014L21.181,41.006C21.243,40.902 21.287,40.776 21.313,40.634C21.34,40.491 21.321,40.387 21.26,40.322C21.202,40.26 21.114,40.233 20.996,40.241C20.879,40.248 20.765,40.283 20.653,40.34C20.677,40.448 20.767,40.583 20.92,40.744Z" id="path_11"/><path fill="#04ac63ff" d="M29.596,45.117C29.602,45.058 29.615,44.891 29.64,44.614C29.513,44.644 29.378,44.686 29.232,44.741C29.085,44.796 28.975,44.849 28.901,44.901C28.986,44.996 29.121,45.06 29.304,45.091C29.378,45.102 29.475,45.111 29.596,45.117Z" id="path_12"/><path fill="#04ac63ff" d="M25.559,35.665C25.593,35.634 25.696,35.545 25.863,35.399C25.774,35.346 25.671,35.296 25.558,35.247C25.442,35.198 25.35,35.167 25.278,35.156C25.274,35.259 25.316,35.369 25.406,35.488C25.441,35.538 25.493,35.597 25.559,35.665Z" id="path_13"/><path fill="#04ac63ff" d="M35.522,38.192C35.634,38.139 35.727,38.078 35.807,38.008C35.703,37.883 35.524,37.788 35.272,37.721C35.186,37.911 35.152,38.086 35.165,38.251C35.27,38.276 35.387,38.255 35.522,38.192Z" id="path_14"/><path fill="#04ac63ff" d="M38.342,35.91C38.424,35.881 38.511,35.805 38.6,35.686C38.669,35.595 38.722,35.507 38.762,35.42C38.496,35.329 38.325,35.333 38.249,35.433C38.206,35.49 38.196,35.562 38.219,35.653C38.241,35.744 38.281,35.83 38.342,35.91Z" id="path_15"/><path fill="#04ac63ff" d="M42.867,32.376C41.843,37.442 37.368,41.255 32,41.255C26.632,41.255 22.155,37.442 21.133,32.376H26.609C27.479,34.499 29.566,35.993 32,35.993C34.434,35.993 36.521,34.499 37.391,32.376H42.867ZM26.488,38.105C26.514,38.105 26.552,38.103 26.6,38.099C26.647,38.093 26.691,38.086 26.731,38.072C26.736,38 26.725,37.903 26.697,37.784C26.621,37.79 26.541,37.801 26.455,37.818C26.459,37.772 26.448,37.691 26.421,37.569C26.334,37.575 26.239,37.588 26.136,37.611V37.649C26.134,37.676 26.136,37.712 26.142,37.757C26.148,37.803 26.157,37.848 26.169,37.89H26.203C26.224,37.892 26.256,37.89 26.296,37.887C26.336,37.883 26.376,37.875 26.412,37.868C26.412,37.949 26.423,38.029 26.446,38.107L26.488,38.105ZM36.87,38.589C36.838,38.61 36.739,38.625 36.572,38.633C36.405,38.64 36.301,38.64 36.263,38.633L36.24,38.515C36.346,38.479 36.43,38.439 36.494,38.397C36.61,38.323 36.684,38.215 36.718,38.072C36.753,37.93 36.758,37.787 36.737,37.643L36.115,37.298L36.153,36.925L36.219,36.884C36.222,36.886 36.225,36.889 36.229,36.891L36.229,36.891L36.229,36.891C36.234,36.896 36.24,36.901 36.248,36.907C36.261,36.916 36.284,36.935 36.318,36.963C36.338,36.98 36.358,36.996 36.377,37.012L36.377,37.012C36.391,37.023 36.405,37.034 36.419,37.045C36.451,37.072 36.487,37.102 36.527,37.136C36.555,37.161 36.582,37.184 36.605,37.205L36.605,37.205L36.629,37.225C36.66,37.25 36.685,37.275 36.707,37.298L36.707,37.298L36.707,37.298C36.73,37.32 36.743,37.334 36.747,37.341C36.791,37.39 36.865,37.51 36.967,37.706C37.024,37.816 37.051,37.974 37.045,38.177C37.04,38.38 36.982,38.517 36.87,38.589ZM38.439,35.04C38.232,35.004 38.088,35.042 38.004,35.154C37.945,35.232 37.924,35.329 37.94,35.445C37.955,35.559 37.991,35.663 38.046,35.758C38.101,35.853 38.164,35.929 38.232,35.988C38.253,36.007 38.314,36.035 38.41,36.073C38.507,36.111 38.57,36.13 38.597,36.126L38.614,36.124C38.625,36.123 38.634,36.12 38.642,36.119L38.678,36.107C38.695,36.102 38.711,36.096 38.726,36.087L38.727,36.085C38.742,36.076 38.757,36.067 38.773,36.054L38.775,36.053C38.791,36.04 38.808,36.027 38.826,36.009C38.845,35.991 38.862,35.971 38.879,35.948C38.95,35.855 38.992,35.773 39.003,35.703L38.906,35.477L38.985,35.513L38.985,35.513L38.985,35.513L38.985,35.514C39.029,35.534 39.061,35.549 39.081,35.558C39.123,35.657 39.134,35.765 39.117,35.887C39.1,36.006 39.052,36.117 38.976,36.219C38.935,36.274 38.859,36.352 38.743,36.455L38.8,36.559C38.842,36.553 38.94,36.519 39.094,36.458C39.248,36.398 39.337,36.352 39.36,36.322C39.445,36.214 39.472,36.082 39.447,35.929C39.423,35.775 39.358,35.636 39.254,35.517C39.183,35.433 39.113,35.367 39.045,35.315C38.847,35.167 38.646,35.076 38.439,35.04ZM37.37,35.913C37.378,35.917 37.389,35.923 37.402,35.931L37.408,35.934C37.424,35.942 37.449,35.954 37.482,35.972L37.491,35.977C37.526,35.996 37.561,36.016 37.596,36.033C37.634,36.052 37.674,36.075 37.719,36.102L37.76,36.124C37.788,36.14 37.814,36.155 37.837,36.168C37.866,36.184 37.891,36.2 37.914,36.215L37.926,36.223C37.953,36.242 37.968,36.253 37.974,36.259C38.025,36.297 38.124,36.402 38.266,36.571C38.344,36.667 38.401,36.816 38.437,37.017C38.471,37.216 38.443,37.362 38.348,37.456C38.321,37.482 38.226,37.514 38.065,37.556C37.904,37.598 37.803,37.617 37.763,37.617L37.717,37.507C37.812,37.45 37.887,37.395 37.941,37.342C38.038,37.245 38.09,37.125 38.095,36.979C38.101,36.833 38.078,36.692 38.029,36.556L37.351,36.341L37.315,35.969L37.37,35.913ZM37.055,35.5C36.979,35.484 36.874,35.482 36.741,35.494C36.732,35.587 36.732,35.691 36.743,35.803L36.783,35.809C36.81,35.813 36.849,35.817 36.901,35.818C36.952,35.82 37.003,35.817 37.051,35.809L37.058,35.765C37.062,35.735 37.066,35.695 37.066,35.642C37.066,35.589 37.062,35.541 37.055,35.5ZM36.145,35.718L36.208,35.666L37.241,36.939C37.244,36.942 37.262,36.98 37.292,37.056C37.324,37.131 37.357,37.21 37.391,37.296C37.423,37.379 37.442,37.425 37.446,37.432L37.347,37.512C36.569,36.604 36.149,36.117 36.088,36.048L36.145,35.718ZM35.963,38.099C35.963,37.987 35.953,37.915 35.938,37.884C35.874,37.746 35.76,37.618 35.596,37.501C35.435,37.383 35.249,37.288 35.04,37.218L34.97,37.252L34.949,37.651C34.961,37.654 34.99,37.659 35.037,37.668L35.048,37.669C35,37.896 34.985,38.08 35.006,38.222C35.01,38.239 35.029,38.289 35.063,38.374C35.097,38.459 35.122,38.509 35.133,38.524C35.139,38.532 35.148,38.541 35.16,38.551C35.171,38.56 35.192,38.574 35.222,38.589C35.253,38.604 35.287,38.615 35.321,38.621C35.355,38.627 35.403,38.627 35.46,38.617C35.517,38.608 35.576,38.589 35.636,38.56C35.792,38.486 35.898,38.397 35.955,38.293C35.963,38.277 35.967,38.213 35.963,38.099ZM34.607,36.741C34.736,36.774 34.822,36.802 34.862,36.827C34.89,36.734 34.919,36.65 34.951,36.578C35.08,36.61 35.177,36.645 35.243,36.682C35.238,36.728 35.226,36.774 35.207,36.823C35.19,36.87 35.173,36.909 35.16,36.935L35.137,36.975C35.05,36.956 34.968,36.929 34.892,36.891C34.884,36.929 34.873,36.969 34.856,37.011C34.841,37.051 34.826,37.083 34.814,37.104L34.795,37.136C34.748,37.129 34.698,37.116 34.651,37.098C34.602,37.081 34.565,37.066 34.541,37.051L34.505,37.032C34.533,36.924 34.567,36.827 34.607,36.741ZM31.451,38.61C31.43,38.644 31.406,38.703 31.379,38.786C31.352,38.87 31.337,38.948 31.335,39.019C31.331,39.238 31.461,39.35 31.725,39.354C31.797,39.356 31.876,39.352 31.964,39.342C32.051,39.333 32.102,39.325 32.116,39.318L32.283,39.08C32.326,39.185 32.381,39.259 32.444,39.303C32.507,39.346 32.588,39.367 32.687,39.369L33.15,39.293C33.268,39.27 33.342,39.248 33.373,39.221C33.416,39.179 33.481,39.075 33.566,38.909C33.652,38.744 33.69,38.632 33.678,38.571L33.519,37.721L33.638,37.535L33.43,37.267L33.401,37.111L33.314,37.081L33.048,37.446L33.179,37.672L33.43,38.836C33.371,38.859 33.255,38.887 33.08,38.919H33.078L32.733,38.988C32.651,38.986 32.596,38.972 32.568,38.944C32.539,38.917 32.507,38.84 32.467,38.712L32.222,37.864L32.144,37.862L31.914,38.12L32.234,38.967C32.093,38.972 31.96,38.974 31.837,38.972C31.749,38.971 31.681,38.961 31.633,38.942C31.586,38.923 31.558,38.904 31.548,38.883C31.538,38.863 31.535,38.836 31.535,38.802C31.535,38.766 31.544,38.713 31.561,38.642L31.451,38.61ZM30.867,37.339L31.147,37.159L31.227,37.17L30.996,38.792C30.996,38.796 30.978,38.835 30.944,38.91C30.912,38.979 30.877,39.054 30.841,39.128L30.834,39.143C30.81,39.193 30.793,39.229 30.783,39.252L30.783,39.252L30.771,39.276L30.646,39.259C30.785,38.07 30.857,37.431 30.867,37.339ZM30.149,37.52C30.126,37.446 30.078,37.353 30.006,37.241C29.919,37.277 29.828,37.326 29.733,37.387L29.746,37.425C29.756,37.455 29.772,37.491 29.795,37.537C29.818,37.582 29.845,37.626 29.875,37.664L29.917,37.649C29.945,37.639 29.983,37.622 30.029,37.598C30.074,37.573 30.116,37.548 30.149,37.52ZM26.267,34.584C26.275,34.535 26.283,34.497 26.29,34.47L26.306,34.429C26.418,34.436 26.52,34.449 26.611,34.472C26.605,34.605 26.594,34.692 26.577,34.738C26.672,34.746 26.759,34.759 26.837,34.776C26.83,34.909 26.814,35.012 26.792,35.084C26.746,35.088 26.698,35.084 26.647,35.076C26.596,35.068 26.556,35.061 26.528,35.051L26.484,35.038C26.484,34.949 26.495,34.863 26.518,34.782C26.478,34.782 26.437,34.778 26.393,34.77C26.349,34.763 26.317,34.755 26.292,34.746L26.258,34.734C26.256,34.685 26.26,34.636 26.267,34.584ZM25.115,35.076C25.028,35.124 24.974,35.161 24.959,35.192C24.933,35.247 24.923,35.313 24.931,35.392C24.939,35.472 24.975,35.556 25.038,35.641C25.085,35.704 25.131,35.751 25.178,35.784L25.497,35.753C25.302,35.966 25.271,36.16 25.402,36.336L26.325,37.255C26.409,37.32 26.473,37.358 26.517,37.367C26.54,37.375 26.631,37.36 26.79,37.326C26.79,37.521 26.87,37.681 27.029,37.806L27.05,37.823L27.458,38.091C27.569,38.151 27.645,38.18 27.686,38.176C27.728,38.176 27.84,38.117 28.024,38.001C27.983,38.243 28.062,38.419 28.269,38.533L28.63,38.704C28.852,38.803 28.976,38.816 29.071,38.814C29.166,38.812 29.287,38.795 29.437,38.763C29.477,38.755 29.543,38.736 29.636,38.71C29.729,38.683 29.807,38.664 29.87,38.651C29.934,38.638 29.99,38.636 30.039,38.643L30.267,38.719L30.462,38.497V38.427L30.217,38.349C30.162,38.332 30.082,38.29 29.982,38.225C29.881,38.161 29.788,38.081 29.703,37.988C29.676,37.96 29.644,37.924 29.608,37.882C29.59,37.861 29.574,37.844 29.561,37.828C29.547,37.813 29.535,37.799 29.526,37.789C29.52,37.782 29.514,37.775 29.508,37.768C29.495,37.754 29.481,37.738 29.465,37.722C29.442,37.699 29.424,37.682 29.408,37.671C29.393,37.66 29.378,37.652 29.363,37.646C29.317,37.631 29.245,37.65 29.146,37.703C29.048,37.755 28.975,37.798 28.93,37.834C28.884,37.868 28.846,37.899 28.818,37.924L28.859,38.019L29.163,37.927C29.19,37.95 29.237,38.001 29.306,38.077C29.371,38.152 29.418,38.202 29.443,38.23L29.446,38.233C29.532,38.332 29.63,38.419 29.744,38.497C29.705,38.493 29.638,38.493 29.545,38.501C29.344,38.507 29.152,38.482 28.973,38.425L28.576,38.262L28.455,38.192C28.341,38.129 28.278,38.072 28.267,38.022C28.257,37.973 28.286,37.886 28.352,37.762L29.04,36.5L28.968,36.462L28.637,36.532L27.95,37.893C27.874,37.869 27.771,37.819 27.642,37.749L27.287,37.516C27.177,37.43 27.107,37.354 27.076,37.292C27.158,37.229 27.293,37.094 27.479,36.889L27.441,36.836L27.175,36.811L26.795,37.107C26.731,37.075 26.56,36.952 26.56,36.952L25.774,36.192L25.73,36.133C25.671,36.054 25.645,35.999 25.652,35.97C25.66,35.942 25.713,35.892 25.812,35.818L26.52,35.294L26.471,35.23L26.163,35.133L26.057,35.226C25.905,35.152 25.757,35.095 25.612,35.059C25.468,35.021 25.362,35.002 25.295,35.002C25.263,35.004 25.204,35.027 25.115,35.076Z" fill-rule="evenodd" id="path_16"/><path fill="#04ac63ff" d="M57.028,37.264C56.487,37.791 55.921,38.219 55.38,38.536L55.378,38.544L55.378,38.544C55.32,38.759 55.262,38.975 55.217,39.19L55.067,39.659C56.089,38.681 57.585,37.781 58.711,37.551L58.686,37.566L58.667,37.577L58.678,37.572L58.69,37.565C58.699,37.561 58.706,37.557 58.711,37.555C57.938,38.772 56.161,40.124 54.718,40.638L54.657,40.798C54.57,41.048 54.463,41.291 54.357,41.534L54.334,41.586L54.334,41.587L54.334,41.588L54.333,41.589L54.333,41.59L54.332,41.591C55.434,40.79 56.972,40.124 58.081,40.046C58.079,40.046 58.079,40.046 58.079,40.048C58.079,40.048 58.079,40.049 58.079,40.049C58.08,40.05 58.081,40.05 58.081,40.05C57.196,41.134 55.35,42.22 53.888,42.562C53.628,43.105 53.347,43.638 53.045,44.159C54.349,43.278 56.146,42.581 57.429,42.541C57.425,42.543 57.42,42.543 57.416,42.547C57.422,42.547 57.427,42.545 57.431,42.543C56.349,43.781 54.091,44.971 52.369,45.26C52.126,45.634 51.87,45.995 51.606,46.355C53.014,45.605 54.885,45.091 56.187,45.176L56.177,45.179C56.164,45.182 56.147,45.186 56.125,45.194C56.151,45.188 56.174,45.182 56.189,45.178C54.961,46.356 52.519,47.366 50.708,47.495C50.434,47.825 50.147,48.146 49.855,48.459C51.347,47.882 53.294,47.599 54.594,47.857C54.592,47.857 54.587,47.857 54.581,47.859H54.596C53.241,48.879 50.688,49.566 48.877,49.454C48.34,49.971 47.782,50.461 47.2,50.926C48.932,50.368 51.148,50.181 52.606,50.563L52.603,50.563C52.281,50.58 49.293,50.731 46.538,51.439L46.532,51.444C49.28,50.737 52.261,50.583 52.601,50.566L52.61,50.565C50.975,51.657 47.912,52.253 45.856,51.929C45.588,52.115 45.319,52.297 45.043,52.472C44.698,52.692 44.343,52.899 43.986,53.102C44.743,52.922 45.596,52.827 46.498,52.831C47.912,52.84 49.208,53.102 50.199,53.528L50.194,53.527C49.845,53.483 46.449,53.06 43.464,53.391C43.458,53.393 43.456,53.393 43.454,53.395C46.462,53.06 49.887,53.49 50.199,53.529C49.202,53.942 47.903,54.188 46.486,54.177C45.201,54.167 44.016,53.949 43.067,53.592C41.284,54.498 39.387,55.18 37.437,55.624C39.3,56.269 40.919,57.228 42.11,58.444C41.328,58.742 40.532,59.006 39.717,59.235C37.993,57.435 34.944,56.325 31.687,56.325C28.493,56.325 25.575,57.354 23.809,59.083C23.01,58.84 22.227,58.563 21.458,58.254C22.688,57.071 24.342,56.148 26.224,55.533C24.411,55.086 22.65,54.437 20.985,53.592C20.036,53.949 18.851,54.171 17.566,54.177C16.149,54.188 14.85,53.942 13.855,53.529L13.87,53.528C14.258,53.48 17.629,53.065 20.596,53.395C20.594,53.393 20.592,53.393 20.59,53.391C17.588,53.059 14.178,53.486 13.855,53.528C15.426,52.798 18.069,52.648 20.042,53.089C19.694,52.891 19.347,52.688 19.009,52.474C18.733,52.297 18.462,52.117 18.194,51.929C16.14,52.253 13.077,51.655 11.442,50.567C11.734,50.581 14.746,50.731 17.52,51.444C17.518,51.444 17.517,51.443 17.515,51.442L17.513,51.44L17.511,51.439C14.746,50.729 11.748,50.578 11.444,50.563C12.904,50.182 15.118,50.368 16.848,50.926C16.269,50.461 15.712,49.969 15.175,49.454C13.364,49.567 10.812,48.877 9.458,47.86H9.473C9.465,47.858 9.461,47.858 9.46,47.858C10.758,47.599 12.703,47.881 14.195,48.46C13.903,48.145 13.62,47.826 13.345,47.495C11.531,47.366 9.093,46.358 7.863,45.179C7.87,45.179 7.88,45.182 7.891,45.184L7.891,45.184C7.904,45.187 7.918,45.191 7.935,45.194C7.922,45.19 7.91,45.188 7.9,45.185L7.9,45.185L7.9,45.185L7.9,45.185L7.9,45.185C7.885,45.181 7.874,45.178 7.865,45.176C9.167,45.091 11.032,45.604 12.444,46.35C12.181,45.993 11.926,45.628 11.683,45.258C9.959,44.969 7.703,43.779 6.623,42.541C6.627,42.542 6.632,42.544 6.638,42.546L6.638,42.546L6.638,42.546L6.638,42.546C6.649,42.55 6.662,42.554 6.678,42.558C6.667,42.554 6.658,42.551 6.649,42.548L6.649,42.548C6.64,42.544 6.632,42.541 6.625,42.539C7.906,42.577 9.701,43.274 11.005,44.153C10.703,43.635 10.422,43.101 10.162,42.558C8.7,42.212 6.853,41.128 5.971,40.044C5.974,40.045 5.976,40.046 5.98,40.047C5.985,40.05 5.993,40.053 6.002,40.055C5.99,40.048 5.979,40.044 5.973,40.042C7.078,40.124 8.615,40.785 9.72,41.586C9.718,41.586 9.718,41.584 9.718,41.582L9.695,41.53C9.589,41.287 9.482,41.044 9.395,40.794L9.334,40.634C7.891,40.12 6.116,38.766 5.341,37.551C5.362,37.564 5.411,37.591 5.476,37.625C5.443,37.605 5.414,37.589 5.391,37.577L5.391,37.577C5.369,37.565 5.353,37.556 5.343,37.549C6.467,37.779 7.963,38.679 8.985,39.655L8.835,39.188C8.768,38.973 8.708,38.76 8.647,38.544C7.323,37.777 5.814,36.189 5.231,34.89L5.229,34.887C6.228,35.272 7.481,36.288 8.339,37.323C8.229,36.844 8.136,36.364 8.066,35.88C8.058,35.833 8.051,35.787 8.044,35.74L8.044,35.74C8.037,35.694 8.03,35.647 8.022,35.601C6.78,34.718 5.421,33.016 4.938,31.681C4.949,31.692 4.965,31.706 4.986,31.726L5.028,31.763L4.982,31.72L4.982,31.719C4.963,31.702 4.949,31.688 4.94,31.68C5.915,32.16 7.113,33.312 7.884,34.427C7.879,34.39 7.875,34.354 7.871,34.318C7.866,34.278 7.862,34.237 7.857,34.197C7.843,34.02 7.834,33.842 7.825,33.664L7.825,33.664C7.819,33.559 7.814,33.454 7.808,33.35C7.792,33.123 7.783,32.891 7.781,32.659C6.598,31.604 5.37,29.549 5.062,28.068C5.07,28.078 5.084,28.095 5.101,28.116L5.083,28.092L5.083,28.092L5.083,28.092L5.083,28.092C5.075,28.082 5.069,28.074 5.064,28.068C6.057,28.772 7.175,30.305 7.773,31.662C7.783,31.053 7.823,30.443 7.882,29.84C6.837,28.649 5.842,26.486 5.687,24.99C5.688,24.993 5.69,24.995 5.692,24.996C5.694,24.998 5.695,24.999 5.696,25.001C5.695,24.998 5.694,24.996 5.692,24.993L5.69,24.99C6.594,25.801 7.551,27.449 8.001,28.841C8.106,28.083 8.244,27.333 8.423,26.59C7.602,25.409 6.919,23.328 6.923,21.937C6.925,21.942 6.928,21.948 6.932,21.954L6.932,21.954C6.928,21.946 6.925,21.938 6.923,21.933V21.891C7.678,22.768 8.394,24.46 8.63,25.795C8.814,25.138 9.027,24.488 9.264,23.848C8.465,22.597 7.885,20.26 8.022,18.802C8.029,18.816 8.038,18.84 8.051,18.875L8.051,18.875L8.051,18.875L8.051,18.875L8.051,18.875L8.061,18.904C8.054,18.885 8.049,18.869 8.044,18.855C8.036,18.83 8.029,18.813 8.024,18.802C8.789,19.869 9.41,21.927 9.444,23.372C9.46,23.33 9.478,23.288 9.495,23.247C9.507,23.22 9.519,23.193 9.53,23.165C9.769,22.523 10.031,21.893 10.323,21.278C9.649,19.926 9.33,17.438 9.651,15.976C9.654,15.994 9.662,16.026 9.673,16.069L9.682,16.103C9.675,16.07 9.668,16.043 9.663,16.021C9.658,16.001 9.655,15.986 9.653,15.976C10.314,17.197 10.678,19.47 10.485,20.938C10.781,20.34 11.102,19.753 11.443,19.183C11.022,17.861 11.064,15.59 11.544,14.328C11.545,14.332 11.545,14.338 11.546,14.344L11.546,14.344L11.546,14.344C11.547,14.353 11.547,14.365 11.55,14.377L11.548,14.361C11.547,14.347 11.546,14.336 11.546,14.328C11.964,15.494 12.011,17.507 11.681,18.792C12.057,18.194 12.453,17.609 12.877,17.049C12.598,15.628 12.901,13.28 13.547,12.038C13.841,13.301 13.661,15.385 13.169,16.669C13.678,16.023 14.219,15.414 14.791,14.84C14.601,13.394 15.076,11.049 15.82,9.852C15.819,9.863 15.818,9.877 15.816,9.897L15.816,9.897C15.815,9.912 15.814,9.93 15.812,9.951C15.816,9.918 15.819,9.892 15.82,9.873L15.822,9.854C16.032,11.187 15.66,13.365 15.022,14.609C15.575,14.07 16.158,13.565 16.762,13.088C16.756,11.628 17.537,9.366 18.434,8.297C18.433,8.303 18.431,8.314 18.429,8.328C18.433,8.319 18.435,8.311 18.437,8.305L18.438,8.299C18.472,9.659 17.812,11.763 17.01,12.894C17.637,12.418 18.287,11.973 18.959,11.561C19.147,10.191 20.229,8.168 21.243,7.321C21.241,7.323 21.241,7.325 21.241,7.329C21.242,7.327 21.242,7.326 21.243,7.325C21.243,7.324 21.244,7.322 21.245,7.321C21.068,8.654 20.047,10.612 19.067,11.493C19.757,11.075 20.469,10.692 21.199,10.342C22.172,9.492 24.105,8.802 25.331,8.896C24.521,9.665 22.937,10.335 21.773,10.439C20.656,11.016 19.597,11.691 18.594,12.446C19.734,11.989 21.581,11.911 22.669,12.302C22.589,12.319 22.168,12.403 21.568,12.49C22.166,12.406 22.584,12.323 22.667,12.306C21.551,12.917 19.479,13.098 18.257,12.703C17.858,13.016 17.466,13.343 17.087,13.679C18.266,13.307 20.017,13.284 21.078,13.664C19.933,14.288 17.86,14.503 16.557,14.163C16.012,14.67 15.494,15.202 14.998,15.754C16.257,15.208 18.198,14.987 19.405,15.295C19.389,15.299 19.363,15.307 19.326,15.318C19.299,15.326 19.264,15.336 19.225,15.348C19.277,15.333 19.321,15.321 19.353,15.311L19.353,15.311C19.376,15.305 19.393,15.3 19.405,15.297C18.209,16.098 15.963,16.548 14.512,16.309C13.982,16.933 13.477,17.577 13.006,18.251C14.246,17.584 16.242,17.212 17.501,17.45C17.284,17.533 14.905,18.409 12.717,18.673V18.674C14.899,18.414 17.277,17.539 17.499,17.455C16.344,18.333 14.115,18.925 12.649,18.773C12.212,19.434 11.808,20.119 11.438,20.824C12.643,19.924 14.743,19.22 16.118,19.305C15.011,20.376 12.733,21.289 11.194,21.299C10.824,22.049 10.49,22.822 10.201,23.612C11.324,22.514 13.496,21.508 14.948,21.46C13.912,22.66 11.635,23.817 10.082,23.942C9.793,24.77 9.546,25.619 9.351,26.486C10.329,25.176 12.537,23.79 14.06,23.562C14.042,23.575 14.009,23.601 13.963,23.639L13.889,23.699C13.951,23.652 13.998,23.614 14.029,23.589C14.042,23.579 14.052,23.57 14.06,23.564C13.124,24.909 10.879,26.359 9.32,26.621C9.121,27.527 8.971,28.454 8.878,29.394C9.807,27.916 11.772,26.226 13.259,25.71V25.712C12.49,27.303 10.439,29.257 8.832,29.935C8.768,30.812 8.751,31.712 8.785,32.595C9.527,30.935 11.424,28.868 12.932,28.146V28.148C12.305,29.859 10.38,32.094 8.81,32.933C8.872,33.732 8.977,34.526 9.119,35.314C9.693,33.581 11.255,31.359 12.615,30.448V30.449C12.214,32.209 10.629,34.659 9.199,35.751C9.343,36.465 9.52,37.171 9.729,37.868C10.175,36.119 11.479,33.863 12.698,32.844C12.698,32.847 12.696,32.85 12.694,32.855C12.691,32.861 12.688,32.869 12.685,32.878L12.689,32.868L12.694,32.86L12.697,32.853C12.698,32.851 12.699,32.848 12.7,32.846C12.463,34.592 11.17,37.116 9.884,38.371C10.031,38.823 10.19,39.273 10.363,39.713C10.8,38.025 11.992,35.887 13.124,34.887C13.124,34.89 13.124,34.892 13.122,34.896C13.124,34.894 13.126,34.892 13.126,34.89C12.938,36.571 11.785,39.003 10.597,40.295C10.807,40.792 11.035,41.28 11.278,41.76C11.316,41.834 11.355,41.905 11.394,41.977L11.394,41.977L11.394,41.977L11.394,41.977L11.394,41.977L11.394,41.978C11.42,42.024 11.445,42.071 11.47,42.117C11.776,40.353 12.793,38.08 13.849,36.951L13.848,36.957C13.846,36.964 13.843,36.973 13.842,36.983L13.846,36.968C13.848,36.962 13.85,36.957 13.851,36.953C13.809,38.669 12.862,41.233 11.78,42.68C12.055,43.162 12.347,43.631 12.653,44.094C12.896,42.34 13.731,40.127 14.665,38.958C14.665,38.967 14.662,38.978 14.66,38.99C14.657,39.004 14.653,39.02 14.65,39.039C14.653,39.028 14.656,39.017 14.658,39.007L14.658,39.007C14.663,38.988 14.666,38.973 14.667,38.962C14.743,40.642 14.039,43.188 13.114,44.764C13.519,45.323 13.938,45.866 14.386,46.392C14.255,44.352 14.74,41.593 15.571,40.034L15.571,40.052C15.566,40.189 15.55,40.65 15.507,41.318C15.555,40.641 15.57,40.174 15.575,40.046L15.575,40.036C15.998,41.918 15.666,45.015 14.888,46.958C14.905,46.978 14.924,46.999 14.943,47.02C15.427,47.533 15.926,48.03 16.448,48.507C16.069,46.479 16.222,43.642 16.872,41.969C16.9,42.29 17.185,45.773 16.859,48.87C16.86,48.871 16.86,48.871 16.861,48.871L16.862,48.871C17.187,45.78 16.902,42.304 16.874,41.969C17.517,43.79 17.546,46.933 16.988,48.978L17.038,49.022L17.038,49.022L17.038,49.022L17.038,49.022L17.038,49.022C17.115,49.09 17.191,49.157 17.271,49.221C17.398,49.333 17.534,49.436 17.668,49.538L17.669,49.538C17.746,49.597 17.824,49.656 17.899,49.716C18.11,49.882 18.321,50.045 18.543,50.193L18.617,50.246C18.025,48.237 17.916,45.319 18.431,43.553C19.244,45.317 19.536,48.497 19.137,50.607L19.198,50.651L19.876,51.074C20.358,51.364 20.846,51.644 21.342,51.906C20.955,51.097 20.624,50.119 20.394,49.04C20.091,47.605 20.024,46.232 20.159,45.131L20.161,45.132C20.725,46.054 21.213,47.316 21.517,48.754C21.773,49.973 21.858,51.142 21.797,52.141C22.097,52.287 22.397,52.432 22.703,52.563L23.068,52.726L23.438,52.872C23.509,52.9 23.58,52.928 23.65,52.956L23.65,52.956L23.65,52.956L23.651,52.956L23.651,52.956L23.651,52.956L23.651,52.956L23.651,52.956L23.651,52.956L23.651,52.956L23.651,52.956L23.651,52.956L23.652,52.956L23.652,52.956L23.652,52.956L23.652,52.956L23.652,52.956L23.652,52.956L23.652,52.956L23.652,52.956L23.652,52.956L23.652,52.956L23.652,52.956L23.653,52.956L23.653,52.957L23.653,52.957L23.653,52.957L23.653,52.957L23.653,52.957L23.653,52.957L23.653,52.957L23.653,52.957L23.653,52.957L23.653,52.957L23.653,52.957L23.654,52.957L23.654,52.957L23.654,52.957L23.654,52.957L23.654,52.957L23.654,52.957L23.654,52.957L23.654,52.957L23.654,52.957L23.654,52.957L23.654,52.957L23.655,52.957L23.655,52.957L23.655,52.957L23.655,52.957L23.655,52.957L23.655,52.957L23.655,52.957L23.655,52.958L23.655,52.958L23.655,52.958L23.656,52.958L23.656,52.958L23.656,52.958L23.656,52.958L23.656,52.958L23.656,52.958L23.656,52.958L23.656,52.958L23.656,52.958L23.656,52.958L23.656,52.958L23.656,52.958L23.657,52.958L23.657,52.958L23.657,52.958L23.657,52.958L23.657,52.958L23.657,52.958L23.657,52.958L23.657,52.958L23.657,52.958L23.657,52.958L23.657,52.958L23.658,52.958L23.658,52.958C23.833,53.028 24.007,53.097 24.184,53.161C24.322,53.206 24.46,53.252 24.597,53.299L24.598,53.299L24.599,53.299L24.6,53.299L24.6,53.3L24.601,53.3L24.601,53.3L24.601,53.3L24.602,53.3L24.602,53.3L24.602,53.3L24.603,53.3L24.603,53.3L24.603,53.301L24.603,53.301C24.968,53.424 25.333,53.547 25.705,53.643C27.752,54.234 29.884,54.496 32.013,54.509C34.14,54.5 36.274,54.234 38.321,53.643C38.693,53.548 39.058,53.425 39.423,53.301L39.424,53.301C39.563,53.254 39.703,53.207 39.844,53.161C40.019,53.095 40.193,53.027 40.368,52.958C40.441,52.93 40.514,52.901 40.588,52.872L40.958,52.726L41.323,52.563C41.625,52.434 41.925,52.291 42.219,52.145C42.073,49.975 42.796,46.781 43.861,45.133C43.859,45.138 43.857,45.143 43.855,45.148L43.854,45.153L43.853,45.156L43.852,45.163C43.858,45.15 43.861,45.14 43.863,45.131C44.142,47.003 43.601,49.988 42.692,51.904C43.187,51.642 43.672,51.364 44.152,51.076L44.828,50.651L44.889,50.609C44.488,48.501 44.779,45.317 45.593,43.549C45.589,43.574 45.584,43.61 45.574,43.665C45.579,43.639 45.583,43.616 45.586,43.597C45.59,43.576 45.593,43.56 45.595,43.547C46.108,45.315 45.998,48.239 45.407,50.248L45.483,50.193C45.705,50.043 45.918,49.879 46.127,49.716C46.2,49.658 46.275,49.601 46.35,49.544L46.35,49.544L46.35,49.544C46.488,49.439 46.627,49.333 46.757,49.22C46.803,49.182 46.849,49.143 46.895,49.103C46.943,49.062 46.991,49.021 47.038,48.981C46.48,46.936 46.507,43.79 47.15,41.967L47.148,41.988C47.126,42.267 47.008,43.736 47.008,45.55C47.008,45.821 47.01,46.097 47.017,46.38C46.974,44.184 47.129,42.277 47.153,41.982L47.154,41.967C47.803,43.64 47.955,46.48 47.576,48.508C48.096,48.032 48.601,47.533 49.085,47.018C49.098,47.005 49.11,46.992 49.121,46.978L49.121,46.978L49.138,46.959C48.358,45.017 48.028,41.916 48.449,40.032C48.45,40.034 48.45,40.037 48.45,40.04L48.451,40.045L48.451,40.057C48.453,40.045 48.453,40.038 48.451,40.03C49.284,41.589 49.767,44.356 49.638,46.391C50.082,45.865 50.505,45.32 50.912,44.764C49.985,43.188 49.281,40.638 49.357,38.958C50.293,40.127 51.132,42.343 51.371,44.096C51.677,43.632 51.971,43.161 52.247,42.681C51.16,41.232 50.215,38.665 50.171,36.951C50.173,36.954 50.173,36.962 50.177,36.968C50.176,36.964 50.175,36.961 50.175,36.958C50.174,36.954 50.174,36.952 50.173,36.949C51.232,38.078 52.249,40.357 52.554,42.123C52.583,42.069 52.612,42.014 52.642,41.959C52.678,41.893 52.714,41.826 52.748,41.76C52.991,41.28 53.219,40.792 53.43,40.296C52.235,39.003 51.086,36.57 50.898,34.888C50.906,34.909 50.919,34.945 50.94,34.994L50.919,34.936L50.9,34.886C52.034,35.889 53.226,38.031 53.661,39.721C53.836,39.278 53.995,38.828 54.141,38.373C52.856,37.121 51.559,34.596 51.324,32.847C51.328,32.856 51.334,32.869 51.341,32.886L51.341,32.886C51.348,32.903 51.357,32.924 51.367,32.948C51.356,32.923 51.348,32.901 51.341,32.883L51.341,32.883L51.341,32.883C51.335,32.867 51.33,32.854 51.326,32.845C52.545,33.865 53.849,36.128 54.297,37.873C54.504,37.176 54.683,36.47 54.827,35.754C53.395,34.664 51.812,32.211 51.407,30.451L51.409,30.453C51.412,30.461 51.418,30.473 51.428,30.485C51.426,30.48 51.424,30.476 51.423,30.473L51.417,30.462C51.414,30.456 51.411,30.451 51.409,30.447C52.769,31.36 54.333,33.587 54.905,35.319C55.049,34.531 55.154,33.735 55.216,32.934C53.646,32.097 51.719,29.858 51.09,28.147C51.094,28.155 51.1,28.162 51.111,28.176C51.105,28.163 51.096,28.151 51.092,28.145C52.602,28.865 54.495,30.937 55.239,32.594C55.273,31.709 55.258,30.811 55.19,29.934C53.583,29.254 51.535,27.304 50.764,25.711L50.771,25.718C50.776,25.724 50.781,25.729 50.788,25.736C50.781,25.724 50.773,25.715 50.768,25.709C52.25,26.225 54.22,27.915 55.144,29.393C55.051,28.451 54.905,27.526 54.704,26.618C53.147,26.36 50.898,24.908 49.962,23.563V23.562C51.485,23.789 53.695,25.176 54.673,26.486C54.476,25.618 54.231,24.769 53.94,23.941C52.389,23.816 50.112,22.658 49.076,21.462C49.11,21.484 49.207,21.545 49.355,21.636L49.34,21.627C49.2,21.539 49.109,21.482 49.076,21.46C50.53,21.507 52.702,22.515 53.823,23.611C53.532,22.819 53.202,22.048 52.828,21.298C51.292,21.291 49.011,20.375 47.904,19.304C49.277,19.219 51.381,19.924 52.585,20.825C52.216,20.119 51.812,19.434 51.373,18.773C49.907,18.928 47.678,18.33 46.523,17.455C46.533,17.459 46.541,17.461 46.552,17.464C46.539,17.457 46.531,17.455 46.522,17.451C47.785,17.214 49.778,17.59 51.02,18.252C50.547,17.578 50.044,16.935 49.512,16.31C48.062,16.551 45.819,16.099 44.623,15.298L44.642,15.303L44.688,15.316L44.688,15.316L44.688,15.316C44.718,15.324 44.755,15.335 44.799,15.347L44.752,15.333C44.689,15.314 44.646,15.302 44.623,15.294C45.827,14.985 47.771,15.207 49.03,15.754C48.535,15.201 48.012,14.669 47.471,14.16C46.165,14.506 44.089,14.288 42.944,13.663L42.993,13.672C43.09,13.691 43.294,13.732 43.577,13.777C43.269,13.724 43.053,13.682 42.968,13.666L42.968,13.666L42.968,13.666L42.968,13.666L42.968,13.666L42.944,13.661C44.004,13.281 45.757,13.304 46.939,13.678C46.56,13.342 46.168,13.014 45.768,12.702C44.545,13.099 42.473,12.915 41.357,12.305C41.56,12.347 43.816,12.791 45.728,12.672C45.726,12.672 45.726,12.672 45.726,12.67C43.81,12.79 41.555,12.343 41.355,12.302C42.447,11.906 44.291,11.988 45.432,12.446C44.441,11.7 43.393,11.031 42.292,10.458C41.082,10.414 39.346,9.713 38.484,8.897L38.482,8.895C39.597,8.812 41.31,9.374 42.29,10.095C43.21,10.511 44.101,10.976 44.954,11.493C43.974,10.613 42.952,8.654 42.776,7.321L42.777,7.322C42.778,7.324 42.78,7.325 42.782,7.329C42.782,7.325 42.782,7.323 42.78,7.321C43.795,8.168 44.876,10.19 45.066,11.561C45.738,11.973 46.387,12.415 47.012,12.894C46.213,11.76 45.554,9.66 45.588,8.299C45.59,8.312 45.594,8.331 45.603,8.358C45.597,8.333 45.592,8.312 45.588,8.299C46.486,9.368 47.265,11.626 47.261,13.086C47.868,13.563 48.447,14.068 49,14.607C48.366,13.361 47.99,11.187 48.204,9.852C48.947,11.049 49.424,13.392 49.234,14.839C49.805,15.412 50.348,16.022 50.857,16.667C50.363,15.384 50.183,13.299 50.479,12.036C51.125,13.278 51.431,15.625 51.151,17.047C51.573,17.609 51.972,18.19 52.346,18.79C52.015,17.504 52.063,15.494 52.482,14.326C52.965,15.589 53.005,17.861 52.585,19.179C52.927,19.751 53.246,20.337 53.54,20.936C53.346,19.468 53.711,17.199 54.374,15.974L54.372,15.979L54.37,15.987L54.367,15.999L54.367,15.999L54.364,16.014L54.368,16C54.372,15.989 54.374,15.981 54.376,15.974C54.696,17.44 54.377,19.922 53.703,21.276C53.996,21.893 54.26,22.529 54.499,23.174C54.512,23.206 54.526,23.238 54.54,23.271C54.555,23.304 54.569,23.337 54.583,23.37C54.615,21.927 55.236,19.867 56.001,18.799C56.001,18.801 56.001,18.802 56.001,18.803L56,18.806L55.999,18.81L55.999,18.813C56,18.811 56.001,18.808 56.001,18.806L56.002,18.803C56.002,18.802 56.002,18.8 56.003,18.799C56.14,20.26 55.559,22.593 54.763,23.847C55,24.485 55.211,25.136 55.395,25.795C55.631,24.46 56.35,22.766 57.102,21.889C57.102,21.889 57.102,21.89 57.102,21.891C57.102,21.892 57.101,21.894 57.101,21.895C57.103,21.893 57.103,21.891 57.104,21.889C57.121,23.279 56.432,25.394 55.602,26.592C55.781,27.335 55.919,28.085 56.026,28.842C56.474,27.449 57.433,25.802 58.335,24.988L58.313,25.023C58.292,25.057 58.261,25.107 58.223,25.172C58.253,25.124 58.278,25.084 58.298,25.052C58.317,25.022 58.33,25.001 58.338,24.988C58.183,26.486 57.19,28.649 56.142,29.837C56.201,30.445 56.238,31.053 56.25,31.664C56.844,30.304 57.966,28.77 58.959,28.066C58.937,28.096 58.876,28.176 58.785,28.294C58.878,28.176 58.94,28.096 58.963,28.066C58.657,29.547 57.427,31.601 56.244,32.659C56.242,32.889 56.232,33.118 56.217,33.348C56.21,33.454 56.205,33.56 56.199,33.667L56.199,33.667L56.199,33.667L56.199,33.667L56.199,33.667L56.199,33.667L56.199,33.667L56.199,33.668L56.199,33.668L56.199,33.668L56.199,33.668L56.199,33.668L56.199,33.668L56.199,33.668L56.199,33.668L56.199,33.668L56.199,33.669L56.199,33.669L56.199,33.669L56.199,33.669L56.199,33.669L56.199,33.669V33.669C56.19,33.845 56.181,34.021 56.164,34.195C56.159,34.234 56.155,34.274 56.152,34.314C56.148,34.352 56.144,34.391 56.14,34.429C56.909,33.312 58.107,32.16 59.083,31.677C59.075,31.683 59.066,31.692 59.054,31.708L59.065,31.698L59.073,31.69L59.085,31.679C58.602,33.014 57.243,34.717 56.001,35.598L55.997,35.623L55.987,35.688L55.979,35.738L55.979,35.739L55.97,35.799C55.966,35.825 55.962,35.851 55.957,35.877C55.889,36.362 55.79,36.842 55.686,37.32C56.542,36.286 57.797,35.27 58.794,34.884C58.791,34.887 58.788,34.89 58.784,34.893L58.777,34.899L58.767,34.907L58.767,34.907C58.759,34.914 58.75,34.921 58.739,34.93C58.766,34.911 58.785,34.896 58.796,34.886C58.428,35.655 57.818,36.498 57.028,37.264ZM57.437,33.331C57.22,33.565 56.994,33.817 56.766,34.081C56.99,33.817 57.218,33.567 57.437,33.331ZM56.244,32.114C56.276,32.053 56.309,31.993 56.345,31.934C56.328,31.964 56.312,31.995 56.294,32.027L56.264,32.082L56.244,32.12V32.114ZM56.079,29.273C56.115,29.185 56.152,29.099 56.19,29.013L56.196,29C56.181,29.033 56.166,29.067 56.151,29.101C56.126,29.157 56.101,29.213 56.077,29.27C56.077,29.27 56.077,29.271 56.077,29.272C56.078,29.273 56.079,29.273 56.079,29.273ZM57.199,36.229C56.687,36.694 56.111,37.246 55.566,37.837V37.831C56.109,37.241 56.687,36.69 57.199,36.229ZM55.485,26.152C55.636,25.603 55.817,25.058 55.997,24.547C55.815,25.056 55.635,25.599 55.483,26.148C55.485,26.15 55.485,26.152 55.485,26.152ZM48.286,10.646C48.299,10.76 48.315,10.872 48.33,10.984C48.313,10.865 48.297,10.75 48.286,10.646ZM44.371,13.895L44.506,13.913C44.582,13.922 44.66,13.932 44.741,13.943C44.591,13.925 44.445,13.906 44.308,13.887L44.371,13.895ZM49.114,14.728L49.116,14.728L49.106,14.696C49.098,14.67 49.09,14.644 49.082,14.618C49.09,14.645 49.098,14.671 49.106,14.696L49.109,14.707L49.114,14.726C49.114,14.727 49.114,14.728 49.114,14.728ZM48.225,16.088C48.62,16.143 49.023,16.185 49.418,16.208C49.418,16.208 49.418,16.208 49.418,16.209L49.418,16.209L49.419,16.209L49.42,16.209C49.025,16.187 48.622,16.145 48.225,16.088ZM50.756,15.486C50.808,15.833 50.867,16.184 50.935,16.528C50.865,16.183 50.806,15.831 50.756,15.486ZM51.24,18.666L51.246,18.667L51.269,18.671C51.279,18.672 51.289,18.673 51.299,18.674C51.299,18.672 51.298,18.672 51.298,18.672L51.293,18.672L51.293,18.672C51.277,18.671 51.261,18.669 51.246,18.667L51.237,18.666L51.24,18.666ZM52.368,16.264C52.361,16.648 52.359,17.064 52.37,17.493C52.357,17.064 52.361,16.648 52.368,16.264ZM52.38,15.888L52.38,15.888L52.374,16.037C52.38,15.843 52.388,15.659 52.397,15.49C52.39,15.615 52.385,15.748 52.38,15.888ZM52.388,18.013C52.399,18.239 52.414,18.467 52.433,18.693C52.412,18.467 52.399,18.241 52.388,18.013ZM52.462,18.991C52.454,18.923 52.446,18.853 52.443,18.782C52.447,18.843 52.454,18.901 52.46,18.961L52.464,18.991H52.462ZM52.775,21.211C52.426,21.125 52.072,21.023 51.723,20.915C52.072,21.027 52.426,21.127 52.777,21.213C52.775,21.213 52.775,21.213 52.775,21.212L52.775,21.211ZM53.62,21.109C53.62,21.109 53.618,21.109 53.618,21.107C53.622,20.974 53.63,20.839 53.637,20.704C53.63,20.839 53.624,20.974 53.62,21.109ZM52.568,25.432C53.238,25.858 53.971,26.275 54.689,26.598V26.596C53.973,26.271 53.238,25.854 52.568,25.432ZM54.664,23.594L54.663,23.594C54.662,23.594 54.662,23.593 54.662,23.592C54.752,23.066 54.858,22.567 54.976,22.09C54.862,22.569 54.754,23.068 54.664,23.594ZM53.238,28.238C53.84,28.791 54.503,29.351 55.173,29.833V29.83C54.505,29.347 53.84,28.785 53.238,28.238ZM51.44,33.145C51.46,33.187 51.479,33.232 51.499,33.279L51.507,33.299C51.482,33.244 51.459,33.19 51.44,33.145ZM51.073,35.326C51.058,35.289 51.044,35.255 51.03,35.222L51.042,35.252C51.061,35.301 51.083,35.355 51.108,35.412C51.096,35.383 51.084,35.354 51.073,35.326ZM20.214,45.341L20.227,45.383L20.227,45.383C20.238,45.416 20.249,45.453 20.26,45.491C20.243,45.436 20.227,45.385 20.214,45.341ZM13.625,23.896C13.563,23.945 13.494,23.999 13.418,24.054C13.492,23.995 13.563,23.942 13.625,23.896ZM14.051,22.001C14.151,21.944 14.242,21.891 14.328,21.837L14.262,21.876C14.197,21.915 14.126,21.957 14.051,22.001ZM19.209,11.206C19.135,11.32 19.059,11.428 18.982,11.537L18.98,11.537C18.98,11.537 18.979,11.537 18.978,11.538C19.058,11.428 19.134,11.318 19.209,11.206ZM16.859,12.997C16.939,12.832 17.015,12.659 17.087,12.486C17.013,12.659 16.935,12.832 16.855,12.998C16.857,12.997 16.859,12.997 16.859,12.997ZM19.156,15.368C19.111,15.382 19.062,15.395 19.004,15.41C19.031,15.403 19.055,15.396 19.078,15.39C19.106,15.382 19.132,15.375 19.156,15.368ZM17.749,15.725C17.92,15.687 18.084,15.649 18.236,15.611C18.124,15.638 18.006,15.665 17.884,15.694L17.749,15.725ZM15.807,10.006C15.801,10.061 15.794,10.13 15.784,10.209C15.788,10.174 15.792,10.141 15.795,10.111V10.111C15.799,10.072 15.803,10.037 15.807,10.006ZM15.666,11.003C15.706,10.728 15.735,10.488 15.756,10.299C15.745,10.379 15.734,10.468 15.722,10.565L15.722,10.565L15.722,10.565L15.722,10.566C15.705,10.698 15.687,10.844 15.666,11.003ZM15.209,13.528C15.116,13.933 15.008,14.337 14.886,14.727L14.884,14.728C15.006,14.339 15.112,13.933 15.209,13.528ZM16.709,15.938C16.039,16.058 15.307,16.162 14.599,16.206C14.599,16.206 14.599,16.207 14.599,16.207L14.598,16.207L14.597,16.207C15.307,16.166 16.039,16.061 16.709,15.938ZM13.399,14.375C13.321,15.159 13.2,16.044 13.016,16.866C13.016,16.868 13.014,16.868 13.012,16.868C13.198,16.046 13.319,15.161 13.399,14.375ZM11.536,18.991C11.564,18.739 11.583,18.481 11.598,18.222C11.583,18.483 11.56,18.743 11.535,18.995C11.536,18.994 11.536,18.994 11.536,18.993L11.536,18.991ZM10.266,19.561C10.325,20.072 10.369,20.596 10.382,21.107C10.363,20.598 10.321,20.07 10.266,19.561ZM10.125,23.87C10.113,23.874 10.1,23.877 10.088,23.881V23.883L10.125,23.87ZM10.125,23.87C10.148,23.863 10.17,23.855 10.192,23.847L10.125,23.87ZM9.309,26.596C9.884,26.338 10.471,26.017 11.028,25.685C10.473,26.023 9.886,26.34 9.309,26.598V26.596ZM9.879,29.009C9.535,29.296 9.182,29.573 8.825,29.828V29.831C9.18,29.575 9.535,29.298 9.879,29.009ZM20.681,46.978C20.723,47.13 20.765,47.289 20.806,47.455C20.763,47.289 20.721,47.13 20.681,46.978ZM7.754,32.116C7.646,31.913 7.532,31.712 7.414,31.512C7.532,31.708 7.646,31.909 7.754,32.112V32.116ZM7.424,28.164C7.595,28.525 7.764,28.897 7.919,29.271C7.921,29.269 7.921,29.267 7.921,29.266C7.764,28.89 7.596,28.52 7.424,28.164ZM12.011,29.353C11.922,29.467 11.827,29.587 11.724,29.71C11.776,29.645 11.828,29.581 11.878,29.518L11.879,29.518L11.88,29.516L11.881,29.516L11.882,29.515L11.882,29.514L11.883,29.513C11.927,29.459 11.969,29.405 12.011,29.353ZM11.102,30.468C10.841,30.773 10.564,31.09 10.27,31.406C10.561,31.092 10.838,30.773 11.102,30.468ZM8.789,32.864C9.123,32.572 9.452,32.255 9.772,31.93C9.452,32.26 9.123,32.575 8.789,32.866V32.864ZM5.79,37.816L5.79,37.816L5.79,37.816L5.79,37.815C5.74,37.787 5.695,37.76 5.652,37.736L5.707,37.769L5.707,37.769C5.761,37.8 5.819,37.834 5.882,37.869C5.85,37.851 5.819,37.833 5.79,37.816ZM7.678,39.011C7.988,39.221 8.308,39.453 8.627,39.698C8.308,39.457 7.988,39.225 7.678,39.011ZM9.045,40.026C9.011,39.999 8.977,39.972 8.943,39.946C8.964,39.963 8.984,39.979 9.005,39.996C9.036,40.022 9.068,40.048 9.1,40.072L9.098,40.068C9.081,40.054 9.063,40.04 9.045,40.026ZM11.597,32.209C11.392,32.551 11.162,32.921 10.908,33.303C11.157,32.921 11.388,32.551 11.597,32.209ZM9.78,34.901C9.579,35.162 9.374,35.416 9.165,35.661V35.665C9.374,35.422 9.579,35.165 9.78,34.901ZM10.068,37.914L10.068,37.914L10.107,37.856L10.069,37.914L10.069,37.914L10.069,37.914L10.069,37.914L10.069,37.914L10.069,37.914L10.069,37.914L10.069,37.914C9.992,38.032 9.915,38.15 9.835,38.264V38.261C9.913,38.147 9.99,38.031 10.068,37.915L10.068,37.914ZM10.87,36.588C10.627,37.013 10.374,37.442 10.107,37.856C10.376,37.444 10.633,37.013 10.87,36.588ZM6.358,40.209C6.419,40.233 6.486,40.262 6.556,40.292C6.484,40.264 6.419,40.237 6.358,40.209ZM9.376,41.694C9.541,41.788 9.706,41.886 9.867,41.986C9.869,41.986 9.869,41.988 9.869,41.99C9.706,41.888 9.541,41.788 9.376,41.694ZM11.525,38.405C11.394,38.657 11.257,38.91 11.117,39.162C11.259,38.91 11.396,38.657 11.525,38.405ZM11.117,39.162C10.927,39.499 10.73,39.831 10.528,40.155C10.733,39.833 10.929,39.5 11.117,39.162ZM6.894,42.643L6.935,42.658C6.976,42.673 7.02,42.689 7.067,42.707L7.039,42.697L7.039,42.697C6.987,42.678 6.938,42.66 6.894,42.643ZM11.267,44.64C11.005,44.49 10.741,44.346 10.475,44.211C10.739,44.348 11.007,44.494 11.269,44.644C11.269,44.644 11.267,44.642 11.267,44.64ZM13.842,36.985C13.836,37.005 13.828,37.032 13.819,37.062L13.824,37.045L13.828,37.03C13.833,37.012 13.837,36.996 13.842,36.985ZM12.704,40.264C12.408,41.012 12.064,41.804 11.686,42.546C11.687,42.546 11.688,42.546 11.688,42.546L11.688,42.546L11.689,42.547L11.689,42.548C12.068,41.806 12.41,41.012 12.704,40.264ZM14.502,39.627L14.496,39.656C14.479,39.73 14.46,39.811 14.438,39.895L14.458,39.81C14.473,39.746 14.488,39.684 14.502,39.627ZM13.988,41.602C13.889,41.95 13.779,42.318 13.657,42.692C13.777,42.317 13.887,41.95 13.988,41.602ZM12.757,46.841C12.77,46.845 12.782,46.851 12.794,46.856L12.807,46.862C12.808,46.862 12.808,46.862 12.809,46.863C12.809,46.864 12.81,46.865 12.811,46.866C12.799,46.861 12.788,46.856 12.778,46.851L12.778,46.851C12.771,46.847 12.764,46.844 12.757,46.841ZM13.502,43.165C13.34,43.64 13.166,44.124 12.976,44.593C12.977,44.593 12.978,44.594 12.978,44.595L12.978,44.595C13.168,44.124 13.342,43.642 13.502,43.165ZM14.018,48.74C14.212,48.793 14.407,48.848 14.601,48.911L14.605,48.915C14.438,48.861 14.269,48.812 14.098,48.763L14.018,48.74ZM14.748,46.82C14.749,46.82 14.749,46.82 14.749,46.822C14.844,46.399 14.928,45.966 15.002,45.537C14.926,45.966 14.842,46.399 14.748,46.82ZM18.928,47.874C18.911,47.645 18.894,47.418 18.875,47.196C18.894,47.417 18.913,47.645 18.928,47.874ZM18.999,50.517L19.001,50.519C19.02,49.642 18.987,48.734 18.928,47.878C18.986,48.732 19.016,49.638 18.999,50.517ZM21.682,52.082C21.614,51.438 21.513,50.785 21.399,50.147C21.517,50.787 21.617,51.439 21.685,52.083C21.685,52.082 21.684,52.082 21.682,52.082ZM21.685,52.083L21.686,52.084C21.686,52.083 21.686,52.083 21.685,52.083ZM42.312,52.084H42.314C42.379,51.493 42.468,50.891 42.571,50.299C42.464,50.889 42.375,51.493 42.312,52.084ZM45.001,50.519L44.999,50.521C44.971,49.283 45.047,47.988 45.155,46.853C45.053,47.988 44.974,49.283 45.001,50.519ZM45.327,45.286L45.327,45.286C45.311,45.401 45.296,45.519 45.282,45.643C45.303,45.485 45.322,45.335 45.339,45.193L45.327,45.286ZM49.976,48.74L49.915,48.758L49.914,48.758L49.914,48.758C49.739,48.809 49.564,48.86 49.391,48.914C49.393,48.913 49.394,48.912 49.395,48.911C49.589,48.85 49.782,48.791 49.976,48.74ZM49.391,48.914L49.391,48.914C49.39,48.915 49.39,48.915 49.389,48.915L49.391,48.914ZM49.754,40.653C49.731,40.565 49.709,40.481 49.687,40.399C49.711,40.491 49.736,40.588 49.762,40.687L49.763,40.688L49.794,40.808L49.754,40.653ZM51.022,44.6C50.747,43.917 50.5,43.207 50.289,42.529C50.506,43.205 50.749,43.917 51.024,44.597L51.022,44.6ZM51.93,41.749C52.049,42.02 52.181,42.288 52.313,42.55C52.313,42.549 52.313,42.549 52.314,42.548L52.315,42.544C52.182,42.286 52.055,42.016 51.93,41.749ZM57.239,42.597C57.097,42.648 56.876,42.73 56.599,42.836C56.876,42.726 57.097,42.645 57.239,42.597ZM52.728,44.648C53.122,44.42 53.523,44.207 53.918,44.01C53.523,44.205 53.122,44.418 52.729,44.644C52.729,44.645 52.729,44.646 52.729,44.646C52.728,44.647 52.728,44.648 52.728,44.648ZM53.747,37.628C53.886,37.845 54.024,38.057 54.167,38.266V38.27C54.022,38.061 53.884,37.846 53.747,37.628ZM54.123,41.995C54.315,41.878 54.507,41.762 54.7,41.65C54.508,41.758 54.315,41.874 54.125,41.992L54.125,41.993L54.124,41.994C54.124,41.994 54.123,41.994 54.123,41.995ZM57.778,38.07C57.685,38.127 57.587,38.188 57.482,38.255C57.565,38.2 57.645,38.152 57.721,38.106L57.778,38.07ZM54.898,40.076C55.373,39.686 55.87,39.322 56.341,38.997C55.87,39.32 55.372,39.684 54.898,40.072V40.076Z" fill-rule="evenodd" id="path_17"/><path fill="#04ac63ff" d="M6.909,21.908C6.913,21.915 6.917,21.925 6.922,21.936C6.922,21.934 6.922,21.934 6.922,21.932C6.917,21.923 6.913,21.915 6.909,21.908Z" id="path_18"/></svg>