<svg id="vector" xmlns="http://www.w3.org/2000/svg" width="40.0d" height="40.0d" viewBox="0 0 40.0 40.0"><defs><clipPath id="clip_path_0"><path d="M13.651,15.262L11.442,23.87C12.73,24.733 14.634,23.722 14.635,23.685C17.763,21.669 20,24.297 20,24.297C20,24.297 22.238,21.669 25.366,23.685C25.367,23.722 27.271,24.733 28.559,23.87L26.35,15.262C26.35,15.262 25.137,13.924 23.126,13.924C22.23,13.924 21.177,14.189 20,14.956C18.825,14.189 17.771,13.924 16.875,13.924C14.863,13.924 13.651,15.262 13.651,15.262Z"/></clipPath></defs><path fill="#ffffffff" d="M20,20.001m-19.75,0a19.75,19.75 0,1 1,39.5 0a19.75,19.75 0,1 1,-39.5 0" stroke="#e6e6e6ff" stroke-width="0.5" id="path_0"/><path fill="#04814fff" d="M30.624,13.159C30.618,13.076 30.61,12.99 30.6,12.9C30.544,12.423 30.434,11.977 30.27,11.575C29.902,10.674 29.283,10.003 28.43,9.582C27.732,9.238 26.873,9.063 25.877,9.06L25.749,8.82L25.733,8.793C25.586,8.58 25.421,8.381 25.263,8.197C24.962,7.846 24.696,7.584 24.427,7.373C24.059,7.084 23.632,6.863 23.16,6.714C22.855,6.619 22.514,6.543 22.118,6.482C22.007,6.464 21.891,6.451 21.772,6.439C21.567,6.416 21.354,6.394 21.147,6.341C20.823,6.257 20.528,6.065 20.317,5.8C20.281,5.754 20.246,5.704 20.215,5.651L20,5.293L19.786,5.652C19.754,5.705 19.72,5.754 19.684,5.8C19.473,6.065 19.178,6.257 18.854,6.341C18.646,6.394 18.434,6.416 18.229,6.439C18.11,6.452 17.993,6.465 17.883,6.482C17.486,6.543 17.145,6.619 16.84,6.715C16.368,6.863 15.942,7.085 15.574,7.373C15.304,7.585 15.038,7.847 14.738,8.197C14.589,8.371 14.416,8.577 14.267,8.795L14.125,9.06C13.127,9.063 12.269,9.238 11.571,9.582C10.974,9.876 10.488,10.296 10.127,10.83C9.739,11.4 9.495,12.097 9.403,12.9C9.391,13 9.382,13.094 9.376,13.203V31.112H30.625V13.946L30.624,13.159ZM9.907,12.965C9.989,12.253 10.201,11.64 10.539,11.144C10.854,10.679 11.261,10.328 11.785,10.07C12.42,9.757 13.215,9.599 14.147,9.599H14.421L14.686,9.099C14.819,8.906 14.976,8.718 15.113,8.559C15.391,8.235 15.633,7.996 15.876,7.806C16.196,7.555 16.569,7.361 16.984,7.231C17.265,7.143 17.583,7.072 17.956,7.014C18.06,6.998 18.169,6.986 18.28,6.974C18.501,6.95 18.731,6.926 18.973,6.864C19.365,6.763 19.726,6.54 20,6.232C20.273,6.54 20.634,6.763 21.028,6.864C21.268,6.926 21.497,6.95 21.719,6.974C21.831,6.986 21.939,6.998 22.044,7.014C22.416,7.072 22.734,7.143 23.015,7.231C23.431,7.361 23.804,7.554 24.123,7.806C24.365,7.996 24.608,8.235 24.886,8.559C25.031,8.728 25.182,8.909 25.313,9.098L25.579,9.599H25.852C26.785,9.599 27.579,9.757 28.215,10.07C28.962,10.439 29.482,11.001 29.803,11.789C29.947,12.144 30.046,12.54 30.095,12.965C30.104,13.046 30.111,13.125 30.116,13.179V28.245H28.286V27.08H25.554V25.881H14.446V27.079H11.714V28.245H9.884V13.942L9.883,13.223C9.889,13.141 9.897,13.055 9.907,12.965Z" id="path_1"/><path fill="#ffffffff" d="M9.618,12.863L10.211,11.38L11.398,10.193L12.881,9.6H14.364L14.661,8.413L16.144,7.523L20.001,6.04L24.154,7.523L25.341,8.71L25.637,9.6H27.417L29.197,10.49L29.791,11.676L30.292,12.825V28.289H9.618V12.863Z" id="path_2"/><path fill="#04814fff" d="M30.624,13.159C30.618,13.076 30.61,12.99 30.6,12.9C30.544,12.423 30.434,11.977 30.27,11.575C29.902,10.674 29.283,10.003 28.43,9.582C27.732,9.238 26.873,9.063 25.877,9.06L25.749,8.82L25.733,8.793C25.586,8.58 25.421,8.381 25.263,8.197C24.962,7.846 24.696,7.584 24.427,7.373C24.059,7.084 23.632,6.863 23.16,6.714C22.855,6.619 22.514,6.543 22.118,6.482C22.007,6.464 21.891,6.451 21.772,6.439C21.567,6.416 21.354,6.394 21.147,6.341C20.823,6.257 20.528,6.065 20.317,5.8C20.281,5.754 20.246,5.704 20.215,5.651L20,5.293L19.786,5.652C19.754,5.705 19.72,5.754 19.684,5.8C19.473,6.065 19.178,6.257 18.854,6.341C18.646,6.394 18.434,6.416 18.229,6.439C18.11,6.452 17.993,6.465 17.883,6.482C17.486,6.543 17.145,6.619 16.84,6.715C16.368,6.863 15.942,7.085 15.574,7.373C15.304,7.585 15.038,7.847 14.738,8.197C14.589,8.371 14.416,8.577 14.267,8.795L14.125,9.06C13.127,9.063 12.269,9.238 11.571,9.582C10.974,9.876 10.488,10.296 10.127,10.83C9.739,11.4 9.495,12.097 9.403,12.9C9.391,13 9.382,13.094 9.376,13.203V31.112H30.625V13.946L30.624,13.159ZM9.907,12.965C9.989,12.253 10.201,11.64 10.539,11.144C10.854,10.679 11.261,10.328 11.785,10.07C12.42,9.757 13.215,9.599 14.147,9.599H14.421L14.686,9.099C14.819,8.906 14.976,8.718 15.113,8.559C15.391,8.235 15.633,7.996 15.876,7.806C16.196,7.555 16.569,7.361 16.984,7.231C17.265,7.143 17.583,7.072 17.956,7.014C18.06,6.998 18.169,6.986 18.28,6.974C18.501,6.95 18.731,6.926 18.973,6.864C19.365,6.763 19.726,6.54 20,6.232C20.273,6.54 20.634,6.763 21.028,6.864C21.268,6.926 21.497,6.95 21.719,6.974C21.831,6.986 21.939,6.998 22.044,7.014C22.416,7.072 22.734,7.143 23.015,7.231C23.431,7.361 23.804,7.554 24.123,7.806C24.365,7.996 24.608,8.235 24.886,8.559C25.031,8.728 25.182,8.909 25.313,9.098L25.579,9.599H25.852C26.785,9.599 27.579,9.757 28.215,10.07C28.962,10.439 29.482,11.001 29.803,11.789C29.947,12.144 30.046,12.54 30.095,12.965C30.104,13.046 30.111,13.125 30.116,13.179V28.245H28.286V27.08H25.554V25.881H14.446V27.079H11.714V28.245H9.884V13.942L9.883,13.223C9.889,13.141 9.897,13.055 9.907,12.965Z" id="path_3"/><path fill="#e9ca5eff" d="M29.732,24.594L27.781,16.433L19.95,15.213L12.215,16.433L10.264,24.594L10.257,24.625H10.289H12.306C12.386,24.628 12.467,24.629 12.551,24.629C12.611,24.629 12.674,24.627 12.735,24.625H19.427C19.437,24.828 19.556,24.949 19.674,25.015C19.796,25.084 19.916,25.099 19.917,25.1H19.919H19.921H20.075H20.076H20.078C20.08,25.099 20.2,25.084 20.322,25.015C20.439,24.949 20.558,24.828 20.568,24.625H27.257C27.319,24.627 27.381,24.629 27.441,24.629C27.525,24.629 27.606,24.628 27.687,24.625H29.707H29.74L29.732,24.594Z" id="path_4"/><path fill="#00000000" d="M29.732,24.594L27.781,16.433L19.95,15.213L12.215,16.433L10.264,24.594L10.257,24.625H10.289H12.306C12.386,24.628 12.467,24.629 12.551,24.629C12.611,24.629 12.674,24.627 12.735,24.625H19.427C19.437,24.828 19.556,24.949 19.674,25.015C19.796,25.084 19.916,25.099 19.917,25.1H19.919H19.921H20.075H20.076H20.078C20.08,25.099 20.2,25.084 20.322,25.015C20.439,24.949 20.558,24.828 20.568,24.625H27.257C27.319,24.627 27.381,24.629 27.441,24.629C27.525,24.629 27.606,24.628 27.687,24.625H29.707H29.74L29.732,24.594Z" stroke="#231f20ff" stroke-width="0.1" id="path_5"/><path fill="#e9ca5eff" d="M27.264,15.969L26.911,15.902C25.625,15.659 22.372,14.632 19.998,15.087C17.624,14.632 14.37,15.659 13.085,15.902L12.732,15.969L10.563,24.353C12.71,24.896 14.429,24.501 15.473,23.921C17.444,22.827 19.998,24.414 19.998,24.414C19.998,24.414 22.552,22.827 24.524,23.921C25.568,24.501 27.287,24.896 29.434,24.353L27.264,15.969Z" id="path_6"/><path fill="#00000000" d="M27.264,15.969L26.911,15.902C25.625,15.659 22.372,14.632 19.998,15.087C17.624,14.632 14.37,15.659 13.085,15.902L12.732,15.969L10.563,24.353C12.71,24.896 14.429,24.501 15.473,23.921C17.444,22.827 19.998,24.414 19.998,24.414C19.998,24.414 22.552,22.827 24.524,23.921C25.568,24.501 27.287,24.896 29.434,24.353L27.264,15.969Z" stroke="#231f20ff" stroke-width="0.1" id="path_7"/><path fill="#e9ca5eff" d="M26.697,15.475C26.697,15.475 22.483,14.23 20.001,15.01C20,15.01 19.999,15.009 19.999,15.009C19.998,15.009 19.997,15.01 19.997,15.01C17.514,14.23 13.301,15.475 13.301,15.475L11.012,24.154C12.51,24.693 14.03,24.282 14.827,23.943C17.801,22.15 19.999,24.354 19.999,24.354C19.999,24.354 22.196,22.15 25.17,23.943C25.967,24.282 27.487,24.693 28.985,24.154L26.697,15.475Z" id="path_8"/><g id="g_0"><path fill="@drawable/$partner_ministry_of_justice__0" d="M28.559,13.924H11.442V24.734H28.559V13.924Z" clip-path="url(#clip_path_0)"/></g><path fill="#00000000" d="M26.349,15.263C26.349,15.263 23.817,12.468 20,14.957C16.183,12.468 13.65,15.263 13.65,15.263L11.441,23.872C12.728,24.736 14.633,23.724 14.633,23.687C17.763,21.671 20,24.298 20,24.298C20,24.298 22.237,21.67 25.366,23.686C25.367,23.724 27.271,24.735 28.559,23.871L26.349,15.263Z" stroke="#231f20ff" stroke-width="0.1" id="path_9"/><path fill="#00000000" d="M20,24.355V14.943" stroke="#020303ff" stroke-width="0.1" stroke-linejoin="round" id="path_10"/><path fill="#ffffffff" d="M19.856,26.367L19.895,26.2C19.761,26.344 19.713,26.566 19.698,26.782C19.705,26.846 19.777,26.878 19.84,26.862C19.903,26.838 19.982,26.79 19.99,26.718C20.045,26.575 19.958,26.447 19.856,26.367ZM19.942,26.655C19.887,26.687 19.824,26.742 19.761,26.719C19.753,26.663 19.768,26.583 19.8,26.527C19.847,26.559 19.942,26.575 19.942,26.655Z" id="path_11"/><path fill="#ffffffff" d="M19.735,27.038L19.647,27.294C19.735,27.923 19.75,28.593 19.805,29.239C19.766,29.51 19.956,29.901 19.647,30.036C19.458,30.084 19.205,30.061 19.102,29.909C19.276,29.781 19.584,29.813 19.592,29.518C19.276,29.199 18.714,29.247 18.311,29.358C18.122,29.358 18.105,29.582 18.05,29.709L18.232,29.669C18.399,29.669 18.517,29.773 18.635,29.885C18.469,30.012 18.28,30.06 18.074,30.069C17.987,30.061 17.899,29.981 17.868,29.893C17.702,29.231 17.702,28.458 17.252,27.948L17.212,28.163C17.347,28.617 17.592,29.04 17.576,29.542C17.228,30.013 16.745,30.371 16.176,30.355C16.073,30.323 16.018,30.22 16.025,30.116C16.302,29.893 16.706,29.678 16.785,29.311C16.943,28.489 16.737,27.661 16.745,26.839C16.785,26.879 16.816,26.935 16.864,26.943C16.832,26.704 16.722,26.464 16.619,26.242L16.54,26.433C16.611,27.365 16.666,28.354 16.706,29.311C16.516,29.51 16.287,29.694 16.058,29.789C16.081,29.701 16.128,29.598 16.113,29.518C16.034,29.638 16.065,29.829 15.915,29.909C15.615,30.061 15.243,30.196 14.895,30.061C14.666,29.949 14.547,29.71 14.555,29.462C14.54,29.191 14.69,28.992 14.761,28.761C14.745,28.801 14.697,28.881 14.635,28.865C14.516,28.689 14.666,28.522 14.682,28.346C14.587,28.537 14.445,28.8 14.603,29.016C14.516,29.191 14.492,29.398 14.492,29.606C14.492,29.909 14.587,30.196 14.864,30.355C15.235,30.53 15.623,30.347 15.932,30.172L15.979,30.459C16.034,30.578 16.137,30.658 16.263,30.666C16.849,30.602 17.449,30.172 17.655,29.606C17.719,29.837 17.687,30.1 17.861,30.284C18.209,30.514 18.533,30.22 18.817,30.061C19.023,30.244 19.244,30.403 19.545,30.363C19.735,30.339 19.829,30.124 19.892,29.973C20.074,29.223 19.853,28.426 19.861,27.645L19.996,27.724C19.948,27.485 19.845,27.221 19.735,27.038ZM18.699,29.581C18.802,29.542 19.015,29.557 19.133,29.621L18.896,29.733L18.699,29.581Z" id="path_12"/><path fill="#ffffffff" d="M20.565,26.24C20.494,26.265 20.51,26.344 20.478,26.392L20.58,26.368C20.699,26.496 20.462,26.624 20.431,26.727C20.58,26.631 20.691,26.48 20.691,26.305C20.676,26.248 20.62,26.24 20.565,26.24Z" id="path_13"/><path fill="#ffffffff" d="M17.428,26.384C17.428,26.328 17.372,26.328 17.333,26.312C17.261,26.32 17.222,26.399 17.222,26.472L17.325,26.448C17.412,26.583 17.206,26.711 17.167,26.806C17.309,26.711 17.436,26.567 17.428,26.384Z" id="path_14"/><path fill="#ffffffff" d="M21.514,26.814L21.617,26.878C21.625,26.83 21.688,26.79 21.649,26.734C21.499,26.679 21.656,26.559 21.601,26.447C21.562,26.296 21.427,26.439 21.364,26.496C21.253,26.599 21.364,26.743 21.459,26.798C21.237,27.021 20.969,27.109 20.732,27.292C21.024,27.22 21.301,27.077 21.514,26.814ZM21.412,26.567C21.427,26.519 21.522,26.496 21.522,26.575V26.623C21.483,26.646 21.443,26.599 21.412,26.567Z" id="path_15"/><path fill="#ffffffff" d="M22.218,27.907L22.17,28.027C22.399,27.962 22.613,27.827 22.834,27.779C22.866,28.472 22.953,29.166 22.937,29.86C23.23,29.223 23,28.425 23.009,27.74L24.099,27.301L24.131,27.205C23.751,27.364 23.388,27.453 23.008,27.612C22.961,27.444 22.953,27.253 22.961,27.085C23.008,27.101 23.047,27.189 23.095,27.173C23.032,26.934 22.953,26.679 22.834,26.487L22.739,26.759C22.802,27.053 22.826,27.372 22.81,27.675L22.218,27.907Z" id="path_16"/><path fill="#ffffffff" d="M15.609,27.061C15.617,27.109 15.664,27.149 15.719,27.141C15.806,27.093 15.806,26.989 15.83,26.91L15.719,27.013C15.561,26.862 15.735,26.67 15.743,26.495C15.656,26.663 15.569,26.854 15.609,27.061Z" id="path_17"/><path fill="#ffffffff" d="M18.518,27.021C18.534,27.1 18.526,27.212 18.637,27.196C18.731,27.156 18.724,27.045 18.747,26.965C18.708,27.005 18.7,27.076 18.637,27.069C18.502,26.909 18.628,26.718 18.668,26.551C18.581,26.694 18.534,26.853 18.518,27.021Z" id="path_18"/><path fill="#ffffffff" d="M23.381,27.091C23.389,27.147 23.428,27.203 23.499,27.195C23.578,27.147 23.578,27.044 23.61,26.964L23.499,27.067C23.365,26.924 23.491,26.693 23.515,26.549C23.42,26.709 23.373,26.892 23.381,27.091Z" id="path_19"/><path fill="#ffffffff" d="M20.226,26.956L20.124,27.243C20.226,28.255 20.305,29.324 20.322,30.329C20.408,30.153 20.456,29.962 20.464,29.754L20.345,27.562L20.48,27.658C20.416,27.41 20.337,27.179 20.226,26.956Z" id="path_20"/><path fill="#ffffffff" d="M17.378,27.022C17.276,27.205 17.213,27.404 17.213,27.62C17.229,27.676 17.284,27.676 17.324,27.691C17.395,27.676 17.473,27.644 17.498,27.564C17.561,27.428 17.49,27.277 17.371,27.197L17.418,27.022H17.378ZM17.458,27.452C17.434,27.5 17.378,27.548 17.316,27.54H17.276C17.244,27.476 17.292,27.404 17.316,27.348C17.363,27.372 17.41,27.412 17.458,27.452Z" id="path_21"/><path fill="#ffffffff" d="M24.804,27.324C24.693,27.492 24.606,27.691 24.614,27.922C24.622,27.994 24.701,27.994 24.756,27.986C24.851,27.962 24.922,27.866 24.906,27.762C24.93,27.659 24.859,27.563 24.771,27.507C24.764,27.436 24.835,27.372 24.804,27.324ZM24.859,27.762C24.835,27.826 24.756,27.85 24.693,27.85C24.638,27.786 24.693,27.714 24.717,27.659C24.772,27.675 24.82,27.707 24.859,27.762Z" id="path_22"/><path fill="#ffffffff" d="M21.419,27.516C21.348,27.452 21.277,27.396 21.182,27.372L21.079,27.596L21.333,27.771L21.435,27.596L21.673,27.747C21.72,27.675 21.775,27.603 21.791,27.516C21.712,27.436 21.617,27.404 21.538,27.348C21.498,27.404 21.475,27.492 21.419,27.516Z" id="path_23"/><path fill="#ffffffff" d="M17.657,28.138C17.965,28.042 18.297,27.906 18.463,27.587C18.502,27.619 18.565,27.675 18.613,27.619C18.716,27.723 18.724,27.882 18.779,28.001C18.858,27.843 18.851,27.635 18.961,27.492L19.064,27.556C19.088,27.532 19.088,27.5 19.103,27.476C19.087,27.412 19.04,27.34 18.961,27.357C18.827,27.468 18.858,27.683 18.779,27.779C18.74,27.644 18.716,27.46 18.542,27.412C18.352,27.794 17.925,27.922 17.657,28.138Z" id="path_24"/><path fill="#ffffffff" d="M15.323,27.724C15.505,27.739 15.75,27.691 15.901,27.78C15.726,27.923 15.513,27.979 15.355,28.13C15.687,28.066 16.074,27.883 16.153,27.516C15.995,27.429 15.79,27.453 15.592,27.453C15.434,27.444 15.387,27.612 15.323,27.724Z" id="path_25"/><path fill="#ffffffff" d="M23.975,28.128C23.99,28.168 24.03,28.232 24.085,28.208C24.172,28.16 24.172,28.057 24.204,27.977C24.165,28.001 24.141,28.08 24.077,28.08C23.951,27.921 24.093,27.73 24.109,27.563C24.03,27.738 23.935,27.914 23.975,28.128Z" id="path_26"/><path fill="#ffffffff" d="M21.958,27.715C21.847,27.954 21.689,28.193 21.523,28.4L21.262,28.129C21.294,28.081 21.357,28.113 21.404,28.105V28.081C21.286,27.994 21.159,27.898 21.033,27.866C20.843,28.201 21.286,28.369 21.389,28.632C21.239,28.895 21.073,29.174 21.135,29.516C21.159,29.628 21.294,29.668 21.389,29.628C21.602,29.548 21.863,29.373 21.871,29.102C21.871,28.862 21.792,28.655 21.626,28.479C21.776,28.241 22.005,28.01 21.958,27.715ZM21.776,29.07C21.641,29.222 21.46,29.349 21.254,29.31C21.175,29.246 21.246,29.158 21.262,29.095L21.492,28.736C21.618,28.807 21.705,28.95 21.776,29.07Z" id="path_27"/><path fill="#ffffffff" d="M23.483,28.232C23.538,28.16 23.57,28.081 23.586,28.001C23.515,27.921 23.428,27.881 23.333,27.842L23.23,28.065L23.483,28.232Z" id="path_28"/><path fill="#ffffffff" d="M18.098,28.624L19.364,28.114L19.387,28.034C18.968,28.185 18.549,28.32 18.146,28.496L18.098,28.624Z" id="path_29"/><path fill="#ffffffff" d="M20.748,28.872C20.859,28.856 20.851,28.729 20.875,28.641C20.835,28.681 20.827,28.768 20.748,28.744C20.638,28.585 20.764,28.386 20.788,28.242C20.693,28.401 20.646,28.585 20.654,28.784C20.646,28.824 20.701,28.896 20.748,28.872Z" id="path_30"/><path fill="#ffffffff" d="M25.105,29.238C25.113,28.943 25.018,28.655 24.757,28.496C24.623,28.448 24.504,28.535 24.417,28.639C24.338,28.751 24.315,28.903 24.331,29.03C24.433,29.341 24.892,29.062 25.003,29.341C24.678,29.739 24.275,30.05 23.801,30.146C23.683,30.138 23.54,30.13 23.461,30.035C23.635,29.883 23.872,29.739 23.904,29.5C24.038,29.181 23.777,28.966 23.714,28.711L23.817,28.735C23.722,28.615 23.619,28.487 23.508,28.4C23.35,28.799 23.769,29.07 23.848,29.421C23.706,29.604 23.517,29.708 23.335,29.836C23.256,29.58 23.39,29.333 23.405,29.11C23.295,29.357 23.248,29.628 23.224,29.907C23.034,30.027 22.82,30.106 22.583,30.139C22.456,30.147 22.361,30.075 22.275,29.987C22.441,29.86 22.615,29.7 22.654,29.5C22.789,29.182 22.52,28.967 22.457,28.712L22.56,28.736C22.473,28.615 22.37,28.488 22.26,28.4C22.093,28.775 22.465,29.038 22.583,29.357V29.445C22.457,29.572 22.315,29.692 22.172,29.756C22.157,29.509 22.252,29.293 22.268,29.095C22.157,29.317 22.109,29.573 22.085,29.836C21.793,30.019 21.389,30.266 21.057,30.019C20.789,29.772 20.994,29.366 21.018,29.095C20.97,29.174 20.947,29.27 20.915,29.357C20.836,29.692 20.781,30.139 21.097,30.378C21.469,30.521 21.824,30.29 22.133,30.091C22.181,30.186 22.22,30.282 22.315,30.354C22.647,30.545 23.002,30.314 23.295,30.155C23.343,30.258 23.43,30.338 23.517,30.402C23.833,30.537 24.126,30.362 24.371,30.195C24.654,29.939 25.121,29.668 25.105,29.238ZM24.805,28.919C24.702,28.879 24.496,28.967 24.489,28.807C24.528,28.743 24.623,28.767 24.678,28.783C24.725,28.807 24.765,28.854 24.805,28.895V28.919Z" id="path_31"/><path fill="#ffffffff" d="M15.957,29.174C15.972,29.238 15.996,29.317 16.083,29.293C16.154,29.246 16.186,29.158 16.186,29.07C16.146,29.102 16.139,29.182 16.076,29.174C15.933,29.014 16.083,28.823 16.107,28.656C16.021,28.807 15.949,28.974 15.957,29.174Z" id="path_32"/><path fill="#ffffffff" d="M15.323,29.564C15.33,29.604 15.37,29.668 15.433,29.644C15.52,29.596 15.52,29.493 15.544,29.413C15.513,29.437 15.489,29.516 15.426,29.516C15.299,29.357 15.433,29.165 15.457,28.998C15.37,29.166 15.283,29.357 15.323,29.564Z" id="path_33"/><path fill="#ffffffff" d="M17.301,29.078C17.308,29.014 17.237,28.983 17.175,28.999C17.119,29.03 17.088,29.087 17.088,29.15L17.191,29.126C17.278,29.253 17.104,29.365 17.032,29.469C17.15,29.405 17.293,29.246 17.301,29.078Z" id="path_34"/><path fill="#ffffffff" d="M24.439,30.633L25.507,29.86V29.733L24.439,30.529V30.633Z" id="path_35"/><path fill="#ffffffff" d="M20.74,30.203C20.677,30.235 20.653,30.29 20.653,30.354L20.748,30.33C20.883,30.458 20.63,30.577 20.606,30.689C20.748,30.601 20.843,30.458 20.866,30.298C20.875,30.227 20.811,30.187 20.74,30.203Z" id="path_36"/><path fill="#231f20ff" d="M14.413,12.854C14.294,12.841 14.282,12.692 14.175,12.667C13.944,12.784 13.898,13.05 13.794,13.253C13.765,13.309 13.708,13.373 13.633,13.357C13.476,13.252 13.547,13.013 13.54,12.86C13.477,13.009 13.477,13.215 13.538,13.369C13.571,13.418 13.608,13.491 13.683,13.483C13.918,13.354 13.865,13.05 14.063,12.877C14.229,12.7 14.228,13.043 14.393,13.016C14.488,13.008 14.579,12.988 14.644,12.92C14.628,13.037 14.591,13.198 14.673,13.303C14.854,13.373 14.969,13.171 15.106,13.106C15.192,13.345 14.862,13.307 14.846,13.465L15.081,13.328C15.101,13.393 15.11,13.458 15.167,13.506C15.22,13.559 15.311,13.555 15.377,13.539C15.696,13.394 16.03,13.08 16.102,12.736L16.386,12.564C16.456,12.564 16.522,12.645 16.605,12.649C16.815,12.694 16.98,12.537 17.101,12.387L17.121,12.492C17.153,12.557 17.228,12.554 17.294,12.554C17.409,12.534 17.508,12.404 17.575,12.332C17.583,12.38 17.595,12.424 17.632,12.461C17.673,12.489 17.719,12.477 17.768,12.473C17.859,12.441 17.888,12.349 17.93,12.28C17.958,12.336 17.999,12.417 18.073,12.426C18.156,12.43 18.234,12.382 18.276,12.329C18.279,12.462 18.316,12.608 18.427,12.693C18.625,12.722 18.629,12.488 18.7,12.374C18.75,12.286 18.828,12.144 18.952,12.161C19.022,12.311 19.17,12.44 19.344,12.453C19.47,12.47 19.596,12.48 19.722,12.485L19.742,12.43L19.737,12.33C19.54,12.32 19.344,12.293 19.158,12.242C19.068,12.169 19.06,12.032 18.94,12.003C18.722,12.075 18.68,12.309 18.588,12.479C18.56,12.536 18.498,12.6 18.423,12.572C18.313,12.499 18.304,12.353 18.321,12.224C18.425,11.836 18.311,11.431 18.308,11.036L18.32,11.024C18.341,11.036 18.357,11.08 18.386,11.064C18.358,10.943 18.304,10.829 18.251,10.717C18.264,10.692 18.239,10.652 18.272,10.636C18.506,10.843 18.658,11.094 18.757,11.365C18.863,11.616 18.756,11.878 18.627,12.084C18.743,11.979 18.805,11.846 18.834,11.7C18.905,11.191 18.667,10.734 18.243,10.454C18.189,10.567 18.251,10.692 18.214,10.809C18.221,11.25 18.29,11.695 18.289,12.152L18.251,12.212C18.198,12.253 18.14,12.277 18.066,12.268C17.995,12.248 17.979,12.171 17.992,12.098H17.979C17.934,12.171 17.884,12.26 17.81,12.304C17.765,12.325 17.698,12.34 17.657,12.292C17.616,12.251 17.633,12.199 17.645,12.15C17.554,12.222 17.484,12.356 17.365,12.384C17.302,12.403 17.22,12.403 17.171,12.359C17.134,12.318 17.159,12.27 17.159,12.221C17.08,12.258 17.026,12.351 16.952,12.411C16.841,12.488 16.663,12.54 16.548,12.458C16.643,12.378 16.783,12.35 16.804,12.208C16.639,12.099 16.4,12.139 16.226,12.195C16.107,12.219 16.016,12.312 16.007,12.433C16.045,12.413 16.077,12.393 16.123,12.393C16.197,12.381 16.254,12.43 16.308,12.474L16.081,12.603C16.044,12.551 16.015,12.486 15.954,12.457C15.9,12.433 15.83,12.445 15.793,12.489C15.731,12.566 15.673,12.654 15.698,12.759C15.767,12.873 15.928,12.788 16.023,12.776L16.027,12.829C15.845,13.083 15.584,13.382 15.25,13.393C15.205,13.377 15.151,13.34 15.135,13.292C15.25,13.211 15.379,13.159 15.494,13.083L15.519,13.03C15.395,13.09 15.276,13.163 15.156,13.235H15.127L15.136,13.081C15.26,12.948 15.42,12.84 15.537,12.694C15.574,12.593 15.603,12.448 15.513,12.363C15.36,12.29 15.175,12.294 15.043,12.18C15.072,12.164 15.117,12.168 15.13,12.14C15.056,12.107 14.969,12.083 14.891,12.083V12.192C15.005,12.374 15.233,12.431 15.43,12.484C15.467,12.504 15.529,12.512 15.537,12.565C15.314,12.787 15.07,13.009 14.806,13.158C14.76,13.174 14.715,13.17 14.682,13.133C14.645,12.979 14.674,12.802 14.819,12.705C14.832,12.749 14.798,12.802 14.798,12.838C14.848,12.77 14.872,12.697 14.881,12.616C14.889,12.588 14.877,12.551 14.848,12.551C14.711,12.644 14.616,12.878 14.413,12.854ZM16.576,12.301L16.452,12.382L16.333,12.313C16.407,12.292 16.498,12.277 16.576,12.301ZM15.783,12.659L15.779,12.622C15.825,12.578 15.899,12.582 15.94,12.643C15.895,12.667 15.837,12.671 15.783,12.659Z" id="path_37"/><path fill="#231f20ff" d="M20.246,12.468C20.535,12.437 20.816,12.372 21.076,12.27C21.093,12.311 21.097,12.359 21.117,12.396C21.154,12.473 21.228,12.497 21.311,12.489C21.36,12.477 21.393,12.429 21.414,12.388C21.455,12.283 21.448,12.138 21.382,12.053C21.37,12.089 21.357,12.125 21.345,12.158C21.332,12.223 21.419,12.275 21.361,12.328C21.315,12.344 21.241,12.348 21.196,12.315C21.139,12.267 21.151,12.178 21.151,12.117C20.871,12.219 20.557,12.289 20.236,12.319L20.231,12.43L20.246,12.468Z" id="path_38"/><path fill="#231f20ff" d="M23.438,11.064C23.467,11.06 23.501,11.04 23.504,11.008C23.533,10.931 23.488,10.871 23.435,10.822L23.456,10.741C23.376,10.789 23.369,10.911 23.347,11.008C23.347,11.048 23.397,11.076 23.438,11.064ZM23.402,10.898C23.43,10.911 23.463,10.931 23.48,10.959C23.467,10.987 23.426,11.008 23.389,10.991C23.364,10.963 23.393,10.927 23.402,10.898Z" id="path_39"/><path fill="#231f20ff" d="M17.104,11.005C17.133,10.932 17.108,10.847 17.038,10.806C17.047,10.778 17.071,10.746 17.063,10.725C17.03,10.742 17.026,10.782 17.01,10.81C16.984,10.891 16.919,11.012 16.997,11.073C17.038,11.069 17.079,11.041 17.104,11.005ZM17.009,10.899C17.042,10.899 17.067,10.92 17.091,10.944C17.067,10.972 17.034,10.996 16.996,10.996C16.98,10.964 16.992,10.928 17.009,10.899Z" id="path_40"/><path fill="#231f20ff" d="M22.988,11.157C23.03,11.14 23.038,11.088 23.046,11.047C23.034,11.064 23.013,11.096 22.989,11.092C22.919,11.015 22.985,10.902 22.998,10.834C22.965,10.91 22.915,10.983 22.927,11.076C22.927,11.116 22.943,11.149 22.988,11.157Z" id="path_41"/><path fill="#231f20ff" d="M24.139,11.167C24.173,11.139 24.173,11.103 24.185,11.066L24.131,11.107C24.041,11.037 24.132,10.929 24.14,10.848C24.095,10.925 24.049,11.014 24.07,11.115C24.069,11.147 24.106,11.175 24.139,11.167Z" id="path_42"/><path fill="#231f20ff" d="M22.089,11.203C22.126,11.178 22.143,11.134 22.143,11.09C22.13,11.11 22.109,11.142 22.085,11.138C22.019,11.057 22.081,10.956 22.102,10.875C22.056,10.952 22.015,11.033 22.023,11.134C22.031,11.166 22.047,11.203 22.089,11.203Z" id="path_43"/><path fill="#231f20ff" d="M16.571,11.241C16.625,11.217 16.633,11.161 16.646,11.112C16.625,11.128 16.612,11.176 16.572,11.172C16.526,11.092 16.58,10.991 16.596,10.91C16.564,10.991 16.518,11.067 16.518,11.164C16.526,11.193 16.526,11.249 16.571,11.241Z" id="path_44"/><path fill="#231f20ff" d="M21.789,12.079C21.773,12.123 21.736,12.167 21.744,12.212L21.798,12.2C21.905,12.184 21.971,12.269 22.041,12.338C21.896,12.398 21.739,12.418 21.595,12.474C21.331,12.501 21.243,12.898 20.959,12.852C20.765,12.706 20.96,12.485 20.977,12.327C20.902,12.44 20.848,12.561 20.84,12.699C20.831,12.812 20.884,12.913 20.979,12.97C21.177,13.039 21.264,12.813 21.408,12.72C21.624,12.559 21.896,12.535 22.139,12.447C22.246,12.573 22.382,12.654 22.543,12.638C22.613,12.618 22.655,12.545 22.688,12.489C22.792,12.117 22.665,11.729 22.682,11.349C22.854,11.636 23.081,11.9 23.109,12.247C23.1,12.417 22.964,12.558 22.823,12.651L22.823,12.4L22.799,12.461C22.765,12.574 22.807,12.74 22.666,12.784C22.707,12.78 22.741,12.755 22.774,12.74C22.794,12.748 22.786,12.768 22.786,12.78C22.827,12.901 22.851,13.087 23.016,13.096C23.185,12.991 23.165,12.777 23.334,12.664C23.371,12.648 23.429,12.624 23.462,12.664C23.536,12.806 23.639,12.997 23.837,12.981C23.899,12.969 23.965,12.929 23.998,12.872C24.056,12.787 24.015,12.67 23.99,12.593C24.155,12.735 24.282,13.014 24.538,12.97C24.628,12.946 24.645,12.853 24.67,12.781L24.691,12.89C24.765,13.1 24.999,13.25 25.201,13.291L25.214,13.194C25.206,13.146 25.143,13.126 25.107,13.101C25.041,13.037 24.926,13 24.913,12.907L25.239,12.851C25.276,12.932 25.346,13.017 25.42,13.066C25.47,13.086 25.544,13.11 25.569,13.041C25.602,12.937 25.598,12.807 25.508,12.73C25.446,12.689 25.367,12.677 25.293,12.693C25.24,12.535 25.22,12.358 25.22,12.188L25.53,12.16C25.559,12.164 25.575,12.124 25.567,12.108L25.216,12.139C25.196,11.945 25.18,11.722 25.189,11.516L25.259,11.582C25.235,11.448 25.173,11.327 25.128,11.197C25.107,11.205 25.099,11.249 25.082,11.278C25.106,11.557 25.097,11.859 25.133,12.139C25.059,12.179 24.919,12.126 24.903,12.227L25.133,12.203C25.162,12.369 25.166,12.551 25.198,12.709L24.971,12.757C24.893,12.777 24.855,12.861 24.839,12.926L24.822,12.906C24.646,12.505 24.726,11.996 24.665,11.543C24.64,11.398 24.625,11.228 24.567,11.114L24.533,11.22C24.611,11.701 24.63,12.206 24.625,12.72C24.625,12.768 24.579,12.8 24.538,12.82C24.456,12.844 24.385,12.804 24.324,12.767C23.978,12.419 23.604,12.042 23.233,11.746C23.518,11.589 23.844,11.529 24.166,11.461C24.261,11.462 24.397,11.417 24.446,11.51C24.359,11.615 24.215,11.7 24.202,11.841C24.285,11.675 24.52,11.607 24.513,11.405C24.472,11.304 24.328,11.332 24.232,11.336C23.886,11.395 23.531,11.447 23.234,11.628C23.201,11.697 23.196,11.786 23.204,11.863L23.78,12.434C23.867,12.535 23.961,12.637 23.986,12.766C23.932,12.814 23.866,12.834 23.788,12.822C23.607,12.81 23.583,12.608 23.471,12.502C23.248,12.477 23.185,12.736 23.099,12.873C23.074,12.918 23.029,12.99 22.958,12.966C22.851,12.929 22.835,12.812 22.823,12.715C22.943,12.638 23.083,12.538 23.137,12.401C23.262,11.915 22.908,11.539 22.699,11.142C22.645,11.082 22.649,10.98 22.583,10.94C22.559,11 22.517,11.081 22.575,11.137C22.603,11.554 22.643,11.962 22.65,12.383C22.646,12.419 22.638,12.459 22.597,12.472C22.481,12.516 22.353,12.471 22.275,12.394C22.37,12.346 22.518,12.358 22.531,12.22C22.465,12.156 22.387,12.107 22.301,12.079C22.149,12.035 21.938,12.01 21.789,12.079ZM25.499,12.909V12.929C25.445,12.925 25.396,12.892 25.363,12.844C25.417,12.844 25.47,12.868 25.499,12.909ZM22.3,12.246L22.176,12.29L22.061,12.185C22.148,12.189 22.23,12.197 22.3,12.246Z" id="path_45"/><path fill="#231f20ff" d="M17.409,11.202C17.297,11.323 17.153,11.391 17.037,11.496C17.185,11.431 17.334,11.347 17.441,11.206L17.494,11.23C17.499,11.206 17.536,11.178 17.507,11.153C17.446,11.145 17.495,11.089 17.487,11.057C17.512,10.935 17.38,11.008 17.359,11.06C17.31,11.113 17.363,11.182 17.409,11.202ZM17.446,11.085L17.442,11.121C17.421,11.113 17.4,11.101 17.388,11.085C17.392,11.064 17.45,11.04 17.446,11.085Z" id="path_46"/><path fill="#231f20ff" d="M25.516,11.381C25.557,11.296 25.5,11.219 25.451,11.158C25.458,11.135 25.484,11.106 25.476,11.082C25.401,11.158 25.338,11.287 25.392,11.397C25.429,11.413 25.486,11.425 25.516,11.381ZM25.421,11.239C25.455,11.256 25.492,11.288 25.499,11.32C25.47,11.332 25.437,11.344 25.409,11.332C25.384,11.304 25.409,11.267 25.421,11.239Z" id="path_47"/><path fill="#231f20ff" d="M24.77,11.201C24.811,11.262 24.827,11.331 24.843,11.399C24.814,11.423 24.794,11.456 24.802,11.501C24.814,11.488 24.86,11.46 24.88,11.501L24.797,11.533C24.768,11.698 24.846,11.868 24.841,12.034C24.867,11.889 24.834,11.738 24.801,11.597C24.847,11.574 24.904,11.577 24.958,11.569C25.012,11.497 24.905,11.44 24.868,11.396L24.918,11.214C24.939,11.141 24.98,11.214 25.004,11.226L25.013,11.223C25.029,11.186 25.009,11.15 24.98,11.121C24.873,11.109 24.901,11.25 24.864,11.315C24.831,11.234 24.823,11.125 24.724,11.088L24.682,11.149C24.703,11.173 24.733,11.222 24.77,11.201Z" id="path_48"/><path fill="#231f20ff" d="M17.874,11.419C17.919,11.395 17.928,11.342 17.94,11.298C17.92,11.31 17.912,11.358 17.874,11.35C17.817,11.273 17.879,11.164 17.891,11.092C17.85,11.177 17.813,11.261 17.821,11.366C17.825,11.391 17.841,11.423 17.874,11.419Z" id="path_49"/><path fill="#231f20ff" d="M23.813,11.106C23.595,11.146 23.367,11.165 23.157,11.222L23.144,11.274L23.8,11.146L23.813,11.106Z" id="path_50"/><path fill="#231f20ff" d="M21.225,11.427L21.876,11.247L21.897,11.202C21.761,11.234 21.625,11.267 21.493,11.299C21.407,11.347 21.253,11.314 21.225,11.427Z" id="path_51"/><path fill="#231f20ff" d="M16.793,11.358L16.834,11.387C16.851,11.37 16.851,11.346 16.851,11.322L16.822,11.285C16.711,11.313 16.735,11.443 16.698,11.524C16.681,11.467 16.665,11.414 16.62,11.366C16.599,11.357 16.567,11.333 16.55,11.366C16.534,11.394 16.497,11.43 16.542,11.455C16.562,11.467 16.587,11.467 16.604,11.451C16.653,11.503 16.677,11.572 16.673,11.641C16.562,11.778 16.392,11.87 16.272,11.979C16.38,11.927 16.487,11.878 16.578,11.794C16.73,11.682 16.693,11.487 16.793,11.358Z" id="path_52"/><path fill="#231f20ff" d="M14.538,11.492C14.518,11.508 14.501,11.557 14.464,11.557C14.419,11.476 14.473,11.379 14.49,11.294C14.44,11.391 14.386,11.524 14.443,11.625C14.517,11.625 14.517,11.54 14.538,11.492Z" id="path_53"/><path fill="#231f20ff" d="M21.615,11.561L22.275,11.393L22.287,11.352C22.064,11.397 21.849,11.448 21.639,11.509L21.615,11.561Z" id="path_54"/><path fill="#231f20ff" d="M16.117,11.608L16.158,11.625C16.253,11.548 16.071,11.54 16.15,11.455C16.15,11.427 16.159,11.382 16.117,11.386C16.06,11.41 16.002,11.471 16.002,11.536C16.01,11.572 16.051,11.58 16.072,11.6C15.969,11.733 15.803,11.81 15.704,11.919C15.856,11.854 16.005,11.737 16.117,11.608ZM16.051,11.491C16.055,11.463 16.109,11.442 16.109,11.483L16.105,11.519C16.084,11.516 16.067,11.503 16.051,11.491Z" id="path_55"/><path fill="#231f20ff" d="M18.607,11.777C18.636,11.741 18.661,11.7 18.669,11.656C18.653,11.632 18.628,11.628 18.607,11.616C18.496,11.587 18.628,11.523 18.607,11.47L18.48,11.393L18.418,11.514L18.479,11.55C18.583,11.571 18.483,11.647 18.479,11.696L18.607,11.777Z" id="path_56"/><path fill="#231f20ff" d="M15.254,11.574C15.274,11.594 15.311,11.602 15.336,11.582C15.381,11.63 15.398,11.695 15.414,11.756C15.468,11.679 15.452,11.574 15.497,11.493C15.514,11.457 15.542,11.489 15.563,11.502C15.584,11.481 15.58,11.457 15.58,11.429C15.567,11.413 15.551,11.405 15.531,11.401C15.444,11.449 15.456,11.558 15.431,11.639C15.41,11.643 15.414,11.607 15.406,11.586C15.386,11.542 15.357,11.481 15.295,11.481C15.204,11.679 14.985,11.804 14.824,11.945C14.989,11.872 15.171,11.743 15.254,11.574Z" id="path_57"/><path fill="#231f20ff" d="M13.517,12.264C13.62,12.2 13.723,12.136 13.814,12.047C13.963,11.93 13.955,11.748 14.017,11.595C14.03,11.575 14.054,11.575 14.067,11.595C14.1,11.615 14.096,11.563 14.1,11.543C14.092,11.523 14.079,11.514 14.059,11.502C13.964,11.555 13.98,11.68 13.943,11.756C13.935,11.704 13.914,11.651 13.869,11.611L13.799,11.611C13.799,11.643 13.745,11.667 13.782,11.699C13.799,11.716 13.844,11.724 13.852,11.696C13.889,11.748 13.926,11.801 13.93,11.87C13.814,12.019 13.653,12.136 13.517,12.264Z" id="path_58"/><path fill="#231f20ff" d="M17.511,11.567C17.462,11.627 17.556,11.717 17.474,11.765C17.362,11.785 17.445,11.652 17.404,11.603L17.375,11.639C17.383,11.684 17.382,11.736 17.391,11.797C17.395,11.814 17.416,11.846 17.444,11.838C17.486,11.826 17.507,11.797 17.524,11.761L17.556,11.802C17.576,11.797 17.606,11.81 17.618,11.789C17.692,11.713 17.606,11.628 17.602,11.547C17.556,11.608 17.606,11.668 17.622,11.725C17.502,11.794 17.565,11.607 17.511,11.567Z" id="path_59"/><path fill="#231f20ff" d="M14.779,11.553C14.552,11.665 14.342,11.806 14.123,11.939L14.106,12.004L14.747,11.609L14.779,11.553Z" id="path_60"/><path fill="#231f20ff" d="M25.796,13.08L25.728,11.956L25.741,11.944L25.806,12.017C25.774,11.879 25.729,11.745 25.668,11.625L25.622,11.742C25.67,12.271 25.714,12.821 25.717,13.346C25.771,13.269 25.788,13.177 25.796,13.08Z" id="path_61"/><path fill="#231f20ff" d="M21.502,11.927C21.507,11.955 21.535,11.98 21.563,11.98C21.605,11.956 21.613,11.911 21.618,11.867C21.605,11.887 21.584,11.923 21.556,11.915C21.498,11.834 21.556,11.729 21.572,11.66C21.523,11.737 21.498,11.826 21.502,11.927Z" id="path_62"/><path fill="#231f20ff" d="M25.396,11.996C25.433,11.976 25.449,11.936 25.449,11.891C25.437,11.915 25.417,11.931 25.391,11.931C25.322,11.854 25.392,11.745 25.404,11.676C25.355,11.753 25.326,11.834 25.33,11.931C25.338,11.963 25.363,11.992 25.396,11.996Z" id="path_63"/><path fill="#231f20ff" d="M23.84,11.833C23.86,11.846 23.844,11.877 23.877,11.874C23.893,11.87 23.922,11.862 23.91,11.833C23.893,11.793 23.844,11.781 23.803,11.764C23.729,11.748 23.609,11.736 23.559,11.8C23.613,11.922 23.794,11.962 23.811,12.096C23.687,12.003 23.53,11.918 23.448,11.792C23.435,11.966 23.645,12.039 23.761,12.124C23.794,12.132 23.839,12.124 23.864,12.084C23.881,11.934 23.679,11.914 23.626,11.788C23.696,11.768 23.778,11.8 23.84,11.833Z" id="path_64"/><path fill="#231f20ff" d="M16.985,12.056C16.985,12.088 17.005,12.125 17.046,12.116C17.083,12.093 17.1,12.016 17.1,12C17.079,12.016 17.071,12.056 17.038,12.052C16.981,11.967 17.043,11.862 17.059,11.789C17.018,11.874 16.976,11.955 16.985,12.056Z" id="path_65"/><path fill="#231f20ff" d="M22.86,11.908L22.806,12.017L22.913,12.11L22.859,12.211C22.904,12.248 22.949,12.292 22.994,12.321C23.02,12.288 23.044,12.252 23.049,12.212C23.024,12.179 22.982,12.155 22.95,12.122C22.946,12.098 22.97,12.086 22.979,12.066C23.024,11.99 22.904,11.949 22.86,11.908Z" id="path_66"/><path fill="#231f20ff" d="M14.362,12.122C14.345,12.142 14.312,12.17 14.332,12.194C14.374,12.235 14.32,12.316 14.377,12.348C14.436,12.352 14.464,12.296 14.485,12.259L14.514,12.296C14.547,12.304 14.572,12.288 14.588,12.26C14.63,12.187 14.58,12.102 14.556,12.037C14.493,12.11 14.605,12.171 14.563,12.231C14.456,12.243 14.527,12.118 14.481,12.073C14.403,12.118 14.535,12.223 14.427,12.28C14.32,12.287 14.411,12.158 14.362,12.122Z" id="path_67"/><path fill="#231f20ff" d="M24.218,12.396C24.222,12.437 24.234,12.485 24.288,12.481C24.325,12.462 24.333,12.421 24.338,12.385L24.288,12.425C24.202,12.356 24.276,12.243 24.297,12.163C24.243,12.231 24.226,12.311 24.218,12.396Z" id="path_68"/><path fill="#231f20ff" d="M24.837,12.542C24.846,12.563 24.871,12.595 24.895,12.595C24.944,12.579 24.945,12.514 24.949,12.49C24.937,12.506 24.924,12.534 24.895,12.531C24.813,12.449 24.899,12.353 24.908,12.268C24.858,12.349 24.822,12.441 24.837,12.542Z" id="path_69"/><path fill="#231f20ff" d="M13.88,12.451C13.921,12.464 13.966,12.496 13.999,12.492C14.019,12.448 14.057,12.412 14.053,12.359L13.929,12.31L13.875,12.411L13.743,12.37L13.69,12.504L13.813,12.556C13.846,12.524 13.842,12.476 13.88,12.451Z" id="path_70"/><path fill="#231f20ff" d="M13.495,12.814C13.552,12.794 13.565,12.714 13.565,12.681C13.557,12.709 13.532,12.738 13.503,12.745C13.45,12.664 13.504,12.559 13.528,12.479C13.488,12.567 13.441,12.656 13.45,12.769C13.454,12.79 13.466,12.818 13.495,12.814Z" id="path_71"/><path fill="#231f20ff" d="M21.162,12.636C21.191,12.568 21.084,12.539 21.042,12.498L20.98,12.616L21.087,12.697C21.129,12.729 21.137,12.656 21.162,12.636Z" id="path_72"/><path fill="#231f20ff" d="M17.714,12.672L17.71,12.623L17.644,12.704C17.393,12.646 17.314,12.957 17.127,13.054C17.227,13.038 17.285,12.933 17.359,12.869C17.438,12.728 17.598,12.837 17.685,12.724C17.714,12.745 17.768,12.737 17.788,12.705C17.797,12.672 17.822,12.616 17.789,12.587C17.776,12.607 17.76,12.635 17.776,12.66C17.763,12.68 17.735,12.668 17.714,12.672Z" id="path_73"/><path fill="#231f20ff" d="M17.948,12.89C17.948,12.914 17.972,12.93 17.993,12.93C18.042,12.914 18.059,12.846 18.059,12.809C18.051,12.833 18.026,12.862 17.997,12.862C17.931,12.784 18.01,12.688 18.018,12.599C17.977,12.688 17.923,12.785 17.948,12.89Z" id="path_74"/><path fill="#231f20ff" d="M22.018,13.07C22.109,13.098 22.225,13.094 22.295,13.03C22.204,13.03 22.085,13.061 22.015,13.001C22.003,12.88 22.193,12.844 22.205,12.734C22.156,12.755 22.089,12.819 22.04,12.742L22.052,12.714C22.065,12.678 22.11,12.69 22.114,12.722C22.127,12.702 22.143,12.69 22.147,12.67C22.147,12.646 22.118,12.634 22.098,12.637C22.052,12.67 21.991,12.718 21.99,12.779C22.003,12.807 22.023,12.823 22.052,12.844L21.998,12.928C21.982,12.969 21.965,13.042 22.018,13.07Z" id="path_75"/><path fill="#231f20ff" d="M18.278,12.993L18.939,12.704L18.943,12.663L18.295,12.932L18.278,12.993Z" id="path_76"/><path fill="#231f20ff" d="M20.555,12.816L20.423,12.735L20.369,12.852L20.501,12.937L20.555,12.856C20.596,12.884 20.637,12.917 20.678,12.946L20.719,12.881C20.778,12.792 20.646,12.784 20.609,12.735L20.555,12.816Z" id="path_77"/><path fill="#231f20ff" d="M16.43,13.202C16.517,13.194 16.619,13.142 16.653,13.086C16.566,13.113 16.475,13.178 16.376,13.125C16.381,12.992 16.57,12.94 16.566,12.807L16.508,12.871C16.479,12.895 16.438,12.895 16.41,12.871L16.418,12.83C16.435,12.807 16.468,12.799 16.484,12.822L16.509,12.762L16.497,12.741C16.435,12.765 16.369,12.838 16.36,12.911C16.365,12.947 16.393,12.952 16.417,12.968C16.376,13.024 16.356,13.08 16.347,13.149C16.351,13.186 16.388,13.214 16.43,13.202Z" id="path_78"/><path fill="#231f20ff" d="M16.884,13.045C16.888,13.069 16.901,13.106 16.937,13.097C16.987,13.082 16.987,13.021 17.004,12.976L16.95,13.033C16.868,12.968 16.951,12.847 16.955,12.77C16.922,12.859 16.872,12.94 16.884,13.045Z" id="path_79"/><path fill="#231f20ff" d="M22.579,13.087C22.583,13.111 22.608,13.136 22.636,13.136C22.686,13.12 22.695,13.047 22.691,13.031C22.678,13.047 22.662,13.075 22.637,13.071C22.555,12.998 22.642,12.893 22.65,12.808C22.596,12.889 22.563,12.986 22.579,13.087Z" id="path_80"/><path fill="#231f20ff" d="M23.351,13.194C23.425,13.175 23.491,13.098 23.491,13.021C23.491,12.984 23.454,12.96 23.417,12.968C23.388,12.984 23.384,13.016 23.384,13.036L23.396,13.033C23.416,13.02 23.437,13.033 23.449,13.049C23.454,13.114 23.388,13.154 23.351,13.194Z" id="path_81"/><path fill="#231f20ff" d="M24.282,13.448C24.29,13.476 24.319,13.496 24.347,13.496C24.38,13.476 24.393,13.435 24.393,13.395L24.339,13.435C24.265,13.358 24.332,13.258 24.352,13.177C24.295,13.25 24.27,13.351 24.282,13.448Z" id="path_82"/><path fill="#231f20ff" d="M25.399,13.426H25.412C25.47,13.401 25.548,13.337 25.54,13.264C25.54,13.224 25.499,13.207 25.462,13.207C25.441,13.22 25.433,13.244 25.429,13.272C25.454,13.26 25.482,13.264 25.499,13.288C25.511,13.353 25.428,13.385 25.399,13.426Z" id="path_83"/><path fill="#231f20ff" d="M14.351,13.338C14.339,13.391 14.297,13.33 14.269,13.33C14.175,13.261 14.182,13.407 14.149,13.447L14.281,13.5L14.335,13.399L14.458,13.448C14.479,13.404 14.52,13.363 14.512,13.315L14.388,13.262L14.351,13.338Z" id="path_84"/><path fill="#231f20ff" d="M24.929,13.619L24.966,13.607C25.024,13.571 25.086,13.51 25.069,13.434C25.062,13.405 25.032,13.393 25.008,13.393C24.971,13.397 24.966,13.437 24.971,13.461L24.975,13.457C25,13.453 25.02,13.458 25.036,13.478C25.036,13.542 24.962,13.575 24.929,13.619Z" id="path_85"/><path fill="#231f20ff" d="M13.942,13.661C13.946,13.689 13.962,13.721 14,13.709C14.045,13.673 14.053,13.624 14.062,13.576C14.041,13.6 14.029,13.645 13.991,13.636C13.942,13.547 14.009,13.463 14.021,13.378C13.971,13.462 13.942,13.555 13.942,13.661Z" id="path_86"/><path fill="#231f20ff" d="M25.765,13.673H25.781C25.798,13.669 25.823,13.677 25.835,13.698C25.839,13.754 25.769,13.79 25.728,13.831C25.748,13.835 25.757,13.823 25.769,13.819C25.827,13.783 25.889,13.726 25.872,13.649C25.859,13.625 25.831,13.613 25.806,13.608C25.773,13.612 25.765,13.645 25.765,13.673Z" id="path_87"/><path fill="#020303ff" d="M26.718,14.503L26.719,14.505L26.708,14.508L26.718,14.503Z" id="path_88"/><path fill="#04814fff" d="M21.053,8.772C21.637,8.685 22.031,9.407 22.031,9.407C21.954,8.25 20.726,8.421 20.726,8.421C21.038,8.176 21.668,8.487 21.668,8.487C21.21,7.843 20.553,8.028 20.553,8.028C20.632,7.879 21.103,7.911 21.103,7.911C20.675,7.49 20.175,7.913 20.175,7.913C20.199,7.681 20.001,7.317 20.001,7.317C20.001,7.317 19.803,7.681 19.827,7.913C19.827,7.913 19.327,7.49 18.899,7.911C18.899,7.911 19.37,7.879 19.449,8.028C19.449,8.028 18.792,7.843 18.334,8.487C18.334,8.487 18.964,8.176 19.275,8.421C19.275,8.421 18.048,8.25 17.972,9.407C17.972,9.407 18.365,8.685 18.949,8.772C18.949,8.772 17.699,9.126 18.297,10.239C18.297,10.239 18.265,9.317 18.985,9.107C18.985,9.107 18.038,9.864 18.891,10.502C18.891,10.502 18.715,9.785 19.209,9.458C19.209,9.458 18.859,10.262 19.541,10.941C19.541,10.941 19.401,10.252 19.84,9.873V11.068C19.835,11.24 19.822,11.443 19.814,11.592C19.799,11.863 19.785,12.062 19.785,12.07C19.748,12.238 19.748,12.351 19.748,12.352V12.353V12.354L19.751,12.434L19.757,12.534L19.736,12.589L19.731,12.603C19.708,12.645 19.698,12.682 19.698,12.714C19.698,12.768 19.723,12.802 19.738,12.818L19.693,13.667C19.57,13.796 19.465,14.028 19.464,14.029L19.447,14.067H19.488H19.913H20.087H20.513H20.555L20.537,14.029C20.536,14.028 20.43,13.796 20.308,13.667L20.264,12.818C20.278,12.802 20.302,12.768 20.302,12.714C20.302,12.682 20.293,12.645 20.27,12.603L20.259,12.573L20.244,12.534L20.25,12.424L20.253,12.354V12.353V12.352C20.253,12.351 20.253,12.238 20.216,12.07C20.216,12.064 20.201,11.865 20.187,11.592C20.179,11.443 20.166,11.239 20.16,11.067V9.873C20.6,10.251 20.46,10.94 20.46,10.94C21.142,10.262 20.792,9.457 20.792,9.457C21.287,9.785 21.11,10.501 21.11,10.501C21.963,9.863 21.016,9.107 21.016,9.107C21.736,9.316 21.703,10.239 21.703,10.239C22.302,9.125 21.053,8.772 21.053,8.772Z" id="path_89"/><path fill="#00000000" d="M21.053,8.772C21.637,8.685 22.031,9.407 22.031,9.407C21.954,8.25 20.726,8.421 20.726,8.421C21.038,8.176 21.668,8.487 21.668,8.487C21.21,7.843 20.553,8.028 20.553,8.028C20.632,7.879 21.103,7.911 21.103,7.911C20.675,7.49 20.175,7.913 20.175,7.913C20.199,7.681 20.001,7.317 20.001,7.317C20.001,7.317 19.803,7.681 19.827,7.913C19.827,7.913 19.327,7.49 18.899,7.911C18.899,7.911 19.37,7.879 19.449,8.028C19.449,8.028 18.792,7.843 18.334,8.487C18.334,8.487 18.964,8.176 19.275,8.421C19.275,8.421 18.048,8.25 17.972,9.407C17.972,9.407 18.365,8.685 18.949,8.772C18.949,8.772 17.699,9.126 18.297,10.239C18.297,10.239 18.265,9.317 18.985,9.107C18.985,9.107 18.038,9.864 18.891,10.502C18.891,10.502 18.715,9.785 19.209,9.458C19.209,9.458 18.859,10.262 19.541,10.941C19.541,10.941 19.401,10.252 19.84,9.873V11.068C19.835,11.24 19.822,11.443 19.814,11.592C19.799,11.863 19.785,12.062 19.785,12.07C19.748,12.238 19.748,12.351 19.748,12.352V12.353V12.354L19.751,12.434L19.757,12.534L19.736,12.589L19.731,12.603C19.708,12.645 19.698,12.682 19.698,12.714C19.698,12.768 19.723,12.802 19.738,12.818L19.693,13.667C19.57,13.796 19.465,14.028 19.464,14.029L19.447,14.067H19.488H19.913H20.087H20.513H20.555L20.537,14.029C20.536,14.028 20.43,13.796 20.308,13.667L20.264,12.818C20.278,12.802 20.302,12.768 20.302,12.714C20.302,12.682 20.293,12.645 20.27,12.603L20.259,12.573L20.244,12.534L20.25,12.424L20.253,12.354V12.353V12.352C20.253,12.351 20.253,12.238 20.216,12.07C20.216,12.064 20.201,11.865 20.187,11.592C20.179,11.443 20.166,11.239 20.16,11.067V9.873C20.6,10.251 20.46,10.94 20.46,10.94C21.142,10.262 20.792,9.457 20.792,9.457C21.287,9.785 21.11,10.501 21.11,10.501C21.963,9.863 21.016,9.107 21.016,9.107C21.736,9.316 21.703,10.239 21.703,10.239C22.302,9.125 21.053,8.772 21.053,8.772Z" stroke="#231f20ff" stroke-width="0.1" id="path_90"/><path fill="#1c7a62ff" d="M22.848,14.004C22.663,14.037 22.478,14.077 22.296,14.127C22.087,14.183 21.882,14.253 21.682,14.335C21.459,14.428 21.243,14.537 21.036,14.66C20.806,14.797 20.586,14.952 20.374,15.118C20.142,15.3 19.921,15.493 19.706,15.694C19.592,15.798 19.481,15.905 19.369,16.011C19.288,16.091 19.206,16.172 19.122,16.248L19.07,16.293L19.055,16.306L19.063,16.324C19.086,16.381 19.138,16.471 19.247,16.49L19.266,16.494L19.275,16.477C19.275,16.477 19.283,16.463 19.299,16.44C19.315,16.418 19.338,16.388 19.367,16.358C19.424,16.298 19.505,16.241 19.597,16.241C19.615,16.241 19.634,16.244 19.654,16.249C19.771,16.278 19.842,16.382 19.842,16.493C19.842,16.588 19.79,16.691 19.661,16.759L19.655,16.762L19.632,16.769C19.611,16.775 19.58,16.78 19.541,16.78C19.416,16.78 19.202,16.726 18.935,16.429L18.92,16.412L18.9,16.425C18.881,16.438 18.861,16.451 18.843,16.463C18.728,16.534 18.612,16.602 18.494,16.669C18.336,16.759 18.201,16.795 18.091,16.795C17.871,16.794 17.754,16.655 17.754,16.51C17.754,16.484 17.757,16.459 17.765,16.433C17.809,16.288 17.906,16.258 17.995,16.256C18.056,16.256 18.112,16.275 18.127,16.282C18.147,16.292 18.172,16.313 18.191,16.33L18.223,16.363L18.229,16.369L18.237,16.371L18.286,16.383V16.383L18.305,16.386C18.353,16.385 18.474,16.358 18.739,16.122L18.748,16.114V16.102V16.098C18.748,16.041 18.733,15.969 18.673,15.916L18.659,15.903L18.642,15.912L18.622,15.922C18.608,15.929 18.589,15.937 18.565,15.946C18.518,15.963 18.455,15.979 18.391,15.979C18.323,15.979 18.255,15.961 18.201,15.904C18.153,15.854 18.131,15.793 18.131,15.731C18.132,15.599 18.234,15.467 18.429,15.465L18.463,15.467C18.583,15.476 18.653,15.556 18.707,15.662C18.76,15.769 18.79,15.897 18.827,15.989L18.842,16.025L18.87,15.998L18.913,15.955L18.914,15.955C21.008,13.644 23.413,13.919 23.47,13.92C23.415,13.926 23.359,13.929 23.304,13.936C23.152,13.955 23,13.977 22.848,14.004Z" id="path_91"/><path fill="#00000000" d="M22.848,14.004C22.663,14.037 22.478,14.077 22.296,14.127C22.087,14.183 21.882,14.253 21.682,14.335C21.459,14.428 21.243,14.537 21.036,14.66C20.806,14.797 20.586,14.952 20.374,15.118C20.142,15.3 19.921,15.493 19.706,15.694C19.592,15.798 19.481,15.905 19.369,16.011C19.288,16.091 19.206,16.172 19.122,16.248L19.07,16.293L19.055,16.306L19.063,16.324C19.086,16.381 19.138,16.471 19.247,16.49L19.266,16.494L19.275,16.477C19.275,16.477 19.283,16.463 19.299,16.44C19.315,16.418 19.338,16.388 19.367,16.358C19.424,16.298 19.505,16.241 19.597,16.241C19.615,16.241 19.634,16.244 19.654,16.249C19.771,16.278 19.842,16.382 19.842,16.493C19.842,16.588 19.79,16.691 19.661,16.759L19.655,16.762L19.632,16.769C19.611,16.775 19.58,16.78 19.541,16.78C19.416,16.78 19.202,16.726 18.935,16.429L18.92,16.412L18.9,16.425C18.881,16.438 18.861,16.451 18.843,16.463C18.728,16.534 18.612,16.602 18.494,16.669C18.336,16.759 18.201,16.795 18.091,16.795C17.871,16.794 17.754,16.655 17.754,16.51C17.754,16.484 17.757,16.459 17.765,16.433C17.809,16.288 17.906,16.258 17.995,16.256C18.056,16.256 18.112,16.275 18.127,16.282C18.147,16.292 18.172,16.313 18.191,16.33L18.223,16.363L18.229,16.369L18.237,16.371L18.286,16.383V16.383L18.305,16.386C18.353,16.385 18.474,16.358 18.739,16.122L18.748,16.114V16.102V16.098C18.748,16.041 18.733,15.969 18.673,15.916L18.659,15.903L18.642,15.912L18.622,15.922C18.608,15.929 18.589,15.937 18.565,15.946C18.518,15.963 18.455,15.979 18.391,15.979C18.323,15.979 18.255,15.961 18.201,15.904C18.153,15.854 18.131,15.793 18.131,15.731C18.132,15.599 18.234,15.467 18.429,15.465L18.463,15.467C18.583,15.476 18.653,15.556 18.707,15.662C18.76,15.769 18.79,15.897 18.827,15.989L18.842,16.025L18.87,15.998L18.913,15.955L18.914,15.955C21.008,13.644 23.413,13.919 23.47,13.92C23.415,13.926 23.359,13.929 23.304,13.936C23.152,13.955 23,13.977 22.848,14.004Z" stroke="#020303ff" stroke-width="0.1" stroke-linejoin="round" id="path_92"/><path fill="#1c7a62ff" d="M17.151,14.004C17.337,14.037 17.521,14.077 17.703,14.127C17.912,14.183 18.117,14.253 18.317,14.335C18.54,14.428 18.756,14.537 18.964,14.66C19.194,14.797 19.414,14.952 19.625,15.118C19.857,15.3 20.078,15.493 20.294,15.694C20.407,15.798 20.519,15.905 20.63,16.011C20.712,16.091 20.794,16.172 20.878,16.248L20.929,16.293L20.944,16.306L20.937,16.324C20.914,16.381 20.861,16.471 20.752,16.49L20.734,16.494L20.724,16.477C20.724,16.477 20.716,16.463 20.701,16.44C20.685,16.418 20.662,16.388 20.633,16.358C20.576,16.298 20.495,16.241 20.403,16.241C20.385,16.241 20.365,16.244 20.346,16.249C20.229,16.278 20.158,16.382 20.158,16.493C20.158,16.588 20.21,16.691 20.339,16.759L20.345,16.762L20.368,16.769C20.388,16.775 20.419,16.78 20.459,16.78C20.583,16.78 20.797,16.726 21.064,16.429L21.08,16.412L21.099,16.425C21.119,16.438 21.138,16.451 21.157,16.463C21.271,16.534 21.388,16.602 21.505,16.669C21.663,16.759 21.799,16.795 21.908,16.795C22.128,16.794 22.246,16.655 22.246,16.51C22.246,16.484 22.242,16.459 22.235,16.433C22.19,16.288 22.093,16.258 22.004,16.256C21.943,16.256 21.888,16.275 21.873,16.282C21.853,16.292 21.827,16.313 21.809,16.33L21.777,16.363L21.771,16.369L21.763,16.371L21.714,16.383V16.383L21.694,16.386C21.647,16.385 21.526,16.358 21.261,16.122L21.252,16.114V16.102V16.098C21.252,16.041 21.267,15.969 21.327,15.916L21.341,15.903L21.358,15.912L21.378,15.922C21.392,15.929 21.411,15.937 21.434,15.946C21.482,15.963 21.545,15.979 21.609,15.979C21.677,15.979 21.745,15.961 21.799,15.904C21.846,15.854 21.869,15.793 21.869,15.731C21.868,15.599 21.766,15.467 21.57,15.465L21.537,15.467C21.417,15.476 21.347,15.556 21.293,15.662C21.24,15.769 21.21,15.897 21.173,15.989L21.158,16.025L21.13,15.998L21.087,15.955L21.087,15.955C18.992,13.644 16.587,13.919 16.53,13.92C16.586,13.926 16.642,13.929 16.696,13.936C16.848,13.955 17,13.977 17.151,14.004Z" id="path_93"/><path fill="#00000000" d="M17.151,14.004C17.337,14.037 17.521,14.077 17.703,14.127C17.912,14.183 18.117,14.253 18.317,14.335C18.54,14.428 18.756,14.537 18.964,14.66C19.194,14.797 19.414,14.952 19.625,15.118C19.857,15.3 20.078,15.493 20.294,15.694C20.407,15.798 20.519,15.905 20.63,16.011C20.712,16.091 20.794,16.172 20.878,16.248L20.929,16.293L20.944,16.306L20.937,16.324C20.914,16.381 20.861,16.471 20.752,16.49L20.734,16.494L20.724,16.477C20.724,16.477 20.716,16.463 20.701,16.44C20.685,16.418 20.662,16.388 20.633,16.358C20.576,16.298 20.495,16.241 20.403,16.241C20.385,16.241 20.365,16.244 20.346,16.249C20.229,16.278 20.158,16.382 20.158,16.493C20.158,16.588 20.21,16.691 20.339,16.759L20.345,16.762L20.368,16.769C20.388,16.775 20.419,16.78 20.459,16.78C20.583,16.78 20.797,16.726 21.064,16.429L21.08,16.412L21.099,16.425C21.119,16.438 21.138,16.451 21.157,16.463C21.271,16.534 21.388,16.602 21.505,16.669C21.663,16.759 21.799,16.795 21.908,16.795C22.128,16.794 22.246,16.655 22.246,16.51C22.246,16.484 22.242,16.459 22.235,16.433C22.19,16.288 22.093,16.258 22.004,16.256C21.943,16.256 21.888,16.275 21.873,16.282C21.853,16.292 21.827,16.313 21.809,16.33L21.777,16.363L21.771,16.369L21.763,16.371L21.714,16.383V16.383L21.694,16.386C21.647,16.385 21.526,16.358 21.261,16.122L21.252,16.114V16.102V16.098C21.252,16.041 21.267,15.969 21.327,15.916L21.341,15.903L21.358,15.912L21.378,15.922C21.392,15.929 21.411,15.937 21.434,15.946C21.482,15.963 21.545,15.979 21.609,15.979C21.677,15.979 21.745,15.961 21.799,15.904C21.846,15.854 21.869,15.793 21.869,15.731C21.868,15.599 21.766,15.467 21.57,15.465L21.537,15.467C21.417,15.476 21.347,15.556 21.293,15.662C21.24,15.769 21.21,15.897 21.173,15.989L21.158,16.025L21.13,15.998L21.087,15.955L21.087,15.955C18.992,13.644 16.587,13.919 16.53,13.92C16.586,13.926 16.642,13.929 16.696,13.936C16.848,13.955 17,13.977 17.151,14.004Z" stroke="#020303ff" stroke-width="0.1" stroke-linejoin="round" id="path_94"/><path fill="#04814fff" d="M25.96,20.158C25.887,20.302 25.683,20.658 25.322,20.996C24.91,21.382 24.296,21.745 23.432,21.746C22.511,21.746 21.904,21.333 21.524,20.92C21.334,20.713 21.201,20.506 21.116,20.351C21.074,20.273 21.043,20.208 21.023,20.164L21.021,20.158H25.96Z" id="path_95"/><path fill="#00000000" d="M25.96,20.158C25.887,20.302 25.683,20.658 25.322,20.996C24.91,21.382 24.296,21.745 23.432,21.746C22.511,21.746 21.904,21.333 21.524,20.92C21.334,20.713 21.201,20.506 21.116,20.351C21.074,20.273 21.043,20.208 21.023,20.164L21.021,20.158H25.96Z" stroke="#020303ff" stroke-width="0.1" stroke-linejoin="round" id="path_96"/><path fill="#00000000" d="M23.492,13.926L21.017,20.09H25.966L23.492,13.926Z" stroke="#020303ff" stroke-width="0.1" stroke-linejoin="round" id="path_97"/><path fill="#04814fff" d="M19.001,20.158C18.927,20.302 18.723,20.658 18.363,20.996C17.95,21.382 17.336,21.745 16.472,21.746C15.551,21.746 14.945,21.333 14.565,20.92C14.375,20.713 14.242,20.506 14.157,20.351C14.114,20.273 14.083,20.208 14.064,20.164L14.061,20.158H19.001Z" id="path_98"/><path fill="#00000000" d="M19.001,20.158C18.927,20.302 18.723,20.658 18.363,20.996C17.95,21.382 17.336,21.745 16.472,21.746C15.551,21.746 14.945,21.333 14.565,20.92C14.375,20.713 14.242,20.506 14.157,20.351C14.114,20.273 14.083,20.208 14.064,20.164L14.061,20.158H19.001Z" stroke="#020303ff" stroke-width="0.1" stroke-linejoin="round" id="path_99"/><path fill="#00000000" d="M16.531,13.926L14.056,20.09H19.006L16.531,13.926Z" stroke="#020303ff" stroke-width="0.1" stroke-linejoin="round" id="path_100"/></svg>