<svg id="vector" xmlns="http://www.w3.org/2000/svg" width="64.0d" height="64.0d" viewBox="0 0 64.0 64.0"><defs><clipPath id="clip_path_0"><path d="M13,10h38v44h-38z"/></clipPath></defs><path fill="#ffffffff" d="M32,32m-31.75,0a31.75,31.75 0,1 1,63.5 0a31.75,31.75 0,1 1,-63.5 0" stroke="#e6e6e6ff" stroke-width="0.5" id="path_0"/><g id="g_0"><g clip-path="url(#clip_path_0)"><path fill="@drawable/$partner_ehsan__0" d="M51,10H12.858V30.14H51V10Z"/></g><path fill="#074367ff" d="M48.84,46.061C48.841,46.292 48.902,46.518 49.016,46.718H48.526V47.522H51V46.718H49.822C49.73,46.571 49.679,46.402 49.674,46.228C49.674,45.875 49.925,45.738 50.278,45.738C50.444,45.737 50.609,45.757 50.769,45.797L50.917,45.023C50.671,44.968 50.421,44.938 50.17,44.934C50.007,44.91 49.84,44.921 49.681,44.966C49.522,45.011 49.375,45.09 49.249,45.196C49.123,45.303 49.021,45.436 48.95,45.585C48.88,45.734 48.842,45.896 48.84,46.061ZM19.314,38.75V42.288C19.314,44.131 18.42,44.738 16.987,44.738C15.553,44.738 14.655,43.993 14.655,42.543C14.666,41.868 14.811,41.202 15.082,40.583L13.569,40.098C13.16,40.942 12.935,41.865 12.912,42.803C12.912,44.586 14.159,46.355 16.942,46.355C19.343,46.355 21.042,45.214 21.042,42.729V38.75H19.314ZM16.181,36.883C16.177,37.007 16.199,37.13 16.244,37.245C16.289,37.36 16.358,37.465 16.445,37.552C16.533,37.64 16.637,37.709 16.752,37.755C16.867,37.801 16.99,37.822 17.114,37.819C17.237,37.823 17.359,37.801 17.473,37.755C17.587,37.708 17.69,37.639 17.775,37.551C17.861,37.463 17.927,37.358 17.969,37.243C18.012,37.128 18.03,37.006 18.022,36.883C18.03,36.762 18.011,36.641 17.968,36.527C17.925,36.414 17.858,36.311 17.772,36.225C17.687,36.139 17.584,36.072 17.47,36.028C17.357,35.985 17.236,35.965 17.114,35.972C16.991,35.965 16.867,35.984 16.751,36.027C16.636,36.071 16.531,36.139 16.443,36.225C16.355,36.312 16.286,36.416 16.241,36.531C16.196,36.646 16.176,36.77 16.181,36.893M22.976,34.208V41.068C22.976,42.91 23.826,43.802 26.226,43.802H27.64C28.799,43.802 29.486,43.523 29.899,43.116C30.39,43.655 31.141,43.802 31.975,43.802C32.749,43.86 33.514,43.616 34.111,43.121C34.658,43.586 35.357,43.832 36.075,43.812C36.477,43.835 36.88,43.77 37.254,43.621C37.628,43.472 37.965,43.243 38.24,42.95C38.628,43.489 39.3,43.812 40.371,43.812H46.783C47.603,40.171 46.709,37.54 43.105,37.54C42.423,37.542 41.744,37.655 41.097,37.873L41.48,39.343C41.96,39.212 42.456,39.143 42.953,39.137C45.241,39.137 45.487,40.994 45.271,42.269H40.361C39.379,42.269 38.79,41.813 38.79,40.799V37.687H37.057V40.754C37.057,41.779 36.826,42.249 35.859,42.249C35.083,42.249 34.686,41.926 34.686,41.269V38.75H32.972V40.799C32.972,41.867 32.668,42.269 31.754,42.269C31.067,42.269 30.615,42.004 30.615,41.289V38.75H28.887V40.799C28.887,41.867 28.563,42.269 27.64,42.269H26.226C25.156,42.269 24.704,41.886 24.704,41.039V34.198L22.976,34.208ZM48.904,43.812H50.632V34.198H48.904V43.812Z"/><path fill="#074367ff" d="M13,52.27C13.002,52.104 13.03,51.938 13.083,51.78L13.344,51.849C13.31,51.967 13.29,52.089 13.285,52.211C13.285,52.584 13.569,52.736 14.183,52.736C14.797,52.736 15.067,52.594 15.067,52.398C15.067,52.084 14.178,52.045 14.178,51.501C14.178,51.173 14.453,50.932 14.91,50.932C15.039,50.935 15.168,50.953 15.293,50.986L15.244,51.251C15.132,51.218 15.016,51.202 14.9,51.202C14.625,51.202 14.468,51.315 14.468,51.486C14.468,51.873 15.352,51.844 15.352,52.368C15.348,52.467 15.316,52.562 15.261,52.644C15.205,52.725 15.128,52.789 15.038,52.829C14.772,52.957 14.478,53.018 14.183,53.005C13.398,53.03 13,52.775 13,52.27ZM13.741,53.515C13.741,53.492 13.745,53.468 13.753,53.446C13.762,53.425 13.775,53.405 13.792,53.389C13.808,53.372 13.828,53.359 13.85,53.35C13.871,53.342 13.895,53.338 13.918,53.338C13.965,53.338 14.01,53.357 14.043,53.39C14.076,53.423 14.095,53.468 14.095,53.515C14.095,53.562 14.076,53.606 14.043,53.64C14.01,53.673 13.965,53.691 13.918,53.691C13.895,53.692 13.871,53.688 13.85,53.679C13.828,53.671 13.808,53.658 13.792,53.641C13.775,53.625 13.762,53.605 13.753,53.583C13.745,53.561 13.741,53.538 13.741,53.515ZM14.232,53.515C14.232,53.48 14.243,53.446 14.262,53.417C14.281,53.388 14.309,53.365 14.341,53.352C14.374,53.339 14.409,53.335 14.443,53.342C14.478,53.349 14.509,53.365 14.534,53.39C14.559,53.415 14.576,53.446 14.582,53.48C14.589,53.515 14.586,53.55 14.572,53.582C14.559,53.615 14.536,53.642 14.507,53.661C14.478,53.681 14.444,53.691 14.409,53.691C14.386,53.692 14.362,53.688 14.341,53.679C14.319,53.671 14.299,53.658 14.283,53.641C14.266,53.625 14.253,53.605 14.244,53.583C14.236,53.561 14.232,53.538 14.232,53.515Z"/><path fill="#074367ff" d="M16.825,52.182C16.869,52.182 16.893,52.226 16.893,52.314C16.893,52.403 16.893,52.447 16.825,52.447H16.334C16.308,52.618 16.223,52.775 16.093,52.89C15.962,53.005 15.795,53.07 15.622,53.074L15.563,52.814C15.931,52.76 16.054,52.603 16.054,52.231V50.996H16.334V52.182H16.825Z"/><path fill="#074367ff" d="M18.062,52.314C18.062,52.403 18.037,52.447 17.988,52.447C17.879,52.46 17.769,52.444 17.669,52.4C17.569,52.356 17.482,52.286 17.419,52.197C17.351,52.284 17.263,52.353 17.162,52.397C17.06,52.44 16.949,52.458 16.839,52.447V52.182C17.129,52.182 17.237,52.045 17.237,51.692V50.996H17.517V51.775C17.517,52.045 17.669,52.182 17.978,52.182C18.027,52.182 18.052,52.226 18.052,52.314M17.266,52.932C17.271,52.957 17.269,52.983 17.263,53.008C17.256,53.032 17.244,53.055 17.227,53.075C17.211,53.095 17.19,53.11 17.167,53.121C17.143,53.132 17.118,53.137 17.092,53.137C17.066,53.137 17.041,53.132 17.018,53.121C16.994,53.11 16.974,53.095 16.957,53.075C16.941,53.055 16.928,53.032 16.922,53.008C16.915,52.983 16.914,52.957 16.918,52.932C16.914,52.906 16.915,52.881 16.922,52.856C16.928,52.831 16.941,52.808 16.957,52.789C16.974,52.769 16.994,52.753 17.018,52.742C17.041,52.732 17.066,52.726 17.092,52.726C17.118,52.726 17.143,52.732 17.167,52.742C17.19,52.753 17.211,52.769 17.227,52.789C17.244,52.808 17.256,52.831 17.263,52.856C17.269,52.881 17.271,52.906 17.266,52.932ZM17.757,52.932C17.759,52.954 17.755,52.977 17.748,52.999C17.74,53.02 17.728,53.039 17.712,53.056C17.697,53.072 17.678,53.086 17.657,53.095C17.636,53.104 17.613,53.108 17.59,53.108C17.567,53.108 17.545,53.104 17.524,53.095C17.502,53.086 17.483,53.073 17.467,53.056C17.451,53.04 17.439,53.02 17.43,52.999C17.422,52.978 17.418,52.955 17.419,52.932C17.418,52.908 17.422,52.884 17.431,52.862C17.44,52.84 17.454,52.82 17.471,52.804C17.488,52.787 17.508,52.774 17.53,52.766C17.553,52.757 17.576,52.754 17.6,52.755C17.623,52.755 17.646,52.76 17.667,52.769C17.687,52.778 17.706,52.791 17.722,52.807C17.738,52.824 17.75,52.844 17.757,52.865C17.765,52.886 17.768,52.909 17.767,52.932"/><path fill="#074367ff" d="M19.937,52.182C19.981,52.182 20.006,52.226 20.006,52.314C20.006,52.402 20.006,52.446 19.937,52.446H17.973V52.182H19.215C19.279,51.873 19.26,51.202 18.543,51.202C18.413,51.206 18.284,51.228 18.16,51.266L18.096,51.016C18.254,50.96 18.42,50.932 18.587,50.932C18.733,50.919 18.879,50.943 19.013,51.001C19.147,51.059 19.264,51.15 19.353,51.266C19.507,51.536 19.558,51.853 19.495,52.157L19.937,52.182ZM18.425,50.369C18.421,50.343 18.422,50.318 18.429,50.293C18.436,50.268 18.448,50.245 18.464,50.226C18.481,50.206 18.502,50.19 18.525,50.18C18.548,50.169 18.574,50.163 18.599,50.163C18.625,50.163 18.65,50.169 18.674,50.18C18.697,50.19 18.718,50.206 18.734,50.226C18.751,50.245 18.763,50.268 18.77,50.293C18.777,50.318 18.778,50.343 18.774,50.369C18.775,50.415 18.759,50.46 18.729,50.496C18.631,50.599 18.405,50.526 18.425,50.369Z"/><path fill="#074367ff" d="M19.937,52.182C19.996,52.189 20.055,52.184 20.112,52.167C20.168,52.15 20.221,52.122 20.266,52.084C20.328,51.968 20.355,51.837 20.345,51.707V49.747H20.62V51.819C20.62,52.226 20.394,52.437 19.937,52.437V52.182Z"/><path fill="#074367ff" d="M21.435,49.756H21.155V52.447H21.435V49.756Z"/><path fill="#074367ff" d="M25.161,52.182C25.205,52.182 25.23,52.226 25.23,52.314C25.23,52.403 25.205,52.447 25.161,52.447H24.729C24.66,52.632 24.531,52.789 24.364,52.895C24.196,53 23.998,53.048 23.801,53.03C23.552,53.042 23.307,52.962 23.114,52.804C23.021,52.732 22.947,52.64 22.896,52.535C22.845,52.429 22.819,52.314 22.819,52.197C22.825,51.978 22.877,51.763 22.971,51.565L23.217,51.653C23.155,51.82 23.117,51.995 23.104,52.172C23.104,52.564 23.33,52.76 23.781,52.76C24.233,52.76 24.464,52.54 24.474,52.099V49.756H24.783V52.207L25.161,52.182Z"/><path fill="#074367ff" d="M27.238,52.182C27.282,52.182 27.306,52.226 27.306,52.314C27.306,52.403 27.282,52.447 27.238,52.447H26.693C26.517,52.579 26.299,52.645 26.079,52.633H25.868C25.796,52.58 25.732,52.517 25.677,52.447H25.161V52.182H25.524C25.485,52.079 25.465,51.969 25.465,51.859C25.462,51.758 25.48,51.657 25.518,51.563C25.556,51.47 25.614,51.385 25.686,51.315C25.763,51.244 25.853,51.19 25.95,51.155C26.048,51.119 26.152,51.104 26.256,51.109C26.355,51.1 26.456,51.116 26.548,51.155C26.64,51.193 26.722,51.253 26.786,51.329C26.901,51.483 26.96,51.672 26.953,51.863C26.955,51.972 26.937,52.08 26.899,52.182H27.238ZM26.158,52.368C26.228,52.373 26.299,52.362 26.364,52.337C26.43,52.312 26.49,52.273 26.539,52.222C26.588,52.172 26.626,52.112 26.65,52.046C26.674,51.98 26.684,51.909 26.678,51.839C26.685,51.778 26.679,51.717 26.66,51.658C26.641,51.6 26.609,51.547 26.567,51.503C26.524,51.458 26.473,51.424 26.416,51.401C26.359,51.379 26.297,51.369 26.236,51.374C26.17,51.367 26.103,51.375 26.04,51.397C25.978,51.419 25.921,51.455 25.874,51.502C25.827,51.549 25.791,51.605 25.768,51.668C25.746,51.731 25.738,51.798 25.745,51.863C25.747,52.048 25.821,52.223 25.951,52.354L26.158,52.368Z"/><path fill="#074367ff" d="M29.315,52.182C29.359,52.182 29.388,52.226 29.388,52.314C29.388,52.403 29.359,52.447 29.315,52.447H29.079C28.787,52.453 28.496,52.409 28.22,52.314C27.942,52.412 27.649,52.457 27.356,52.447H27.238V52.182H27.41C27.615,52.188 27.82,52.165 28.018,52.113C27.92,51.986 27.817,51.864 27.665,51.692L27.488,51.496C27.498,51.394 27.519,51.294 27.552,51.197C27.779,51.047 28.045,50.967 28.318,50.967C28.74,50.967 29.01,51.163 29.01,51.496C29.001,51.63 28.957,51.76 28.882,51.871C28.807,51.983 28.704,52.073 28.583,52.133C28.744,52.167 28.909,52.183 29.074,52.182H29.315ZM27.729,51.393C27.941,51.576 28.134,51.782 28.303,52.006C28.573,51.873 28.735,51.707 28.735,51.516C28.735,51.325 28.568,51.217 28.269,51.217C28.081,51.218 27.897,51.267 27.734,51.359L27.729,51.393Z"/><path fill="#074367ff" d="M30.532,52.314C30.532,52.403 30.507,52.447 30.463,52.447C30.357,52.459 30.249,52.443 30.15,52.402C30.052,52.361 29.965,52.295 29.899,52.211C29.83,52.297 29.74,52.364 29.637,52.405C29.535,52.446 29.424,52.461 29.315,52.447V52.182C29.373,52.19 29.433,52.185 29.489,52.168C29.546,52.151 29.598,52.123 29.643,52.084C29.707,51.969 29.735,51.838 29.722,51.707V49.747H30.002V51.765C30.002,52.035 30.154,52.172 30.463,52.172C30.507,52.172 30.532,52.216 30.532,52.305"/><path fill="#074367ff" d="M30.463,52.182C30.522,52.189 30.581,52.184 30.638,52.167C30.694,52.15 30.747,52.122 30.792,52.084C30.856,51.969 30.884,51.838 30.871,51.707V49.747H31.165V51.819C31.165,52.226 30.94,52.437 30.483,52.437L30.463,52.182Z"/><path fill="#074367ff" d="M34.455,52.314C34.455,52.403 34.43,52.447 34.386,52.447C34.062,52.447 33.861,52.383 33.787,52.26C33.634,52.333 33.466,52.37 33.296,52.368C32.844,52.368 32.55,52.133 32.55,51.731C32.55,51.329 32.869,50.996 33.399,50.996H33.998V51.824C33.998,52.109 34.096,52.182 34.386,52.182C34.43,52.182 34.455,52.226 34.455,52.314ZM33.708,51.261H33.345C33.041,51.261 32.854,51.418 32.854,51.702C32.854,51.986 33.016,52.099 33.345,52.099C33.48,52.104 33.614,52.074 33.733,52.011L33.708,51.261ZM32.967,50.408C32.967,50.373 32.978,50.339 32.997,50.31C33.017,50.28 33.045,50.258 33.077,50.245C33.11,50.231 33.146,50.228 33.18,50.236C33.215,50.243 33.246,50.26 33.271,50.285C33.295,50.31 33.312,50.342 33.318,50.377C33.324,50.411 33.32,50.447 33.306,50.479C33.292,50.511 33.268,50.538 33.238,50.557C33.209,50.576 33.174,50.585 33.139,50.584C33.116,50.585 33.093,50.581 33.071,50.572C33.05,50.564 33.03,50.551 33.014,50.534C32.998,50.518 32.985,50.498 32.977,50.476C32.969,50.454 32.966,50.431 32.967,50.408ZM33.458,50.408C33.458,50.373 33.468,50.339 33.488,50.31C33.507,50.281 33.535,50.258 33.567,50.245C33.599,50.232 33.635,50.228 33.669,50.235C33.704,50.242 33.735,50.259 33.76,50.283C33.785,50.308 33.801,50.34 33.808,50.374C33.815,50.408 33.812,50.443 33.798,50.476C33.785,50.508 33.762,50.535 33.733,50.555C33.704,50.574 33.67,50.584 33.635,50.584C33.611,50.585 33.588,50.581 33.566,50.572C33.545,50.564 33.525,50.551 33.508,50.534C33.492,50.518 33.479,50.498 33.47,50.476C33.462,50.455 33.458,50.431 33.458,50.408Z"/><path fill="#074367ff" d="M35.623,52.314C35.623,52.403 35.599,52.447 35.55,52.447C35.441,52.459 35.331,52.443 35.231,52.399C35.131,52.355 35.044,52.285 34.98,52.197C34.914,52.285 34.827,52.354 34.726,52.397C34.625,52.441 34.515,52.458 34.406,52.447V52.182C34.695,52.182 34.803,52.045 34.803,51.692V50.996H35.093V51.775C35.093,52.045 35.245,52.182 35.555,52.182C35.604,52.182 35.628,52.226 35.628,52.314M34.833,52.932C34.833,52.955 34.829,52.978 34.821,53C34.812,53.022 34.799,53.042 34.783,53.058C34.766,53.075 34.746,53.088 34.724,53.096C34.703,53.105 34.68,53.109 34.656,53.108C34.633,53.108 34.61,53.104 34.589,53.095C34.568,53.086 34.549,53.073 34.533,53.056C34.517,53.04 34.504,53.02 34.496,52.999C34.488,52.978 34.484,52.955 34.484,52.932C34.48,52.906 34.481,52.881 34.488,52.856C34.495,52.831 34.507,52.808 34.524,52.789C34.54,52.769 34.561,52.753 34.584,52.742C34.607,52.732 34.633,52.726 34.659,52.726C34.684,52.726 34.71,52.732 34.733,52.742C34.756,52.753 34.777,52.769 34.793,52.789C34.81,52.808 34.822,52.831 34.829,52.856C34.836,52.881 34.837,52.906 34.833,52.932ZM35.324,52.932C35.328,52.957 35.327,52.983 35.32,53.008C35.313,53.032 35.301,53.055 35.285,53.075C35.268,53.095 35.247,53.11 35.224,53.121C35.201,53.132 35.175,53.137 35.15,53.137C35.124,53.137 35.098,53.132 35.075,53.121C35.052,53.11 35.031,53.095 35.014,53.075C34.998,53.055 34.986,53.032 34.979,53.008C34.972,52.983 34.971,52.957 34.975,52.932C34.971,52.906 34.972,52.881 34.979,52.856C34.986,52.831 34.998,52.808 35.014,52.789C35.031,52.769 35.052,52.753 35.075,52.742C35.098,52.732 35.124,52.726 35.15,52.726C35.175,52.726 35.201,52.732 35.224,52.742C35.247,52.753 35.268,52.769 35.285,52.789C35.301,52.808 35.313,52.831 35.32,52.856C35.327,52.881 35.328,52.906 35.324,52.932Z"/><path fill="#074367ff" d="M36.792,52.314C36.792,52.403 36.767,52.447 36.723,52.447C36.614,52.46 36.502,52.444 36.401,52.4C36.3,52.356 36.213,52.286 36.149,52.197C36.079,52.286 35.987,52.356 35.882,52.4C35.777,52.444 35.663,52.46 35.55,52.447V52.182C35.864,52.182 35.982,52.055 35.982,51.692V50.996H36.257V51.775C36.257,52.045 36.409,52.182 36.748,52.182C36.792,52.182 36.816,52.226 36.816,52.314M35.967,50.408C35.963,50.383 35.964,50.357 35.971,50.332C35.978,50.307 35.99,50.285 36.006,50.265C36.023,50.245 36.043,50.23 36.067,50.219C36.09,50.208 36.116,50.202 36.141,50.202C36.167,50.202 36.192,50.208 36.216,50.219C36.239,50.23 36.26,50.245 36.276,50.265C36.293,50.285 36.305,50.307 36.312,50.332C36.319,50.357 36.32,50.383 36.315,50.408C36.317,50.432 36.313,50.455 36.304,50.477C36.296,50.499 36.283,50.519 36.266,50.535C36.173,50.638 35.947,50.565 35.967,50.408Z"/><path fill="#074367ff" d="M39.173,51.212C39.313,51.394 39.384,51.62 39.374,51.849C39.374,52.052 39.34,52.254 39.276,52.447H36.723V52.182H37.057V49.732H37.337V51.722C37.464,51.501 37.643,51.315 37.857,51.178C38.071,51.04 38.315,50.956 38.569,50.932C38.68,50.925 38.791,50.944 38.892,50.989C38.994,51.033 39.083,51.101 39.153,51.187M39.03,52.167C39.059,52.06 39.074,51.95 39.075,51.839C39.075,51.472 38.888,51.212 38.54,51.212C38.313,51.225 38.097,51.313 37.926,51.462C37.686,51.655 37.489,51.895 37.347,52.167H39.03Z"/><path fill="#074367ff" d="M40.003,52.804C40.597,52.843 40.891,52.696 40.891,52.368C40.771,52.422 40.64,52.448 40.508,52.446C40.412,52.456 40.314,52.444 40.222,52.412C40.13,52.38 40.047,52.329 39.977,52.261C39.908,52.193 39.853,52.111 39.819,52.021C39.784,51.93 39.77,51.833 39.777,51.736C39.771,51.535 39.841,51.339 39.973,51.187C40.066,51.08 40.189,51.004 40.327,50.97C40.464,50.935 40.609,50.944 40.741,50.995C40.874,51.046 40.987,51.137 41.066,51.254C41.144,51.372 41.185,51.511 41.181,51.653V52.314C41.185,52.417 41.167,52.52 41.128,52.615C41.089,52.711 41.03,52.797 40.955,52.868C40.735,53.027 40.465,53.102 40.194,53.079H40.027L40.003,52.804ZM40.906,52.143V51.765C40.906,51.422 40.769,51.251 40.494,51.251C40.432,51.251 40.371,51.264 40.315,51.29C40.26,51.315 40.21,51.353 40.17,51.399C40.13,51.446 40.1,51.5 40.083,51.559C40.066,51.618 40.062,51.68 40.071,51.741C40.071,52.05 40.233,52.231 40.562,52.231C40.681,52.234 40.799,52.216 40.911,52.177"/><path fill="#074367ff" d="M44.421,52.314C44.421,52.403 44.397,52.447 44.348,52.447C44.023,52.447 43.827,52.383 43.749,52.261C43.596,52.334 43.427,52.371 43.258,52.368C42.806,52.368 42.507,52.133 42.507,51.731C42.507,51.625 42.53,51.52 42.574,51.423C42.619,51.327 42.683,51.241 42.764,51.171C42.844,51.102 42.939,51.05 43.041,51.02C43.143,50.989 43.25,50.981 43.356,50.996H43.96V51.824C43.96,52.109 44.058,52.182 44.343,52.182C44.392,52.182 44.416,52.226 44.416,52.314M43.67,51.261H43.307C43.007,51.261 42.816,51.418 42.816,51.702C42.816,51.986 42.983,52.099 43.307,52.099C43.44,52.105 43.572,52.074 43.69,52.011L43.67,51.261ZM42.948,50.408C42.948,50.385 42.952,50.362 42.96,50.34C42.969,50.318 42.982,50.298 42.999,50.282C43.015,50.265 43.035,50.252 43.057,50.244C43.078,50.235 43.102,50.231 43.125,50.232C43.172,50.232 43.217,50.25 43.25,50.283C43.283,50.317 43.302,50.361 43.302,50.408C43.302,50.455 43.283,50.5 43.25,50.533C43.217,50.566 43.172,50.585 43.125,50.585C43.102,50.585 43.078,50.581 43.057,50.572C43.035,50.564 43.015,50.551 42.999,50.534C42.982,50.518 42.969,50.498 42.96,50.477C42.952,50.455 42.948,50.431 42.948,50.408ZM43.439,50.408C43.439,50.385 43.443,50.362 43.451,50.34C43.46,50.318 43.473,50.298 43.489,50.282C43.506,50.265 43.526,50.252 43.548,50.244C43.569,50.235 43.593,50.231 43.616,50.232C43.663,50.232 43.708,50.25 43.741,50.283C43.774,50.317 43.793,50.361 43.793,50.408C43.793,50.455 43.774,50.5 43.741,50.533C43.708,50.566 43.663,50.585 43.616,50.585C43.593,50.585 43.569,50.581 43.548,50.572C43.526,50.564 43.506,50.551 43.489,50.534C43.473,50.518 43.46,50.498 43.451,50.477C43.443,50.455 43.439,50.431 43.439,50.408Z"/><path fill="#074367ff" d="M47.858,52.182C47.907,52.182 47.931,52.226 47.931,52.314C47.931,52.402 47.907,52.446 47.858,52.446H45.344C45.252,52.461 45.158,52.451 45.072,52.416C44.985,52.382 44.91,52.324 44.853,52.25C44.775,52.383 44.603,52.446 44.333,52.446V52.182C44.593,52.182 44.696,52.064 44.696,51.736V51.246H44.971V51.878C44.966,51.94 44.983,52.001 45.019,52.051C45.055,52.102 45.107,52.138 45.167,52.153C45.614,51.349 46.11,50.947 46.64,50.947C47.171,50.947 47.431,51.3 47.431,51.839C47.431,51.951 47.419,52.063 47.396,52.172L47.858,52.182ZM47.136,52.182C47.165,52.078 47.18,51.971 47.18,51.863C47.18,51.486 46.984,51.226 46.64,51.226C46.297,51.226 45.855,51.545 45.482,52.206L47.136,52.182Z"/><path fill="#074367ff" d="M49.095,52.314C49.095,52.403 49.095,52.447 49.026,52.447C48.917,52.46 48.806,52.444 48.705,52.4C48.604,52.356 48.516,52.286 48.452,52.197C48.382,52.286 48.29,52.356 48.185,52.4C48.08,52.444 47.966,52.46 47.853,52.447V52.182C48.167,52.182 48.285,52.055 48.285,51.692V50.996H48.56V51.775C48.56,52.045 48.712,52.182 49.026,52.182C49.07,52.182 49.095,52.226 49.095,52.314ZM48.246,50.408C48.242,50.383 48.243,50.357 48.25,50.332C48.256,50.307 48.269,50.285 48.285,50.265C48.302,50.245 48.322,50.23 48.346,50.219C48.369,50.208 48.394,50.202 48.42,50.202C48.446,50.202 48.471,50.208 48.494,50.219C48.518,50.23 48.538,50.245 48.555,50.265C48.572,50.285 48.584,50.307 48.59,50.332C48.597,50.357 48.599,50.383 48.594,50.408C48.595,50.432 48.591,50.455 48.583,50.477C48.575,50.499 48.562,50.519 48.545,50.535C48.452,50.638 48.226,50.565 48.246,50.408Z"/><path fill="#074367ff" d="M50.097,50.957C50.194,50.952 50.291,50.969 50.381,51.006C50.471,51.043 50.552,51.1 50.617,51.172C50.745,51.32 50.812,51.511 50.804,51.707C50.804,52.138 50.553,52.446 49.979,52.446H49.026V52.182H49.483C49.376,52.041 49.32,51.868 49.326,51.692C49.323,51.592 49.342,51.492 49.38,51.399C49.418,51.306 49.475,51.222 49.547,51.153C49.695,51.013 49.893,50.937 50.097,50.942M50.008,52.167C50.075,52.174 50.141,52.166 50.204,52.144C50.267,52.122 50.324,52.086 50.371,52.039C50.418,51.992 50.454,51.935 50.476,51.873C50.498,51.81 50.506,51.743 50.499,51.677C50.499,51.558 50.452,51.443 50.367,51.358C50.282,51.274 50.167,51.226 50.048,51.226C49.928,51.226 49.813,51.274 49.728,51.358C49.644,51.443 49.596,51.558 49.596,51.677C49.597,51.858 49.663,52.032 49.782,52.167H50.008Z"/></g></svg>