<svg id="vector" xmlns="http://www.w3.org/2000/svg" width="40.0d" height="40.0d" viewBox="0 0 40.0 40.0"><path fill="#ffffffff" d="M20,20m-19.75,0a19.75,19.75 0,1 1,39.5 0a19.75,19.75 0,1 1,-39.5 0" stroke="#e6e6e6ff" stroke-width="0.5" id="path_0"/><path fill="#80bd42ff" d="M20,22.906C15.141,22.906 11.196,18.964 11.196,14.108L11.257,12.889H12.64V11.04H12.803V10.755H13.474L13.657,11.06H14.002V13.417H14.287V13.742H14.368V11.873H15.466V12.36H15.832V13.274H16.462V12.38H17.296L17.581,12.767V13.783H19.288V14.026H17.316V12.828L17.154,12.624H16.706V13.803H16.361V13.498H15.588V12.604H15.222V12.096H14.612V14.006H14.002V13.64H13.738V11.304H13.494L13.311,10.999H13.047V11.283H12.884V13.132H11.502L11.461,14.108C11.461,18.822 15.283,22.662 20,22.682C24.717,22.682 28.559,18.862 28.58,14.148H27.685V12.645H27.177V11.873H26.587V11.527H25.855V11.771L25.693,11.934V13.315H24.941V12.279L24.737,12.076H24.331V11.71H23.863V13.986H23.111V13.153H22.419V13.986H20.63V13.742H22.176V12.889H23.355V13.742H23.599V11.466H24.575V11.812H24.859L25.164,12.177V13.071H25.408V11.812L25.571,11.649V11.283H26.831V11.629H27.441V12.401H27.95V13.904H28.824V14.128C28.783,18.964 24.859,22.906 20,22.906Z" id="path_1"/><path fill="#80bd42ff" d="M16.666,19.37C16.584,19.37 16.523,19.39 16.442,19.411C16.259,19.553 16.198,19.797 16.32,19.98C16.381,20.081 16.483,20.142 16.605,20.163C16.645,20.163 16.686,20.163 16.727,20.163C17.255,20.102 17.743,19.878 18.129,19.512L18.211,19.451L18.251,19.533C18.434,19.837 18.74,20.061 19.085,20.122H19.146C19.39,20.142 19.614,20 19.695,19.756C19.715,19.553 19.614,19.37 19.451,19.289C19.309,19.248 19.146,19.268 19.024,19.33C18.983,19.35 18.963,19.39 18.943,19.492C18.922,19.573 18.902,19.695 18.76,19.695C18.638,19.695 18.516,19.614 18.455,19.512C18.414,19.451 18.414,19.39 18.455,19.35C18.719,18.964 19.065,18.639 19.431,18.375C19.593,18.253 19.736,18.11 19.898,17.968L19.959,17.927L20.02,17.968C20.163,18.11 20.325,18.232 20.488,18.375C20.895,18.639 21.22,19.004 21.464,19.411C21.484,19.451 21.484,19.472 21.464,19.512C21.403,19.634 21.301,19.716 21.179,19.736C21.139,19.756 21.078,19.736 21.057,19.695C21.017,19.655 21.017,19.594 21.017,19.553C21.017,19.533 21.017,19.492 21.017,19.472C20.976,19.37 20.854,19.35 20.732,19.309C20.508,19.289 20.305,19.431 20.244,19.655C20.224,19.756 20.244,19.858 20.285,19.939C20.386,20.081 20.569,20.163 20.732,20.163C21.118,20.122 21.464,19.898 21.667,19.553L21.708,19.472L21.769,19.533C22.135,19.817 22.623,20.163 23.09,20.163C23.212,20.163 23.355,20.142 23.477,20.102C23.558,20.061 23.639,19.98 23.66,19.878C23.68,19.777 23.66,19.655 23.599,19.573C23.517,19.451 23.395,19.39 23.253,19.39C23.111,19.39 22.989,19.451 22.907,19.573L22.867,19.634L22.806,19.614C22.541,19.533 22.297,19.35 22.135,19.106C22.094,19.004 22.094,18.882 22.155,18.801C22.196,18.7 22.257,18.679 22.297,18.679C22.338,18.679 22.338,18.679 22.338,18.679C22.44,18.74 22.562,18.781 22.704,18.801C22.907,18.801 23.07,18.659 23.111,18.476C23.131,18.375 23.111,18.253 23.05,18.171C22.989,18.07 22.887,18.009 22.765,17.989H22.684C22.48,17.989 22.297,18.09 22.176,18.232C22.094,18.334 22.053,18.456 22.013,18.557C21.993,18.659 21.931,18.781 21.891,18.862L21.83,18.964L20.305,17.542L20.366,17.48C22.013,15.896 24.229,15.347 26.038,15.184C25.815,15.164 25.571,15.144 25.347,15.144C23.395,15.123 21.504,15.814 20.02,17.074L19.98,17.115L20,17.094C19.126,16.404 18.15,15.875 17.093,15.53C16.056,15.225 14.978,15.103 13.901,15.184C15.71,15.347 17.926,15.916 19.573,17.501L19.634,17.562L18.109,18.964L18.048,18.882C17.987,18.781 17.947,18.679 17.926,18.578C17.885,18.456 17.845,18.334 17.764,18.232C17.662,18.131 17.52,18.049 17.377,18.009C17.154,17.948 16.91,18.09 16.849,18.314C16.849,18.334 16.849,18.334 16.849,18.354C16.828,18.537 16.93,18.74 17.093,18.822C17.133,18.822 17.154,18.822 17.194,18.822C17.316,18.801 17.418,18.781 17.52,18.72L17.56,18.7C17.581,18.7 17.601,18.7 17.621,18.7C17.703,18.7 17.764,18.761 17.784,18.822C17.845,18.923 17.845,19.045 17.784,19.126C17.601,19.37 17.357,19.533 17.093,19.614L17.032,19.634L17.011,19.573C16.971,19.472 16.828,19.39 16.666,19.37ZM16.727,20.386C16.666,20.386 16.625,20.386 16.564,20.386C16.401,20.366 16.259,20.264 16.157,20.102C15.995,19.817 16.076,19.451 16.34,19.268C16.605,19.126 16.93,19.187 17.113,19.39C17.337,19.33 17.54,19.167 17.662,18.984C17.662,18.964 17.662,18.923 17.662,18.882C17.662,18.862 17.642,18.822 17.621,18.801L17.581,18.822C17.459,18.882 17.316,18.923 17.174,18.923C17.113,18.923 17.052,18.903 17.011,18.882C16.767,18.761 16.625,18.496 16.666,18.232C16.706,17.948 16.95,17.745 17.235,17.745C17.276,17.745 17.337,17.745 17.377,17.765C17.54,17.826 17.703,17.927 17.825,18.049C17.926,18.171 17.987,18.293 18.007,18.435C18.028,18.496 18.048,18.557 18.089,18.618L19.349,17.48C17.499,15.753 14.877,15.327 13.006,15.266L12.233,15.245L12.986,15.103C14.368,14.859 15.771,14.92 17.113,15.327C18.17,15.672 19.146,16.2 20.02,16.891C21.952,15.286 24.514,14.636 26.994,15.103L27.767,15.245L26.974,15.266C25.103,15.306 22.501,15.753 20.61,17.521L21.871,18.659C21.911,18.598 21.911,18.537 21.931,18.476C21.972,18.334 22.033,18.192 22.115,18.09C22.297,17.867 22.582,17.765 22.846,17.806C22.989,17.846 23.131,17.927 23.212,18.049C23.395,18.293 23.334,18.659 23.09,18.822C22.989,18.903 22.867,18.923 22.745,18.923C22.602,18.923 22.46,18.882 22.338,18.822C22.318,18.862 22.297,18.943 22.318,18.984C22.46,19.187 22.643,19.33 22.887,19.39C23.111,19.147 23.497,19.126 23.741,19.37C23.761,19.39 23.802,19.431 23.822,19.472C23.924,19.594 23.944,19.777 23.904,19.919C23.863,20.061 23.761,20.183 23.639,20.223C23.497,20.285 23.355,20.325 23.192,20.325C22.684,20.264 22.216,20.061 21.85,19.716C21.606,20.061 21.22,20.264 20.813,20.325C20.569,20.325 20.346,20.203 20.203,20.02C20.102,19.898 20.081,19.736 20.122,19.573C20.183,19.309 20.427,19.106 20.691,19.106C20.732,19.106 20.773,19.106 20.813,19.126C20.976,19.147 21.118,19.228 21.2,19.37C21.24,19.431 21.24,19.492 21.24,19.553C21.301,19.533 21.342,19.492 21.362,19.451C21.118,19.065 20.793,18.74 20.427,18.476C20.285,18.375 20.142,18.253 20.02,18.151C19.878,18.273 19.736,18.395 19.593,18.517C19.227,18.781 18.922,19.106 18.658,19.472C18.699,19.512 18.76,19.553 18.821,19.573C18.821,19.553 18.841,19.512 18.861,19.492C18.861,19.37 18.943,19.268 19.044,19.208C19.227,19.126 19.431,19.106 19.614,19.167C19.858,19.289 20,19.553 19.959,19.817C19.858,20.183 19.492,20.406 19.105,20.305C18.74,20.244 18.414,20.02 18.211,19.716C17.764,20.102 17.255,20.325 16.727,20.386Z" id="path_2"/><path fill="#80bd42ff" d="M23.212,9.008L23.436,9.17L23.273,8.967C22.297,7.565 21.179,7.504 20.834,7.545C20.935,7.443 21.057,7.342 21.2,7.301L21.322,7.26L21.2,7.22C20.874,7.098 20.529,7.138 20.244,7.342C20.203,7.118 20.122,6.894 20,6.712C19.98,6.712 19.959,6.691 19.959,6.712C19.878,6.732 19.715,6.955 19.654,7.342C19.39,7.138 19.024,7.098 18.719,7.24L18.618,7.281L18.719,7.321C18.861,7.362 18.963,7.463 19.044,7.565C17.601,7.606 17.093,8.296 16.666,8.865L16.564,8.987L16.625,9.048C17.154,8.581 17.865,8.357 18.577,8.439C18.048,8.662 17.052,9.251 16.706,10.999L16.666,11.222L16.788,11.04C17.357,10.125 17.926,9.577 18.597,9.272C18.15,9.922 17.581,11.06 17.804,12.076L17.845,12.259L17.885,12.076C18.069,11.243 18.496,10.471 19.085,9.841C18.841,10.694 18.821,11.608 19.044,12.462L19.105,12.645V12.441C19.166,11.629 19.329,10.836 19.614,10.064L19.736,10.979L19.654,10.999L19.715,12.259H19.614L19.715,13.539L19.593,13.579V13.62C19.593,13.62 19.675,14.433 19.715,14.88C19.593,14.961 19.471,15.063 19.37,15.164V15.245H20.488V15.164C20.386,15.063 20.264,14.961 20.142,14.88L20.264,13.539H20.142L20.224,12.218H20.122L20.183,10.958H20.081C20.102,10.836 20.142,10.552 20.203,10.024C20.549,10.775 20.752,11.608 20.793,12.441L20.834,12.746L20.874,12.441C21.037,11.568 20.996,10.653 20.793,9.78C21.342,10.45 21.769,11.243 22.013,12.076L22.074,12.32L22.094,12.076C22.196,11.06 21.891,10.044 21.24,9.272C21.626,9.414 21.972,9.658 22.236,9.942C22.562,10.267 22.846,10.633 23.09,11.04L23.192,11.222L23.172,10.999C23.05,9.881 22.338,8.906 21.322,8.439C21.972,8.296 22.928,8.804 23.212,9.008Z" id="path_3"/><path fill="#80bc00ff" d="M9.184,33.065H9.062V32.354L8.838,33.065H8.696L8.472,32.354V33.065H8.35V32.211H8.533L8.757,32.963L8.98,32.211H9.163L9.184,33.065Z" id="path_4"/><path fill="#80bc00ff" d="M9.489,32.272C9.489,32.313 9.468,32.354 9.407,32.354C9.387,32.354 9.367,32.354 9.346,32.333C9.326,32.313 9.326,32.293 9.326,32.272C9.326,32.252 9.326,32.232 9.346,32.211C9.367,32.191 9.387,32.191 9.407,32.191C9.428,32.191 9.448,32.191 9.468,32.211C9.489,32.232 9.489,32.252 9.489,32.272ZM9.529,32.984L9.55,33.044C9.509,33.065 9.489,33.065 9.448,33.065C9.428,33.065 9.387,33.065 9.367,33.044C9.346,33.024 9.346,33.004 9.346,32.984V32.455H9.468V32.943C9.468,32.963 9.468,32.984 9.489,32.984H9.529Z" id="path_5"/><path fill="#80bc00ff" d="M10.221,32.984V33.044C10.2,33.065 10.16,33.065 10.119,33.065C10.099,33.065 10.058,33.065 10.038,33.044C10.017,33.024 10.017,33.004 10.017,32.984V32.659C10.017,32.638 10.017,32.597 9.997,32.577C9.977,32.557 9.956,32.557 9.936,32.557C9.895,32.557 9.875,32.577 9.834,32.577C9.794,32.597 9.773,32.618 9.733,32.638V33.065H9.631V32.455H9.753V32.537C9.794,32.516 9.814,32.496 9.855,32.476C9.895,32.455 9.936,32.455 9.977,32.455C10.017,32.455 10.078,32.455 10.119,32.496C10.16,32.537 10.16,32.597 10.16,32.659V32.963C10.16,32.984 10.16,33.004 10.18,33.004L10.221,32.984Z" id="path_6"/><path fill="#80bc00ff" d="M10.465,32.272C10.465,32.293 10.465,32.313 10.444,32.333C10.424,32.354 10.404,32.354 10.383,32.354C10.363,32.354 10.343,32.354 10.322,32.333C10.302,32.313 10.302,32.293 10.302,32.272C10.302,32.232 10.343,32.191 10.383,32.191C10.404,32.191 10.424,32.191 10.444,32.211C10.465,32.232 10.465,32.252 10.465,32.272ZM10.505,32.984V33.044C10.465,33.065 10.444,33.065 10.404,33.065C10.383,33.065 10.343,33.065 10.322,33.044C10.302,33.024 10.302,33.004 10.302,32.984V32.455H10.444V32.943C10.444,32.963 10.444,32.984 10.465,32.984H10.505Z" id="path_7"/><path fill="#80bc00ff" d="M10.607,33.044L10.627,32.943C10.648,32.963 10.688,32.963 10.709,32.963H10.79C10.892,32.963 10.932,32.943 10.932,32.882C10.932,32.862 10.932,32.841 10.912,32.841C10.871,32.821 10.851,32.801 10.81,32.801C10.77,32.78 10.709,32.76 10.668,32.74C10.627,32.719 10.607,32.679 10.607,32.618C10.607,32.577 10.627,32.516 10.668,32.496C10.729,32.455 10.79,32.455 10.851,32.455C10.912,32.455 10.973,32.455 11.014,32.496L10.993,32.597C10.953,32.577 10.892,32.557 10.851,32.557C10.77,32.557 10.729,32.577 10.729,32.618C10.729,32.638 10.729,32.659 10.749,32.659C10.77,32.679 10.81,32.699 10.831,32.699C10.892,32.719 10.932,32.74 10.973,32.76C11.034,32.821 11.054,32.923 10.993,32.984C10.973,33.004 10.973,33.004 10.953,33.024C10.912,33.065 10.851,33.065 10.79,33.065C10.749,33.065 10.688,33.065 10.607,33.044Z" id="path_8"/><path fill="#80bc00ff" d="M11.461,32.963L11.481,33.044C11.441,33.065 11.4,33.065 11.339,33.065C11.298,33.065 11.257,33.044 11.237,33.024C11.217,32.984 11.196,32.943 11.217,32.902V32.537H11.115L11.135,32.435H11.217V32.272L11.339,32.232V32.435H11.461V32.537H11.339V32.882C11.339,32.902 11.339,32.923 11.339,32.943C11.339,32.943 11.359,32.943 11.4,32.943C11.4,32.963 11.441,32.963 11.461,32.963Z" id="path_9"/><path fill="#80bc00ff" d="M11.705,33.065H11.583V32.455H11.705V32.537C11.705,32.516 11.725,32.496 11.745,32.476C11.766,32.455 11.786,32.455 11.807,32.455C11.847,32.455 11.888,32.476 11.929,32.496L11.908,32.597C11.868,32.597 11.847,32.597 11.807,32.597C11.766,32.597 11.725,32.638 11.705,32.679V33.065Z" id="path_10"/><path fill="#80bc00ff" d="M12.213,33.044L11.99,32.455H12.111L12.274,32.882L12.396,32.455H12.518L12.294,33.085C12.274,33.146 12.254,33.207 12.193,33.268C12.152,33.309 12.111,33.329 12.05,33.309C12.01,33.309 11.969,33.309 11.929,33.288L11.949,33.187C11.99,33.207 12.01,33.207 12.05,33.207C12.071,33.207 12.091,33.207 12.111,33.187C12.172,33.146 12.193,33.105 12.213,33.044Z" id="path_11"/><path fill="#80bc00ff" d="M13.108,33.085C12.904,33.085 12.803,32.984 12.803,32.78C12.803,32.577 12.904,32.476 13.108,32.476C13.311,32.476 13.392,32.577 13.392,32.78C13.413,32.963 13.311,33.085 13.108,33.085ZM13.108,32.984C13.148,32.984 13.189,32.963 13.23,32.943C13.27,32.882 13.27,32.841 13.27,32.78C13.27,32.719 13.27,32.659 13.23,32.618C13.189,32.577 13.148,32.557 13.108,32.557C13.067,32.557 13.006,32.577 12.986,32.597C12.945,32.659 12.945,32.719 12.945,32.78C12.945,32.841 12.945,32.902 12.986,32.943C13.026,32.963 13.067,32.984 13.108,32.984Z" id="path_12"/><path fill="#80bc00ff" d="M13.718,33.065H13.596V32.557H13.494L13.514,32.455H13.596V32.374C13.596,32.313 13.596,32.272 13.636,32.232C13.677,32.191 13.718,32.171 13.779,32.191C13.819,32.191 13.86,32.191 13.901,32.211L13.88,32.313C13.86,32.313 13.819,32.313 13.799,32.313C13.779,32.313 13.758,32.313 13.738,32.313C13.738,32.333 13.738,32.354 13.738,32.374V32.476H13.86V32.577H13.738L13.718,33.065Z" id="path_13"/><path fill="#80bc00ff" d="M15.039,33.065H14.917V32.354L14.673,33.065H14.531L14.307,32.354V33.065H14.185V32.211H14.368L14.592,32.963L14.816,32.211H14.998L15.039,33.065Z" id="path_14"/><path fill="#80bc00ff" d="M15.771,32.984V33.044C15.751,33.065 15.71,33.065 15.669,33.065C15.649,33.065 15.608,33.065 15.588,33.044C15.568,33.024 15.568,33.004 15.568,32.984C15.527,33.004 15.507,33.024 15.466,33.044C15.425,33.065 15.405,33.065 15.365,33.065C15.324,33.065 15.263,33.065 15.222,33.024C15.182,32.984 15.182,32.923 15.182,32.862V32.435H15.304V32.841C15.304,32.882 15.304,32.902 15.304,32.923C15.304,32.943 15.324,32.943 15.365,32.943C15.405,32.943 15.446,32.923 15.466,32.923C15.507,32.902 15.527,32.882 15.547,32.862V32.435H15.669V32.923C15.669,32.943 15.669,32.963 15.71,32.963L15.771,32.984Z" id="path_15"/><path fill="#80bc00ff" d="M16.462,32.984V33.044C16.422,33.065 16.401,33.065 16.361,33.065C16.34,33.065 16.3,33.065 16.279,33.044C16.259,33.024 16.259,33.004 16.259,32.984V32.659C16.259,32.638 16.259,32.618 16.259,32.577C16.239,32.557 16.218,32.557 16.198,32.557C16.157,32.557 16.137,32.577 16.096,32.577C16.056,32.597 16.035,32.618 15.995,32.638V33.065H15.873V32.455H15.995V32.537C16.035,32.516 16.056,32.496 16.096,32.476C16.137,32.455 16.178,32.455 16.218,32.455C16.259,32.455 16.32,32.455 16.361,32.496C16.401,32.537 16.401,32.597 16.401,32.659V32.963C16.401,32.984 16.401,33.004 16.442,33.004L16.462,32.984Z" id="path_16"/><path fill="#80bc00ff" d="M16.706,32.272C16.706,32.293 16.706,32.313 16.686,32.333C16.666,32.354 16.645,32.354 16.625,32.354C16.605,32.354 16.584,32.354 16.564,32.333C16.544,32.313 16.544,32.293 16.544,32.272C16.544,32.252 16.544,32.232 16.564,32.211C16.584,32.191 16.605,32.191 16.625,32.191C16.645,32.191 16.666,32.191 16.686,32.211C16.686,32.232 16.706,32.252 16.706,32.272ZM16.747,32.984V33.044C16.706,33.065 16.686,33.065 16.645,33.065C16.625,33.065 16.584,33.065 16.564,33.044C16.544,33.024 16.544,33.004 16.544,32.984V32.455H16.666V32.943C16.666,32.963 16.666,32.984 16.706,32.984H16.747Z" id="path_17"/><path fill="#80bc00ff" d="M17.296,32.943L17.276,33.044C17.215,33.065 17.154,33.065 17.093,33.065C17.011,33.065 16.95,33.044 16.91,32.984C16.849,32.923 16.828,32.841 16.828,32.74C16.828,32.659 16.849,32.577 16.91,32.516C16.971,32.455 17.052,32.415 17.133,32.435C17.194,32.435 17.255,32.435 17.316,32.476L17.296,32.577C17.255,32.557 17.194,32.557 17.133,32.557C17.011,32.557 16.95,32.638 16.95,32.76C16.95,32.902 17.011,32.963 17.154,32.963H17.235C17.255,32.963 17.276,32.963 17.296,32.943Z" id="path_18"/><path fill="#80bc00ff" d="M17.56,32.272C17.56,32.313 17.54,32.354 17.479,32.354C17.459,32.354 17.438,32.354 17.418,32.333C17.398,32.313 17.398,32.293 17.398,32.272C17.398,32.252 17.398,32.232 17.418,32.211C17.438,32.191 17.459,32.191 17.479,32.191C17.499,32.191 17.52,32.191 17.54,32.211C17.56,32.232 17.56,32.252 17.56,32.272ZM17.621,32.984L17.642,33.044C17.601,33.065 17.581,33.065 17.54,33.065C17.52,33.065 17.479,33.065 17.459,33.044C17.438,33.024 17.438,33.004 17.438,32.984V32.455H17.56V32.943C17.56,32.963 17.56,32.984 17.581,32.984H17.621Z" id="path_19"/><path fill="#80bc00ff" d="M17.845,33.309H17.723V32.455H17.845V32.537C17.885,32.476 17.967,32.435 18.048,32.455C18.109,32.455 18.17,32.476 18.211,32.537C18.251,32.597 18.292,32.699 18.272,32.78C18.272,32.862 18.251,32.943 18.191,33.024C18.15,33.085 18.069,33.105 17.987,33.105C17.947,33.105 17.926,33.105 17.885,33.105C17.865,33.105 17.845,33.085 17.804,33.065V33.309H17.845ZM17.845,32.719V32.923C17.865,32.943 17.885,32.963 17.906,32.963C17.926,32.963 17.967,32.963 17.987,32.963C18.028,32.963 18.089,32.943 18.109,32.923C18.129,32.882 18.15,32.821 18.15,32.76C18.15,32.699 18.15,32.638 18.109,32.597C18.089,32.557 18.048,32.557 17.987,32.557C17.947,32.557 17.885,32.577 17.865,32.618C17.845,32.638 17.845,32.679 17.845,32.719Z" id="path_20"/><path fill="#80bc00ff" d="M18.943,32.984V33.045C18.902,33.065 18.882,33.065 18.841,33.065C18.821,33.065 18.78,33.065 18.76,33.045C18.74,33.024 18.74,33.004 18.74,32.984C18.699,33.044 18.638,33.085 18.556,33.065C18.434,33.065 18.353,33.004 18.353,32.882C18.353,32.821 18.394,32.74 18.455,32.72C18.516,32.699 18.577,32.679 18.638,32.679H18.74V32.618C18.74,32.597 18.74,32.557 18.699,32.537C18.658,32.516 18.618,32.516 18.577,32.516C18.516,32.516 18.455,32.516 18.394,32.557L18.414,32.455C18.475,32.435 18.536,32.415 18.618,32.415C18.678,32.415 18.74,32.435 18.801,32.476C18.841,32.516 18.861,32.577 18.841,32.638V32.923C18.841,32.943 18.841,32.963 18.882,32.963L18.943,32.984ZM18.76,32.841V32.78H18.678C18.638,32.78 18.597,32.78 18.556,32.801C18.536,32.821 18.516,32.862 18.516,32.882C18.516,32.943 18.556,32.963 18.618,32.963C18.699,32.984 18.76,32.923 18.76,32.841C18.76,32.862 18.76,32.862 18.76,32.841Z" id="path_21"/><path fill="#80bc00ff" d="M19.248,32.984V33.045C19.207,33.065 19.187,33.065 19.146,33.065C19.126,33.065 19.085,33.065 19.065,33.045C19.044,33.024 19.044,33.004 19.044,32.984V32.211H19.166V32.963C19.166,32.984 19.166,33.004 19.187,33.004L19.248,32.984Z" id="path_22"/><path fill="#80bc00ff" d="M20.183,33.065H20.041L19.878,32.76H19.715V33.065H19.593V32.211H19.858C20.061,32.211 20.163,32.293 20.163,32.476C20.163,32.537 20.142,32.577 20.122,32.638C20.102,32.679 20.061,32.72 20,32.74L20.183,33.065ZM19.715,32.638H19.878C19.959,32.638 20.02,32.597 20.02,32.476C20.02,32.435 20,32.394 19.98,32.354C19.959,32.333 19.919,32.313 19.898,32.313H19.736L19.715,32.638Z" id="path_23"/><path fill="#80bc00ff" d="M20.874,32.984V33.044C20.834,33.065 20.813,33.065 20.773,33.065C20.752,33.065 20.712,33.065 20.691,33.044C20.671,33.024 20.671,33.004 20.671,32.984C20.651,33.004 20.61,33.024 20.569,33.044C20.529,33.065 20.508,33.065 20.468,33.065C20.427,33.065 20.366,33.065 20.325,33.024C20.285,32.984 20.285,32.923 20.285,32.862V32.435H20.407V32.841C20.407,32.862 20.407,32.902 20.407,32.923C20.427,32.943 20.447,32.943 20.468,32.943C20.508,32.943 20.549,32.923 20.569,32.923C20.61,32.902 20.63,32.882 20.651,32.862V32.435H20.773V32.923C20.773,32.943 20.773,32.963 20.813,32.963L20.874,32.984Z" id="path_24"/><path fill="#80bc00ff" d="M21.098,33.065H20.976V32.455H21.098V32.537C21.098,32.516 21.118,32.496 21.139,32.476C21.159,32.455 21.179,32.455 21.2,32.455C21.24,32.455 21.281,32.476 21.322,32.496L21.301,32.597C21.26,32.597 21.24,32.597 21.2,32.597C21.159,32.597 21.118,32.638 21.098,32.679V33.065Z" id="path_25"/><path fill="#80bc00ff" d="M21.931,32.984V33.045C21.891,33.065 21.871,33.065 21.83,33.065C21.809,33.065 21.769,33.065 21.749,33.045C21.728,33.024 21.728,33.004 21.728,32.984C21.688,33.044 21.626,33.085 21.545,33.065C21.423,33.065 21.342,33.004 21.342,32.882C21.342,32.821 21.382,32.74 21.444,32.72C21.504,32.699 21.566,32.679 21.626,32.679H21.728V32.618C21.728,32.597 21.728,32.557 21.688,32.537C21.647,32.516 21.606,32.516 21.566,32.516C21.504,32.516 21.444,32.537 21.382,32.557L21.403,32.455C21.464,32.435 21.525,32.415 21.606,32.415C21.667,32.415 21.728,32.435 21.789,32.476C21.83,32.516 21.85,32.577 21.83,32.638V32.923C21.83,32.943 21.83,32.963 21.871,32.963L21.931,32.984ZM21.749,32.841V32.78H21.667C21.626,32.78 21.586,32.78 21.545,32.801C21.525,32.821 21.504,32.862 21.504,32.882C21.504,32.943 21.545,32.963 21.606,32.963C21.688,32.984 21.749,32.923 21.749,32.841C21.749,32.862 21.749,32.862 21.749,32.841Z" id="path_26"/><path fill="#80bc00ff" d="M22.216,32.984L22.236,33.045C22.196,33.065 22.176,33.065 22.135,33.065C22.115,33.065 22.074,33.065 22.053,33.045C22.033,33.024 22.033,33.004 22.033,32.984V32.211H22.155V32.963C22.155,32.984 22.155,33.004 22.176,33.004L22.216,32.984Z" id="path_27"/><path fill="#80bc00ff" d="M23.233,33.065H23.09L23.029,32.862H22.724L22.663,33.065H22.521L22.806,32.211H22.948L23.233,33.065ZM22.989,32.76L22.867,32.374L22.745,32.76H22.989Z" id="path_28"/><path fill="#80bc00ff" d="M23.477,33.065H23.355V32.557H23.253L23.273,32.455H23.355V32.374C23.355,32.313 23.355,32.272 23.395,32.232C23.436,32.191 23.477,32.171 23.538,32.191C23.578,32.191 23.619,32.191 23.66,32.211L23.639,32.313C23.619,32.313 23.578,32.313 23.558,32.313C23.538,32.313 23.517,32.313 23.497,32.313C23.497,32.333 23.497,32.354 23.497,32.374V32.476H23.619V32.577H23.497L23.477,33.065ZM23.904,33.065H23.782V32.557H23.68L23.7,32.455H23.782V32.374C23.782,32.313 23.782,32.272 23.822,32.232C23.863,32.191 23.904,32.171 23.965,32.191C24.005,32.191 24.046,32.191 24.087,32.211L24.066,32.313C24.046,32.313 24.005,32.313 23.985,32.313C23.965,32.313 23.944,32.313 23.924,32.313C23.924,32.333 23.924,32.354 23.924,32.374V32.476H24.046V32.577H23.904V33.065Z" id="path_29"/><path fill="#80bc00ff" d="M24.656,32.984V33.044C24.615,33.065 24.595,33.065 24.554,33.065C24.534,33.065 24.493,33.065 24.473,33.044C24.453,33.024 24.453,33.004 24.453,32.984C24.412,33.044 24.351,33.085 24.27,33.065C24.148,33.065 24.066,33.004 24.066,32.882C24.066,32.821 24.107,32.74 24.168,32.719C24.229,32.699 24.29,32.679 24.351,32.679H24.453V32.618C24.453,32.597 24.432,32.557 24.412,32.537C24.371,32.516 24.331,32.516 24.29,32.516C24.229,32.516 24.168,32.516 24.107,32.557L24.127,32.455C24.188,32.435 24.249,32.415 24.331,32.415C24.432,32.394 24.534,32.455 24.554,32.557C24.554,32.577 24.554,32.618 24.554,32.638V32.923C24.554,32.943 24.554,32.963 24.595,32.963L24.656,32.984ZM24.473,32.841V32.78H24.392C24.351,32.78 24.31,32.78 24.27,32.801C24.249,32.821 24.229,32.862 24.229,32.882C24.229,32.943 24.27,32.963 24.331,32.963C24.371,32.963 24.392,32.943 24.432,32.923C24.473,32.923 24.473,32.882 24.473,32.841Z" id="path_30"/><path fill="#80bc00ff" d="M24.9,32.272C24.9,32.293 24.9,32.313 24.879,32.333C24.859,32.354 24.839,32.354 24.819,32.354C24.798,32.354 24.778,32.354 24.757,32.333C24.737,32.313 24.737,32.293 24.737,32.272C24.737,32.252 24.737,32.232 24.757,32.211C24.778,32.191 24.798,32.191 24.819,32.191C24.839,32.191 24.859,32.191 24.879,32.211C24.9,32.232 24.9,32.252 24.9,32.272ZM24.941,32.984V33.044C24.9,33.065 24.879,33.065 24.839,33.065C24.819,33.065 24.778,33.065 24.757,33.044C24.737,33.024 24.737,33.004 24.737,32.984V32.455H24.859V32.943C24.859,32.963 24.859,32.984 24.9,32.984H24.941Z" id="path_31"/><path fill="#80bc00ff" d="M25.184,33.065H25.063V32.455H25.184V32.537C25.205,32.516 25.205,32.496 25.225,32.476C25.246,32.455 25.266,32.455 25.286,32.455C25.327,32.455 25.368,32.476 25.408,32.496L25.388,32.597C25.347,32.597 25.327,32.597 25.286,32.597C25.246,32.597 25.205,32.618 25.184,32.679V33.065Z" id="path_32"/><path fill="#80bc00ff" d="M25.469,33.044L25.49,32.943C25.51,32.963 25.551,32.963 25.571,32.963H25.652C25.754,32.963 25.794,32.943 25.794,32.882C25.794,32.862 25.774,32.841 25.774,32.841C25.733,32.821 25.713,32.801 25.672,32.801C25.632,32.78 25.571,32.76 25.53,32.74C25.49,32.719 25.469,32.679 25.469,32.618C25.469,32.577 25.49,32.516 25.53,32.496C25.591,32.455 25.652,32.455 25.713,32.455C25.774,32.455 25.835,32.455 25.876,32.496L25.855,32.597C25.815,32.577 25.754,32.557 25.713,32.557C25.632,32.557 25.591,32.577 25.591,32.618C25.591,32.638 25.611,32.659 25.611,32.659C25.632,32.679 25.672,32.699 25.693,32.699C25.733,32.719 25.794,32.74 25.835,32.76C25.876,32.801 25.896,32.841 25.896,32.882C25.896,32.943 25.876,33.004 25.815,33.024C25.774,33.065 25.713,33.065 25.652,33.065C25.611,33.065 25.551,33.065 25.469,33.044Z" id="path_33"/><path fill="#80bc00ff" d="M27.014,32.963L26.994,33.065C26.974,33.065 26.933,33.065 26.913,33.065C26.852,33.065 26.791,33.024 26.77,32.963C26.75,32.984 26.709,33.024 26.669,33.024C26.628,33.044 26.587,33.044 26.547,33.044C26.465,33.044 26.404,33.024 26.343,32.984C26.303,32.943 26.262,32.882 26.282,32.821C26.282,32.699 26.343,32.597 26.445,32.557C26.404,32.496 26.384,32.435 26.364,32.354C26.364,32.293 26.384,32.252 26.425,32.211C26.465,32.171 26.526,32.151 26.587,32.151C26.648,32.151 26.73,32.171 26.791,32.191L26.77,32.293C26.73,32.272 26.669,32.252 26.608,32.252C26.547,32.252 26.506,32.272 26.506,32.333C26.506,32.394 26.526,32.435 26.547,32.476C26.628,32.577 26.689,32.659 26.791,32.76C26.811,32.74 26.811,32.699 26.811,32.659C26.811,32.597 26.811,32.557 26.811,32.496H27.035L27.014,32.597H26.913C26.913,32.638 26.913,32.679 26.913,32.719C26.892,32.76 26.892,32.801 26.872,32.821C26.892,32.841 26.913,32.862 26.933,32.882C26.953,32.882 26.974,32.882 26.994,32.882C26.994,32.963 27.014,32.963 27.014,32.963ZM26.709,32.923C26.648,32.862 26.587,32.78 26.506,32.679C26.445,32.699 26.404,32.78 26.404,32.841C26.404,32.943 26.445,32.984 26.567,32.984C26.587,32.984 26.628,32.984 26.648,32.963C26.669,32.943 26.689,32.923 26.709,32.923Z" id="path_34"/><path fill="#80bc00ff" d="M28.031,33.065H27.909V32.679H27.543V33.065H27.421V32.211H27.543V32.577H27.909V32.211H28.031V33.065Z" id="path_35"/><path fill="#80bc00ff" d="M28.478,33.085C28.275,33.085 28.194,32.984 28.194,32.78C28.194,32.577 28.295,32.476 28.478,32.476C28.661,32.476 28.763,32.577 28.763,32.78C28.783,32.963 28.681,33.085 28.478,33.085ZM28.478,32.984C28.519,32.984 28.58,32.963 28.6,32.943C28.641,32.882 28.641,32.841 28.641,32.78C28.641,32.719 28.641,32.659 28.6,32.618C28.539,32.557 28.417,32.557 28.356,32.618C28.336,32.679 28.316,32.74 28.316,32.801C28.316,32.862 28.316,32.923 28.356,32.963C28.376,32.963 28.438,32.984 28.478,32.984Z" id="path_36"/><path fill="#80bc00ff" d="M29.495,32.984V33.044C29.454,33.065 29.434,33.065 29.393,33.065C29.373,33.065 29.332,33.065 29.312,33.044C29.291,33.024 29.291,33.004 29.291,32.984C29.271,33.004 29.23,33.024 29.19,33.044C29.149,33.065 29.129,33.065 29.088,33.065C29.047,33.065 28.986,33.065 28.946,33.024C28.905,32.984 28.905,32.923 28.905,32.862V32.435H29.027V32.841C29.027,32.862 29.027,32.902 29.027,32.923C29.047,32.943 29.068,32.943 29.088,32.943C29.129,32.943 29.169,32.923 29.19,32.923C29.23,32.902 29.251,32.882 29.271,32.862V32.435H29.393V32.923C29.393,32.943 29.393,32.963 29.434,32.963L29.495,32.984Z" id="path_37"/><path fill="#80bc00ff" d="M29.576,33.044L29.596,32.943C29.617,32.963 29.657,32.963 29.678,32.963H29.759C29.861,32.963 29.901,32.943 29.901,32.882C29.901,32.862 29.901,32.841 29.881,32.841C29.84,32.821 29.82,32.801 29.779,32.801C29.739,32.78 29.678,32.76 29.637,32.74C29.596,32.719 29.576,32.679 29.576,32.618C29.576,32.577 29.596,32.516 29.637,32.496C29.698,32.455 29.759,32.455 29.82,32.455C29.881,32.455 29.942,32.455 29.983,32.496L29.962,32.597C29.922,32.577 29.861,32.557 29.82,32.557C29.739,32.557 29.698,32.577 29.698,32.618C29.698,32.638 29.718,32.659 29.718,32.659C29.739,32.679 29.779,32.699 29.8,32.699C29.84,32.719 29.901,32.74 29.942,32.76C30.003,32.821 30.023,32.923 29.962,32.984C29.942,33.004 29.942,33.004 29.922,33.024C29.881,33.065 29.82,33.065 29.759,33.065C29.698,33.065 29.637,33.065 29.576,33.044Z" id="path_38"/><path fill="#80bc00ff" d="M30.288,32.272C30.288,32.293 30.288,32.313 30.267,32.333C30.247,32.354 30.227,32.354 30.206,32.354C30.186,32.354 30.166,32.354 30.145,32.333C30.125,32.313 30.125,32.293 30.125,32.272C30.125,32.252 30.125,32.232 30.145,32.211C30.166,32.191 30.186,32.191 30.206,32.191C30.227,32.191 30.247,32.191 30.267,32.211C30.288,32.232 30.288,32.252 30.288,32.272ZM30.328,32.984V33.044C30.288,33.065 30.267,33.065 30.227,33.065C30.206,33.065 30.166,33.065 30.145,33.044C30.125,33.024 30.125,33.004 30.125,32.984V32.455H30.247V32.943C30.247,32.963 30.247,32.984 30.267,32.984H30.328Z" id="path_39"/><path fill="#80bc00ff" d="M31.02,32.984V33.044C30.999,33.065 30.959,33.065 30.918,33.065C30.898,33.065 30.857,33.065 30.837,33.044C30.816,33.024 30.816,33.004 30.816,32.984V32.659C30.816,32.618 30.816,32.597 30.816,32.577C30.796,32.557 30.776,32.557 30.755,32.557C30.715,32.557 30.694,32.577 30.654,32.577C30.613,32.597 30.593,32.618 30.552,32.638V33.065H30.43V32.455H30.552V32.537C30.593,32.516 30.613,32.496 30.654,32.476C30.694,32.455 30.735,32.455 30.776,32.455C30.816,32.455 30.877,32.455 30.918,32.496C30.959,32.537 30.959,32.597 30.959,32.659V32.963C30.959,32.984 30.959,33.004 30.979,33.004L31.02,32.984Z" id="path_40"/><path fill="#80bc00ff" d="M31.548,33.044V32.984C31.528,33.004 31.487,33.024 31.467,33.044C31.426,33.044 31.406,33.044 31.365,33.044C31.203,33.044 31.121,32.943 31.121,32.74C31.101,32.597 31.203,32.455 31.345,32.435C31.365,32.435 31.406,32.435 31.426,32.435C31.507,32.435 31.609,32.435 31.691,32.476V33.044C31.711,33.146 31.67,33.248 31.589,33.309C31.528,33.329 31.447,33.349 31.365,33.349C31.284,33.349 31.203,33.329 31.121,33.309L31.142,33.207C31.203,33.248 31.284,33.268 31.365,33.268C31.426,33.268 31.467,33.268 31.507,33.227C31.548,33.146 31.569,33.105 31.548,33.044ZM31.548,32.78V32.577C31.507,32.577 31.467,32.577 31.426,32.577C31.385,32.577 31.345,32.577 31.304,32.618C31.264,32.659 31.223,32.719 31.243,32.801C31.243,32.862 31.243,32.923 31.284,32.963C31.304,33.004 31.365,33.024 31.406,33.004C31.487,32.963 31.548,32.902 31.548,32.78Z" id="path_41"/><path fill="#006b68ff" d="M9.509,26.36H9.021V26.156L8.879,26.339H8.777C8.614,26.36 8.452,26.299 8.35,26.177C8.269,26.075 8.228,25.953 8.228,25.831V25.344C8.228,25.181 8.289,25.039 8.391,24.937C8.492,24.856 8.614,24.816 8.736,24.836H9.306V26.055H9.489L9.509,26.36ZM8.553,24.47C8.513,24.47 8.452,24.45 8.431,24.409C8.391,24.368 8.37,24.328 8.37,24.287C8.37,24.247 8.391,24.186 8.431,24.165C8.472,24.125 8.513,24.104 8.553,24.125C8.594,24.125 8.655,24.145 8.675,24.165C8.716,24.206 8.736,24.247 8.736,24.287C8.736,24.328 8.716,24.389 8.675,24.409C8.655,24.47 8.614,24.49 8.553,24.47ZM9.041,26.055V25.12H8.736C8.635,25.1 8.533,25.181 8.533,25.283C8.533,25.303 8.533,25.323 8.533,25.344V25.831C8.533,25.892 8.553,25.953 8.594,25.994C8.635,26.035 8.716,26.055 8.777,26.035L9.041,26.055ZM9.001,24.47C8.96,24.47 8.899,24.45 8.879,24.409C8.838,24.368 8.818,24.328 8.818,24.287C8.818,24.247 8.838,24.186 8.879,24.165C8.919,24.125 8.96,24.104 9.001,24.125C9.041,24.125 9.102,24.145 9.123,24.165C9.163,24.206 9.184,24.247 9.184,24.287C9.184,24.328 9.163,24.389 9.123,24.409C9.102,24.47 9.062,24.49 9.001,24.47Z" id="path_42"/><path fill="#006b68ff" d="M9.814,26.36H9.489V26.075H9.834C9.977,26.075 10.038,26.014 10.038,25.872V24.856H10.322V25.831C10.343,25.994 10.261,26.136 10.139,26.238C10.058,26.319 9.936,26.36 9.814,26.36ZM9.916,26.99C9.916,27.091 9.834,27.173 9.753,27.173C9.712,27.173 9.651,27.152 9.631,27.132C9.59,27.091 9.57,27.051 9.59,27.01C9.59,26.969 9.611,26.908 9.631,26.888C9.692,26.827 9.814,26.827 9.875,26.888C9.895,26.888 9.916,26.929 9.916,26.99ZM10.2,27.152C10.16,27.152 10.099,27.132 10.078,27.111C10.038,27.071 10.017,27.03 10.017,26.99C10.017,26.949 10.038,26.888 10.078,26.868C10.119,26.827 10.16,26.807 10.2,26.807C10.241,26.807 10.282,26.827 10.322,26.868C10.363,26.908 10.383,26.949 10.383,26.99C10.383,27.03 10.363,27.071 10.343,27.111C10.302,27.132 10.241,27.152 10.2,27.152Z" id="path_43"/><path fill="#006b68ff" d="M12.111,26.36H10.77V26.075H11.644V25.588C11.684,25.384 11.522,25.181 11.318,25.161C11.278,25.161 11.257,25.161 11.217,25.161H11.014V24.876H11.237C11.42,24.876 11.603,24.937 11.745,25.08C11.868,25.202 11.929,25.384 11.929,25.567V26.096H12.111V26.36Z" id="path_44"/><path fill="#006b68ff" d="M12.904,26.36H12.091V26.075H12.437V24.247H12.721V26.075H12.904V26.36Z" id="path_45"/><path fill="#006b68ff" d="M13.941,26.36H12.884V26.075H13.453V24.856H13.738V26.075H13.921L13.941,26.36ZM13.616,27.152C13.575,27.152 13.514,27.132 13.494,27.111C13.453,27.071 13.433,27.03 13.433,26.99C13.433,26.949 13.453,26.888 13.494,26.868C13.535,26.827 13.575,26.807 13.616,26.807C13.657,26.807 13.697,26.827 13.738,26.868C13.779,26.908 13.799,26.949 13.799,26.99C13.799,27.03 13.779,27.071 13.738,27.111C13.718,27.132 13.657,27.152 13.616,27.152Z" id="path_46"/><path fill="#006b68ff" d="M14.043,26.36H13.921V26.075H14.043C14.104,26.075 14.165,26.055 14.226,26.035C14.267,25.994 14.287,25.913 14.287,25.852V24.247H14.571V25.892C14.571,26.035 14.531,26.156 14.429,26.258C14.307,26.319 14.165,26.36 14.043,26.36Z" id="path_47"/><path fill="#006b68ff" d="M15.263,26.36L14.978,26.522V24.226H15.263V26.36Z" id="path_48"/><path fill="#006b68ff" d="M17.865,26.421V24.856H18.15V26.441C18.15,26.685 18.007,26.908 17.804,27.01C17.621,27.111 17.418,27.173 17.194,27.152C16.971,27.152 16.747,27.091 16.544,26.969C16.361,26.847 16.259,26.644 16.259,26.441V25.669L16.564,25.486V26.421C16.564,26.583 16.645,26.726 16.788,26.786C16.91,26.847 17.052,26.868 17.194,26.868C17.357,26.868 17.52,26.827 17.662,26.746C17.825,26.685 17.885,26.543 17.865,26.421ZM17.235,24.49C17.194,24.49 17.133,24.47 17.093,24.43C17.052,24.389 17.032,24.348 17.032,24.308C17.032,24.267 17.052,24.206 17.093,24.186C17.133,24.145 17.174,24.125 17.235,24.145C17.337,24.145 17.398,24.226 17.398,24.328C17.398,24.368 17.377,24.43 17.337,24.45C17.316,24.47 17.276,24.49 17.235,24.49Z" id="path_49"/><path fill="#006b68ff" d="M18.922,27.152L18.719,26.888H18.76C19.166,26.888 19.39,26.746 19.39,26.441V26.36H19.146C19.004,26.38 18.841,26.319 18.74,26.218C18.638,26.116 18.597,25.974 18.597,25.852V25.364C18.597,25.222 18.638,25.08 18.76,24.978C18.861,24.897 18.983,24.856 19.126,24.856H19.695V26.421C19.715,26.624 19.634,26.847 19.492,26.99C19.309,27.091 19.126,27.152 18.922,27.152ZM19.37,26.055V25.12H19.085C19.024,25.12 18.963,25.141 18.922,25.181C18.882,25.222 18.861,25.283 18.882,25.344V25.831C18.882,25.892 18.902,25.953 18.943,26.014C19.004,26.055 19.085,26.075 19.166,26.055H19.37Z" id="path_50"/><path fill="#006b68ff" d="M21.362,26.36H21.179V26.4C21.199,26.604 21.118,26.827 20.976,26.969C20.813,27.091 20.61,27.152 20.427,27.152L20.224,26.888H20.264C20.671,26.888 20.895,26.746 20.895,26.441V26.36H20.651C20.508,26.38 20.346,26.319 20.244,26.218C20.142,26.116 20.102,25.974 20.122,25.852V25.364C20.122,25.222 20.163,25.08 20.264,24.978C20.366,24.897 20.488,24.856 20.63,24.856H21.22V26.075H21.403L21.362,26.36ZM20.915,24.47H20.366V24.348H20.488C20.468,24.308 20.447,24.267 20.447,24.226C20.447,24.165 20.468,24.104 20.508,24.064C20.549,24.023 20.61,24.003 20.671,24.003H20.813V24.125H20.732C20.63,24.125 20.569,24.165 20.569,24.247C20.569,24.328 20.63,24.368 20.732,24.368H20.895L20.915,24.47ZM20.895,26.055V25.12H20.61C20.549,25.12 20.488,25.141 20.447,25.181C20.407,25.222 20.386,25.283 20.407,25.344V25.831C20.407,25.892 20.427,25.953 20.468,26.014C20.529,26.055 20.61,26.075 20.691,26.055H20.895Z" id="path_51"/><path fill="#006b68ff" d="M24.209,26.36H21.342V26.075H22.196V24.856H22.48V26.075H22.989V24.856H23.273V26.075H23.782V24.856H24.066V26.075H24.188L24.209,26.36ZM23.111,24.308C23.111,24.348 23.09,24.409 23.05,24.429C23.009,24.47 22.968,24.49 22.928,24.49C22.887,24.49 22.826,24.47 22.806,24.429C22.745,24.348 22.745,24.247 22.806,24.165C22.846,24.125 22.887,24.104 22.928,24.125C22.968,24.125 23.029,24.145 23.05,24.186C23.09,24.206 23.111,24.267 23.111,24.308ZM23.294,23.901C23.294,23.942 23.273,23.982 23.253,24.023C23.233,24.043 23.192,24.064 23.151,24.064C23.07,24.064 22.989,23.982 22.989,23.901C22.989,23.861 23.009,23.82 23.029,23.779C23.05,23.739 23.09,23.739 23.151,23.739C23.192,23.739 23.233,23.759 23.253,23.779C23.273,23.82 23.294,23.861 23.294,23.901ZM23.558,24.308C23.558,24.348 23.538,24.409 23.497,24.429C23.456,24.47 23.416,24.49 23.375,24.49C23.334,24.49 23.273,24.47 23.253,24.429C23.212,24.389 23.192,24.348 23.212,24.308C23.212,24.206 23.273,24.125 23.375,24.125H23.395C23.436,24.125 23.497,24.145 23.517,24.165C23.538,24.206 23.558,24.247 23.558,24.308Z" id="path_52"/><path fill="#006b68ff" d="M24.31,26.36H24.188V26.075H24.31C24.371,26.075 24.432,26.055 24.493,26.035C24.534,25.994 24.554,25.913 24.554,25.852V24.247H24.839V25.892C24.839,26.035 24.798,26.156 24.697,26.258C24.574,26.319 24.453,26.36 24.31,26.36Z" id="path_53"/><path fill="#006b68ff" d="M25.551,26.36L25.266,26.522V24.226H25.551V26.36Z" id="path_54"/><path fill="#006b68ff" d="M27.645,24.836V25.831C27.665,25.994 27.584,26.156 27.462,26.258C27.36,26.319 27.238,26.36 27.096,26.36C26.953,26.36 26.791,26.319 26.689,26.218C26.608,26.116 26.547,25.974 26.567,25.852V25.364C26.567,25.222 26.608,25.059 26.73,24.958C26.831,24.876 26.953,24.836 27.075,24.836H27.645ZM26.872,24.49C26.77,24.49 26.689,24.409 26.689,24.308C26.689,24.267 26.709,24.206 26.75,24.186C26.791,24.145 26.831,24.145 26.872,24.145C26.913,24.145 26.974,24.165 26.994,24.186C27.035,24.226 27.055,24.267 27.055,24.308C27.055,24.348 27.035,24.409 26.994,24.43C26.974,24.47 26.933,24.49 26.872,24.49ZM27.34,25.831V25.12H27.055C26.913,25.12 26.852,25.202 26.852,25.344V25.831C26.852,25.974 26.933,26.055 27.096,26.055C27.258,26.055 27.34,25.994 27.34,25.831ZM27.34,24.47C27.238,24.47 27.157,24.389 27.157,24.287C27.157,24.247 27.177,24.186 27.218,24.165C27.279,24.104 27.401,24.104 27.462,24.165C27.502,24.206 27.523,24.247 27.523,24.287C27.523,24.328 27.502,24.389 27.462,24.409C27.441,24.45 27.38,24.49 27.34,24.47Z" id="path_55"/><path fill="#006b68ff" d="M28.132,27.152L27.929,26.888C28.153,26.868 28.336,26.644 28.295,26.421V26.4V24.836H28.58V26.482C28.6,26.786 28.417,27.051 28.132,27.152Z" id="path_56"/><path fill="#006b68ff" d="M29.312,26.36L29.027,26.522V24.226H29.312V26.36Z" id="path_57"/><path fill="#006b68ff" d="M29.8,27.152L29.596,26.888C29.82,26.868 30.003,26.644 29.962,26.421V26.4V24.836H30.247V26.482C30.267,26.786 30.084,27.051 29.8,27.152ZM30.105,24.49C30.064,24.49 30.003,24.47 29.983,24.429C29.942,24.389 29.922,24.348 29.942,24.308C29.942,24.267 29.962,24.206 29.983,24.186C30.023,24.145 30.064,24.125 30.105,24.125C30.206,24.125 30.288,24.206 30.267,24.308C30.267,24.348 30.247,24.409 30.227,24.429C30.206,24.47 30.166,24.49 30.105,24.49Z" id="path_58"/><path fill="#006b68ff" d="M31.02,27.152L30.816,26.888H30.857C31.264,26.888 31.487,26.746 31.487,26.441V26.36H31.243C31.101,26.38 30.938,26.319 30.837,26.218C30.735,26.116 30.694,25.974 30.715,25.852V25.364C30.715,25.222 30.755,25.08 30.857,24.978C30.959,24.897 31.081,24.856 31.223,24.856H31.792V26.421C31.792,26.624 31.731,26.827 31.569,26.99C31.406,27.091 31.223,27.152 31.02,27.152ZM31.467,26.055V25.12H31.182C31.121,25.12 31.06,25.141 31.02,25.181C30.979,25.222 30.959,25.283 30.979,25.344V25.831C30.979,25.892 30.999,25.953 31.04,26.014C31.101,26.055 31.182,26.075 31.264,26.055H31.467Z" id="path_59"/><path fill="#006b68ff" d="M9.875,30.545V28.961H10.18V30.566C10.18,30.809 10.058,31.033 9.834,31.135C9.651,31.236 9.448,31.297 9.224,31.297C8.98,31.297 8.757,31.236 8.553,31.094C8.37,30.972 8.269,30.769 8.289,30.566V29.814L8.574,29.611V30.545C8.574,30.708 8.655,30.85 8.818,30.911C8.94,30.972 9.082,30.992 9.224,30.992C9.387,30.992 9.55,30.952 9.692,30.871C9.814,30.809 9.875,30.688 9.875,30.545ZM9.245,28.615C9.204,28.615 9.143,28.595 9.123,28.554C9.082,28.514 9.062,28.473 9.062,28.432C9.062,28.392 9.082,28.331 9.123,28.31C9.163,28.27 9.204,28.249 9.245,28.249C9.285,28.249 9.326,28.27 9.367,28.31C9.407,28.351 9.428,28.392 9.428,28.432C9.428,28.473 9.407,28.534 9.367,28.554C9.326,28.595 9.285,28.615 9.245,28.615Z" id="path_60"/><path fill="#006b68ff" d="M11.054,30.484C10.912,30.484 10.79,30.444 10.688,30.342C10.607,30.261 10.566,30.139 10.566,30.037V28.371H10.871V30.017C10.871,30.139 10.932,30.2 11.034,30.2H11.054V30.484Z" id="path_61"/><path fill="#006b68ff" d="M11.542,30.484H11.034V30.2H11.542V30.484Z" id="path_62"/><path fill="#006b68ff" d="M13.311,30.484H11.522V30.2H12.843V29.489C12.864,29.387 12.782,29.286 12.681,29.286C12.66,29.286 12.64,29.286 12.64,29.286H11.868V28.879C11.868,28.534 12.05,28.351 12.416,28.351H12.925V28.656H12.376C12.274,28.635 12.172,28.717 12.152,28.818C12.152,28.839 12.152,28.859 12.152,28.879V28.961H12.62C12.762,28.961 12.904,29.001 13.006,29.103C13.087,29.204 13.128,29.347 13.108,29.469V30.18H13.291L13.311,30.484Z" id="path_63"/><path fill="#006b68ff" d="M13.779,30.484H13.291V30.2H13.779V30.484Z" id="path_64"/><path fill="#006b68ff" d="M15.974,30.484H13.758V30.2H14.612V28.961H14.897V30.18H15.405V28.961H15.69V30.18H15.974C16.117,30.18 16.198,30.119 16.198,29.976V28.961H16.483V29.956C16.483,30.098 16.442,30.241 16.34,30.342C16.259,30.444 16.117,30.484 15.974,30.484Z" id="path_65"/><path fill="#006b68ff" d="M17.885,30.484H16.91V30.2H17.438L16.95,28.961H17.255L17.723,30.18H17.845C17.906,30.18 17.967,30.159 18.028,30.139C18.069,30.098 18.089,30.037 18.089,29.976V28.371H18.374V30.017C18.374,30.159 18.333,30.281 18.231,30.383C18.17,30.444 18.028,30.505 17.885,30.484ZM17.499,31.297H16.93V31.155H17.052C16.991,31.053 17.011,30.952 17.093,30.87C17.133,30.83 17.194,30.789 17.255,30.809H17.377V30.931H17.296C17.194,30.931 17.154,30.972 17.154,31.053C17.154,31.135 17.194,31.175 17.296,31.175H17.479V31.297H17.499Z" id="path_66"/><path fill="#006b68ff" d="M19.126,30.484L18.841,30.647V28.351H19.126V30.484Z" id="path_67"/><path fill="#006b68ff" d="M19.878,31.297L19.675,31.033H19.715C20.122,31.033 20.346,30.891 20.346,30.586V30.484H20.102C19.939,30.505 19.797,30.444 19.675,30.342C19.573,30.241 19.532,30.098 19.553,29.976V29.489C19.532,29.347 19.593,29.204 19.675,29.103C19.776,29.001 19.919,28.961 20.041,28.961H20.63V30.525C20.651,30.728 20.569,30.952 20.427,31.094C20.285,31.216 20.081,31.297 19.878,31.297ZM20.346,30.2V29.286H20.061C20,29.286 19.939,29.306 19.898,29.326C19.858,29.367 19.837,29.428 19.858,29.489V29.976C19.858,30.037 19.878,30.098 19.919,30.159C19.98,30.2 20.061,30.22 20.142,30.2H20.346Z" id="path_68"/><path fill="#006b68ff" d="M22.907,30.484H22.44V30.302L22.297,30.484H22.196C22.033,30.505 21.891,30.444 21.769,30.322C21.688,30.22 21.647,30.098 21.647,29.956V29.489C21.647,29.326 21.708,29.184 21.809,29.082C21.911,29.001 22.033,28.961 22.155,28.961H22.724V30.18H22.907V30.484ZM21.972,28.615C21.931,28.615 21.871,28.595 21.85,28.554C21.809,28.514 21.789,28.473 21.789,28.432C21.789,28.392 21.809,28.331 21.85,28.31C21.891,28.27 21.931,28.249 21.972,28.249C22.013,28.249 22.074,28.27 22.094,28.31C22.135,28.351 22.155,28.392 22.155,28.432C22.155,28.473 22.135,28.534 22.094,28.554C22.053,28.595 22.013,28.615 21.972,28.615ZM22.44,30.2V29.286H22.155C22.053,29.265 21.952,29.347 21.952,29.448C21.952,29.469 21.952,29.489 21.952,29.489V29.976C21.952,30.037 21.972,30.098 22.013,30.139C22.053,30.18 22.135,30.2 22.196,30.18L22.44,30.2ZM22.419,28.615C22.379,28.615 22.318,28.595 22.297,28.554C22.257,28.514 22.236,28.473 22.236,28.432C22.236,28.392 22.257,28.331 22.297,28.31C22.338,28.27 22.379,28.249 22.419,28.249C22.46,28.249 22.521,28.27 22.541,28.31C22.582,28.351 22.602,28.392 22.602,28.432C22.602,28.473 22.582,28.534 22.541,28.554C22.501,28.595 22.46,28.615 22.419,28.615Z" id="path_69"/><path fill="#006b68ff" d="M23.375,30.484H22.887V30.2H23.375V30.484Z" id="path_70"/><path fill="#006b68ff" d="M23.68,30.484H23.355V30.2H23.7C23.843,30.2 23.924,30.139 23.924,29.997V28.961H24.209V29.976C24.229,30.139 24.148,30.281 24.026,30.383C23.944,30.444 23.822,30.484 23.68,30.484ZM23.802,31.114C23.802,31.155 23.782,31.216 23.741,31.236C23.7,31.277 23.66,31.297 23.619,31.297C23.517,31.297 23.436,31.236 23.436,31.135C23.436,31.135 23.436,31.135 23.436,31.114C23.436,31.074 23.456,31.013 23.497,30.992C23.538,30.952 23.578,30.931 23.619,30.931C23.66,30.931 23.721,30.952 23.741,30.992C23.782,31.013 23.802,31.074 23.802,31.114ZM24.087,31.297C24.046,31.297 23.985,31.277 23.965,31.257C23.924,31.216 23.904,31.175 23.924,31.135C23.924,31.094 23.944,31.033 23.965,31.013C24.005,30.972 24.046,30.952 24.087,30.952C24.127,30.952 24.168,30.972 24.209,31.013C24.249,31.053 24.27,31.094 24.249,31.135C24.249,31.175 24.229,31.236 24.209,31.257C24.168,31.277 24.127,31.297 24.087,31.297Z" id="path_71"/><path fill="#006b68ff" d="M24.981,31.297L24.778,31.033H24.819C25.225,31.033 25.428,30.891 25.449,30.586V30.484H25.205C25.063,30.505 24.9,30.444 24.798,30.342C24.697,30.241 24.656,30.098 24.656,29.976V29.489C24.656,29.347 24.697,29.204 24.798,29.103C24.9,29.021 25.022,28.981 25.164,28.981H25.733V30.545C25.754,30.749 25.672,30.972 25.53,31.114C25.388,31.236 25.184,31.297 24.981,31.297ZM25.428,30.2V29.286H25.144C25.083,29.286 25.022,29.306 24.981,29.326C24.941,29.367 24.92,29.428 24.941,29.489V29.976C24.941,30.037 24.961,30.098 25.001,30.159C25.063,30.2 25.144,30.22 25.225,30.2H25.428Z" id="path_72"/><path fill="#006b68ff" d="M26.221,31.297L26.018,31.033C26.14,31.013 26.242,30.952 26.303,30.87C26.364,30.769 26.384,30.667 26.384,30.566V28.981H26.669V30.2H26.852V30.484H26.669V30.627C26.689,30.911 26.506,31.195 26.221,31.297Z" id="path_73"/><path fill="#006b68ff" d="M28.438,30.484H26.831V30.2H27.197V29.489C27.197,29.347 27.238,29.204 27.36,29.082C27.462,29.001 27.584,28.961 27.706,28.961H28.295V30.18H28.458V30.484H28.438ZM27.502,28.615C27.462,28.615 27.401,28.595 27.38,28.554C27.34,28.514 27.319,28.473 27.319,28.432C27.319,28.392 27.34,28.331 27.38,28.31C27.421,28.27 27.462,28.249 27.502,28.249C27.543,28.249 27.584,28.27 27.624,28.31C27.665,28.351 27.685,28.392 27.685,28.432C27.685,28.473 27.665,28.534 27.624,28.554C27.584,28.595 27.543,28.615 27.502,28.615ZM27.97,30.2V29.286H27.685C27.543,29.286 27.482,29.367 27.482,29.509V30.22L27.97,30.2ZM27.95,28.615C27.909,28.615 27.848,28.595 27.828,28.554C27.787,28.514 27.767,28.473 27.767,28.432C27.767,28.392 27.787,28.331 27.828,28.31C27.868,28.27 27.909,28.249 27.95,28.249C27.99,28.249 28.051,28.27 28.072,28.31C28.112,28.351 28.132,28.392 28.132,28.432C28.132,28.473 28.112,28.534 28.072,28.554C28.031,28.595 27.99,28.615 27.95,28.615Z" id="path_74"/><path fill="#006b68ff" d="M28.926,30.484H28.438V30.2H28.926V30.484Z" id="path_75"/><path fill="#006b68ff" d="M29.027,30.484H28.905V30.2H29.027C29.088,30.2 29.149,30.18 29.21,30.159C29.251,30.119 29.271,30.058 29.271,29.997V28.371H29.556V30.017C29.556,30.159 29.515,30.281 29.413,30.383C29.291,30.444 29.149,30.505 29.027,30.484Z" id="path_76"/><path fill="#006b68ff" d="M30.267,30.484L29.962,30.647V28.351H30.267V30.484Z" id="path_77"/><path fill="#006b68ff" d="M31.02,31.297L30.816,31.033H30.857C31.264,31.033 31.467,30.891 31.487,30.586V30.484H31.243C31.101,30.505 30.938,30.444 30.837,30.342C30.735,30.241 30.694,30.098 30.715,29.976V29.489C30.715,29.347 30.755,29.204 30.857,29.103C30.959,29.021 31.081,28.961 31.223,28.981H31.792V30.545C31.813,30.749 31.731,30.972 31.589,31.114C31.426,31.236 31.223,31.297 31.02,31.297ZM31.467,30.2V29.286H31.182C31.121,29.286 31.06,29.306 31.02,29.326C30.979,29.367 30.959,29.428 30.979,29.489V29.976C30.979,30.058 30.999,30.119 31.04,30.159C31.101,30.2 31.182,30.22 31.264,30.2H31.467Z" id="path_78"/></svg>