<svg id="vector" xmlns="http://www.w3.org/2000/svg" width="64.0d" height="64.0d" viewBox="0 0 64.0 64.0"><path fill="#ffffffff" d="M32,32m-31.75,0a31.75,31.75 0,1 1,63.5 0a31.75,31.75 0,1 1,-63.5 0" stroke="#e6e6e6ff" stroke-width="0.5" id="path_0"/><path fill="@drawable/$partner_coi__0" d="M48.789,23.004C49.554,23.056 50.216,22.48 50.268,21.719C50.319,20.958 49.74,20.3 48.965,20.248C48.199,20.197 47.537,20.773 47.486,21.534C47.486,21.596 47.486,21.657 47.486,21.719C47.537,22.408 48.096,22.963 48.789,23.004Z" id="path_1"/><path fill="#002256ff" d="M28.127,42.564H27V41.433H26.431V44.24H27V43.006H28.127V44.24H28.696V41.433H28.127V42.564Z" id="path_2"/><path fill="#002256ff" d="M31.002,42.893C30.992,42.821 30.971,42.739 30.94,42.667C30.919,42.595 30.878,42.523 30.847,42.461C30.806,42.4 30.754,42.338 30.692,42.297C30.63,42.256 30.568,42.214 30.495,42.184C30.423,42.153 30.351,42.142 30.278,42.122C30.206,42.111 30.123,42.101 30.051,42.101C29.906,42.101 29.761,42.132 29.627,42.184C29.513,42.235 29.41,42.317 29.327,42.42C29.244,42.523 29.182,42.636 29.151,42.77C29.11,42.903 29.089,43.047 29.089,43.191C29.089,43.346 29.11,43.5 29.161,43.654C29.244,43.911 29.451,44.117 29.709,44.199C29.865,44.251 30.02,44.271 30.175,44.271C30.299,44.271 30.423,44.261 30.547,44.24C30.671,44.22 30.785,44.168 30.888,44.107V43.664C30.785,43.726 30.671,43.778 30.557,43.819C30.444,43.86 30.319,43.88 30.195,43.88C30.123,43.88 30.04,43.87 29.968,43.85C29.906,43.829 29.844,43.798 29.782,43.747C29.73,43.706 29.689,43.644 29.658,43.582C29.627,43.51 29.606,43.438 29.596,43.366H31.033V43.346C31.033,43.274 31.033,43.202 31.023,43.119C31.033,43.047 31.023,42.975 31.002,42.893ZM29.606,42.996C29.606,42.934 29.627,42.862 29.647,42.801C29.668,42.739 29.699,42.688 29.74,42.646C29.782,42.605 29.833,42.564 29.885,42.543C29.947,42.523 30.009,42.502 30.082,42.502C30.144,42.502 30.216,42.513 30.278,42.543C30.33,42.564 30.371,42.605 30.413,42.646C30.454,42.688 30.475,42.749 30.495,42.801C30.516,42.862 30.526,42.924 30.526,42.996H29.606Z" id="path_3"/><path fill="#002256ff" d="M33.194,42.965C33.194,42.677 33.122,42.461 32.967,42.327C32.822,42.183 32.605,42.122 32.315,42.122C32.191,42.122 32.057,42.132 31.933,42.163C31.809,42.194 31.684,42.225 31.571,42.276L31.591,42.739C31.684,42.667 31.788,42.616 31.891,42.574C32.005,42.533 32.119,42.513 32.233,42.513C32.305,42.513 32.377,42.523 32.439,42.533C32.491,42.543 32.543,42.574 32.584,42.605C32.626,42.646 32.657,42.688 32.667,42.749C32.688,42.821 32.698,42.893 32.698,42.955H32.564H32.429C32.336,42.955 32.243,42.955 32.15,42.965C32.057,42.975 31.964,42.986 31.881,43.006C31.798,43.027 31.716,43.058 31.643,43.109C31.571,43.15 31.498,43.212 31.447,43.284C31.405,43.335 31.385,43.397 31.364,43.469C31.354,43.531 31.343,43.603 31.343,43.664C31.343,43.757 31.364,43.849 31.405,43.921C31.447,43.993 31.498,44.065 31.571,44.117C31.643,44.168 31.716,44.209 31.809,44.24C31.891,44.271 31.985,44.282 32.077,44.282C32.14,44.282 32.202,44.271 32.274,44.261C32.336,44.24 32.398,44.22 32.45,44.189C32.501,44.158 32.553,44.117 32.605,44.076C32.657,44.035 32.688,43.983 32.729,43.921H32.739C32.739,43.973 32.739,44.024 32.75,44.076C32.76,44.127 32.76,44.179 32.77,44.23H33.246C33.236,44.024 33.225,43.808 33.215,43.603C33.194,43.397 33.194,43.181 33.194,42.965ZM32.698,43.294C32.698,43.366 32.688,43.449 32.667,43.52C32.646,43.592 32.615,43.654 32.584,43.716C32.543,43.767 32.491,43.819 32.429,43.849C32.357,43.88 32.284,43.901 32.202,43.901C32.16,43.901 32.119,43.901 32.077,43.891C32.036,43.88 32.005,43.87 31.964,43.849C31.933,43.829 31.902,43.798 31.881,43.767C31.86,43.736 31.85,43.695 31.85,43.644C31.85,43.582 31.86,43.52 31.902,43.479C31.933,43.438 31.974,43.397 32.026,43.366C32.077,43.335 32.129,43.315 32.191,43.304C32.253,43.294 32.305,43.284 32.367,43.284H32.698V43.294Z" id="path_4"/><path fill="#002256ff" d="M34.28,41.227H33.732V44.241H34.28V41.227Z" id="path_5"/><path fill="#002256ff" d="M35.749,43.86C35.707,43.87 35.666,43.87 35.625,43.87C35.583,43.87 35.542,43.86 35.5,43.84C35.469,43.819 35.438,43.798 35.418,43.768C35.397,43.737 35.387,43.696 35.376,43.665C35.366,43.624 35.366,43.583 35.366,43.541V42.554H35.852V42.174H35.366V41.587L34.818,41.762V43.613C34.818,43.706 34.828,43.798 34.859,43.891C34.88,43.973 34.932,44.045 34.983,44.097C35.045,44.158 35.107,44.2 35.19,44.23C35.283,44.261 35.376,44.282 35.469,44.271C35.542,44.271 35.604,44.271 35.676,44.261C35.749,44.251 35.811,44.241 35.873,44.22L35.852,43.798C35.831,43.829 35.79,43.85 35.749,43.86Z" id="path_6"/><path fill="#002256ff" d="M37.972,42.349C37.91,42.277 37.838,42.215 37.755,42.174C37.651,42.133 37.538,42.112 37.434,42.112C37.31,42.112 37.176,42.143 37.062,42.194C36.948,42.246 36.845,42.338 36.783,42.441H36.772V41.217H36.224V44.23H36.772V43.212C36.772,43.13 36.783,43.058 36.793,42.976C36.803,42.894 36.834,42.822 36.876,42.75C36.907,42.688 36.958,42.626 37.021,42.585C37.083,42.544 37.165,42.513 37.248,42.523C37.31,42.523 37.382,42.534 37.444,42.564C37.496,42.606 37.538,42.657 37.558,42.719C37.579,42.78 37.6,42.842 37.6,42.914C37.6,42.976 37.6,43.048 37.6,43.11V44.21H38.137V42.904C38.137,42.791 38.127,42.688 38.096,42.585C38.075,42.513 38.034,42.431 37.972,42.349Z" id="path_7"/><path fill="#002256ff" d="M39.854,41.433H39.285V44.24H39.854V41.433Z" id="path_8"/><path fill="#002256ff" d="M42.16,42.348C42.098,42.276 42.026,42.215 41.943,42.174C41.84,42.132 41.726,42.112 41.622,42.112C41.488,42.112 41.354,42.132 41.24,42.194C41.126,42.256 41.023,42.338 40.94,42.441H40.93V42.174H40.412V44.241H40.96V43.222C40.96,43.14 40.971,43.068 40.981,42.986C40.992,42.904 41.023,42.832 41.064,42.76C41.095,42.698 41.147,42.636 41.209,42.595C41.271,42.554 41.354,42.523 41.436,42.534C41.498,42.534 41.571,42.544 41.633,42.575C41.684,42.616 41.726,42.667 41.746,42.729C41.767,42.791 41.778,42.852 41.788,42.924C41.788,42.986 41.788,43.058 41.788,43.12V44.22H42.326V42.914C42.326,42.801 42.315,42.698 42.284,42.595C42.264,42.513 42.222,42.431 42.16,42.348Z" id="path_9"/><path fill="#002256ff" d="M44.114,43.202C44.073,43.16 44.021,43.119 43.959,43.088C43.908,43.058 43.846,43.037 43.784,43.016C43.722,42.996 43.67,42.975 43.608,42.965C43.556,42.955 43.504,42.934 43.453,42.914C43.411,42.903 43.38,42.873 43.349,42.852C43.318,42.821 43.308,42.79 43.308,42.749C43.308,42.708 43.318,42.667 43.339,42.636C43.36,42.605 43.38,42.585 43.411,42.564C43.442,42.543 43.473,42.533 43.515,42.523C43.556,42.513 43.587,42.513 43.629,42.513C43.711,42.513 43.794,42.523 43.877,42.533C43.959,42.554 44.042,42.574 44.114,42.605L44.146,42.204C44.053,42.183 43.949,42.163 43.856,42.142C43.753,42.132 43.66,42.122 43.556,42.122C43.453,42.122 43.36,42.132 43.256,42.163C43.163,42.183 43.07,42.225 42.998,42.276C42.832,42.379 42.739,42.574 42.739,42.77C42.739,42.842 42.75,42.914 42.77,42.975C42.812,43.078 42.884,43.171 42.977,43.232C43.029,43.263 43.07,43.284 43.122,43.304C43.174,43.325 43.225,43.346 43.277,43.356C43.329,43.366 43.38,43.387 43.422,43.397C43.463,43.407 43.504,43.428 43.546,43.449C43.577,43.469 43.608,43.489 43.629,43.52C43.639,43.541 43.649,43.562 43.66,43.582C43.66,43.603 43.67,43.634 43.67,43.654C43.67,43.695 43.66,43.736 43.639,43.767C43.618,43.798 43.587,43.829 43.556,43.849C43.525,43.87 43.484,43.88 43.442,43.891C43.401,43.901 43.36,43.901 43.318,43.901C43.132,43.901 42.946,43.849 42.78,43.767L42.75,44.209C42.853,44.24 42.946,44.261 43.049,44.271C43.153,44.292 43.256,44.292 43.36,44.292C43.463,44.292 43.577,44.282 43.68,44.251C43.784,44.23 43.877,44.189 43.959,44.137C44.042,44.086 44.114,44.014 44.156,43.932C44.208,43.839 44.239,43.726 44.228,43.623C44.228,43.541 44.218,43.459 44.187,43.376C44.197,43.304 44.156,43.253 44.114,43.202Z" id="path_10"/><path fill="#002256ff" d="M46.049,43.181C46.049,43.263 46.038,43.335 46.028,43.418C46.018,43.5 45.986,43.572 45.955,43.644C45.924,43.706 45.873,43.767 45.811,43.808C45.738,43.85 45.655,43.881 45.573,43.87C45.511,43.87 45.438,43.85 45.387,43.819C45.335,43.778 45.294,43.726 45.273,43.665C45.252,43.613 45.242,43.572 45.242,43.521C45.242,43.469 45.242,43.418 45.231,43.366C45.231,43.346 45.231,43.335 45.231,43.315C45.231,43.294 45.231,43.284 45.231,43.263V42.163H44.683V43.469C44.683,43.572 44.694,43.685 44.725,43.788C44.745,43.881 44.797,43.973 44.849,44.045C44.911,44.117 44.983,44.179 45.066,44.22C45.169,44.261 45.273,44.282 45.387,44.282C45.521,44.282 45.645,44.251 45.769,44.199C45.883,44.138 45.986,44.055 46.069,43.952H46.079V44.23H46.597V42.163H46.059L46.049,43.181Z" id="path_11"/><path fill="#002256ff" d="M48.22,42.122C48.148,42.122 48.075,42.142 48.003,42.173C47.931,42.204 47.879,42.256 47.827,42.307C47.786,42.358 47.744,42.41 47.713,42.461C47.682,42.513 47.662,42.574 47.651,42.636H47.641V42.163H47.155V44.23H47.693V43.469C47.693,43.418 47.693,43.366 47.693,43.294C47.693,43.232 47.703,43.171 47.713,43.109C47.724,43.047 47.734,42.986 47.755,42.924C47.775,42.873 47.796,42.811 47.827,42.77C47.858,42.729 47.9,42.688 47.951,42.657C48.003,42.626 48.075,42.616 48.137,42.616C48.179,42.616 48.22,42.616 48.261,42.626C48.303,42.626 48.344,42.646 48.386,42.657V42.111C48.354,42.111 48.334,42.101 48.303,42.101C48.272,42.122 48.251,42.122 48.22,42.122Z" id="path_12"/><path fill="#002256ff" d="M50.433,42.965C50.433,42.677 50.361,42.461 50.206,42.327C50.061,42.183 49.844,42.122 49.554,42.122C49.43,42.122 49.296,42.132 49.171,42.163C49.047,42.194 48.923,42.225 48.809,42.276L48.83,42.739C48.923,42.667 49.027,42.616 49.13,42.574C49.244,42.533 49.357,42.513 49.471,42.513C49.544,42.513 49.616,42.523 49.678,42.533C49.73,42.543 49.782,42.574 49.823,42.605C49.864,42.646 49.895,42.688 49.906,42.749C49.926,42.821 49.937,42.893 49.937,42.955H49.802H49.668C49.575,42.955 49.482,42.955 49.389,42.965C49.296,42.975 49.202,42.986 49.12,43.006C49.037,43.027 48.954,43.058 48.882,43.109C48.809,43.15 48.737,43.212 48.685,43.284C48.644,43.335 48.623,43.397 48.603,43.469C48.582,43.531 48.582,43.603 48.582,43.664C48.582,43.757 48.603,43.849 48.644,43.921C48.685,43.993 48.737,44.065 48.809,44.117C48.882,44.168 48.954,44.209 49.047,44.24C49.13,44.271 49.223,44.282 49.316,44.282C49.378,44.282 49.44,44.271 49.513,44.261C49.575,44.24 49.637,44.22 49.688,44.189C49.74,44.158 49.792,44.117 49.844,44.076C49.895,44.035 49.926,43.983 49.968,43.921H49.978C49.978,43.973 49.978,44.024 49.988,44.076C49.999,44.127 49.999,44.179 50.009,44.23H50.485C50.474,44.014 50.464,43.808 50.454,43.603C50.443,43.397 50.433,43.181 50.433,42.965ZM49.947,43.294C49.947,43.366 49.937,43.449 49.916,43.52C49.895,43.592 49.864,43.654 49.823,43.716C49.782,43.767 49.73,43.819 49.668,43.849C49.595,43.88 49.523,43.901 49.44,43.901C49.399,43.901 49.357,43.901 49.316,43.891C49.275,43.88 49.244,43.87 49.202,43.849C49.171,43.829 49.14,43.798 49.12,43.767C49.099,43.736 49.089,43.695 49.089,43.644C49.089,43.582 49.099,43.52 49.14,43.479C49.171,43.438 49.213,43.397 49.264,43.366C49.316,43.335 49.368,43.315 49.43,43.304C49.492,43.294 49.544,43.284 49.606,43.284H49.937V43.294H49.947Z" id="path_13"/><path fill="#002256ff" d="M52.719,42.348C52.657,42.276 52.584,42.215 52.501,42.174C52.398,42.132 52.284,42.112 52.181,42.112C52.046,42.112 51.912,42.132 51.798,42.194C51.685,42.256 51.581,42.338 51.498,42.441H51.488V42.174H50.971V44.241H51.509V43.222C51.509,43.14 51.519,43.068 51.529,42.986C51.54,42.904 51.571,42.832 51.612,42.76C51.643,42.698 51.695,42.636 51.757,42.595C51.819,42.554 51.902,42.523 51.984,42.534C52.046,42.534 52.119,42.544 52.181,42.575C52.232,42.616 52.274,42.667 52.295,42.729C52.315,42.791 52.336,42.852 52.336,42.924C52.336,42.986 52.336,43.058 52.336,43.12V44.22H52.874V42.914C52.874,42.801 52.863,42.698 52.832,42.595C52.822,42.513 52.781,42.431 52.719,42.348Z" id="path_14"/><path fill="#002256ff" d="M54.569,43.839C54.497,43.86 54.425,43.87 54.363,43.87C54.28,43.87 54.187,43.849 54.114,43.819C54.042,43.788 53.98,43.736 53.939,43.664C53.887,43.603 53.856,43.531 53.835,43.449C53.814,43.366 53.804,43.284 53.804,43.191C53.804,43.109 53.814,43.027 53.835,42.944C53.856,42.873 53.887,42.801 53.939,42.739C54.032,42.605 54.197,42.533 54.352,42.533C54.414,42.533 54.476,42.533 54.539,42.543C54.6,42.554 54.662,42.574 54.714,42.605L54.756,42.183C54.673,42.153 54.58,42.142 54.497,42.132C54.404,42.122 54.321,42.122 54.228,42.122C54.083,42.122 53.939,42.142 53.804,42.204C53.68,42.256 53.577,42.327 53.484,42.43C53.39,42.533 53.328,42.646 53.287,42.77C53.236,42.903 53.215,43.047 53.215,43.202C53.215,43.346 53.236,43.5 53.287,43.634C53.328,43.757 53.401,43.88 53.484,43.983C53.577,44.086 53.68,44.158 53.804,44.209C53.949,44.261 54.094,44.292 54.249,44.292C54.342,44.292 54.435,44.292 54.518,44.282C54.611,44.271 54.694,44.251 54.787,44.23L54.766,43.778C54.714,43.798 54.642,43.819 54.569,43.839Z" id="path_15"/><path fill="#002256ff" d="M56.938,42.893C56.927,42.821 56.907,42.739 56.876,42.667C56.855,42.595 56.814,42.523 56.783,42.461C56.741,42.4 56.689,42.338 56.627,42.297C56.565,42.256 56.503,42.214 56.431,42.184C56.359,42.153 56.286,42.142 56.214,42.122C56.141,42.111 56.059,42.101 55.986,42.101C55.841,42.101 55.697,42.132 55.562,42.184C55.449,42.235 55.345,42.317 55.262,42.42C55.18,42.523 55.118,42.636 55.087,42.77C55.045,42.903 55.025,43.047 55.025,43.191C55.025,43.346 55.045,43.5 55.097,43.654C55.138,43.778 55.211,43.901 55.304,43.993C55.397,44.086 55.521,44.158 55.645,44.199C55.79,44.251 55.955,44.271 56.11,44.271C56.235,44.271 56.359,44.261 56.483,44.24C56.607,44.22 56.721,44.179 56.824,44.107V43.664C56.721,43.726 56.607,43.778 56.493,43.819C56.379,43.86 56.255,43.88 56.131,43.88C56.059,43.88 55.976,43.87 55.903,43.85C55.841,43.829 55.779,43.798 55.717,43.747C55.666,43.706 55.624,43.644 55.593,43.582C55.562,43.51 55.542,43.438 55.531,43.366H56.969V43.346C56.969,43.274 56.969,43.202 56.958,43.119C56.969,43.047 56.948,42.975 56.938,42.893ZM55.542,42.996C55.542,42.934 55.562,42.862 55.583,42.801C55.604,42.739 55.635,42.688 55.676,42.646C55.717,42.605 55.769,42.564 55.821,42.543C55.883,42.523 55.945,42.502 56.017,42.502C56.079,42.502 56.152,42.513 56.214,42.543C56.265,42.564 56.317,42.605 56.348,42.646C56.39,42.688 56.41,42.749 56.431,42.801C56.452,42.862 56.462,42.924 56.462,42.996H55.542Z" id="path_16"/><path fill="#002256ff" d="M9.058,43.778C9.006,43.788 8.955,43.809 8.893,43.819C8.841,43.829 8.779,43.84 8.727,43.84C8.675,43.84 8.624,43.85 8.572,43.85C8.438,43.85 8.293,43.829 8.169,43.778C8.055,43.727 7.951,43.654 7.869,43.572C7.786,43.48 7.724,43.377 7.683,43.253C7.641,43.13 7.61,42.986 7.621,42.852C7.621,42.719 7.641,42.585 7.683,42.451C7.724,42.328 7.786,42.225 7.869,42.132C7.951,42.04 8.055,41.968 8.169,41.917C8.293,41.865 8.427,41.834 8.572,41.834C8.634,41.834 8.686,41.834 8.737,41.845C8.789,41.845 8.841,41.855 8.882,41.865C8.934,41.875 8.975,41.896 9.027,41.906C9.079,41.927 9.13,41.947 9.182,41.978L9.223,41.505C9.12,41.474 9.017,41.444 8.913,41.423C8.81,41.402 8.696,41.392 8.593,41.392C8.417,41.392 8.241,41.413 8.065,41.454C7.91,41.485 7.755,41.557 7.621,41.639C7.486,41.721 7.372,41.834 7.29,41.968C7.186,42.112 7.124,42.287 7.093,42.462C7.072,42.534 7.062,42.605 7.052,42.678C7.041,42.75 7.041,42.821 7.041,42.904C7.041,43.007 7.052,43.099 7.062,43.202C7.072,43.295 7.103,43.387 7.135,43.48C7.166,43.572 7.217,43.654 7.269,43.737C7.331,43.819 7.393,43.891 7.476,43.953C7.558,44.014 7.641,44.076 7.724,44.117C7.807,44.158 7.9,44.2 7.993,44.23C8.086,44.261 8.179,44.282 8.282,44.292C8.386,44.302 8.479,44.313 8.582,44.313C8.686,44.313 8.799,44.302 8.903,44.292C9.006,44.282 9.12,44.251 9.223,44.23L9.203,43.757C9.151,43.747 9.11,43.768 9.058,43.778Z" id="path_17"/><path fill="#002256ff" d="M11.343,42.42C11.25,42.318 11.126,42.245 11.002,42.194C10.857,42.143 10.702,42.112 10.547,42.112C10.392,42.112 10.237,42.132 10.092,42.194C9.968,42.245 9.844,42.318 9.751,42.42C9.658,42.523 9.575,42.636 9.534,42.77C9.482,42.914 9.451,43.068 9.461,43.212C9.461,43.367 9.482,43.511 9.544,43.644C9.596,43.768 9.668,43.881 9.772,43.984C9.875,44.076 9.989,44.148 10.113,44.199C10.257,44.251 10.402,44.282 10.557,44.282C10.713,44.282 10.857,44.261 11.002,44.21C11.126,44.158 11.25,44.086 11.343,43.994C11.436,43.901 11.519,43.788 11.571,43.654C11.623,43.511 11.654,43.367 11.654,43.212C11.654,43.058 11.633,42.904 11.581,42.77C11.519,42.636 11.436,42.523 11.343,42.42ZM11.054,43.408C11.043,43.49 11.012,43.562 10.971,43.634C10.93,43.706 10.878,43.757 10.816,43.798C10.733,43.84 10.651,43.87 10.557,43.86C10.516,43.86 10.475,43.86 10.423,43.85C10.382,43.84 10.34,43.819 10.299,43.798C10.257,43.768 10.216,43.737 10.175,43.696C10.144,43.654 10.123,43.613 10.102,43.572C10.082,43.531 10.071,43.48 10.061,43.428C10.051,43.377 10.04,43.325 10.03,43.274C10.03,43.253 10.03,43.233 10.02,43.212C10.02,43.192 10.02,43.171 10.02,43.151C10.02,43.068 10.03,42.996 10.051,42.924C10.071,42.852 10.102,42.791 10.144,42.729C10.185,42.667 10.247,42.626 10.309,42.585C10.382,42.544 10.454,42.534 10.537,42.534C10.62,42.534 10.702,42.544 10.775,42.585C10.837,42.616 10.899,42.667 10.94,42.719C10.981,42.78 11.012,42.842 11.033,42.914C11.054,42.986 11.064,43.068 11.064,43.151C11.075,43.243 11.064,43.325 11.054,43.408Z" id="path_18"/><path fill="#002256ff" d="M13.349,43.181C13.349,43.263 13.339,43.335 13.329,43.418C13.318,43.5 13.287,43.572 13.256,43.644C13.225,43.706 13.174,43.767 13.112,43.808C13.039,43.85 12.957,43.881 12.874,43.87C12.812,43.87 12.739,43.85 12.688,43.819C12.636,43.778 12.594,43.726 12.574,43.665C12.553,43.613 12.543,43.572 12.543,43.521C12.543,43.469 12.543,43.418 12.533,43.366C12.533,43.346 12.533,43.335 12.533,43.315C12.533,43.294 12.533,43.284 12.533,43.263V42.163H11.984V43.469C11.984,43.572 11.995,43.685 12.026,43.788C12.046,43.881 12.098,43.973 12.15,44.045C12.212,44.117 12.284,44.179 12.367,44.22C12.47,44.261 12.574,44.282 12.688,44.282C12.957,44.282 13.205,44.158 13.37,43.952H13.38V44.23H13.898V42.163H13.36L13.349,43.181Z" id="path_19"/><path fill="#002256ff" d="M16.204,42.348C16.142,42.276 16.069,42.215 15.986,42.174C15.883,42.132 15.769,42.112 15.666,42.112C15.531,42.112 15.397,42.132 15.283,42.194C15.17,42.256 15.066,42.338 14.983,42.441H14.973V42.174H14.456V44.241H15.004V43.222C15.004,43.14 15.014,43.068 15.025,42.986C15.035,42.904 15.066,42.832 15.107,42.76C15.139,42.698 15.19,42.636 15.252,42.595C15.314,42.554 15.397,42.523 15.48,42.534C15.542,42.534 15.614,42.544 15.676,42.575C15.728,42.616 15.769,42.667 15.79,42.729C15.811,42.791 15.831,42.852 15.831,42.924C15.831,42.986 15.831,43.058 15.831,43.12V44.22H16.369V42.914C16.369,42.801 16.359,42.698 16.328,42.595C16.307,42.513 16.266,42.431 16.204,42.348Z" id="path_20"/><path fill="#002256ff" d="M18.055,43.839C17.982,43.86 17.91,43.87 17.848,43.87C17.765,43.87 17.672,43.85 17.6,43.819C17.527,43.778 17.465,43.736 17.424,43.665C17.372,43.603 17.341,43.531 17.32,43.449C17.3,43.366 17.289,43.284 17.289,43.192C17.289,43.109 17.3,43.027 17.32,42.945C17.341,42.873 17.372,42.801 17.424,42.739C17.465,42.677 17.527,42.626 17.6,42.595C17.672,42.554 17.755,42.544 17.838,42.544C17.9,42.544 17.962,42.544 18.024,42.554C18.086,42.564 18.148,42.585 18.2,42.616L18.251,42.194C18.169,42.163 18.076,42.153 17.993,42.143C17.9,42.132 17.817,42.132 17.724,42.132C17.579,42.132 17.434,42.153 17.289,42.215C17.165,42.266 17.062,42.338 16.969,42.441C16.876,42.544 16.814,42.657 16.772,42.78C16.721,42.914 16.7,43.058 16.7,43.212C16.7,43.356 16.721,43.51 16.772,43.644C16.814,43.767 16.886,43.891 16.969,43.994C17.062,44.097 17.165,44.168 17.289,44.22C17.434,44.271 17.579,44.302 17.734,44.302C17.827,44.302 17.92,44.302 18.003,44.292C18.096,44.282 18.179,44.261 18.272,44.241L18.251,43.788C18.189,43.798 18.127,43.819 18.055,43.839Z" id="path_21"/><path fill="#002256ff" d="M19.203,42.163H18.654V44.23H19.203V42.163Z" id="path_22"/><path fill="#002256ff" d="M20.319,41.227H19.771V44.241H20.319V41.227Z" id="path_23"/><path fill="#002256ff" d="M18.924,41.813C19.072,41.813 19.192,41.694 19.192,41.546C19.192,41.398 19.072,41.279 18.924,41.279C18.775,41.279 18.654,41.398 18.654,41.546C18.654,41.694 18.775,41.813 18.924,41.813Z" id="path_24"/><path fill="#002256ff" d="M22.543,42.132C21.933,42.132 21.467,42.544 21.467,43.212C21.467,43.798 21.86,44.261 22.543,44.261C23.225,44.261 23.618,43.798 23.618,43.212C23.618,42.544 23.153,42.132 22.543,42.132ZM22.543,43.86C22.139,43.86 22.026,43.49 22.026,43.161C22.026,42.852 22.191,42.554 22.543,42.554C22.894,42.554 23.06,42.842 23.06,43.161C23.06,43.49 22.956,43.86 22.543,43.86Z" id="path_25"/><path fill="#002256ff" d="M24.249,41.896V42.184H23.856V42.575H24.249V44.23H24.787V42.575H25.252V42.184H24.777V41.927C24.777,41.772 24.828,41.618 25.014,41.618C25.097,41.618 25.18,41.639 25.242,41.69L25.283,41.248C25.159,41.217 25.025,41.207 24.89,41.207C24.477,41.207 24.249,41.485 24.249,41.896Z" id="path_26"/><path fill="#002256ff" d="M8.086,40.621C8.189,40.662 8.303,40.641 8.375,40.569C8.396,40.549 8.417,40.518 8.427,40.487C8.437,40.456 8.448,40.425 8.448,40.384C8.448,40.353 8.437,40.312 8.427,40.281C8.396,40.22 8.344,40.168 8.282,40.137C8.22,40.106 8.148,40.106 8.076,40.137C8.045,40.147 8.013,40.168 7.993,40.189C7.972,40.209 7.951,40.24 7.941,40.271C7.931,40.302 7.92,40.333 7.92,40.374C7.92,40.405 7.931,40.446 7.941,40.477C7.951,40.507 7.972,40.538 7.993,40.559C8.024,40.579 8.055,40.6 8.086,40.621Z" id="path_27"/><path fill="#002256ff" d="M8.706,40.621C8.737,40.631 8.779,40.641 8.81,40.641C8.841,40.641 8.882,40.631 8.913,40.621C8.975,40.59 9.027,40.538 9.058,40.477C9.068,40.446 9.078,40.415 9.078,40.374C9.078,40.343 9.068,40.302 9.058,40.271C9.047,40.24 9.027,40.209 9.006,40.189C8.985,40.168 8.954,40.148 8.923,40.137C8.892,40.127 8.851,40.117 8.82,40.117C8.789,40.117 8.748,40.127 8.717,40.137C8.655,40.168 8.603,40.22 8.572,40.281C8.561,40.312 8.551,40.343 8.551,40.384C8.551,40.415 8.561,40.456 8.572,40.487C8.582,40.518 8.603,40.549 8.623,40.569C8.644,40.579 8.675,40.6 8.706,40.621Z" id="path_28"/><path fill="#002256ff" d="M20.837,38.498H19.606V38.179C19.606,38.035 19.585,37.891 19.554,37.758C19.523,37.634 19.461,37.521 19.389,37.418C19.316,37.326 19.213,37.243 19.099,37.192C18.965,37.13 18.83,37.11 18.685,37.11C18.551,37.11 18.417,37.13 18.292,37.172C18.168,37.213 18.055,37.274 17.951,37.346C17.848,37.418 17.755,37.5 17.662,37.603C17.579,37.696 17.496,37.799 17.424,37.902C17.362,37.994 17.3,38.097 17.248,38.21C17.196,38.303 17.155,38.395 17.124,38.488C17.041,38.488 16.958,38.478 16.876,38.457C16.793,38.447 16.71,38.416 16.638,38.364C16.638,38.323 16.648,38.292 16.648,38.251V37.655H16.121V38.179C16.121,38.231 16.121,38.272 16.111,38.323C16.1,38.354 16.09,38.385 16.069,38.416C16.049,38.436 16.017,38.457 15.986,38.467C15.945,38.478 15.914,38.478 15.873,38.478H15.108C15.076,38.478 15.045,38.457 15.025,38.426C14.994,38.385 14.983,38.333 14.963,38.282C14.942,38.21 14.932,38.148 14.921,38.076C14.911,38.005 14.89,37.922 14.88,37.84C14.87,37.747 14.839,37.645 14.797,37.562C14.756,37.48 14.704,37.408 14.642,37.346C14.57,37.285 14.497,37.233 14.404,37.202C14.301,37.161 14.197,37.151 14.084,37.151C13.97,37.151 13.866,37.161 13.763,37.182C13.67,37.202 13.567,37.223 13.474,37.254V37.675C13.515,37.655 13.567,37.645 13.608,37.624C13.66,37.614 13.701,37.603 13.753,37.593C13.804,37.583 13.846,37.583 13.887,37.572C13.929,37.572 13.96,37.562 13.991,37.562C14.063,37.562 14.135,37.583 14.197,37.624C14.249,37.665 14.29,37.716 14.321,37.768C14.352,37.83 14.384,37.902 14.394,37.974C14.415,38.046 14.425,38.128 14.435,38.2C14.446,38.251 14.456,38.303 14.477,38.354C14.487,38.395 14.508,38.436 14.528,38.478H11.105C11.074,38.478 11.043,38.478 11.012,38.467C10.992,38.457 10.961,38.447 10.95,38.416C10.93,38.385 10.919,38.344 10.919,38.313C10.909,38.251 10.909,38.19 10.909,38.128V37.243H10.278C9.958,37.243 9.73,37.315 9.575,37.459C9.42,37.603 9.347,37.819 9.347,38.107V38.796C9.347,38.868 9.327,38.94 9.296,39.002C9.254,39.074 9.203,39.136 9.13,39.177C9.047,39.228 8.965,39.28 8.872,39.3C8.758,39.331 8.644,39.352 8.53,39.352C8.417,39.352 8.303,39.341 8.189,39.321C8.106,39.3 8.013,39.269 7.941,39.228C7.879,39.197 7.817,39.156 7.765,39.095C7.724,39.053 7.693,39.002 7.662,38.94C7.641,38.889 7.62,38.838 7.61,38.786C7.6,38.735 7.6,38.693 7.6,38.642C7.6,38.591 7.6,38.539 7.61,38.488C7.62,38.436 7.631,38.385 7.651,38.333C7.662,38.282 7.682,38.231 7.713,38.19C7.734,38.148 7.755,38.107 7.786,38.066L7.362,37.84C7.321,37.891 7.279,37.953 7.248,38.015C7.207,38.087 7.176,38.148 7.155,38.22C7.124,38.292 7.103,38.375 7.093,38.447C7.083,38.519 7.072,38.601 7.072,38.683C7.072,38.755 7.083,38.827 7.093,38.889C7.114,38.971 7.145,39.053 7.186,39.136C7.227,39.228 7.289,39.311 7.352,39.382C7.434,39.465 7.517,39.537 7.62,39.598C7.745,39.67 7.869,39.722 8.013,39.753C8.189,39.794 8.365,39.814 8.541,39.814C8.737,39.814 8.923,39.784 9.11,39.722C9.265,39.67 9.409,39.588 9.534,39.485C9.647,39.393 9.73,39.28 9.802,39.146C9.864,39.023 9.895,38.889 9.895,38.755V38.148C9.895,38.066 9.906,37.984 9.927,37.902C9.947,37.85 9.978,37.799 10.02,37.758C10.061,37.716 10.123,37.696 10.175,37.686C10.247,37.675 10.319,37.665 10.382,37.665V38.272C10.382,38.375 10.392,38.467 10.433,38.57C10.464,38.642 10.516,38.714 10.578,38.765C10.64,38.817 10.702,38.858 10.774,38.879C10.847,38.899 10.919,38.909 11.002,38.909H16.08C16.183,38.909 16.276,38.889 16.369,38.848C16.441,38.817 16.503,38.765 16.555,38.693C16.659,38.776 16.772,38.827 16.896,38.858C17.052,38.889 17.217,38.909 17.372,38.909H21.405V35.989H20.868V38.498H20.837ZM19.079,38.498H17.641C17.682,38.375 17.744,38.251 17.817,38.138C17.879,38.035 17.962,37.932 18.044,37.84C18.117,37.758 18.21,37.686 18.313,37.634C18.396,37.583 18.489,37.562 18.592,37.562C18.654,37.562 18.727,37.572 18.778,37.593C18.841,37.614 18.892,37.655 18.934,37.706C18.985,37.768 19.016,37.84 19.037,37.912C19.068,38.015 19.079,38.118 19.079,38.231V38.498Z" id="path_29"/><path fill="#002256ff" d="M22.429,36.02H21.902V38.94H22.429V36.02Z" id="path_30"/><path fill="#002256ff" d="M24.973,37.196C24.994,37.217 25.025,37.237 25.056,37.248C25.118,37.278 25.19,37.278 25.263,37.248C25.325,37.217 25.376,37.176 25.407,37.104C25.438,37.042 25.438,36.97 25.407,36.898C25.397,36.867 25.376,36.836 25.356,36.816C25.335,36.795 25.304,36.775 25.273,36.764C25.211,36.734 25.138,36.734 25.066,36.764C25.035,36.775 25.004,36.795 24.983,36.816C24.963,36.836 24.942,36.867 24.932,36.898C24.901,36.96 24.901,37.032 24.932,37.104C24.932,37.145 24.942,37.176 24.973,37.196Z" id="path_31"/><path fill="#002256ff" d="M26.421,38.368C26.41,38.296 26.4,38.214 26.379,38.142C26.359,38.06 26.338,37.988 26.317,37.916C26.297,37.844 26.276,37.772 26.255,37.72L25.738,37.864C25.769,37.926 25.79,37.988 25.811,38.06C25.831,38.132 25.852,38.193 25.862,38.255C25.873,38.317 25.883,38.378 25.893,38.44C25.904,38.492 25.904,38.533 25.904,38.584C25.904,38.851 25.842,39.057 25.718,39.201C25.594,39.345 25.397,39.417 25.138,39.417C25.035,39.417 24.932,39.396 24.838,39.366C24.756,39.335 24.673,39.283 24.611,39.211C24.549,39.15 24.497,39.067 24.466,38.985C24.435,38.893 24.415,38.8 24.415,38.697C24.415,38.646 24.415,38.594 24.425,38.543C24.435,38.492 24.446,38.44 24.456,38.389C24.466,38.337 24.487,38.296 24.497,38.245C24.518,38.203 24.539,38.162 24.559,38.121L24.135,37.885C24.094,37.946 24.063,38.018 24.032,38.08C24.001,38.152 23.97,38.224 23.949,38.296C23.928,38.368 23.908,38.45 23.887,38.522C23.877,38.594 23.867,38.666 23.867,38.738C23.867,38.882 23.887,39.026 23.939,39.17C23.991,39.304 24.073,39.427 24.177,39.53C24.291,39.643 24.425,39.726 24.58,39.777C24.766,39.839 24.963,39.869 25.159,39.869C25.345,39.869 25.531,39.839 25.707,39.777C25.862,39.715 25.997,39.623 26.111,39.51C26.224,39.396 26.307,39.252 26.369,39.098C26.431,38.934 26.462,38.759 26.452,38.584C26.441,38.512 26.431,38.44 26.421,38.368Z" id="path_32"/><path fill="#002256ff" d="M35.945,36.734C35.966,36.754 35.997,36.775 36.028,36.785C36.059,36.795 36.1,36.806 36.131,36.806C36.162,36.806 36.204,36.795 36.235,36.785C36.297,36.754 36.348,36.703 36.379,36.641C36.41,36.579 36.41,36.507 36.379,36.435C36.348,36.374 36.297,36.322 36.235,36.291C36.204,36.281 36.162,36.271 36.131,36.271C36.1,36.271 36.059,36.281 36.028,36.291C35.997,36.302 35.966,36.322 35.945,36.343C35.924,36.363 35.904,36.394 35.893,36.425C35.862,36.487 35.862,36.559 35.893,36.631C35.904,36.682 35.924,36.713 35.945,36.734Z" id="path_33"/><path fill="#002256ff" d="M39.606,36.02H39.068V38.498H37.62V38.179C37.62,38.035 37.6,37.891 37.569,37.758C37.538,37.634 37.476,37.521 37.403,37.418C37.331,37.326 37.227,37.243 37.114,37.192C36.979,37.13 36.845,37.11 36.7,37.11C36.565,37.11 36.431,37.13 36.307,37.171C36.183,37.212 36.069,37.274 35.966,37.346C35.862,37.418 35.769,37.5 35.676,37.603C35.593,37.696 35.511,37.799 35.438,37.902C35.376,37.994 35.314,38.097 35.263,38.21C35.211,38.303 35.169,38.395 35.139,38.488C35.056,38.488 34.973,38.477 34.89,38.457C34.807,38.446 34.725,38.416 34.652,38.364C34.652,38.323 34.663,38.292 34.663,38.251V37.655H34.135V38.179C34.135,38.23 34.135,38.272 34.125,38.323C34.115,38.354 34.104,38.385 34.084,38.416C34.063,38.436 34.032,38.457 34.001,38.467C33.959,38.477 33.929,38.477 33.887,38.477H30.526C30.371,38.477 30.206,38.446 30.061,38.385L30.009,38.364C30.02,38.323 30.03,38.292 30.03,38.251C30.04,38.21 30.04,38.169 30.04,38.128C30.04,38.056 30.03,37.994 30.02,37.922C30.009,37.85 29.978,37.778 29.947,37.716C29.916,37.644 29.875,37.583 29.823,37.521C29.771,37.459 29.72,37.408 29.647,37.367C29.575,37.315 29.502,37.285 29.42,37.264C29.327,37.233 29.234,37.223 29.141,37.223C29.058,37.223 28.975,37.233 28.903,37.264C28.799,37.295 28.717,37.346 28.634,37.408C28.53,37.5 28.437,37.603 28.365,37.727C28.262,37.902 28.189,38.076 28.137,38.272C28.106,38.405 27.993,38.488 27.858,38.488H27.672C27.631,38.488 27.6,38.488 27.569,38.477C27.538,38.467 27.517,38.446 27.496,38.426C27.476,38.395 27.455,38.354 27.455,38.323C27.445,38.272 27.434,38.21 27.434,38.159V36.02H26.907V38.261C26.907,38.354 26.917,38.446 26.948,38.539C26.969,38.621 27.01,38.693 27.062,38.745C27.114,38.806 27.186,38.858 27.258,38.889C27.351,38.92 27.455,38.94 27.548,38.94H27.931C28.137,38.951 28.344,38.858 28.458,38.683C28.499,38.714 28.541,38.745 28.582,38.786C28.634,38.817 28.686,38.848 28.737,38.878C28.799,38.909 28.872,38.93 28.944,38.94C29.027,38.961 29.12,38.961 29.203,38.961C29.327,38.961 29.451,38.94 29.575,38.889C29.678,38.848 29.771,38.776 29.844,38.704C29.844,38.704 30.082,38.94 30.33,38.94H34.073C34.177,38.94 34.27,38.92 34.363,38.878C34.435,38.848 34.497,38.796 34.549,38.724C34.652,38.806 34.766,38.858 34.89,38.889C35.045,38.92 35.211,38.94 35.366,38.94H39.616L39.606,36.02ZM29.502,38.323C29.482,38.375 29.451,38.416 29.409,38.446C29.368,38.477 29.316,38.498 29.265,38.508C29.161,38.539 29.047,38.539 28.944,38.519C28.892,38.508 28.851,38.498 28.799,38.477C28.758,38.467 28.717,38.446 28.675,38.426C28.644,38.416 28.613,38.395 28.592,38.375C28.613,38.282 28.634,38.2 28.665,38.118C28.696,38.035 28.737,37.963 28.779,37.891C28.82,37.829 28.872,37.778 28.923,37.737C28.975,37.696 29.037,37.675 29.11,37.675C29.172,37.675 29.234,37.696 29.296,37.727C29.347,37.758 29.389,37.799 29.43,37.85C29.461,37.902 29.492,37.953 29.513,38.004C29.534,38.056 29.534,38.107 29.544,38.159C29.544,38.2 29.534,38.261 29.502,38.323ZM37.093,38.498H35.655C35.697,38.375 35.759,38.251 35.831,38.138C35.893,38.035 35.976,37.932 36.059,37.84C36.141,37.758 36.224,37.686 36.328,37.634C36.41,37.583 36.504,37.562 36.607,37.562C36.669,37.562 36.731,37.572 36.793,37.593C36.855,37.613 36.907,37.655 36.948,37.706C37,37.768 37.031,37.84 37.052,37.912C37.083,38.015 37.093,38.118 37.093,38.23V38.498Z" id="path_34"/><path fill="#002256ff" d="M40.661,36.065H40.133V38.986H40.661V36.065Z" id="path_35"/><path fill="#002256ff" d="M53.349,39.674C53.36,39.643 53.37,39.612 53.37,39.571C53.37,39.54 53.36,39.499 53.349,39.468C53.339,39.438 53.318,39.407 53.298,39.386C53.277,39.366 53.246,39.345 53.215,39.335C53.153,39.304 53.07,39.304 53.008,39.335C52.977,39.345 52.946,39.366 52.925,39.386C52.905,39.407 52.884,39.438 52.874,39.468C52.863,39.499 52.853,39.53 52.853,39.571C52.853,39.602 52.863,39.643 52.874,39.674C52.905,39.736 52.956,39.787 53.018,39.818C53.081,39.849 53.163,39.849 53.225,39.818C53.277,39.787 53.329,39.736 53.349,39.674Z" id="path_36"/><path fill="#002256ff" d="M55.418,38.728C55.459,38.759 55.5,38.79 55.542,38.831C55.593,38.862 55.645,38.893 55.697,38.924C55.759,38.955 55.831,38.975 55.904,38.985C55.986,39.006 56.079,39.006 56.162,39.006C56.286,39.006 56.41,38.985 56.524,38.934C56.721,38.852 56.876,38.687 56.948,38.492C56.989,38.399 57,38.286 57,38.183C57,38.111 56.989,38.05 56.979,37.978C56.948,37.834 56.876,37.7 56.783,37.577C56.731,37.515 56.679,37.463 56.607,37.422C56.534,37.371 56.462,37.34 56.379,37.319C56.286,37.289 56.193,37.278 56.1,37.278C56.017,37.278 55.935,37.289 55.862,37.319C55.759,37.35 55.676,37.402 55.593,37.463C55.49,37.556 55.397,37.659 55.325,37.782C55.221,37.947 55.149,38.132 55.097,38.317C55.076,38.379 55.045,38.44 54.983,38.481C54.932,38.512 54.404,38.533 54.332,38.533H54.053C54.022,38.533 53.98,38.512 53.97,38.481C53.939,38.44 53.929,38.389 53.908,38.338C53.887,38.265 53.877,38.204 53.866,38.132C53.856,38.06 53.846,37.978 53.825,37.895C53.815,37.803 53.784,37.7 53.742,37.618C53.701,37.535 53.649,37.463 53.587,37.402C53.515,37.34 53.443,37.289 53.349,37.258C53.246,37.217 53.143,37.206 53.039,37.206C52.925,37.206 52.822,37.217 52.718,37.237C52.625,37.258 52.522,37.278 52.429,37.309V37.731C52.47,37.71 52.512,37.7 52.563,37.679C52.615,37.669 52.657,37.659 52.708,37.648C52.76,37.638 52.801,37.638 52.843,37.628C52.884,37.618 52.915,37.618 52.946,37.618C53.019,37.618 53.091,37.638 53.153,37.679C53.205,37.721 53.246,37.772 53.277,37.823C53.308,37.885 53.329,37.957 53.349,38.029C53.37,38.101 53.38,38.183 53.391,38.255C53.401,38.307 53.411,38.358 53.432,38.41C53.443,38.451 53.463,38.492 53.484,38.533H48.934C48.851,38.533 48.768,38.523 48.696,38.512C48.623,38.502 48.551,38.481 48.479,38.451C48.479,38.43 48.479,38.399 48.489,38.379C48.489,38.358 48.489,38.327 48.489,38.307V36.044H47.962V38.235C47.962,38.286 47.962,38.327 47.951,38.379C47.941,38.41 47.931,38.44 47.91,38.471C47.889,38.492 47.858,38.512 47.827,38.523C47.786,38.533 47.755,38.533 47.713,38.533H47.476C47.393,38.533 47.31,38.523 47.238,38.512C47.165,38.502 47.093,38.481 47.021,38.451C47.021,38.43 47.021,38.399 47.031,38.379C47.031,38.358 47.031,38.327 47.031,38.307V37.309H46.503V38.235C46.503,38.286 46.503,38.327 46.493,38.379C46.483,38.41 46.472,38.44 46.452,38.471C46.431,38.492 46.4,38.512 46.369,38.523C46.328,38.533 46.297,38.533 46.255,38.533C46.183,38.533 46.111,38.523 46.048,38.502C45.976,38.481 45.893,38.451 45.831,38.41C45.831,38.389 45.831,38.379 45.831,38.358C45.831,38.338 45.831,38.327 45.831,38.307V37.535H45.294V38.245C45.294,38.296 45.294,38.338 45.283,38.389C45.273,38.42 45.263,38.451 45.242,38.481C45.221,38.502 45.19,38.523 45.159,38.533C45.118,38.543 45.087,38.543 45.045,38.543C44.911,38.543 44.777,38.502 44.663,38.44C44.652,38.379 44.642,38.317 44.632,38.255C44.621,38.194 44.601,38.132 44.59,38.06C44.57,37.998 44.559,37.937 44.539,37.875C44.518,37.813 44.508,37.762 44.487,37.71L43.97,37.854C44.001,37.916 44.022,37.978 44.042,38.05C44.063,38.122 44.084,38.183 44.094,38.245C44.104,38.307 44.115,38.368 44.125,38.43C44.135,38.481 44.135,38.523 44.135,38.574C44.135,38.841 44.073,39.047 43.949,39.191C43.825,39.335 43.629,39.407 43.37,39.407C43.267,39.407 43.163,39.387 43.07,39.356C42.987,39.325 42.905,39.273 42.843,39.201C42.781,39.14 42.729,39.057 42.698,38.975C42.667,38.883 42.646,38.79 42.646,38.687C42.646,38.636 42.646,38.584 42.657,38.533C42.667,38.481 42.677,38.43 42.688,38.379C42.698,38.327 42.719,38.286 42.729,38.235C42.75,38.194 42.77,38.152 42.791,38.111L42.367,37.875C42.326,37.937 42.295,38.008 42.264,38.07C42.232,38.142 42.201,38.214 42.181,38.286C42.16,38.358 42.139,38.44 42.119,38.512C42.109,38.584 42.098,38.656 42.098,38.728C42.098,38.872 42.119,39.016 42.171,39.16C42.222,39.294 42.305,39.417 42.408,39.52C42.522,39.633 42.657,39.716 42.812,39.767C42.998,39.829 43.194,39.86 43.391,39.86C43.556,39.86 43.711,39.839 43.867,39.788C44.001,39.746 44.135,39.674 44.239,39.582C44.342,39.489 44.435,39.387 44.508,39.263C44.58,39.14 44.632,38.996 44.652,38.862C44.725,38.893 44.797,38.924 44.88,38.944C44.963,38.965 45.056,38.975 45.149,38.975H45.242C45.345,38.975 45.438,38.955 45.531,38.924C45.604,38.893 45.666,38.841 45.718,38.77C45.8,38.831 45.904,38.883 45.997,38.913C46.111,38.955 46.235,38.975 46.359,38.975H46.452C46.545,38.975 46.628,38.965 46.71,38.934C46.783,38.903 46.834,38.862 46.886,38.811C46.969,38.862 47.052,38.903 47.145,38.934C47.258,38.965 47.372,38.985 47.496,38.975H47.92C48.013,38.975 48.096,38.965 48.179,38.934C48.21,38.924 48.23,38.913 48.251,38.893C48.282,38.872 48.324,38.841 48.344,38.811C48.427,38.862 48.51,38.903 48.603,38.934C48.716,38.965 48.841,38.985 48.954,38.975H54.911C55.107,38.996 55.304,38.903 55.418,38.728ZM55.655,38.152C55.686,38.07 55.717,37.998 55.769,37.926C55.811,37.864 55.862,37.813 55.914,37.772C55.966,37.731 56.028,37.71 56.1,37.71C56.162,37.71 56.224,37.731 56.286,37.762C56.338,37.792 56.379,37.834 56.421,37.885C56.452,37.937 56.483,37.988 56.503,38.039C56.524,38.091 56.524,38.142 56.534,38.194C56.534,38.255 56.524,38.317 56.503,38.368C56.483,38.42 56.452,38.461 56.41,38.492C56.369,38.523 56.317,38.543 56.266,38.554C56.162,38.584 56.048,38.584 55.945,38.564C55.893,38.554 55.852,38.543 55.8,38.523C55.759,38.512 55.717,38.492 55.676,38.471C55.645,38.461 55.614,38.44 55.593,38.42C55.593,38.327 55.624,38.235 55.655,38.152Z" id="path_37"/><path fill="@drawable/$partner_coi__1" d="M53.69,24.101H44.094C42.253,24.101 40.764,25.582 40.764,27.412C40.764,27.412 40.764,28.266 40.764,28.317H39.151C39.11,26.692 37.776,25.386 36.131,25.386H35.645V27.803C35.614,28.101 35.366,28.327 35.066,28.327H33.805C33.639,25.633 31.312,23.576 28.603,23.741C26.121,23.885 24.135,25.859 23.98,28.327H22.657C22.398,28.327 22.315,28.266 22.295,28.245C22.295,28.245 22.212,28.163 22.212,27.793V22.044C22.212,20.358 20.837,19 19.141,19H18.686V28.687C18.686,29.603 18.892,30.292 19.296,30.744C19.72,31.217 20.392,31.464 21.302,31.464H23.256C23.381,31.464 23.505,31.464 23.629,31.444C23.67,31.444 23.711,31.433 23.774,31.433C24.042,31.413 24.311,31.361 24.57,31.269C24.622,31.248 24.663,31.238 24.715,31.217C26.152,33.49 29.161,34.189 31.467,32.791L31.529,32.75C31.55,32.739 31.571,32.719 31.602,32.708C32.212,32.328 32.739,31.814 33.122,31.207C33.174,31.228 33.215,31.248 33.267,31.258C33.463,31.32 33.67,31.372 33.867,31.402C33.949,31.413 34.042,31.423 34.125,31.433C34.332,31.454 34.539,31.454 34.735,31.464H34.797H35.469C35.852,31.464 36.245,31.454 36.628,31.413C36.917,31.392 37.196,31.31 37.445,31.166C37.693,31.31 37.972,31.392 38.262,31.413C38.613,31.444 39.027,31.464 39.513,31.464H53.236H53.67C55.511,31.464 57,29.983 57,28.163V27.423C57.021,25.582 55.531,24.101 53.69,24.101ZM31.023,28.759C30.95,29.921 29.937,30.806 28.758,30.724C27.579,30.641 26.7,29.644 26.772,28.482C26.845,27.423 27.693,26.579 28.758,26.517C29.937,26.445 30.94,27.33 31.012,28.502C31.023,28.585 31.023,28.677 31.023,28.759ZM53.318,28.677H44.508C44.001,28.687 43.587,28.297 43.577,27.803C43.567,27.309 43.959,26.888 44.466,26.878C44.487,26.878 44.497,26.878 44.518,26.878H53.318C53.825,26.888 54.218,27.309 54.208,27.803C54.187,28.286 53.804,28.667 53.318,28.677Z" id="path_38"/><path fill="@drawable/$partner_coi__2" d="M12.295,22.959C13.06,23.01 13.722,22.434 13.773,21.674C13.825,20.913 13.246,20.254 12.47,20.203C11.705,20.152 11.043,20.727 10.992,21.488C10.992,21.55 10.992,21.612 10.992,21.674C11.043,22.362 11.591,22.918 12.295,22.959Z" id="path_39"/><path fill="@drawable/$partner_coi__3" d="M14.653,24.121H14.198V28.194C14.198,29.201 13.38,30.014 12.357,30.014C12.346,30.014 12.336,30.014 12.326,30.014C11.333,30.003 10.516,29.17 10.516,28.163V27.175C10.516,25.489 9.141,24.131 7.455,24.131H7V28.152C7,31.094 9.389,33.5 12.315,33.521H12.346C15.304,33.521 17.693,31.145 17.693,28.204V27.175C17.724,25.479 16.348,24.121 14.653,24.121Z" id="path_40"/></svg>