<svg id="vector" xmlns="http://www.w3.org/2000/svg" width="64.0d" height="64.0d" viewBox="0 0 64.0 64.0"><path fill="#ffffffff" d="M32,32m-31.75,0a31.75,31.75 0,1 1,63.5 0a31.75,31.75 0,1 1,-63.5 0" stroke="#e6e6e6ff" stroke-width="0.5" id="path_0"/><path fill="#3c7dcaff" d="M31.874,55.167C18.991,55.167 8.562,44.739 8.562,31.856C8.562,18.991 18.991,8.545 31.874,8.545C44.739,8.545 55.185,18.973 55.185,31.856C55.185,44.721 44.757,55.167 31.874,55.167ZM31.856,7.111C18.184,7.111 7.111,18.184 7.111,31.856C7.111,45.528 18.184,56.601 31.856,56.601C45.528,56.601 56.601,45.528 56.601,31.856C56.601,18.184 45.528,7.111 31.856,7.111Z" id="path_1"/><path fill="#3c7dcaff" d="M31.856,9.871C19.743,9.871 9.87,19.726 9.87,31.856C9.87,43.969 19.726,53.842 31.856,53.842C43.969,53.842 53.842,43.987 53.842,31.856C53.842,19.726 43.969,9.871 31.856,9.871ZM31.856,54.612C19.295,54.612 9.082,44.399 9.082,31.838C9.082,19.278 19.295,9.064 31.856,9.064C44.417,9.064 54.63,19.278 54.63,31.838C54.63,44.399 44.417,54.612 31.856,54.612Z" id="path_2"/><path fill="#3c7dcaff" d="M18.435,22.7C21.768,19.349 23.918,18.758 26.588,18.328C23.847,20.066 21.302,24.097 22.091,26.946C23.542,23.936 26.051,20.98 28.38,19.923C27.072,21.768 27.018,24.062 28.29,26.015C28.577,23.47 30.369,21.033 31.856,19.385C33.343,21.015 35.135,23.47 35.422,26.015C36.694,24.062 36.64,21.75 35.332,19.923C37.661,20.998 40.17,23.936 41.621,26.946C42.41,24.097 39.866,20.066 37.124,18.328C39.794,18.74 41.944,19.349 45.277,22.7C44.184,18.22 40.296,16.661 37.196,16.106C40.6,15.819 41.281,16.16 44.291,17.414C41.012,14.207 38.719,13.615 35.44,13.938C35.995,13.454 36.533,13.185 37.357,12.97C35.977,12.433 33.827,12.719 33.003,13.508C33.003,13.508 32.841,12.038 31.856,11.447V11.429C31.856,11.429 31.856,11.429 31.838,11.429C31.838,11.429 31.838,11.429 31.82,11.429V11.447C30.835,12.038 30.673,13.508 30.673,13.508C29.831,12.701 27.681,12.415 26.319,12.97C27.144,13.185 27.681,13.454 28.237,13.938C24.958,13.633 22.664,14.207 19.385,17.414C22.395,16.16 23.076,15.819 26.481,16.106C23.417,16.679 19.528,18.22 18.435,22.7Z" id="path_3"/><path fill="#3c7dcaff" d="M47.391,42.087C47.391,42.087 40.063,42.571 31.856,45.868C23.649,42.571 16.321,42.087 16.321,42.087C21.446,42.911 26.015,44.918 29.509,46.871C27.968,47.588 26.409,48.395 24.886,49.344C24.886,49.344 25.961,51.154 27.269,51.62C27.269,51.62 28.971,50.115 31.856,48.287C34.741,50.115 36.443,51.62 36.443,51.62C37.751,51.172 38.826,49.344 38.826,49.344C37.303,48.412 35.744,47.588 34.203,46.871C37.697,44.9 42.284,42.894 47.391,42.087Z" id="path_4"/><path fill="#3c7dcaff" d="M22.861,42.32C28.344,43.413 31.784,44.793 31.784,44.793C31.784,44.793 35.028,43.449 40.69,42.302C40.475,41.747 40.063,40.761 37.895,40.761C36.873,40.761 35.78,41.335 35.78,41.335C35.78,41.335 36.336,39.668 38.522,39.668C38.289,38.002 37.034,36.264 34.4,36.264C32.806,36.264 31.731,37.088 30.978,37.912C31.48,38.36 31.551,39.346 31.551,39.346C31.551,39.346 30.369,38.145 29.025,38.145C27.932,38.145 26.767,38.629 26.337,40.116C27.341,40.116 27.896,41.389 27.896,41.389C27.896,41.389 26.839,40.725 25.513,40.725C23.918,40.797 23.166,41.496 22.861,42.32Z" id="path_5"/><path fill="#3c7dcaff" d="M28.093,37.231C28.882,36.909 29.616,36.963 30.315,37.16C31.587,35.655 33.092,35.117 34.759,35.117C35.458,35.117 36.085,35.225 36.64,35.422C36.873,34.83 36.999,34.185 36.999,33.522C36.999,30.638 34.651,28.29 31.767,28.29C28.882,28.29 26.534,30.638 26.534,33.522C26.534,34.974 27.126,36.282 28.093,37.231Z" id="path_6"/><path fill="#3c7dcaff" d="M32.34,27.233L32.053,20.89C32.035,20.604 31.605,20.604 31.605,20.89L31.319,27.197C31.426,27.197 31.534,27.18 31.641,27.18C31.874,27.18 32.107,27.197 32.34,27.233Z" id="path_7"/><path fill="#3c7dcaff" d="M41.371,33.021L37.966,32.734C37.984,32.949 38.002,33.164 38.002,33.379C38.002,33.505 37.984,33.63 37.984,33.755L41.371,33.469C41.657,33.451 41.657,33.021 41.371,33.021Z" id="path_8"/><path fill="#3c7dcaff" d="M25.638,32.734L22.18,33.021C21.893,33.039 21.893,33.469 22.18,33.469L25.621,33.755C25.621,33.63 25.603,33.505 25.603,33.379C25.603,33.164 25.621,32.949 25.638,32.734Z" id="path_9"/><path fill="#3c7dcaff" d="M27.86,28.595L25.137,26.301C24.922,26.104 24.617,26.409 24.814,26.624L27.108,29.33C27.341,29.061 27.591,28.828 27.86,28.595Z" id="path_10"/><path fill="#3c7dcaff" d="M36.443,29.294L38.701,26.606C38.898,26.391 38.593,26.086 38.378,26.283L35.69,28.559C35.977,28.792 36.21,29.043 36.443,29.294Z" id="path_11"/><path fill="#3c7dcaff" d="M38.987,30.566C39.256,30.441 39.095,30.046 38.808,30.154L37.249,30.476C37.411,30.763 37.536,31.068 37.644,31.39" id="path_12"/><path fill="#3c7dcaff" d="M24.402,36.049C24.133,36.174 24.295,36.569 24.581,36.461L26.23,36.049C26.086,35.762 25.961,35.458 25.871,35.135" id="path_13"/><path fill="#3c7dcaff" d="M37.536,35.637L38.916,36.371C39.185,36.479 39.202,36.228 38.952,36.103L37.679,35.278C37.644,35.386 37.536,35.637 37.536,35.637Z" id="path_14"/><path fill="#3c7dcaff" d="M24.599,30.082C24.33,29.975 24.169,30.369 24.42,30.494L25.925,31.39C26.033,31.068 26.158,30.763 26.319,30.476" id="path_15"/><path fill="#3c7dcaff" d="M28.989,26.051C28.864,25.782 28.469,25.943 28.577,26.212L28.989,27.86C29.276,27.717 29.58,27.592 29.903,27.484" id="path_16"/><path fill="#3c7dcaff" d="M35.261,26.212C35.35,25.943 34.956,25.782 34.848,26.051L33.917,27.574C34.239,27.681 34.544,27.824 34.831,27.986" id="path_17"/></svg>