<svg id="vector" xmlns="http://www.w3.org/2000/svg" width="64.0d" height="64.0d" viewBox="0 0 64.0 64.0"><path fill="#ffffffff" d="M32,32m-31.75,0a31.75,31.75 0,1 1,63.5 0a31.75,31.75 0,1 1,-63.5 0" stroke="#e6e6e6ff" stroke-width="0.5" id="path_0"/><path fill="#c1a052ff" d="M52.231,46.608C51.951,46.617 51.661,46.626 51.381,46.626C51.354,46.626 51.309,46.554 51.309,46.518C51.309,44.667 51.309,42.817 51.318,40.967C51.318,40.958 51.327,40.949 51.336,40.94C51.653,40.967 52.087,41.319 52.177,41.626C52.195,41.68 52.222,41.725 52.249,41.779C52.231,43.395 52.231,45.001 52.231,46.608Z" id="path_1"/><path fill="#c1a052ff" d="M21.13,15.28C21.383,15.551 21.302,15.74 20.94,15.912C20.271,16.21 19.611,16.526 18.978,16.878C18.58,17.094 18.209,17.284 17.739,17.202C17.359,17.13 17.024,16.968 16.69,16.76C16.256,16.499 15.813,16.246 15.37,16.002C15.207,15.912 15.143,15.795 15.17,15.623C15.198,15.451 15.37,15.343 15.532,15.434C16.066,15.731 16.599,16.038 17.124,16.345C17.441,16.535 17.784,16.67 18.146,16.616C18.327,16.589 18.499,16.48 18.661,16.381C19.313,15.984 19.991,15.641 20.714,15.379C20.778,15.361 20.823,15.316 20.877,15.28C20.968,15.28 21.049,15.28 21.13,15.28Z" id="path_2"/><path fill="#c1a052ff" d="M44.834,17.184C44.164,17.184 44.02,17.212 43.821,17.392C44.798,17.338 45.566,17.681 46.145,18.412C46.136,18.43 46.127,18.448 46.118,18.466C45.828,18.376 45.539,18.268 45.241,18.186C44.87,18.087 44.499,18.033 44.137,18.25C44.128,18.259 44.119,18.277 44.083,18.304C44.336,18.322 44.562,18.331 44.798,18.367C45.53,18.484 46.226,18.701 46.688,19.351C46.923,19.676 47.004,20.055 46.95,20.479C46.914,20.434 46.877,20.389 46.841,20.344C46.597,19.937 46.308,19.558 45.883,19.324C45.593,19.161 45.286,19.098 44.924,19.134C45.204,19.333 45.476,19.495 45.72,19.694C46.29,20.154 46.633,20.732 46.57,21.49C46.552,21.751 46.443,21.995 46.371,22.248C46.353,22.293 46.299,22.329 46.244,22.392C46.127,21.562 45.946,20.795 45.331,20.217C45.204,20.1 45.024,20.028 44.87,19.937C44.861,19.946 44.852,19.964 44.843,19.973C45.006,20.217 45.177,20.461 45.322,20.713C45.566,21.165 45.684,21.643 45.548,22.149C45.458,22.492 45.25,22.78 44.951,22.979C44.933,22.97 44.915,22.961 44.897,22.961C44.906,22.889 44.915,22.816 44.924,22.744C45.06,22.004 44.879,21.354 44.336,20.822C44.309,20.795 44.264,20.777 44.246,20.768C44.264,21.21 44.309,21.661 44.309,22.103C44.309,22.645 44.164,23.15 43.839,23.593C43.766,23.692 43.667,23.773 43.577,23.863C43.549,23.89 43.495,23.899 43.459,23.909C43.441,23.872 43.423,23.836 43.423,23.791C43.405,23.511 43.405,23.223 43.378,22.943C43.341,22.51 43.26,22.094 42.998,21.715C42.989,21.778 42.971,21.842 42.98,21.914C42.989,22.094 43.007,22.275 43.007,22.455C43.034,23.277 43.052,24.098 43.088,24.919C43.097,25.235 43.124,25.542 43.152,25.858C43.161,25.948 43.197,26.039 43.242,26.12C43.396,26.391 43.378,26.688 43.405,26.977C43.45,27.537 43.477,28.105 43.522,28.665C43.54,28.891 43.757,28.927 43.893,29.044C44.146,29.252 44.409,29.441 44.653,29.658C44.77,29.757 44.834,29.902 44.761,30.064C44.689,30.217 44.553,30.271 44.39,30.271C43.061,30.271 41.723,30.281 40.393,30.263C40.285,30.263 40.149,30.172 40.068,30.082C39.977,29.983 40.041,29.847 40.113,29.73C40.321,29.396 40.637,29.198 40.963,29.026C41.243,28.873 41.334,28.647 41.343,28.358C41.361,27.907 41.388,27.456 41.415,27.004C41.433,26.77 41.406,26.49 41.515,26.3C41.795,25.858 41.687,25.38 41.723,24.919C41.786,24.143 41.786,23.367 41.813,22.591C41.822,22.302 41.84,22.013 41.831,21.715C41.641,21.932 41.56,22.194 41.524,22.465C41.469,22.889 41.442,23.322 41.406,23.755C41.397,23.818 41.388,23.882 41.37,23.981C41.008,23.737 40.818,23.421 40.683,23.069C40.484,22.555 40.475,22.022 40.502,21.49C40.511,21.255 40.565,21.029 40.601,20.795C40.068,20.975 39.742,21.995 39.914,22.979C39.833,22.943 39.769,22.925 39.724,22.889C39.317,22.519 39.172,22.058 39.254,21.508C39.326,20.993 39.57,20.56 39.878,20.163C39.905,20.127 39.932,20.1 39.95,20.064C39.959,20.046 39.968,20.018 39.941,19.955C39.787,20.055 39.616,20.145 39.48,20.262C39.037,20.641 38.829,21.156 38.711,21.706C38.657,21.941 38.621,22.176 38.566,22.437C38.395,22.203 38.331,21.968 38.286,21.733C38.114,20.795 38.539,20.127 39.254,19.594C39.453,19.441 39.679,19.315 39.896,19.17C39.507,19.089 39.046,19.188 38.693,19.513C38.386,19.802 38.132,20.154 37.852,20.47C37.789,20.262 37.861,20.037 37.924,19.82C38.06,19.351 38.358,19.008 38.784,18.782C39.344,18.475 39.941,18.34 40.583,18.34C40.619,18.34 40.655,18.34 40.692,18.331C40.701,18.331 40.71,18.313 40.719,18.295C40.484,18.105 40.212,18.078 39.941,18.132C39.597,18.204 39.263,18.313 38.919,18.412C38.856,18.43 38.792,18.448 38.729,18.466C38.747,18.25 39.208,17.852 39.697,17.618C40.104,17.419 40.538,17.392 40.99,17.365C40.936,17.338 40.873,17.284 40.818,17.275C40.583,17.239 40.348,17.23 40.113,17.203C40.068,17.194 40.032,17.176 39.986,17.157C40.004,17.121 40.022,17.067 40.059,17.04C40.466,16.724 40.918,16.715 41.379,16.869C41.596,16.941 41.786,17.067 41.994,17.176C42.111,16.787 42.229,16.39 42.356,15.993C42.383,15.993 42.401,15.993 42.428,16.002C42.645,16.363 42.699,16.787 42.808,17.212C43.378,16.823 43.965,16.616 44.617,16.959C44.716,16.986 44.87,17.013 44.834,17.184Z" id="path_3"/><path fill="#c1a052ff" d="M39.914,35.001C40.438,34.559 40.963,34.125 41.506,33.665C41.279,33.485 41.081,33.313 40.873,33.151C40.086,32.546 39.308,31.932 38.512,31.346C37.915,30.903 37.255,30.542 36.559,30.271C36.134,30.1 35.7,29.928 35.256,29.793C34.895,29.685 34.524,29.613 34.153,29.559C33.701,29.495 33.24,29.477 32.787,29.441C32.769,29.441 32.751,29.432 32.724,29.378C32.968,29.306 33.203,29.215 33.448,29.152C34.108,28.981 34.777,28.936 35.455,28.972C36.125,29.008 36.776,29.143 37.409,29.378C38.114,29.64 38.792,29.956 39.389,30.416C39.95,30.84 40.484,31.3 41.017,31.743C41.442,32.095 41.858,32.438 42.274,32.799C42.374,32.88 42.446,32.88 42.536,32.799C43.459,32.032 44.363,31.237 45.304,30.497C46.127,29.847 47.085,29.423 48.098,29.161C48.858,28.972 49.636,28.891 50.414,28.99C50.956,29.053 51.481,29.225 52.005,29.351C52.032,29.36 52.041,29.387 52.105,29.441C51.987,29.441 51.924,29.441 51.852,29.441C51.282,29.45 50.721,29.522 50.169,29.649C48.514,30.019 47.04,30.75 45.702,31.779C44.942,32.356 44.21,32.961 43.459,33.548C43.414,33.584 43.36,33.611 43.296,33.656C43.866,34.134 44.39,34.577 44.924,35.028C45.042,34.793 44.915,34.613 44.888,34.414C44.879,34.324 44.843,34.234 44.861,34.143C44.87,34.071 44.915,33.981 44.978,33.945C45.259,33.746 45.684,33.963 45.711,34.306C45.729,34.514 45.684,34.703 45.557,34.883C45.376,35.145 45.403,35.299 45.63,35.515C45.738,35.615 45.847,35.705 45.955,35.795C46.082,35.903 46.208,35.894 46.326,35.786C46.416,35.705 46.498,35.624 46.57,35.524C46.724,35.326 46.914,35.19 47.167,35.199C47.411,35.199 47.673,35.217 47.909,35.281C48.153,35.344 48.243,35.551 48.261,35.795C48.306,36.355 47.809,36.995 47.284,37.14C46.823,37.266 46.425,37.14 46.027,36.968C45.575,36.77 45.195,36.472 44.834,36.138C44.734,36.048 44.68,36.066 44.589,36.165C44.372,36.409 44.155,36.644 43.911,36.851C43.766,36.978 43.54,36.914 43.432,36.761C43.269,36.535 43.251,36.292 43.414,36.165C43.477,36.111 43.576,36.102 43.658,36.084C43.73,36.066 43.83,36.093 43.884,36.057C43.956,36.012 44.038,35.939 44.065,35.858C44.083,35.813 44.002,35.723 43.947,35.678C43.468,35.29 42.98,34.902 42.5,34.514C42.41,34.441 42.347,34.423 42.247,34.505C41.759,34.902 41.261,35.29 40.773,35.687C40.719,35.732 40.637,35.849 40.655,35.885C40.692,35.958 40.791,36.012 40.873,36.039C40.963,36.075 41.071,36.084 41.171,36.102C41.37,36.138 41.469,36.283 41.433,36.481C41.361,36.878 41.017,37.032 40.701,36.779C40.493,36.607 40.312,36.391 40.149,36.174C40.059,36.048 40.013,36.048 39.905,36.138C39.534,36.463 39.163,36.77 38.702,36.959C38.467,37.059 38.214,37.149 37.97,37.176C37.273,37.248 36.821,36.878 36.568,36.273C36.495,36.102 36.495,35.894 36.504,35.714C36.522,35.434 36.703,35.254 36.966,35.208C37.237,35.163 37.526,35.118 37.789,35.254C37.924,35.326 38.051,35.434 38.178,35.524C38.223,35.551 38.241,35.606 38.277,35.651C38.557,35.939 38.648,35.949 38.946,35.678C39.019,35.615 39.082,35.542 39.154,35.479C39.417,35.254 39.317,35.1 39.208,34.893C39.127,34.73 39.046,34.55 39.037,34.378C39.019,33.999 39.362,33.819 39.715,33.909C39.896,33.954 39.941,34.171 39.878,34.396C39.823,34.586 39.805,34.775 39.769,34.974C39.86,34.965 39.887,34.983 39.914,35.001Z" id="path_4"/><path fill="#c1a052ff" d="M29.975,40.94C30.228,40.949 30.391,41.075 30.554,41.21C30.798,41.418 30.924,41.671 30.924,42.014C30.916,43.007 30.943,43.999 30.916,44.992C30.897,45.642 30.626,46.202 30.002,46.508C29.83,46.59 29.622,46.635 29.432,46.635C26.647,46.644 23.871,46.635 21.085,46.644C20.922,46.644 20.886,46.59 20.886,46.445C20.895,46.265 20.895,46.084 20.886,45.904C20.877,45.768 20.931,45.723 21.058,45.723C21.962,45.732 22.867,45.723 23.771,45.732C24.16,45.732 24.178,45.714 24.106,45.317C24.079,45.191 24.097,45.064 24.069,44.938C23.934,44.424 23.59,44.216 23.111,44.18C22.559,44.135 22.007,44.162 21.456,44.153C21.392,44.153 21.329,44.144 21.239,44.144C21.555,43.629 21.926,43.259 22.559,43.277C22.794,43.286 23.029,43.286 23.265,43.277C23.934,43.241 24.386,43.575 24.721,44.126C24.956,44.514 25.019,44.929 25.001,45.371C24.983,45.741 25.064,45.795 25.444,45.732C25.571,45.714 25.553,45.624 25.553,45.543C25.553,44.857 25.562,44.18 25.553,43.494C25.553,43.34 25.589,43.286 25.752,43.286C26.294,43.295 26.846,43.313 27.389,43.286C28.021,43.25 28.79,43.9 28.98,44.405C29.125,44.785 29.071,45.164 29.098,45.543C29.116,45.741 29.152,45.777 29.342,45.723C29.794,45.597 29.993,45.344 29.993,44.866C29.993,43.638 29.993,42.411 29.993,41.183C29.975,41.093 29.975,41.021 29.975,40.94ZM28.202,45.723C28.202,45.471 28.193,45.254 28.202,45.037C28.239,44.451 27.777,44.162 27.298,44.144C27.072,44.135 26.837,44.153 26.611,44.135C26.475,44.126 26.43,44.171 26.43,44.306C26.439,44.73 26.439,45.164 26.43,45.588C26.43,45.696 26.475,45.723 26.574,45.714C26.819,45.714 27.054,45.714 27.298,45.714C27.587,45.723 27.886,45.723 28.202,45.723Z" id="path_5"/><path fill="#c1a052ff" d="M42.79,43.277C42.79,44.098 42.79,44.893 42.79,45.705C43.776,45.705 44.734,45.705 45.729,45.705C45.684,45.362 45.801,45.019 45.639,44.694C45.494,44.396 45.204,44.288 44.915,44.252C44.517,44.207 44.11,44.216 43.703,44.207C43.432,44.198 43.432,44.207 43.432,43.936C43.432,43.756 43.432,43.575 43.432,43.395C43.432,43.304 43.468,43.268 43.558,43.268C44.137,43.277 44.716,43.25 45.286,43.313C45.964,43.385 46.489,43.828 46.579,44.532C46.651,45.073 46.615,45.624 46.633,46.174C46.633,46.319 46.633,46.463 46.633,46.626C45.349,46.626 44.083,46.626 42.799,46.626C42.799,46.797 42.799,46.942 42.799,47.095C42.79,47.961 42.111,48.71 41.162,48.72C40.637,48.729 40.212,48.593 39.905,48.169C39.869,48.124 39.851,48.061 39.805,47.961C39.914,47.961 39.986,47.961 40.059,47.961C40.429,47.934 40.809,47.943 41.171,47.871C41.768,47.754 42.021,47.33 41.903,46.734C41.894,46.689 41.795,46.635 41.732,46.635C41.171,46.626 40.601,46.635 40.041,46.635C39.67,46.635 39.67,46.635 39.679,46.265C39.679,45.84 39.688,45.416 39.679,44.992C39.67,44.423 39.932,43.99 40.357,43.647C40.674,43.395 41.035,43.25 41.451,43.268C41.885,43.286 42.328,43.277 42.79,43.277ZM40.529,45.723C40.981,45.723 41.397,45.723 41.813,45.714C41.84,45.714 41.903,45.624 41.903,45.57C41.912,45.145 41.903,44.712 41.912,44.288C41.912,44.18 41.885,44.125 41.768,44.135C41.641,44.144 41.515,44.125 41.388,44.144C41.053,44.18 40.655,44.369 40.61,44.685C40.547,45.01 40.547,45.362 40.529,45.723Z" id="path_6"/><path fill="#c1a052ff" d="M16.627,43.196C17.169,43.359 17.612,43.756 17.567,44.351C17.549,44.586 17.567,44.821 17.612,45.055C17.721,45.57 18.182,45.822 18.698,45.696C19.231,45.561 19.412,45.308 19.457,44.721C19.484,44.261 19.466,43.792 19.466,43.322C19.466,43.286 19.466,43.25 19.466,43.187C19.819,43.313 20.117,43.467 20.289,43.792C20.362,43.936 20.407,44.117 20.407,44.27C20.407,44.631 20.407,45.001 20.334,45.344C20.217,45.886 19.819,46.229 19.331,46.454C18.562,46.806 17.865,46.644 17.242,46.102C17.205,46.066 17.16,46.03 17.106,45.985C17.015,46.075 16.925,46.165 16.826,46.238C16.59,46.427 16.328,46.59 16.021,46.608C15.514,46.644 15.008,46.716 14.565,46.373C14.266,46.138 14.112,45.832 14.085,45.471C14.058,45.11 14.076,44.748 14.067,44.378C14.067,44.288 14.058,44.198 14.058,44.117C12.801,43.963 12.322,44.559 12.421,45.723C13.199,45.633 13.823,45.877 14.23,46.617C14.149,46.626 14.085,46.635 14.031,46.635C13.28,46.635 12.53,46.635 11.779,46.635C11.544,46.635 11.535,46.635 11.544,46.391C11.562,45.868 11.535,45.335 11.625,44.821C11.779,43.909 12.367,43.331 13.335,43.277C13.841,43.25 14.357,43.268 14.863,43.268C14.89,43.268 14.908,43.277 14.953,43.286C14.953,43.404 14.953,43.512 14.953,43.629C14.962,44.126 14.962,44.622 14.99,45.118C15.017,45.552 15.225,45.723 15.623,45.714C15.804,45.705 16.003,45.687 16.174,45.633C16.545,45.507 16.618,45.182 16.627,44.848C16.636,44.369 16.627,43.891 16.636,43.413C16.627,43.349 16.627,43.277 16.627,43.196Z" id="path_7"/><path fill="#c1a052ff" d="M16.446,29.748C16.482,28.909 16.572,28.069 16.789,27.248C17.042,26.264 17.413,25.326 17.938,24.459C18.706,23.177 19.719,22.122 21.004,21.345C21.637,20.957 22.324,20.668 23.056,20.497C23.563,20.371 24.087,20.289 24.612,20.28C24.802,20.28 24.892,20.353 24.901,20.542C24.92,20.759 24.829,20.858 24.63,20.885C24.232,20.93 23.825,20.957 23.427,21.029C22.613,21.183 21.854,21.508 21.157,21.941C19.927,22.708 18.969,23.746 18.263,25.01C17.793,25.84 17.458,26.725 17.242,27.645C17.052,28.466 16.961,29.297 16.997,30.136C17.024,30.795 17.468,31.427 18.155,31.562C18.607,31.652 18.987,31.463 19.294,31.129C19.602,30.795 19.729,30.38 19.737,29.938C19.737,29.297 19.819,28.665 20.009,28.051C20.371,26.86 21.004,25.849 21.98,25.064C22.568,24.586 23.237,24.26 23.997,24.134C24.259,24.089 24.522,24.053 24.784,24.035C25.028,24.017 25.118,24.107 25.128,24.306C25.137,24.531 25.046,24.622 24.802,24.64C24.513,24.667 24.214,24.703 23.925,24.748C23.518,24.811 23.147,24.992 22.794,25.199C22.071,25.623 21.51,26.21 21.085,26.923C20.75,27.474 20.497,28.051 20.407,28.692C20.325,29.27 20.307,29.856 20.217,30.425C20.135,30.976 19.873,31.436 19.421,31.788C19.014,32.104 18.562,32.212 18.064,32.131C17.449,32.022 17.042,31.634 16.753,31.102C16.482,30.687 16.419,30.226 16.446,29.748Z" id="path_8"/><path fill="#c1a052ff" d="M12.068,28.34C12.068,29.008 12.05,29.685 12.078,30.353C12.096,30.985 12.213,31.616 12.385,32.23C12.62,33.069 12.982,33.846 13.488,34.559C13.968,35.236 14.547,35.813 15.243,36.273C15.804,36.644 16.4,36.923 17.052,37.077C17.712,37.239 18.39,37.257 19.068,37.176C19.982,37.059 20.805,36.716 21.555,36.192C22.297,35.678 22.921,35.055 23.364,34.27C23.644,33.782 23.916,33.286 24.124,32.763C24.305,32.302 24.395,31.806 24.485,31.318C24.558,30.903 24.558,30.47 24.603,30.046C24.612,29.947 24.648,29.838 24.712,29.775C24.757,29.73 24.883,29.694 24.938,29.721C25.01,29.757 25.1,29.856 25.1,29.928C25.082,30.389 25.073,30.849 25.01,31.3C24.947,31.752 24.847,32.194 24.721,32.627C24.223,34.279 23.31,35.651 21.899,36.671C21.284,37.113 20.606,37.438 19.864,37.636C19.114,37.835 18.363,37.898 17.603,37.799C16.636,37.672 15.74,37.329 14.926,36.779C14.103,36.219 13.434,35.515 12.901,34.676C12.521,34.08 12.195,33.458 12.005,32.771C11.861,32.239 11.716,31.706 11.625,31.165C11.553,30.777 11.553,30.371 11.544,29.974C11.535,28.764 11.544,27.555 11.544,26.345C11.544,26.327 11.544,26.309 11.544,26.291C11.553,26.084 11.662,25.948 11.815,25.948C11.978,25.948 12.078,26.066 12.078,26.291C12.068,26.959 12.068,27.645 12.068,28.34Z" id="path_9"/><path fill="#c1a052ff" d="M13.172,28.214C13.172,27.51 13.19,26.797 13.163,26.093C13.136,25.488 12.846,25.019 12.295,24.739C12.177,24.676 12.032,24.667 11.897,24.649C11.689,24.622 11.535,24.486 11.544,24.315C11.553,24.125 11.68,24.026 11.915,24.044C12.53,24.089 12.982,24.405 13.316,24.91C13.579,25.307 13.696,25.75 13.696,26.228C13.705,27.564 13.687,28.9 13.705,30.235C13.714,31.084 13.932,31.887 14.311,32.654C14.691,33.412 15.216,34.062 15.903,34.55C16.455,34.947 17.07,35.19 17.757,35.299C18.263,35.38 18.743,35.353 19.231,35.236C20.081,35.037 20.805,34.604 21.411,33.972C22.035,33.331 22.46,32.582 22.704,31.734C22.84,31.255 22.903,30.741 22.939,30.244C22.975,29.757 23.002,29.27 23.246,28.836C23.581,28.241 24.06,27.853 24.766,27.808C24.92,27.799 25.064,27.826 25.091,28.015C25.128,28.241 25.073,28.331 24.856,28.385C24.702,28.43 24.531,28.43 24.386,28.493C23.825,28.746 23.563,29.225 23.482,29.802C23.436,30.154 23.445,30.515 23.409,30.867C23.346,31.517 23.165,32.14 22.894,32.726C22.577,33.421 22.161,34.035 21.601,34.568C20.967,35.163 20.244,35.588 19.394,35.804C18.589,36.003 17.784,35.976 16.997,35.741C16.174,35.488 15.469,35.028 14.872,34.405C14.103,33.602 13.597,32.636 13.353,31.553C13.235,31.03 13.199,30.479 13.172,29.947C13.145,29.378 13.172,28.791 13.172,28.214Z" id="path_10"/><path fill="#c1a052ff" d="M14.809,28.142C14.809,27.519 14.809,26.896 14.809,26.273C14.818,25.289 14.519,24.405 13.85,23.674C13.407,23.187 12.864,22.862 12.195,22.78C12.069,22.762 11.942,22.735 11.815,22.726C11.625,22.708 11.571,22.654 11.571,22.446C11.571,22.248 11.653,22.131 11.824,22.149C12.114,22.176 12.421,22.194 12.693,22.284C13.678,22.582 14.366,23.25 14.836,24.143C15.116,24.667 15.288,25.235 15.297,25.831C15.324,27.194 15.333,28.566 15.324,29.929C15.324,30.605 15.451,31.246 15.785,31.833C16.22,32.6 16.826,33.178 17.712,33.376C18.906,33.647 19.891,33.16 20.579,32.266C20.85,31.914 21.049,31.526 21.167,31.102C21.239,30.84 21.266,30.569 21.302,30.308C21.375,29.775 21.375,29.225 21.51,28.701C21.809,27.609 22.451,26.761 23.473,26.237C23.88,26.029 24.314,25.921 24.784,25.93C25.001,25.93 25.082,26.011 25.091,26.219C25.091,26.436 25.019,26.499 24.802,26.508C23.97,26.562 23.274,26.905 22.731,27.537C22.225,28.132 21.935,28.809 21.881,29.595C21.854,30.001 21.845,30.416 21.772,30.813C21.537,32.05 20.94,33.051 19.801,33.683C19.159,34.035 18.462,34.161 17.739,34.008C16.599,33.764 15.804,33.06 15.279,32.032C14.926,31.346 14.782,30.605 14.8,29.838C14.818,29.27 14.809,28.71 14.809,28.142Z" id="path_11"/><path fill="#c1a052ff" d="M34.406,44.324C34.406,44.658 34.406,44.974 34.406,45.299C34.406,45.804 34.397,46.301 34.406,46.806C34.415,47.104 34.497,47.375 34.714,47.591C35.067,47.952 35.98,47.944 36.224,47.276C36.287,47.113 36.315,46.933 36.315,46.761C36.324,44.884 36.315,43.015 36.315,41.138C36.315,41.057 36.324,40.976 36.333,40.886C36.74,40.958 37.264,41.391 37.255,41.905C37.237,43.665 37.255,45.425 37.237,47.185C37.228,47.727 36.902,48.115 36.45,48.395C36.025,48.666 35.564,48.747 35.067,48.711C34.406,48.657 33.683,48.034 33.529,47.384C33.484,47.203 33.466,47.014 33.466,46.833C33.457,46.328 33.466,45.813 33.466,45.308C33.457,44.839 33.963,44.378 34.406,44.324Z" id="path_12"/><path fill="#c1a052ff" d="M18.137,20.993C17.052,20.993 16.174,20.713 15.36,20.208C14.836,19.883 14.329,19.522 13.742,19.333C13.407,19.224 13.054,19.161 12.72,19.053C12.611,19.017 12.466,18.944 12.439,18.854C12.403,18.764 12.466,18.619 12.512,18.511C12.539,18.466 12.647,18.439 12.72,18.448C13.344,18.547 13.941,18.719 14.492,19.017C15.008,19.296 15.496,19.639 16.021,19.901C16.961,20.379 17.956,20.551 18.996,20.28C19.475,20.154 19.891,19.901 20.316,19.648C21.13,19.161 21.998,18.809 22.93,18.611C23.283,18.529 23.653,18.502 24.015,18.448C24.187,18.421 24.25,18.538 24.277,18.674C24.314,18.845 24.214,18.99 24.06,19.017C23.762,19.071 23.463,19.098 23.174,19.17C22.758,19.269 22.342,19.387 21.935,19.531C21.257,19.766 20.651,20.136 20.036,20.497C19.412,20.831 18.77,21.011 18.137,20.993Z" id="path_13"/><path fill="#c1a052ff" d="M49.762,40.94C50.233,40.994 50.694,41.49 50.703,41.924C50.712,42.943 50.721,43.954 50.694,44.974C50.685,45.425 50.585,45.877 50.233,46.229C49.943,46.518 49.582,46.617 49.202,46.635C48.614,46.662 48.026,46.644 47.438,46.644C47.42,46.644 47.393,46.635 47.357,46.617C47.529,46.301 47.755,46.057 48.062,45.895C48.306,45.759 48.569,45.714 48.849,45.732C49.428,45.759 49.771,45.362 49.771,44.812C49.771,43.584 49.771,42.357 49.771,41.129C49.762,41.057 49.762,41.012 49.762,40.94Z" id="path_14"/><path fill="#c1a052ff" d="M18.083,29.622C18.128,28.782 18.272,27.97 18.535,27.167C18.851,26.219 19.322,25.361 19.955,24.585C20.687,23.683 21.582,23.006 22.659,22.573C23.337,22.302 24.051,22.157 24.784,22.157C25.028,22.157 25.173,22.347 25.082,22.573C25.055,22.636 24.965,22.717 24.892,22.726C24.54,22.78 24.178,22.789 23.834,22.843C23.545,22.898 23.264,22.979 22.984,23.078C22.243,23.331 21.591,23.755 21.013,24.26C20.533,24.685 20.117,25.172 19.801,25.732C19.538,26.192 19.285,26.67 19.095,27.158C18.86,27.762 18.698,28.403 18.661,29.062C18.643,29.378 18.616,29.694 18.589,30.019C18.571,30.199 18.49,30.28 18.336,30.28C18.182,30.271 18.101,30.181 18.092,30.001C18.092,29.938 18.092,29.865 18.092,29.802C18.083,29.739 18.083,29.676 18.083,29.622Z" id="path_15"/><path fill="#c1a052ff" d="M18.055,19.125C17.377,19.089 16.762,18.926 16.201,18.592C15.686,18.295 15.17,17.979 14.646,17.699C14.375,17.554 14.067,17.473 13.769,17.374C13.642,17.329 13.543,17.266 13.524,17.112C13.488,16.896 13.633,16.715 13.841,16.787C14.275,16.932 14.709,17.067 15.107,17.266C15.641,17.536 16.138,17.879 16.663,18.159C17.287,18.493 17.965,18.601 18.652,18.421C18.942,18.34 19.213,18.159 19.484,18.006C20.19,17.6 20.904,17.229 21.691,17.013C22.044,16.914 22.396,16.805 22.749,16.715C22.948,16.661 23.075,16.751 23.102,16.941C23.129,17.121 23.02,17.275 22.84,17.311C22.197,17.437 21.582,17.618 20.995,17.906C20.443,18.177 19.9,18.466 19.367,18.764C18.933,18.999 18.49,19.089 18.055,19.125Z" id="path_16"/><path fill="#c1a052ff" d="M30.59,26.535C30.59,23.52 30.59,20.515 30.59,17.5C30.59,17.392 30.527,17.221 30.716,17.221C30.897,17.221 30.87,17.392 30.87,17.518C30.87,23.493 30.87,29.468 30.87,35.443C30.87,35.533 30.879,35.632 30.843,35.714C30.825,35.768 30.744,35.813 30.689,35.822C30.662,35.822 30.608,35.741 30.59,35.687C30.572,35.642 30.59,35.578 30.59,35.524C30.59,32.528 30.59,29.531 30.59,26.535Z" id="path_17"/><path fill="#c1a052ff" d="M32.335,46.635C32.046,46.635 31.775,46.635 31.503,46.626C31.467,46.626 31.413,46.554 31.404,46.517C31.395,46.409 31.404,46.301 31.404,46.193C31.404,44.478 31.404,42.763 31.404,41.048C31.404,41.021 31.404,40.994 31.404,40.895C31.567,40.976 31.711,41.021 31.829,41.102C32.164,41.319 32.344,41.626 32.335,42.041C32.326,43.494 32.335,44.938 32.335,46.391C32.335,46.463 32.335,46.535 32.335,46.635Z" id="path_18"/><path fill="#c1a052ff" d="M38.087,40.94C38.494,40.994 39.019,41.436 39.009,41.978C38.991,43.052 39.009,44.126 39.009,45.209C39.009,45.651 39.009,46.093 39.009,46.535C39.009,46.563 39,46.59 38.991,46.635C38.729,46.635 38.467,46.635 38.214,46.635C38.105,46.635 38.087,46.572 38.087,46.481C38.087,46.129 38.087,45.777 38.087,45.425C38.087,43.999 38.087,42.573 38.087,41.147C38.087,41.084 38.087,41.021 38.087,40.94Z" id="path_19"/><path fill="#c1a052ff" d="M12.204,20.298C12.837,20.343 13.434,20.524 13.986,20.822C15.089,21.417 15.849,22.338 16.382,23.457C16.5,23.71 16.59,23.981 16.681,24.242C16.744,24.414 16.654,24.612 16.5,24.667C16.364,24.712 16.238,24.612 16.174,24.405C15.74,23.078 14.962,22.013 13.715,21.327C13.217,21.056 12.665,20.885 12.087,20.867C11.87,20.858 11.752,20.75 11.752,20.551C11.761,20.352 11.851,20.271 12.087,20.28C12.132,20.289 12.168,20.289 12.204,20.298Z" id="path_20"/><path fill="#c1a052ff" d="M48.234,42.113C48.542,42.113 48.822,42.113 49.129,42.113C49.129,42.176 49.138,42.239 49.138,42.303C49.138,43.007 49.12,43.72 49.147,44.424C49.166,44.947 48.741,45.326 48.333,45.471C48.189,45.525 48.207,45.407 48.207,45.326C48.207,44.703 48.207,44.081 48.207,43.458C48.207,43.115 48.207,42.772 48.207,42.429C48.207,42.339 48.225,42.239 48.234,42.113Z" id="path_21"/><path fill="#c1a052ff" d="M18.327,21.995C18.019,22.392 17.73,22.762 17.404,23.177C17.178,22.717 16.97,22.302 16.744,21.851C17.287,21.905 17.784,21.95 18.327,21.995Z" id="path_22"/><path fill="#c1a052ff" d="M14.311,42.727C14.049,42.727 13.859,42.537 13.859,42.275C13.859,42.032 14.058,41.833 14.311,41.833C14.546,41.833 14.782,42.059 14.764,42.302C14.745,42.501 14.601,42.736 14.311,42.727Z" id="path_23"/><path fill="#c1a052ff" d="M16.048,47.916C15.804,47.916 15.605,47.709 15.605,47.465C15.605,47.239 15.822,47.023 16.039,47.014C16.274,47.005 16.509,47.23 16.509,47.465C16.509,47.718 16.31,47.916 16.048,47.916Z" id="path_24"/><path fill="#c1a052ff" d="M19.493,42.285C19.493,42.546 19.313,42.727 19.05,42.727C18.788,42.727 18.598,42.528 18.607,42.276C18.616,41.987 18.806,41.833 19.05,41.824C19.303,41.824 19.493,42.023 19.493,42.285Z" id="path_25"/><path fill="#c1a052ff" d="M17.024,47.916C16.771,47.907 16.581,47.718 16.59,47.465C16.599,47.221 16.807,47.014 17.052,47.023C17.278,47.023 17.513,47.257 17.495,47.483C17.468,47.709 17.305,47.934 17.024,47.916Z" id="path_26"/><path fill="#c1a052ff" d="M13.76,42.284C13.76,42.546 13.588,42.727 13.326,42.727C13.072,42.727 12.882,42.546 12.882,42.284C12.882,42.05 13.1,41.815 13.326,41.833C13.534,41.851 13.769,41.977 13.76,42.284Z" id="path_27"/><path fill="#c1a052ff" d="M49.003,40.885C49.021,41.039 49.084,41.183 48.867,41.264C48.804,41.292 48.777,41.418 48.741,41.49C48.804,41.508 48.867,41.535 48.93,41.544C48.985,41.553 49.048,41.544 49.129,41.544C49.129,41.662 49.129,41.761 49.129,41.887C48.858,41.887 48.578,41.887 48.306,41.887C48.279,41.887 48.225,41.833 48.225,41.806C48.234,41.716 48.261,41.625 48.288,41.544C48.306,41.49 48.361,41.454 48.379,41.4C48.451,41.066 48.695,40.858 49.003,40.885Z" id="path_28"/></svg>