<svg id="vector" xmlns="http://www.w3.org/2000/svg" width="64.0d" height="64.0d" viewBox="0 0 64.0 64.0"><defs><clipPath id="clip_path_0"><path d="M6,6h52v52h-52z"/></clipPath></defs><path fill="#ffffffff" d="M32,32m-31.75,0a31.75,31.75 0,1 1,63.5 0a31.75,31.75 0,1 1,-63.5 0" stroke="#e6e6e6ff" stroke-width="0.5" id="path_0"/><g id="g_0"><path fill="#000062ff" d="M27.366,34.454C26.736,35.084 25.867,35.472 24.907,35.472C22.987,35.472 21.431,33.916 21.431,31.996C21.431,30.076 22.987,28.519 24.907,28.519C25.867,28.519 26.737,28.908 27.366,29.538L29.825,27.079C28.566,25.82 26.828,25.042 24.907,25.042C21.067,25.042 17.953,28.155 17.953,31.996C17.953,35.836 21.067,38.95 24.907,38.95C26.828,38.95 28.566,38.171 29.825,36.913L27.366,34.454Z" clip-path="url(#clip_path_0)"/><path fill="#000062ff" d="M54.219,25.101H44.139V28.578H49.435L47.441,29.719V38.93H50.918V28.578H54.219V25.101Z"/><path fill="#00d2ffff" d="M8.6,23.533L8.364,23.424C8.31,23.534 8.257,23.644 8.205,23.754L8.421,23.865C8.48,23.753 8.539,23.643 8.6,23.533L8.6,23.533Z"/><path fill="#00d2ffff" d="M8.499,20.348L8.139,20.115C8.084,20.196 8.03,20.276 7.977,20.358L8.316,20.588C8.375,20.507 8.438,20.429 8.498,20.349L8.499,20.348Z"/><path fill="#00d2ffff" d="M8.43,21.998L8.213,21.879C8.16,21.971 8.105,22.064 8.053,22.156L8.252,22.274C8.31,22.181 8.37,22.09 8.43,21.998Z"/><path fill="#00d2ffff" d="M9.249,22.449L8.972,22.296C8.914,22.396 8.856,22.496 8.799,22.596L9.061,22.75C9.123,22.649 9.185,22.548 9.249,22.449Z"/><path fill="#00d2ffff" d="M8.835,25.079L8.689,25.024C8.648,25.13 8.607,25.235 8.567,25.343L8.689,25.396C8.737,25.29 8.786,25.184 8.835,25.079Z"/><path fill="#00d2ffff" d="M8.806,20.919L9.064,21.094C9.128,21.009 9.193,20.926 9.258,20.843L8.983,20.664C8.924,20.749 8.864,20.833 8.806,20.919Z"/><path fill="#00d2ffff" d="M7.34,21.399C7.292,21.483 7.244,21.568 7.198,21.652L7.488,21.824C7.541,21.738 7.596,21.654 7.65,21.569L7.341,21.399L7.34,21.399Z"/><path fill="#00d2ffff" d="M9.434,19.198L9.03,18.89C8.949,18.992 8.869,19.096 8.79,19.2L9.176,19.499C9.219,19.448 9.259,19.396 9.303,19.346C9.346,19.296 9.391,19.248 9.435,19.199L9.434,19.198Z"/><path fill="#00d2ffff" d="M7.984,24.757L7.805,24.69C7.769,24.78 7.733,24.871 7.698,24.963L7.859,25.033C7.9,24.941 7.942,24.85 7.984,24.757Z"/><path fill="#00d2ffff" d="M11.545,17.138L11.075,16.651C10.931,16.788 10.786,16.924 10.645,17.065L11.098,17.523C11.245,17.392 11.394,17.264 11.544,17.137L11.545,17.138Z"/><path fill="#00d2ffff" d="M10.624,20.622C10.714,20.519 10.805,20.416 10.896,20.315L10.547,20.048C10.461,20.153 10.375,20.257 10.291,20.364L10.623,20.622L10.624,20.622Z"/><path fill="#00d2ffff" d="M10.808,19.099C10.924,18.984 11.043,18.872 11.163,18.76L10.788,18.425C10.675,18.545 10.567,18.667 10.458,18.789L10.809,19.098L10.808,19.099Z"/><path fill="#00d2ffff" d="M10.271,21.911L10.605,22.137C10.675,22.043 10.746,21.95 10.818,21.857L10.461,21.625C10.397,21.719 10.334,21.814 10.271,21.91V21.911Z"/><path fill="#00d2ffff" d="M10.033,21.347L9.716,21.14C9.654,21.23 9.59,21.318 9.529,21.408L9.832,21.613C9.898,21.524 9.966,21.435 10.034,21.347H10.033Z"/><path fill="#00d2ffff" d="M9.843,19.511C9.798,19.567 9.751,19.622 9.705,19.679C9.667,19.727 9.633,19.777 9.595,19.825L9.901,20.062C9.99,19.96 10.081,19.861 10.171,19.762L9.843,19.512V19.511Z"/><path fill="#00d2ffff" d="M7.739,23.138L7.577,23.063C7.529,23.162 7.484,23.264 7.436,23.364L7.576,23.435C7.629,23.336 7.685,23.237 7.739,23.138Z"/><path fill="#00d2ffff" d="M9.685,18.104L10.105,18.476C10.219,18.358 10.334,18.24 10.451,18.125L10.01,17.732C9.899,17.854 9.793,17.98 9.685,18.104Z"/><path fill="#00d2ffff" d="M10.069,22.9L9.771,22.735C9.71,22.843 9.651,22.953 9.592,23.063L9.861,23.221C9.929,23.113 9.999,23.006 10.069,22.9H10.069Z"/><path fill="#00d2ffff" d="M9.441,23.92L9.21,23.814C9.153,23.935 9.095,24.057 9.041,24.181L9.24,24.282C9.305,24.161 9.372,24.039 9.441,23.92Z"/><path fill="#00d2ffff" d="M13.027,18.676C12.888,18.801 12.752,18.928 12.619,19.057L13.01,19.451C13.142,19.324 13.276,19.198 13.412,19.076L13.027,18.676Z"/><path fill="#00d2ffff" d="M13.518,17.216C13.343,17.347 13.171,17.48 13.001,17.618L13.901,18.652C14.06,18.519 14.221,18.389 14.384,18.262L13.518,17.217V17.216Z"/><path fill="#00d2ffff" d="M7.093,24.421L6.995,24.384C6.964,24.462 6.936,24.539 6.906,24.618L6.988,24.654C7.022,24.576 7.057,24.498 7.093,24.421V24.421Z"/><path fill="#00d2ffff" d="M13.425,14.724C13.205,14.879 12.989,15.038 12.775,15.201L13.274,15.855C13.491,15.712 13.712,15.573 13.935,15.439L13.425,14.724Z"/><path fill="#00d2ffff" d="M12.092,19.589C11.981,19.707 11.873,19.826 11.765,19.947L12.174,20.309C12.187,20.296 12.198,20.284 12.21,20.271C12.307,20.166 12.405,20.061 12.504,19.957L12.092,19.589H12.092Z"/><path fill="#00d2ffff" d="M14.707,13.898C14.445,14.054 14.188,14.215 13.934,14.383L15.849,17.239C16.066,17.103 16.286,16.972 16.509,16.846L14.707,13.898H14.707Z"/><path fill="#00d2ffff" d="M25.012,11.152C21.947,11.152 19.038,11.817 16.42,13.008L18,16.096C20.144,15.146 22.516,14.616 25.013,14.616C27.119,14.616 29.139,14.992 31.007,15.681L32.205,12.431C29.964,11.604 27.541,11.152 25.013,11.152H25.012Z"/><path fill="#00d2ffff" d="M16.052,13.179C15.745,13.326 15.443,13.48 15.145,13.642L16.899,16.633C17.148,16.5 17.4,16.374 17.656,16.254L16.052,13.18V13.179Z"/><path fill="#00d2ffff" d="M14.085,15.649C13.871,15.792 13.661,15.937 13.453,16.088L14.847,17.912C15.035,17.777 15.224,17.645 15.417,17.517L14.085,15.649Z"/><path fill="#00d2ffff" d="M6.193,24.306C6.221,24.241 6.248,24.176 6.276,24.112L6.071,24.035C6.047,24.097 6.024,24.159 5.999,24.221L6.193,24.306H6.193Z"/><path fill="#00d2ffff" d="M11.461,19.026C11.348,19.143 11.236,19.261 11.126,19.381L11.487,19.701C11.602,19.587 11.719,19.473 11.838,19.363L11.461,19.027V19.026Z"/><path fill="#00d2ffff" d="M10.98,20.899L11.36,21.193C11.45,21.087 11.542,20.983 11.635,20.879L11.234,20.574C11.148,20.681 11.063,20.789 10.98,20.899H10.98Z"/><path fill="#00d2ffff" d="M6.555,22.915L6.798,23.039C6.845,22.95 6.89,22.859 6.938,22.77L6.679,22.651C6.637,22.738 6.596,22.827 6.555,22.915Z"/><path fill="#00d2ffff" d="M12.915,16.49C12.737,16.628 12.561,16.769 12.389,16.913L12.812,17.399C12.991,17.27 13.172,17.143 13.356,17.02L12.915,16.49Z"/><path fill="#00d2ffff" d="M11.813,17.417C11.67,17.548 11.529,17.681 11.389,17.817L11.779,18.21C11.926,18.086 12.075,17.964 12.226,17.845L11.812,17.417H11.813Z"/><path fill="#00d2ffff" d="M12.851,18.493L12.453,18.08C12.31,18.206 12.169,18.333 12.031,18.463L12.415,18.851C12.558,18.73 12.704,18.61 12.851,18.493H12.851Z"/><path fill="#00d2ffff" d="M12.709,16.242L12.215,15.647C12.034,15.795 11.856,15.946 11.68,16.1L12.156,16.648C12.337,16.508 12.522,16.374 12.708,16.242H12.709Z"/><path fill="#7f92ffff" d="M37.271,48.572L36.929,48.12C36.792,48.215 36.657,48.31 36.519,48.401L36.874,48.874C37.008,48.775 37.14,48.674 37.272,48.572H37.271Z"/><path fill="#7f92ffff" d="M36.64,47.739L36.357,47.365C36.219,47.456 36.081,47.544 35.94,47.632L36.244,48.036C36.378,47.94 36.509,47.839 36.641,47.739H36.64Z"/><path fill="#7f92ffff" d="M37.442,44.697L37.146,44.396C37.06,44.474 36.971,44.547 36.883,44.624L37.204,44.938C37.284,44.859 37.364,44.779 37.443,44.698L37.442,44.697Z"/><path fill="#7f92ffff" d="M35.696,47.307C35.831,47.214 35.965,47.119 36.097,47.021L35.808,46.639C35.672,46.73 35.534,46.818 35.394,46.904L35.696,47.307Z"/><path fill="#7f92ffff" d="M36.114,49.411L35.759,48.871C35.587,48.972 35.413,49.071 35.238,49.167L35.606,49.741C35.777,49.633 35.947,49.524 36.114,49.411H36.114Z"/><path fill="#7f92ffff" d="M38.364,47.66L38.045,47.291C37.981,47.342 37.92,47.395 37.856,47.445C37.816,47.476 37.774,47.506 37.734,47.537L38.067,47.917C38.167,47.831 38.267,47.747 38.365,47.661L38.364,47.66Z"/><path fill="#7f92ffff" d="M37.522,47.035C37.58,46.986 37.636,46.934 37.693,46.884L37.44,46.59C37.333,46.673 37.226,46.753 37.118,46.833L37.39,47.144C37.434,47.107 37.479,47.072 37.522,47.035H37.522Z"/><path fill="#7f92ffff" d="M38.337,43.7L38.083,43.473C37.997,43.564 37.913,43.655 37.825,43.744L38.103,43.979C38.182,43.888 38.259,43.794 38.337,43.7Z"/><path fill="#7f92ffff" d="M38.065,45.33L37.817,45.079C37.735,45.153 37.653,45.225 37.57,45.297L37.833,45.555C37.911,45.48 37.988,45.406 38.064,45.33H38.065Z"/><path fill="#7f92ffff" d="M38.683,45.959L38.464,45.736C38.386,45.806 38.308,45.874 38.229,45.943L38.463,46.172C38.535,46.101 38.611,46.032 38.682,45.96L38.683,45.959Z"/><path fill="#7f92ffff" d="M35.888,45.433L36.231,45.824C36.336,45.735 36.441,45.646 36.544,45.555L36.216,45.175C36.107,45.262 35.999,45.349 35.887,45.433H35.888Z"/><path fill="#7f92ffff" d="M34.359,49.223L34.037,48.658C33.833,48.753 33.626,48.843 33.418,48.93L33.748,49.543C33.954,49.44 34.157,49.334 34.359,49.223V49.223Z"/><path fill="#7f92ffff" d="M32.518,50.385L32.88,51.194C33.132,51.083 33.382,50.967 33.629,50.846L33.265,50.101C33.018,50.202 32.769,50.296 32.518,50.385Z"/><path fill="#7f92ffff" d="M29.806,48.62C29.528,48.703 29.246,48.781 28.961,48.85L29.937,52.212C30.277,52.126 30.615,52.033 30.948,51.931L29.806,48.62Z"/><path fill="#7f92ffff" d="M35.022,47.753L34.722,47.298C34.555,47.391 34.386,47.48 34.216,47.567L34.526,48.053C34.693,47.955 34.858,47.856 35.021,47.753H35.022Z"/><path fill="#7f92ffff" d="M37.112,46.212L36.841,45.899C36.733,45.982 36.623,46.065 36.514,46.146L36.8,46.473C36.905,46.387 37.009,46.3 37.112,46.212Z"/><path fill="#7f92ffff" d="M35.529,48.523L35.222,48.056C35.051,48.151 34.879,48.243 34.705,48.333L35.027,48.837C35.196,48.735 35.363,48.631 35.529,48.523L35.529,48.523Z"/><path fill="#7f92ffff" d="M34.898,50.17L34.535,49.533C34.326,49.636 34.115,49.734 33.902,49.83L34.272,50.516C34.482,50.404 34.691,50.289 34.898,50.17H34.898Z"/><path fill="#7f92ffff" d="M34.078,47.352C34.241,47.255 34.402,47.156 34.562,47.054L34.248,46.576C34.091,46.677 33.932,46.776 33.772,46.872L34.078,47.352Z"/><path fill="#7f92ffff" d="M41.8,43.317L41.985,43.433C42.018,43.382 42.048,43.329 42.081,43.279L41.908,43.158C41.871,43.211 41.837,43.265 41.8,43.317Z"/><path fill="#7f92ffff" d="M41.116,44.668C41.172,44.594 41.229,44.52 41.283,44.445L41.07,44.276C41.009,44.351 40.949,44.428 40.888,44.502L41.116,44.668Z"/><path fill="#7f92ffff" d="M35.188,46.631C35.321,46.536 35.452,46.439 35.583,46.341L35.244,45.892C35.213,45.914 35.182,45.937 35.151,45.958C35.051,46.032 34.948,46.102 34.847,46.173L35.19,46.63L35.188,46.631Z"/><path fill="#7f92ffff" d="M41.265,42.708L41.191,42.656C41.146,42.721 41.1,42.785 41.053,42.849L41.142,42.904C41.184,42.839 41.224,42.773 41.265,42.707V42.708Z"/><path fill="#7f92ffff" d="M33.296,48.702C33.497,48.606 33.696,48.507 33.892,48.403L33.205,47.196C33.02,47.298 32.833,47.397 32.644,47.492L33.296,48.701V48.702Z"/><path fill="#7f92ffff" d="M39.012,44.305L38.8,44.116C38.721,44.199 38.642,44.284 38.562,44.366L38.791,44.56C38.866,44.476 38.939,44.391 39.013,44.305H39.012Z"/><path fill="#7f92ffff" d="M31.434,51.768C31.729,51.664 32.021,51.553 32.311,51.435L30.984,48.224C30.737,48.317 30.487,48.404 30.236,48.486L31.434,51.768Z"/><path fill="#7f92ffff" d="M32.412,50.148C32.656,50.049 32.898,49.945 33.137,49.836L32.117,47.747C31.902,47.846 31.684,47.941 31.465,48.032L32.412,50.148Z"/><path fill="#7f92ffff" d="M28.59,48.934C27.369,49.204 26.102,49.349 24.8,49.349C21.438,49.349 18.298,48.401 15.634,46.757L13.8,49.736C16.999,51.709 20.766,52.847 24.8,52.847C26.43,52.847 28.017,52.659 29.54,52.308L28.59,48.934Z"/><path fill="#7f92ffff" d="M39.664,44.889L39.492,44.735C39.419,44.812 39.345,44.889 39.27,44.965L39.459,45.124C39.527,45.046 39.597,44.969 39.664,44.89V44.889Z"/><path fill="#7f92ffff" d="M39.606,43.57C39.679,43.476 39.749,43.382 39.819,43.286L39.647,43.151C39.57,43.245 39.493,43.338 39.414,43.43L39.606,43.569V43.57Z"/><path fill="#7f92ffff" d="M39.388,46.676L39.103,46.386C39.031,46.452 38.955,46.516 38.882,46.582L39.186,46.88C39.254,46.812 39.321,46.744 39.388,46.676Z"/><path fill="#7f92ffff" d="M39.098,42.716L38.901,42.56C38.815,42.663 38.725,42.763 38.637,42.864L38.867,43.031C38.945,42.927 39.022,42.822 39.098,42.716Z"/><path fill="#7f92ffff" d="M40.55,42.208L40.428,42.122C40.373,42.2 40.317,42.276 40.262,42.353L40.402,42.44C40.452,42.363 40.502,42.286 40.551,42.208H40.55Z"/><path fill="#7f92ffff" d="M39.956,45.544L40.226,45.772C40.288,45.7 40.348,45.627 40.408,45.556L40.158,45.332C40.092,45.404 40.024,45.474 39.956,45.544Z"/><path fill="#7f92ffff" d="M40.313,44.084C40.377,43.999 40.439,43.912 40.502,43.826L40.379,43.729C40.31,43.813 40.24,43.896 40.169,43.979L40.313,44.084Z"/><path fill="#7f92ffff" d="M39.651,41.579C39.586,41.669 39.525,41.761 39.458,41.85L39.615,41.948C39.674,41.857 39.731,41.767 39.788,41.675L39.651,41.579V41.579Z"/><path fill="#5e1ad5ff" d="M17.885,39.893C17.765,39.797 17.647,39.699 17.532,39.598L17.182,39.947C17.292,40.064 17.406,40.177 17.521,40.287L17.885,39.893Z"/><path fill="#5e1ad5ff" d="M16.81,38.907L16.513,39.153C16.612,39.284 16.714,39.411 16.818,39.536L17.148,39.247C17.032,39.137 16.92,39.023 16.81,38.907Z"/><path fill="#5e1ad5ff" d="M18.18,41.247C18.039,41.162 17.9,41.073 17.764,40.98L17.448,41.363C17.582,41.474 17.716,41.582 17.854,41.686L18.18,41.246V41.247Z"/><path fill="#5e1ad5ff" d="M15.634,39.026C15.542,38.913 15.45,38.798 15.362,38.68L15.218,38.779C15.297,38.905 15.377,39.029 15.46,39.151L15.634,39.026Z"/><path fill="#5e1ad5ff" d="M17.236,40.596C17.105,40.494 16.975,40.389 16.849,40.279L16.58,40.548C16.698,40.673 16.819,40.795 16.943,40.913L17.236,40.596Z"/><path fill="#5e1ad5ff" d="M16.178,40.098L16.42,39.884C16.3,39.767 16.181,39.647 16.066,39.523L15.855,39.697C15.959,39.834 16.067,39.967 16.178,40.097V40.098Z"/><path fill="#5e1ad5ff" d="M30.52,40.951C28.846,42.012 26.852,42.607 24.723,42.558C24.081,42.542 23.455,42.469 22.848,42.343L22.1,45.724C22.923,45.897 23.772,46 24.642,46.02C27.481,46.086 30.141,45.293 32.372,43.879L30.52,40.951Z"/><path fill="#5e1ad5ff" d="M13.934,39.663L13.73,39.803C13.815,39.936 13.903,40.067 13.993,40.197L14.217,40.037C14.121,39.914 14.026,39.79 13.934,39.663Z"/><path fill="#5e1ad5ff" d="M21.851,42.084L20.82,45.367C21.053,45.447 21.289,45.522 21.526,45.59C21.612,45.612 21.698,45.634 21.785,45.654L22.559,42.279C22.319,42.222 22.083,42.158 21.851,42.084Z"/><path fill="#5e1ad5ff" d="M14.717,40.639L14.469,40.845C14.585,40.993 14.705,41.139 14.827,41.283L15.096,41.046C14.967,40.913 14.84,40.777 14.717,40.639V40.639Z"/><path fill="#5e1ad5ff" d="M17.99,40.707C18.111,40.808 18.235,40.906 18.362,41.001L18.732,40.501C18.608,40.421 18.486,40.339 18.364,40.253L17.991,40.706L17.99,40.707Z"/><path fill="#5e1ad5ff" d="M18.854,42.35L19.19,41.775C19.019,41.698 18.851,41.616 18.686,41.529L18.347,42.035C18.513,42.145 18.682,42.25 18.854,42.35H18.854Z"/><path fill="#5e1ad5ff" d="M14.926,39.532C14.831,39.414 14.738,39.294 14.648,39.172L14.508,39.268C14.59,39.397 14.675,39.524 14.761,39.649L14.926,39.532V39.532Z"/><path fill="#5e1ad5ff" d="M16.416,38.468C16.325,38.36 16.235,38.25 16.147,38.139L15.928,38.289C16.003,38.413 16.08,38.533 16.158,38.652L16.416,38.468H16.416Z"/><path fill="#5e1ad5ff" d="M19.447,43.963C19.212,43.869 18.979,43.769 18.75,43.661L18.42,44.274C18.654,44.409 18.89,44.539 19.132,44.66L19.447,43.962V43.963Z"/><path fill="#5e1ad5ff" d="M20.708,44.387C20.437,44.312 20.167,44.229 19.901,44.135L19.591,44.877C19.867,45.002 20.145,45.12 20.429,45.227L20.709,44.387H20.708Z"/><path fill="#5e1ad5ff" d="M19.855,43.057C19.633,42.981 19.417,42.899 19.206,42.811L18.895,43.391C19.11,43.51 19.33,43.622 19.553,43.727L19.855,43.057H19.855Z"/><path fill="#5e1ad5ff" d="M21.513,41.972C21.307,41.9 21.104,41.822 20.905,41.737L19.99,43.925C20.244,44.033 20.502,44.131 20.764,44.221L21.513,41.972Z"/><path fill="#5e1ad5ff" d="M18.823,41.324C18.974,41.423 19.128,41.518 19.286,41.609L19.602,41.07C19.458,40.983 19.316,40.892 19.175,40.798L18.823,41.324Z"/><path fill="#5e1ad5ff" d="M15.762,40.463C15.637,40.338 15.514,40.209 15.395,40.078L15.195,40.243C15.306,40.385 15.42,40.524 15.537,40.66L15.762,40.462V40.463Z"/><path fill="#5e1ad5ff" d="M19.317,42.603C19.517,42.706 19.722,42.802 19.93,42.891L20.527,41.567C20.353,41.484 20.182,41.397 20.014,41.306L19.317,42.603Z"/><path fill="#5e1ad5ff" d="M17.094,42.714C17.015,42.661 16.936,42.61 16.859,42.556C16.776,42.497 16.696,42.435 16.615,42.374L16.295,42.762C16.449,42.896 16.608,43.026 16.768,43.153L17.094,42.714Z"/><path fill="#5e1ad5ff" d="M16.634,41.249C16.495,41.137 16.359,41.02 16.226,40.902L15.979,41.148C16.106,41.28 16.235,41.41 16.368,41.536L16.633,41.249H16.634Z"/><path fill="#5e1ad5ff" d="M18.714,42.587C18.531,42.498 18.348,42.403 18.168,42.3L17.865,42.752C18.044,42.876 18.225,42.995 18.409,43.109L18.714,42.587Z"/><path fill="#5e1ad5ff" d="M16.025,41.909C15.878,41.786 15.736,41.66 15.595,41.531L15.308,41.818C15.443,41.961 15.581,42.1 15.722,42.237L16.025,41.909V41.909Z"/><path fill="#5e1ad5ff" d="M18.237,43.403C18.039,43.299 17.844,43.187 17.652,43.071L17.319,43.567C17.512,43.704 17.708,43.837 17.909,43.965L18.237,43.403H18.237Z"/><path fill="#5e1ad5ff" d="M17.346,42.373L17.639,41.977C17.492,41.88 17.342,41.778 17.194,41.672L16.908,42.018C16.981,42.08 17.053,42.142 17.127,42.203C17.199,42.261 17.274,42.316 17.347,42.373H17.346Z"/><path fill="#0000ffff" d="M23.18,20.581L23.144,20.303C22.961,20.322 22.778,20.346 22.597,20.374L22.649,20.703C22.825,20.658 23.002,20.618 23.18,20.582L23.18,20.581Z"/><path fill="#0000ffff" d="M23.302,21.531L23.253,21.152C23.078,21.169 22.904,21.191 22.73,21.217L22.797,21.645C22.964,21.603 23.132,21.565 23.302,21.53V21.531Z"/><path fill="#0000ffff" d="M16.044,21.232L16.605,21.92C16.805,21.738 17.011,21.564 17.221,21.396L16.752,20.725C16.51,20.886 16.275,21.056 16.044,21.232V21.232Z"/><path fill="#0000ffff" d="M18.687,21.521L18.357,20.938C18.149,21.055 17.945,21.179 17.744,21.308L18.149,21.921C18.324,21.783 18.503,21.649 18.687,21.521Z"/><path fill="#0000ffff" d="M22.315,18.586L22.372,18.949C22.566,18.907 22.76,18.868 22.956,18.835L22.915,18.51C22.715,18.531 22.514,18.556 22.315,18.586H22.315Z"/><path fill="#0000ffff" d="M19.281,20.059L19.035,19.5C18.819,19.591 18.606,19.688 18.395,19.79L18.7,20.38C18.89,20.268 19.084,20.161 19.281,20.059H19.281Z"/><path fill="#0000ffff" d="M18.212,20.681L17.861,20.06C17.63,20.184 17.404,20.317 17.18,20.454L17.607,21.1C17.804,20.954 18.005,20.814 18.211,20.681H18.212Z"/><path fill="#0000ffff" d="M23.717,18.452L23.732,18.73C23.907,18.712 24.083,18.697 24.259,18.685L24.249,18.438C24.072,18.439 23.894,18.444 23.716,18.452H23.717Z"/><path fill="#0000ffff" d="M24.293,19.551L24.286,19.381C24.114,19.381 23.941,19.385 23.769,19.393L23.781,19.599C23.951,19.579 24.122,19.564 24.293,19.551Z"/><path fill="#0000ffff" d="M15.715,21.487C15.553,21.617 15.394,21.752 15.238,21.89C15.158,21.966 15.078,22.041 14.999,22.118L17.438,24.576C17.601,24.417 17.768,24.264 17.941,24.116L15.714,21.486L15.715,21.487Z"/><path fill="#0000ffff" d="M24.364,21.371L24.354,21.106C24.191,21.103 24.028,21.106 23.865,21.112L23.883,21.43C24.044,21.407 24.204,21.387 24.365,21.371H24.364Z"/><path fill="#0000ffff" d="M23.068,19.709L23.034,19.446C22.843,19.466 22.651,19.491 22.462,19.52L22.509,19.824C22.694,19.781 22.88,19.743 23.067,19.709H23.068Z"/><path fill="#0000ffff" d="M24.327,20.418L24.32,20.244C24.152,20.244 23.985,20.245 23.817,20.252L23.829,20.473C23.995,20.451 24.161,20.432 24.327,20.418Z"/><path fill="#0000ffff" d="M21.698,19.117L21.606,18.709C21.407,18.749 21.209,18.794 21.012,18.844L21.13,19.288C21.318,19.226 21.507,19.169 21.698,19.117Z"/><path fill="#0000ffff" d="M22.088,20.861L22.004,20.482C21.83,20.52 21.657,20.562 21.484,20.608L21.596,21.029C21.758,20.968 21.923,20.913 22.088,20.861Z"/><path fill="#0000ffff" d="M22.296,21.786L22.19,21.315C22.028,21.349 21.865,21.387 21.704,21.429L21.84,21.938C21.991,21.883 22.143,21.833 22.296,21.786H22.296Z"/><path fill="#0000ffff" d="M18.802,21.726C18.615,21.836 18.431,21.953 18.249,22.075L19.05,23.287C19.205,23.187 19.362,23.092 19.522,23L18.802,21.726Z"/><path fill="#0000ffff" d="M19.661,20.919L19.432,20.4C19.236,20.486 19.043,20.578 18.852,20.674L19.138,21.226C19.309,21.118 19.484,21.016 19.661,20.919Z"/><path fill="#0000ffff" d="M20.132,21.984C19.97,22.057 19.809,22.135 19.652,22.218L19.939,22.774C20.086,22.698 20.234,22.625 20.385,22.556L20.133,21.985L20.132,21.984Z"/><path fill="#0000ffff" d="M14.771,22.348C12.339,24.844 10.84,28.252 10.84,32.012H14.303C14.303,29.204 15.419,26.656 17.229,24.787L14.772,22.348H14.771Z"/><path fill="#0000ffff" d="M17.346,21.575C17.13,21.726 16.918,21.883 16.712,22.049L18.216,23.889C18.376,23.761 18.54,23.638 18.707,23.52L17.346,21.575Z"/><path fill="#0000ffff" d="M20.287,19.596C20.332,19.577 20.378,19.561 20.423,19.543L20.262,19.051C20.065,19.112 19.87,19.179 19.676,19.25L19.878,19.772C20.014,19.711 20.149,19.651 20.287,19.595V19.596Z"/><path fill="#0000ffff" d="M20.034,21.761L19.792,21.214C19.614,21.295 19.438,21.38 19.265,21.47L19.564,22.048C19.718,21.948 19.874,21.852 20.034,21.76V21.761Z"/><path fill="#0000ffff" d="M20.709,20.41L20.565,19.971C20.524,19.985 20.482,19.996 20.441,20.009C20.303,20.056 20.165,20.107 20.028,20.159L20.212,20.633C20.375,20.554 20.541,20.48 20.708,20.41L20.709,20.41Z"/><path fill="#0000ffff" d="M21.281,22.154L21.101,21.606C20.949,21.656 20.799,21.708 20.65,21.765L20.872,22.34C21.007,22.276 21.144,22.213 21.281,22.154H21.281Z"/><path fill="#0000ffff" d="M20.993,21.274L20.837,20.801C20.671,20.857 20.508,20.916 20.346,20.979L20.542,21.485C20.69,21.411 20.841,21.341 20.993,21.274Z"/><path fill="#0000ffff" d="M21.893,19.987L21.815,19.639C21.629,19.678 21.444,19.722 21.259,19.77L21.363,20.159C21.539,20.097 21.715,20.04 21.892,19.987H21.893Z"/><path fill="#000062ff" d="M37.725,30.561C36.359,30.25 35.179,29.98 35.179,29.237C35.179,28.224 36.517,28.072 37.313,28.072C38.162,28.072 39.028,28.26 39.887,28.632L39.956,28.662L42.179,26.439L41.935,26.28C40.748,25.531 39.07,25.102 37.333,25.102C33.877,25.102 31.644,26.783 31.644,29.384C31.644,32.399 34.352,33.029 36.535,33.537C37.903,33.854 39.084,34.128 39.084,34.886C39.084,35.82 37.724,35.96 36.914,35.96C35.773,35.96 34.538,35.644 33.526,35.095L33.454,35.057L31.289,37.222L31.504,37.389C32.711,38.326 34.826,38.931 36.894,38.931C41.12,38.931 42.619,36.635 42.619,34.669C42.619,31.684 39.909,31.063 37.725,30.562V30.561Z"/></g></svg>