<svg id="vector" xmlns="http://www.w3.org/2000/svg" width="64.0d" height="64.0d" viewBox="0 0 64.0 64.0"><path fill="#ffffffff" d="M32,32m-31.75,0a31.75,31.75 0,1 1,63.5 0a31.75,31.75 0,1 1,-63.5 0" stroke="#e6e6e6ff" stroke-width="0.5" id="path_0"/><path fill="#0f2837ff" d="M10.322,34.898L9.89,34.46L9.464,34.898L9.89,35.33L10.322,34.898Z" id="path_1"/><path fill="#0f2837ff" d="M9.308,34.898L8.882,34.46L8.456,34.898L8.882,35.33L9.308,34.898Z" id="path_2"/><path fill="#0f2837ff" d="M17.516,34.862L17.09,34.424L16.664,34.862L17.09,35.3L17.516,34.862Z" id="path_3"/><path fill="#0f2837ff" d="M17.918,36.404C17.732,36.038 17.462,35.852 17.102,35.852C16.952,35.852 16.814,35.888 16.688,35.954C16.556,36.02 16.448,36.11 16.352,36.23C16.256,36.35 16.184,36.488 16.13,36.644C16.076,36.806 16.046,36.974 16.046,37.154C16.046,37.472 16.13,37.718 16.304,37.898C16.478,38.078 16.712,38.162 17.018,38.162C17.156,38.162 17.288,38.144 17.408,38.102C17.528,38.06 17.636,38 17.732,37.928V38.414C17.732,38.504 17.582,38.576 17.276,38.624C16.97,38.672 11.78,38.696 11.18,38.696H11.018C10.79,38.696 10.628,38.654 10.526,38.57C10.424,38.486 10.376,38.342 10.382,38.144L10.412,35.804L9.866,35.9V36.32C9.308,36.434 8.876,36.62 8.564,36.866C8.252,37.112 8.096,37.418 8.096,37.772C8.096,37.922 8.126,38.054 8.186,38.168C8.246,38.288 8.324,38.384 8.426,38.462C8.528,38.54 8.648,38.6 8.78,38.642C8.918,38.684 9.062,38.702 9.218,38.702C9.482,38.702 9.71,38.648 9.902,38.534C9.98,39.056 10.352,39.314 11.012,39.314H11.174C11.42,39.314 16.37,39.308 16.556,39.302C16.742,39.296 16.904,39.284 17.048,39.266C17.192,39.248 17.312,39.224 17.42,39.2C17.522,39.176 17.618,39.14 17.708,39.098C17.888,39.014 18.014,38.894 18.086,38.738C18.158,38.582 18.194,38.348 18.194,38.042C18.194,37.316 18.104,36.77 17.918,36.404ZM17.426,37.586C17.312,37.616 17.198,37.634 17.078,37.634C16.886,37.634 16.736,37.592 16.634,37.502C16.532,37.418 16.478,37.286 16.478,37.118C16.478,36.926 16.538,36.764 16.652,36.632C16.766,36.5 16.91,36.434 17.078,36.434C17.264,36.434 17.402,36.512 17.504,36.674C17.606,36.836 17.666,37.094 17.702,37.454C17.63,37.508 17.54,37.55 17.426,37.586ZM9.302,38.09C9.206,38.09 9.11,38.084 9.02,38.066C8.93,38.048 8.852,38.024 8.78,37.988C8.708,37.952 8.654,37.91 8.618,37.85C8.576,37.796 8.558,37.724 8.558,37.64C8.558,37.538 8.594,37.448 8.666,37.358C8.738,37.274 8.834,37.196 8.954,37.13C9.074,37.064 9.218,37.01 9.374,36.962C9.53,36.92 9.692,36.884 9.866,36.866L9.878,37.976C9.716,38.054 9.524,38.09 9.302,38.09Z" id="path_4"/><path fill="#0f2837ff" d="M26.348,35.594L25.922,35.162L25.49,35.594L25.922,36.032L26.348,35.594Z" id="path_5"/><path fill="#0f2837ff" d="M27.356,35.594L26.93,35.162L26.498,35.594L26.93,36.032L27.356,35.594Z" id="path_6"/><path fill="#0f2837ff" d="M34.412,35.486L33.98,35.048L33.554,35.486L33.98,35.918L34.412,35.486Z" id="path_7"/><path fill="#0f2837ff" d="M34.484,36.812L34.916,36.374L34.484,35.942L34.058,36.374L34.484,36.812Z" id="path_8"/><path fill="#0f2837ff" d="M33.908,36.374L33.476,35.942L33.05,36.374L33.476,36.812L33.908,36.374Z" id="path_9"/><path fill="#0f2837ff" d="M40.436,34.946L40.454,38.33C40.454,38.396 40.43,38.45 40.382,38.498C40.334,38.546 40.274,38.582 40.196,38.606C40.118,38.636 40.034,38.654 39.938,38.666C39.842,38.678 35.012,38.684 34.91,38.684C34.364,38.684 34.088,38.54 34.088,38.258C34.088,38.222 34.1,38.12 34.118,37.958C34.136,37.796 34.16,37.622 34.178,37.424L33.71,37.37C33.698,37.43 33.692,37.502 33.68,37.58C33.668,37.658 33.662,37.736 33.644,37.814C33.632,37.892 33.614,37.97 33.602,38.048C33.59,38.126 33.578,38.186 33.566,38.24C33.53,38.402 33.44,38.516 33.296,38.588C33.152,38.66 28.196,38.69 27.89,38.69C27.752,38.69 27.62,38.69 27.494,38.684C27.368,38.678 27.254,38.672 27.146,38.666C27.386,38.438 27.506,38.162 27.506,37.82C27.506,37.652 27.476,37.49 27.422,37.34C27.362,37.19 27.284,37.058 27.188,36.95C27.092,36.842 26.972,36.752 26.84,36.686C26.708,36.62 26.57,36.59 26.42,36.59C26.27,36.59 26.132,36.62 26,36.686C25.868,36.752 25.754,36.836 25.652,36.95C25.55,37.058 25.472,37.19 25.418,37.34C25.358,37.49 25.334,37.652 25.334,37.82C25.334,38.162 25.454,38.444 25.694,38.666C25.58,38.678 25.466,38.684 25.34,38.684C25.214,38.69 20.348,38.69 20.216,38.69C19.988,38.69 19.826,38.648 19.73,38.564C19.628,38.48 19.58,38.336 19.58,38.138L19.61,34.856L19.064,34.952L19.094,38.342C19.106,38.984 19.478,39.308 20.222,39.308C20.48,39.308 25.472,39.29 25.724,39.248C25.97,39.206 26.21,39.146 26.426,39.068C26.648,39.146 26.882,39.206 27.128,39.248C27.38,39.29 27.632,39.308 27.89,39.308C28.178,39.308 33.17,39.266 33.38,39.188C33.59,39.11 33.74,38.996 33.83,38.846C34.01,39.152 34.37,39.308 34.91,39.308C35.084,39.308 39.974,39.29 40.13,39.254C40.286,39.218 40.424,39.164 40.544,39.08C40.664,39.002 40.766,38.894 40.838,38.762C40.916,38.63 40.952,38.468 40.952,38.276L40.982,34.85L40.436,34.946ZM26.426,38.516C26,38.378 25.79,38.15 25.79,37.832C25.79,37.742 25.808,37.652 25.838,37.574C25.868,37.496 25.916,37.424 25.97,37.364C26.03,37.304 26.096,37.256 26.174,37.226C26.252,37.196 26.336,37.178 26.426,37.178C26.516,37.178 26.594,37.196 26.672,37.226C26.75,37.256 26.816,37.304 26.876,37.364C26.936,37.424 26.978,37.496 27.014,37.574C27.044,37.652 27.062,37.736 27.062,37.832C27.062,38.15 26.846,38.378 26.426,38.516Z" id="path_10"/><path fill="#0f2837ff" d="M41.888,39.302L41.852,34.946L42.398,34.85L42.362,39.302H41.888Z" id="path_11"/><path fill="#0f2837ff" d="M46.79,38.27C46.79,38.6 46.682,38.864 46.472,39.062C46.262,39.26 45.968,39.356 45.602,39.356C45.212,39.356 44.912,39.26 44.708,39.068C44.504,38.876 44.402,38.6 44.402,38.24C44.402,38.012 44.432,37.802 44.498,37.604C44.564,37.406 44.648,37.226 44.756,37.076C44.864,36.926 44.99,36.806 45.134,36.716C45.278,36.626 45.434,36.584 45.596,36.584C45.764,36.584 45.914,36.626 46.064,36.716C46.208,36.806 46.334,36.926 46.442,37.076C46.55,37.226 46.634,37.406 46.694,37.61C46.76,37.814 46.79,38.036 46.79,38.27ZM45.092,36.032L44.666,35.594L45.092,35.156L45.518,35.594L45.092,36.032ZM46.322,38.33C46.322,38.168 46.304,38.018 46.268,37.886C46.232,37.748 46.184,37.634 46.118,37.532C46.052,37.436 45.98,37.358 45.89,37.298C45.8,37.244 45.704,37.214 45.602,37.214C45.506,37.214 45.41,37.238 45.32,37.286C45.23,37.334 45.152,37.4 45.086,37.484C45.02,37.568 44.972,37.664 44.93,37.772C44.894,37.88 44.87,38 44.87,38.126C44.87,38.324 44.93,38.474 45.056,38.576C45.182,38.678 45.362,38.732 45.596,38.732C45.692,38.732 45.782,38.72 45.872,38.702C45.962,38.684 46.034,38.654 46.1,38.612C46.166,38.576 46.214,38.528 46.256,38.48C46.304,38.438 46.322,38.384 46.322,38.33ZM46.1,36.032L45.674,35.594L46.1,35.156L46.526,35.594L46.1,36.032Z" id="path_12"/><path fill="#0f2837ff" d="M46.598,40.142C46.85,40.052 47.078,39.944 47.288,39.824C47.498,39.704 47.684,39.578 47.84,39.446C47.996,39.314 48.116,39.182 48.2,39.05C48.29,38.918 48.332,38.792 48.332,38.672C48.332,38.6 48.314,38.504 48.284,38.39C48.254,38.276 48.206,38.15 48.152,38.012C48.092,37.874 48.026,37.736 47.948,37.586C47.87,37.436 47.786,37.298 47.696,37.16L48.194,36.884C48.386,37.142 48.542,37.43 48.65,37.742C48.758,38.054 48.818,38.348 48.818,38.618C48.818,39.05 48.65,39.446 48.32,39.812C47.99,40.172 47.522,40.466 46.916,40.688L46.598,40.142Z" id="path_13"/><path fill="#0f2837ff" d="M49.772,39.302L49.736,34.946L50.282,34.85L50.246,39.302H49.772Z" id="path_14"/><path fill="#0f2837ff" d="M50.624,40.142C50.87,40.052 51.104,39.944 51.314,39.824C51.524,39.704 51.71,39.578 51.866,39.446C52.022,39.314 52.142,39.182 52.226,39.05C52.316,38.918 52.358,38.792 52.358,38.672C52.358,38.6 52.34,38.504 52.31,38.39C52.28,38.276 52.232,38.15 52.178,38.012C52.118,37.874 52.052,37.736 51.974,37.586C51.896,37.436 51.812,37.298 51.722,37.16L52.22,36.884C52.412,37.142 52.568,37.43 52.676,37.742C52.784,38.054 52.844,38.348 52.844,38.618C52.844,39.05 52.676,39.446 52.346,39.812C52.016,40.172 51.548,40.466 50.942,40.688L50.624,40.142ZM51.89,36.326L51.464,35.888L51.89,35.45L52.316,35.888L51.89,36.326Z" id="path_15"/><path fill="#0f2837ff" d="M53.75,40.118C54.746,39.98 55.316,39.62 55.472,39.032C55.382,39.104 55.274,39.152 55.148,39.194C55.028,39.23 54.896,39.248 54.758,39.248C54.452,39.248 54.212,39.14 54.026,38.93C53.84,38.72 53.75,38.438 53.75,38.096C53.75,37.904 53.78,37.724 53.834,37.562C53.888,37.4 53.966,37.256 54.062,37.136C54.158,37.016 54.272,36.92 54.41,36.854C54.542,36.788 54.686,36.752 54.842,36.752C55.202,36.752 55.484,36.914 55.682,37.238C55.88,37.562 55.982,38.018 55.982,38.612C55.982,38.888 55.934,39.146 55.838,39.38C55.742,39.614 55.61,39.824 55.436,40.004C55.262,40.184 55.052,40.334 54.812,40.448C54.566,40.568 54.296,40.646 53.996,40.688L53.75,40.118ZM54.848,38.69C54.974,38.69 55.1,38.672 55.226,38.636C55.346,38.6 55.442,38.552 55.514,38.498C55.496,38.132 55.43,37.85 55.31,37.652C55.19,37.454 55.028,37.352 54.824,37.352C54.644,37.352 54.5,37.418 54.386,37.55C54.272,37.682 54.218,37.856 54.218,38.072C54.218,38.264 54.272,38.414 54.386,38.522C54.494,38.636 54.65,38.69 54.848,38.69Z" id="path_16"/><path fill="#0f2837ff" d="M8.282,41.762H8.846L10.082,43.874L11.318,41.762H11.864L12.056,45.824H11.48L11.348,42.704L10.202,44.624H9.908L8.78,42.728L8.642,45.824H8.096L8.282,41.762Z" id="path_17"/><path fill="#0f2837ff" d="M13.052,41.744L13.484,42.176L13.052,42.614L12.614,42.176L13.052,41.744ZM12.782,42.992H13.328V45.824H12.782V42.992Z" id="path_18"/><path fill="#0f2837ff" d="M14.108,45.824V43.286V43.172C14.108,43.136 14.108,43.076 14.102,42.992H14.624L14.642,43.418C14.678,43.37 14.726,43.316 14.774,43.256C14.828,43.196 14.894,43.142 14.966,43.094C15.044,43.046 15.134,43.004 15.236,42.974C15.338,42.944 15.458,42.926 15.584,42.926C15.956,42.926 16.226,43.034 16.406,43.25C16.586,43.466 16.676,43.76 16.676,44.126V45.824H16.13V44.168C16.13,43.904 16.076,43.712 15.962,43.586C15.848,43.46 15.686,43.4 15.482,43.4C15.326,43.4 15.194,43.43 15.086,43.496C14.978,43.562 14.894,43.646 14.834,43.748C14.768,43.85 14.726,43.97 14.696,44.102C14.666,44.234 14.654,44.372 14.654,44.51V45.824H14.108Z" id="path_19"/><path fill="#0f2837ff" d="M17.624,41.744L18.056,42.176L17.624,42.614L17.186,42.176L17.624,41.744ZM17.348,42.992H17.894V45.824H17.348V42.992Z" id="path_20"/><path fill="#0f2837ff" d="M18.812,45.11C18.914,45.212 19.034,45.29 19.178,45.356C19.322,45.416 19.484,45.446 19.67,45.446C19.85,45.446 20.006,45.416 20.126,45.356C20.246,45.296 20.306,45.206 20.306,45.08C20.306,45.014 20.294,44.96 20.264,44.912C20.234,44.864 20.192,44.822 20.132,44.786C20.072,44.75 19.988,44.714 19.88,44.684C19.778,44.654 19.646,44.618 19.496,44.582C19.388,44.558 19.28,44.528 19.172,44.486C19.064,44.444 18.968,44.39 18.884,44.324C18.8,44.258 18.728,44.174 18.674,44.078C18.62,43.982 18.596,43.868 18.596,43.736C18.596,43.598 18.626,43.478 18.692,43.376C18.752,43.274 18.836,43.184 18.944,43.112C19.052,43.04 19.166,42.986 19.298,42.95C19.43,42.914 19.568,42.896 19.706,42.896C19.946,42.896 20.15,42.926 20.324,42.992C20.498,43.058 20.648,43.142 20.78,43.256L20.48,43.634C20.396,43.556 20.288,43.49 20.162,43.436C20.036,43.382 19.886,43.358 19.712,43.358C19.538,43.358 19.394,43.388 19.292,43.442C19.184,43.496 19.136,43.592 19.136,43.724C19.136,43.844 19.208,43.934 19.346,43.994C19.484,44.054 19.67,44.108 19.898,44.162C20.03,44.192 20.156,44.234 20.27,44.276C20.384,44.318 20.486,44.372 20.576,44.438C20.666,44.504 20.732,44.588 20.786,44.684C20.834,44.78 20.864,44.9 20.864,45.038C20.864,45.182 20.834,45.302 20.768,45.41C20.702,45.518 20.618,45.608 20.504,45.68C20.396,45.752 20.27,45.806 20.126,45.842C19.982,45.878 19.832,45.896 19.682,45.896C19.148,45.896 18.746,45.752 18.476,45.464L18.812,45.11Z" id="path_21"/><path fill="#0f2837ff" d="M21.752,43.448H21.242V42.992H21.752V42.068H22.298V42.992H23.126V43.448H22.298V44.846C22.298,45.074 22.334,45.23 22.406,45.314C22.478,45.398 22.58,45.44 22.706,45.44C22.814,45.44 22.898,45.422 22.97,45.392C23.036,45.362 23.108,45.308 23.18,45.248L23.432,45.584C23.312,45.698 23.192,45.782 23.066,45.83C22.94,45.878 22.796,45.908 22.622,45.908C22.322,45.908 22.1,45.824 21.962,45.662C21.818,45.5 21.752,45.248 21.752,44.9V43.448Z" id="path_22"/><path fill="#0f2837ff" d="M23.894,45.824V43.268V43.172C23.894,43.136 23.894,43.076 23.888,42.998H24.41L24.428,43.454C24.458,43.406 24.506,43.352 24.554,43.292C24.608,43.232 24.674,43.178 24.746,43.13C24.824,43.082 24.908,43.04 25.01,43.004C25.112,42.968 25.226,42.95 25.352,42.95C25.412,42.95 25.472,42.956 25.52,42.962C25.568,42.968 25.616,42.98 25.664,42.998L25.544,43.508C25.472,43.478 25.376,43.466 25.262,43.466C25.142,43.466 25.034,43.49 24.938,43.532C24.836,43.58 24.752,43.64 24.68,43.718C24.608,43.796 24.548,43.892 24.506,43.994C24.464,44.102 24.44,44.21 24.44,44.33V45.824H23.894Z" id="path_23"/><path fill="#0f2837ff" d="M26.222,46.52C26.264,46.556 26.312,46.586 26.36,46.616C26.414,46.646 26.48,46.658 26.558,46.658C26.624,46.658 26.678,46.646 26.726,46.616C26.774,46.586 26.816,46.544 26.852,46.484C26.888,46.424 26.93,46.352 26.96,46.274C26.996,46.19 27.032,46.094 27.08,45.986L27.152,45.806L25.886,42.998H26.516L27.428,45.134L28.232,42.998H28.826L27.692,45.758C27.638,45.89 27.584,46.034 27.53,46.19C27.476,46.346 27.404,46.496 27.326,46.634C27.242,46.772 27.146,46.892 27.026,46.982C26.906,47.078 26.762,47.12 26.582,47.12C26.438,47.12 26.318,47.102 26.222,47.06C26.126,47.024 26.042,46.97 25.964,46.904L26.222,46.52Z" id="path_24"/><path fill="#0f2837ff" d="M31.526,45.908C31.31,45.908 31.106,45.866 30.92,45.788C30.74,45.71 30.578,45.602 30.446,45.464C30.314,45.326 30.212,45.164 30.134,44.984C30.056,44.804 30.02,44.612 30.02,44.402C30.02,44.192 30.056,44 30.134,43.82C30.206,43.64 30.314,43.478 30.446,43.34C30.578,43.202 30.734,43.094 30.92,43.016C31.1,42.938 31.304,42.896 31.526,42.896C31.742,42.896 31.94,42.938 32.126,43.016C32.306,43.094 32.468,43.202 32.6,43.34C32.732,43.478 32.84,43.64 32.912,43.82C32.99,44 33.026,44.192 33.026,44.402C33.026,44.612 32.99,44.804 32.912,44.984C32.834,45.164 32.732,45.326 32.6,45.464C32.468,45.602 32.306,45.71 32.126,45.788C31.946,45.872 31.742,45.908 31.526,45.908ZM31.526,45.434C31.67,45.434 31.802,45.404 31.922,45.344C32.042,45.284 32.138,45.206 32.222,45.11C32.306,45.014 32.366,44.906 32.408,44.78C32.45,44.654 32.474,44.528 32.474,44.402C32.474,44.276 32.45,44.15 32.408,44.024C32.366,43.898 32.3,43.79 32.222,43.694C32.138,43.598 32.042,43.52 31.922,43.46C31.808,43.4 31.676,43.37 31.526,43.37C31.382,43.37 31.25,43.4 31.13,43.46C31.01,43.52 30.914,43.598 30.83,43.694C30.746,43.79 30.686,43.898 30.644,44.024C30.602,44.15 30.578,44.276 30.578,44.408C30.578,44.54 30.602,44.666 30.644,44.786C30.686,44.906 30.752,45.02 30.83,45.116C30.914,45.212 31.01,45.29 31.13,45.35C31.25,45.404 31.382,45.434 31.526,45.434Z" id="path_25"/><path fill="#0f2837ff" d="M33.86,43.448H33.35V42.992H33.86V42.758C33.86,42.566 33.89,42.404 33.944,42.26C33.998,42.122 34.07,42.008 34.16,41.918C34.25,41.828 34.358,41.762 34.472,41.72C34.592,41.678 34.712,41.654 34.844,41.654C34.994,41.654 35.144,41.678 35.288,41.726C35.432,41.774 35.564,41.852 35.684,41.966L35.408,42.32C35.258,42.194 35.096,42.134 34.928,42.134C34.772,42.134 34.64,42.188 34.55,42.284C34.454,42.386 34.406,42.56 34.406,42.806V42.986H35.216V43.442H34.406V45.818H33.86V43.448Z" id="path_26"/><path fill="#0f2837ff" d="M40.496,45.11C40.454,45.182 40.382,45.266 40.286,45.362C40.19,45.458 40.076,45.542 39.944,45.626C39.812,45.71 39.656,45.782 39.482,45.836C39.308,45.89 39.116,45.92 38.906,45.92C38.606,45.92 38.33,45.866 38.084,45.764C37.838,45.656 37.622,45.512 37.442,45.32C37.262,45.134 37.124,44.906 37.022,44.648C36.92,44.39 36.872,44.108 36.872,43.802C36.872,43.508 36.92,43.226 37.022,42.968C37.124,42.71 37.262,42.482 37.442,42.284C37.622,42.086 37.838,41.936 38.084,41.822C38.336,41.708 38.612,41.654 38.918,41.654C39.134,41.654 39.326,41.678 39.5,41.732C39.668,41.786 39.818,41.852 39.95,41.93C40.076,42.008 40.19,42.098 40.28,42.188C40.37,42.284 40.448,42.368 40.502,42.458L40.088,42.812C40.04,42.746 39.98,42.674 39.914,42.596C39.848,42.518 39.764,42.452 39.674,42.392C39.578,42.332 39.47,42.278 39.35,42.242C39.23,42.2 39.086,42.182 38.93,42.182C38.708,42.182 38.504,42.224 38.33,42.308C38.156,42.392 38.006,42.506 37.88,42.656C37.754,42.8 37.664,42.974 37.598,43.166C37.532,43.364 37.502,43.568 37.502,43.79C37.502,44.012 37.538,44.216 37.604,44.408C37.67,44.6 37.766,44.768 37.886,44.912C38.006,45.056 38.156,45.164 38.33,45.248C38.504,45.326 38.702,45.368 38.918,45.368C39.098,45.368 39.26,45.344 39.392,45.296C39.524,45.248 39.638,45.194 39.728,45.128C39.818,45.062 39.896,44.996 39.956,44.93C40.016,44.864 40.064,44.81 40.106,44.762L40.496,45.11Z" id="path_27"/><path fill="#0f2837ff" d="M41.066,42.992H41.612V44.654C41.612,44.924 41.666,45.116 41.774,45.236C41.882,45.356 42.044,45.416 42.248,45.416C42.404,45.416 42.536,45.386 42.644,45.32C42.746,45.254 42.83,45.17 42.896,45.068C42.962,44.966 43.004,44.846 43.034,44.714C43.058,44.582 43.076,44.444 43.076,44.306V42.992H43.622V45.536V45.65C43.622,45.71 43.622,45.77 43.628,45.824H43.106L43.088,45.404C43.052,45.452 43.004,45.506 42.956,45.56C42.902,45.614 42.836,45.668 42.758,45.716C42.68,45.764 42.59,45.8 42.488,45.836C42.386,45.866 42.272,45.884 42.14,45.884C41.768,45.884 41.498,45.776 41.324,45.566C41.15,45.356 41.06,45.062 41.06,44.69V42.992H41.066Z" id="path_28"/><path fill="#0f2837ff" d="M44.93,41.762H44.384V45.824H44.93V41.762Z" id="path_29"/><path fill="#0f2837ff" d="M45.926,43.448H45.416V42.992H45.926V42.068H46.472V42.992H47.3V43.448H46.472V44.846C46.472,45.074 46.508,45.23 46.58,45.314C46.652,45.398 46.754,45.44 46.88,45.44C46.988,45.44 47.072,45.422 47.144,45.392C47.21,45.362 47.282,45.308 47.354,45.248L47.606,45.584C47.486,45.698 47.366,45.782 47.246,45.83C47.12,45.878 46.976,45.908 46.802,45.908C46.502,45.908 46.28,45.824 46.142,45.662C45.998,45.5 45.932,45.248 45.932,44.9V43.448H45.926Z" id="path_30"/><path fill="#0f2837ff" d="M47.942,42.992H48.488V44.654C48.488,44.924 48.542,45.116 48.65,45.236C48.758,45.356 48.92,45.416 49.124,45.416C49.28,45.416 49.412,45.386 49.52,45.32C49.622,45.254 49.706,45.17 49.772,45.068C49.838,44.966 49.88,44.846 49.91,44.714C49.934,44.582 49.952,44.444 49.952,44.306V42.992H50.498V45.536V45.65C50.498,45.71 50.498,45.77 50.504,45.824H49.982L49.964,45.404C49.928,45.452 49.88,45.506 49.832,45.56C49.778,45.614 49.712,45.668 49.634,45.716C49.556,45.764 49.466,45.8 49.364,45.836C49.262,45.866 49.148,45.884 49.016,45.884C48.644,45.884 48.374,45.776 48.2,45.566C48.026,45.356 47.936,45.062 47.936,44.69V42.992H47.942Z" id="path_31"/><path fill="#0f2837ff" d="M51.26,45.824V43.268V43.172C51.26,43.136 51.26,43.076 51.254,42.998H51.776L51.794,43.454C51.824,43.406 51.872,43.352 51.92,43.292C51.974,43.232 52.04,43.178 52.112,43.13C52.19,43.082 52.274,43.04 52.376,43.004C52.478,42.968 52.592,42.95 52.718,42.95C52.778,42.95 52.838,42.956 52.886,42.962C52.934,42.968 52.982,42.98 53.03,42.998L52.91,43.508C52.838,43.478 52.742,43.466 52.628,43.466C52.508,43.466 52.4,43.49 52.304,43.532C52.202,43.58 52.118,43.64 52.046,43.718C51.974,43.796 51.914,43.892 51.872,43.994C51.83,44.102 51.806,44.21 51.806,44.33V45.824H51.26Z" id="path_32"/><path fill="#0f2837ff" d="M55.91,45.41C55.88,45.446 55.826,45.494 55.766,45.548C55.7,45.602 55.616,45.662 55.514,45.71C55.412,45.764 55.286,45.806 55.148,45.848C55.01,45.884 54.848,45.908 54.668,45.908C54.446,45.908 54.248,45.872 54.062,45.8C53.876,45.728 53.72,45.626 53.594,45.488C53.462,45.356 53.366,45.194 53.294,45.008C53.222,44.822 53.186,44.612 53.186,44.384C53.186,44.174 53.222,43.982 53.288,43.802C53.354,43.622 53.456,43.466 53.582,43.334C53.708,43.202 53.858,43.1 54.032,43.022C54.206,42.944 54.392,42.908 54.602,42.908C54.848,42.908 55.052,42.956 55.232,43.046C55.406,43.142 55.55,43.262 55.664,43.418C55.778,43.574 55.856,43.748 55.91,43.946C55.964,44.144 55.988,44.354 55.988,44.57H53.75C53.756,44.696 53.78,44.81 53.834,44.918C53.888,45.026 53.954,45.116 54.038,45.194C54.122,45.272 54.218,45.332 54.332,45.374C54.44,45.416 54.56,45.44 54.68,45.44C54.92,45.44 55.118,45.398 55.268,45.32C55.424,45.236 55.532,45.158 55.604,45.08L55.91,45.41ZM55.418,44.162C55.4,43.94 55.322,43.754 55.184,43.604C55.046,43.448 54.854,43.37 54.602,43.37C54.47,43.37 54.356,43.394 54.254,43.436C54.152,43.478 54.062,43.538 53.99,43.61C53.918,43.682 53.858,43.766 53.822,43.862C53.78,43.958 53.756,44.054 53.756,44.156H55.418V44.162Z" id="path_33"/><path fill="#eb5a3cff" d="M46.028,18.812C45.728,22.868 46.094,26.906 45.998,30.998C45.98,31.748 46.076,32.552 46.016,33.308C46.01,33.398 45.986,33.464 45.848,33.47C45.662,33.452 45.476,33.434 45.29,33.47C45.23,32.93 45.254,32.51 45.206,32.042C45.098,31.022 45.158,30.194 45.152,29.084C45.14,27.182 44.978,25.25 45.116,23.354C45.164,22.676 45.17,21.572 45.134,20.894C45.098,20.204 45.062,19.694 45.104,18.818C45.434,18.776 45.74,18.776 46.028,18.812Z" id="path_34"/><path fill="#eb5a3cff" d="M12.362,17.666C12.692,17.696 12.842,17.798 12.866,18.17C12.902,18.728 12.824,19.028 12.884,19.574C13.082,21.386 12.656,23.228 12.848,25.046C12.95,26.006 12.854,26.87 12.884,27.83C12.932,29.264 12.872,30.89 12.836,32.57H8.366C8.21,32.348 8.24,31.232 8.288,30.938C8.33,30.686 8.33,30.422 8.324,30.164C8.312,29.108 8.378,28.166 8.372,27.11C8.366,26.492 8.36,25.868 8.258,25.256C8.168,24.716 8.306,23.768 8.228,23.222C8.126,22.538 8.072,18.47 8.108,17.69C8.108,17.69 11.834,17.618 12.362,17.666Z" id="path_35"/><path fill="#6e1946ff" d="M20.552,18.62C20.294,18.524 20.336,18.83 20.336,18.986C20.336,19.136 20.336,19.226 20.33,19.424C20.324,19.814 20.36,20.888 20.36,21.272C20.366,21.92 20.408,22.49 20.396,23C20.372,23.96 20.372,24.926 20.408,25.892C20.504,28.286 20.39,30.692 20.462,33.074C20.468,33.278 20.6,33.338 20.786,33.386L21.062,33.434C21.05,31.394 21.212,29.252 21.086,27.218C21.032,26.366 21.062,25.52 21.062,24.668C21.062,23.852 21.056,23.036 21.068,22.22C21.08,21.722 21.074,21.23 21.056,20.732C21.038,20.12 21.068,18.938 20.906,18.776C20.822,18.674 20.72,18.68 20.552,18.62Z" id="path_36"/><path fill="#91b9b4ff" d="M16.142,31.754C16.412,31.748 16.358,31.544 16.358,31.382C16.358,31.232 16.394,31.142 16.394,30.944C16.4,30.548 16.376,29.468 16.37,29.078C16.364,28.424 16.328,27.854 16.34,27.338C16.364,26.366 16.376,25.394 16.34,24.422C16.256,22.004 16.382,19.58 16.322,17.18C16.316,16.97 16.178,16.964 15.944,16.952L15.62,16.964C15.62,19.022 15.644,21.212 15.668,23.402C15.68,24.26 15.668,24.926 15.668,25.784C15.668,26.606 15.686,27.266 15.68,28.088C15.68,28.526 15.662,29.006 15.656,29.612C15.65,30.23 15.62,31.4 15.764,31.586C15.872,31.718 15.974,31.754 16.142,31.754Z" id="path_37"/><path fill="#eb5a3cff" d="M22.016,33.014C21.77,32.984 21.734,32.87 21.74,32.588C21.764,31.748 21.71,29.948 21.62,28.85C21.542,27.854 21.56,26.834 21.686,25.85C21.77,25.166 21.65,24.662 21.65,23.816C21.644,22.706 21.71,21.836 21.71,21.086C21.704,20.624 21.692,20.162 21.668,19.7C21.65,19.268 21.656,18.314 21.656,18.212C21.728,18.188 21.986,18.194 22.052,18.2C22.292,18.224 22.406,18.254 22.574,18.338C22.676,18.776 22.646,19.706 22.646,20.228C22.646,20.534 22.628,21.794 22.646,22.094C22.682,22.598 22.664,23.108 22.664,23.612C22.67,24.254 22.706,24.902 22.706,25.544C22.706,26.36 22.64,27.176 22.616,27.992C22.58,29.498 22.772,31.442 22.754,32.702C22.748,32.954 22.778,33.086 22.514,33.086C22.52,33.074 22.268,33.044 22.016,33.014Z" id="path_38"/><path fill="#b41932ff" d="M44.648,32.324C44.696,31.7 44.564,30.734 44.564,30.23C44.564,29.936 44.528,28.718 44.546,28.424C44.576,27.938 44.552,27.446 44.552,26.954C44.552,26.33 44.588,25.706 44.582,25.082C44.576,24.29 44.498,23.504 44.468,22.712C44.408,21.068 44.654,18.878 44.552,17.714C44.138,17.624 43.628,17.6 43.07,17.612C42.932,18.53 42.968,19.448 42.986,20.564C42.998,21.29 42.932,22.13 42.95,23.21C42.962,24.026 43.172,25.004 43.088,25.67C42.968,26.624 42.95,27.608 43.04,28.574C43.172,29.954 43.124,32.216 43.142,32.246L44.648,32.324Z" id="path_39"/><path fill="#6e1946ff" d="M48.998,32.36C49.064,30.656 49.052,29.63 49.082,28.16C49.1,27.122 48.938,25.808 48.956,24.716C48.992,22.712 49.016,22.028 48.854,20.162C48.818,19.742 48.878,18.956 48.86,18.536C48.848,18.254 48.836,17.894 48.83,17.612C48.83,17.612 50.204,17.906 51.272,17.684C52.97,17.324 55.778,17.696 55.778,17.696C55.946,17.984 55.97,18.644 55.964,18.806C55.934,20.036 55.91,19.604 55.952,20.828C55.994,21.986 55.778,23.012 55.778,24.644C55.778,25.718 55.94,26.426 55.976,27.14C56.012,27.878 55.886,28.496 55.934,29.66C55.964,30.38 55.946,32.27 55.958,32.444C55.958,32.444 50.9,32.474 49.82,32.342C49.25,32.27 48.998,32.36 48.998,32.36Z" id="path_40"/><path fill="#fac39bff" d="M39.746,16.988C39.776,19.532 39.794,22.352 39.92,24.644C39.962,25.412 39.938,26.372 39.968,27.242C39.98,27.632 39.914,28.406 39.884,28.922C39.86,29.342 39.872,29.762 39.878,30.176C39.89,30.62 39.896,31.55 39.86,31.568C39.602,31.526 39.326,31.526 39.038,31.568C38.942,31.226 39.008,30.908 39.014,30.554C39.068,27.5 38.852,25.274 38.906,22.466C38.924,21.554 38.894,20.306 38.822,19.4C38.762,18.614 38.786,17.726 38.882,16.946C39.182,16.946 39.47,16.958 39.746,16.988Z" id="path_41"/><path fill="#ff9619ff" d="M48.236,17.126C48.314,18.44 48.254,19.304 48.278,20.432C48.302,21.422 48.41,22.268 48.35,23.402C48.296,24.38 48.398,25.364 48.422,26.348C48.44,27.302 48.458,28.262 48.47,29.216C48.488,29.954 48.506,30.626 48.506,31.37C48.506,31.496 48.494,31.76 48.494,31.886C48.494,31.886 48.236,31.838 47.978,31.862C47.336,31.922 46.838,31.844 46.652,31.808C46.496,31.772 46.628,29.186 46.634,28.946C46.652,27.974 46.652,27.002 46.652,26.03C46.646,25.046 46.556,24.002 46.538,23.024C46.52,22.028 46.574,21.098 46.55,20.108C46.526,19.106 46.496,18.254 46.466,17.252C46.46,17.048 46.652,16.94 46.976,17.03C47.396,17.138 47.846,17 48.236,17.126Z" id="path_42"/><path fill="#6e1946ff" d="M14.558,18.356C14.858,18.398 15.08,18.68 15.086,19.016C15.092,19.496 15.086,19.922 15.074,20.342C15.062,20.81 15.044,21.266 15.056,21.776C15.08,23.852 15.17,25.832 15.08,27.98C15.002,29.798 15.17,31.574 15.152,33.242C14.6,33.212 13.94,33.158 13.406,33.134C13.556,30.056 13.46,27.14 13.424,23.936C13.406,22.136 13.7,20.726 13.448,18.326C13.832,18.284 14.204,18.308 14.558,18.356Z" id="path_43"/><path fill="#0f2837ff" d="M38.354,25.196C38.318,24.098 38.324,22.028 38.408,20.924C38.498,19.7 38.198,17.846 37.52,17.882C36.932,17.852 36.284,17.918 35.69,17.948C35.216,17.972 34.61,17.972 34.136,18.014C33.326,18.086 33.236,17.978 32.42,17.978C31.4,17.978 30.524,18.062 29.504,18.062C28.52,18.062 27.422,18.038 26.438,17.96C25.472,17.888 24.446,17.75 23.486,17.78C23.348,17.786 23.27,18.404 23.24,19.172C23.216,19.91 23.168,21.5 23.228,22.262C23.678,21.71 24.242,21.5 24.794,21.446C25.238,21.404 25.754,21.38 26.234,21.452C26.282,21.458 25.922,21.116 25.622,20.882C25.454,20.75 25.268,20.612 25.058,20.582C24.8,20.546 24.53,20.57 24.266,20.552C24.458,20.384 24.794,19.964 25.616,20.072C26.06,20.132 26.804,20.906 27.074,20.696C27.374,20.462 27.254,19.544 27.65,19.442C27.974,19.358 28.184,20.588 28.34,20.858C28.7,20.396 29.24,20.066 29.822,20C30.128,19.964 31.064,20.078 31.19,20.522C31.19,20.516 29.996,20.306 29.258,21.374C30.308,20.96 31.37,21.098 32.264,21.782C32.51,21.974 32.672,22.172 32.84,22.4C33.08,22.724 33.05,22.868 33.044,23.054C32.654,22.976 32.294,22.304 31.622,22.1C31.058,21.926 30.452,21.962 29.888,22.13C31.166,22.34 32.936,24.038 32.324,25.436C32.126,25.886 32.072,25.586 32,25.208C31.916,24.758 31.79,24.5 31.574,24.206C31.388,23.948 31.19,23.726 30.956,23.504C30.752,23.306 30.122,23.03 29.828,23.048C30.65,23.282 31.184,24.92 31.25,25.094C31.424,25.52 31.418,26.006 31.43,26.456C31.436,26.714 31.46,27.62 31.13,27.704C31.136,27.704 31.184,25.514 29.636,24.26C30.038,24.968 30.074,25.838 30.026,26.63C30.002,27.074 29.93,27.434 29.732,27.836C29.69,27.926 29.528,28.328 29.462,28.34C29.258,28.388 29.366,27.116 29.336,26.888C29.3,26.612 28.796,24.728 28.268,25.19C27.998,25.424 28.136,26.48 28.172,26.954C28.214,27.53 28.28,28.376 28.292,28.952C28.316,30.152 28.346,30.998 28.502,32.204C29.882,31.46 35.942,28.358 36.806,30.92C36.812,31.004 36.758,30.944 36.758,30.944C36.164,30.056 34.55,30.512 33.74,30.764C32.3,31.208 30.92,31.91 29.618,32.654C31.76,32.66 35.066,32.654 37.514,32.654C38.078,32.654 38.528,32.186 38.51,31.622C38.498,31.208 38.486,30.71 38.486,30.176C38.486,29.57 38.516,28.916 38.534,28.31C38.558,27.116 38.396,26.402 38.354,25.196ZM26.324,26.456C26.24,26.768 26.132,27.296 26.12,27.434C26.102,27.572 25.994,28.316 25.994,28.316C25.946,28.286 25.916,28.232 25.892,28.178C25.586,27.488 25.646,26.396 25.646,26.39C25.754,24.674 26.366,24.212 26.366,24.218C26.09,24.062 25.538,24.71 25.244,25.118C24.854,25.664 24.92,26.036 24.872,26.888C24.662,26.846 24.458,26.498 24.446,26.24C24.374,24.902 24.968,23.678 25.61,23.174C25.682,23.108 24.872,23.27 24.728,23.324C24.2,23.54 23.822,23.918 23.564,24.422C23.018,25.478 23.366,26.738 23.294,27.896C23.252,28.562 23.348,29.222 23.342,29.888C23.336,30.392 23.21,30.488 23.714,30.53C23.912,30.548 24.11,30.578 24.308,30.62C25.496,30.878 26.444,31.424 27.278,32.288C27.41,30.746 27.428,29.324 27.428,27.776C27.428,27.164 27.53,25.85 27.122,25.328C26.708,24.806 26.42,26.108 26.324,26.456ZM23.42,30.962C23.39,31.562 23.432,32.042 23.438,32.744C24.026,32.702 24.38,32.756 24.968,32.792C25.532,32.828 26.132,32.768 26.696,32.84C25.832,31.904 24.728,31.076 23.42,30.962ZM24.386,22.694C24.596,22.55 25.466,22.112 25.568,22.118C24.944,21.878 24.194,21.938 23.648,22.286C23.114,22.622 23.294,23.558 23.222,24.158C23.486,23.624 23.882,23.03 24.386,22.694Z" id="path_44"/><path fill="#91b9b4ff" d="M42.08,18.158C42.158,18.17 42.218,18.236 42.224,18.314C42.266,19.982 42.302,21.482 42.41,23.21C42.452,23.894 42.488,24.902 42.386,25.706C42.254,26.762 42.524,27.62 42.452,28.682C42.356,30.086 42.56,31.232 42.482,32.636L40.742,32.672C40.598,32.678 40.466,32.54 40.49,32.204C40.508,31.868 40.484,30.428 40.484,29.342C40.484,28.256 40.628,27.254 40.508,26.042C40.448,25.448 40.592,24.812 40.556,24.218C40.496,23.138 40.46,22.19 40.436,21.11C40.424,20.468 40.436,19.49 40.418,18.86C40.406,18.422 40.502,18.098 40.742,17.99C41.006,17.87 41.768,18.116 42.08,18.158Z" id="path_45"/><path fill="#ff9619ff" d="M16.952,30.944C16.934,31.346 16.928,31.49 16.928,31.64C16.928,31.742 17.018,31.76 17.102,31.802C17.156,31.832 17.624,31.928 17.78,31.964C17.912,31.994 18.104,32.012 18.236,32.012C18.686,32.006 19.136,32.162 19.586,32.12C19.598,32.12 19.616,32.114 19.628,32.108C19.664,32.084 19.79,32.024 19.826,31.772C19.88,31.388 19.772,31.052 19.832,30.356C19.892,29.66 19.838,27.77 19.844,27.314C19.874,23.87 19.676,23.816 19.766,21.158C19.796,20.222 19.772,19.91 19.67,18.926C19.646,18.668 19.526,18.008 19.586,17.552C19.61,17.384 19.508,17.246 19.346,17.24C18.602,17.204 17.036,17.318 17.036,17.318C16.952,17.666 16.934,17.996 16.958,18.458C16.97,18.782 16.91,19.316 16.91,19.64C16.91,20.006 16.886,20.372 16.904,20.738C16.946,21.722 16.976,22.706 16.946,23.684C16.868,26.174 17.09,27.62 16.994,30.062L16.952,30.944Z" id="path_46"/></svg>