<svg id="vector" xmlns="http://www.w3.org/2000/svg" width="40.0d" height="40.0d" viewBox="0 0 40.0 40.0"><path fill="#ffffffff" d="M20,20.001m-19.75,0a19.75,19.75 0,1 1,39.5 0a19.75,19.75 0,1 1,-39.5 0" stroke="#e6e6e6ff" stroke-width="0.5" id="path_0"/><path fill="#00524cff" d="M14.698,21.497L14.587,21.522L14.139,21.971C15.571,21.666 17.642,21.477 19.939,21.477C22.237,21.477 24.303,21.666 25.74,21.971L26.222,21.489C24.744,21.18 22.661,21.003 20.483,21.003C18.288,21.003 16.176,21.184 14.698,21.497Z" id="path_1"/><path fill="#00524cff" d="M14.591,21.518L14.616,21.407C14.929,19.929 15.11,17.817 15.11,15.622C15.11,13.448 14.933,11.361 14.628,9.883L14.143,10.369C14.447,11.802 14.637,13.873 14.637,16.17C14.637,18.467 14.447,20.534 14.143,21.971L14.591,21.518Z" id="path_2"/><path fill="@drawable/$partner_ministry_of_commerce__0" d="M20.483,10.394C18.33,10.394 16.259,10.221 14.777,9.92C15.077,11.402 15.254,13.473 15.254,15.626C15.254,17.78 15.081,19.85 14.777,21.333C16.259,21.032 18.33,20.859 20.483,20.859C22.64,20.859 24.707,21.032 26.189,21.333C25.889,19.85 25.716,17.784 25.716,15.626C25.716,13.473 25.889,11.402 26.189,9.92C24.711,10.221 22.64,10.394 20.483,10.394Z" id="path_3"/><path fill="#ffffffff" d="M21.677,14.173C21.681,14.099 21.586,13.992 21.549,13.955L21.52,13.93L21.553,13.914C21.574,13.905 21.582,13.893 21.582,13.881C21.586,13.831 21.463,13.733 21.376,13.683L21.343,13.663L21.376,13.638C21.38,13.634 21.385,13.634 21.389,13.63C21.368,13.605 21.347,13.58 21.327,13.543C21.31,13.555 21.278,13.572 21.236,13.572C21.174,13.572 21.096,13.539 21.006,13.477L21.002,13.473C20.997,13.469 20.771,13.214 20.594,13.074C20.685,13.234 20.767,13.473 20.775,13.506C20.89,13.7 20.981,13.671 20.981,13.671L21.01,13.663L21.014,13.691C21.039,13.897 21.138,13.905 21.142,13.905H21.162V13.93C21.166,14.124 21.29,14.177 21.294,14.181L21.306,14.189L21.31,14.206C21.319,14.375 21.376,14.507 21.376,14.507L21.38,14.515V14.523C21.376,14.581 21.455,14.688 21.516,14.749C21.541,14.745 21.557,14.733 21.57,14.712C21.607,14.655 21.594,14.548 21.59,14.511L21.586,14.494L21.599,14.486C21.714,14.387 21.648,14.272 21.644,14.268L21.632,14.247L21.652,14.235C21.669,14.214 21.677,14.198 21.677,14.173Z" id="path_4"/><path fill="#ffffffff" d="M22.331,14.054L22.336,14.041C22.389,13.819 22.253,13.72 22.245,13.716L22.229,13.704L22.233,13.683C22.245,13.642 22.245,13.605 22.224,13.568C22.167,13.453 21.986,13.399 21.986,13.399L21.957,13.391L21.969,13.362C21.986,13.329 21.986,13.3 21.973,13.28C21.932,13.206 21.743,13.189 21.677,13.189H21.644L21.656,13.156C21.66,13.144 21.66,13.132 21.664,13.119C21.66,13.119 21.656,13.123 21.656,13.123C21.594,13.123 21.529,13.103 21.463,13.057C21.438,13.09 21.372,13.148 21.224,13.148C21.195,13.148 21.162,13.148 21.129,13.14H21.125C21.121,13.14 20.796,13.012 20.59,12.987C20.578,12.983 20.565,12.983 20.553,12.983C20.553,12.983 20.549,12.983 20.549,12.987C20.561,12.996 20.578,13.008 20.594,13.016C20.615,13.033 20.639,13.049 20.664,13.07C20.829,13.21 21.018,13.42 21.039,13.444C21.117,13.502 21.187,13.531 21.24,13.531C21.294,13.531 21.315,13.502 21.319,13.498L21.327,13.486L21.339,13.469L21.356,13.502C21.385,13.547 21.409,13.584 21.434,13.609C21.442,13.617 21.45,13.625 21.455,13.63C21.5,13.675 21.537,13.683 21.562,13.683C21.586,13.683 21.599,13.675 21.599,13.675L21.619,13.658L21.632,13.683C21.726,13.881 21.837,13.901 21.883,13.901C21.891,13.901 21.895,13.901 21.895,13.901L21.912,13.897L21.92,13.914C22.023,14.12 22.154,14.243 22.154,14.243L22.159,14.247V14.251C22.191,14.342 22.34,14.412 22.41,14.437C22.5,14.313 22.336,14.07 22.336,14.066L22.331,14.054Z" id="path_5"/><path fill="#ffffffff" d="M22.735,13.218C22.714,13.119 22.579,13.041 22.579,13.041L22.566,13.033V13.016C22.574,12.823 22.422,12.802 22.418,12.802L22.393,12.798L22.397,12.773C22.401,12.744 22.393,12.72 22.381,12.703C22.352,12.67 22.29,12.65 22.2,12.65C22.142,12.65 22.097,12.658 22.097,12.658L22.06,12.666L22.068,12.629C22.076,12.604 22.072,12.588 22.068,12.576C22.06,12.563 22.035,12.555 22.002,12.555C21.899,12.555 21.743,12.621 21.743,12.621L21.706,12.637L21.71,12.596C21.714,12.571 21.71,12.555 21.697,12.543C21.685,12.526 21.652,12.518 21.615,12.518C21.524,12.518 21.405,12.563 21.401,12.563L21.393,12.567C21.356,12.588 21.306,12.604 21.236,12.604C21.228,12.65 21.195,12.744 21.026,12.827H21.022C21.022,12.827 20.932,12.847 20.825,12.876C20.763,12.893 20.693,12.917 20.631,12.942H20.627C20.648,12.946 20.668,12.95 20.693,12.954C20.886,12.996 21.109,13.082 21.138,13.094C21.166,13.099 21.195,13.103 21.224,13.103C21.397,13.103 21.434,13.02 21.434,13.016L21.446,12.987L21.471,13.004C21.537,13.053 21.599,13.074 21.652,13.074H21.656C21.664,13.074 21.673,13.074 21.681,13.07C21.689,13.066 21.697,13.066 21.706,13.061C21.735,13.053 21.747,13.033 21.747,13.033L21.763,13.012L21.78,13.028C21.846,13.086 21.912,13.115 21.986,13.115C22.052,13.115 22.093,13.09 22.093,13.09L22.109,13.082L22.122,13.094C22.266,13.214 22.422,13.255 22.422,13.259H22.43L22.434,13.263C22.459,13.292 22.525,13.309 22.62,13.309C22.665,13.309 22.71,13.304 22.727,13.3C22.739,13.271 22.743,13.247 22.735,13.218Z" id="path_6"/><path fill="#ffffffff" d="M21.01,12.769C21.183,12.683 21.191,12.592 21.191,12.58V12.576L21.187,12.551V12.543H21.203H21.216C21.249,12.543 21.273,12.543 21.298,12.539C21.306,12.539 21.31,12.535 21.319,12.535C21.339,12.526 21.36,12.522 21.372,12.51C21.38,12.506 21.389,12.497 21.393,12.493C21.422,12.465 21.426,12.44 21.426,12.44L21.43,12.415L21.455,12.419C21.471,12.423 21.487,12.423 21.504,12.423C21.644,12.423 21.706,12.32 21.706,12.316L21.714,12.304L21.73,12.308C21.755,12.312 21.784,12.312 21.809,12.312C21.924,12.312 22.01,12.283 22.01,12.283H22.019H22.023C22.027,12.283 22.035,12.287 22.039,12.287C22.101,12.287 22.204,12.213 22.249,12.176C22.249,12.152 22.241,12.131 22.229,12.119C22.183,12.069 22.084,12.065 22.06,12.065H22.047H22.031L22.023,12.053C21.99,11.991 21.949,11.958 21.891,11.958C21.858,11.958 21.833,11.97 21.833,11.97L21.809,11.983L21.8,11.958C21.788,11.929 21.767,11.913 21.739,11.913C21.669,11.913 21.574,11.991 21.541,12.02L21.512,12.045L21.504,12.003C21.496,11.966 21.479,11.966 21.475,11.966C21.422,11.966 21.323,12.082 21.269,12.156L21.244,12.189L21.228,12.152C21.216,12.123 21.199,12.119 21.187,12.119C21.187,12.119 21.183,12.119 21.179,12.119C21.154,12.152 21.117,12.18 21.063,12.201C21.063,12.242 21.047,12.325 20.927,12.386C20.936,12.427 20.936,12.514 20.837,12.637L20.833,12.642C20.833,12.642 20.701,12.748 20.598,12.851C20.578,12.872 20.561,12.893 20.545,12.913C20.545,12.913 20.545,12.917 20.541,12.917C20.541,12.917 20.541,12.922 20.536,12.922C20.573,12.905 20.619,12.884 20.664,12.868C20.816,12.814 20.985,12.777 21.01,12.769Z" id="path_7"/><path fill="#ffffffff" d="M20.627,12.753C20.709,12.674 20.792,12.609 20.804,12.596C20.915,12.452 20.878,12.382 20.878,12.378L20.866,12.357V12.353L20.87,12.349L20.89,12.341C20.932,12.32 20.956,12.3 20.977,12.279C21.01,12.242 21.018,12.213 21.018,12.193C21.018,12.184 21.018,12.176 21.018,12.176L21.014,12.16L21.01,12.152L21.026,12.148L21.035,12.143C21.096,12.123 21.133,12.09 21.154,12.057C21.187,12.012 21.187,11.97 21.187,11.97V11.954L21.203,11.95C21.327,11.905 21.413,11.822 21.413,11.818L21.417,11.814H21.426C21.471,11.806 21.529,11.711 21.557,11.645C21.545,11.62 21.52,11.604 21.487,11.604C21.43,11.604 21.368,11.641 21.368,11.641L21.356,11.649L21.343,11.641C21.315,11.62 21.286,11.608 21.261,11.608C21.208,11.608 21.175,11.653 21.175,11.653L21.158,11.674L21.138,11.658C21.125,11.645 21.117,11.641 21.105,11.641C21.047,11.641 20.981,11.765 20.965,11.806L20.952,11.843L20.927,11.81C20.919,11.797 20.911,11.793 20.911,11.793C20.874,11.793 20.825,11.913 20.804,12.02L20.796,12.061L20.767,12.032C20.759,12.024 20.75,12.02 20.742,12.02C20.701,12.259 20.598,12.629 20.536,12.831C20.532,12.843 20.532,12.851 20.528,12.86C20.545,12.843 20.561,12.823 20.578,12.806C20.59,12.79 20.606,12.773 20.627,12.753Z" id="path_8"/><path fill="#ffffffff" d="M19.964,13.477L19.96,13.481C19.874,13.543 19.795,13.576 19.729,13.576C19.684,13.576 19.655,13.56 19.639,13.547C19.618,13.58 19.598,13.609 19.577,13.634C19.581,13.638 19.585,13.642 19.59,13.642L19.622,13.667L19.59,13.687C19.507,13.737 19.384,13.835 19.388,13.885C19.388,13.897 19.4,13.906 19.417,13.918L19.449,13.934L19.421,13.959C19.384,13.996 19.289,14.103 19.293,14.177C19.293,14.198 19.305,14.218 19.326,14.231L19.347,14.243L19.334,14.264C19.33,14.268 19.26,14.383 19.379,14.482L19.392,14.49L19.388,14.507C19.388,14.507 19.359,14.642 19.408,14.708C19.421,14.725 19.437,14.737 19.458,14.745C19.515,14.684 19.598,14.576 19.594,14.519V14.511V14.502C19.594,14.502 19.655,14.367 19.664,14.202V14.185L19.676,14.181C19.68,14.177 19.804,14.124 19.808,13.93V13.906H19.832C19.837,13.906 19.935,13.897 19.96,13.691L19.964,13.658L19.989,13.667C19.989,13.667 20.079,13.696 20.195,13.502C20.207,13.469 20.289,13.23 20.376,13.07C20.199,13.214 19.968,13.473 19.964,13.477Z" id="path_9"/><path fill="#ffffffff" d="M20.38,12.983C20.174,13.008 19.849,13.135 19.845,13.135H19.841C19.808,13.14 19.775,13.144 19.746,13.144C19.598,13.144 19.532,13.086 19.507,13.053C19.441,13.099 19.379,13.119 19.322,13.119C19.318,13.119 19.314,13.115 19.309,13.115C19.309,13.127 19.314,13.14 19.314,13.152L19.326,13.185H19.293C19.223,13.185 19.038,13.201 18.997,13.276C18.984,13.296 18.984,13.325 19.001,13.358L19.013,13.387L18.988,13.395C18.988,13.395 18.803,13.453 18.75,13.564C18.733,13.601 18.729,13.638 18.741,13.679L18.746,13.7L18.729,13.712C18.721,13.716 18.585,13.811 18.638,14.037L18.643,14.05L18.634,14.062C18.634,14.066 18.47,14.309 18.56,14.432C18.63,14.408 18.778,14.338 18.811,14.247L18.816,14.243L18.82,14.239C18.82,14.239 18.951,14.115 19.058,13.91L19.067,13.893L19.083,13.897C19.083,13.897 19.087,13.897 19.095,13.897C19.141,13.897 19.252,13.877 19.347,13.679L19.359,13.654L19.384,13.671C19.384,13.671 19.396,13.679 19.421,13.679C19.441,13.679 19.478,13.671 19.524,13.625C19.532,13.621 19.536,13.613 19.544,13.605C19.569,13.58 19.594,13.543 19.622,13.498L19.643,13.465L19.655,13.486L19.664,13.502C19.664,13.502 19.684,13.535 19.738,13.535C19.791,13.535 19.857,13.506 19.939,13.448C19.96,13.424 20.149,13.214 20.314,13.074C20.339,13.053 20.359,13.037 20.384,13.02C20.4,13.008 20.413,13 20.429,12.991C20.425,12.991 20.425,12.991 20.425,12.991C20.405,12.979 20.392,12.979 20.38,12.983Z" id="path_10"/><path fill="#ffffffff" d="M18.544,13.255H18.552C18.552,13.255 18.708,13.21 18.853,13.09L18.865,13.078L18.877,13.086C18.877,13.086 18.923,13.111 18.984,13.111C19.054,13.111 19.124,13.082 19.186,13.024L19.202,13.008L19.219,13.028C19.219,13.028 19.235,13.045 19.264,13.057C19.272,13.061 19.281,13.061 19.289,13.066C19.297,13.066 19.305,13.07 19.314,13.07H19.318C19.371,13.07 19.433,13.045 19.499,13L19.524,12.983L19.532,13.012C19.532,13.012 19.569,13.099 19.742,13.099C19.767,13.099 19.795,13.099 19.828,13.09C19.857,13.082 20.083,12.996 20.277,12.95C20.298,12.946 20.318,12.942 20.339,12.938H20.335C20.273,12.913 20.203,12.893 20.141,12.872C20.034,12.843 19.948,12.823 19.948,12.823H19.939C19.771,12.74 19.738,12.65 19.729,12.6C19.66,12.6 19.61,12.584 19.577,12.563L19.569,12.559C19.569,12.559 19.449,12.514 19.359,12.514C19.318,12.514 19.289,12.522 19.277,12.539C19.264,12.551 19.264,12.567 19.264,12.596L19.268,12.637L19.231,12.621C19.231,12.621 19.075,12.555 18.972,12.555C18.939,12.555 18.914,12.563 18.906,12.576C18.898,12.584 18.898,12.604 18.902,12.629L18.91,12.666L18.873,12.658C18.873,12.658 18.824,12.65 18.766,12.65C18.68,12.65 18.614,12.67 18.585,12.703C18.569,12.72 18.564,12.744 18.569,12.773V12.798L18.544,12.802C18.54,12.802 18.387,12.823 18.396,13.016V13.033L18.383,13.041C18.383,13.041 18.251,13.119 18.227,13.218C18.219,13.247 18.223,13.271 18.239,13.3C18.26,13.304 18.301,13.308 18.35,13.308C18.441,13.308 18.507,13.292 18.531,13.263L18.544,13.255Z" id="path_11"/><path fill="#ffffffff" d="M20.425,12.909C20.409,12.888 20.388,12.868 20.372,12.847C20.269,12.74 20.141,12.637 20.137,12.637L20.133,12.633C20.034,12.505 20.034,12.419 20.042,12.382C19.923,12.316 19.906,12.238 19.906,12.197C19.853,12.176 19.816,12.143 19.791,12.114H19.787C19.775,12.114 19.758,12.118 19.746,12.147L19.729,12.184L19.705,12.151C19.651,12.077 19.548,11.962 19.499,11.962C19.495,11.962 19.478,11.962 19.47,11.999L19.458,12.04L19.429,12.016C19.425,12.016 19.309,11.909 19.227,11.909C19.198,11.909 19.178,11.921 19.165,11.954L19.157,11.979L19.132,11.966C19.132,11.966 19.108,11.954 19.075,11.954C19.021,11.954 18.976,11.987 18.943,12.049L18.935,12.065H18.918H18.906C18.877,12.065 18.778,12.069 18.733,12.118C18.721,12.135 18.713,12.156 18.713,12.176C18.758,12.213 18.857,12.287 18.923,12.287C18.927,12.287 18.935,12.287 18.939,12.283H18.947H18.951C18.951,12.283 19.038,12.312 19.157,12.312C19.186,12.312 19.211,12.308 19.235,12.308L19.252,12.304L19.26,12.316C19.264,12.32 19.322,12.423 19.458,12.423C19.474,12.423 19.491,12.423 19.507,12.419L19.528,12.415L19.532,12.44C19.532,12.44 19.54,12.469 19.565,12.493C19.569,12.497 19.577,12.501 19.585,12.51C19.598,12.518 19.618,12.526 19.639,12.534C19.647,12.534 19.651,12.538 19.66,12.538C19.684,12.543 19.709,12.547 19.742,12.543H19.754H19.771V12.551L19.767,12.575V12.58C19.767,12.592 19.775,12.687 19.948,12.769C19.972,12.773 20.141,12.81 20.289,12.868C20.335,12.884 20.38,12.901 20.417,12.921V12.917C20.425,12.913 20.425,12.913 20.425,12.909Z" id="path_12"/><path fill="#ffffffff" d="M20.232,12.02C20.223,12.02 20.215,12.024 20.203,12.032L20.174,12.061L20.166,12.02C20.141,11.913 20.096,11.793 20.067,11.793C20.059,11.793 20.051,11.797 20.042,11.81L20.018,11.843L20.001,11.806C19.985,11.76 19.919,11.641 19.861,11.641C19.849,11.641 19.837,11.645 19.828,11.658L19.808,11.674L19.791,11.653C19.791,11.653 19.758,11.608 19.705,11.608C19.68,11.608 19.651,11.62 19.622,11.641L19.61,11.649L19.598,11.641C19.598,11.641 19.536,11.604 19.478,11.604C19.441,11.604 19.421,11.616 19.408,11.645C19.441,11.711 19.499,11.806 19.54,11.814H19.544L19.548,11.818C19.548,11.818 19.635,11.905 19.758,11.95L19.771,11.954L19.775,11.97C19.775,11.974 19.779,12.016 19.808,12.057C19.828,12.09 19.869,12.123 19.927,12.148L19.935,12.152L19.952,12.156L19.948,12.164L19.944,12.18C19.944,12.18 19.944,12.189 19.944,12.197C19.944,12.213 19.952,12.246 19.985,12.283C20.005,12.304 20.03,12.325 20.071,12.345L20.092,12.353L20.096,12.357V12.361L20.079,12.386C20.079,12.386 20.042,12.456 20.153,12.6C20.17,12.613 20.248,12.679 20.331,12.757C20.351,12.773 20.368,12.794 20.388,12.814C20.405,12.831 20.421,12.851 20.438,12.868C20.434,12.86 20.434,12.847 20.429,12.839C20.38,12.629 20.277,12.259 20.232,12.02Z" id="path_13"/><path fill="#ffffffff" d="M20.689,12.024C20.693,12.012 20.693,11.995 20.697,11.983C20.709,11.913 20.713,11.868 20.709,11.847H20.689L20.693,11.818C20.709,11.641 20.697,11.489 20.664,11.448C20.656,11.439 20.652,11.439 20.648,11.439C20.643,11.439 20.635,11.443 20.631,11.443L20.602,11.46L20.594,11.427C20.565,11.287 20.516,11.205 20.487,11.168C20.458,11.209 20.405,11.287 20.38,11.427L20.376,11.46L20.347,11.443C20.339,11.439 20.335,11.439 20.331,11.439C20.331,11.439 20.318,11.439 20.314,11.448C20.277,11.493 20.265,11.641 20.285,11.818L20.289,11.847H20.273C20.269,11.868 20.273,11.917 20.285,11.983C20.285,11.995 20.289,12.007 20.294,12.024C20.298,12.045 20.302,12.065 20.306,12.09C20.343,12.259 20.4,12.493 20.471,12.728C20.471,12.732 20.475,12.74 20.475,12.744C20.483,12.769 20.487,12.79 20.495,12.814C20.495,12.818 20.495,12.818 20.495,12.823C20.495,12.818 20.499,12.814 20.499,12.814C20.503,12.79 20.512,12.769 20.52,12.744C20.52,12.74 20.524,12.732 20.524,12.728C20.59,12.493 20.652,12.259 20.689,12.09C20.681,12.065 20.685,12.04 20.689,12.024Z" id="path_14"/><path fill="#ffffffff" d="M21.24,16.771H20.606L20.726,16.178L20.619,16.071L20.755,15.532L20.648,15.478L20.788,14.889L20.66,14.795L20.771,14.292L20.643,14.222L20.722,13.778L20.615,13.708L20.631,13.226C20.631,13.226 20.586,13.074 20.479,12.983C20.376,13.066 20.331,13.201 20.326,13.222V13.226L20.343,13.708L20.236,13.778L20.318,14.222L20.191,14.292L20.302,14.795L20.174,14.889L20.314,15.478L20.207,15.532L20.343,16.071L20.236,16.178L20.372,16.775H19.725C19.725,16.775 19.643,16.812 19.672,16.874C19.701,16.936 20.03,17.269 20.059,17.253C20.083,17.236 20.083,17.113 20.104,17.088C20.117,17.072 20.211,17.22 20.277,17.253C20.277,17.253 20.384,17.174 20.483,17.113C20.582,17.174 20.648,17.253 20.648,17.253C20.713,17.216 20.849,17.067 20.866,17.084C20.882,17.109 20.882,17.232 20.911,17.249C20.94,17.265 21.269,16.931 21.298,16.87C21.323,16.804 21.24,16.771 21.24,16.771Z" id="path_15"/><path fill="#ffffffff" d="M18.684,17.08C18.231,16.824 17.23,16.536 16.436,16.833C16.436,16.833 17.494,16.742 18.898,17.677C19.948,18.372 20.961,19.361 21.154,19.554L21.438,19.274C20.31,18.064 19.137,17.335 18.684,17.08Z" id="path_16"/><path fill="#ffffffff" d="M22.809,19.431C22.809,19.431 22.661,19.258 22.492,19.426C22.344,19.575 22.241,19.62 22.097,19.62C21.903,19.624 21.664,19.513 21.607,19.389C21.607,19.389 21.59,19.344 21.619,19.299C21.66,19.307 21.706,19.299 21.743,19.266C21.8,19.216 21.809,19.134 21.767,19.085C21.722,19.031 21.64,19.031 21.582,19.085C21.537,19.126 21.52,19.188 21.541,19.237C21.537,19.253 21.524,19.266 21.508,19.282C21.508,19.274 21.508,19.262 21.5,19.253C21.487,19.241 21.471,19.241 21.459,19.253L21.438,19.274L21.154,19.554L21.109,19.599C21.096,19.612 21.096,19.628 21.109,19.64C21.113,19.645 21.117,19.649 21.121,19.649C21.117,19.649 21.113,19.653 21.109,19.653C21.076,19.653 21.035,19.665 21.006,19.69C20.948,19.739 20.94,19.822 20.985,19.875C21.03,19.925 21.113,19.925 21.17,19.875C21.208,19.842 21.224,19.797 21.22,19.752C21.228,19.723 21.236,19.694 21.253,19.686C21.286,19.669 21.31,19.686 21.347,19.727C21.442,19.842 21.817,20.093 22.233,20.085C22.562,20.077 23.044,19.772 22.809,19.431Z" id="path_17"/><path fill="#ffffffff" d="M22.286,17.08C22.739,16.824 23.74,16.536 24.534,16.833C24.534,16.833 23.476,16.742 22.072,17.677C21.022,18.372 20.009,19.361 19.816,19.554L19.532,19.274C20.66,18.064 21.833,17.335 22.286,17.08Z" id="path_18"/><path fill="#ffffffff" d="M18.161,19.431C18.161,19.431 18.309,19.258 18.478,19.426C18.626,19.575 18.725,19.62 18.873,19.62C19.063,19.624 19.301,19.513 19.359,19.389C19.359,19.389 19.375,19.344 19.347,19.299C19.305,19.307 19.26,19.299 19.223,19.266C19.165,19.216 19.157,19.134 19.202,19.085C19.248,19.031 19.33,19.031 19.388,19.085C19.433,19.126 19.449,19.188 19.429,19.237C19.437,19.253 19.445,19.266 19.462,19.282C19.462,19.274 19.462,19.262 19.47,19.253C19.482,19.241 19.499,19.241 19.511,19.253L19.532,19.274L19.816,19.554L19.865,19.599C19.878,19.612 19.878,19.628 19.865,19.64C19.861,19.645 19.857,19.649 19.853,19.649C19.857,19.649 19.861,19.653 19.865,19.653C19.902,19.653 19.939,19.665 19.968,19.69C20.026,19.739 20.034,19.822 19.989,19.875C19.944,19.925 19.861,19.925 19.804,19.875C19.767,19.842 19.75,19.797 19.754,19.752C19.75,19.723 19.738,19.694 19.721,19.686C19.688,19.669 19.664,19.686 19.631,19.727C19.536,19.842 19.161,20.093 18.75,20.085C18.404,20.077 17.926,19.772 18.161,19.431Z" id="path_19"/><path fill="#00524cff" d="M19.935,27.665L20.273,27.875L20.421,27.624L20.083,27.426L19.935,27.665Z" id="path_20"/><path fill="#00524cff" d="M11.821,25.289L12.162,25.495L12.311,25.252L11.952,25.038L11.837,25.227L11.504,25.017L11.355,25.273L11.718,25.483L11.821,25.289Z" id="path_21"/><path fill="#00524cff" d="M12.413,26.318C12.413,26.22 12.376,26.133 12.298,26.063C12.274,26.042 12.216,25.993 12.121,25.927C12.035,25.865 11.977,25.812 11.944,25.771L11.66,26.141C11.438,26.434 11.326,26.648 11.326,26.788C11.326,26.882 11.372,26.948 11.467,26.99C11.541,27.022 11.627,27.035 11.726,27.022C11.878,27.006 12.01,26.952 12.117,26.866C12.175,26.825 12.232,26.763 12.29,26.685C12.372,26.516 12.413,26.392 12.413,26.318ZM12.101,26.631C11.981,26.681 11.866,26.705 11.759,26.705C11.639,26.705 11.582,26.656 11.582,26.557C11.582,26.528 11.59,26.495 11.606,26.462C11.697,26.331 11.775,26.224 11.841,26.141C12.059,26.277 12.175,26.397 12.179,26.504C12.183,26.553 12.158,26.598 12.101,26.631Z" id="path_22"/><path fill="#00524cff" d="M13.369,25.981C13.327,26.162 13.303,26.286 13.286,26.355C13.562,26.553 13.698,26.71 13.698,26.825C13.698,26.986 13.587,27.171 13.36,27.389C13.134,27.607 12.944,27.714 12.784,27.714C12.71,27.714 12.615,27.69 12.496,27.64C12.376,27.591 12.311,27.566 12.302,27.566C12.286,27.566 12.278,27.574 12.278,27.591C12.278,27.644 12.389,27.714 12.611,27.801C12.817,27.879 12.965,27.916 13.052,27.916C13.229,27.916 13.397,27.801 13.554,27.57C13.731,27.319 13.817,27.084 13.817,26.866C13.817,26.635 13.772,26.446 13.682,26.298C13.616,26.199 13.513,26.096 13.369,25.981Z" id="path_23"/><path fill="#00524cff" d="M18.939,25.408L19.285,25.614L19.433,25.371L19.075,25.157L18.96,25.347L18.626,25.137L18.478,25.392L18.832,25.598L18.939,25.408Z" id="path_24"/><path fill="#00524cff" d="M20.532,25.063C20.446,25.017 20.355,24.968 20.265,24.919C20.24,24.906 20.228,24.89 20.228,24.869C20.228,24.857 20.232,24.84 20.244,24.816C20.256,24.791 20.261,24.774 20.261,24.762C20.261,24.75 20.252,24.737 20.232,24.733C20.219,24.721 20.195,24.742 20.166,24.795L20.005,25.075C19.993,25.1 19.985,25.124 19.985,25.149C19.985,25.186 20.005,25.215 20.042,25.24L20.063,25.248C20.182,25.964 20.244,26.43 20.244,26.635C20.244,26.685 20.24,26.709 20.232,26.709H19.548H19.454C19.417,26.709 19.396,26.697 19.392,26.673C19.392,26.668 19.396,26.639 19.404,26.582C19.449,26.327 19.474,26.133 19.474,26.001C19.474,25.981 19.474,25.968 19.47,25.964C19.351,26.096 19.26,26.207 19.19,26.302L19.182,26.709H18.375H17.659L17.626,26.689C17.572,26.652 17.547,26.603 17.547,26.541C17.667,26.483 17.831,26.454 18.046,26.454C18.091,26.454 18.128,26.454 18.157,26.458C18.219,26.318 18.264,26.211 18.288,26.137C18.272,26.137 18.239,26.137 18.181,26.141H18.079C17.922,26.141 17.675,26.092 17.337,25.993C17.111,25.927 16.946,25.89 16.843,25.89C16.662,25.89 16.522,26.006 16.424,26.236C16.403,26.29 16.39,26.335 16.39,26.372C16.395,26.376 16.395,26.38 16.395,26.384C16.539,26.277 16.654,26.224 16.74,26.224L16.909,26.261C17.144,26.31 17.321,26.347 17.44,26.372C17.164,26.598 16.913,26.709 16.687,26.709H15.991H15.468H15.39H14.974H14.818C14.74,26.709 14.682,26.693 14.653,26.66C14.641,26.648 14.628,26.635 14.624,26.631C14.608,26.594 14.575,26.314 14.526,25.791L14.427,24.626C14.336,24.75 14.266,24.84 14.225,24.898C14.287,25.569 14.34,26.277 14.381,27.022H14.867H15.39H15.468H15.921H16.679C16.823,27.022 16.942,26.977 17.037,26.882C17.074,26.845 17.14,26.8 17.226,26.742C17.317,26.685 17.379,26.639 17.416,26.598C17.432,26.73 17.444,26.812 17.457,26.85C17.486,26.961 17.535,27.018 17.609,27.018H18.445H19.001C19.017,27.018 19.046,26.985 19.083,26.924C19.12,26.862 19.145,26.829 19.153,26.829C19.161,26.833 19.174,26.854 19.194,26.895C19.215,26.936 19.231,26.961 19.248,26.973C19.289,27.002 19.33,27.014 19.371,27.014H19.466H20.277C20.306,27.014 20.339,26.932 20.368,26.771C20.396,26.619 20.409,26.504 20.409,26.425L20.306,25.388C20.318,25.392 20.33,25.396 20.351,25.4L20.532,25.063Z" id="path_25"/><path fill="#00524cff" d="M21.208,24.631C21.043,24.902 20.965,25.079 20.977,25.166C21.059,25.94 21.125,26.598 21.17,27.146C21.269,26.903 21.315,26.726 21.315,26.615L21.273,25.631C21.24,24.985 21.22,24.651 21.208,24.631Z" id="path_26"/><path fill="#00524cff" d="M23.159,25.289L23.501,25.495L23.649,25.252L23.295,25.038L23.175,25.227L22.846,25.017L22.694,25.273L23.056,25.483L23.159,25.289Z" id="path_27"/><path fill="#00524cff" d="M23.752,26.318C23.752,26.22 23.715,26.133 23.636,26.063C23.612,26.042 23.554,25.993 23.459,25.927C23.373,25.865 23.315,25.812 23.282,25.771L22.998,26.141C22.776,26.434 22.665,26.648 22.665,26.788C22.665,26.882 22.71,26.948 22.805,26.99C22.879,27.022 22.965,27.035 23.064,27.022C23.217,27.006 23.348,26.952 23.455,26.866C23.513,26.825 23.571,26.763 23.628,26.685C23.711,26.516 23.752,26.392 23.752,26.318ZM23.443,26.631C23.324,26.681 23.208,26.705 23.101,26.705C22.982,26.705 22.924,26.656 22.924,26.557C22.924,26.528 22.933,26.495 22.949,26.462C23.04,26.331 23.118,26.224 23.184,26.141C23.402,26.277 23.517,26.397 23.521,26.504C23.521,26.553 23.497,26.598 23.443,26.631Z" id="path_28"/><path fill="#00524cff" d="M24.707,25.981C24.666,26.162 24.641,26.286 24.625,26.355C24.9,26.553 25.036,26.71 25.036,26.825C25.036,26.986 24.925,27.171 24.699,27.389C24.472,27.607 24.283,27.714 24.122,27.714C24.048,27.714 23.954,27.69 23.834,27.64C23.715,27.591 23.649,27.566 23.641,27.566C23.624,27.566 23.616,27.574 23.616,27.591C23.616,27.644 23.727,27.714 23.949,27.801C24.155,27.879 24.303,27.916 24.39,27.916C24.567,27.916 24.736,27.801 24.896,27.57C25.073,27.319 25.16,27.084 25.16,26.866C25.16,26.635 25.115,26.446 25.024,26.298C24.954,26.199 24.851,26.096 24.707,25.981Z" id="path_29"/><path fill="#00524cff" d="M25.847,24.631C25.683,24.902 25.604,25.079 25.617,25.166C25.699,25.94 25.765,26.598 25.81,27.146C25.909,26.903 25.954,26.726 25.954,26.615L25.913,25.631C25.885,24.985 25.86,24.651 25.847,24.631Z" id="path_30"/><path fill="#00524cff" d="M27.416,26.298C27.354,26.199 27.251,26.092 27.107,25.981C27.066,26.162 27.041,26.286 27.025,26.355C27.301,26.553 27.437,26.71 27.437,26.825C27.437,26.986 27.325,27.171 27.099,27.389C26.872,27.607 26.683,27.714 26.523,27.714C26.448,27.714 26.354,27.69 26.234,27.64C26.115,27.591 26.049,27.566 26.041,27.566C26.024,27.566 26.016,27.574 26.016,27.591C26.016,27.644 26.127,27.714 26.35,27.801C26.556,27.879 26.704,27.916 26.79,27.916C26.967,27.916 27.136,27.801 27.297,27.57C27.474,27.319 27.56,27.084 27.56,26.866C27.552,26.64 27.507,26.45 27.416,26.298Z" id="path_31"/><path fill="#00524cff" d="M27.165,25.326L26.819,25.12L26.667,25.367L27.017,25.577L27.165,25.326Z" id="path_32"/><path fill="#00524cff" d="M28.898,26.084C28.816,25.923 28.746,25.845 28.684,25.845C28.594,25.845 28.491,25.94 28.371,26.129C28.26,26.31 28.206,26.45 28.211,26.549C28.211,26.644 28.231,26.726 28.264,26.796C28.309,26.887 28.371,26.936 28.458,26.94C28.556,26.948 28.626,26.94 28.672,26.916C28.742,26.874 28.812,26.784 28.878,26.635C28.894,26.685 28.902,26.747 28.902,26.825C28.906,26.986 28.808,27.163 28.61,27.356C28.429,27.533 28.235,27.656 28.042,27.731C28.001,27.743 27.959,27.751 27.906,27.751C27.861,27.751 27.791,27.739 27.7,27.718C27.61,27.694 27.539,27.685 27.498,27.685C27.469,27.685 27.453,27.698 27.453,27.718C27.453,27.76 27.568,27.801 27.803,27.854C27.988,27.895 28.132,27.916 28.235,27.924C28.355,27.932 28.474,27.875 28.602,27.751C28.705,27.652 28.787,27.537 28.849,27.405C28.968,27.154 29.03,26.882 29.03,26.594C29.03,26.417 28.989,26.249 28.898,26.084ZM28.614,26.611C28.556,26.611 28.499,26.598 28.441,26.578C28.367,26.549 28.33,26.512 28.326,26.463C28.326,26.417 28.355,26.364 28.417,26.302C28.478,26.24 28.528,26.211 28.573,26.211C28.635,26.216 28.688,26.257 28.738,26.339C28.779,26.413 28.799,26.487 28.799,26.553C28.775,26.594 28.709,26.611 28.614,26.611Z" id="path_33"/><path fill="#00524cff" d="M10.697,28.599L11.113,29.698L11.536,28.599H11.816V30.057H11.574V29.052L11.187,30.057H11.026L10.66,29.052V30.057H10.417V28.599H10.697Z" id="path_34"/><path fill="#00524cff" d="M12.249,28.805H12.006V28.599H12.245L12.249,28.805ZM12.249,30.057H12.006V29.003H12.245L12.249,30.057Z" id="path_35"/><path fill="#00524cff" d="M12.418,29.003H12.66V29.089C12.706,29.056 12.755,29.027 12.809,29.011C12.862,28.994 12.916,28.986 12.973,28.986C13.027,28.986 13.076,28.994 13.122,29.007C13.167,29.023 13.2,29.044 13.233,29.073C13.262,29.101 13.286,29.134 13.303,29.176C13.319,29.217 13.327,29.258 13.327,29.307V30.057H13.089V29.328C13.089,29.266 13.076,29.221 13.052,29.192C13.027,29.167 12.994,29.151 12.949,29.151C12.908,29.151 12.87,29.159 12.837,29.176C12.805,29.192 12.772,29.213 12.747,29.237C12.722,29.262 12.702,29.291 12.685,29.324C12.669,29.357 12.665,29.39 12.665,29.427V30.057H12.418V29.003Z" id="path_36"/><path fill="#00524cff" d="M13.752,28.805H13.513V28.599H13.752V28.805ZM13.752,30.057H13.513V29.003H13.752V30.057Z" id="path_37"/><path fill="#00524cff" d="M14.167,29.707C14.167,29.744 14.175,29.777 14.184,29.801C14.196,29.826 14.208,29.847 14.225,29.863C14.241,29.879 14.262,29.892 14.283,29.9C14.307,29.908 14.332,29.913 14.357,29.913C14.377,29.913 14.402,29.908 14.427,29.904C14.451,29.9 14.472,29.892 14.493,29.884C14.513,29.875 14.53,29.859 14.542,29.838C14.554,29.822 14.563,29.797 14.563,29.768C14.563,29.744 14.554,29.723 14.542,29.702C14.53,29.686 14.513,29.67 14.493,29.657C14.472,29.645 14.447,29.632 14.418,29.62C14.39,29.608 14.361,29.6 14.332,29.587C14.287,29.571 14.241,29.554 14.196,29.538C14.151,29.521 14.11,29.501 14.077,29.476C14.04,29.451 14.011,29.423 13.99,29.39C13.966,29.357 13.957,29.316 13.957,29.266C13.957,29.217 13.97,29.176 13.99,29.143C14.011,29.11 14.04,29.077 14.077,29.056C14.114,29.031 14.155,29.015 14.204,29.003C14.254,28.99 14.303,28.986 14.357,28.986C14.414,28.986 14.468,28.99 14.521,29.003C14.571,29.015 14.616,29.035 14.653,29.06C14.69,29.085 14.719,29.118 14.744,29.159C14.764,29.2 14.777,29.246 14.781,29.299H14.764C14.756,29.299 14.748,29.299 14.736,29.299C14.727,29.299 14.715,29.299 14.707,29.299H14.69H14.542C14.538,29.27 14.53,29.25 14.521,29.229C14.509,29.213 14.497,29.196 14.48,29.184C14.464,29.171 14.447,29.163 14.427,29.159C14.406,29.155 14.385,29.151 14.361,29.151C14.311,29.151 14.27,29.163 14.245,29.184C14.217,29.204 14.204,29.233 14.204,29.266C14.204,29.291 14.213,29.307 14.225,29.328C14.237,29.344 14.254,29.361 14.274,29.373C14.295,29.385 14.32,29.398 14.349,29.41C14.377,29.423 14.406,29.431 14.435,29.443C14.48,29.46 14.526,29.476 14.571,29.493C14.616,29.509 14.657,29.53 14.69,29.554C14.727,29.579 14.756,29.604 14.777,29.637C14.797,29.67 14.81,29.707 14.81,29.748C14.81,29.805 14.797,29.855 14.773,29.896C14.748,29.937 14.715,29.97 14.674,29.999C14.632,30.024 14.583,30.044 14.53,30.057C14.476,30.069 14.418,30.073 14.357,30.073C14.299,30.073 14.241,30.065 14.192,30.048C14.139,30.032 14.093,30.011 14.056,29.978C14.015,29.949 13.986,29.908 13.962,29.863C13.937,29.818 13.924,29.764 13.92,29.702L14.167,29.707Z" id="path_38"/><path fill="#00524cff" d="M15.291,28.702V29.003H15.448V29.167H15.291V29.81C15.291,29.847 15.3,29.875 15.312,29.888C15.324,29.9 15.341,29.908 15.361,29.908C15.37,29.908 15.382,29.908 15.398,29.904C15.415,29.9 15.444,29.896 15.476,29.892V30.048C15.448,30.057 15.419,30.061 15.386,30.065C15.357,30.069 15.328,30.073 15.304,30.073C15.271,30.073 15.238,30.069 15.209,30.061C15.18,30.052 15.151,30.04 15.131,30.024C15.106,30.007 15.09,29.983 15.077,29.958C15.065,29.929 15.057,29.896 15.057,29.859V29.163H14.888V28.999H15.044V28.698L15.291,28.702Z" id="path_39"/><path fill="#00524cff" d="M15.608,29.003H15.822L15.835,29.097C15.863,29.06 15.896,29.031 15.938,29.015C15.979,28.994 16.016,28.986 16.061,28.986C16.073,28.986 16.09,28.99 16.111,28.994C16.131,28.999 16.152,29.003 16.172,29.011V29.208C16.107,29.184 16.065,29.171 16.053,29.171C16.02,29.171 15.991,29.18 15.967,29.192C15.942,29.204 15.917,29.225 15.901,29.25C15.884,29.274 15.868,29.299 15.859,29.332C15.851,29.365 15.847,29.394 15.847,29.431V30.061H15.608V29.003Z" id="path_40"/><path fill="#00524cff" d="M16.703,29.723L16.951,29.003H17.198L16.753,30.271C16.736,30.312 16.72,30.349 16.699,30.378C16.679,30.407 16.654,30.431 16.629,30.448C16.605,30.464 16.58,30.481 16.551,30.489C16.526,30.497 16.498,30.501 16.473,30.501C16.452,30.501 16.428,30.501 16.403,30.497C16.378,30.493 16.349,30.485 16.316,30.472V30.295C16.329,30.3 16.341,30.304 16.354,30.308C16.366,30.312 16.378,30.316 16.395,30.324C16.407,30.328 16.419,30.333 16.428,30.337C16.44,30.341 16.444,30.341 16.452,30.341C16.461,30.341 16.469,30.337 16.477,30.324C16.485,30.316 16.493,30.304 16.502,30.287C16.51,30.271 16.514,30.258 16.522,30.242C16.531,30.226 16.535,30.213 16.539,30.197L16.584,30.057L16.197,29.007H16.452L16.703,29.723Z" id="path_41"/><path fill="#00524cff" d="M17.716,29.53C17.716,29.456 17.729,29.386 17.749,29.32C17.77,29.254 17.803,29.196 17.848,29.147C17.889,29.097 17.943,29.056 18.004,29.031C18.066,29.003 18.14,28.99 18.223,28.99C18.305,28.99 18.375,29.003 18.441,29.031C18.503,29.06 18.556,29.097 18.601,29.147C18.647,29.196 18.68,29.254 18.7,29.32C18.721,29.386 18.733,29.456 18.733,29.53C18.733,29.604 18.721,29.674 18.7,29.74C18.68,29.806 18.647,29.863 18.601,29.913C18.556,29.962 18.503,29.999 18.441,30.028C18.379,30.057 18.305,30.069 18.223,30.069C18.14,30.069 18.07,30.057 18.004,30.028C17.943,29.999 17.889,29.962 17.848,29.913C17.807,29.863 17.774,29.806 17.749,29.74C17.729,29.678 17.716,29.608 17.716,29.53ZM17.955,29.53C17.955,29.583 17.959,29.633 17.972,29.678C17.984,29.723 18,29.764 18.025,29.797C18.05,29.83 18.074,29.859 18.107,29.88C18.14,29.9 18.177,29.909 18.219,29.909C18.26,29.909 18.297,29.9 18.33,29.88C18.363,29.859 18.391,29.834 18.416,29.797C18.441,29.764 18.457,29.723 18.47,29.678C18.482,29.633 18.49,29.583 18.49,29.53C18.49,29.48 18.482,29.431 18.47,29.382C18.457,29.336 18.441,29.295 18.416,29.262C18.391,29.229 18.363,29.2 18.33,29.18C18.297,29.159 18.26,29.151 18.219,29.151C18.177,29.151 18.14,29.159 18.107,29.18C18.074,29.2 18.046,29.225 18.025,29.262C18,29.295 17.984,29.336 17.972,29.382C17.963,29.431 17.955,29.48 17.955,29.53Z" id="path_42"/><path fill="#00524cff" d="M19.013,29.003V28.772C19.013,28.739 19.017,28.715 19.03,28.686C19.042,28.661 19.058,28.636 19.083,28.616C19.108,28.595 19.132,28.583 19.165,28.57C19.198,28.558 19.235,28.554 19.277,28.554C19.301,28.554 19.326,28.558 19.359,28.566C19.392,28.574 19.421,28.591 19.449,28.608V28.768C19.417,28.756 19.388,28.743 19.363,28.735C19.343,28.727 19.33,28.723 19.326,28.723C19.305,28.723 19.289,28.727 19.277,28.739C19.264,28.752 19.256,28.772 19.256,28.797V29.003H19.433V29.171H19.256V30.057H19.013V29.171H18.84V29.003H19.013Z" id="path_43"/><path fill="#00524cff" d="M20.261,29.307C20.261,29.414 20.273,29.505 20.298,29.583C20.322,29.661 20.355,29.727 20.396,29.777C20.438,29.826 20.487,29.867 20.536,29.892C20.59,29.917 20.643,29.929 20.697,29.929C20.75,29.929 20.804,29.917 20.849,29.896C20.895,29.875 20.932,29.843 20.969,29.806C21.002,29.768 21.03,29.727 21.051,29.678C21.072,29.633 21.088,29.583 21.1,29.534H21.343C21.327,29.612 21.302,29.686 21.269,29.752C21.236,29.822 21.191,29.88 21.138,29.929C21.084,29.979 21.018,30.02 20.948,30.048C20.874,30.077 20.792,30.094 20.701,30.094C20.598,30.094 20.503,30.077 20.421,30.04C20.339,30.003 20.265,29.954 20.207,29.884C20.149,29.818 20.1,29.731 20.071,29.637C20.038,29.538 20.022,29.427 20.022,29.303C20.022,29.242 20.03,29.176 20.042,29.114C20.055,29.052 20.075,28.994 20.104,28.937C20.129,28.883 20.162,28.83 20.203,28.785C20.24,28.739 20.285,28.698 20.339,28.661C20.388,28.628 20.446,28.599 20.508,28.583C20.569,28.562 20.635,28.554 20.709,28.554C20.8,28.554 20.882,28.566 20.956,28.591C21.026,28.616 21.092,28.649 21.146,28.694C21.199,28.735 21.244,28.789 21.282,28.846C21.319,28.904 21.343,28.97 21.364,29.04H21.117C21.08,28.933 21.026,28.854 20.961,28.801C20.895,28.747 20.812,28.723 20.709,28.723C20.643,28.723 20.586,28.739 20.532,28.768C20.479,28.801 20.434,28.842 20.392,28.896C20.355,28.949 20.322,29.011 20.302,29.081C20.269,29.155 20.261,29.229 20.261,29.307Z" id="path_44"/><path fill="#00524cff" d="M21.5,29.53C21.5,29.456 21.512,29.386 21.533,29.32C21.553,29.254 21.586,29.196 21.632,29.147C21.673,29.097 21.726,29.056 21.788,29.031C21.85,29.003 21.924,28.99 22.006,28.99C22.088,28.99 22.159,29.003 22.224,29.031C22.286,29.06 22.34,29.097 22.385,29.147C22.43,29.196 22.463,29.254 22.484,29.32C22.504,29.386 22.517,29.456 22.517,29.53C22.517,29.604 22.504,29.674 22.484,29.74C22.463,29.806 22.43,29.863 22.385,29.913C22.34,29.962 22.286,29.999 22.224,30.028C22.163,30.057 22.088,30.069 22.006,30.069C21.924,30.069 21.854,30.057 21.788,30.028C21.726,29.999 21.673,29.962 21.632,29.913C21.59,29.863 21.557,29.806 21.533,29.74C21.512,29.678 21.5,29.608 21.5,29.53ZM21.743,29.53C21.743,29.583 21.747,29.633 21.759,29.678C21.771,29.723 21.788,29.764 21.813,29.797C21.837,29.83 21.862,29.859 21.895,29.88C21.928,29.9 21.965,29.909 22.006,29.909C22.047,29.909 22.084,29.9 22.117,29.88C22.15,29.859 22.179,29.834 22.204,29.797C22.229,29.764 22.245,29.723 22.257,29.678C22.27,29.633 22.278,29.583 22.278,29.53C22.278,29.48 22.27,29.431 22.257,29.382C22.245,29.336 22.229,29.295 22.204,29.262C22.179,29.229 22.15,29.2 22.117,29.18C22.084,29.159 22.047,29.151 22.006,29.151C21.965,29.151 21.928,29.159 21.895,29.18C21.862,29.2 21.833,29.225 21.813,29.262C21.788,29.295 21.771,29.336 21.759,29.382C21.747,29.431 21.743,29.48 21.743,29.53Z" id="path_45"/><path fill="#00524cff" d="M22.681,29.003H22.92V29.081C22.961,29.048 23.007,29.023 23.056,29.007C23.105,28.99 23.151,28.986 23.196,28.986C23.25,28.986 23.295,28.999 23.344,29.019C23.389,29.04 23.431,29.077 23.468,29.126C23.488,29.101 23.513,29.081 23.538,29.064C23.562,29.048 23.591,29.031 23.62,29.019C23.649,29.007 23.678,28.999 23.706,28.994C23.735,28.99 23.764,28.986 23.793,28.986C23.847,28.986 23.896,28.994 23.941,29.011C23.986,29.027 24.024,29.052 24.056,29.081C24.089,29.11 24.114,29.143 24.131,29.184C24.147,29.225 24.159,29.266 24.159,29.311V30.057H23.921V29.353C23.921,29.311 23.917,29.283 23.904,29.254C23.896,29.229 23.884,29.208 23.867,29.192C23.851,29.176 23.834,29.167 23.818,29.159C23.801,29.155 23.781,29.151 23.764,29.151C23.74,29.151 23.711,29.159 23.686,29.171C23.661,29.184 23.636,29.204 23.616,29.225C23.595,29.25 23.579,29.274 23.562,29.307C23.55,29.34 23.542,29.373 23.542,29.41V30.052H23.303V29.348C23.303,29.307 23.299,29.278 23.291,29.25C23.282,29.225 23.27,29.204 23.254,29.188C23.241,29.171 23.225,29.163 23.208,29.155C23.192,29.151 23.175,29.147 23.159,29.147C23.126,29.147 23.093,29.155 23.064,29.171C23.035,29.188 23.011,29.213 22.99,29.237C22.97,29.262 22.953,29.295 22.941,29.324C22.928,29.357 22.924,29.385 22.924,29.414V30.048H22.685V29.003H22.681Z" id="path_46"/><path fill="#00524cff" d="M24.341,29.003H24.579V29.081C24.621,29.048 24.666,29.023 24.715,29.007C24.765,28.99 24.81,28.986 24.855,28.986C24.909,28.986 24.954,28.999 25.003,29.019C25.049,29.04 25.09,29.077 25.127,29.126C25.147,29.101 25.172,29.081 25.197,29.064C25.222,29.048 25.25,29.031 25.279,29.019C25.308,29.007 25.337,28.999 25.366,28.994C25.395,28.99 25.423,28.986 25.452,28.986C25.506,28.986 25.555,28.994 25.6,29.011C25.646,29.027 25.683,29.052 25.716,29.081C25.749,29.11 25.773,29.143 25.79,29.184C25.806,29.225 25.819,29.266 25.819,29.311V30.057H25.58V29.353C25.58,29.311 25.576,29.283 25.563,29.254C25.555,29.229 25.543,29.208 25.526,29.192C25.51,29.176 25.493,29.167 25.477,29.159C25.46,29.155 25.44,29.151 25.423,29.151C25.399,29.151 25.37,29.159 25.345,29.171C25.32,29.184 25.296,29.204 25.275,29.225C25.254,29.25 25.238,29.274 25.222,29.307C25.209,29.34 25.201,29.373 25.201,29.41V30.052H24.962V29.348C24.962,29.307 24.958,29.278 24.95,29.25C24.942,29.225 24.929,29.204 24.913,29.188C24.9,29.171 24.884,29.163 24.868,29.155C24.851,29.151 24.835,29.147 24.818,29.147C24.785,29.147 24.752,29.155 24.723,29.171C24.695,29.188 24.67,29.213 24.649,29.237C24.629,29.262 24.612,29.295 24.6,29.324C24.588,29.357 24.583,29.385 24.583,29.414V30.048H24.345V29.003H24.341Z" id="path_47"/><path fill="#00524cff" d="M26.243,29.575C26.247,29.62 26.255,29.661 26.267,29.703C26.28,29.744 26.3,29.781 26.325,29.81C26.35,29.843 26.374,29.867 26.407,29.884C26.44,29.9 26.473,29.913 26.51,29.913C26.63,29.913 26.716,29.847 26.761,29.711H26.984C26.971,29.768 26.951,29.822 26.918,29.867C26.889,29.913 26.852,29.954 26.807,29.983C26.765,30.015 26.716,30.036 26.663,30.057C26.609,30.073 26.556,30.081 26.502,30.081C26.424,30.081 26.354,30.065 26.288,30.036C26.226,30.007 26.173,29.966 26.127,29.913C26.082,29.859 26.049,29.801 26.024,29.736C26,29.67 25.987,29.596 25.987,29.521C25.987,29.451 26,29.382 26.024,29.32C26.049,29.254 26.082,29.2 26.127,29.151C26.173,29.101 26.226,29.065 26.288,29.036C26.35,29.007 26.424,28.99 26.502,28.99C26.576,28.99 26.646,29.003 26.708,29.027C26.77,29.052 26.819,29.089 26.864,29.135C26.906,29.18 26.938,29.233 26.963,29.295C26.988,29.357 26.996,29.427 26.996,29.501V29.579L26.243,29.575ZM26.757,29.427C26.753,29.386 26.749,29.353 26.737,29.32C26.724,29.287 26.708,29.258 26.683,29.233C26.663,29.209 26.634,29.188 26.605,29.176C26.572,29.163 26.539,29.155 26.502,29.155C26.469,29.155 26.436,29.163 26.407,29.176C26.378,29.192 26.354,29.209 26.329,29.233C26.309,29.258 26.288,29.287 26.276,29.32C26.263,29.353 26.255,29.386 26.251,29.423L26.757,29.427Z" id="path_48"/><path fill="#00524cff" d="M27.153,29.003H27.367L27.379,29.097C27.408,29.06 27.441,29.031 27.482,29.015C27.523,28.994 27.56,28.986 27.605,28.986C27.618,28.986 27.634,28.99 27.655,28.994C27.675,28.999 27.696,29.003 27.717,29.011V29.208C27.651,29.184 27.61,29.171 27.597,29.171C27.564,29.171 27.535,29.18 27.511,29.192C27.486,29.204 27.461,29.225 27.445,29.25C27.428,29.274 27.412,29.299 27.404,29.332C27.395,29.365 27.391,29.394 27.391,29.431V30.061H27.153V29.003Z" id="path_49"/><path fill="#00524cff" d="M28.536,29.353C28.515,29.278 28.491,29.229 28.454,29.2C28.421,29.171 28.375,29.155 28.322,29.155C28.281,29.155 28.248,29.163 28.215,29.184C28.182,29.204 28.157,29.229 28.136,29.262C28.116,29.295 28.099,29.332 28.087,29.377C28.075,29.423 28.071,29.468 28.071,29.513C28.071,29.563 28.075,29.612 28.087,29.661C28.099,29.711 28.116,29.752 28.136,29.789C28.157,29.826 28.186,29.855 28.215,29.88C28.243,29.904 28.281,29.913 28.318,29.913C28.347,29.913 28.371,29.904 28.396,29.892C28.421,29.88 28.441,29.863 28.458,29.838C28.474,29.818 28.491,29.789 28.503,29.76C28.515,29.731 28.524,29.698 28.532,29.666H28.783C28.775,29.731 28.758,29.789 28.733,29.838C28.709,29.888 28.676,29.933 28.635,29.97C28.594,30.007 28.548,30.032 28.491,30.053C28.437,30.073 28.375,30.081 28.309,30.081C28.227,30.081 28.153,30.065 28.091,30.032C28.029,29.999 27.98,29.954 27.943,29.9C27.902,29.847 27.873,29.785 27.857,29.719C27.84,29.653 27.828,29.583 27.828,29.517C27.828,29.443 27.84,29.373 27.865,29.312C27.889,29.246 27.922,29.192 27.964,29.143C28.005,29.097 28.058,29.056 28.12,29.031C28.182,29.003 28.248,28.99 28.322,28.99C28.388,28.99 28.449,28.999 28.499,29.019C28.552,29.036 28.598,29.065 28.635,29.097C28.672,29.13 28.705,29.167 28.729,29.213C28.754,29.258 28.771,29.307 28.783,29.357L28.536,29.353Z" id="path_50"/><path fill="#00524cff" d="M29.186,29.575C29.191,29.62 29.199,29.661 29.211,29.703C29.223,29.744 29.244,29.781 29.269,29.81C29.293,29.843 29.318,29.867 29.351,29.884C29.384,29.9 29.417,29.913 29.454,29.913C29.573,29.913 29.66,29.847 29.705,29.711H29.927C29.915,29.768 29.895,29.822 29.861,29.867C29.833,29.913 29.796,29.954 29.75,29.983C29.709,30.015 29.66,30.036 29.606,30.057C29.553,30.073 29.499,30.081 29.446,30.081C29.368,30.081 29.298,30.065 29.232,30.036C29.17,30.007 29.116,29.966 29.071,29.913C29.026,29.859 28.993,29.801 28.968,29.736C28.943,29.67 28.931,29.596 28.931,29.521C28.931,29.451 28.943,29.382 28.968,29.32C28.993,29.254 29.026,29.2 29.071,29.151C29.116,29.101 29.17,29.065 29.232,29.036C29.293,29.007 29.368,28.99 29.446,28.99C29.52,28.99 29.59,29.003 29.652,29.027C29.713,29.052 29.763,29.089 29.808,29.135C29.849,29.18 29.882,29.233 29.907,29.295C29.931,29.357 29.94,29.427 29.94,29.501V29.579L29.186,29.575ZM29.701,29.427C29.697,29.386 29.693,29.353 29.68,29.32C29.668,29.287 29.652,29.258 29.627,29.233C29.606,29.209 29.577,29.188 29.549,29.176C29.516,29.163 29.483,29.155 29.446,29.155C29.413,29.155 29.38,29.163 29.351,29.176C29.322,29.192 29.298,29.209 29.273,29.233C29.252,29.258 29.232,29.287 29.219,29.32C29.207,29.353 29.199,29.386 29.195,29.423L29.701,29.427Z" id="path_51"/></svg>