<svg id="vector" xmlns="http://www.w3.org/2000/svg" width="64.0d" height="64.0d" viewBox="0 0 64.0 64.0"><defs><clipPath id="clip_path_0"><path d="M29.135,19.56C29.135,20.211 29.662,20.741 30.315,20.741C30.968,20.741 31.495,20.213 31.495,19.56C31.495,18.91 30.968,18.38 30.315,18.38C29.664,18.38 29.135,18.908 29.135,19.56Z"/></clipPath><clipPath id="clip_path_1"><path d="M44.946,28.78C44.946,29.431 45.474,29.96 46.126,29.96C46.777,29.96 47.306,29.433 47.306,28.78C47.306,28.129 46.779,27.6 46.126,27.6C45.474,27.6 44.946,28.129 44.946,28.78Z"/></clipPath><clipPath id="clip_path_2"><path d="M41.727,19.077C41.727,19.728 42.254,20.258 42.907,20.258C43.56,20.258 44.087,19.73 44.087,19.077C44.087,18.425 43.56,17.897 42.907,17.897C42.254,17.897 41.727,18.425 41.727,19.077Z"/></clipPath><clipPath id="clip_path_3"><path d="M22.841,45.242C22.841,45.893 23.369,46.422 24.022,46.422C24.674,46.422 25.202,45.895 25.202,45.242C25.202,44.591 24.674,44.062 24.022,44.062C23.369,44.062 22.841,44.591 22.841,45.242Z"/></clipPath><clipPath id="clip_path_4"><path d="M16.427,20.153C16.427,20.803 16.955,21.333 17.607,21.333C18.26,21.333 18.788,20.805 18.788,20.153C18.788,19.502 18.26,18.972 17.607,18.972C16.957,18.972 16.427,19.5 16.427,20.153Z"/></clipPath><clipPath id="clip_path_5"><path d="M49.78,15.385H48.814V39.456H49.78V15.385Z"/></clipPath><clipPath id="clip_path_6"><path d="M46.537,40.988H45.571V44.492H46.537V40.988Z"/></clipPath><clipPath id="clip_path_7"><path d="M46.609,13.958H45.643V28.78H46.609V13.958Z"/></clipPath><clipPath id="clip_path_8"><path d="M43.388,12.693H42.422V19.077H43.388V12.693Z"/></clipPath><clipPath id="clip_path_9"><path d="M40.241,23.57H39.276V26.395H40.241V23.57Z"/></clipPath><clipPath id="clip_path_10"><path d="M37.335,45.762H36.369V52.012H37.335V45.762Z"/></clipPath><clipPath id="clip_path_11"><path d="M37.093,11.432H36.127V25.635H37.093V11.432Z"/></clipPath><clipPath id="clip_path_12"><path d="M33.946,11.151H32.98V14.613H33.946V11.151Z"/></clipPath><clipPath id="clip_path_13"><path d="M30.8,49.722H29.834V53.924H30.8V49.722Z"/></clipPath><clipPath id="clip_path_14"><path d="M30.8,19.081H29.834V23.57H30.8V19.081Z"/></clipPath><clipPath id="clip_path_15"><path d="M26.685,46.78V52.01H27.653V47.746H32.98V53.382H33.946V46.78H26.685Z"/></clipPath><clipPath id="clip_path_16"><path d="M24.505,44.935H23.539V50.27H24.505V44.935Z"/></clipPath><clipPath id="clip_path_17"><path d="M26.685,11.432V21.44L30.101,24.134L35.963,25.55L38.843,29.388H39.951V30.774L42.066,33.452H44.869L46.011,34.778L44.991,38.993L42.422,39.574V47.73H43.39V40.346L45.789,39.804L47.066,34.523L45.31,32.486H42.535L40.917,30.439V28.422H39.324L36.527,24.694L30.533,23.245L27.653,20.971V11.432H26.685Z"/></clipPath><clipPath id="clip_path_18"><path d="M23.539,11.8V23.133L19.723,25.833L24.684,33.816L24.751,37.116L27.928,41.243L29.147,40.115L34.363,41.516L38.315,38.565L43.414,37.361L43.808,35.825L42.82,35.134H40.908L34.902,27.299L29.903,26.324L27.205,24.227L24.056,26.452L24.614,27.242L27.176,25.429L29.49,27.23L34.359,28.178L40.431,36.099H42.515L42.705,36.233L42.622,36.556L37.897,37.672L34.161,40.461L28.882,39.044L28.049,39.816L25.711,36.779L25.645,33.533L21.023,26.096L24.505,23.633V11.8H23.539Z"/></clipPath><clipPath id="clip_path_19"><path d="M20.392,12.693V21.515L18.472,22.853H16.496V26.118L21.825,34.665L21.898,38.122L27.57,45.493L29.935,43.306L35.023,44.672L38.926,41.902L39.516,42.346V50.155H40.482V41.865L38.94,40.705L34.838,43.621L29.67,42.233L27.692,44.066L22.858,37.785L22.785,34.378L17.464,25.841V23.818H18.775L21.358,22.022V12.693H20.392Z"/></clipPath><clipPath id="clip_path_20"><path d="M17.122,30.76V35.841L20.392,39.476V47.865H21.358V39.107L18.088,35.469V30.76H17.122Z"/></clipPath><clipPath id="clip_path_21"><path d="M18.088,13.958H17.122V20.169H18.088V13.958Z"/></clipPath><clipPath id="clip_path_22"><path d="M14,15.792V36.839L17.122,40.341V44.009H18.088V39.974L14.968,36.469V15.792H14Z"/></clipPath><clipPath id="clip_path_23"><path d="M39.276,20.456L42.424,23.556L42.422,32.757H43.39V23.152L40.241,20.052V12.037H39.276V20.456Z"/></clipPath><clipPath id="clip_path_24"><path d="M29.834,11V15.953L32.98,19.053V24.532H33.946V18.649L30.8,15.549V11H29.834Z"/></clipPath></defs><path fill="#ffffffff" d="M32,32m-31.75,0a31.75,31.75 0,1 1,63.5 0a31.75,31.75 0,1 1,-63.5 0" stroke="#e6e6e6ff" stroke-width="0.5" id="path_0"/><g id="g_0"><path fill="@drawable/$partner_nca__0" d="M27.971,19.744L30.131,17.216L32.661,19.376L30.499,21.905L27.971,19.744Z" clip-path="url(#clip_path_0)"/></g><g id="g_1"><path fill="@drawable/$partner_nca__1" d="M43.78,28.964L45.94,26.435L48.471,28.596L46.31,31.124L43.78,28.964Z" clip-path="url(#clip_path_1)"/></g><g id="g_2"><path fill="@drawable/$partner_nca__2" d="M40.561,19.261L42.721,16.731L45.251,18.892L43.091,21.422L40.561,19.261Z" clip-path="url(#clip_path_2)"/></g><g id="g_3"><path fill="@drawable/$partner_nca__3" d="M21.677,45.426L23.838,42.898L26.366,45.058L24.206,47.586L21.677,45.426Z" clip-path="url(#clip_path_3)"/></g><g id="g_4"><path fill="@drawable/$partner_nca__4" d="M15.263,20.337L17.421,17.808L19.952,19.969L17.791,22.497L15.263,20.337Z" clip-path="url(#clip_path_4)"/></g><g id="g_5"><path fill="@drawable/$partner_nca__5" d="M36.927,29.303L49.222,14.908L61.669,25.54L49.374,39.933L36.927,29.303Z" clip-path="url(#clip_path_5)"/></g><g id="g_6"><path fill="@drawable/$partner_nca__6" d="M43.841,43.015L45.979,40.511L48.266,42.467L46.128,44.969L43.841,43.015Z" clip-path="url(#clip_path_6)"/></g><g id="g_7"><path fill="@drawable/$partner_nca__7" d="M38.322,22.527L46.049,13.479L53.929,20.211L46.201,29.257L38.322,22.527Z" clip-path="url(#clip_path_7)"/></g><g id="g_8"><path fill="@drawable/$partner_nca__8" d="M39.269,16.383L42.83,12.216L46.543,15.385L42.982,19.554L39.269,16.383Z" clip-path="url(#clip_path_8)"/></g><g id="g_9"><path fill="@drawable/$partner_nca__9" d="M37.879,25.205L39.682,23.093L41.636,24.762L39.833,26.872L37.879,25.205Z" clip-path="url(#clip_path_9)"/></g><g id="g_10"><path fill="@drawable/$partner_nca__10" d="M33.281,49.375L36.778,45.283L40.423,48.397L36.929,52.487L33.281,49.375Z" clip-path="url(#clip_path_10)"/></g><g id="g_11"><path fill="@drawable/$partner_nca__11" d="M29.114,19.643L36.535,10.955L44.109,17.422L36.687,26.112L29.114,19.643Z" clip-path="url(#clip_path_11)"/></g><g id="g_12"><path fill="@drawable/$partner_nca__12" d="M31.271,13.152L33.389,10.675L35.656,12.611L33.54,15.09L31.271,13.152Z" clip-path="url(#clip_path_12)"/></g><g id="g_13"><path fill="@drawable/$partner_nca__13" d="M27.758,52.152L30.242,49.243L32.875,51.495L30.392,54.401L27.758,52.152Z" clip-path="url(#clip_path_13)"/></g><g id="g_14"><path fill="@drawable/$partner_nca__14" d="M27.617,21.676L30.242,18.604L33.017,20.975L30.392,24.047L27.617,21.676Z" clip-path="url(#clip_path_14)"/></g><g id="g_15"><path fill="@drawable/$partner_nca__15" d="M23.426,50.596L29.749,43.193L37.208,49.565L30.885,56.967L23.426,50.596Z" clip-path="url(#clip_path_15)"/></g><g id="g_16"><path fill="@drawable/$partner_nca__16" d="M20.906,48.021L23.947,44.458L27.14,47.186L24.098,50.747L20.906,48.021Z" clip-path="url(#clip_path_16)"/></g><g id="g_17"><path fill="@drawable/$partner_nca__17" d="M8.762,32.417L35.284,1.368L64.993,26.745L38.469,57.794L8.762,32.417Z" clip-path="url(#clip_path_17)"/></g><g id="g_18"><path fill="@drawable/$partner_nca__18" d="M5.047,28.982L29.882,-0.095L58.482,24.336L33.647,53.411L5.047,28.982Z" clip-path="url(#clip_path_18)"/></g><g id="g_19"><path fill="@drawable/$partner_nca__19" d="M-2.004,34.351L26.617,0.847L58.983,28.495L30.365,61.999L-2.004,34.351Z" clip-path="url(#clip_path_19)"/></g><g id="g_20"><path fill="@drawable/$partner_nca__20" d="M8.677,40.648L18.911,28.669L29.806,37.975L19.572,49.955L8.677,40.648Z" clip-path="url(#clip_path_20)"/></g><g id="g_21"><path fill="@drawable/$partner_nca__21" d="M14.055,17.548L17.532,13.479L21.158,16.577L17.682,20.646L14.055,17.548Z" clip-path="url(#clip_path_21)"/></g><g id="g_22"><path fill="@drawable/$partner_nca__22" d="M0.066,32.106L15.726,13.773L32.025,27.695L16.365,46.028L0.066,32.106Z" clip-path="url(#clip_path_22)"/></g><g id="g_23"><path fill="@drawable/$partner_nca__23" d="M29.042,24.017L41.009,10.003L53.624,20.777L41.654,34.79L29.042,24.017Z" clip-path="url(#clip_path_23)"/></g><g id="g_24"><path fill="@drawable/$partner_nca__24" d="M23.149,18.823L31.568,8.967L40.632,16.709L32.212,26.565L23.149,18.823Z" clip-path="url(#clip_path_24)"/></g><path fill="#27397eff" d="M31.911,36.498C32.752,35.905 33.807,35.196 35.387,35.061C33.966,34.659 32.849,35.293 31.843,35.976C31.646,34.531 31.695,32.761 31.729,32.347C32.089,32.551 32.524,32.931 32.806,33.978L32.843,34.113L32.867,33.975C33.077,32.807 32.281,32.048 32.253,32.019C32.285,32.015 32.497,32.023 32.798,32.161C33.077,32.29 33.498,32.569 33.91,33.171L33.999,33.299L33.968,33.145C33.661,31.647 32.437,31.342 32.366,31.326C32.384,31.312 32.778,31.033 33.94,31.415L34.047,31.451L33.975,31.367C33.259,30.532 32.182,30.754 32.065,30.781L32.067,30.776C32.111,30.679 32.285,30.451 32.643,30.202L32.752,30.126L32.621,30.144C32.035,30.227 31.711,30.504 31.638,30.601C31.63,30.471 31.608,30.235 31.527,30.057L31.499,29.992L31.471,30.057C31.392,30.235 31.368,30.471 31.36,30.601C31.287,30.504 30.965,30.227 30.377,30.144L30.246,30.126L30.355,30.202C30.709,30.447 30.883,30.675 30.933,30.781C30.824,30.756 29.733,30.532 29.023,31.367L28.951,31.451L29.058,31.415C30.224,31.031 30.616,31.312 30.634,31.326C30.561,31.342 29.339,31.649 29.031,33.145L29.001,33.299L29.088,33.171C29.5,32.571 29.921,32.29 30.199,32.161C30.491,32.027 30.699,32.019 30.743,32.019H30.747C30.717,32.05 29.923,32.81 30.133,33.975L30.157,34.113L30.194,33.978C30.476,32.929 30.911,32.549 31.271,32.347C31.303,32.761 31.351,34.531 31.157,35.976C30.153,35.293 29.035,34.659 27.613,35.061C29.193,35.194 30.246,35.905 31.089,36.498C30.606,36.819 30.137,37.088 29.66,37.173C29.652,37.175 29.648,37.187 29.656,37.191C30.287,37.526 30.836,37.243 31.505,36.787C32.174,37.243 32.724,37.526 33.354,37.191C33.362,37.187 33.358,37.175 33.35,37.173C32.863,37.088 32.396,36.819 31.911,36.498Z" id="path_1"/></svg>