<svg id="vector" xmlns="http://www.w3.org/2000/svg" width="64.0d" height="64.0d" viewBox="0 0 64.0 64.0"><path fill="#ffffffff" d="M32,32m-31.75,0a31.75,31.75 0,1 1,63.5 0a31.75,31.75 0,1 1,-63.5 0" stroke="#e6e6e6ff" stroke-width="0.5" id="path_0"/><path fill="#17864aff" d="M32.006,35.277C32.006,35.277 33.03,36.064 33.709,36.55C33.946,36.729 33.453,36.787 32.902,37.139C32.448,37.414 32.941,37.888 33.376,37.862C33.805,37.843 34.042,37.331 34.4,37.312C34.733,37.293 35.795,38.214 36.64,38.765C37.504,39.315 37.818,39.43 38.304,38.944C39.91,37.299 38.502,38.022 38.106,38.118L35.494,36.486C35.315,36.371 35.59,36.173 35.827,35.936C36.122,35.661 36.339,35.366 35.789,35.072C35.238,34.797 35.04,35.366 34.867,35.661C34.714,35.955 34.477,35.878 34.336,35.776L32.864,34.714C40.749,29.12 47.462,30.08 47.462,30.08C47.462,30.08 45.203,29.043 40.749,30.003C36.294,30.963 31.974,34.105 31.974,34.105C32.013,34.105 27.699,30.963 23.245,30.003C18.79,29.043 16.531,30.08 16.531,30.08C16.531,30.08 23.245,29.12 31.13,34.714L29.658,35.776C29.517,35.872 29.286,35.955 29.126,35.661C28.947,35.366 28.755,34.797 28.205,35.072C27.654,35.366 27.872,35.661 28.166,35.936C28.403,36.173 28.678,36.365 28.499,36.486L25.888,38.118C25.498,38.022 24.083,37.293 25.69,38.944C26.176,39.43 26.496,39.315 27.36,38.765C28.205,38.214 29.267,37.293 29.6,37.312C29.952,37.331 30.189,37.843 30.624,37.862C31.053,37.882 31.546,37.408 31.098,37.139C30.547,36.781 30.061,36.723 30.291,36.55C30.989,36.057 32.006,35.277 32.006,35.277Z" id="path_1"/><path fill="#17864aff" d="M37.03,20.928C36.736,19.296 35.443,18.713 34.419,18.688C35.206,17.965 36.774,18.08 37.734,18.841C37.069,17.114 35.302,16.39 33.574,17.209C33.85,16.365 35.539,15.52 36.794,16.051C35.731,15.11 34.086,14.739 32.634,15.833C32.595,14.963 32.442,14.227 31.987,13.472C31.987,13.472 31.987,13.472 31.987,13.478C31.533,14.227 31.386,14.963 31.341,15.833C29.888,14.739 28.243,15.11 27.181,16.051C28.435,15.52 30.125,16.365 30.4,17.209C28.672,16.384 26.912,17.114 26.24,18.841C27.2,18.08 28.774,17.958 29.555,18.688C28.531,18.707 27.238,19.296 26.944,20.928C27.77,20.179 28.947,19.904 30.182,20.166C29.888,20.224 29.574,20.307 29.261,20.461C28.122,21.088 27.962,22.368 27.962,22.368C27.962,22.368 29.024,21.427 30.65,21.485C30.848,21.485 31.021,21.485 31.181,21.523L31.219,21.638V31.162C30.458,31.238 29.766,31.456 29.357,31.827C29.357,31.827 31.494,32.947 31.987,33.357C32.474,32.941 34.618,31.827 34.618,31.827C34.202,31.456 33.523,31.238 32.755,31.162V21.625L32.794,21.51C32.947,21.472 33.126,21.472 33.325,21.472C34.957,21.414 36.013,22.355 36.013,22.355C36.013,22.355 35.859,21.081 34.714,20.448C34.4,20.294 34.086,20.211 33.792,20.153C35.027,19.897 36.205,20.173 37.03,20.915V20.928Z" id="path_2"/><path fill="#6a696aff" d="M12.89,44.608V45.6H10.707V45.805C10.707,46.176 10.413,46.471 10.048,46.471H9.728C9.357,46.471 9.062,46.176 9.062,45.805V44.23L9.6,44.173V45.92H10.17V44.096L10.701,44.039V44.397C10.925,44.128 11.398,43.866 12.038,43.866C12.755,43.866 12.883,44.199 12.883,44.602L12.89,44.608ZM12.346,45.063V44.423C11.238,44.429 10.739,44.646 10.707,44.966V45.063H12.346ZM11.776,43.334C11.776,43.174 11.885,43.066 12.045,43.066C12.205,43.066 12.314,43.174 12.314,43.334C12.314,43.494 12.205,43.603 12.045,43.603C11.885,43.603 11.776,43.494 11.776,43.334Z" id="path_3"/><path fill="#6a696aff" d="M14.24,45.062L14.15,45.606H13.779C13.594,45.606 13.421,45.51 13.421,45.325V42.995L13.952,42.938V45.062H14.24Z" id="path_4"/><path fill="#6a696aff" d="M14.521,46.138C14.521,46.298 14.413,46.406 14.253,46.406C14.093,46.406 13.984,46.298 13.984,46.138C13.984,45.978 14.093,45.869 14.253,45.869C14.413,45.875 14.521,45.978 14.521,46.138ZM14.067,45.062H14.592V43.93L15.123,43.853V45.325C15.123,45.51 14.944,45.606 14.778,45.606H14.157L14.067,45.062ZM15.142,46.138C15.142,46.298 15.033,46.406 14.873,46.406C14.714,46.406 14.605,46.298 14.605,46.138C14.605,45.978 14.714,45.869 14.873,45.869C15.033,45.875 15.142,45.978 15.142,46.138Z" id="path_5"/><path fill="#6a696aff" d="M16.787,45.606H16.582C16.582,46.009 16.134,46.31 15.706,46.394L15.533,45.92C15.891,45.875 16.045,45.741 16.045,45.465V43.936L16.582,43.859V45.069H16.877L16.787,45.606Z" id="path_6"/><path fill="#6a696aff" d="M17.587,42.938V45.325C17.587,45.51 17.414,45.606 17.229,45.606H16.698L16.787,45.062H17.056V42.995L17.587,42.938Z" id="path_7"/><path fill="#6a696aff" d="M18.118,42.995L18.65,42.938V45.606H18.118V42.995Z" id="path_8"/><path fill="#6a696aff" d="M22.624,45.063L22.534,45.606H21.606C21.171,45.606 20.845,45.28 20.845,44.775C20.845,44.186 21.261,43.879 21.664,43.879C22.035,43.879 22.349,44.179 22.349,44.544V45.063H22.624ZM21.088,43.334C21.088,43.174 21.197,43.066 21.357,43.066C21.517,43.066 21.626,43.174 21.626,43.334C21.626,43.494 21.517,43.603 21.357,43.603C21.197,43.603 21.088,43.494 21.088,43.334ZM21.638,45.063H21.798V44.403H21.638C21.446,44.403 21.363,44.519 21.363,44.698C21.363,44.966 21.51,45.056 21.638,45.063ZM21.709,43.334C21.709,43.174 21.818,43.066 21.978,43.066C22.138,43.066 22.246,43.174 22.246,43.334C22.246,43.494 22.138,43.603 21.978,43.603C21.818,43.61 21.709,43.494 21.709,43.334Z" id="path_9"/><path fill="#6a696aff" d="M24.077,45.062L23.987,45.606H23.866C23.686,45.606 23.501,45.53 23.366,45.395C23.27,45.517 23.11,45.606 22.918,45.606H22.541L22.451,45.062H22.976V43.93L23.507,43.853V44.973C23.635,45.05 23.834,45.069 23.917,45.069H24.077V45.062ZM22.963,43.309C22.963,43.149 23.072,43.04 23.232,43.04C23.392,43.04 23.501,43.149 23.501,43.309C23.501,43.469 23.392,43.578 23.232,43.578C23.072,43.578 22.963,43.469 22.963,43.309Z" id="path_10"/><path fill="#6a696aff" d="M24.352,46.138C24.352,46.298 24.243,46.406 24.083,46.406C23.923,46.406 23.814,46.298 23.814,46.138C23.814,45.978 23.923,45.869 24.083,45.869C24.25,45.875 24.352,45.978 24.352,46.138ZM23.898,45.062H24.422V43.93L24.954,43.853V45.325C24.954,45.51 24.774,45.606 24.608,45.606H23.987L23.898,45.062ZM24.979,46.138C24.979,46.298 24.87,46.406 24.71,46.406C24.55,46.406 24.442,46.298 24.442,46.138C24.442,45.978 24.55,45.869 24.71,45.869C24.87,45.875 24.979,45.978 24.979,46.138Z" id="path_11"/><path fill="#6a696aff" d="M27.328,45.606C27.168,45.606 27.034,45.555 26.918,45.466C26.861,45.555 26.752,45.606 26.611,45.606H25.363V45.062H26.368C26.33,44.512 25.722,44.134 25.722,44.134L26.138,43.706C26.138,43.706 26.682,44.16 26.899,44.787C26.982,45.03 27.213,45.056 27.328,45.056H27.418L27.328,45.606Z" id="path_12"/><path fill="#6a696aff" d="M29.344,45.062L29.254,45.606H29.203C29.024,45.606 28.845,45.53 28.704,45.395C28.57,45.53 28.397,45.606 28.218,45.606H27.232L27.322,45.062H27.475V44.454C27.475,44.096 27.789,43.789 28.16,43.789C28.531,43.789 28.973,44.09 28.979,44.73C28.979,44.832 28.966,44.928 28.941,45.011C29.056,45.05 29.197,45.062 29.254,45.062H29.344ZM28.461,44.659C28.454,44.435 28.378,44.32 28.186,44.32H28.026V45.069H28.186C28.32,45.062 28.474,44.973 28.461,44.659Z" id="path_13"/><path fill="#6a696aff" d="M30.054,42.938V45.325C30.054,45.51 29.882,45.606 29.696,45.606H29.165L29.254,45.062H29.523V42.995L30.054,42.938Z" id="path_14"/><path fill="#6a696aff" d="M34.029,45.063L33.939,45.606H33.011C32.576,45.606 32.25,45.28 32.25,44.775C32.25,44.186 32.666,43.879 33.069,43.879C33.44,43.879 33.754,44.179 33.754,44.544V45.063H34.029ZM32.493,43.334C32.493,43.174 32.602,43.066 32.762,43.066C32.922,43.066 33.03,43.174 33.03,43.334C33.03,43.494 32.922,43.603 32.762,43.603C32.602,43.603 32.493,43.494 32.493,43.334ZM33.043,45.063H33.203V44.403H33.043C32.851,44.403 32.768,44.519 32.768,44.698C32.768,44.966 32.915,45.056 33.043,45.063ZM33.114,43.334C33.114,43.174 33.222,43.066 33.382,43.066C33.542,43.066 33.651,43.174 33.651,43.334C33.651,43.494 33.542,43.603 33.382,43.603C33.222,43.603 33.114,43.494 33.114,43.334Z" id="path_15"/><path fill="#6a696aff" d="M35.482,45.062L35.392,45.606H35.27C35.091,45.606 34.906,45.53 34.771,45.395C34.675,45.517 34.515,45.606 34.323,45.606H33.946L33.856,45.062H34.381V43.93L34.912,43.853V44.973C35.04,45.05 35.238,45.069 35.322,45.069H35.482V45.062ZM34.63,46.138C34.63,46.298 34.522,46.406 34.362,46.406C34.202,46.406 34.093,46.298 34.093,46.138C34.093,45.978 34.202,45.869 34.362,45.869C34.522,45.869 34.63,45.978 34.63,46.138ZM35.251,46.138C35.251,46.298 35.142,46.406 34.982,46.406C34.822,46.406 34.714,46.298 34.714,46.138C34.714,45.978 34.822,45.869 34.982,45.869C35.142,45.875 35.251,45.978 35.251,46.138Z" id="path_16"/><path fill="#6a696aff" d="M39.418,45.062L39.328,45.606H35.302L35.392,45.062H38.502V44.64H35.757V43.801C35.757,43.443 36.051,43.142 36.429,43.142H38.771L38.534,43.68H36.294V44.096H38.374C38.746,44.096 39.046,44.39 39.046,44.762V45.056H39.418V45.062Z" id="path_17"/><path fill="#6a696aff" d="M40.39,45.606H39.238L39.328,45.062H39.59V42.995L40.121,42.938V45.062H40.48L40.39,45.606Z" id="path_18"/><path fill="#6a696aff" d="M42.406,45.062L42.317,45.606H42.266C42.086,45.606 41.907,45.53 41.766,45.395C41.632,45.53 41.459,45.606 41.28,45.606H40.294L40.384,45.062H40.538V44.454C40.538,44.096 40.851,43.789 41.222,43.789C41.594,43.789 42.035,44.09 42.042,44.73C42.042,44.832 42.029,44.928 42.003,45.011C42.118,45.05 42.259,45.062 42.317,45.062H42.406ZM41.523,44.659C41.517,44.435 41.44,44.32 41.248,44.32H41.088V45.069H41.248C41.382,45.062 41.536,44.973 41.523,44.659Z" id="path_19"/><path fill="#6a696aff" d="M43.123,42.938V45.325C43.123,45.51 42.95,45.606 42.765,45.606H42.234L42.323,45.062H42.592V42.995L43.123,42.938Z" id="path_20"/><path fill="#6a696aff" d="M43.654,42.995L44.186,42.938V45.606H43.654V42.995Z" id="path_21"/><path fill="#6a696aff" d="M48.16,45.063L48.07,45.606H47.142C46.707,45.606 46.381,45.28 46.381,44.775C46.381,44.186 46.797,43.879 47.2,43.879C47.571,43.879 47.885,44.179 47.885,44.544V45.063H48.16ZM46.63,43.334C46.63,43.174 46.739,43.066 46.899,43.066C47.059,43.066 47.168,43.174 47.168,43.334C47.168,43.494 47.059,43.603 46.899,43.603C46.739,43.61 46.63,43.494 46.63,43.334ZM47.181,45.063H47.341V44.403H47.181C46.989,44.403 46.906,44.519 46.906,44.698C46.906,44.966 47.046,45.056 47.181,45.063ZM47.245,43.334C47.245,43.174 47.354,43.066 47.514,43.066C47.674,43.066 47.782,43.174 47.782,43.334C47.782,43.494 47.674,43.603 47.514,43.603C47.354,43.603 47.245,43.494 47.245,43.334Z" id="path_22"/><path fill="#6a696aff" d="M49.613,45.062L49.523,45.606H49.402C49.222,45.606 49.037,45.53 48.902,45.395C48.806,45.517 48.646,45.606 48.454,45.606H48.077L47.987,45.062H48.512V43.93L49.043,43.853V44.973C49.171,45.05 49.37,45.069 49.453,45.069H49.613V45.062ZM49.21,43.578H48.333V43.296H48.544C48.499,43.245 48.474,43.174 48.474,43.085C48.474,42.874 48.64,42.746 48.896,42.746C48.986,42.746 49.075,42.765 49.146,42.79L49.075,43.046C49.043,43.034 48.992,43.014 48.934,43.014C48.806,43.014 48.762,43.078 48.762,43.155C48.762,43.232 48.813,43.302 48.928,43.302H49.21V43.578Z" id="path_23"/><path fill="#6a696aff" d="M51.066,45.062L50.976,45.606H50.854C50.675,45.606 50.49,45.53 50.355,45.395C50.259,45.517 50.099,45.606 49.907,45.606H49.53L49.44,45.062H49.965V43.93L50.496,43.853V44.973C50.624,45.05 50.822,45.069 50.906,45.069H51.066V45.062ZM50.214,46.138C50.214,46.298 50.106,46.406 49.946,46.406C49.786,46.406 49.677,46.298 49.677,46.138C49.677,45.978 49.786,45.869 49.946,45.869C50.106,45.869 50.214,45.978 50.214,46.138ZM50.835,46.138C50.835,46.298 50.726,46.406 50.566,46.406C50.406,46.406 50.298,46.298 50.298,46.138C50.298,45.978 50.406,45.869 50.566,45.869C50.726,45.875 50.835,45.978 50.835,46.138Z" id="path_24"/><path fill="#6a696aff" d="M53.082,45.606H52.768C52.838,45.715 52.877,45.843 52.877,45.997C52.877,46.502 52.544,46.733 52.051,46.733C51.52,46.733 51.245,46.432 51.245,45.888V45.606H50.88L50.97,45.062H51.251V44.8C51.251,44.282 51.546,43.974 52.006,43.974C52.467,43.974 52.781,44.269 52.781,44.71C52.781,44.851 52.755,44.966 52.704,45.062H53.178L53.082,45.606ZM51.802,45.062H51.962C52.16,45.062 52.256,45.043 52.256,44.794C52.256,44.614 52.173,44.512 52.026,44.512C51.872,44.512 51.802,44.634 51.802,44.87V45.062ZM52.358,45.933C52.358,45.696 52.16,45.632 51.987,45.632H51.802V45.83C51.802,46.125 51.923,46.208 52.083,46.208C52.275,46.208 52.358,46.112 52.358,45.933Z" id="path_25"/><path fill="#6a696aff" d="M53.882,42.938V45.325C53.882,45.51 53.709,45.606 53.523,45.606H52.992L53.082,45.062H53.35V42.995L53.882,42.938Z" id="path_26"/><path fill="#6a696aff" d="M54.413,42.995L54.944,42.938V45.606H54.413V42.995Z" id="path_27"/><path fill="#6a696aff" d="M10.016,50.489L9.747,49.971H9.677C9.587,49.971 9.51,49.971 9.44,49.971V50.496H9.043V48.762C9.222,48.749 9.363,48.729 9.677,48.729C10.17,48.729 10.426,48.883 10.426,49.248V49.446C10.426,49.658 10.323,49.805 10.131,49.888L10.47,50.489H10.016ZM9.709,49.632C9.894,49.632 10.022,49.562 10.022,49.414V49.306C10.022,49.152 9.901,49.075 9.709,49.075C9.6,49.075 9.523,49.082 9.44,49.082V49.619C9.523,49.625 9.606,49.632 9.709,49.632Z" id="path_28"/><path fill="#6a696aff" d="M10.682,49.747V49.51C10.682,48.973 10.931,48.729 11.488,48.729C12.045,48.729 12.294,48.973 12.294,49.51V49.747C12.294,50.291 12.032,50.521 11.488,50.521C10.944,50.521 10.682,50.285 10.682,49.747ZM11.891,49.702V49.549C11.891,49.216 11.763,49.075 11.494,49.075C11.226,49.075 11.098,49.216 11.098,49.549V49.702C11.098,50.042 11.226,50.169 11.494,50.169C11.763,50.169 11.891,50.042 11.891,49.702Z" id="path_29"/><path fill="#6a696aff" d="M14.003,48.762L13.338,49.824V50.496H12.941V49.824L12.269,48.762H12.73L13.146,49.427L13.562,48.762C13.568,48.762 14.003,48.762 14.003,48.762Z" id="path_30"/><path fill="#6a696aff" d="M15.123,50.221H14.419L14.317,50.496H13.888L14.573,48.762H14.976L15.674,50.496H15.226L15.123,50.221ZM15.002,49.875L14.771,49.242L14.541,49.875H15.002Z" id="path_31"/><path fill="#6a696aff" d="M16.979,50.144V50.496H15.846V48.762H16.243V50.144H16.979Z" id="path_32"/><path fill="#6a696aff" d="M17.606,49.747V49.51C17.606,48.973 17.862,48.729 18.413,48.729C18.682,48.729 18.861,48.787 19.021,48.909L18.81,49.209C18.707,49.133 18.573,49.082 18.419,49.082C18.144,49.082 18.003,49.203 18.003,49.555V49.709C18.003,50.054 18.144,50.176 18.419,50.176C18.573,50.176 18.714,50.125 18.816,50.054L19.027,50.349C18.861,50.47 18.675,50.528 18.413,50.528C17.869,50.521 17.606,50.278 17.606,49.747Z" id="path_33"/><path fill="#6a696aff" d="M19.142,49.747V49.51C19.142,48.973 19.392,48.729 19.949,48.729C20.506,48.729 20.755,48.973 20.755,49.51V49.747C20.755,50.291 20.493,50.521 19.949,50.521C19.405,50.521 19.142,50.285 19.142,49.747ZM20.346,49.702V49.549C20.346,49.216 20.218,49.075 19.949,49.075C19.68,49.075 19.552,49.216 19.552,49.549V49.702C19.552,50.042 19.68,50.169 19.949,50.169C20.218,50.169 20.346,50.042 20.346,49.702Z" id="path_34"/><path fill="#6a696aff" d="M22.931,48.762V50.496H22.534L22.554,49.453L22.157,50.189H21.843L21.453,49.453L21.466,50.489H21.069V48.755H21.478L21.997,49.734L22.522,48.755L22.931,48.762Z" id="path_35"/><path fill="#6a696aff" d="M25.21,48.762V50.496H24.813L24.832,49.453L24.435,50.189H24.122L23.731,49.453L23.744,50.489H23.347V48.755H23.757L24.275,49.734L24.8,48.755L25.21,48.762Z" id="path_36"/><path fill="#6a696aff" d="M25.574,48.762H25.971V50.496H25.574V48.762Z" id="path_37"/><path fill="#6a696aff" d="M26.266,50.387L26.349,50.054C26.509,50.131 26.733,50.163 26.906,50.163C27.098,50.163 27.219,50.125 27.219,50.022C27.219,49.901 26.97,49.811 26.771,49.728C26.534,49.626 26.342,49.491 26.342,49.229C26.342,48.934 26.56,48.717 27.072,48.717C27.309,48.717 27.514,48.768 27.661,48.851L27.584,49.178C27.437,49.107 27.245,49.069 27.085,49.069C26.893,49.069 26.778,49.094 26.778,49.21C26.778,49.325 27.046,49.408 27.232,49.485C27.469,49.587 27.648,49.734 27.648,49.997C27.648,50.317 27.43,50.515 26.893,50.515C26.643,50.515 26.432,50.47 26.266,50.387Z" id="path_38"/><path fill="#6a696aff" d="M27.827,50.387L27.91,50.054C28.07,50.131 28.294,50.163 28.467,50.163C28.659,50.163 28.781,50.125 28.781,50.022C28.781,49.901 28.531,49.811 28.333,49.728C28.096,49.626 27.904,49.491 27.904,49.229C27.904,48.934 28.122,48.717 28.634,48.717C28.87,48.717 29.075,48.768 29.222,48.851L29.146,49.178C28.998,49.107 28.806,49.069 28.646,49.069C28.454,49.069 28.339,49.094 28.339,49.21C28.339,49.325 28.608,49.408 28.794,49.485C29.03,49.587 29.21,49.734 29.21,49.997C29.21,50.317 28.992,50.515 28.454,50.515C28.205,50.515 27.994,50.47 27.827,50.387Z" id="path_39"/><path fill="#6a696aff" d="M29.459,48.762H29.856V50.496H29.459V48.762Z" id="path_40"/><path fill="#6a696aff" d="M30.118,49.747V49.51C30.118,48.973 30.368,48.729 30.925,48.729C31.482,48.729 31.731,48.973 31.731,49.51V49.747C31.731,50.291 31.469,50.521 30.925,50.521C30.381,50.521 30.118,50.285 30.118,49.747ZM31.328,49.702V49.549C31.328,49.216 31.2,49.075 30.931,49.075C30.662,49.075 30.534,49.216 30.534,49.549V49.702C30.534,50.042 30.662,50.169 30.931,50.169C31.2,50.169 31.328,50.042 31.328,49.702Z" id="path_41"/><path fill="#6a696aff" d="M33.638,48.762V50.496H33.197L32.435,49.344L32.454,50.496H32.058V48.762H32.499L33.267,49.914L33.248,48.762H33.638Z" id="path_42"/><path fill="#6a696aff" d="M35.002,49.107V49.472H35.674V49.824H35.002V50.496H34.605V48.762H35.738V49.114L35.002,49.107Z" id="path_43"/><path fill="#6a696aff" d="M35.846,49.747V49.51C35.846,48.973 36.096,48.729 36.653,48.729C37.21,48.729 37.459,48.973 37.459,49.51V49.747C37.459,50.291 37.197,50.521 36.653,50.521C36.109,50.521 35.846,50.285 35.846,49.747ZM37.056,49.702V49.549C37.056,49.216 36.928,49.075 36.659,49.075C36.39,49.075 36.262,49.216 36.262,49.549V49.702C36.262,50.042 36.39,50.169 36.659,50.169C36.928,50.169 37.056,50.042 37.056,49.702Z" id="path_44"/><path fill="#6a696aff" d="M38.63,50.489L38.362,49.971H38.291C38.195,49.971 38.125,49.971 38.054,49.971V50.496H37.658V48.762C37.837,48.749 37.978,48.729 38.291,48.729C38.784,48.729 39.04,48.883 39.04,49.248V49.446C39.04,49.658 38.938,49.805 38.746,49.888L39.085,50.489H38.63ZM38.33,49.632C38.515,49.632 38.643,49.562 38.643,49.414V49.306C38.643,49.152 38.522,49.075 38.33,49.075C38.221,49.075 38.144,49.082 38.061,49.082V49.619C38.138,49.625 38.221,49.632 38.33,49.632Z" id="path_45"/><path fill="#6a696aff" d="M40.845,50.489L40.576,49.971H40.506C40.41,49.971 40.339,49.971 40.269,49.971V50.496H39.872V48.762C40.051,48.749 40.192,48.729 40.506,48.729C40.998,48.729 41.254,48.883 41.254,49.248V49.446C41.254,49.658 41.152,49.805 40.96,49.888L41.299,50.489H40.845ZM40.538,49.632C40.723,49.632 40.851,49.562 40.851,49.414V49.306C40.851,49.152 40.73,49.075 40.538,49.075C40.429,49.075 40.352,49.082 40.269,49.082V49.619C40.346,49.625 40.429,49.632 40.538,49.632Z" id="path_46"/><path fill="#6a696aff" d="M41.491,48.762H41.888V50.496H41.491V48.762Z" id="path_47"/><path fill="#6a696aff" d="M43.75,48.762L43.085,49.824V50.496H42.688V49.824L42.016,48.762H42.477L42.893,49.427L43.309,48.762H43.75Z" id="path_48"/><path fill="#6a696aff" d="M44.755,50.221H44.051L43.949,50.496H43.52L44.205,48.762H44.608L45.306,50.496H44.858L44.755,50.221ZM44.634,49.875L44.403,49.242L44.173,49.875H44.634Z" id="path_49"/><path fill="#6a696aff" d="M46.989,49.517V49.754C46.989,50.298 46.726,50.528 46.125,50.528C45.83,50.528 45.664,50.515 45.478,50.496V48.762C45.658,48.749 45.83,48.729 46.125,48.729C46.746,48.729 46.989,48.979 46.989,49.517ZM46.586,49.549C46.586,49.222 46.458,49.082 46.157,49.082C46.061,49.082 45.958,49.088 45.875,49.094V50.163C45.958,50.169 46.054,50.176 46.157,50.176C46.458,50.176 46.586,50.048 46.586,49.715V49.549Z" id="path_50"/><path fill="#6a696aff" d="M48.768,48.762V50.496H48.371V49.799H47.584V50.496H47.187V48.762H47.584V49.453H48.371V48.762H48.768Z" id="path_51"/><path fill="#6a696aff" d="M49.517,49.747V49.51C49.517,48.973 49.773,48.729 50.323,48.729C50.592,48.729 50.771,48.787 50.931,48.909L50.72,49.209C50.618,49.133 50.483,49.082 50.33,49.082C50.054,49.082 49.914,49.203 49.914,49.555V49.709C49.914,50.054 50.054,50.176 50.33,50.176C50.483,50.176 50.624,50.125 50.726,50.054L50.938,50.349C50.771,50.47 50.586,50.528 50.323,50.528C49.779,50.521 49.517,50.278 49.517,49.747Z" id="path_52"/><path fill="#6a696aff" d="M51.085,48.762H51.482V50.496H51.085V48.762Z" id="path_53"/><path fill="#6a696aff" d="M53.088,49.107H52.576V50.489H52.179V49.107H51.667V48.755H53.094L53.088,49.107Z" id="path_54"/><path fill="#6a696aff" d="M54.95,48.762L54.285,49.824V50.496H53.888V49.824L53.216,48.762H53.677L54.093,49.427L54.509,48.762H54.95Z" id="path_55"/></svg>