<svg id="vector" xmlns="http://www.w3.org/2000/svg" width="64.0d" height="64.0d" viewBox="0 0 64.0 64.0"><path fill="#ffffffff" d="M32,32m-31.75,0a31.75,31.75 0,1 1,63.5 0a31.75,31.75 0,1 1,-63.5 0" stroke="#e6e6e6ff" stroke-width="0.5" id="path_0"/><path fill="@drawable/$partner_tga__0" d="M35.176,25.356L50.968,35.483C51.18,35.619 51.355,35.806 51.476,36.027C51.597,36.248 51.661,36.496 51.66,36.748V43.938C51.66,44.338 51.501,44.72 51.218,45.002C50.935,45.284 50.551,45.443 50.151,45.443H48.78L20.413,32.232L35.176,25.356ZM12,28.314V19H19.006V20.852H19.843V19H25.264L34.344,24.823L19.425,31.771L12,28.314ZM22.308,27.538L20.069,24.984C20.03,24.939 19.981,24.903 19.927,24.878C19.872,24.854 19.813,24.841 19.754,24.841H19.095C19.035,24.841 18.976,24.854 18.921,24.878C18.867,24.903 18.819,24.939 18.779,24.984L16.54,27.538L17.171,28.088L19.006,25.994V29.928H19.843V25.994L21.678,28.088L22.308,27.538ZM16.539,20.898L18.178,22.496C18.256,22.572 18.361,22.615 18.47,22.615H20.379C20.488,22.615 20.593,22.572 20.671,22.496L22.31,20.898L21.725,20.302L20.208,21.78H18.641L17.124,20.302L16.539,20.898ZM14.617,23.491L17.461,23.978L14.767,26.053L15.28,26.714L18.614,24.146H20.236L23.571,26.714L24.083,26.053L21.388,23.978L24.232,23.491L24.09,22.668L20.343,23.31H18.506L14.759,22.668L14.617,23.491ZM19.425,32.692L16.344,34.128L41.825,45.316C42.017,45.4 42.224,45.443 42.433,45.444H46.801L19.425,32.692ZM12.001,29.235V32.221L15.326,33.68L18.435,32.232L12.001,29.235Z" id="path_1"/></svg>