<svg id="vector" xmlns="http://www.w3.org/2000/svg" width="64.0d" height="64.0d" viewBox="0 0 64.0 64.0"><path fill="#ffffffff" d="M32,32m-31.75,0a31.75,31.75 0,1 1,63.5 0a31.75,31.75 0,1 1,-63.5 0" stroke="#e6e6e6ff" stroke-width="0.5" id="path_0"/><path fill="#9e865eff" d="M42.173,46.923C42.173,46.923 42.548,46.722 42.866,46.463C43.183,46.205 43.356,45.148 43.444,45.061C43.471,44.947 41.97,46.007 42.173,46.923Z" id="path_1"/><path fill="#9e865eff" d="M43.788,46.463C43.788,46.463 44.366,46.235 44.799,45.604C45.231,44.974 44.856,44.544 45.028,44.346C45.231,44.145 44.133,44.662 44.075,45.49C44.048,46.319 43.788,46.463 43.788,46.463Z" id="path_2"/><path fill="#9e865eff" d="M42.46,48.094C42.46,48.094 42.835,47.52 43.67,47.205C44.477,46.889 44.822,47.406 45.14,47.235C45.427,47.064 44.592,48.151 43.639,47.98C42.72,47.809 42.46,48.094 42.46,48.094Z" id="path_3"/><path fill="#9e865eff" d="M44.768,46.634C44.768,46.634 45.258,46.292 45.748,46.433C46.238,46.577 46.931,46.205 47.103,46.061C47.276,45.89 47.505,45.947 47.505,45.947C47.505,45.947 46.296,44.575 44.768,46.634Z" id="path_4"/><path fill="#9e865eff" d="M45.633,44.89C45.633,44.89 46.326,44.491 46.613,43.917C46.901,43.343 46.583,42.602 46.728,42.515C46.843,42.427 45.921,42.974 45.863,43.803C45.836,44.662 45.633,44.89 45.633,44.89Z" id="path_5"/><path fill="#9e865eff" d="M39.375,48.667C39.375,48.667 40.385,48.869 41.132,48.58C41.882,48.295 42.257,47.322 42.457,47.322C42.66,47.352 41.305,47.094 40.524,47.839C39.75,48.584 39.375,48.667 39.375,48.667Z" id="path_6"/><path fill="#9e865eff" d="M46.411,45.262C46.411,45.262 47.651,45.349 48.256,44.575C48.631,44.088 48.918,43.373 48.918,43.373C48.918,43.373 48.6,43.689 48.455,43.746C48.313,43.803 47.536,43.544 46.411,45.262Z" id="path_7"/><path fill="#9e865eff" d="M47.911,43.229C47.911,43.229 47.853,42.283 48.806,41.971C49.759,41.656 50.131,40.998 50.161,40.968C50.192,40.911 49.786,42.401 49.181,42.83C48.573,43.199 47.911,43.085 47.911,43.229Z" id="path_8"/><path fill="#9e865eff" d="M36.09,10.251L35.83,10.224L35.8,10.452L36.033,10.509L36.09,10.251Z" id="path_9"/><path fill="#9e865eff" d="M35.461,10.186L35.425,10.411L35.652,10.447L35.688,10.222L35.461,10.186Z" id="path_10"/><path fill="#9e865eff" d="M37.04,12.2L37.27,12.257L37.331,12.026L37.097,11.969L37.04,12.2Z" id="path_11"/><path fill="#9e865eff" d="M36.695,12.113L36.925,12.17L36.982,11.942L36.753,11.885L36.695,12.113Z" id="path_12"/><path fill="#9e865eff" d="M37.993,10.71L37.931,10.93L38.153,10.991L38.214,10.771L37.993,10.71Z" id="path_13"/><path fill="#9e865eff" d="M37.878,11.083L37.705,11.714L37.418,11.626H37.388L37.56,10.996L37.33,10.939L37.158,11.569L36.695,11.455L35.887,11.284H35.857L35.972,10.627C35.482,10.57 35.107,10.828 34.961,11.371L35.191,11.402C35.306,11.086 35.479,10.885 35.654,10.858L35.566,11.459L35.769,11.489L36.577,11.66L37.297,11.831L37.817,11.975L38.047,11.116L37.878,11.083Z" id="path_14"/><path fill="#9e865eff" d="M41.278,13.314L41.653,12.485L41.423,12.398L41.163,13.002L40.906,12.884V12.858L41.136,12.227L40.906,12.143L40.673,12.77L40.412,12.656L40.615,12.2L40.385,12.113L40.183,12.573L39.922,12.455L40.041,12.143L39.838,12.056L39.723,12.371L39.118,12.143V12.17L38.338,11.912L38.655,10.912L38.425,10.825L38.05,12.056L38.311,12.143L39.057,12.398L39.088,12.371L40.787,13.059V13.086L41.278,13.314Z" id="path_15"/><path fill="#9e865eff" d="M41.828,12.17L41.595,12.056L41.48,12.257L41.71,12.371L41.828,12.17Z" id="path_16"/><path fill="#9e865eff" d="M42.721,12.599L42.23,13.545L42.001,13.431L42.491,12.485L42.288,12.371L41.798,13.314L41.538,13.173L41.423,13.374L42.345,13.861L42.95,12.713L42.721,12.599Z" id="path_17"/><path fill="#9e865eff" d="M41.308,13.717C41.278,13.747 41.278,13.747 41.278,13.774L41.22,13.743L41.163,13.83L41.45,13.975L41.507,13.888L41.419,13.83C41.389,13.8 41.362,13.774 41.389,13.743C41.416,13.713 41.446,13.686 41.477,13.713L41.565,13.743L41.622,13.656L41.565,13.626C41.423,13.602 41.338,13.629 41.308,13.717Z" id="path_18"/><path fill="#9e865eff" d="M43.126,12.858L42.491,13.975L42.694,14.059L43.356,12.972L43.126,12.858Z" id="path_19"/><path fill="#9e865eff" d="M44.538,13.716L43.788,14.86C43.758,14.891 43.758,14.891 43.758,14.891C43.727,14.921 43.7,14.891 43.67,14.86L43.382,14.689C43.325,14.632 43.295,14.632 43.325,14.575L43.67,14.032L43.467,13.918L43.122,14.434C43.007,14.636 43.035,14.807 43.237,14.921L43.467,15.092C43.67,15.206 43.842,15.179 43.957,15.005L44.677,13.887L44.538,13.716Z" id="path_20"/><path fill="#9e865eff" d="M46.671,16.749L46.498,16.605C46.441,16.548 46.41,16.518 46.41,16.491C46.38,16.404 46.38,16.347 46.468,16.29C46.556,16.202 46.671,16.202 46.785,16.29L46.873,16.377L47.046,16.206L46.958,16.118C46.87,16.031 46.755,16.004 46.613,16.004C46.498,16.004 46.383,16.061 46.296,16.176C46.238,16.233 46.208,16.29 46.208,16.377L45.92,16.149L45.315,15.662L45.718,15.119L45.488,14.948C45.315,14.803 45.113,14.834 44.967,15.005L44.795,15.233L44.565,15.062L45.17,14.203L44.967,14.059L44.217,15.119L44.42,15.263L44.623,15.434L44.508,15.578L44.738,15.749C44.853,15.837 44.998,15.863 45.113,15.807H45.143L45.806,16.35L46.525,17.007L46.671,16.749ZM45.055,15.434C44.998,15.521 44.94,15.521 44.853,15.464L44.795,15.434L45.082,15.062C45.14,14.974 45.197,14.974 45.285,15.031L45.343,15.062L45.055,15.434Z" id="path_21"/><path fill="#9e865eff" d="M48.113,16.692L47.363,17.437L47.191,17.266L47.624,16.836L47.448,16.635L47.015,17.095L46.785,16.863L46.644,17.065L47.363,17.782L48.255,16.863L48.113,16.692Z" id="path_22"/><path fill="#9e865eff" d="M47.796,16.692L47.708,16.605C47.678,16.575 47.678,16.548 47.708,16.518C47.738,16.488 47.766,16.488 47.796,16.518L47.853,16.575L47.911,16.518L47.853,16.461C47.796,16.404 47.681,16.404 47.624,16.461C47.593,16.491 47.593,16.491 47.593,16.518L47.563,16.488L47.505,16.545L47.735,16.773L47.796,16.692Z" id="path_23"/><path fill="#9e865eff" d="M47.651,18.068L47.479,17.897L48.431,17.038L48.604,17.209L47.651,18.068Z" id="path_24"/><path fill="#9e865eff" d="M48.546,18.125L48.489,18.068C48.431,18.011 48.374,18.011 48.286,18.068L48.198,18.155C48.11,18.212 48.11,18.269 48.167,18.356L48.225,18.413L48.546,18.125ZM47.448,18.467L47.62,18.296L47.823,18.554C47.853,18.584 47.88,18.611 47.911,18.611C47.941,18.611 47.941,18.581 47.968,18.581L48.026,18.524L47.995,18.467C47.85,18.296 47.85,18.095 48.026,17.924L48.14,17.809C48.313,17.665 48.516,17.695 48.661,17.866L48.864,18.095L48.144,18.695C47.972,18.839 47.799,18.809 47.624,18.638L47.448,18.467Z" id="path_25"/><path fill="#9e865eff" d="M49.949,18.858L49.766,18.995L49.904,19.177L50.087,19.04L49.949,18.858Z" id="path_26"/><path fill="#9e865eff" d="M49.901,18.782L49.756,18.581L49.553,18.725L49.729,18.927L49.901,18.782Z" id="path_27"/><path fill="#9e865eff" d="M51.226,20.071L51.084,19.869L50.881,19.987L50.996,20.215L51.226,20.071Z" id="path_28"/><path fill="#9e865eff" d="M50.893,20.202L50.7,20.326L50.825,20.518L51.018,20.394L50.893,20.202Z" id="path_29"/><path fill="#9e865eff" d="M50.694,19.91L50.503,20.037L50.63,20.226L50.822,20.1L50.694,19.91Z" id="path_30"/><path fill="#9e865eff" d="M50.564,20.416L49.986,20.788L49.725,20.389L49.263,19.701L49.81,19.302C49.492,18.96 49.033,18.873 48.57,19.188L48.742,19.389C49.029,19.245 49.32,19.218 49.462,19.302L48.972,19.675L49.087,19.846L49.577,20.534L49.952,21.134L50.702,20.647L50.564,20.416Z" id="path_31"/><path fill="#9e865eff" d="M51.054,21.446C50.908,21.416 50.824,21.416 50.709,21.503C50.652,21.533 50.594,21.59 50.564,21.674L50.391,21.359L51.287,20.815L51.172,20.614L50.077,21.302L50.222,21.53L50.712,22.389L50.915,22.275L50.8,22.073C50.77,22.016 50.743,21.959 50.743,21.902C50.743,21.815 50.773,21.788 50.858,21.731C50.973,21.674 51.088,21.701 51.175,21.818L51.233,21.933L51.436,21.818L51.378,21.704C51.257,21.56 51.169,21.473 51.054,21.446Z" id="path_32"/><path fill="#9e865eff" d="M51.517,21.245L51.314,21.359L51.456,21.56L51.632,21.473L51.517,21.245Z" id="path_33"/><path fill="#9e865eff" d="M50.449,22.677C50.418,22.677 50.418,22.707 50.391,22.707L50.361,22.65L50.273,22.707L50.418,22.993L50.506,22.936L50.449,22.848C50.418,22.818 50.418,22.791 50.479,22.761C50.509,22.731 50.536,22.731 50.567,22.791L50.597,22.878L50.685,22.822L50.655,22.764C50.621,22.677 50.533,22.647 50.449,22.677Z" id="path_34"/><path fill="#9e865eff" d="M52.496,23.164L51.516,23.593L51.429,23.335V23.305L52.351,22.848L52.263,22.62L51.314,23.076L51.199,22.875L52.148,22.419L52.034,22.191L51.084,22.647L50.966,22.389L50.736,22.503L51.199,23.419L51.429,23.905L52.611,23.362L52.496,23.164Z" id="path_35"/><path fill="#9e865eff" d="M52.811,24.965L51.915,25.308C51.885,25.338 51.885,25.338 51.858,25.338C51.827,25.308 51.8,25.308 51.8,25.25L51.686,24.935C51.655,24.878 51.655,24.848 51.716,24.821L52.321,24.593L52.233,24.365L51.655,24.566C51.452,24.653 51.368,24.794 51.452,25.026L51.54,25.311C51.628,25.539 51.77,25.626 52.003,25.539L52.899,25.224L52.811,24.965Z" id="path_36"/><path fill="#9e865eff" d="M53.129,24.707L53.044,24.479L52.811,24.566L52.899,24.794L53.129,24.707Z" id="path_37"/><path fill="#9e865eff" d="M53.936,29.86L53.906,29.632L53.243,29.719L53.186,29.434L53.676,29.347L53.646,29.119L53.155,29.206L53.098,28.921L53.443,28.864L53.412,28.635L53.068,28.692L52.98,28.062H52.949L52.777,27.317L53.787,27.059L53.73,26.831L52.72,27.089L52.662,26.804V26.774L53.297,26.572L53.209,26.287C53.152,26.059 52.98,25.972 52.747,26.002L52.459,26.089L52.371,25.804L53.352,25.489L53.264,25.26L52.023,25.66L52.111,25.888L52.199,26.146L52.027,26.203L52.115,26.488C52.172,26.633 52.23,26.716 52.402,26.774L52.432,26.804L52.578,27.347L52.75,28.149H52.78L53.068,29.981L53.936,29.86ZM52.378,26.455L52.348,26.398L52.811,26.284C52.899,26.253 52.956,26.284 52.983,26.371L53.014,26.428L52.551,26.542C52.466,26.569 52.409,26.539 52.378,26.455Z" id="path_38"/><path fill="#9e865eff" d="M53.909,31.122H53.821L53.852,31.437H53.94V31.323C53.94,31.266 53.97,31.266 53.997,31.266C54.055,31.266 54.055,31.296 54.055,31.323V31.41H54.142V31.353C54.142,31.266 54.055,31.182 53.97,31.182C53.94,31.182 53.94,31.182 53.912,31.212V31.122H53.909Z" id="path_39"/><path fill="#9e865eff" d="M53.419,32.152L54.487,32.094L54.456,31.866L53.389,31.923L53.331,30.95C53.331,30.863 53.361,30.779 53.446,30.779L53.879,30.749L53.848,30.521L53.416,30.551C53.186,30.581 53.041,30.722 53.071,30.924L53.128,32.155H53.098V32.729L53.068,33.014L52.895,32.984L52.865,33.269C52.865,33.44 52.922,33.554 53.037,33.611V33.641L52.98,34.47L52.922,35.013L54.189,35.157L54.22,34.929L53.152,34.815L53.182,34.53V34.5V34.47L53.24,33.668V33.638L53.902,33.668L53.933,33.353C53.963,33.124 53.787,32.98 53.588,32.953L53.27,32.923L53.301,32.638L54.368,32.668V32.44L53.301,32.41V32.152H53.419ZM53.676,33.238C53.764,33.238 53.821,33.296 53.821,33.383V33.44L53.331,33.41C53.243,33.41 53.186,33.353 53.186,33.265V33.208L53.676,33.238Z" id="path_40"/><path fill="#9e865eff" d="M52.929,35.386L54.227,35.557L54.254,35.328L52.987,35.127L52.929,35.386Z" id="path_41"/><path fill="#9e865eff" d="M52.696,35.902V35.872L52.466,35.815V35.845C52.409,36.046 52.497,36.275 52.784,36.332V36.362L52.612,37.164L52.294,38.395L52.639,38.482C52.841,38.539 53.014,38.425 53.102,38.197L53.189,37.825L53.247,37.855L53.564,38.657L53.652,38.284L53.423,37.684L53.021,37.569L52.848,38.17C52.818,38.257 52.76,38.284 52.676,38.257L52.588,38.227L52.875,37.197L53.048,36.425L53.683,36.54L53.74,36.312L52.845,36.14C52.727,36.073 52.669,36.016 52.696,35.902Z" id="path_42"/><path fill="#9e865eff" d="M53.852,36.275L53.821,36.529L54.051,36.56L54.082,36.332L53.852,36.275Z" id="path_43"/><path fill="#9e865eff" d="M52.206,38.677C52.118,38.646 52.091,38.563 52.118,38.449L52.148,38.418L51.918,38.361L51.888,38.391C51.831,38.593 51.858,38.821 52.118,38.908V38.938L51.888,39.653L51.57,40.455L51.482,40.683L51.31,40.596L51.195,40.881C51.107,41.082 51.165,41.28 51.398,41.367L52.06,41.653L52.175,41.367C52.263,41.166 52.206,40.968 52.003,40.881L51.716,40.767L51.831,40.539L51.861,40.508L52.148,39.794L52.179,39.737V39.707L52.439,38.962L53.074,39.163L53.162,38.935L52.206,38.677ZM51.831,41.082C51.918,41.112 51.945,41.169 51.918,41.253L51.888,41.31L51.456,41.109C51.368,41.079 51.341,41.022 51.368,40.938L51.398,40.881L51.831,41.082Z" id="path_44"/><path fill="#0c6d39ff" d="M12.3,41.169C12.213,41.112 12.013,41.082 11.868,41.025C11.811,40.995 11.753,40.995 11.723,40.995C11.692,40.995 11.692,41.025 11.692,41.052V41.082L11.662,41.052C11.631,40.995 11.631,40.995 11.604,40.908C11.574,40.82 11.517,40.736 11.517,40.706C11.486,40.676 11.486,40.676 11.517,40.676C11.517,40.676 11.547,40.676 11.547,40.706C11.577,40.736 11.577,40.736 11.577,40.763C11.635,40.82 11.665,40.851 11.78,40.877C11.868,40.908 12.098,40.992 12.125,40.992C12.182,40.904 12.354,40.562 12.412,40.418C12.469,40.304 12.469,40.247 12.469,40.216C12.469,40.186 12.469,40.16 12.439,40.16C12.439,40.129 12.409,40.129 12.439,40.129L12.469,40.16L12.527,40.273C12.615,40.445 12.615,40.502 12.584,40.616C12.527,40.73 12.412,40.958 12.297,41.102L12.412,41.045C12.5,40.988 12.642,40.958 12.699,40.931C12.73,40.901 12.757,40.874 12.757,40.844C12.757,40.814 12.726,40.787 12.726,40.787V40.757C12.726,40.757 12.757,40.757 12.757,40.787C12.787,40.874 12.844,41.015 12.872,41.015L12.959,41.216C12.99,41.246 12.99,41.246 12.959,41.246C12.929,41.246 12.929,41.246 12.929,41.216C12.899,41.186 12.872,41.186 12.841,41.186C12.784,41.216 12.696,41.243 12.554,41.3L12.324,41.387C12.121,41.475 12.094,41.501 12.037,41.501C12.006,41.532 11.979,41.558 11.979,41.589C11.979,41.619 12.01,41.619 12.01,41.646C12.04,41.676 12.04,41.676 12.01,41.676C12.01,41.676 11.979,41.676 11.979,41.646C11.949,41.589 11.892,41.444 11.892,41.444C11.892,41.414 11.804,41.273 11.777,41.243C11.746,41.213 11.777,41.213 11.777,41.213C11.807,41.213 11.807,41.213 11.807,41.243C11.807,41.273 11.837,41.273 11.837,41.273C11.868,41.33 11.895,41.304 11.952,41.304C12.01,41.304 12.01,41.273 12.24,41.189H12.297V41.169H12.3Z" id="path_45"/><path fill="#0c6d39ff" d="M11.898,40.424C11.695,40.512 11.638,40.512 11.611,40.539C11.58,40.569 11.554,40.596 11.554,40.626C11.554,40.656 11.554,40.656 11.584,40.683V40.713C11.584,40.713 11.554,40.713 11.554,40.683C11.523,40.626 11.466,40.481 11.466,40.481C11.466,40.451 11.378,40.31 11.378,40.253C11.347,40.223 11.378,40.223 11.378,40.223L11.408,40.253C11.408,40.284 11.439,40.284 11.439,40.284C11.469,40.314 11.496,40.314 11.526,40.314C11.584,40.284 11.614,40.284 11.814,40.2L12.043,40.112C12.158,40.055 12.273,40.025 12.331,39.998C12.361,39.968 12.388,39.968 12.388,39.911C12.388,39.881 12.358,39.854 12.358,39.854V39.797C12.388,39.797 12.388,39.797 12.388,39.827C12.419,39.915 12.476,40.055 12.476,40.055C12.476,40.055 12.533,40.2 12.564,40.257C12.564,40.287 12.594,40.287 12.564,40.287C12.533,40.287 12.533,40.287 12.533,40.257C12.533,40.227 12.503,40.227 12.503,40.2C12.473,40.169 12.446,40.169 12.415,40.169C12.358,40.2 12.243,40.227 12.128,40.284L11.898,40.424Z" id="path_46"/><path fill="#0c6d39ff" d="M11.321,40.022C11.263,40.052 11.263,40.052 11.233,40.022C11.233,39.992 11.233,39.992 11.263,39.965C11.294,39.878 11.321,39.794 11.493,39.391C11.581,39.19 11.608,39.076 11.665,39.019L11.145,39.22C11.057,39.25 11.03,39.277 11.057,39.334C11.057,39.364 11.087,39.391 11.087,39.391C11.118,39.422 11.087,39.422 11.087,39.422L11.057,39.391C11.027,39.334 11,39.247 11,39.19C10.969,39.16 10.942,39.103 10.942,39.019C10.912,38.989 10.942,38.989 10.942,38.989C10.942,38.989 10.973,38.989 10.973,39.019C10.973,39.049 11.003,39.049 11.003,39.049C11.033,39.106 11.061,39.106 11.118,39.079C11.405,38.992 11.665,38.878 11.953,38.794C12.01,38.764 12.04,38.764 12.04,38.794C12.04,38.824 12.01,38.881 11.983,38.995C11.926,39.11 11.868,39.281 11.811,39.368C11.753,39.455 11.696,39.653 11.638,39.797L12.101,39.626C12.189,39.596 12.216,39.569 12.216,39.539C12.216,39.509 12.216,39.482 12.186,39.452V39.422C12.216,39.422 12.216,39.422 12.216,39.452C12.247,39.509 12.247,39.539 12.274,39.623C12.304,39.653 12.331,39.737 12.331,39.824V39.854C12.301,39.854 12.301,39.854 12.301,39.824L12.27,39.767C12.24,39.71 12.213,39.71 12.068,39.767C11.841,39.851 11.493,39.995 11.321,40.022Z" id="path_47"/><path fill="#0c6d39ff" d="M11.493,37.647C11.58,37.617 11.58,37.617 11.608,37.647C11.665,37.704 11.722,37.848 11.78,37.962C11.895,38.334 11.81,38.677 11.435,38.791C11.205,38.848 11.003,38.761 10.888,38.677C10.773,38.563 10.715,38.391 10.685,38.304C10.655,38.217 10.628,38.133 10.628,38.076C10.628,38.019 10.597,37.989 10.597,37.932L10.628,37.902C10.658,37.902 10.715,37.902 10.888,37.845H10.918L10.888,37.875C10.857,37.905 10.857,37.905 10.83,37.905C10.743,37.962 10.715,38.106 10.773,38.277C10.803,38.365 10.861,38.449 10.945,38.506C11.033,38.536 11.148,38.563 11.263,38.506C11.523,38.418 11.753,38.22 11.665,37.932C11.665,37.902 11.635,37.875 11.608,37.845C11.577,37.814 11.577,37.814 11.55,37.845L11.462,37.875C11.405,37.905 11.347,37.905 11.29,37.932C11.202,37.962 11.202,37.989 11.202,38.019C11.202,38.049 11.202,38.049 11.233,38.076L11.202,38.106C11.202,38.106 11.172,38.106 11.172,38.076C11.141,37.989 11.114,37.875 11.114,37.848C11.084,37.791 11.057,37.704 11.057,37.647V37.617L11.087,37.647L11.118,37.677C11.148,37.707 11.148,37.734 11.205,37.707C11.263,37.677 11.32,37.677 11.408,37.65L11.493,37.647Z" id="path_48"/><path fill="#0c6d39ff" d="M11.466,36.989C11.466,37.019 11.435,37.019 11.408,37.046C11.293,37.076 11.236,37.076 11.205,37.076C11.175,37.076 11.175,37.076 11.175,37.046L11.205,37.016C11.236,37.016 11.236,36.986 11.263,36.986C11.378,36.929 11.435,36.815 11.378,36.701C11.347,36.586 11.263,36.529 11.205,36.556C11.148,36.583 11.09,36.586 11.033,36.727L10.976,36.815C10.888,37.016 10.803,37.1 10.658,37.13C10.486,37.16 10.34,37.073 10.283,36.845C10.252,36.788 10.252,36.731 10.252,36.674V36.644C10.252,36.613 10.252,36.613 10.283,36.613C10.34,36.613 10.371,36.583 10.486,36.583C10.516,36.583 10.516,36.583 10.543,36.613C10.543,36.644 10.543,36.644 10.513,36.644C10.482,36.644 10.455,36.674 10.425,36.701C10.394,36.731 10.367,36.815 10.367,36.902C10.398,37.016 10.455,37.046 10.54,37.016C10.597,36.986 10.627,36.959 10.685,36.845L10.715,36.758C10.803,36.529 10.888,36.442 11.033,36.415C11.121,36.385 11.236,36.415 11.32,36.503C11.378,36.56 11.408,36.674 11.435,36.731C11.466,36.818 11.466,36.902 11.466,36.989Z" id="path_49"/><path fill="#0c6d39ff" d="M10.803,35.845L10.516,36.016V36.047L10.834,36.104L10.803,35.845ZM10.976,36.13L11.121,36.16C11.151,36.16 11.209,36.191 11.209,36.16C11.239,36.16 11.239,36.13 11.239,36.104V36.047C11.239,36.016 11.239,36.016 11.27,36.016C11.3,36.016 11.3,36.047 11.3,36.047C11.33,36.104 11.33,36.16 11.33,36.248C11.33,36.278 11.361,36.362 11.361,36.419C11.361,36.449 11.361,36.449 11.33,36.449C11.3,36.449 11.3,36.419 11.3,36.419C11.3,36.389 11.3,36.389 11.27,36.362C11.239,36.305 11.212,36.305 11.124,36.275L10.171,36.047C10.114,36.016 10.083,36.016 10.083,35.989C10.083,35.959 10.114,35.959 10.141,35.932C10.229,35.875 10.719,35.56 10.918,35.389C11.006,35.332 11.033,35.275 11.033,35.218C11.033,35.188 11.033,35.188 11.064,35.188C11.064,35.188 11.094,35.188 11.094,35.218C11.124,35.362 11.151,35.533 11.151,35.617V35.647L11.121,35.617C11.121,35.587 11.09,35.587 11.09,35.587L10.888,35.701V35.731L10.976,36.13Z" id="path_50"/><path fill="#0c6d39ff" d="M10.685,35.043C10.83,35.013 10.945,35.013 10.972,34.986C11.003,34.956 11.003,34.929 11.003,34.815C10.972,34.728 10.972,34.701 10.945,34.644C10.915,34.614 10.888,34.587 10.83,34.587C10.8,34.587 10.8,34.587 10.8,34.557C10.8,34.527 10.8,34.527 10.83,34.527H11.033C11.064,34.527 11.091,34.557 11.091,34.614C11.121,34.815 11.121,34.956 11.148,35.1C11.179,35.157 11.179,35.245 11.179,35.328C11.179,35.359 11.179,35.359 11.148,35.359C11.118,35.359 11.118,35.328 11.118,35.328C11.118,35.298 11.118,35.298 11.087,35.271C11.057,35.215 11.03,35.215 10.915,35.241C10.858,35.241 10.77,35.271 10.685,35.271L10.425,35.302C10.195,35.332 10.165,35.332 10.107,35.359C10.05,35.359 10.05,35.389 10.05,35.416V35.473L10.019,35.503C9.989,35.503 9.989,35.473 9.989,35.446C9.959,35.359 9.959,35.275 9.959,35.245C9.959,35.215 9.928,35.043 9.928,35.016C9.928,34.986 9.928,34.986 9.959,34.986C9.989,34.986 9.989,35.016 9.989,35.016C9.989,35.047 9.989,35.047 10.019,35.074C10.05,35.104 10.077,35.131 10.107,35.104C10.165,35.104 10.195,35.104 10.425,35.074L10.685,35.043Z" id="path_51"/><path fill="#0c6d39ff" d="M10.746,33.238C10.834,33.208 10.861,33.208 10.891,33.151V33.064C10.891,33.034 10.891,33.034 10.922,33.034C10.952,33.034 10.952,33.064 10.952,33.064C10.983,33.178 10.983,33.292 10.983,33.463C10.983,33.493 10.983,33.493 10.952,33.493H10.922C10.891,33.463 10.891,33.463 10.834,33.463L10.313,33.55L10.891,33.809C10.979,33.839 10.979,33.866 10.979,33.866C10.979,33.896 10.949,33.896 10.922,33.953C10.834,34.01 10.692,34.124 10.604,34.181C10.574,34.211 10.432,34.268 10.401,34.295L10.834,34.325H10.949C11.006,34.325 11.006,34.295 11.006,34.268V34.211C11.006,34.181 11.006,34.181 11.037,34.181C11.067,34.181 11.067,34.181 11.067,34.211C11.067,34.268 11.067,34.356 11.097,34.413C11.097,34.47 11.128,34.527 11.128,34.584L11.097,34.614L11.067,34.584V34.527C11.037,34.496 11.009,34.47 10.922,34.47L10.026,34.413C9.969,34.413 9.969,34.382 9.969,34.382C9.969,34.352 9.999,34.352 10.026,34.325L10.689,33.866L9.938,33.524C9.881,33.493 9.881,33.493 9.881,33.467C9.881,33.436 9.911,33.436 9.938,33.436L10.746,33.238Z" id="path_52"/><path fill="#0c6d39ff" d="M10.486,32.638L10.168,32.752V32.782L10.486,32.896V32.638ZM10.601,32.896L10.716,32.953C10.746,32.984 10.804,32.984 10.804,32.984C10.834,32.984 10.861,32.953 10.861,32.926V32.869C10.861,32.839 10.861,32.839 10.891,32.839C10.922,32.839 10.922,32.869 10.922,32.869V33.071V33.242C10.922,33.272 10.922,33.272 10.891,33.272C10.861,33.272 10.861,33.242 10.861,33.242V33.212C10.83,33.155 10.804,33.124 10.746,33.097L9.851,32.725C9.793,32.695 9.763,32.668 9.763,32.668C9.763,32.638 9.793,32.638 9.851,32.611C9.938,32.581 10.486,32.296 10.716,32.212C10.83,32.155 10.861,32.125 10.861,32.068V32.011C10.861,31.98 10.861,31.98 10.891,31.98L10.922,32.011V32.41C10.922,32.44 10.922,32.44 10.891,32.44L10.861,32.41C10.861,32.38 10.83,32.38 10.83,32.38L10.601,32.467L10.57,32.497L10.601,32.896Z" id="path_53"/><path fill="#0c6d39ff" d="M9.824,32.037C9.766,32.037 9.766,32.007 9.766,32.007C9.766,31.977 9.766,31.977 9.797,31.95C9.854,31.893 9.911,31.836 10.229,31.491C10.374,31.346 10.459,31.262 10.516,31.205H9.969C9.881,31.205 9.854,31.205 9.854,31.262V31.319C9.854,31.35 9.854,31.35 9.824,31.35C9.793,31.35 9.793,31.319 9.793,31.319C9.793,31.262 9.793,31.148 9.824,31.118V30.947C9.824,30.917 9.824,30.917 9.854,30.917C9.854,30.917 9.884,30.917 9.884,30.947V30.977C9.884,31.034 9.915,31.034 9.999,31.034C10.286,31.065 10.577,31.065 10.895,31.065C10.983,31.065 10.983,31.095 10.983,31.095C10.983,31.125 10.952,31.152 10.868,31.266C10.78,31.353 10.665,31.494 10.58,31.581C10.493,31.668 10.378,31.809 10.263,31.896H10.753C10.868,31.896 10.898,31.896 10.925,31.84C10.956,31.809 10.956,31.782 10.956,31.752C10.956,31.722 10.986,31.722 10.986,31.722C11.016,31.722 11.016,31.752 11.016,31.752C11.016,31.809 11.016,31.84 10.986,31.954V32.155C10.986,32.185 10.986,32.185 10.956,32.185C10.925,32.185 10.925,32.155 10.925,32.155V32.098C10.925,32.041 10.868,32.041 10.753,32.011C10.398,32.064 10.023,32.064 9.824,32.037Z" id="path_54"/><path fill="#0c6d39ff" d="M10.398,29.518L10.368,29.488C10.138,29.458 10.108,29.458 10.08,29.458C10.023,29.458 10.023,29.458 9.993,29.514C9.993,29.545 9.962,29.545 9.962,29.572C9.962,29.598 9.932,29.602 9.932,29.602C9.901,29.602 9.901,29.572 9.901,29.572C9.932,29.484 9.932,29.37 9.932,29.343C9.932,29.313 9.962,29.172 9.962,29.115C9.962,29.085 9.993,29.085 9.993,29.085L10.023,29.115V29.172C10.023,29.202 10.053,29.229 10.08,29.229C10.138,29.229 10.168,29.26 10.398,29.26L10.658,29.29C10.773,29.32 10.888,29.32 10.976,29.32C11.033,29.32 11.064,29.32 11.064,29.263C11.064,29.233 11.094,29.206 11.094,29.206C11.094,29.176 11.125,29.176 11.125,29.176L11.155,29.206C11.125,29.293 11.125,29.434 11.125,29.491C11.125,29.521 11.094,29.635 11.094,29.692C11.094,29.722 11.064,29.722 11.064,29.722C11.064,29.722 11.033,29.692 11.064,29.692V29.635C11.064,29.605 11.033,29.578 10.976,29.578C10.918,29.548 10.831,29.548 10.689,29.548L10.574,29.518H10.543L10.486,29.978V30.008L10.631,30.038C10.777,30.068 10.834,30.068 10.892,30.068C10.949,30.068 10.979,30.038 10.979,30.011C10.979,29.984 11.01,29.954 11.01,29.954C11.01,29.954 11.01,29.924 11.04,29.924L11.071,29.954C11.071,30.041 11.04,30.212 11.04,30.239C11.04,30.269 11.01,30.41 11.01,30.44C11.01,30.471 11.01,30.471 10.979,30.471C10.949,30.471 10.949,30.471 10.949,30.44V30.383C10.949,30.353 10.918,30.326 10.861,30.326C10.804,30.296 10.689,30.296 10.543,30.296L10.283,30.266C10.053,30.236 10.023,30.236 9.966,30.236C9.908,30.236 9.878,30.266 9.878,30.293V30.323C9.878,30.353 9.847,30.353 9.847,30.353C9.817,30.353 9.817,30.323 9.817,30.323C9.847,30.236 9.847,30.122 9.847,30.095C9.847,30.038 9.878,29.924 9.878,29.867C9.878,29.837 9.908,29.837 9.908,29.837C9.939,29.837 9.939,29.867 9.939,29.867V29.917C9.939,29.947 9.969,29.974 10.026,29.974C10.084,30.004 10.141,30.004 10.314,30.004H10.344H10.375L10.398,29.518Z" id="path_55"/><path fill="#0c6d39ff" d="M10.716,28.743C10.918,28.773 11.003,28.773 11.06,28.686C11.118,28.629 11.118,28.599 11.118,28.542C11.118,28.485 11.118,28.427 11.087,28.371C11.03,28.283 10.885,28.256 10.743,28.226L10.57,28.196C10.368,28.166 10.341,28.139 10.283,28.139C10.226,28.139 10.195,28.139 10.195,28.196C10.195,28.226 10.165,28.226 10.165,28.253C10.165,28.283 10.134,28.283 10.134,28.283C10.134,28.283 10.104,28.253 10.134,28.253C10.165,28.166 10.165,28.082 10.165,28.052C10.165,28.022 10.195,27.938 10.195,27.851C10.195,27.82 10.226,27.82 10.226,27.82L10.256,27.851V27.907C10.256,27.938 10.287,27.965 10.344,27.965C10.401,27.995 10.432,27.995 10.631,28.022L10.776,28.052C10.949,28.082 11.121,28.109 11.209,28.28C11.267,28.367 11.267,28.508 11.267,28.595C11.236,28.709 11.209,28.854 11.094,28.911C11.006,28.968 10.891,29.025 10.692,28.968L10.462,28.938C10.233,28.907 10.202,28.881 10.145,28.881C10.087,28.881 10.087,28.881 10.057,28.911L10.026,28.968C10.026,28.998 9.996,28.998 9.996,28.998C9.996,28.998 9.966,28.968 9.996,28.941C10.026,28.884 10.053,28.74 10.053,28.713C10.053,28.683 10.084,28.542 10.084,28.485C10.084,28.454 10.084,28.454 10.114,28.454C10.145,28.454 10.145,28.485 10.145,28.485V28.542C10.145,28.572 10.175,28.599 10.233,28.599C10.29,28.629 10.347,28.629 10.52,28.656L10.716,28.743Z" id="path_56"/><path fill="#0c6d39ff" d="M11.378,26.77C11.466,26.8 11.493,26.77 11.55,26.74C11.581,26.71 11.581,26.683 11.581,26.653C11.581,26.623 11.611,26.623 11.611,26.623C11.641,26.623 11.641,26.653 11.611,26.653C11.581,26.767 11.554,26.881 11.523,27.025C11.523,27.055 11.493,27.055 11.493,27.055L11.462,27.025C11.462,26.995 11.432,26.995 11.375,26.995L10.854,26.938L11.344,27.367C11.401,27.424 11.401,27.424 11.401,27.455C11.401,27.485 11.371,27.485 11.314,27.512C11.226,27.542 11.026,27.599 10.939,27.626C10.881,27.656 10.766,27.683 10.709,27.683L11.084,27.797C11.141,27.827 11.172,27.827 11.199,27.827C11.256,27.857 11.256,27.827 11.287,27.797C11.317,27.767 11.317,27.767 11.317,27.74C11.317,27.713 11.317,27.71 11.347,27.71C11.378,27.71 11.378,27.74 11.378,27.74C11.347,27.797 11.347,27.884 11.32,27.911C11.29,27.968 11.29,28.025 11.29,28.082L11.26,28.112C11.229,28.112 11.229,28.082 11.229,28.082V28.025C11.229,27.968 11.199,27.968 11.114,27.938L10.28,27.622C10.222,27.592 10.222,27.592 10.222,27.565C10.222,27.535 10.253,27.535 10.28,27.508L11.057,27.25L10.452,26.706C10.422,26.676 10.394,26.649 10.422,26.649C10.422,26.619 10.452,26.619 10.479,26.619L11.378,26.77Z" id="path_57"/><path fill="#0c6d39ff" d="M11.351,26.109L11.006,26.14V26.17L11.267,26.371H11.297L11.351,26.109ZM11.378,26.425L11.493,26.512C11.523,26.542 11.55,26.569 11.581,26.569C11.611,26.569 11.638,26.569 11.638,26.539L11.669,26.482C11.669,26.452 11.699,26.452 11.699,26.452C11.729,26.452 11.729,26.482 11.699,26.482C11.669,26.539 11.669,26.596 11.642,26.653C11.642,26.683 11.611,26.767 11.584,26.824C11.584,26.854 11.554,26.854 11.554,26.854C11.523,26.854 11.523,26.824 11.554,26.824V26.767C11.554,26.71 11.523,26.68 11.466,26.623L10.716,26.022C10.658,25.965 10.658,25.965 10.658,25.935C10.658,25.905 10.689,25.905 10.746,25.905C10.834,25.875 11.439,25.817 11.699,25.791C11.814,25.76 11.871,25.76 11.902,25.703L11.932,25.646C11.932,25.616 11.963,25.616 11.963,25.616C11.993,25.616 11.993,25.646 11.963,25.673C11.932,25.817 11.875,25.958 11.848,26.046C11.848,26.076 11.817,26.076 11.817,26.076L11.787,26.046C11.787,26.015 11.787,26.015 11.757,26.015L11.527,26.046L11.496,26.076L11.378,26.425Z" id="path_58"/><path fill="#0c6d39ff" d="M10.888,25.368C10.831,25.338 10.831,25.338 10.831,25.311C10.831,25.284 10.861,25.281 10.888,25.254C10.946,25.197 11.06,25.167 11.466,24.938C11.638,24.851 11.783,24.767 11.811,24.737L11.29,24.566C11.202,24.536 11.175,24.536 11.145,24.596C11.114,24.626 11.114,24.626 11.114,24.653C11.114,24.684 11.084,24.684 11.084,24.684V24.653C11.114,24.596 11.142,24.509 11.172,24.452C11.202,24.422 11.202,24.365 11.229,24.281C11.229,24.251 11.26,24.251 11.26,24.251C11.26,24.251 11.29,24.281 11.26,24.281C11.26,24.311 11.229,24.311 11.229,24.311C11.199,24.368 11.26,24.368 11.317,24.398C11.604,24.512 11.865,24.6 12.152,24.714C12.209,24.744 12.24,24.744 12.24,24.771C12.24,24.801 12.182,24.828 12.067,24.885C11.953,24.942 11.807,25.029 11.692,25.086C11.604,25.143 11.405,25.23 11.29,25.287L11.78,25.432C11.868,25.462 11.925,25.462 11.953,25.432C11.983,25.402 11.983,25.375 11.983,25.375L12.013,25.344C12.044,25.344 12.044,25.375 12.013,25.375C11.983,25.432 11.983,25.462 11.956,25.546C11.925,25.576 11.898,25.66 11.898,25.747C11.898,25.777 11.868,25.777 11.868,25.777C11.838,25.777 11.838,25.747 11.868,25.747C11.868,25.717 11.898,25.717 11.898,25.69C11.898,25.633 11.868,25.603 11.753,25.576C11.408,25.566 11.06,25.452 10.888,25.368Z" id="path_59"/><path fill="#0c6d39ff" d="M11.669,24.308C11.466,24.221 11.439,24.221 11.381,24.194C11.351,24.163 11.324,24.194 11.294,24.224C11.263,24.254 11.263,24.254 11.263,24.254C11.263,24.284 11.233,24.284 11.233,24.284C11.233,24.284 11.202,24.254 11.233,24.254C11.263,24.197 11.321,24.083 11.321,24.053C11.321,24.023 11.378,23.882 11.408,23.825C11.439,23.794 11.439,23.794 11.439,23.794V23.825C11.439,23.855 11.439,23.855 11.408,23.882C11.408,23.912 11.408,23.939 11.466,23.969C11.496,23.999 11.554,23.999 11.753,24.083L11.983,24.17C12.098,24.227 12.213,24.257 12.27,24.284C12.301,24.314 12.328,24.314 12.358,24.254C12.389,24.224 12.389,24.197 12.389,24.197C12.419,24.167 12.419,24.167 12.419,24.167C12.419,24.167 12.449,24.197 12.419,24.197C12.389,24.284 12.331,24.425 12.331,24.425C12.331,24.425 12.274,24.569 12.243,24.626C12.243,24.657 12.213,24.657 12.213,24.657C12.182,24.657 12.182,24.626 12.213,24.626C12.213,24.596 12.213,24.596 12.243,24.569C12.243,24.539 12.213,24.512 12.186,24.512C12.128,24.482 12.04,24.455 11.899,24.398L11.669,24.308Z" id="path_60"/><path fill="#0c6d39ff" d="M12.3,23.476C12.388,23.533 12.53,23.563 12.588,23.59C12.618,23.62 12.645,23.62 12.675,23.56C12.706,23.529 12.706,23.529 12.706,23.503C12.736,23.472 12.736,23.472 12.736,23.472V23.503C12.679,23.59 12.648,23.731 12.621,23.731C12.591,23.761 12.564,23.902 12.533,23.932C12.503,23.962 12.503,23.962 12.503,23.962C12.503,23.962 12.473,23.932 12.503,23.932C12.503,23.902 12.533,23.902 12.533,23.875C12.533,23.845 12.503,23.818 12.476,23.788C12.419,23.758 12.331,23.701 12.189,23.674L11.641,23.446C11.611,23.503 11.584,23.56 11.554,23.647C11.523,23.734 11.523,23.761 11.584,23.791L11.614,23.821L11.645,23.851C11.645,23.882 11.614,23.851 11.614,23.851C11.557,23.821 11.5,23.764 11.442,23.737C11.412,23.707 11.412,23.707 11.412,23.707C11.412,23.677 11.442,23.677 11.442,23.677C11.472,23.647 11.5,23.59 11.53,23.533L11.79,22.959C11.821,22.902 11.821,22.902 11.821,22.872C11.821,22.842 11.821,22.842 11.851,22.815C11.851,22.785 11.881,22.785 11.908,22.815C11.935,22.845 12.054,22.872 12.081,22.902C12.108,22.932 12.111,22.932 12.111,22.932C12.111,22.962 12.081,22.962 12.081,22.932L12.05,22.902C11.993,22.872 11.962,22.902 11.935,22.959C11.905,23.016 11.878,23.073 11.847,23.16L12.3,23.476Z" id="path_61"/><path fill="#0c6d39ff" d="M12.649,22.761L12.304,22.731V22.761L12.534,22.989H12.564L12.649,22.761ZM12.618,23.076L12.706,23.191C12.736,23.221 12.764,23.248 12.794,23.248C12.824,23.278 12.851,23.248 12.851,23.217L12.882,23.16C12.912,23.13 12.912,23.13 12.912,23.13V23.16C12.882,23.217 12.855,23.248 12.824,23.331C12.794,23.362 12.767,23.419 12.736,23.503C12.706,23.533 12.706,23.533 12.706,23.533V23.503C12.706,23.472 12.736,23.472 12.736,23.446C12.767,23.389 12.706,23.358 12.679,23.274L12.044,22.56C11.986,22.503 11.986,22.473 11.986,22.473C11.986,22.442 12.017,22.442 12.074,22.442C12.162,22.442 12.767,22.473 13.027,22.473C13.142,22.473 13.2,22.442 13.23,22.416L13.26,22.385C13.26,22.355 13.291,22.355 13.291,22.355C13.321,22.355 13.321,22.385 13.291,22.412C13.233,22.526 13.145,22.697 13.118,22.754C13.088,22.785 13.088,22.785 13.088,22.785V22.754L13.057,22.724L12.797,22.694H12.767L12.618,23.076Z" id="path_62"/><path fill="#0c6d39ff" d="M12.878,21.933H12.909C12.939,21.902 12.966,21.875 12.966,21.845C12.997,21.815 12.997,21.788 12.997,21.758C12.997,21.728 12.939,21.671 12.882,21.614C12.71,21.527 12.595,21.584 12.564,21.671C12.534,21.701 12.534,21.728 12.534,21.728L12.564,21.758L12.878,21.933ZM12.676,22.13C12.473,22.016 12.446,22.016 12.388,21.986C12.331,21.956 12.301,21.956 12.301,21.986C12.27,22.016 12.27,22.016 12.27,22.043L12.24,22.073V22.043C12.27,21.986 12.328,21.872 12.355,21.842C12.385,21.812 12.443,21.698 12.469,21.641C12.527,21.527 12.584,21.439 12.642,21.413C12.699,21.355 12.814,21.355 12.902,21.382C13.017,21.439 13.074,21.553 13.074,21.698C13.247,21.667 13.419,21.667 13.537,21.641C13.652,21.61 13.683,21.584 13.71,21.553L13.74,21.523L13.771,21.493V21.53L13.713,21.644C13.656,21.758 13.598,21.815 13.541,21.845C13.483,21.875 13.426,21.902 13.311,21.902C13.196,21.902 13.108,21.902 13.081,21.933L13.051,21.963L12.993,22.05V22.08L13.051,22.11C13.139,22.167 13.223,22.198 13.281,22.224C13.311,22.254 13.338,22.254 13.368,22.194C13.399,22.164 13.399,22.164 13.399,22.137C13.429,22.107 13.429,22.107 13.429,22.107V22.137C13.372,22.224 13.314,22.365 13.314,22.365C13.284,22.395 13.257,22.51 13.226,22.536C13.196,22.566 13.196,22.566 13.196,22.566V22.536L13.226,22.479C13.226,22.449 13.196,22.422 13.169,22.392C13.112,22.362 13.024,22.305 12.909,22.248L12.676,22.13Z" id="path_63"/><path fill="#0c6d39ff" d="M13.196,21.215C12.993,21.1 12.966,21.1 12.909,21.043C12.878,21.013 12.851,21.013 12.821,21.043L12.791,21.074L12.76,21.104V21.074C12.791,21.017 12.875,20.903 12.875,20.903C12.875,20.872 12.963,20.731 12.99,20.701C13.017,20.671 13.021,20.671 13.021,20.671V20.701C12.99,20.731 12.99,20.731 12.99,20.731C12.96,20.762 12.99,20.788 13.021,20.819C13.051,20.849 13.078,20.876 13.281,20.99L13.51,21.104C13.598,21.161 13.74,21.218 13.798,21.248C13.828,21.278 13.855,21.278 13.885,21.218C13.916,21.188 13.916,21.188 13.916,21.161C13.946,21.131 13.946,21.131 13.946,21.131C13.946,21.131 13.977,21.161 13.946,21.161C13.889,21.248 13.832,21.389 13.801,21.389C13.801,21.389 13.713,21.533 13.713,21.56C13.683,21.59 13.683,21.59 13.683,21.59V21.56C13.683,21.53 13.713,21.53 13.713,21.503C13.744,21.473 13.683,21.446 13.656,21.416C13.598,21.386 13.51,21.329 13.396,21.245L13.196,21.215Z" id="path_64"/><path fill="#0c6d39ff" d="M13.916,20.53L13.571,20.473V20.503L13.774,20.789H13.804L13.916,20.53ZM13.858,20.846L13.946,20.96C13.977,20.99 14.004,21.017 14.004,21.017C14.034,21.047 14.061,21.047 14.061,20.986L14.092,20.93C14.122,20.899 14.122,20.899 14.122,20.899V20.93C14.092,20.986 14.065,21.017 14.007,21.101C14.007,21.131 13.95,21.188 13.919,21.272C13.889,21.302 13.889,21.302 13.889,21.302C13.858,21.302 13.889,21.272 13.889,21.272L13.919,21.215C13.95,21.158 13.919,21.127 13.862,21.044L13.314,20.242C13.284,20.185 13.257,20.154 13.284,20.154C13.284,20.124 13.314,20.124 13.372,20.154C13.46,20.185 14.065,20.268 14.325,20.299C14.44,20.329 14.497,20.329 14.528,20.269L14.558,20.238C14.589,20.208 14.588,20.208 14.588,20.208C14.619,20.208 14.589,20.238 14.558,20.238C14.47,20.352 14.386,20.497 14.328,20.581C14.298,20.611 14.298,20.611 14.298,20.611V20.581L14.267,20.55L14.038,20.493H14.007L13.858,20.846Z" id="path_65"/><path fill="#0c6d39ff" d="M13.686,19.671C13.656,19.641 13.628,19.614 13.628,19.614C13.628,19.584 13.659,19.584 13.686,19.584C13.774,19.554 13.858,19.554 14.321,19.47C14.524,19.413 14.666,19.413 14.696,19.383L14.233,19.067C14.176,19.01 14.145,19.01 14.088,19.037L14.031,19.094C14,19.125 14,19.125 14,19.125V19.094C14.031,19.037 14.088,18.98 14.115,18.923C14.145,18.893 14.172,18.836 14.203,18.779C14.233,18.749 14.233,18.749 14.233,18.749V18.779L14.203,18.809C14.172,18.866 14.172,18.866 14.26,18.923C14.49,19.094 14.723,19.265 14.98,19.44C15.038,19.497 15.038,19.497 15.038,19.527C15.007,19.557 14.98,19.557 14.835,19.584C14.72,19.614 14.548,19.641 14.402,19.671C14.287,19.702 14.085,19.728 13.939,19.759L14.372,20.044C14.46,20.101 14.487,20.131 14.544,20.101C14.575,20.071 14.575,20.071 14.602,20.044C14.632,20.014 14.632,20.014 14.632,20.014C14.632,20.014 14.632,20.044 14.602,20.044C14.571,20.101 14.544,20.131 14.487,20.188C14.456,20.218 14.399,20.302 14.372,20.359L14.341,20.389V20.359L14.372,20.302C14.402,20.245 14.372,20.215 14.257,20.131C14.118,19.987 13.831,19.812 13.686,19.671Z" id="path_66"/><path fill="#0c6d39ff" d="M15.531,18.326L15.214,18.212V18.242L15.386,18.527H15.416L15.531,18.326ZM15.443,18.611L15.501,18.725C15.531,18.755 15.558,18.782 15.558,18.812C15.589,18.843 15.616,18.843 15.616,18.812L15.646,18.782C15.676,18.752 15.676,18.752 15.676,18.752L15.646,18.782C15.589,18.839 15.558,18.869 15.531,18.927C15.501,18.957 15.474,19.014 15.416,19.071C15.386,19.101 15.386,19.101 15.386,19.101V19.071L15.416,19.041C15.447,18.983 15.416,18.953 15.386,18.869L14.953,18.011C14.923,17.954 14.923,17.923 14.923,17.923C14.953,17.893 14.953,17.893 15.011,17.923C15.099,17.954 15.703,18.125 15.906,18.182C16.021,18.212 16.079,18.212 16.109,18.182L16.139,18.152L16.17,18.121C16.17,18.121 16.17,18.152 16.139,18.152C16.052,18.266 15.937,18.38 15.879,18.467C15.849,18.497 15.849,18.497 15.849,18.497V18.467L15.818,18.437L15.589,18.35H15.558L15.443,18.611Z" id="path_67"/><path fill="#0c6d39ff" d="M15.734,17.695C15.561,17.551 15.531,17.524 15.504,17.494C15.474,17.464 15.447,17.464 15.416,17.464L15.386,17.494L15.355,17.524C15.325,17.524 15.355,17.494 15.386,17.494C15.416,17.437 15.531,17.35 15.531,17.323C15.531,17.293 15.646,17.179 15.703,17.152C15.734,17.122 15.734,17.122 15.734,17.122V17.152L15.703,17.182C15.673,17.212 15.673,17.239 15.734,17.269C15.764,17.299 15.791,17.326 15.964,17.471L16.166,17.642C16.254,17.729 16.369,17.813 16.396,17.843C16.427,17.873 16.454,17.873 16.484,17.843L16.542,17.786C16.572,17.756 16.572,17.756 16.572,17.756C16.572,17.756 16.572,17.786 16.542,17.786C16.484,17.873 16.369,17.987 16.369,17.987C16.369,17.987 16.281,18.101 16.254,18.158C16.224,18.188 16.224,18.188 16.224,18.188V18.158L16.254,18.128C16.285,18.098 16.254,18.071 16.224,18.041C16.166,17.984 16.109,17.927 15.994,17.84L15.734,17.695Z" id="path_68"/><path fill="#0c6d39ff" d="M16.423,17.209C16.538,17.323 16.595,17.38 16.626,17.41C16.683,17.44 16.683,17.467 16.714,17.467C16.771,17.467 16.802,17.437 16.859,17.41C16.916,17.353 16.974,17.266 16.974,17.152C16.974,17.038 16.886,16.951 16.802,16.836C16.714,16.749 16.599,16.692 16.484,16.665C16.312,16.635 16.197,16.722 16.139,16.779C16.109,16.81 16.082,16.836 16.082,16.836L16.112,16.867L16.315,17.068L16.423,17.209ZM16.136,17.266C15.964,17.122 15.964,17.095 15.933,17.065C15.903,17.034 15.876,17.007 15.818,17.034C15.788,17.034 15.788,17.065 15.788,17.065C15.757,17.095 15.757,17.095 15.757,17.065C15.757,17.065 15.757,17.034 15.788,17.034C15.818,17.004 15.903,16.92 15.96,16.863C15.991,16.833 16.048,16.776 16.132,16.692C16.305,16.521 16.477,16.407 16.68,16.407C16.768,16.407 16.91,16.437 17.024,16.578C17.139,16.692 17.197,16.863 17.197,16.951C17.197,17.038 17.167,17.236 16.967,17.437L16.852,17.551C16.795,17.581 16.764,17.638 16.737,17.638C16.707,17.668 16.68,17.695 16.649,17.725C16.619,17.756 16.592,17.782 16.592,17.813C16.562,17.843 16.562,17.843 16.562,17.843L16.592,17.813L16.622,17.782C16.653,17.752 16.622,17.725 16.592,17.695C16.535,17.638 16.477,17.581 16.389,17.494L16.136,17.266Z" id="path_69"/><path fill="#0c6d39ff" d="M18.184,16.065C17.981,16.065 17.839,16.035 17.637,16.008C17.637,16.038 17.667,16.095 17.694,16.152C17.809,16.266 17.981,16.296 18.069,16.209C18.154,16.122 18.154,16.092 18.184,16.065ZM17.579,16.377C17.491,16.263 17.491,16.092 17.549,15.978C17.461,15.948 17.376,15.89 17.346,15.864C17.258,15.776 17.258,15.578 17.461,15.404C17.518,15.347 17.576,15.317 17.633,15.29C17.664,15.29 17.664,15.29 17.691,15.32C17.721,15.35 17.778,15.434 17.806,15.491C17.836,15.521 17.836,15.521 17.806,15.521C17.806,15.521 17.775,15.521 17.775,15.491C17.745,15.461 17.718,15.434 17.66,15.434C17.603,15.434 17.572,15.434 17.488,15.491C17.43,15.521 17.4,15.578 17.488,15.693C17.576,15.78 17.691,15.78 17.89,15.807C17.948,15.837 18.208,15.837 18.235,15.837C18.204,15.75 18.204,15.693 18.147,15.635C18.116,15.605 18.089,15.605 18.059,15.605C18.029,15.605 18.029,15.635 18.001,15.635C17.975,15.635 17.971,15.666 17.971,15.635L18.001,15.605C18.059,15.575 18.116,15.518 18.174,15.491C18.204,15.461 18.231,15.461 18.231,15.491C18.289,15.548 18.346,15.719 18.319,15.864C18.407,15.864 18.522,15.864 18.549,15.833C18.606,15.833 18.637,15.803 18.694,15.776C18.725,15.746 18.725,15.746 18.725,15.776C18.725,15.807 18.725,15.807 18.694,15.807L18.492,15.978C18.404,16.065 18.319,16.092 18.231,16.092C18.201,16.179 18.174,16.293 18.059,16.377C17.866,16.578 17.637,16.464 17.579,16.377Z" id="path_70"/><path fill="#0c6d39ff" d="M18.846,14.948C18.904,14.978 18.934,14.917 18.961,14.917C18.992,14.887 19.018,14.86 19.018,14.83C19.049,14.8 19.018,14.743 18.961,14.659C18.846,14.488 18.701,14.545 18.643,14.572C18.613,14.602 18.613,14.602 18.586,14.602V14.632L18.846,14.948ZM18.586,15.031C18.471,14.86 18.414,14.83 18.383,14.803C18.353,14.746 18.326,14.746 18.295,14.773C18.265,14.803 18.238,14.803 18.238,14.803H18.208C18.208,14.803 18.208,14.773 18.238,14.773C18.295,14.743 18.41,14.659 18.41,14.659C18.441,14.629 18.525,14.545 18.583,14.515C18.698,14.428 18.785,14.401 18.87,14.371C18.958,14.34 19.042,14.401 19.1,14.458C19.188,14.545 19.188,14.659 19.13,14.8C19.275,14.857 19.448,14.914 19.593,14.914C19.708,14.944 19.765,14.944 19.796,14.914C19.826,14.914 19.826,14.884 19.826,14.884H19.857L19.826,14.914L19.738,15.001C19.623,15.089 19.566,15.115 19.508,15.115C19.451,15.115 19.394,15.085 19.279,15.058C19.164,15.001 19.106,14.971 19.049,14.971H19.018L18.931,15.028V15.058L18.988,15.115C19.046,15.203 19.103,15.26 19.16,15.317C19.191,15.347 19.218,15.374 19.248,15.347C19.279,15.347 19.279,15.317 19.306,15.317C19.336,15.286 19.336,15.286 19.336,15.317L19.306,15.347C19.218,15.404 19.103,15.491 19.103,15.518C19.073,15.548 18.988,15.605 18.931,15.632C18.9,15.662 18.9,15.662 18.9,15.632L18.931,15.602L18.961,15.572C18.992,15.542 18.992,15.515 18.931,15.484C18.9,15.427 18.843,15.37 18.758,15.256L18.586,15.031Z" id="path_71"/><path fill="#0c6d39ff" d="M19.451,14.404C19.336,14.203 19.279,14.176 19.279,14.146C19.248,14.116 19.221,14.089 19.191,14.116L19.133,14.146C19.103,14.176 19.103,14.176 19.103,14.146C19.103,14.146 19.103,14.116 19.133,14.116C19.191,14.059 19.248,14.028 19.306,14.002C19.336,13.971 19.623,13.774 19.65,13.774C19.681,13.743 19.708,13.743 19.708,13.717L19.738,13.686H19.769C19.769,13.686 19.799,13.717 19.799,13.743C19.83,13.774 19.857,13.8 19.887,13.857V13.888L19.857,13.857L19.826,13.827C19.796,13.797 19.769,13.797 19.711,13.827C19.654,13.857 19.566,13.914 19.508,13.941V13.971L19.681,14.23H19.711C19.742,14.2 19.826,14.142 19.884,14.116C19.941,14.059 19.941,14.059 19.941,14.028V13.998L19.972,14.028C20.002,14.059 20.002,14.085 20.029,14.142C20.059,14.173 20.086,14.23 20.086,14.23V14.26L20.056,14.23L20.026,14.2C19.995,14.169 19.968,14.169 19.911,14.2C19.88,14.23 19.796,14.287 19.738,14.314V14.344L19.796,14.431C19.826,14.488 19.884,14.545 19.911,14.602C19.968,14.689 19.999,14.689 20.14,14.602C20.171,14.572 20.228,14.545 20.228,14.515C20.259,14.485 20.259,14.428 20.228,14.401C20.228,14.371 20.198,14.371 20.228,14.371L20.259,14.401C20.289,14.458 20.347,14.545 20.347,14.572C20.377,14.602 20.347,14.629 20.316,14.659C20.144,14.773 20.056,14.83 19.941,14.917C19.884,14.948 19.853,15.005 19.769,15.032C19.738,15.062 19.738,15.062 19.738,15.062L19.769,15.032C19.799,15.001 19.799,15.001 19.799,15.001C19.83,14.971 19.799,14.914 19.742,14.83C19.711,14.773 19.654,14.716 19.627,14.629L19.451,14.404Z" id="path_72"/><path fill="#0c6d39ff" d="M20.492,14.002C20.579,14.116 20.607,14.203 20.664,14.23C20.694,14.26 20.721,14.23 20.836,14.173C20.894,14.116 20.951,14.116 20.951,14.059C20.982,14.028 20.982,13.972 20.951,13.914V13.884C20.951,13.884 20.982,13.884 20.982,13.914C21.012,13.945 21.069,14.059 21.069,14.116C21.1,14.146 21.069,14.173 21.012,14.203C20.84,14.317 20.725,14.374 20.579,14.461C20.522,14.491 20.465,14.549 20.377,14.575C20.346,14.606 20.346,14.606 20.346,14.575C20.346,14.575 20.346,14.545 20.377,14.545L20.407,14.515C20.465,14.485 20.438,14.458 20.377,14.344C20.346,14.287 20.289,14.23 20.262,14.143L20.147,13.941C20.032,13.74 20.002,13.713 19.975,13.683C19.944,13.653 19.917,13.626 19.887,13.653C19.856,13.653 19.856,13.683 19.829,13.683H19.799C19.799,13.653 19.799,13.653 19.829,13.653C19.887,13.596 19.975,13.566 20.032,13.539C20.062,13.509 20.204,13.425 20.235,13.425C20.265,13.394 20.265,13.394 20.265,13.425C20.265,13.455 20.265,13.455 20.235,13.455C20.204,13.485 20.204,13.485 20.204,13.485C20.174,13.515 20.174,13.542 20.204,13.572C20.235,13.629 20.235,13.629 20.377,13.857L20.492,14.002Z" id="path_73"/><path fill="#0c6d39ff" d="M20.837,13.488C20.722,13.287 20.722,13.26 20.664,13.203C20.634,13.173 20.607,13.146 20.576,13.173C20.546,13.173 20.546,13.203 20.546,13.203H20.516C20.516,13.203 20.516,13.173 20.546,13.173C20.604,13.143 20.718,13.086 20.749,13.086C20.779,13.086 20.921,12.998 20.951,12.972C20.982,12.941 20.982,12.941 20.982,12.972L20.951,13.002L20.921,13.032C20.891,13.062 20.891,13.089 20.921,13.119C20.951,13.176 20.951,13.207 21.094,13.404L21.208,13.632C21.266,13.72 21.323,13.834 21.381,13.891C21.411,13.921 21.438,13.948 21.469,13.921C21.499,13.921 21.526,13.891 21.526,13.891C21.556,13.861 21.556,13.861 21.556,13.891C21.556,13.891 21.556,13.921 21.526,13.921C21.438,13.978 21.296,14.035 21.296,14.035C21.296,14.035 21.181,14.122 21.124,14.149C21.094,14.179 21.094,14.179 21.094,14.149L21.124,14.119L21.154,14.089C21.185,14.059 21.185,14.032 21.154,14.002C21.124,13.944 21.066,13.857 21.009,13.716L20.837,13.488Z" id="path_74"/><path fill="#0c6d39ff" d="M21.357,13.2C21.242,12.998 21.242,12.972 21.184,12.915C21.154,12.884 21.127,12.858 21.097,12.858L21.039,12.888H21.009C21.009,12.888 21.009,12.858 21.039,12.858C21.097,12.827 21.184,12.8 21.242,12.77C21.272,12.74 21.587,12.569 21.587,12.569C21.617,12.539 21.644,12.539 21.644,12.512L21.674,12.482L21.705,12.512C21.705,12.512 21.705,12.542 21.735,12.569C21.766,12.599 21.766,12.656 21.793,12.713V12.743L21.762,12.713C21.762,12.683 21.732,12.683 21.732,12.656C21.701,12.626 21.674,12.626 21.617,12.656C21.56,12.686 21.445,12.743 21.414,12.743V12.774L21.56,13.059L21.59,13.089C21.62,13.059 21.735,13.002 21.793,13.002C21.85,12.972 21.881,12.945 21.881,12.915V12.884L21.911,12.915C21.911,12.945 21.941,12.972 21.969,13.029C21.999,13.059 22.026,13.116 22.026,13.143V13.173L21.989,13.143L21.958,13.113C21.928,13.082 21.901,13.056 21.844,13.082C21.813,13.113 21.698,13.139 21.671,13.17V13.2L21.729,13.287C21.759,13.344 21.786,13.401 21.816,13.458C21.874,13.545 21.904,13.545 22.046,13.488C22.077,13.458 22.134,13.431 22.161,13.401C22.191,13.371 22.191,13.344 22.161,13.287V13.257L22.191,13.287C22.222,13.344 22.249,13.458 22.279,13.458C22.31,13.488 22.279,13.515 22.222,13.515C22.05,13.602 21.935,13.659 21.789,13.716C21.732,13.747 21.674,13.773 21.617,13.83C21.587,13.861 21.587,13.861 21.587,13.83C21.587,13.83 21.587,13.8 21.617,13.8C21.647,13.77 21.647,13.77 21.647,13.77C21.678,13.74 21.678,13.683 21.617,13.599C21.587,13.542 21.56,13.485 21.502,13.398L21.357,13.2Z" id="path_75"/><path fill="#0c6d39ff" d="M22.076,12.801C21.962,12.599 21.962,12.573 21.931,12.515C21.901,12.458 21.874,12.458 21.843,12.458L21.786,12.489H21.755C21.755,12.458 21.755,12.458 21.786,12.458C21.874,12.428 21.931,12.401 21.989,12.371L22.364,12.17C22.394,12.14 22.421,12.14 22.421,12.14L22.451,12.109L22.482,12.14C22.482,12.17 22.512,12.17 22.512,12.197C22.543,12.227 22.543,12.284 22.57,12.311V12.341L22.539,12.311C22.539,12.281 22.509,12.281 22.509,12.281C22.479,12.25 22.451,12.25 22.394,12.25C22.337,12.281 22.222,12.338 22.191,12.338V12.368L22.337,12.653L22.367,12.683C22.397,12.653 22.482,12.626 22.539,12.596C22.597,12.566 22.627,12.539 22.627,12.509C22.627,12.479 22.627,12.479 22.658,12.479L22.688,12.509C22.688,12.539 22.719,12.566 22.746,12.623C22.776,12.653 22.803,12.71 22.803,12.737V12.767L22.772,12.737L22.742,12.707C22.712,12.677 22.685,12.65 22.627,12.677C22.597,12.707 22.482,12.733 22.424,12.764V12.794L22.482,12.881C22.539,12.995 22.57,13.082 22.627,13.139C22.658,13.17 22.685,13.196 22.715,13.196C22.746,13.196 22.746,13.166 22.772,13.166C22.803,13.136 22.803,13.136 22.803,13.166C22.803,13.196 22.803,13.196 22.772,13.196C22.685,13.227 22.685,13.227 22.543,13.311C22.455,13.368 22.37,13.398 22.34,13.425C22.31,13.455 22.31,13.425 22.31,13.425C22.31,13.425 22.31,13.394 22.34,13.394L22.37,13.364C22.401,13.334 22.401,13.307 22.37,13.25C22.34,13.163 22.313,13.136 22.256,12.992L22.076,12.801Z" id="path_76"/><path fill="#0c6d39ff" d="M23.577,12.686C23.405,12.629 23.29,12.515 23.232,12.371C23.202,12.284 23.145,12.086 23.263,11.911C23.351,11.767 23.466,11.683 23.638,11.596C23.726,11.566 23.783,11.539 23.841,11.539C23.898,11.509 23.928,11.509 23.986,11.509C24.016,11.509 24.016,11.509 24.016,11.539C24.016,11.569 24.047,11.596 24.047,11.626C24.077,11.683 24.104,11.74 24.104,11.797C24.104,11.828 24.135,11.828 24.104,11.854C24.074,11.854 24.074,11.854 24.074,11.824C24.043,11.794 24.016,11.737 23.986,11.71C23.928,11.68 23.814,11.68 23.668,11.74C23.58,11.771 23.523,11.828 23.496,11.885C23.438,11.999 23.466,12.113 23.526,12.257C23.641,12.542 23.871,12.656 24.104,12.572C24.219,12.515 24.277,12.485 24.307,12.401C24.337,12.371 24.337,12.344 24.307,12.287V12.23L24.337,12.26C24.337,12.291 24.395,12.405 24.395,12.462C24.395,12.492 24.395,12.492 24.364,12.519C24.307,12.576 24.25,12.606 24.162,12.633C23.949,12.713 23.777,12.743 23.577,12.686Z" id="path_77"/><path fill="#0c6d39ff" d="M24.324,11.828C24.236,11.599 24.236,11.599 24.209,11.542C24.178,11.512 24.178,11.485 24.121,11.485L24.064,11.516H24.033C24.033,11.516 24.033,11.485 24.064,11.485C24.152,11.455 24.209,11.428 24.266,11.428C24.297,11.398 24.642,11.314 24.642,11.284C24.672,11.254 24.699,11.254 24.699,11.254L24.729,11.224L24.76,11.254C24.76,11.254 24.76,11.284 24.79,11.311C24.79,11.341 24.821,11.398 24.848,11.455V11.485L24.817,11.455C24.817,11.425 24.787,11.425 24.787,11.398C24.756,11.368 24.729,11.341 24.672,11.368C24.614,11.398 24.5,11.425 24.469,11.425V11.455L24.584,11.771L24.614,11.801C24.645,11.771 24.76,11.744 24.817,11.714C24.875,11.683 24.905,11.683 24.905,11.656C24.905,11.63 24.905,11.626 24.935,11.626L24.966,11.656C24.966,11.687 24.996,11.714 24.996,11.771C25.027,11.801 25.027,11.858 25.027,11.885V11.915L24.996,11.885L24.966,11.854C24.935,11.824 24.908,11.797 24.851,11.824C24.794,11.854 24.706,11.881 24.648,11.881V11.911L24.679,11.999C24.709,12.056 24.736,12.113 24.736,12.17C24.767,12.257 24.794,12.284 24.939,12.227C24.969,12.197 25.027,12.197 25.054,12.17C25.084,12.14 25.084,12.113 25.084,12.056V12.026C25.115,12.026 25.115,12.056 25.115,12.056C25.145,12.113 25.172,12.227 25.172,12.257C25.172,12.287 25.172,12.314 25.115,12.314C24.912,12.371 24.827,12.401 24.682,12.458C24.625,12.488 24.567,12.515 24.479,12.546C24.449,12.576 24.449,12.576 24.449,12.546C24.449,12.546 24.449,12.515 24.479,12.515C24.51,12.515 24.51,12.485 24.51,12.485C24.54,12.455 24.54,12.398 24.51,12.314C24.479,12.257 24.452,12.17 24.422,12.086L24.324,11.828Z" id="path_78"/><path fill="#0c6d39ff" d="M24.99,11.17C24.959,11.113 24.959,11.113 24.99,11.083C25.02,11.083 25.02,11.083 25.047,11.113C25.104,11.143 25.219,11.2 25.625,11.398C25.828,11.486 25.943,11.542 25.97,11.569L25.797,11.053C25.767,10.965 25.74,10.939 25.709,10.939C25.679,10.939 25.652,10.969 25.652,10.969H25.622C25.622,10.939 25.622,10.939 25.652,10.939C25.709,10.908 25.797,10.882 25.855,10.882C25.885,10.851 25.943,10.851 26.027,10.825H26.057C26.057,10.825 26.057,10.855 26.027,10.855C25.997,10.885 25.997,10.885 25.997,10.885C25.939,10.915 25.939,10.942 25.966,10.999C26.054,11.284 26.139,11.573 26.196,11.828C26.226,11.885 26.226,11.915 26.196,11.915C26.166,11.915 26.108,11.885 25.993,11.858C25.878,11.801 25.706,11.744 25.618,11.687C25.53,11.63 25.331,11.573 25.186,11.486L25.358,11.945C25.388,12.032 25.415,12.059 25.446,12.089C25.476,12.089 25.503,12.059 25.534,12.059H25.564C25.564,12.089 25.564,12.089 25.534,12.089C25.476,12.12 25.446,12.12 25.361,12.146C25.331,12.177 25.246,12.203 25.159,12.203C25.128,12.203 25.128,12.234 25.128,12.203C25.128,12.173 25.128,12.173 25.159,12.173C25.189,12.173 25.189,12.143 25.216,12.143C25.274,12.113 25.274,12.086 25.246,11.942C25.132,11.683 25.047,11.341 24.99,11.17Z" id="path_79"/><path fill="#0c6d39ff" d="M26.835,11.311C26.865,11.425 26.892,11.539 26.923,11.626C26.953,11.656 26.953,11.683 27.01,11.683C27.041,11.683 27.041,11.683 27.068,11.653C27.098,11.653 27.098,11.653 27.098,11.683C27.098,11.683 27.098,11.714 27.068,11.714C26.98,11.744 26.838,11.771 26.808,11.771C26.777,11.771 26.635,11.828 26.605,11.828H26.574C26.574,11.797 26.574,11.797 26.605,11.797L26.662,11.767C26.693,11.737 26.693,11.71 26.693,11.68C26.662,11.623 26.662,11.509 26.635,11.365L26.49,10.821C26.433,10.851 26.345,10.851 26.287,10.878C26.199,10.908 26.172,10.935 26.172,10.965V10.996L26.142,11.026C26.111,11.026 26.111,10.996 26.111,10.996C26.111,10.939 26.081,10.851 26.081,10.794V10.737H26.139C26.169,10.737 26.253,10.707 26.311,10.707L26.916,10.536C26.973,10.506 26.973,10.506 27.004,10.506C27.034,10.476 27.034,10.476 27.061,10.476C27.091,10.476 27.091,10.476 27.091,10.506C27.091,10.536 27.122,10.677 27.122,10.707V10.737C27.091,10.737 27.091,10.737 27.091,10.707L27.061,10.677C27.031,10.62 27.004,10.62 26.946,10.62C26.889,10.62 26.831,10.65 26.716,10.677L26.835,11.311Z" id="path_80"/><path fill="#0c6d39ff" d="M27.524,10.996C27.581,11.026 27.612,11.026 27.639,11.026C27.669,11.026 27.696,10.996 27.727,10.969C27.757,10.939 27.757,10.882 27.757,10.767C27.7,10.566 27.585,10.539 27.497,10.566C27.467,10.566 27.44,10.596 27.44,10.596V10.627L27.524,10.996ZM27.267,10.939C27.21,10.71 27.21,10.71 27.21,10.653C27.179,10.596 27.179,10.566 27.152,10.566H27.095C27.065,10.566 27.065,10.566 27.065,10.536L27.095,10.506C27.152,10.476 27.298,10.476 27.325,10.449C27.355,10.449 27.497,10.419 27.554,10.392C27.669,10.362 27.784,10.362 27.872,10.362C27.96,10.392 28.044,10.449 28.044,10.563C28.075,10.677 28.014,10.791 27.93,10.878C28.044,10.992 28.19,11.106 28.274,11.194C28.362,11.251 28.389,11.281 28.447,11.281H28.477C28.507,11.281 28.507,11.281 28.507,11.311C28.507,11.341 28.477,11.341 28.477,11.341L28.362,11.371C28.217,11.402 28.159,11.402 28.075,11.371C28.017,11.341 27.96,11.314 27.872,11.227C27.784,11.14 27.757,11.083 27.7,11.056H27.669L27.581,11.086L27.551,11.116L27.581,11.173C27.612,11.288 27.612,11.344 27.639,11.402C27.669,11.432 27.669,11.459 27.696,11.459H27.754C27.784,11.459 27.784,11.459 27.784,11.489C27.784,11.519 27.754,11.519 27.754,11.519C27.666,11.549 27.494,11.576 27.494,11.576C27.463,11.576 27.321,11.606 27.291,11.633H27.26C27.26,11.603 27.26,11.603 27.291,11.603L27.348,11.573C27.379,11.542 27.379,11.516 27.379,11.485C27.379,11.428 27.348,11.314 27.321,11.17L27.267,10.939Z" id="path_81"/><path fill="#0c6d39ff" d="M28.305,10.741C28.274,10.512 28.247,10.482 28.247,10.425C28.217,10.395 28.217,10.368 28.19,10.368H28.132C28.102,10.368 28.102,10.368 28.102,10.338C28.102,10.308 28.102,10.308 28.132,10.308C28.22,10.278 28.278,10.278 28.335,10.278C28.366,10.278 28.71,10.221 28.737,10.221C28.764,10.221 28.795,10.191 28.825,10.191L28.856,10.16L28.886,10.191V10.248C28.886,10.278 28.886,10.335 28.916,10.419L28.886,10.449L28.856,10.419C28.856,10.388 28.856,10.388 28.825,10.362C28.795,10.331 28.795,10.304 28.71,10.304C28.653,10.304 28.538,10.335 28.508,10.335L28.477,10.365L28.535,10.68L28.565,10.71C28.622,10.71 28.737,10.68 28.768,10.68C28.825,10.65 28.856,10.65 28.856,10.623L28.886,10.593L28.916,10.623C28.916,10.653 28.916,10.68 28.947,10.737C28.947,10.767 28.977,10.825 28.977,10.851V10.882L28.947,10.851L28.916,10.821C28.886,10.764 28.886,10.764 28.802,10.764C28.744,10.764 28.629,10.794 28.599,10.794V10.825L28.629,10.912C28.66,10.969 28.66,11.026 28.66,11.113C28.69,11.2 28.717,11.227 28.862,11.2C28.893,11.2 28.95,11.17 28.977,11.17C29.008,11.14 29.035,11.113 29.035,11.056C29.035,11.026 29.035,11.026 29.065,11.026C29.096,11.026 29.096,11.056 29.096,11.056C29.126,11.113 29.126,11.227 29.126,11.257C29.126,11.288 29.096,11.314 29.069,11.314C28.866,11.344 28.751,11.371 28.606,11.371C28.548,11.402 28.491,11.402 28.403,11.402C28.372,11.402 28.372,11.402 28.372,11.371C28.372,11.371 28.372,11.341 28.403,11.341C28.433,11.341 28.433,11.311 28.46,11.311C28.491,11.281 28.491,11.254 28.491,11.14C28.491,11.083 28.46,10.996 28.46,10.912L28.305,10.741Z" id="path_82"/><path fill="#0c6d39ff" d="M12.534,44.115C12.534,44.115 18.069,37.761 26.605,39.307C34.533,40.74 35.313,47.953 41.166,46.121C41.166,46.121 36.351,50.013 31.275,46.007C27.413,42.944 25.939,44.289 25.939,44.289C25.939,44.289 27.757,43.86 31.099,47.497C34.445,51.133 43.352,52.247 49.783,45.836C49.783,45.836 45.687,51.677 38.652,53.767C31.819,55.8 25.446,55.169 20.978,49.131C15.906,42.256 12.534,44.115 12.534,44.115Z" id="path_83"/><path fill="#a8965dff" d="M13.253,39.395C13.253,39.425 13.284,39.425 13.284,39.452C13.253,39.422 13.253,39.395 13.253,39.395Z" id="path_84"/><path fill="#bdaf83ff" d="M31.505,13.401C29.629,13.458 28.274,14.002 29.399,15.119C30.754,16.434 36.06,18.497 38.885,19.584C38.973,19.614 39.03,19.614 39.088,19.614C39.463,19.614 39.432,19.155 39.26,18.87C39,18.41 38.973,18.41 37.759,17.954C28.129,14.26 29.629,13.458 32.599,13.458C32.427,13.428 32.167,13.428 31.88,13.428H31.505" id="path_85"/><path fill="#a8965dff" d="M24.959,15.062C21.238,16.806 32.021,21.188 35.57,22.647C36.404,22.875 36.695,22.104 36.404,21.53C36.232,21.215 36.232,21.215 34.904,20.701C27.841,17.809 25.304,16.092 26.111,14.719C25.854,14.659 25.047,15.031 24.959,15.062Z" id="path_86"/><path fill="#b09f6bff" d="M22.827,15.518C22.769,15.548 22.739,15.575 22.681,15.605L22.827,15.518ZM22.681,15.578L22.218,15.837C21.843,16.065 21.296,16.41 20.894,16.665C18.096,18.782 20.201,21.275 27.727,24.767C27.841,24.824 27.987,24.824 28.102,24.824C28.879,24.824 29.254,23.935 28.997,23.449C28.882,23.221 28.882,23.221 27.554,22.62C23.979,20.959 18.674,17.809 22.681,15.578Z" id="path_87"/><path fill="#a8965dff" d="M20.492,22.932C20.232,23.419 19.972,23.905 23.03,25.68C25.537,27.139 28.423,28.283 31.91,29.602C33.093,29.917 33.495,28.686 33.063,28.085C32.89,27.857 32.89,27.857 31.333,27.257C25.997,25.254 23.287,23.821 21.617,22.161C21.239,21.902 20.664,22.59 20.492,22.932Z" id="path_88"/><path fill="#cec2a0ff" d="M15.906,21.617L15.761,21.819C15.443,22.305 15.041,22.962 14.781,23.449C13.253,27.17 19.684,30.806 29.775,35.157C29.92,35.215 30.062,35.215 30.177,35.215C31.072,35.215 31.386,34.154 31.011,33.584C30.839,33.299 30.839,33.299 29.166,32.581C20.982,29.031 13.713,25.254 15.906,21.617Z" id="path_89"/><path fill="#b7a878ff" d="M23.604,16.806C23.202,16.806 22.566,17.35 22.536,17.35C20.431,19.212 31.504,23.647 38.854,26.566C38.969,26.596 39.057,26.623 39.172,26.623C39.865,26.623 39.98,25.794 39.719,25.277C39.517,24.935 39.517,24.935 38.047,24.331C28.098,20.383 24.756,18.604 23.773,16.803C23.719,16.837 23.661,16.806 23.604,16.806Z" id="path_90"/><path fill="#bdaf83ff" d="M41.453,25.797C40.875,25.797 40.818,26.512 40.875,26.801C40.933,27.116 41.105,27.401 41.365,27.572C41.423,27.602 41.423,27.602 43.123,28.317C43.21,28.347 43.295,28.347 43.352,28.347C43.988,28.347 44.045,27.458 43.755,26.945C43.552,26.603 43.552,26.603 41.707,25.828C41.626,25.797 41.538,25.797 41.453,25.797Z" id="path_91"/><path fill="#d5ccb2ff" d="M45.316,27.371C44.883,27.371 44.738,27.971 44.853,28.431C44.998,29.088 45.343,29.26 45.63,29.377C45.687,29.407 45.775,29.407 45.833,29.407C46.296,29.407 46.468,28.662 46.208,28.032C46.035,27.602 45.806,27.515 45.515,27.401C45.461,27.371 45.373,27.371 45.316,27.371Z" id="path_92"/><path fill="#d5ccb2ff" d="M48.661,28.944C48.374,28.944 48.259,29.518 48.343,30.088C48.458,30.776 48.719,30.917 48.921,31.004C48.979,31.034 49.009,31.034 49.036,31.034C49.381,31.034 49.499,30.175 49.239,29.518C49.124,29.176 48.979,29.088 48.776,28.974C48.746,28.974 48.688,28.944 48.661,28.944Z" id="path_93"/><path fill="#b7a878ff" d="M31.562,17.122C31.16,17.122 30.869,17.521 30.812,17.722C30.697,18.182 30.697,18.182 32.772,19.098C36.634,20.815 40.615,22.218 44.535,23.821C44.593,23.851 44.65,23.851 44.708,23.851C45.11,23.851 45.025,23.278 44.822,22.905C44.505,22.305 44.505,22.305 40.382,20.731C36.229,19.128 34.154,18.299 31.762,17.182C31.708,17.152 31.62,17.122 31.562,17.122Z" id="path_94"/><path fill="#a8965dff" d="M45.748,23.878C46.035,24.479 46.326,24.593 46.556,24.707C46.988,24.878 47.019,24.365 46.758,23.818C46.471,23.187 46.123,23.016 45.924,22.929C45.461,22.791 45.518,23.392 45.748,23.878Z" id="path_95"/><path fill="#a8965dff" d="M32.745,13.515C30.988,13.572 31.332,14.146 31.562,14.404C32.427,15.32 34.418,16.065 42.778,19.272C43.18,19.386 43.008,19.044 42.95,18.93C42.575,18.215 42.575,18.215 39.662,17.155C36.462,16.011 29.802,13.575 33.722,13.519C33.522,13.515 33.12,13.488 32.745,13.515Z" id="path_96"/><path fill="#cec2a0ff" d="M43.558,18.611C43.47,18.611 43.413,18.668 43.616,18.984C43.673,19.071 43.819,19.269 43.933,19.413C44.335,19.873 44.335,19.873 45.633,20.443C45.664,20.473 45.721,20.473 45.748,20.473H45.778C45.924,20.272 45.289,19.557 45.059,19.356C44.741,19.071 44.741,19.071 43.673,18.641C43.643,18.638 43.616,18.611 43.558,18.611Z" id="path_97"/><path fill="#c6b892ff" d="M18.674,30.719C18.184,30.719 17.954,31.35 17.924,31.749C17.893,32.494 17.893,32.722 21.644,34.611C25.105,36.328 28.247,37.617 35.861,40.68C35.976,40.71 36.09,40.736 36.205,40.736C37.04,40.736 37.415,39.79 37.128,39.277C37.013,39.049 37.013,39.049 35.486,38.418C24.875,34.097 22.31,32.836 18.992,30.803C18.877,30.776 18.789,30.719 18.674,30.719Z" id="path_98"/><path fill="#c6b892ff" d="M12.791,30.289C12.503,30.289 12.446,30.89 12.358,31.292C12.186,31.98 11.838,32.265 13.943,33.611C15.876,34.869 17.691,35.728 22.104,37.791C22.161,37.821 22.192,37.821 22.219,37.821C22.797,37.821 23.287,36.818 23.172,36.362C23.114,36.16 23.114,36.16 22.276,35.731C16.136,32.812 14.693,31.896 12.906,30.35C12.879,30.32 12.821,30.289 12.791,30.289Z" id="path_99"/><path fill="#d5ccb2ff" d="M40.182,40.482C39.577,40.482 39.202,41.055 39.115,41.428C39.084,41.572 39.057,41.914 39.317,42.115C39.348,42.146 39.348,42.146 40.787,42.773C40.875,42.803 40.96,42.803 41.017,42.803C41.767,42.803 42.342,41.773 42.028,41.314C41.94,41.2 41.94,41.2 40.443,40.512C40.385,40.482 40.27,40.482 40.182,40.482Z" id="path_100"/><path fill="#b7a878ff" d="M17.406,19.812C17.261,19.899 17.177,19.926 16.714,20.527C13.226,24.905 22.364,28.77 37.472,35.154C37.587,35.184 37.702,35.211 37.817,35.211C38.682,35.211 38.969,34.124 38.625,33.55C38.452,33.292 38.452,33.292 35.57,32.091C24.902,27.629 15.646,23.791 17.406,19.812Z" id="path_101"/><path fill="#ded6c1ff" d="M40.646,34.299C40.098,34.299 39.693,34.842 39.693,35.416C39.662,36.104 40.125,36.305 40.443,36.419C40.531,36.449 40.646,36.476 40.73,36.476C41.423,36.476 41.883,35.587 41.595,34.903C41.48,34.587 41.278,34.503 40.933,34.359C40.845,34.325 40.73,34.299 40.646,34.299Z" id="path_102"/><path fill="#ffffffff" d="M32.427,28.917L33.752,29.146L32.485,28.686L33.495,27.827L32.313,28.515L32.198,27.2L32.083,28.515L30.985,27.8L31.965,28.716L30.697,29.088L32.025,28.917L31.532,30.149L32.225,29.001L32.86,30.176L32.427,28.917Z" id="path_103"/><path fill="#0c6d39ff" d="M12.473,32.98C12.473,22.188 21.296,13.428 32.167,13.428C43.038,13.428 51.861,22.191 51.861,32.98C51.861,35.527 51.371,37.989 50.449,40.25C51.574,37.761 52.206,35.013 52.206,32.121C52.206,21.158 43.237,12.227 32.167,12.227C21.124,12.227 12.128,21.131 12.128,32.121C12.128,35.013 12.763,37.788 13.885,40.25C12.966,37.989 12.473,35.53 12.473,32.98Z" id="path_104"/><path fill="#0c6d39ff" d="M32.948,8.537C32.917,8.506 32.917,8.479 32.89,8.449C32.718,8.164 32.4,8.077 32.083,8.164C32.052,8.107 32.052,8.077 32.052,8.077C32.052,8.077 32.022,8.107 32.022,8.164C31.735,8.077 31.417,8.164 31.214,8.449C31.184,8.479 31.184,8.506 31.157,8.537C31.272,8.422 31.444,8.335 31.62,8.308C31.447,8.422 31.36,8.624 31.36,8.852C31.36,8.882 31.36,8.939 31.39,8.966C31.42,8.765 31.535,8.594 31.708,8.506C31.62,8.708 31.62,8.966 31.738,9.194C31.768,9.224 31.795,9.251 31.795,9.281C31.681,9.023 31.738,8.708 31.968,8.537C31.937,8.594 31.937,8.624 31.937,8.708C31.937,9.023 32.025,9.308 32.025,9.308C32.025,9.308 32.113,9.023 32.113,8.708C32.113,8.651 32.113,8.594 32.083,8.537C32.285,8.738 32.37,9.023 32.255,9.281C32.285,9.251 32.312,9.224 32.312,9.194C32.427,8.993 32.458,8.734 32.343,8.506C32.515,8.594 32.63,8.791 32.66,8.966V8.852C32.66,8.624 32.573,8.422 32.4,8.308C32.63,8.335 32.802,8.419 32.948,8.537Z" id="path_105"/><path fill="#0c6d39ff" d="M33.783,9.996C33.205,9.996 32.688,10.197 32.198,10.482C32.285,10.57 32.37,10.627 32.485,10.71C32.515,10.653 32.542,10.623 32.6,10.623C32.657,10.653 32.688,10.68 32.688,10.71C32.718,10.768 32.657,10.798 32.63,10.825C32.718,10.912 32.803,10.996 32.917,11.083C32.948,11.053 32.948,11.026 32.948,10.996C32.978,10.939 33.036,10.908 33.12,10.939C33.178,10.969 33.178,10.996 33.178,11.053C33.147,11.167 33.09,11.254 33.005,11.254C32.948,11.284 32.89,11.254 32.833,11.224C32.718,11.167 32.63,11.053 32.546,10.996L32.515,10.965C32.485,11.023 32.458,11.053 32.4,11.053C32.37,11.053 32.343,11.023 32.313,11.023C32.255,10.965 32.282,10.908 32.343,10.851L32.313,10.821C32.225,10.764 32.14,10.677 32.052,10.62H32.022C31.934,10.707 31.85,10.764 31.735,10.848V10.878C31.792,10.908 31.823,10.965 31.792,10.992C31.762,11.049 31.735,11.049 31.704,11.049C31.647,11.08 31.616,11.019 31.589,10.962C31.559,10.992 31.532,11.019 31.501,11.049C31.444,11.137 31.329,11.163 31.272,11.251C31.184,11.338 31.042,11.281 30.985,11.22C30.954,11.163 30.927,11.133 30.927,11.049C30.927,10.992 30.957,10.962 31.015,10.935C31.103,10.905 31.13,10.965 31.16,11.049L31.191,11.106C31.278,11.019 31.363,10.935 31.478,10.848C31.42,10.818 31.39,10.761 31.42,10.704C31.451,10.647 31.478,10.647 31.508,10.647C31.566,10.647 31.596,10.677 31.623,10.734C31.711,10.647 31.795,10.59 31.91,10.506C31.447,10.191 30.93,10.019 30.353,10.019C30.383,9.989 30.44,9.989 30.467,9.989C30.64,9.932 30.812,9.932 31.015,9.959C31.302,9.989 31.562,10.103 31.823,10.244C31.91,10.301 31.995,10.331 32.083,10.415C32.113,10.446 32.113,10.446 32.14,10.415C32.343,10.301 32.515,10.187 32.745,10.1C32.917,10.043 33.063,9.986 33.235,9.986C33.38,9.909 33.58,9.909 33.783,9.996Z" fill-rule="evenodd" id="path_106"/><path fill="#0c6d39ff" d="M32.197,10.167H31.937L31.964,8.62H32.167L32.197,10.167Z" fill-rule="evenodd" id="path_107"/><path fill="#0c6d39ff" d="M31.937,10.167L32.052,10.281L32.197,10.167H31.937Z" id="path_108"/></svg>