<svg id="vector" xmlns="http://www.w3.org/2000/svg" width="64.0d" height="64.0d" viewBox="0 0 64.0 64.0"><defs><clipPath id="clip_path_0"><path d="M9,21h46v23h-46z"/></clipPath></defs><path fill="#ffffffff" d="M32,32m-31.75,0a31.75,31.75 0,1 1,63.5 0a31.75,31.75 0,1 1,-63.5 0" stroke="#e6e6e6ff" stroke-width="0.5" id="path_0"/><g id="g_0"><path fill="#4399d5ff" d="M14.123,37.708V36.809H9V37.136C9,37.408 9.106,37.668 9.296,37.861C9.486,38.053 9.743,38.161 10.011,38.161H12.223L9.079,42.771C9.028,42.848 9.001,42.938 9,43.031V43.976H14.342V43.693C14.342,43.422 14.236,43.161 14.047,42.969C13.859,42.777 13.603,42.668 13.336,42.667H10.863L14.049,37.986C14.101,37.904 14.127,37.806 14.123,37.708Z" clip-path="url(#clip_path_0)"/><path fill="#4399d5ff" d="M17.998,37.462L15.52,44H16.778C16.867,43.997 16.954,43.967 17.028,43.916C17.101,43.863 17.158,43.791 17.192,43.707L17.928,41.731H20.257L20.885,43.693C20.917,43.78 20.975,43.856 21.049,43.911C21.124,43.965 21.213,43.997 21.305,44H22.595L20.177,36.809H18.939C18.735,36.809 18.537,36.872 18.369,36.988C18.201,37.104 18.072,37.27 17.998,37.462ZM19.153,38.147L19.386,38.998L19.851,40.506H18.352L18.878,39.003L19.153,38.147Z"/><path fill="#4399d5ff" d="M30.223,36.809H28.444C28.379,36.809 28.315,36.823 28.256,36.851C28.198,36.879 28.146,36.919 28.104,36.97L25.817,39.769V36.809H25.301C25.034,36.809 24.778,36.917 24.589,37.108C24.4,37.3 24.295,37.56 24.295,37.83V43.976H24.83C25.097,43.976 25.354,43.869 25.543,43.678C25.733,43.486 25.84,43.227 25.841,42.955V40.639L28.281,43.806C28.324,43.858 28.377,43.901 28.438,43.93C28.498,43.959 28.564,43.975 28.63,43.976H30.405L27.34,40.142L30.223,36.809Z"/><path fill="#4399d5ff" d="M33.684,37.462L31.178,44H32.435C32.526,44.001 32.614,43.973 32.688,43.92C32.763,43.868 32.819,43.793 32.85,43.707L33.586,41.731H35.914L36.562,43.693C36.594,43.781 36.652,43.857 36.727,43.912C36.803,43.967 36.893,43.998 36.986,44H38.271L35.863,36.809H34.615C34.414,36.812 34.217,36.875 34.051,36.992C33.886,37.108 33.757,37.271 33.684,37.462ZM34.839,38.147L35.071,38.998L35.537,40.506H34.028L34.555,39.003L34.839,38.147Z"/><path fill="#4399d5ff" d="M39.202,38.109H41.433V44H41.969C42.103,44.002 42.236,43.978 42.36,43.928C42.485,43.878 42.598,43.803 42.694,43.708C42.79,43.613 42.866,43.5 42.918,43.374C42.97,43.249 42.998,43.115 42.998,42.979V38.109H44.204C44.471,38.104 44.724,37.993 44.91,37.799C45.096,37.605 45.199,37.344 45.196,37.074V36.795H40.204C39.937,36.795 39.68,36.903 39.491,37.094C39.301,37.285 39.194,37.545 39.193,37.816L39.202,38.109Z"/><path fill="#4399d5ff" d="M50.916,37.074L49.379,40.085L47.953,37.074C47.915,36.999 47.858,36.936 47.788,36.891C47.717,36.846 47.636,36.821 47.553,36.819H46.067L48.559,41.508V44.009H49.085C49.353,44.009 49.609,43.902 49.798,43.711C49.988,43.519 50.095,43.26 50.096,42.988V41.475L52.778,36.809H51.293C51.213,36.817 51.136,36.845 51.07,36.891C51.004,36.938 50.951,37.001 50.916,37.074Z"/><path fill="#4399d5ff" d="M52.778,24.253V25.392C53.373,25.392 53.942,25.152 54.362,24.726C54.783,24.299 55.019,23.721 55.019,23.118V21.979C54.424,21.979 53.855,22.218 53.435,22.645C53.014,23.071 52.778,23.649 52.778,24.253Z"/><path fill="#092348ff" d="M48.75,34.98C51.176,34.866 52.76,33.519 52.76,31.788V25.378C52.187,25.378 51.637,25.609 51.232,26.02C50.827,26.432 50.599,26.99 50.599,27.571V31.788C50.599,33.235 50.198,34.266 48.75,34.98Z"/><path fill="#092348ff" d="M27.569,22.967C28.104,22.967 28.537,22.526 28.537,21.983C28.537,21.44 28.104,21 27.569,21C27.034,21 26.6,21.44 26.6,21.983C26.6,22.526 27.034,22.967 27.569,22.967Z"/><path fill="#092348ff" d="M30.177,22.967C30.712,22.967 31.145,22.526 31.145,21.983C31.145,21.44 30.712,21 30.177,21C29.642,21 29.208,21.44 29.208,21.983C29.208,22.526 29.642,22.967 30.177,22.967Z"/><path fill="#092348ff" d="M12.647,34.984C13.182,34.984 13.615,34.544 13.615,34.001C13.615,33.458 13.182,33.018 12.647,33.018C12.112,33.018 11.678,33.458 11.678,34.001C11.678,34.544 12.112,34.984 12.647,34.984Z"/><path fill="#092348ff" d="M15.25,34.984C15.785,34.984 16.219,34.544 16.219,34.001C16.219,33.458 15.785,33.018 15.25,33.018C14.715,33.018 14.281,33.458 14.281,34.001C14.281,34.544 14.715,34.984 15.25,34.984Z"/><path fill="#092348ff" d="M48.149,29.462V31.968H32.338V23.194C32.338,22.612 32.565,22.054 32.971,21.642C33.376,21.231 33.925,21 34.499,21V29.774H45.984C45.984,29.194 45.756,28.637 45.352,28.227C44.947,27.816 44.399,27.586 43.827,27.586H36.757V25.08C36.757,23.998 37.181,22.96 37.935,22.195C38.688,21.43 39.711,21 40.777,21H45.984C45.984,21.288 45.929,21.573 45.821,21.839C45.713,22.105 45.554,22.347 45.354,22.551C45.153,22.755 44.915,22.916 44.653,23.027C44.391,23.137 44.111,23.194 43.827,23.194H41.084C40.51,23.194 39.959,23.425 39.553,23.837C39.147,24.25 38.918,24.809 38.918,25.392H44.135C44.661,25.391 45.183,25.496 45.671,25.701C46.158,25.905 46.6,26.205 46.973,26.583C47.346,26.961 47.642,27.41 47.843,27.904C48.045,28.398 48.149,28.927 48.149,29.462Z"/><path fill="#092348ff" d="M28.016,26.3V29.037C28.016,29.23 27.94,29.415 27.806,29.552C27.671,29.688 27.489,29.765 27.299,29.765H24.127V24.092H20.215C19.533,24.092 18.879,24.367 18.397,24.856C17.915,25.346 17.644,26.009 17.644,26.701V29.76H11.878C11.689,29.76 11.507,29.684 11.373,29.549C11.238,29.413 11.162,29.229 11.161,29.037V26.583C11.161,25.137 11.561,24.101 13.024,23.388C10.863,23.492 9.354,24.569 9.056,26.03C9.018,26.212 9,26.397 9,26.583V29.358C9,29.701 9.066,30.041 9.196,30.357C9.325,30.674 9.514,30.961 9.753,31.204C10.235,31.693 10.889,31.968 11.571,31.968H19.805V27.028C19.805,26.835 19.881,26.649 20.015,26.513C20.149,26.376 20.332,26.3 20.522,26.3H21.966V31.973H27.629C28.311,31.973 28.965,31.698 29.447,31.208C29.929,30.719 30.2,30.055 30.2,29.363V24.106C29.914,24.103 29.631,24.157 29.366,24.266C29.101,24.375 28.86,24.536 28.657,24.74C28.454,24.944 28.292,25.187 28.182,25.455C28.072,25.722 28.016,26.01 28.016,26.3Z"/></g></svg>