<svg id="vector" xmlns="http://www.w3.org/2000/svg" width="64.0d" height="64.0d" viewBox="0 0 64.0 64.0"><path fill="#ffffffff" d="M32,32m-31.75,0a31.75,31.75 0,1 1,63.5 0a31.75,31.75 0,1 1,-63.5 0" stroke="#e6e6e6ff" stroke-width="0.5" id="path_0"/><path fill="@drawable/$partner_wilayah__0" d="M15.341,31.24C15.284,28.626 15.511,26.07 16.928,23.797C18.345,21.467 20.782,20.615 23.445,21.354C25.089,21.865 26.506,22.774 27.753,23.854C30.133,25.899 31.946,28.399 33.42,31.126C35.177,34.365 36.367,37.774 36.877,41.411C37.33,44.251 37.33,47.149 36.424,49.933C36.083,50.956 35.573,51.865 34.893,52.717C34.553,53.172 34.326,53.683 34.043,54.195C33.476,55.161 32.74,56.013 31.776,56.638C31.436,56.865 31.153,56.865 30.813,56.638C29.566,55.786 28.716,54.649 28.093,53.342C28.036,53.172 27.979,53.001 27.809,52.888C26.449,51.411 25.882,49.592 25.542,47.717C25.202,45.558 25.316,43.456 25.656,41.354C25.712,40.956 25.882,40.786 26.279,40.786C26.676,40.786 27.072,40.786 27.412,40.786C27.753,40.786 27.809,40.899 27.753,41.24C27.583,42.376 27.356,43.513 27.186,44.706C26.902,47.32 27.072,49.933 27.979,52.433C28.093,52.774 28.319,53.115 28.603,53.286C30.076,54.422 31.663,54.592 33.306,53.683C33.986,53.342 34.44,52.831 34.667,52.092C35.347,49.82 35.517,47.49 35.347,45.104C35.12,42.036 34.326,39.081 33.136,36.24C31.89,33.342 30.246,30.672 27.923,28.513C26.506,27.206 24.976,26.126 23.049,25.729C20.498,25.161 18.458,26.07 16.985,28.172C16.418,28.967 16.135,29.876 15.681,30.786C15.624,30.956 15.568,31.126 15.511,31.297C15.398,31.24 15.341,31.24 15.341,31.24Z" id="path_1"/><path fill="@drawable/$partner_wilayah__1" d="M33.193,29.934C32.626,29.082 32.116,28.286 31.663,27.491C31.606,27.377 31.663,27.207 31.719,27.093C33.646,24.707 35.743,22.548 38.69,21.468C41.241,20.502 43.678,21.184 45.264,23.343C46.114,24.423 46.568,25.673 46.794,27.036C47.021,28.286 47.078,29.593 47.191,30.843C47.191,30.957 47.191,31.127 47.191,31.241C47.135,31.241 47.135,31.241 47.078,31.241C47.021,31.014 46.908,30.843 46.851,30.616C46.454,29.423 45.888,28.286 44.981,27.32C43.167,25.389 40.957,25.048 38.52,25.9C36.82,26.468 35.46,27.548 34.213,28.798C33.93,29.195 33.59,29.536 33.193,29.934Z" id="path_2"/><path fill="@drawable/$partner_wilayah__2" d="M43.338,19.195C40.901,18.059 38.52,17.889 36.083,18.911C33.646,19.934 32.23,21.866 31.266,24.309C31.209,24.139 31.153,23.968 31.153,23.798C30.926,21.354 31.663,19.139 33.25,17.32C35.573,14.65 39.144,13.741 42.487,14.877C42.827,14.991 43.111,15.218 43.111,15.559C43.224,16.639 43.338,17.718 43.394,18.798C43.451,18.911 43.394,19.025 43.338,19.195Z" id="path_3"/><path fill="@drawable/$partner_wilayah__3" d="M40.05,39.877C39.937,39.65 39.824,39.536 39.767,39.422C38.747,37.661 38.52,35.843 39.427,33.968C39.824,33.172 40.334,32.434 40.957,31.752C41.524,31.07 41.921,31.07 42.487,31.695C43.564,32.945 44.528,34.309 44.584,36.07C44.641,38.57 43.167,40.786 40.844,41.809C39.881,42.207 38.804,42.491 37.784,42.547C37.5,42.547 37.33,42.491 37.273,42.15C37.217,41.582 37.104,41.013 36.99,40.445C36.933,40.104 37.047,39.991 37.387,39.991C38.067,39.991 38.804,39.991 39.484,39.991C39.654,39.877 39.824,39.877 40.05,39.877ZM43.508,34.934C43.508,34.707 43.508,34.479 43.508,34.252C43.451,33.343 43.054,32.888 42.147,32.604C41.354,32.377 40.164,32.945 40.05,33.741C39.71,35.559 40.164,37.207 41.411,38.627C41.637,38.911 41.864,38.911 42.091,38.627C42.998,37.604 43.564,36.354 43.508,34.934Z" id="path_4"/><path fill="@drawable/$partner_wilayah__4" d="M17.041,44.82C17.551,42.604 18.231,40.501 20.102,38.967C21.008,38.229 22.085,37.831 23.219,37.888C24.522,37.888 25.826,38.058 27.186,38.172C27.979,38.229 28.829,38.342 29.623,38.285C30.926,38.229 31.833,37.604 32.286,36.41C32.343,36.24 32.4,36.07 32.57,35.899C32.57,36.013 32.57,36.183 32.57,36.297C32.173,38.854 30.926,40.047 28.263,40.217C26.619,40.331 24.976,40.388 23.389,40.501C21.802,40.615 20.328,41.013 19.025,42.035C18.288,42.66 17.778,43.456 17.381,44.365C17.325,44.535 17.268,44.706 17.155,44.82C17.155,44.876 17.098,44.876 17.041,44.82Z" id="path_5"/><path fill="@drawable/$partner_wilayah__5" d="M19.535,19.138C19.365,18.172 19.308,17.206 19.535,16.184C19.591,16.013 19.761,15.843 19.931,15.786C24.182,13.854 29.169,16.354 29.963,20.729C30.076,21.24 30.076,21.809 30.019,22.377C27.526,18.059 23.955,17.32 19.535,19.138Z" id="path_6"/><path fill="@drawable/$partner_wilayah__6" d="M34.78,10.331C31.889,12.32 30.699,15.104 30.699,18.57C30.586,18.4 30.529,18.343 30.473,18.286C29.169,15.104 29.453,12.093 31.606,9.366C31.833,9.081 32.06,9.025 32.4,9.138C33.25,9.366 34.043,9.706 34.78,10.331Z" id="path_7"/><path fill="@drawable/$partner_wilayah__7" d="M29.396,30.843C29.623,31.127 29.849,31.354 30.076,31.638C30.359,31.979 30.586,32.377 30.813,32.718C30.926,32.888 30.926,33.172 30.813,33.343C30.189,34.763 29.509,36.127 28.886,37.49C28.773,37.775 28.659,37.888 28.319,37.831C27.866,37.775 27.356,37.718 26.902,37.661C26.676,37.661 26.506,37.547 26.562,37.263C27.242,35.047 28.093,32.888 29.226,30.899C29.283,30.899 29.339,30.899 29.396,30.843Z" id="path_8"/><path fill="@drawable/$partner_wilayah__8" d="M20.045,33.116C20.328,33.286 20.612,33.457 20.838,33.627C21.632,34.252 21.688,34.252 22.312,33.457C22.595,33.116 22.879,33.059 23.219,33.286C23.615,33.514 23.955,33.741 24.352,34.025C24.692,34.252 24.749,34.536 24.522,34.877C24.182,35.332 23.899,35.786 23.559,36.184C23.332,36.468 23.049,36.525 22.709,36.298C22.425,36.07 22.085,35.843 21.802,35.616C21.575,35.445 21.405,35.445 21.235,35.673C21.065,35.9 20.895,36.07 20.782,36.241C20.555,36.582 20.272,36.639 19.932,36.355C19.535,36.07 19.195,35.786 18.798,35.502C18.515,35.275 18.458,35.048 18.685,34.764C18.968,34.366 19.308,33.911 19.648,33.514C19.705,33.286 19.875,33.23 20.045,33.116Z" id="path_9"/><path fill="@drawable/$partner_wilayah__9" d="M30.019,47.547C29.793,45.502 29.623,43.456 31.096,41.752C31.776,40.899 32.74,40.502 33.816,40.274C33.93,40.274 34.157,40.388 34.213,40.502C34.383,41.07 34.496,41.638 34.61,42.206C34.667,42.433 34.61,42.547 34.326,42.604C34.1,42.661 33.816,42.661 33.59,42.718C32.06,43.058 31.153,44.081 30.699,45.502C30.529,46.07 30.416,46.638 30.303,47.206C30.303,47.32 30.246,47.433 30.189,47.547C30.133,47.547 30.076,47.547 30.019,47.547Z" id="path_10"/><path fill="@drawable/$partner_wilayah__10" d="M30.19,51.922C30.019,51.866 29.906,51.809 29.849,51.809C29.509,51.525 29.113,51.241 28.773,50.956C28.546,50.786 28.489,50.559 28.659,50.275C28.943,49.877 29.169,49.536 29.453,49.195C29.679,48.911 29.963,48.911 30.246,49.081C30.529,49.252 30.813,49.479 31.096,49.65C31.323,49.82 31.436,49.82 31.606,49.593C32.286,48.513 32.513,48.854 33.25,49.309C34.157,49.934 34.157,49.991 33.477,50.843C32.626,51.922 32.74,52.036 31.606,51.127C31.153,50.786 31.096,50.786 30.756,51.241C30.529,51.525 30.36,51.695 30.19,51.922Z" id="path_11"/></svg>