<svg id="vector" xmlns="http://www.w3.org/2000/svg" width="64.0d" height="64.0d" viewBox="0 0 64.0 64.0"><path fill="#ffffffff" d="M32,32m-31.75,0a31.75,31.75 0,1 1,63.5 0a31.75,31.75 0,1 1,-63.5 0" stroke="#e6e6e6ff" stroke-width="0.5" id="path_0"/><path fill="@drawable/$partner_fsc__0" d="M17.42,27.287L17.42,27.287A1.42,1.42 0,0 1,18.839 28.707L18.839,56.58A1.42,1.42 0,0 1,17.42 58L17.42,58A1.42,1.42 0,0 1,16 56.58L16,28.707A1.42,1.42 0,0 1,17.42 27.287z" id="path_1"/><path fill="@drawable/$partner_fsc__1" d="M46.427,6L46.427,6A1.573,1.573 0,0 1,48 7.573L48,44.487A1.573,1.573 0,0 1,46.427 46.061L46.427,46.061A1.573,1.573 0,0 1,44.854 44.487L44.854,7.573A1.573,1.573 0,0 1,46.427 6z" id="path_2"/><path fill="@drawable/$partner_fsc__2" d="M38.753,14.326L38.753,14.326A1.42,1.42 0,0 1,40.173 15.746L40.173,43.62A1.42,1.42 0,0 1,38.753 45.04L38.753,45.04A1.42,1.42 0,0 1,37.333 43.62L37.333,15.746A1.42,1.42 0,0 1,38.753 14.326z" id="path_3"/><path fill="@drawable/$partner_fsc__3" d="M31.962,21.003L31.962,21.003A1.535,1.535 0,0 1,33.496 22.537L33.496,48.689A1.535,1.535 0,0 1,31.962 50.223L31.962,50.223A1.535,1.535 0,0 1,30.427 48.689L30.427,22.537A1.535,1.535 0,0 1,31.962 21.003z" id="path_4"/><path fill="@drawable/$partner_fsc__4" d="M24.863,32.864L24.863,32.864A1.42,1.42 0,0 1,26.283 34.284L26.283,52.889A1.42,1.42 0,0 1,24.863 54.308L24.863,54.308A1.42,1.42 0,0 1,23.444 52.889L23.444,34.284A1.42,1.42 0,0 1,24.863 32.864z" id="path_5"/></svg>