<svg id="vector" xmlns="http://www.w3.org/2000/svg" width="64.0d" height="64.0d" viewBox="0 0 64.0 64.0"><defs><clipPath id="clip_path_0"><path d="M32.897,31.932C32.716,32.06 32.609,32.264 32.609,32.484V38.035C32.609,38.406 32.911,38.708 33.282,38.708C33.653,38.708 33.955,38.406 33.955,38.035V32.834L39.854,28.703C40.055,28.809 40.281,28.868 40.523,28.868C41.324,28.868 41.973,28.219 41.973,27.419C41.973,26.618 41.324,25.969 40.523,25.969C39.723,25.969 39.074,26.618 39.074,27.419C39.074,27.478 39.078,27.538 39.086,27.597L32.895,31.93"/></clipPath><clipPath id="clip_path_1"><path d="M28.71,30.458V35.984C28.249,36.226 27.933,36.709 27.933,37.267C27.933,38.067 28.583,38.716 29.383,38.716C30.184,38.716 30.833,38.067 30.833,37.267C30.833,36.711 30.519,36.226 30.057,35.984V30.807L38.774,24.705C38.954,24.58 39.062,24.373 39.062,24.153V20.034C39.062,19.663 38.76,19.361 38.388,19.361C38.017,19.361 37.715,19.663 37.715,20.034V23.803L28.998,29.906C28.817,30.032 28.71,30.237 28.71,30.458Z"/></clipPath><clipPath id="clip_path_2"><path d="M39.165,32.308L36.938,33.867C36.635,34.082 36.559,34.501 36.774,34.806C36.905,34.993 37.113,35.094 37.326,35.094C37.459,35.094 37.594,35.055 37.711,34.973L39.938,33.414C40.243,33.2 40.317,32.781 40.102,32.475C39.888,32.171 39.469,32.096 39.163,32.31"/></clipPath><clipPath id="clip_path_3"><path d="M43.413,36.226C43.195,35.916 42.768,35.839 42.456,36.057L31.935,43.423L21.415,36.057C21.105,35.839 20.676,35.914 20.458,36.226C20.239,36.536 20.317,36.965 20.626,37.183L30.738,44.261L27.775,46.334C27.572,46.23 27.344,46.169 27.099,46.169C26.285,46.169 25.626,46.828 25.626,47.642C25.626,48.457 26.285,49.116 27.099,49.116C27.914,49.116 28.573,48.457 28.573,47.642C28.573,47.579 28.567,47.517 28.559,47.458L31.931,45.097L35.304,47.458C35.296,47.519 35.292,47.581 35.292,47.642C35.292,48.457 35.951,49.116 36.766,49.116C37.58,49.116 38.239,48.457 38.239,47.642C38.239,46.828 37.58,46.169 36.766,46.169C36.523,46.169 36.293,46.229 36.092,46.334L33.129,44.261L43.241,37.183C43.55,36.965 43.626,36.538 43.409,36.226"/></clipPath><clipPath id="clip_path_4"><path d="M24.71,20.274L26.936,18.715C27.242,18.501 27.316,18.082 27.101,17.776C26.97,17.59 26.762,17.488 26.549,17.488C26.416,17.488 26.281,17.528 26.164,17.609L23.937,19.168C23.632,19.381 23.558,19.802 23.772,20.108C23.985,20.413 24.406,20.487 24.712,20.272"/></clipPath><clipPath id="clip_path_5"><path d="M33.816,18.066V21.773L25.099,27.876C24.919,28.001 24.811,28.207 24.811,28.428V32.548C24.811,32.92 25.113,33.222 25.485,33.222C25.856,33.222 26.158,32.92 26.158,32.548V28.779L34.875,22.677C35.056,22.552 35.163,22.345 35.163,22.125V18.066C35.624,17.824 35.938,17.341 35.938,16.783C35.938,15.983 35.288,15.333 34.488,15.333C33.687,15.333 33.038,15.983 33.038,16.783C33.038,17.339 33.352,17.824 33.814,18.066"/></clipPath><clipPath id="clip_path_6"><path d="M23.35,26.608C24.15,26.608 24.799,25.959 24.799,25.159C24.799,25.099 24.795,25.04 24.787,24.98L30.978,20.647C31.159,20.52 31.266,20.316 31.266,20.095V16.012C31.266,15.641 30.964,15.339 30.593,15.339C30.222,15.339 29.92,15.641 29.92,16.012V19.746L24.021,23.876C23.82,23.771 23.594,23.711 23.351,23.711C22.551,23.711 21.902,24.361 21.902,25.161C21.902,25.961 22.551,26.611 23.351,26.611"/></clipPath></defs><path fill="#ffffffff" d="M32,32m-31.75,0a31.75,31.75 0,1 1,63.5 0a31.75,31.75 0,1 1,-63.5 0" stroke="#e6e6e6ff" stroke-width="0.5" id="path_0"/><g id="g_0"><path fill="@drawable/$partner_dga__0" d="M41.973,25.971H32.609V38.708H41.973V25.971Z" clip-path="url(#clip_path_0)"/></g><g id="g_1"><path fill="@drawable/$partner_dga__1" d="M39.064,19.359H27.935V38.715H39.064V19.359Z" clip-path="url(#clip_path_1)"/></g><g id="g_2"><path fill="@drawable/$partner_dga__2" d="M40.317,32.094H36.559V35.092H40.317V32.094Z" clip-path="url(#clip_path_2)"/></g><g id="g_3"><path fill="@drawable/$partner_dga__3" d="M43.632,35.839H20.243V49.118H43.632V35.839Z" clip-path="url(#clip_path_3)"/></g><g id="g_4"><path fill="@drawable/$partner_dga__4" d="M27.316,17.488H23.558V20.487H27.316V17.488Z" clip-path="url(#clip_path_4)"/></g><g id="g_5"><path fill="@drawable/$partner_dga__5" d="M35.939,15.333H24.811V33.222H35.939V15.333Z" clip-path="url(#clip_path_5)"/></g><g id="g_6"><path fill="@drawable/$partner_dga__6" d="M31.264,15.339H21.9V26.608H31.264V15.339Z" clip-path="url(#clip_path_6)"/></g></svg>