<svg id="vector" xmlns="http://www.w3.org/2000/svg" width="40.0d" height="40.0d" viewBox="0 0 40.0 40.0"><defs><clipPath id="clip_path_0"><path d="M22.093,14.142L19.226,14.966V19.41L22.093,18.772V14.142Z"/></clipPath><clipPath id="clip_path_1"><path d="M22.093,12.84L19.226,13.664V14.658L22.093,13.834V12.84Z"/></clipPath><clipPath id="clip_path_2"><path d="M22.093,14.142V18.772L24.96,17.701V14.834L22.093,14.142Z"/></clipPath><clipPath id="clip_path_3"><path d="M22.093,12.84V13.834L24.96,14.537V13.598L22.093,12.84Z"/></clipPath><clipPath id="clip_path_4"><path d="M9.239,27.671C9.239,27.419 9.332,27.259 9.557,27.259C9.783,27.259 9.876,27.419 9.876,27.671C9.876,27.951 9.783,28.072 9.557,28.072C9.332,28.067 9.239,27.946 9.239,27.671ZM8.986,27.671C8.986,28.122 9.2,28.309 9.547,28.309C9.893,28.309 10.107,28.122 10.107,27.671C10.107,27.221 9.893,27.034 9.547,27.034C9.2,27.034 8.986,27.215 8.986,27.671ZM9.277,26.54C9.266,26.54 9.25,26.54 9.25,26.567V26.781C9.25,26.792 9.25,26.809 9.277,26.809H9.475C9.486,26.809 9.503,26.809 9.503,26.781V26.567C9.503,26.556 9.503,26.54 9.475,26.54H9.277ZM9.64,26.54C9.629,26.54 9.612,26.54 9.612,26.567V26.781C9.612,26.792 9.612,26.809 9.64,26.809H9.838C9.849,26.809 9.865,26.809 9.865,26.781V26.567C9.865,26.556 9.865,26.54 9.838,26.54H9.64Z"/></clipPath><clipPath id="clip_path_5"><path d="M10.634,27.1C10.623,27.1 10.607,27.1 10.607,27.128V28.391C10.607,28.561 10.53,28.644 10.37,28.644H10.305C10.294,28.644 10.277,28.644 10.277,28.671V28.841C10.277,28.852 10.277,28.869 10.305,28.869H10.359C10.678,28.869 10.837,28.71 10.837,28.391V28.204C10.903,28.27 10.986,28.298 11.074,28.298H11.139C11.233,28.298 11.26,28.287 11.26,28.177C11.26,28.094 11.222,28.072 11.139,28.072H11.112C10.942,28.072 10.848,28.007 10.848,27.875V27.133C10.848,27.122 10.848,27.106 10.821,27.106H10.634V27.1Z"/></clipPath><clipPath id="clip_path_6"><path d="M11.151,28.056C11.068,28.056 11.057,28.083 11.057,28.177C11.057,28.259 11.068,28.281 11.151,28.281H11.469C11.563,28.281 11.59,28.254 11.59,28.16C11.59,28.083 11.552,28.056 11.469,28.056H11.151Z"/></clipPath><clipPath id="clip_path_7"><path d="M11.469,28.056C11.387,28.056 11.376,28.083 11.376,28.177C11.376,28.259 11.387,28.281 11.469,28.281H11.788C11.881,28.281 11.909,28.254 11.909,28.16C11.909,28.083 11.87,28.056 11.788,28.056H11.469Z"/></clipPath><clipPath id="clip_path_8"><path d="M11.804,28.056C11.727,28.056 11.711,28.083 11.711,28.177C11.711,28.259 11.722,28.281 11.804,28.281H12.123C12.216,28.281 12.244,28.254 12.244,28.16C12.244,28.083 12.205,28.056 12.123,28.056H11.804Z"/></clipPath><clipPath id="clip_path_9"><path d="M12.694,27.671C12.694,27.419 12.788,27.27 13.013,27.259C13.238,27.259 13.331,27.419 13.331,27.671C13.331,27.951 13.238,28.072 13.013,28.072C12.782,28.067 12.694,27.946 12.694,27.671ZM12.452,27.682V27.803C12.452,28.001 12.359,28.067 12.266,28.067H12.117C12.024,28.067 11.997,28.078 11.997,28.171C11.997,28.254 12.035,28.292 12.117,28.292H12.249C12.354,28.292 12.502,28.281 12.579,28.144C12.672,28.248 12.82,28.303 13.018,28.314C13.189,28.314 13.337,28.259 13.43,28.155C13.513,28.276 13.655,28.287 13.76,28.287H13.826C13.919,28.287 13.946,28.276 13.946,28.166C13.946,28.083 13.908,28.061 13.826,28.061H13.732C13.639,28.061 13.545,28.007 13.545,27.809C13.557,27.77 13.557,27.715 13.557,27.677C13.557,27.226 13.359,27.04 12.996,27.04C12.667,27.045 12.452,27.232 12.452,27.682Z"/></clipPath><clipPath id="clip_path_10"><path d="M14.243,27.353C14.282,27.314 14.441,27.27 14.6,27.259C14.814,27.259 14.957,27.314 14.957,27.512C14.957,27.71 14.798,27.869 14.666,27.951C14.606,27.671 14.446,27.457 14.243,27.353ZM14.628,27.084C14.364,27.084 14.15,27.177 14.056,27.232C14.045,27.232 14.029,27.259 14.029,27.287V27.457C14.029,27.468 14.04,27.485 14.067,27.512C14.238,27.644 14.397,27.737 14.468,28.056C14.347,28.083 14.271,28.083 14.216,28.083H13.848C13.754,28.083 13.727,28.094 13.727,28.188C13.727,28.27 13.765,28.309 13.848,28.309H14.249C14.37,28.309 14.512,28.281 14.65,28.215C14.754,28.281 14.886,28.309 15.023,28.309H15.424C15.518,28.309 15.545,28.27 15.545,28.177C15.545,28.094 15.507,28.072 15.424,28.072H14.985C14.946,28.072 14.919,28.072 14.891,28.061C15.04,27.968 15.221,27.754 15.221,27.501C15.221,27.248 15.056,27.084 14.743,27.084C14.705,27.078 14.666,27.084 14.628,27.084Z"/></clipPath><clipPath id="clip_path_11"><path d="M15.413,28.056C15.336,28.056 15.32,28.083 15.32,28.177C15.32,28.259 15.331,28.281 15.413,28.281H15.732C15.825,28.281 15.853,28.254 15.853,28.16C15.853,28.083 15.814,28.056 15.732,28.056H15.413Z"/></clipPath><clipPath id="clip_path_12"><path d="M15.732,28.056C15.649,28.056 15.638,28.083 15.638,28.177C15.638,28.259 15.649,28.281 15.732,28.281H16.05C16.144,28.281 16.171,28.254 16.171,28.16C16.171,28.083 16.133,28.056 16.05,28.056H15.732Z"/></clipPath><clipPath id="clip_path_13"><path d="M16.396,26.304C16.385,26.304 16.369,26.304 16.369,26.331V27.897C16.369,28.001 16.331,28.045 16.237,28.045H16.05C15.957,28.045 15.93,28.083 15.93,28.177C15.93,28.259 15.968,28.281 16.05,28.281L16.265,28.292C16.517,28.292 16.611,28.171 16.611,27.919V26.326C16.611,26.315 16.611,26.298 16.583,26.298H16.396V26.304Z"/></clipPath><clipPath id="clip_path_14"><path d="M17.061,26.304C17.05,26.304 17.034,26.304 17.034,26.331V28.254C17.034,28.265 17.034,28.281 17.061,28.281H17.248C17.259,28.281 17.275,28.281 17.275,28.254V26.331C17.275,26.32 17.275,26.304 17.248,26.304H17.061Z"/></clipPath><clipPath id="clip_path_15"><path d="M17.869,27.693C17.869,27.43 18,27.27 18.187,27.27C18.402,27.27 18.495,27.43 18.495,27.682V28.067H18.204C17.973,28.067 17.869,27.973 17.869,27.693ZM17.643,27.693C17.643,28.144 17.858,28.292 18.204,28.292H18.511V28.358C18.511,28.583 18.379,28.638 18.231,28.638H17.874C17.863,28.638 17.847,28.638 17.847,28.666V28.836C17.847,28.847 17.847,28.863 17.874,28.863H18.259C18.566,28.863 18.764,28.704 18.764,28.347V27.671C18.764,27.221 18.566,27.034 18.204,27.034C17.896,27.034 17.643,27.243 17.643,27.693Z"/></clipPath><clipPath id="clip_path_16"><path d="M20.522,28.561C20.511,28.561 20.494,28.561 20.494,28.589V28.803C20.494,28.814 20.494,28.83 20.522,28.83H20.72C20.731,28.83 20.747,28.83 20.747,28.803V28.589C20.747,28.578 20.747,28.561 20.72,28.561H20.522ZM19.967,27.259C19.956,27.27 19.967,27.287 19.978,27.298L20.11,27.402C20.121,27.413 20.137,27.413 20.148,27.402C20.231,27.309 20.346,27.254 20.478,27.254C20.785,27.254 20.873,27.468 20.873,27.77C20.873,27.985 20.835,28.05 20.621,28.05H20.165C19.994,28.05 19.753,28.144 19.753,28.462C19.753,28.743 19.923,28.863 20.231,28.863V28.836H20.324C20.335,28.836 20.352,28.836 20.352,28.809V28.638C20.352,28.627 20.352,28.611 20.324,28.611H20.231C20.033,28.611 19.978,28.572 19.978,28.44C19.978,28.347 20.017,28.27 20.137,28.27H20.698C20.868,28.27 20.989,28.232 21.055,28.1C21.093,28.221 21.214,28.27 21.346,28.27H21.412C21.505,28.27 21.533,28.259 21.533,28.149C21.533,28.067 21.494,28.045 21.412,28.045H21.384C21.225,28.045 21.132,27.979 21.121,27.858C21.11,27.831 21.121,27.792 21.121,27.765C21.121,27.38 20.989,27.023 20.456,27.023C20.231,27.018 20.071,27.128 19.967,27.259Z"/></clipPath><clipPath id="clip_path_17"><path d="M21.428,28.056C21.346,28.056 21.335,28.083 21.335,28.177C21.335,28.259 21.346,28.281 21.428,28.281H21.747C21.84,28.281 21.868,28.254 21.868,28.16C21.868,28.083 21.829,28.056 21.747,28.056H21.428Z"/></clipPath><clipPath id="clip_path_18"><path d="M21.747,28.056C21.664,28.056 21.653,28.083 21.653,28.177C21.653,28.259 21.664,28.281 21.747,28.281H22.065C22.159,28.281 22.186,28.254 22.186,28.16C22.186,28.083 22.148,28.056 22.065,28.056H21.747Z"/></clipPath><clipPath id="clip_path_19"><path d="M22.076,28.056C21.994,28.056 21.983,28.083 21.983,28.177C21.983,28.259 21.994,28.281 22.076,28.281H22.395C22.488,28.281 22.516,28.254 22.516,28.16C22.516,28.083 22.477,28.056 22.395,28.056H22.076Z"/></clipPath><clipPath id="clip_path_20"><path d="M22.571,27.27C22.56,27.281 22.571,27.298 22.582,27.309L22.714,27.413C22.725,27.424 22.741,27.424 22.752,27.413C22.834,27.32 22.939,27.265 23.06,27.254C23.367,27.254 23.461,27.468 23.461,27.77C23.461,27.985 23.422,28.05 23.208,28.05H22.384C22.291,28.05 22.263,28.061 22.263,28.155C22.263,28.232 22.302,28.276 22.384,28.276H23.301C23.472,28.276 23.593,28.237 23.658,28.105C23.697,28.226 23.818,28.276 23.95,28.276H24.015C24.109,28.276 24.136,28.265 24.136,28.155C24.136,28.078 24.098,28.05 24.015,28.05H23.988C23.829,28.05 23.735,27.985 23.724,27.864C23.713,27.836 23.724,27.798 23.724,27.77C23.724,27.386 23.593,27.029 23.06,27.029C22.834,27.034 22.675,27.139 22.571,27.27Z"/></clipPath><clipPath id="clip_path_21"><path d="M24.373,26.304C24.362,26.304 24.345,26.304 24.345,26.331V27.897C24.345,28.001 24.307,28.045 24.213,28.045H24.027C23.933,28.045 23.906,28.083 23.906,28.177C23.906,28.259 23.944,28.281 24.027,28.281L24.241,28.292C24.493,28.292 24.587,28.171 24.587,27.919V26.326C24.587,26.315 24.587,26.298 24.559,26.298H24.373V26.304Z"/></clipPath><clipPath id="clip_path_22"><path d="M25.026,26.304C25.015,26.304 24.999,26.304 24.999,26.331V28.254C24.999,28.265 24.999,28.281 25.026,28.281H25.213C25.224,28.281 25.24,28.281 25.24,28.254V26.331C25.24,26.32 25.24,26.304 25.213,26.304H25.026Z"/></clipPath><clipPath id="clip_path_23"><path d="M26.537,27.671C26.537,27.419 26.63,27.27 26.855,27.259C27.081,27.259 27.174,27.419 27.174,27.671C27.174,27.951 27.081,28.072 26.855,28.072C26.63,28.067 26.537,27.946 26.537,27.671ZM26.284,27.671C26.284,28.122 26.498,28.309 26.839,28.309C27.185,28.309 27.399,28.122 27.399,27.671C27.399,27.221 27.185,27.034 26.839,27.034C26.498,27.034 26.284,27.215 26.284,27.671ZM26.564,26.54C26.553,26.54 26.537,26.54 26.537,26.567V26.781C26.537,26.792 26.537,26.809 26.564,26.809H26.762C26.773,26.809 26.79,26.809 26.79,26.781V26.567C26.79,26.556 26.79,26.54 26.762,26.54H26.564ZM26.921,26.54C26.91,26.54 26.894,26.54 26.894,26.567V26.781C26.894,26.792 26.894,26.809 26.921,26.809H27.119C27.13,26.809 27.147,26.809 27.147,26.781V26.567C27.147,26.556 27.147,26.54 27.119,26.54H26.921Z"/></clipPath><clipPath id="clip_path_24"><path d="M27.932,27.1C27.921,27.1 27.905,27.1 27.905,27.128V28.391C27.905,28.561 27.822,28.644 27.663,28.644H27.597C27.586,28.644 27.57,28.644 27.57,28.671V28.841C27.57,28.852 27.57,28.869 27.597,28.869H27.663C27.982,28.869 28.141,28.71 28.141,28.391V27.128C28.141,27.117 28.141,27.1 28.113,27.1H27.932Z"/></clipPath><clipPath id="clip_path_25"><path d="M28.569,26.304C28.558,26.304 28.542,26.304 28.542,26.331V28.254C28.542,28.265 28.542,28.281 28.569,28.281H28.756C28.767,28.281 28.784,28.281 28.784,28.254V26.331C28.784,26.32 28.784,26.304 28.756,26.304H28.569Z"/></clipPath><clipPath id="clip_path_26"><path d="M29.338,27.1C29.327,27.1 29.311,27.1 29.311,27.128V28.391C29.311,28.561 29.229,28.644 29.075,28.644H29.009C28.998,28.644 28.981,28.644 28.981,28.671V28.841C28.981,28.852 28.981,28.869 29.009,28.869H29.075C29.393,28.869 29.553,28.71 29.553,28.391V27.128C29.553,27.117 29.553,27.1 29.525,27.1H29.338ZM29.355,26.54C29.344,26.54 29.327,26.54 29.327,26.567V26.781C29.327,26.792 29.327,26.809 29.355,26.809H29.553C29.564,26.809 29.58,26.809 29.58,26.781V26.567C29.58,26.556 29.58,26.54 29.553,26.54H29.355Z"/></clipPath><clipPath id="clip_path_27"><path d="M30.151,27.693C30.151,27.43 30.283,27.27 30.47,27.27C30.684,27.27 30.778,27.43 30.778,27.682V28.067H30.486C30.256,28.067 30.151,27.973 30.151,27.693ZM29.91,27.693C29.91,28.144 30.124,28.292 30.47,28.292H30.789V28.358C30.789,28.583 30.657,28.638 30.508,28.638H30.151C30.14,28.638 30.124,28.638 30.124,28.666V28.836C30.124,28.847 30.124,28.863 30.151,28.863H30.525C30.833,28.863 31.03,28.704 31.03,28.347V27.671C31.03,27.221 30.833,27.034 30.476,27.034C30.162,27.034 29.91,27.243 29.91,27.693Z"/></clipPath><clipPath id="clip_path_28"><path d="M9.827,29.819C9.816,29.819 9.816,29.819 9.799,29.83L9.47,30.588H9.453L9.124,29.83C9.124,29.83 9.113,29.819 9.096,29.819H8.992C8.992,29.819 8.981,29.819 8.981,29.83H9.008V30.918C9.008,30.918 9.008,30.929 9.019,30.929H9.124C9.124,30.929 9.135,30.929 9.135,30.918V30.165L9.398,30.748C9.398,30.748 9.409,30.758 9.426,30.758H9.492C9.503,30.758 9.503,30.758 9.519,30.748L9.799,30.138H9.81V30.923C9.81,30.923 9.81,30.934 9.821,30.934H9.926C9.926,30.934 9.937,30.934 9.937,30.923V29.836C9.937,29.836 9.937,29.825 9.926,29.825H9.827V29.819Z"/></clipPath><clipPath id="clip_path_29"><path d="M10.222,29.819C10.222,29.819 10.211,29.819 10.211,29.83V30.918C10.211,30.918 10.211,30.929 10.222,30.929H10.326C10.326,30.929 10.337,30.929 10.337,30.918V29.83C10.337,29.83 10.337,29.819 10.326,29.819H10.222Z"/></clipPath><clipPath id="clip_path_30"><path d="M11.299,29.819C11.299,29.819 11.288,29.819 11.288,29.83V30.665H11.277L10.771,29.83C10.771,29.83 10.76,29.819 10.744,29.819H10.64C10.64,29.819 10.629,29.819 10.629,29.83V30.918C10.629,30.918 10.629,30.929 10.64,30.929H10.744C10.744,30.929 10.755,30.929 10.755,30.918V30.083H10.766L11.271,30.918C11.271,30.918 11.282,30.929 11.299,30.929H11.403C11.403,30.929 11.414,30.929 11.414,30.918V29.83C11.414,29.83 11.414,29.819 11.403,29.819H11.299Z"/></clipPath><clipPath id="clip_path_31"><path d="M11.694,29.819C11.694,29.819 11.683,29.819 11.683,29.83V30.918C11.683,30.918 11.683,30.929 11.694,30.929H11.799C11.799,30.929 11.81,30.929 11.81,30.918V29.83C11.81,29.83 11.81,29.819 11.799,29.819H11.694Z"/></clipPath><clipPath id="clip_path_32"><path d="M12.057,30.11C12.057,30.297 12.177,30.402 12.386,30.429H12.452C12.639,30.467 12.694,30.522 12.694,30.616C12.694,30.72 12.6,30.802 12.441,30.802C12.309,30.802 12.188,30.748 12.123,30.698C12.111,30.687 12.111,30.687 12.095,30.698L12.029,30.792C12.018,30.802 12.018,30.802 12.029,30.819C12.123,30.896 12.282,30.951 12.386,30.951C12.666,30.951 12.798,30.802 12.798,30.621C12.798,30.434 12.677,30.33 12.469,30.303L12.414,30.292C12.243,30.264 12.172,30.209 12.172,30.121C12.172,30 12.254,29.935 12.386,29.935C12.491,29.935 12.573,29.962 12.666,30.017C12.677,30.028 12.677,30.028 12.694,30.017L12.749,29.924C12.76,29.913 12.76,29.913 12.749,29.896C12.666,29.83 12.551,29.792 12.419,29.792C12.199,29.781 12.057,29.913 12.057,30.11Z"/></clipPath><clipPath id="clip_path_33"><path d="M12.958,29.819C12.958,29.819 12.947,29.819 12.947,29.83V29.935C12.947,29.935 12.947,29.946 12.958,29.946H13.265C13.276,29.946 13.276,29.946 13.276,29.956V30.912C13.276,30.912 13.276,30.923 13.287,30.923H13.408C13.408,30.923 13.419,30.923 13.419,30.912V29.956C13.419,29.946 13.419,29.946 13.43,29.946H13.738C13.738,29.946 13.749,29.946 13.749,29.935V29.83C13.749,29.83 13.749,29.819 13.738,29.819H12.958Z"/></clipPath><clipPath id="clip_path_34"><path d="M14.073,30.325V29.968C14.073,29.956 14.073,29.956 14.084,29.956H14.337C14.485,29.956 14.551,30.022 14.551,30.143C14.551,30.264 14.468,30.33 14.337,30.33L14.084,30.341C14.073,30.336 14.073,30.336 14.073,30.325ZM13.952,29.836C13.952,29.836 13.941,29.836 13.941,29.847V30.934C13.941,30.934 13.941,30.945 13.952,30.945H14.056C14.056,30.945 14.067,30.945 14.067,30.934V30.484C14.067,30.473 14.067,30.473 14.078,30.473H14.32L14.545,30.923C14.556,30.923 14.556,30.934 14.573,30.934L14.721,30.945C14.748,30.945 14.748,30.945 14.732,30.934L14.49,30.456C14.622,30.402 14.705,30.297 14.705,30.149C14.705,29.962 14.556,29.83 14.347,29.83H13.952V29.836Z"/></clipPath><clipPath id="clip_path_35"><path d="M15.518,29.836C15.507,29.836 15.507,29.836 15.49,29.847L15.238,30.325L14.985,29.847C14.974,29.847 14.974,29.836 14.958,29.836H14.837C14.826,29.836 14.809,29.836 14.826,29.847L15.155,30.484V30.923C15.155,30.923 15.155,30.934 15.166,30.934H15.287C15.287,30.934 15.298,30.934 15.298,30.923V30.484L15.628,29.847C15.628,29.847 15.628,29.836 15.617,29.836H15.518Z"/></clipPath><clipPath id="clip_path_36"><path d="M16.265,30.643C16.254,30.605 16.237,30.522 16.237,30.363C16.237,30.193 16.248,30.127 16.265,30.083C16.303,29.962 16.369,29.913 16.506,29.913C16.638,29.913 16.721,29.979 16.748,30.083C16.759,30.121 16.775,30.204 16.775,30.363C16.775,30.533 16.764,30.605 16.748,30.643C16.721,30.764 16.644,30.813 16.506,30.813C16.369,30.813 16.292,30.748 16.265,30.643ZM16.133,30.044C16.122,30.11 16.105,30.176 16.105,30.363C16.105,30.55 16.105,30.616 16.133,30.682C16.188,30.868 16.32,30.945 16.506,30.945C16.704,30.945 16.836,30.852 16.891,30.682C16.902,30.616 16.918,30.55 16.918,30.363C16.918,30.176 16.918,30.11 16.891,30.044C16.825,29.874 16.693,29.781 16.506,29.781C16.314,29.781 16.182,29.874 16.133,30.044Z"/></clipPath><clipPath id="clip_path_37"><path d="M17.154,29.819C17.154,29.819 17.144,29.819 17.144,29.83L17.154,30.907C17.154,30.907 17.154,30.918 17.166,30.918H17.27C17.27,30.918 17.281,30.918 17.281,30.907V30.456C17.281,30.445 17.281,30.445 17.292,30.445H17.742C17.742,30.445 17.753,30.445 17.753,30.434V30.33C17.753,30.33 17.753,30.319 17.742,30.319H17.292C17.281,30.319 17.281,30.319 17.281,30.308V29.979C17.281,29.968 17.281,29.968 17.292,29.968H17.825C17.825,29.968 17.836,29.968 17.836,29.956V29.852C17.836,29.852 17.836,29.841 17.825,29.841H17.154V29.819Z"/></clipPath><clipPath id="clip_path_38"><path d="M19.077,29.819C19.077,29.819 19.066,29.819 19.066,29.83V30.281C19.066,30.292 19.066,30.292 19.055,30.292H18.572C18.561,30.292 18.561,30.292 18.561,30.281V29.83C18.561,29.83 18.561,29.819 18.55,29.819H18.445C18.445,29.819 18.434,29.819 18.434,29.83V30.918C18.434,30.918 18.434,30.929 18.445,30.929H18.55C18.55,30.929 18.561,30.929 18.561,30.918V30.44C18.561,30.429 18.561,30.429 18.572,30.429H19.05C19.061,30.429 19.061,30.429 19.061,30.44V30.918C19.061,30.918 19.061,30.929 19.072,30.929H19.176C19.176,30.929 19.187,30.929 19.187,30.918V29.83C19.187,29.83 19.187,29.819 19.176,29.819H19.077Z"/></clipPath><clipPath id="clip_path_39"><path d="M19.863,30.044L20.033,30.55H19.687L19.863,30.044ZM19.797,29.819C19.797,29.819 19.786,29.819 19.786,29.83L19.39,30.918C19.39,30.918 19.39,30.929 19.401,30.929H19.506C19.517,30.929 19.517,30.929 19.533,30.918L19.626,30.676H20.077L20.17,30.918C20.181,30.918 20.181,30.929 20.198,30.929H20.302C20.313,30.929 20.313,30.929 20.313,30.918L19.929,29.83C19.918,29.83 19.918,29.819 19.901,29.819H19.797Z"/></clipPath><clipPath id="clip_path_40"><path d="M20.884,29.819C20.884,29.819 20.873,29.819 20.873,29.83V30.577C20.873,30.748 20.796,30.819 20.659,30.819C20.593,30.819 20.527,30.781 20.5,30.753C20.489,30.742 20.489,30.742 20.472,30.753L20.39,30.819C20.39,30.83 20.39,30.83 20.379,30.846C20.434,30.901 20.538,30.951 20.643,30.951C20.868,30.951 21,30.83 21,30.577V29.836C21,29.836 21,29.825 20.989,29.825H20.884V29.819Z"/></clipPath><clipPath id="clip_path_41"><path d="M21.681,29.819C21.681,29.819 21.67,29.819 21.67,29.83V30.577C21.67,30.748 21.587,30.819 21.456,30.819C21.39,30.819 21.324,30.781 21.296,30.753C21.285,30.742 21.285,30.742 21.269,30.753L21.192,30.819C21.192,30.83 21.192,30.83 21.181,30.846C21.236,30.901 21.34,30.951 21.445,30.951C21.67,30.951 21.802,30.83 21.802,30.577V29.836C21.802,29.836 21.802,29.825 21.791,29.825H21.681V29.819Z"/></clipPath><clipPath id="clip_path_42"><path d="M22.834,30.044L23.005,30.55H22.659L22.834,30.044ZM22.769,29.819C22.769,29.819 22.758,29.819 22.758,29.83L22.346,30.918C22.346,30.918 22.346,30.929 22.357,30.929H22.461C22.472,30.929 22.472,30.929 22.488,30.918L22.582,30.676H23.049L23.142,30.918C23.153,30.918 23.153,30.929 23.17,30.929H23.274C23.285,30.929 23.285,30.929 23.285,30.918L22.9,29.83C22.889,29.83 22.889,29.819 22.873,29.819H22.769Z"/></clipPath><clipPath id="clip_path_43"><path d="M24.12,29.819C24.12,29.819 24.109,29.819 24.109,29.83V30.665H24.098L23.593,29.83C23.593,29.83 23.581,29.819 23.565,29.819H23.461C23.461,29.819 23.45,29.819 23.45,29.83V30.918C23.45,30.918 23.45,30.929 23.461,30.929H23.565C23.565,30.929 23.576,30.929 23.576,30.918V30.083H23.587L24.092,30.918C24.092,30.918 24.103,30.929 24.12,30.929H24.224C24.224,30.929 24.235,30.929 24.235,30.918V29.83C24.235,29.83 24.235,29.819 24.224,29.819H24.12Z"/></clipPath><clipPath id="clip_path_44"><path d="M24.653,29.968C24.653,29.956 24.653,29.956 24.664,29.956H24.878C25.01,29.956 25.092,29.995 25.131,30.105C25.142,30.143 25.158,30.209 25.158,30.385C25.158,30.572 25.147,30.627 25.131,30.665C25.092,30.77 25.01,30.813 24.878,30.813L24.664,30.802C24.664,30.813 24.664,30.813 24.664,30.802H24.653V29.968ZM24.521,29.819C24.521,29.819 24.51,29.819 24.51,29.83V30.918C24.51,30.918 24.51,30.929 24.521,30.929H24.894C25.081,30.929 25.202,30.846 25.251,30.687C25.263,30.621 25.279,30.566 25.279,30.368C25.279,30.171 25.268,30.116 25.251,30.05C25.213,29.891 25.081,29.808 24.894,29.808H24.521V29.819Z"/></clipPath><clipPath id="clip_path_45"><path d="M26.553,29.819C26.553,29.819 26.542,29.819 26.542,29.83V30.533C26.542,30.72 26.449,30.813 26.29,30.813C26.13,30.813 26.037,30.72 26.037,30.533V29.83C26.037,29.83 26.037,29.819 26.026,29.819H25.922C25.922,29.819 25.911,29.819 25.911,29.83V30.55C25.911,30.802 26.042,30.951 26.284,30.962C26.537,30.962 26.685,30.813 26.685,30.55V29.83C26.685,29.83 26.685,29.819 26.674,29.819H26.553Z"/></clipPath><clipPath id="clip_path_46"><path d="M27.8,29.819C27.789,29.819 27.789,29.819 27.773,29.83L27.443,30.588H27.432L27.103,29.83C27.103,29.83 27.092,29.819 27.075,29.819H26.971C26.971,29.819 26.96,29.819 26.96,29.83V30.918C26.96,30.918 26.96,30.929 26.971,30.929H27.075C27.075,30.929 27.086,30.929 27.086,30.918V30.138H27.097L27.377,30.748C27.377,30.748 27.388,30.758 27.405,30.758H27.471C27.482,30.758 27.482,30.758 27.498,30.748L27.778,30.138H27.789V30.923C27.789,30.923 27.789,30.934 27.8,30.934H27.905C27.905,30.934 27.916,30.934 27.916,30.923V29.836C27.916,29.836 27.916,29.825 27.905,29.825H27.8V29.819Z"/></clipPath><clipPath id="clip_path_47"><path d="M28.317,30.325V29.968C28.317,29.956 28.317,29.956 28.328,29.956H28.591C28.74,29.956 28.806,30.022 28.806,30.143C28.806,30.264 28.723,30.33 28.591,30.33L28.328,30.341C28.317,30.336 28.317,30.336 28.317,30.325ZM28.185,29.836C28.185,29.836 28.174,29.836 28.174,29.847V30.934C28.174,30.934 28.174,30.945 28.185,30.945H28.289C28.289,30.945 28.3,30.945 28.3,30.934V30.484C28.3,30.473 28.3,30.473 28.311,30.473H28.564L28.789,30.923C28.8,30.923 28.8,30.934 28.816,30.934L28.948,30.945C28.976,30.945 28.976,30.945 28.959,30.934L28.718,30.456C28.85,30.402 28.932,30.297 28.932,30.149C28.932,29.962 28.784,29.83 28.575,29.83H28.185V29.836Z"/></clipPath><clipPath id="clip_path_48"><path d="M29.553,30.044L29.723,30.55H29.377L29.553,30.044ZM29.487,29.819C29.487,29.819 29.476,29.819 29.476,29.83L29.08,30.918C29.08,30.918 29.08,30.929 29.091,30.929H29.196C29.206,30.929 29.206,30.929 29.223,30.918L29.316,30.676H29.767L29.86,30.918C29.871,30.918 29.871,30.929 29.888,30.929H29.992C30.003,30.929 30.003,30.929 30.003,30.918L29.618,29.83C29.608,29.83 29.608,29.819 29.591,29.819H29.487Z"/></clipPath><clipPath id="clip_path_49"><path d="M30.8,29.819C30.8,29.819 30.789,29.819 30.789,29.83V30.281C30.789,30.292 30.789,30.292 30.778,30.292H30.3C30.289,30.292 30.289,30.292 30.289,30.281V29.83C30.289,29.83 30.289,29.819 30.278,29.819H30.162C30.162,29.819 30.151,29.819 30.151,29.83H30.162V30.918C30.162,30.918 30.162,30.929 30.173,30.929H30.278C30.278,30.929 30.289,30.929 30.289,30.918V30.44C30.289,30.429 30.289,30.429 30.3,30.429H30.778C30.789,30.429 30.789,30.429 30.789,30.44V30.918C30.789,30.918 30.789,30.929 30.8,30.929H30.893C30.893,30.929 30.904,30.929 30.904,30.918V29.83C30.904,29.83 30.904,29.819 30.893,29.819H30.8Z"/></clipPath><clipPath id="clip_path_50"><path d="M20.071,6.429C17.27,11.247 13.458,12.351 13.419,12.378L13.364,12.406L13.353,14.037H13.419L13.617,12.538C14.056,12.164 17.534,11.939 20.176,7.468C22.779,11.939 26.471,12.181 26.932,12.538L27.119,14.054H27.185V12.422L27.13,12.384C27.092,12.356 23.027,11.258 20.28,6.435L20.176,6.248L20.071,6.429Z"/></clipPath><clipPath id="clip_path_51"><path d="M19.209,15.998H15.677V16.636H19.209V15.998Z"/></clipPath><clipPath id="clip_path_52"><path d="M19.22,15.268H15.836V15.905H19.22V15.268Z"/></clipPath><clipPath id="clip_path_53"><path d="M15.583,23.502C15.012,24.035 13.672,25.254 13.672,25.254C20.044,24.112 24.213,21.03 26.68,18.284C20.615,22.689 16.858,23.288 15.583,23.502Z"/></clipPath><clipPath id="clip_path_54"><path d="M20.456,23.211C22.263,24.073 24.362,24.793 26.773,25.227C26.773,25.227 25.433,24.007 24.861,23.475C24.279,23.381 23.164,23.194 21.544,22.612C21.362,22.717 21.027,22.914 20.456,23.211Z"/></clipPath><clipPath id="clip_path_55"><path d="M19.022,22.453C19.264,22.36 19.659,22.2 20.082,22.013C18.368,21.255 16.27,20.074 13.765,18.256C15.04,19.679 16.77,21.178 19.022,22.453Z"/></clipPath><clipPath id="clip_path_56"><path d="M15.545,16.729V17.591C17.391,18.256 19.22,18.547 19.209,18.536V16.729H15.545Z"/></clipPath><clipPath id="clip_path_57"><path d="M18.638,11.236C18.6,11.247 18.572,11.274 18.572,11.313C18.572,11.34 18.6,11.379 18.627,11.379L18.616,11.483C18.588,11.494 18.55,11.538 18.55,11.576C18.55,11.604 18.577,11.642 18.605,11.659L18.594,11.763C18.556,11.774 18.528,11.818 18.528,11.857C18.528,11.895 18.556,11.922 18.583,11.95V11.988C18.583,11.988 18.435,12.466 17.16,13.158C16.325,13.609 16.073,14.328 15.99,14.762C15.952,15.015 15.963,15.174 15.963,15.174H19.204V15.043V14.762V13.636C19.204,13.636 19.764,13.488 20.346,13.307C19.325,12.697 18.726,12.005 18.726,12.005V11.966C18.753,11.939 18.781,11.911 18.781,11.873C18.781,11.818 18.753,11.791 18.715,11.769L18.704,11.664C18.731,11.653 18.759,11.609 18.759,11.582C18.759,11.543 18.731,11.505 18.693,11.488L18.682,11.384C18.709,11.373 18.748,11.346 18.748,11.318C18.748,11.28 18.72,11.252 18.682,11.241L18.671,11.082L18.638,11.236Z"/></clipPath><clipPath id="clip_path_58"><path d="M13.37,16.701C13.529,16.833 13.82,17.059 13.82,17.059C16.396,18.932 18.544,20.096 20.275,20.871C21.989,20.113 24.125,18.948 26.658,17.103C26.806,16.998 26.987,16.85 27.174,16.701C26.63,16.581 25.702,16.822 25.702,16.822C25.702,16.822 24.746,17.723 23.988,17.872C23.247,18.031 22.302,18.003 21.522,18.124C20.736,18.245 20.275,19.025 20.275,19.025C20.275,19.025 19.824,18.24 19.028,18.124C18.242,18.003 17.303,18.031 16.556,17.872C15.814,17.712 14.842,16.822 14.842,16.822C14.842,16.822 14.249,16.663 13.743,16.663C13.606,16.663 13.48,16.674 13.37,16.701Z"/></clipPath></defs><path fill="#ffffffff" d="M20,20m-19.75,0a19.75,19.75 0,1 1,39.5 0a19.75,19.75 0,1 1,-39.5 0" stroke="#e6e6e6ff" stroke-width="0.5" id="path_0"/><g id="g_0"><path fill="@drawable/$partner_ministry_of_hajj_and_umrah__0" d="M22.093,14.142H19.226V19.41H22.093V14.142Z" clip-path="url(#clip_path_0)"/></g><g id="g_1"><path fill="@drawable/$partner_ministry_of_hajj_and_umrah__1" d="M22.093,12.84H19.226V14.658H22.093V12.84Z" clip-path="url(#clip_path_1)"/></g><g id="g_2"><path fill="@drawable/$partner_ministry_of_hajj_and_umrah__2" d="M24.96,14.142H22.093V18.772H24.96V14.142Z" clip-path="url(#clip_path_2)"/></g><g id="g_3"><path fill="@drawable/$partner_ministry_of_hajj_and_umrah__3" d="M24.96,12.84H22.093V14.537H24.96V12.84Z" clip-path="url(#clip_path_3)"/></g><g id="g_4"><path fill="@drawable/$partner_ministry_of_hajj_and_umrah__4" d="M10.101,26.54H8.986V28.303H10.101V26.54Z" clip-path="url(#clip_path_4)"/></g><g id="g_5"><path fill="@drawable/$partner_ministry_of_hajj_and_umrah__5" d="M11.26,27.1H10.277V28.863H11.26V27.1Z" clip-path="url(#clip_path_5)"/></g><g id="g_6"><path fill="@drawable/$partner_ministry_of_hajj_and_umrah__6" d="M11.59,28.056H11.057V28.281H11.59V28.056Z" clip-path="url(#clip_path_6)"/></g><g id="g_7"><path fill="@drawable/$partner_ministry_of_hajj_and_umrah__7" d="M11.909,28.056H11.376V28.281H11.909V28.056Z" clip-path="url(#clip_path_7)"/></g><g id="g_8"><path fill="@drawable/$partner_ministry_of_hajj_and_umrah__8" d="M12.244,28.056H11.711V28.281H12.244V28.056Z" clip-path="url(#clip_path_8)"/></g><g id="g_9"><path fill="@drawable/$partner_ministry_of_hajj_and_umrah__9" d="M13.952,27.045H12.002V28.32H13.952V27.045Z" clip-path="url(#clip_path_9)"/></g><g id="g_10"><path fill="@drawable/$partner_ministry_of_hajj_and_umrah__10" d="M15.534,27.078H13.727V28.303H15.534V27.078Z" clip-path="url(#clip_path_10)"/></g><g id="g_11"><path fill="@drawable/$partner_ministry_of_hajj_and_umrah__11" d="M15.853,28.056H15.32V28.281H15.853V28.056Z" clip-path="url(#clip_path_11)"/></g><g id="g_12"><path fill="@drawable/$partner_ministry_of_hajj_and_umrah__12" d="M16.171,28.056H15.638V28.281H16.171V28.056Z" clip-path="url(#clip_path_12)"/></g><g id="g_13"><path fill="@drawable/$partner_ministry_of_hajj_and_umrah__13" d="M16.605,26.304H15.93V28.298H16.605V26.304Z" clip-path="url(#clip_path_13)"/></g><g id="g_14"><path fill="@drawable/$partner_ministry_of_hajj_and_umrah__14" d="M17.27,26.304H17.034V28.281H17.27V26.304Z" clip-path="url(#clip_path_14)"/></g><g id="g_15"><path fill="@drawable/$partner_ministry_of_hajj_and_umrah__15" d="M18.758,27.034H17.643V28.869H18.758V27.034Z" clip-path="url(#clip_path_15)"/></g><g id="g_16"><path fill="@drawable/$partner_ministry_of_hajj_and_umrah__16" d="M21.533,27.018H19.753V28.863H21.533V27.018Z" clip-path="url(#clip_path_16)"/></g><g id="g_17"><path fill="@drawable/$partner_ministry_of_hajj_and_umrah__17" d="M21.868,28.056H21.335V28.281H21.868V28.056Z" clip-path="url(#clip_path_17)"/></g><g id="g_18"><path fill="@drawable/$partner_ministry_of_hajj_and_umrah__18" d="M22.186,28.056H21.653V28.281H22.186V28.056Z" clip-path="url(#clip_path_18)"/></g><g id="g_19"><path fill="@drawable/$partner_ministry_of_hajj_and_umrah__19" d="M22.516,28.056H21.983V28.281H22.516V28.056Z" clip-path="url(#clip_path_19)"/></g><g id="g_20"><path fill="@drawable/$partner_ministry_of_hajj_and_umrah__20" d="M24.136,27.034H22.263V28.281H24.136V27.034Z" clip-path="url(#clip_path_20)"/></g><g id="g_21"><path fill="@drawable/$partner_ministry_of_hajj_and_umrah__21" d="M24.587,26.304H23.911V28.298H24.587V26.304Z" clip-path="url(#clip_path_21)"/></g><g id="g_22"><path fill="@drawable/$partner_ministry_of_hajj_and_umrah__22" d="M25.24,26.304H24.999V28.281H25.24V26.304Z" clip-path="url(#clip_path_22)"/></g><g id="g_23"><path fill="@drawable/$partner_ministry_of_hajj_and_umrah__23" d="M27.399,26.54H26.284V28.303H27.399V26.54Z" clip-path="url(#clip_path_23)"/></g><g id="g_24"><path fill="@drawable/$partner_ministry_of_hajj_and_umrah__24" d="M28.146,27.1H27.575V28.863H28.146V27.1Z" clip-path="url(#clip_path_24)"/></g><g id="g_25"><path fill="@drawable/$partner_ministry_of_hajj_and_umrah__25" d="M28.784,26.304H28.542V28.281H28.784V26.304Z" clip-path="url(#clip_path_25)"/></g><g id="g_26"><path fill="@drawable/$partner_ministry_of_hajj_and_umrah__26" d="M29.58,26.54H28.981V28.863H29.58V26.54Z" clip-path="url(#clip_path_26)"/></g><g id="g_27"><path fill="@drawable/$partner_ministry_of_hajj_and_umrah__27" d="M31.025,27.034H29.91V28.869H31.025V27.034Z" clip-path="url(#clip_path_27)"/></g><g id="g_28"><path fill="@drawable/$partner_ministry_of_hajj_and_umrah__28" d="M9.942,29.819H8.975V30.934H9.942V29.819Z" clip-path="url(#clip_path_28)"/></g><g id="g_29"><path fill="@drawable/$partner_ministry_of_hajj_and_umrah__29" d="M10.343,29.819H10.211V30.934H10.343V29.819Z" clip-path="url(#clip_path_29)"/></g><g id="g_30"><path fill="@drawable/$partner_ministry_of_hajj_and_umrah__30" d="M11.42,29.819H10.623V30.934H11.42V29.819Z" clip-path="url(#clip_path_30)"/></g><g id="g_31"><path fill="@drawable/$partner_ministry_of_hajj_and_umrah__31" d="M11.815,29.819H11.683V30.934H11.815V29.819Z" clip-path="url(#clip_path_31)"/></g><g id="g_32"><path fill="@drawable/$partner_ministry_of_hajj_and_umrah__32" d="M12.798,29.781H12.012V30.951H12.798V29.781Z" clip-path="url(#clip_path_32)"/></g><g id="g_33"><path fill="@drawable/$partner_ministry_of_hajj_and_umrah__33" d="M13.754,29.819H12.947V30.934H13.754V29.819Z" clip-path="url(#clip_path_33)"/></g><g id="g_34"><path fill="@drawable/$partner_ministry_of_hajj_and_umrah__34" d="M14.748,29.836H13.941V30.951H14.748V29.836Z" clip-path="url(#clip_path_34)"/></g><g id="g_35"><path fill="@drawable/$partner_ministry_of_hajj_and_umrah__35" d="M15.638,29.836H14.814V30.94H15.638V29.836Z" clip-path="url(#clip_path_35)"/></g><g id="g_36"><path fill="@drawable/$partner_ministry_of_hajj_and_umrah__36" d="M16.913,29.781H16.105V30.951H16.913V29.781Z" clip-path="url(#clip_path_36)"/></g><g id="g_37"><path fill="@drawable/$partner_ministry_of_hajj_and_umrah__37" d="M17.841,29.819H17.138V30.923H17.841V29.819Z" clip-path="url(#clip_path_37)"/></g><g id="g_38"><path fill="@drawable/$partner_ministry_of_hajj_and_umrah__38" d="M19.198,29.819H18.429V30.934H19.198V29.819Z" clip-path="url(#clip_path_38)"/></g><g id="g_39"><path fill="@drawable/$partner_ministry_of_hajj_and_umrah__39" d="M20.313,29.819H19.385V30.934H20.313V29.819Z" clip-path="url(#clip_path_39)"/></g><g id="g_40"><path fill="@drawable/$partner_ministry_of_hajj_and_umrah__40" d="M21.005,29.819H20.379V30.945H21.005V29.819Z" clip-path="url(#clip_path_40)"/></g><g id="g_41"><path fill="@drawable/$partner_ministry_of_hajj_and_umrah__41" d="M21.802,29.819H21.176V30.945H21.802V29.819Z" clip-path="url(#clip_path_41)"/></g><g id="g_42"><path fill="@drawable/$partner_ministry_of_hajj_and_umrah__42" d="M23.29,29.819H22.346V30.934H23.29V29.819Z" clip-path="url(#clip_path_42)"/></g><g id="g_43"><path fill="@drawable/$partner_ministry_of_hajj_and_umrah__43" d="M24.241,29.819H23.444V30.934H24.241V29.819Z" clip-path="url(#clip_path_43)"/></g><g id="g_44"><path fill="@drawable/$partner_ministry_of_hajj_and_umrah__44" d="M25.279,29.819H24.51V30.934H25.279V29.819Z" clip-path="url(#clip_path_44)"/></g><g id="g_45"><path fill="@drawable/$partner_ministry_of_hajj_and_umrah__45" d="M26.669,29.819H25.9V30.962H26.669V29.819Z" clip-path="url(#clip_path_45)"/></g><g id="g_46"><path fill="@drawable/$partner_ministry_of_hajj_and_umrah__46" d="M27.916,29.819H26.949V30.934H27.916V29.819Z" clip-path="url(#clip_path_46)"/></g><g id="g_47"><path fill="@drawable/$partner_ministry_of_hajj_and_umrah__47" d="M28.981,29.836H28.174V30.951H28.981V29.836Z" clip-path="url(#clip_path_47)"/></g><g id="g_48"><path fill="@drawable/$partner_ministry_of_hajj_and_umrah__48" d="M30.003,29.819H29.075V30.934H30.003V29.819Z" clip-path="url(#clip_path_48)"/></g><g id="g_49"><path fill="@drawable/$partner_ministry_of_hajj_and_umrah__49" d="M30.92,29.819H30.151V30.934H30.92V29.819Z" clip-path="url(#clip_path_49)"/></g><g id="g_50"><path fill="@drawable/$partner_ministry_of_hajj_and_umrah__50" d="M27.185,6.243H13.353V14.048H27.185V6.243Z" clip-path="url(#clip_path_50)"/></g><g id="g_51"><path fill="@drawable/$partner_ministry_of_hajj_and_umrah__51" d="M19.209,15.998H15.677V16.636H19.209V15.998Z" clip-path="url(#clip_path_51)"/></g><g id="g_52"><path fill="@drawable/$partner_ministry_of_hajj_and_umrah__52" d="M19.22,15.268H15.836V15.905H19.22V15.268Z" clip-path="url(#clip_path_52)"/></g><g id="g_53"><path fill="@drawable/$partner_ministry_of_hajj_and_umrah__53" d="M26.68,18.284H13.672V25.254H26.68V18.284Z" clip-path="url(#clip_path_53)"/></g><g id="g_54"><path fill="@drawable/$partner_ministry_of_hajj_and_umrah__54" d="M26.773,22.612H20.456V25.227H26.773V22.612Z" clip-path="url(#clip_path_54)"/></g><g id="g_55"><path fill="@drawable/$partner_ministry_of_hajj_and_umrah__55" d="M20.082,18.256H13.765V22.453H20.082V18.256Z" clip-path="url(#clip_path_55)"/></g><g id="g_56"><path fill="@drawable/$partner_ministry_of_hajj_and_umrah__56" d="M19.22,16.729H15.545V18.547H19.22V16.729Z" clip-path="url(#clip_path_56)"/></g><g id="g_57"><path fill="@drawable/$partner_ministry_of_hajj_and_umrah__57" d="M20.341,11.076H15.946V15.18H20.341V11.076Z" clip-path="url(#clip_path_57)"/></g><g id="g_58"><path fill="@drawable/$partner_ministry_of_hajj_and_umrah__58" d="M27.174,16.586H13.37V20.876H27.174V16.586Z" clip-path="url(#clip_path_58)"/></g></svg>