<svg id="vector" xmlns="http://www.w3.org/2000/svg" width="64.0d" height="64.0d" viewBox="0 0 64.0 64.0"><path fill="#ffffffff" d="M32,32m-31.75,0a31.75,31.75 0,1 1,63.5 0a31.75,31.75 0,1 1,-63.5 0" stroke="#e6e6e6ff" stroke-width="0.5" id="path_0"/><path fill="@drawable/$partner_ja__0" d="M15.867,46.131H46.923C50.015,46.131 52.521,43.534 52.521,40.34V30.284C52.521,22.559 47.271,18.977 46.675,18.598L46.042,18.2C45.087,17.565 43.857,17.555 42.894,18.181L42.224,18.598C41.939,18.778 40.581,19.697 39.25,21.46C38.25,15.527 34.13,12.75 33.597,12.418L32.872,11.963C32.423,11.698 31.918,11.565 31.404,11.565C30.853,11.565 30.303,11.717 29.834,12.02L29.192,12.418C28.669,12.75 24.548,15.527 23.548,21.451C22.208,19.688 20.832,18.768 20.547,18.588L19.914,18.19C18.959,17.565 17.739,17.565 16.785,18.19L16.133,18.598C15.536,18.977 10.278,22.55 10.278,30.294V40.34C10.278,43.525 12.783,46.122 15.867,46.131ZM33.808,39.591V24.114C33.808,23.924 33.799,23.725 33.79,23.517V23.498C33.79,23.488 33.79,23.469 33.79,23.46C33.781,23.289 33.772,23.119 33.744,22.948C33.542,21.081 32.707,19.337 31.404,18.029C30.091,19.337 29.265,21.071 29.064,22.948C29.045,23.119 29.027,23.289 29.018,23.46C29.018,23.479 29.018,23.498 29.018,23.517C29.009,23.687 28.999,23.877 28.999,24.114V27.479C28.999,29.042 27.788,30.322 26.274,30.35C26.219,30.35 26.173,30.312 26.164,30.256C26.164,30.256 26.164,30.256 26.164,30.246V24.104C26.164,17.802 30.486,15.006 30.67,14.901L31.358,14.475C31.385,14.456 31.431,14.456 31.459,14.465L32.138,14.892C32.322,15.006 36.644,17.783 36.644,24.095V39.468C36.644,39.895 36.974,40.236 37.387,40.245H46.115C46.528,40.245 46.858,39.895 46.858,39.468V30.265C46.858,30.066 46.849,29.867 46.84,29.668C46.84,29.658 46.84,29.639 46.84,29.63V29.611C46.831,29.421 46.813,29.251 46.794,29.099C46.491,26.521 45.207,24.92 44.445,24.18C43.701,24.9 42.407,26.512 42.105,29.099C42.086,29.251 42.077,29.421 42.059,29.611V29.63C42.059,29.639 42.059,29.658 42.059,29.668C42.049,29.858 42.04,30.056 42.04,30.265V36.407C42.04,36.464 41.994,36.511 41.939,36.511C40.425,36.483 39.214,35.203 39.214,33.639L39.204,30.265C39.204,24.114 43.261,21.356 43.72,21.062L44.399,20.635C44.417,20.626 44.436,20.617 44.454,20.617C44.481,20.617 44.5,20.626 44.518,20.635L45.188,21.052C45.372,21.166 49.694,23.972 49.694,30.256V40.302C49.694,41.885 48.455,43.165 46.923,43.174H26.265C26.209,43.174 26.164,43.127 26.164,43.07C26.182,41.506 27.412,40.245 28.926,40.236H34.038C33.836,40.113 33.818,39.904 33.808,39.591ZM13.113,30.294C13.113,24.019 17.436,21.204 17.62,21.09L18.299,20.664C18.317,20.654 18.335,20.645 18.354,20.645C18.372,20.645 18.39,20.654 18.409,20.664L19.079,21.081C19.262,21.195 23.585,23.962 23.585,30.284V43.098C23.585,43.155 23.539,43.202 23.484,43.202H15.867C14.334,43.193 13.104,41.913 13.104,40.331L13.113,30.294Z" id="path_1"/><path fill="@drawable/$partner_ja__1" d="M16.674,40.264H20.749V30.293C20.749,30.104 20.749,29.905 20.731,29.696V29.677C20.731,29.658 20.731,29.649 20.731,29.63C20.712,29.431 20.703,29.27 20.685,29.128C20.382,26.549 19.097,24.948 18.345,24.208C17.601,24.929 16.307,26.54 16.004,29.128C15.986,29.289 15.968,29.469 15.958,29.639V29.687C15.94,29.905 15.94,30.104 15.94,30.293V39.496C15.94,39.923 16.271,40.264 16.674,40.264Z" id="path_2"/><path fill="#ffffffff" d="M26.164,43.098C26.164,43.155 26.21,43.202 26.265,43.202H46.923C48.455,43.193 49.694,41.913 49.694,40.331V30.284C49.694,23.991 45.372,21.195 45.188,21.081L44.518,20.664C44.5,20.654 44.472,20.645 44.454,20.645C44.436,20.645 44.417,20.654 44.399,20.664L43.72,21.09C43.261,21.384 39.205,24.152 39.205,30.293L39.214,33.667C39.214,35.231 40.425,36.511 41.939,36.539C41.994,36.539 42.04,36.492 42.04,36.435V30.293C42.04,30.075 42.05,29.886 42.059,29.696C42.059,29.687 42.059,29.677 42.059,29.658V29.639C42.068,29.45 42.086,29.279 42.105,29.128C42.408,26.54 43.701,24.938 44.445,24.209C45.197,24.948 46.482,26.55 46.794,29.128C46.813,29.279 46.822,29.45 46.84,29.639V29.658C46.84,29.668 46.84,29.687 46.84,29.696C46.849,29.895 46.858,30.094 46.858,30.293V39.496C46.858,39.923 46.528,40.264 46.115,40.274H37.397C36.984,40.274 36.653,39.923 36.653,39.496V24.123C36.653,17.802 32.331,15.024 32.147,14.92L31.468,14.494C31.431,14.475 31.395,14.475 31.367,14.503L30.679,14.93C30.495,15.043 26.173,17.83 26.173,24.133V30.274C26.173,30.331 26.219,30.379 26.274,30.379C27.788,30.35 29,29.071 29,27.507V24.142C29,23.905 29.009,23.716 29.018,23.545C29.018,23.526 29.018,23.507 29.018,23.488C29.027,23.318 29.045,23.147 29.064,22.976C29.266,21.109 30.092,19.365 31.404,18.057C32.716,19.365 33.542,21.1 33.744,22.976C33.772,23.147 33.781,23.318 33.79,23.488C33.79,23.498 33.79,23.517 33.79,23.526V23.545C33.799,23.754 33.808,23.953 33.808,24.142V39.62C33.808,39.923 33.827,40.132 34.029,40.293H28.935C27.412,40.283 26.182,41.544 26.164,43.098Z" id="path_3"/><path fill="#ffffffff" d="M15.867,43.202H23.484C23.539,43.202 23.585,43.155 23.585,43.098V30.294C23.585,23.972 19.262,21.204 19.079,21.09L18.409,20.673C18.39,20.664 18.372,20.654 18.354,20.654C18.335,20.654 18.317,20.654 18.299,20.673L17.62,21.1C17.436,21.214 13.114,24.029 13.114,30.303V40.35C13.104,41.913 14.343,43.202 15.867,43.202ZM15.931,30.294C15.931,30.094 15.931,29.895 15.949,29.687V29.639C15.958,29.469 15.977,29.298 15.995,29.128C16.298,26.54 17.592,24.938 18.335,24.209C19.088,24.948 20.373,26.55 20.676,29.128C20.694,29.27 20.703,29.431 20.722,29.63C20.722,29.649 20.722,29.659 20.722,29.677V29.696C20.731,29.905 20.74,30.104 20.74,30.294V40.274H16.665C16.252,40.274 15.922,39.923 15.922,39.497V30.294H15.931Z" id="path_4"/><path fill="#06a9b6ff" d="M14.435,13.205C14.435,14.115 15.151,14.854 16.032,14.854C16.913,14.854 17.629,14.115 17.629,13.205C17.629,12.295 16.913,11.556 16.032,11.556C15.151,11.556 14.435,12.295 14.435,13.205Z" id="path_5"/><path fill="#06a9b6ff" d="M19.07,13.205C19.07,14.115 19.785,14.854 20.667,14.844C21.548,14.844 22.263,14.105 22.254,13.195C22.254,12.285 21.538,11.556 20.657,11.556C19.785,11.556 19.07,12.285 19.07,13.205Z" id="path_6"/><path fill="#402f82ff" d="M42.857,50.69C42.857,51.6 43.564,52.339 44.445,52.339C45.326,52.339 46.042,51.609 46.042,50.699C46.042,49.79 45.335,49.05 44.454,49.05C44.454,49.05 44.454,49.05 44.445,49.05C43.573,49.05 42.857,49.789 42.857,50.69Z" id="path_7"/></svg>