<svg id="vector" xmlns="http://www.w3.org/2000/svg" width="64.0d" height="64.0d" viewBox="0 0 64.0 64.0"><path fill="#ffffffff" d="M32,32m-31.75,0a31.75,31.75 0,1 1,63.5 0a31.75,31.75 0,1 1,-63.5 0" stroke="#e6e6e6ff" stroke-width="0.5" id="path_0"/><path fill="#36b8a0ff" d="M29.364,29.314L21.208,23.367C20.699,22.996 19.989,23.103 19.622,23.618C19.291,24.073 19.35,24.707 19.74,25.101L25.268,30.654L19.575,35.404C19.089,35.811 19.03,36.529 19.433,37.02C19.788,37.45 20.392,37.558 20.865,37.283L29.21,32.377C29.435,32.245 29.625,32.078 29.767,31.862C30.358,31.049 30.181,29.912 29.364,29.314Z" id="path_1"/><path fill="#015363ff" d="M42.432,37.439L34.016,32.413C33.708,32.233 33.353,32.138 33.009,32.162C32.003,32.209 31.423,32.844 31.423,33.933C31.423,37.678 31.435,45.097 31.435,48.914C31.459,49.5 31.909,49.979 32.489,50.003C33.116,50.039 33.649,49.56 33.696,48.938L34.844,36.9L41.449,39.497C42.029,39.724 42.692,39.437 42.917,38.851C43.118,38.324 42.917,37.726 42.432,37.439Z" id="path_2"/><path fill="#3c7fccff" d="M43.403,23.726C43.237,23.115 42.61,22.756 42.006,22.924L34.797,24.934L33.684,16.45C33.578,15.828 32.986,15.409 32.37,15.517C31.826,15.613 31.424,16.091 31.435,16.654C31.459,19.382 31.435,24.838 31.435,27.567C31.435,29.05 32.927,29.637 33.838,29.218L42.775,25.066C43.284,24.826 43.545,24.264 43.403,23.726Z" id="path_3"/></svg>