<svg id="vector" xmlns="http://www.w3.org/2000/svg" width="64.0d" height="64.0d" viewBox="0 0 64.0 64.0"><path fill="#ffffffff" d="M32,32m-31.75,0a31.75,31.75 0,1 1,63.5 0a31.75,31.75 0,1 1,-63.5 0" stroke="#e6e6e6ff" stroke-width="0.5" id="path_0"/><path fill="@drawable/$partner_sago__0" d="M59.209,32.473C59.209,47.124 47.027,59 32,59C16.973,59 4.791,47.124 4.791,32.473C4.791,17.823 16.973,5.947 32,5.947C47.027,5.947 59.209,17.823 59.209,32.473ZM6.329,32.473C6.329,46.295 17.823,57.5 32,57.5C46.178,57.5 57.671,46.295 57.671,32.473C57.671,18.651 46.178,7.447 32,7.447C17.823,7.447 6.329,18.651 6.329,32.473Z" id="path_1"/><path fill="@drawable/$partner_sago__1" d="M6.728,32.474a25.272,24.633 0,1 0,50.544 0a25.272,24.633 0,1 0,-50.544 0z" id="path_2"/><path fill="#fffdfcff" d="M48.867,44.896C48.716,44.927 48.566,44.958 48.386,44.994C48.331,45.011 48.306,45.023 48.282,45.035C48.231,45.038 48.179,45.041 48.091,45.049C47.547,45.171 47.036,45.274 46.532,45.406C45.835,45.589 45.144,45.794 44.431,45.99C43.867,46.162 43.32,46.324 42.779,46.508C40.047,47.439 37.423,48.617 34.882,49.984C34.816,50.019 34.758,50.067 34.658,50.135C34.823,50.214 34.943,50.274 35.064,50.33C35.509,50.535 35.954,50.738 36.407,50.956C37.121,51.343 37.829,51.715 38.537,52.086C39.011,52.358 39.485,52.63 39.994,52.922C39.793,53.203 39.609,53.462 39.421,53.736C38.965,54.185 38.513,54.619 38.061,55.052C38.032,55.08 37.998,55.102 37.964,55.125C37.308,55.571 37.291,55.57 36.673,55.087C36.457,54.919 36.239,54.753 35.998,54.568C34.696,53.67 33.414,52.793 32.142,51.903C31.927,51.752 31.769,51.773 31.564,51.912C30.661,52.53 29.742,53.124 28.844,53.749C28.31,54.12 27.806,54.533 27.288,54.927C27.084,55.08 26.869,55.221 26.68,55.391C26.563,55.497 26.457,55.509 26.338,55.44C26.048,55.271 25.764,55.094 25.463,54.915C25.044,54.484 24.64,54.058 24.216,53.609C24.084,53.434 23.971,53.283 23.856,53.116C23.817,53.033 23.779,52.964 23.756,52.89C23.837,52.84 23.904,52.796 23.986,52.746C24.301,52.57 24.6,52.401 24.914,52.229C25.033,52.163 25.135,52.1 25.252,52.035C25.319,51.994 25.37,51.956 25.434,51.917C25.46,51.904 25.472,51.89 25.5,51.879C25.58,51.848 25.645,51.815 25.724,51.781C25.749,51.764 25.76,51.747 25.787,51.73C25.972,51.635 26.139,51.538 26.323,51.443C26.475,51.379 26.61,51.315 26.744,51.249C27.355,50.949 27.966,50.648 28.596,50.346C28.755,50.281 28.896,50.218 29.075,50.137C28.971,50.066 28.922,50.023 28.865,49.996C27.469,49.314 26.09,48.596 24.672,47.962C22.462,46.974 20.183,46.169 17.835,45.573C16.883,45.331 15.917,45.146 14.947,44.926C14.911,44.91 14.885,44.903 14.858,44.88C14.858,44.842 14.858,44.821 14.879,44.799C14.968,44.803 15.035,44.807 15.112,44.822C15.178,44.839 15.236,44.845 15.313,44.853C15.368,44.854 15.404,44.853 15.459,44.86C15.805,44.905 16.133,44.943 16.472,44.994C16.54,45.012 16.598,45.015 16.677,45.024C16.778,45.033 16.86,45.038 16.952,45.053C16.989,45.065 17.017,45.067 17.064,45.075C17.569,45.151 18.053,45.22 18.55,45.306C18.69,45.332 18.82,45.33 18.945,45.354C19.325,45.427 19.703,45.512 20.083,45.588C20.456,45.663 20.831,45.728 21.203,45.804C21.608,45.886 22.011,45.976 22.426,46.074C22.479,46.092 22.52,46.098 22.579,46.111C22.704,46.134 22.812,46.15 22.93,46.18C23.008,46.209 23.075,46.224 23.16,46.248C23.327,46.288 23.478,46.318 23.641,46.357C23.676,46.369 23.697,46.373 23.732,46.387C24.046,46.477 24.345,46.555 24.663,46.639C24.717,46.644 24.754,46.645 24.805,46.649C24.856,46.671 24.892,46.689 24.937,46.717C24.975,46.73 25.004,46.733 25.049,46.741C25.119,46.758 25.172,46.77 25.242,46.786C25.279,46.791 25.301,46.79 25.341,46.793C25.492,46.841 25.625,46.884 25.775,46.933C25.812,46.936 25.834,46.934 25.872,46.94C26.006,46.989 26.125,47.03 26.261,47.076C26.316,47.08 26.352,47.078 26.401,47.083C26.435,47.107 26.456,47.125 26.488,47.153C26.526,47.166 26.554,47.168 26.6,47.175C26.653,47.18 26.689,47.18 26.733,47.195C26.785,47.213 26.829,47.217 26.887,47.229C26.937,47.255 26.973,47.273 27.02,47.301C27.059,47.313 27.087,47.314 27.128,47.32C27.165,47.337 27.189,47.349 27.23,47.366C27.285,47.369 27.321,47.368 27.37,47.373C27.404,47.397 27.425,47.415 27.458,47.444C27.513,47.459 27.557,47.463 27.615,47.469C27.651,47.472 27.672,47.472 27.701,47.487C27.754,47.506 27.798,47.509 27.854,47.52C27.887,47.545 27.908,47.563 27.944,47.593C28.167,47.667 28.378,47.725 28.585,47.794C29.226,48.007 29.866,48.225 30.52,48.451C30.934,48.61 31.331,48.765 31.733,48.904C31.82,48.933 31.935,48.93 32.022,48.9C33.227,48.481 34.428,48.051 35.633,47.631C36,47.503 36.376,47.402 36.747,47.284C37.154,47.155 37.555,47.008 37.966,46.893C38.444,46.76 38.932,46.656 39.414,46.534C39.691,46.463 39.963,46.375 40.241,46.305C40.563,46.225 40.889,46.156 41.234,46.083C41.533,46.012 41.808,45.929 42.089,45.872C42.404,45.808 42.726,45.779 43.041,45.713C43.451,45.627 43.857,45.52 44.285,45.426C44.743,45.361 45.179,45.294 45.616,45.225C45.779,45.198 45.942,45.166 46.125,45.143C46.357,45.113 46.57,45.076 46.803,45.042C46.989,45.017 47.155,44.989 47.341,44.963C47.431,44.944 47.502,44.923 47.589,44.903C47.638,44.901 47.671,44.897 47.725,44.898C47.959,44.888 48.172,44.873 48.393,44.868C48.447,44.863 48.493,44.847 48.556,44.826C48.64,44.812 48.705,44.805 48.776,44.81C48.811,44.847 48.839,44.871 48.867,44.896Z" id="path_3"/><path fill="#fffefdff" d="M25.729,11.033C25.609,10.997 25.507,10.96 25.393,10.913C25.713,10.729 26.075,10.68 26.479,10.642C26.57,10.625 26.625,10.611 26.679,10.596C26.701,10.597 26.723,10.597 26.784,10.597C27.162,10.593 27.501,10.59 27.841,10.587C27.863,10.592 27.885,10.596 27.936,10.61C28.023,10.622 28.08,10.625 28.138,10.627C28.543,10.715 28.949,10.802 29.382,10.901C29.436,10.918 29.462,10.924 29.489,10.93C29.709,11.034 29.929,11.138 30.173,11.257C30.233,11.294 30.27,11.317 30.308,11.34C30.309,11.355 30.318,11.367 30.35,11.389C30.412,11.394 30.455,11.384 30.499,11.373C30.516,11.304 30.533,11.234 30.561,11.139C30.575,11.088 30.579,11.061 30.583,11.034C30.592,10.999 30.6,10.963 30.619,10.9C30.635,10.846 30.642,10.819 30.648,10.793C30.718,10.597 30.788,10.402 30.859,10.188C30.971,10.026 31.081,9.882 31.196,9.723C31.399,9.534 31.599,9.359 31.809,9.173C32.209,9.292 32.469,9.591 32.647,9.927C32.901,10.404 33.088,10.917 33.299,11.407C34.815,10.49 36.491,10.374 38.264,10.87C38.297,10.905 38.304,10.927 38.31,10.948C38.287,10.95 38.264,10.953 38.211,10.959C38.148,10.983 38.116,11.003 38.083,11.024C38.053,11.026 38.024,11.027 37.965,11.034C37.898,11.057 37.862,11.076 37.825,11.094C37.765,11.111 37.704,11.127 37.614,11.155C37.077,11.332 36.629,11.596 36.199,11.952C37.074,11.952 37.908,11.952 38.742,11.952C38.876,11.967 39.01,11.982 39.177,12.007C39.426,12.043 39.641,12.07 39.856,12.096C41.15,12.349 42.34,12.855 43.472,13.554C44.064,13.991 44.655,14.407 45.213,14.862C45.639,15.21 46.024,15.609 46.427,16.001C46.018,15.856 45.607,15.697 45.199,15.534C44.98,15.446 44.763,15.35 44.526,15.256C43.697,14.899 42.855,14.656 41.982,14.524C40.898,14.36 39.81,14.412 38.722,14.48C38.667,14.483 38.61,14.489 38.555,14.499C38.533,14.503 38.514,14.521 38.462,14.549C38.935,14.662 39.384,14.757 39.827,14.876C41.34,15.283 42.772,15.874 44.056,16.789C45.418,17.761 46.471,18.99 47.114,20.543C47.309,21.014 47.443,21.511 47.6,22.011C47.383,21.845 47.172,21.664 46.96,21.484C46.284,20.907 45.606,20.331 44.913,19.751C44.295,19.372 43.701,18.984 43.089,18.629C42.735,18.424 42.35,18.272 41.954,18.081C41.888,18.062 41.848,18.058 41.802,18.042C41.779,18.024 41.763,18.019 41.728,18.008C41.144,17.818 40.577,17.633 39.996,17.442C39.908,17.421 39.833,17.408 39.74,17.386C39.636,17.368 39.551,17.358 39.454,17.338C39.069,17.254 38.698,17.181 38.326,17.108C38.316,17.135 38.306,17.162 38.296,17.188C38.447,17.298 38.601,17.406 38.75,17.519C40.16,18.589 41.315,19.888 42.202,21.418C42.906,22.633 43.455,23.912 43.488,25.343C43.5,25.851 43.396,26.363 43.33,26.862C43.066,26.413 42.84,25.959 42.562,25.54C42.036,24.745 41.48,23.969 40.932,23.169C40.375,22.541 39.838,21.913 39.265,21.321C38.528,20.56 37.692,19.915 36.791,19.358C36.59,19.234 36.372,19.138 36.162,19.028C36.146,19.052 36.129,19.076 36.112,19.1C36.515,19.655 36.748,20.288 36.969,20.937C36.969,20.948 36.979,20.969 36.978,20.988C36.99,21.042 37.003,21.076 37.014,21.131C37.342,22.816 37.022,24.349 36.075,25.764C35.542,22.781 33.842,20.472 31.861,18.279C31.733,18.432 31.627,18.559 31.506,18.693C29.67,20.772 28.131,22.997 27.668,25.851C26.957,24.758 26.578,23.628 26.58,22.383C26.581,21.149 26.97,20.027 27.623,18.977C24.307,20.783 22.15,23.64 20.384,26.913C20.359,26.827 20.35,26.798 20.343,26.769C20.048,25.545 20.245,24.361 20.674,23.211C21.497,21.004 22.883,19.202 24.707,17.727C24.941,17.538 25.186,17.364 25.476,17.145C25.336,17.145 25.259,17.134 25.186,17.147C24.017,17.35 22.864,17.609 21.76,18.062C20.013,18.779 18.514,19.869 17.121,21.121C16.788,21.42 16.46,21.725 16.13,22.026C16.112,22.016 16.094,22.007 16.076,21.997C16.228,21.56 16.358,21.114 16.539,20.691C16.753,20.191 17.012,19.711 17.265,19.215C17.411,19.038 17.545,18.871 17.675,18.7C18.637,17.438 19.866,16.504 21.293,15.837C22.004,15.505 22.754,15.255 23.506,14.969C24.095,14.83 24.665,14.69 25.235,14.551C25.157,14.502 25.08,14.486 25.003,14.482C24.609,14.46 24.215,14.434 23.821,14.423C22.722,14.391 21.626,14.439 20.575,14.789C19.691,15.084 18.827,15.44 17.953,15.764C17.732,15.846 17.503,15.907 17.285,15.962C17.355,15.886 17.415,15.82 17.482,15.762C18.029,15.287 18.578,14.814 19.126,14.34C19.729,13.949 20.315,13.529 20.94,13.176C21.432,12.898 21.972,12.704 22.503,12.461C22.57,12.434 22.623,12.418 22.711,12.396C22.872,12.332 23,12.276 23.128,12.22C23.153,12.228 23.177,12.237 23.24,12.24C23.432,12.176 23.587,12.117 23.743,12.058C23.776,12.074 23.809,12.09 23.875,12.103C24.04,12.074 24.172,12.049 24.305,12.024C24.358,12.018 24.41,12.012 24.5,12.003C24.604,11.969 24.672,11.936 24.74,11.904C24.773,11.909 24.806,11.913 24.869,11.933C25.763,11.949 26.627,11.949 27.49,11.949C27.497,11.935 27.504,11.921 27.511,11.907C27.267,11.76 27.022,11.613 26.778,11.466C26.435,11.321 26.091,11.176 25.729,11.033ZM38.232,17.122L38.238,17.113C38.238,17.113 38.225,17.114 38.232,17.122Z" id="path_4"/><path fill="#fffefdff" d="M30.361,46.294C30.353,46.291 30.345,46.289 30.325,46.292C29.928,46.193 29.531,46.12 29.161,45.978C28.572,45.751 28.001,45.479 27.422,45.225C27.35,45.193 27.278,45.16 27.178,45.114C26.269,44.556 25.508,43.869 24.795,43.104C24.626,42.876 24.461,42.664 24.312,42.441C23.871,41.783 23.594,41.052 23.395,40.271C23.166,39.538 23.196,38.803 23.181,38.063C23.268,38.063 23.326,38.054 23.379,38.065C24.381,38.267 25.39,38.439 26.381,38.686C27.43,38.948 28.367,39.472 29.257,40.106C30.825,41.31 31.872,42.815 32.14,44.808C32.188,44.695 32.216,44.582 32.244,44.468C32.309,44.195 32.361,43.916 32.442,43.647C32.9,42.144 33.865,41.015 35.093,40.084C35.794,39.552 36.568,39.156 37.404,38.84C37.744,38.743 38.062,38.628 38.389,38.552C39.004,38.407 39.625,38.284 40.264,38.155C40.56,38.122 40.837,38.085 41.137,38.045C41.137,38.284 41.137,38.489 41.129,38.71C41.121,38.749 41.12,38.771 41.108,38.806C41.098,38.874 41.101,38.93 41.095,39.005C41.077,39.173 41.07,39.321 41.05,39.481C41.034,39.55 41.029,39.607 41.018,39.683C40.864,40.268 40.716,40.835 40.568,41.401C40.206,42.172 39.746,42.874 39.141,43.478C37.863,44.752 36.397,45.708 34.618,46.114C34.025,46.249 33.416,46.317 32.797,46.424C32.489,46.435 32.199,46.436 31.874,46.434C31.83,46.432 31.822,46.434 31.813,46.436C31.571,46.419 31.329,46.403 31.053,46.377C30.978,46.367 30.936,46.365 30.875,46.358C30.804,46.351 30.752,46.351 30.7,46.35C30.679,46.346 30.659,46.341 30.608,46.328C30.506,46.31 30.434,46.302 30.361,46.294Z" id="path_5"/><path fill="#fffefdff" d="M30.632,35.407C31.327,36.243 31.723,37.172 31.657,38.267C31.643,38.491 31.656,38.717 31.661,38.964C31.657,39.055 31.649,39.122 31.637,39.222C31.539,39.206 31.453,39.192 31.348,39.181C30.861,39.04 30.389,38.909 29.926,38.752C28.673,38.329 27.497,37.757 26.464,36.887C26.175,36.553 25.874,36.246 25.633,35.898C25.249,35.343 25.055,34.717 25.068,34.034C25.075,33.624 25.069,33.215 25.069,32.749C27.148,33.219 29.087,33.874 30.632,35.407Z" id="path_6"/><path fill="#fffefdff" d="M33.521,26.447C33.144,27.331 32.496,27.98 31.838,28.62C29.173,26.554 29.01,23.481 31.824,21.255C33.052,22.359 34.003,23.599 33.797,25.383C33.755,25.737 33.619,26.081 33.521,26.447Z" id="path_7"/><path fill="#fffefcff" d="M31.609,31.972C31.611,32.542 31.611,33.092 31.611,33.671C30.065,33.179 28.656,32.512 27.67,31.183C27.226,30.584 27.008,29.899 27.012,29.149C27.014,28.795 27.012,28.442 27.012,28.027C27.43,28.167 27.821,28.279 28.197,28.427C29.237,28.838 30.183,29.392 30.884,30.291C31.265,30.781 31.515,31.333 31.609,31.972Z" id="path_8"/><path fill="#fffefcff" d="M34.971,28.667C35.488,28.474 35.996,28.292 36.505,28.114C36.571,28.091 36.643,28.086 36.737,28.067C36.798,29.136 36.794,30.162 36.167,31.081C35.557,31.976 34.711,32.577 33.749,33.027C33.314,33.231 32.854,33.384 32.396,33.573C32.302,33.596 32.216,33.605 32.111,33.616C32.111,33.131 32.111,32.667 32.121,32.168C32.132,32.092 32.133,32.05 32.134,32.008C32.379,30.509 33.356,29.586 34.601,28.874C34.72,28.806 34.841,28.744 34.971,28.667Z" id="path_9"/><path fill="#fffefdff" d="M32.115,39.191C32.104,38.834 32.12,38.487 32.109,38.14C32.067,36.839 32.635,35.825 33.586,34.996C34.608,34.105 35.821,33.575 37.097,33.168C37.281,33.109 37.466,33.056 37.663,32.987C37.998,32.902 38.322,32.83 38.625,32.762C38.664,32.804 38.683,32.815 38.684,32.827C38.72,33.825 38.777,34.824 38.237,35.736C37.865,36.364 37.364,36.869 36.777,37.289C35.418,38.261 33.88,38.817 32.271,39.204C32.226,39.214 32.176,39.203 32.115,39.191Z" id="path_10"/></svg>