<svg id="vector" xmlns="http://www.w3.org/2000/svg" width="64.0d" height="64.0d" viewBox="0 0 64.0 64.0"><path fill="#ffffffff" d="M32,32m-31.75,0a31.75,31.75 0,1 1,63.5 0a31.75,31.75 0,1 1,-63.5 0" stroke="#e6e6e6ff" stroke-width="0.5" id="path_0"/><path fill="#2b3c73ff" d="M56.449,24.911C56.919,24.911 57.307,24.534 57.307,24.062C57.307,23.577 56.918,23.215 56.449,23.215C55.976,23.215 55.589,23.585 55.589,24.062C55.589,24.533 55.976,24.911 56.449,24.911ZM56.449,23.381C56.83,23.381 57.13,23.671 57.13,24.062C57.13,24.442 56.828,24.746 56.449,24.746C56.065,24.746 55.764,24.442 55.764,24.062C55.764,23.677 56.065,23.381 56.449,23.381Z" id="path_1"/><path fill="#2b3c73ff" d="M56.282,24.504V24.152H56.495L56.672,24.504H56.857L56.657,24.122C56.752,24.08 56.816,23.997 56.816,23.87C56.816,23.693 56.682,23.602 56.538,23.602H56.255C56.166,23.602 56.117,23.648 56.117,23.727L56.118,24.504H56.282ZM56.285,23.744H56.523C56.593,23.744 56.65,23.787 56.65,23.873C56.65,23.958 56.589,24.007 56.515,24.007H56.285V23.744Z" id="path_2"/><path fill="#575756ff" d="M56.72,40.44V39.552C56.72,39.398 56.648,39.342 56.529,39.342C56.41,39.342 56.308,39.431 56.259,39.523V40.44H55.983V39.138H56.259V39.312C56.33,39.207 56.479,39.105 56.644,39.105C56.884,39.105 56.995,39.234 56.995,39.458V40.44H56.72Z" id="path_3"/><path fill="#575756ff" d="M56.974,35.196H56.692V37.174H56.974V35.196Z" id="path_4"/><path fill="#2b3c73ff" d="M24.144,24.894C25.942,24.894 26.167,26.721 26.167,26.721L28.308,26.225C28.295,26.173 27.924,23.012 24.144,23.012C21.805,23.012 19.623,24.422 19.623,28.026C19.623,31.603 21.923,32.974 24.303,32.974C25.928,32.974 27.065,32.439 27.462,32.217C27.977,31.917 28.267,31.63 28.267,31.016V28.81C28.267,28.235 27.883,27.883 27.25,27.883H24.315V29.515H26.152V30.78C26.152,30.78 25.505,31.212 24.368,31.212C23.166,31.212 21.909,30.494 21.909,28.025C21.909,25.611 23.007,24.894 24.144,24.894Z" id="path_5"/><path fill="#2b3c73ff" d="M33.661,23C32.761,23 32.22,23.379 31.955,24.162L29.048,32.844L31.346,32.845C31.51,32.844 31.697,32.747 31.809,32.639L34.576,29.938C34.634,29.881 34.618,29.854 34.552,29.854L34.178,29.855C34.023,29.855 33.874,29.893 33.741,29.971L31.879,31.028L33.649,25.13C33.649,25.13 35.749,32.272 35.921,32.845H38.288L35.419,24.15C35.181,23.42 34.574,23 33.661,23Z" id="path_6"/><path fill="#2b3c73ff" d="M43.165,24.867C44.961,24.867 45.2,26.825 45.2,26.825L47.341,26.382C47.341,26.382 47.023,23.014 43.163,23.014C40.824,23.014 38.642,24.386 38.642,27.989C38.642,31.564 40.81,32.989 43.15,32.989C46.93,32.989 47.34,29.699 47.34,29.699L45.199,29.242C45.199,29.242 45.026,31.134 43.189,31.134C42.053,31.134 40.942,30.416 40.942,27.989C40.945,25.572 42.029,24.867 43.165,24.867Z" id="path_7"/><path fill="#2b3c73ff" d="M52.498,23C51.599,23 51.056,23.379 50.793,24.162L47.885,32.844L50.183,32.845C50.347,32.844 50.534,32.747 50.646,32.639L53.414,29.938C53.47,29.881 53.454,29.854 53.389,29.854L53.015,29.855C52.86,29.855 52.71,29.893 52.578,29.971L50.716,31.028L52.485,25.13C52.485,25.13 54.586,32.272 54.757,32.845H57.124L54.255,24.15C54.017,23.42 53.41,23 52.498,23Z" id="path_8"/><path fill="#0075c9ff" d="M18.902,32.871C18.935,32.871 18.958,32.841 18.961,32.802C18.963,32.771 18.947,32.746 18.926,32.732C17.766,32.361 16.865,31.388 16.663,29.956L16.119,26.134C15.867,24.358 14.542,23.146 12.996,23.117L5.059,23.116C5.026,23.114 5.003,23.139 5,23.172C4.998,23.202 5.013,23.233 5.035,23.24C6.195,23.613 7.095,24.594 7.298,26.027L7.842,29.849C8.095,31.619 9.419,32.837 10.964,32.872L18.902,32.871Z" id="path_9"/><path fill="#ffffffff" d="M14.106,29.556L13.745,29.554C13.704,29.554 13.636,29.56 13.596,29.578L9.265,31.208C9.232,31.222 9.232,31.235 9.273,31.235L10.687,31.236C10.858,31.236 10.97,31.237 11.143,31.147L14.115,29.589C14.147,29.57 14.147,29.556 14.106,29.556Z" id="path_10"/><path fill="#ffffffff" d="M11.152,29.554L12.017,29.889L11.568,30.058L10.634,29.567C10.601,29.547 10.601,29.534 10.64,29.533L11.002,29.532C11.041,29.53 11.11,29.536 11.152,29.554Z" id="path_11"/><path fill="#ffffffff" d="M15.517,31.235L14.101,31.236C13.933,31.236 13.82,31.237 13.646,31.147L12.68,30.641L13.239,30.349L15.524,31.208C15.557,31.223 15.557,31.235 15.517,31.235Z" id="path_12"/><path fill="#ffffffff" d="M12.395,29.335C12.24,29.334 12.09,28.106 12.055,26.527V26.526C11.975,26.544 11.889,26.574 11.829,26.593C11.37,26.739 10.78,26.992 10.422,27.207C10.412,27.213 10.4,27.212 10.393,27.202C10.39,27.198 10.389,27.195 10.388,27.191C10.366,27.021 10.394,26.858 10.523,26.735C10.656,26.608 10.825,26.495 10.979,26.396C11.176,26.27 11.381,26.154 11.596,26.059C11.653,26.033 11.724,26.001 11.779,25.978C11.42,25.771 10.979,25.6 10.665,25.498C10.655,25.496 10.65,25.486 10.652,25.477C10.653,25.474 10.655,25.471 10.657,25.469C10.758,25.372 10.874,25.306 11.018,25.32C11.143,25.333 11.27,25.365 11.392,25.395C11.528,25.427 11.663,25.465 11.795,25.508C11.872,25.532 11.947,25.559 12.022,25.588C12.034,25.593 12.046,25.598 12.059,25.602C12.106,25.176 12.237,24.863 12.393,24.866C12.549,24.863 12.681,25.176 12.728,25.602C12.74,25.598 12.754,25.593 12.765,25.588C12.84,25.559 12.915,25.532 12.991,25.508C13.124,25.465 13.26,25.427 13.395,25.395C13.517,25.365 13.644,25.333 13.769,25.32C13.913,25.306 14.029,25.372 14.13,25.469C14.132,25.471 14.133,25.474 14.135,25.477C14.137,25.486 14.131,25.496 14.122,25.498C13.809,25.601 13.367,25.773 13.007,25.978C13.063,26.001 13.134,26.033 13.191,26.059C13.406,26.153 13.609,26.27 13.807,26.396C13.962,26.496 14.131,26.608 14.264,26.735C14.393,26.859 14.421,27.022 14.399,27.191C14.399,27.195 14.397,27.198 14.394,27.202C14.387,27.211 14.375,27.213 14.365,27.207C14.005,26.992 13.416,26.739 12.958,26.593C12.898,26.574 12.812,26.544 12.732,26.526V26.527C12.7,28.106 12.55,29.334 12.395,29.335Z" id="path_13"/><path fill="#575756ff" d="M19.935,39.541C19.935,38.984 20.233,38.613 20.685,38.613C20.983,38.613 21.165,38.785 21.269,38.996L21.021,39.109C20.954,38.977 20.844,38.878 20.685,38.878C20.423,38.878 20.247,39.134 20.247,39.543C20.247,39.95 20.423,40.209 20.685,40.209C20.82,40.209 20.931,40.147 20.991,40.08V39.746H20.605V39.484H21.28V40.198C21.134,40.368 20.938,40.476 20.685,40.476C20.233,40.475 19.935,40.097 19.935,39.541Z" id="path_14"/><path fill="#575756ff" d="M21.567,39.787C21.567,39.409 21.782,39.105 22.138,39.105C22.499,39.105 22.692,39.404 22.692,39.799V39.877H21.845C21.856,40.09 21.977,40.251 22.192,40.251C22.297,40.251 22.415,40.2 22.493,40.111L22.625,40.272C22.512,40.4 22.344,40.471 22.165,40.471C21.799,40.471 21.567,40.192 21.567,39.787ZM22.136,39.323C21.929,39.323 21.851,39.528 21.843,39.684H22.424C22.421,39.523 22.347,39.323 22.136,39.323Z" id="path_15"/><path fill="#575756ff" d="M23.732,40.44V39.552C23.732,39.398 23.659,39.342 23.541,39.342C23.423,39.342 23.321,39.431 23.27,39.523V40.44H22.995V39.138H23.27V39.312C23.342,39.207 23.492,39.105 23.657,39.105C23.897,39.105 24.006,39.234 24.006,39.458V40.44H23.732Z" id="path_16"/><path fill="#575756ff" d="M24.321,39.787C24.321,39.409 24.536,39.105 24.892,39.105C25.253,39.105 25.447,39.404 25.447,39.799V39.877H24.6C24.613,40.09 24.733,40.251 24.948,40.251C25.052,40.251 25.17,40.2 25.248,40.111L25.381,40.272C25.267,40.4 25.1,40.471 24.92,40.471C24.552,40.471 24.321,40.192 24.321,39.787ZM24.89,39.323C24.683,39.323 24.605,39.528 24.598,39.684H25.18C25.175,39.523 25.101,39.323 24.89,39.323Z" id="path_17"/><path fill="#575756ff" d="M25.75,40.44V39.138H26.025V39.329C26.103,39.204 26.243,39.107 26.392,39.107V39.375C26.37,39.37 26.344,39.368 26.321,39.368C26.208,39.368 26.081,39.45 26.025,39.548V40.44H25.75Z" id="path_18"/><path fill="#575756ff" d="M27.342,40.44V40.307C27.262,40.414 27.127,40.471 26.991,40.471C26.776,40.471 26.584,40.316 26.584,40.037C26.584,39.757 26.776,39.614 26.991,39.614C27.127,39.614 27.264,39.665 27.342,39.77V39.582C27.342,39.426 27.249,39.334 27.082,39.334C26.963,39.334 26.854,39.38 26.751,39.482L26.643,39.293C26.777,39.161 26.959,39.105 27.13,39.105C27.41,39.105 27.613,39.231 27.613,39.55V40.44H27.342ZM27.342,40.142V39.945C27.289,39.854 27.19,39.799 27.091,39.799C26.947,39.799 26.86,39.903 26.86,40.041C26.86,40.182 26.947,40.284 27.091,40.284C27.191,40.285 27.289,40.232 27.342,40.142Z" id="path_19"/><path fill="#575756ff" d="M28.271,38.642H27.996V40.44H28.271V38.642Z" id="path_20"/><path fill="#575756ff" d="M30.267,40.44L30.167,40.083H29.563L29.463,40.44H29.132L29.681,38.641H30.048L30.597,40.44H30.267ZM29.867,38.96L29.627,39.82H30.107L29.867,38.96Z" id="path_21"/><path fill="#575756ff" d="M31.541,40.44V40.267C31.467,40.374 31.322,40.471 31.152,40.471C30.916,40.471 30.805,40.347 30.805,40.121V39.138H31.08V40.028C31.08,40.178 31.152,40.234 31.271,40.234C31.387,40.234 31.489,40.148 31.542,40.057V39.138H31.818V40.44H31.541Z" id="path_22"/><path fill="#575756ff" d="M32.247,40.148V39.371H32.074V39.138H32.247V38.782H32.523V39.138H32.744V39.371H32.523V40.091C32.523,40.18 32.554,40.233 32.625,40.233C32.669,40.233 32.71,40.215 32.729,40.19L32.796,40.394C32.747,40.441 32.67,40.471 32.556,40.471C32.346,40.471 32.247,40.362 32.247,40.148Z" id="path_23"/><path fill="#575756ff" d="M33.771,40.44V39.548C33.771,39.397 33.697,39.343 33.577,39.343C33.462,39.343 33.36,39.432 33.308,39.524V40.441H33.032V38.643H33.308V39.314C33.379,39.21 33.532,39.107 33.697,39.107C33.933,39.107 34.044,39.229 34.044,39.458V40.442H33.771V40.44Z" id="path_24"/><path fill="#575756ff" d="M34.359,39.787C34.359,39.42 34.557,39.105 34.935,39.105C35.312,39.105 35.51,39.421 35.51,39.787C35.51,40.153 35.312,40.471 34.935,40.471C34.557,40.471 34.359,40.153 34.359,39.787ZM35.226,39.787C35.226,39.552 35.135,39.342 34.933,39.342C34.733,39.342 34.642,39.552 34.642,39.787C34.642,40.022 34.733,40.234 34.933,40.234C35.135,40.234 35.226,40.023 35.226,39.787Z" id="path_25"/><path fill="#575756ff" d="M35.824,40.44V39.138H36.1V39.329C36.177,39.204 36.318,39.107 36.467,39.107V39.375C36.444,39.37 36.42,39.368 36.394,39.368C36.282,39.368 36.154,39.45 36.1,39.548V40.44H35.824Z" id="path_26"/><path fill="#575756ff" d="M36.693,38.806C36.693,38.713 36.773,38.636 36.867,38.636C36.96,38.636 37.038,38.711 37.038,38.806C37.038,38.898 36.96,38.974 36.867,38.974C36.773,38.974 36.693,38.898 36.693,38.806ZM36.729,39.138H37.004V40.44H36.729V39.138Z" id="path_27"/><path fill="#575756ff" d="M37.434,40.148V39.371H37.26V39.138H37.434V38.782H37.709V39.138H37.93V39.371H37.709V40.091C37.709,40.18 37.74,40.233 37.812,40.233C37.856,40.233 37.896,40.215 37.916,40.19L37.983,40.394C37.933,40.441 37.856,40.471 37.743,40.471C37.534,40.471 37.434,40.362 37.434,40.148Z" id="path_28"/><path fill="#575756ff" d="M38.214,40.711C38.239,40.724 38.277,40.73 38.303,40.73C38.376,40.73 38.424,40.703 38.454,40.622L38.509,40.466L38.063,39.138H38.355L38.65,40.116L38.947,39.138H39.239L38.712,40.685C38.637,40.904 38.508,40.967 38.321,40.967C38.28,40.967 38.208,40.96 38.172,40.949L38.214,40.711Z" id="path_29"/><path fill="#575756ff" d="M40.034,39.787C40.034,39.42 40.233,39.105 40.61,39.105C40.988,39.105 41.186,39.421 41.186,39.787C41.186,40.153 40.988,40.471 40.61,40.471C40.233,40.471 40.034,40.153 40.034,39.787ZM40.903,39.787C40.903,39.552 40.812,39.342 40.61,39.342C40.409,39.342 40.318,39.552 40.318,39.787C40.318,40.022 40.409,40.234 40.61,40.234C40.812,40.234 40.903,40.023 40.903,39.787Z" id="path_30"/><path fill="#575756ff" d="M41.555,40.44V39.371H41.381V39.138H41.555V39.016C41.555,38.764 41.699,38.614 41.93,38.614C42.03,38.614 42.128,38.642 42.197,38.706L42.104,38.895C42.067,38.86 42.031,38.841 41.979,38.841C41.883,38.841 41.831,38.903 41.831,39.018V39.139H42.051V39.373H41.831V40.441H41.555V40.44Z" id="path_31"/><path fill="#575756ff" d="M42.895,39.541C42.895,39 43.184,38.613 43.644,38.613C43.963,38.613 44.129,38.81 44.225,39.009L43.972,39.12C43.909,38.977 43.796,38.878 43.644,38.878C43.374,38.878 43.205,39.157 43.205,39.543C43.205,39.925 43.372,40.206 43.644,40.206C43.803,40.206 43.917,40.093 43.974,39.943L44.228,40.053C44.134,40.263 43.968,40.472 43.644,40.472C43.184,40.471 42.895,40.081 42.895,39.541Z" id="path_32"/><path fill="#575756ff" d="M44.477,38.806C44.477,38.713 44.557,38.636 44.651,38.636C44.744,38.636 44.822,38.711 44.822,38.806C44.822,38.898 44.744,38.974 44.651,38.974C44.557,38.974 44.477,38.898 44.477,38.806ZM44.513,39.138H44.789V40.44H44.513V39.138Z" id="path_33"/><path fill="#575756ff" d="M45.451,40.44L45.013,39.138H45.304L45.6,40.119L45.897,39.138H46.189L45.749,40.44H45.451Z" id="path_34"/><path fill="#575756ff" d="M46.374,38.806C46.374,38.713 46.454,38.636 46.547,38.636C46.641,38.636 46.718,38.711 46.718,38.806C46.718,38.898 46.641,38.974 46.547,38.974C46.454,38.974 46.374,38.898 46.374,38.806ZM46.411,39.138H46.685V40.44H46.411V39.138Z" id="path_35"/><path fill="#575756ff" d="M47.342,38.642H47.067V40.44H47.342V38.642Z" id="path_36"/><path fill="#575756ff" d="M49.337,40.44L49.237,40.083H48.634L48.536,40.44H48.206L48.754,38.641H49.12L49.669,40.44H49.337ZM48.937,38.96L48.697,39.82H49.177L48.937,38.96Z" id="path_37"/><path fill="#575756ff" d="M50.134,40.44L49.696,39.138H49.988L50.283,40.119L50.581,39.138H50.874L50.432,40.44H50.134Z" id="path_38"/><path fill="#575756ff" d="M51.057,38.806C51.057,38.713 51.137,38.636 51.231,38.636C51.323,38.636 51.402,38.711 51.402,38.806C51.402,38.898 51.324,38.974 51.231,38.974C51.138,38.974 51.057,38.898 51.057,38.806ZM51.093,39.138H51.368V40.44H51.093V39.138Z" id="path_39"/><path fill="#575756ff" d="M52.438,40.44V40.307C52.358,40.414 52.222,40.471 52.087,40.471C51.873,40.471 51.68,40.316 51.68,40.037C51.68,39.757 51.873,39.614 52.087,39.614C52.222,39.614 52.36,39.665 52.438,39.77V39.582C52.438,39.426 52.344,39.334 52.178,39.334C52.06,39.334 51.949,39.38 51.847,39.482L51.74,39.293C51.875,39.161 52.058,39.105 52.229,39.105C52.508,39.105 52.711,39.231 52.711,39.55V40.44H52.438ZM52.438,40.142V39.945C52.386,39.854 52.286,39.799 52.188,39.799C52.044,39.799 51.957,39.903 51.957,40.041C51.957,40.182 52.045,40.284 52.188,40.284C52.288,40.285 52.386,40.232 52.438,40.142Z" id="path_40"/><path fill="#575756ff" d="M53.142,40.148V39.371H52.968V39.138H53.142V38.782H53.417V39.138H53.639V39.371H53.417V40.091C53.417,40.18 53.448,40.233 53.52,40.233C53.564,40.233 53.604,40.215 53.624,40.19L53.691,40.394C53.64,40.441 53.564,40.471 53.451,40.471C53.24,40.471 53.142,40.362 53.142,40.148Z" id="path_41"/><path fill="#575756ff" d="M53.891,38.806C53.891,38.713 53.971,38.636 54.065,38.636C54.158,38.636 54.236,38.711 54.236,38.806C54.236,38.898 54.158,38.974 54.065,38.974C53.971,38.974 53.891,38.898 53.891,38.806ZM53.927,39.138H54.202V40.44H53.927V39.138Z" id="path_42"/><path fill="#575756ff" d="M54.518,39.787C54.518,39.42 54.716,39.105 55.095,39.105C55.472,39.105 55.671,39.421 55.671,39.787C55.671,40.153 55.471,40.471 55.095,40.471C54.716,40.471 54.518,40.153 54.518,39.787ZM55.385,39.787C55.385,39.552 55.294,39.342 55.093,39.342C54.892,39.342 54.8,39.552 54.8,39.787C54.8,40.022 54.892,40.234 55.093,40.234C55.294,40.234 55.385,40.023 55.385,39.787Z" id="path_43"/><path fill="#575756ff" d="M39.505,35.449C39.595,35.449 39.667,35.377 39.667,35.289C39.667,35.2 39.595,35.127 39.505,35.127C39.415,35.127 39.341,35.199 39.341,35.289C39.341,35.378 39.415,35.449 39.505,35.449Z" id="path_44"/><path fill="#575756ff" d="M40.03,35.449C40.12,35.449 40.193,35.377 40.193,35.289C40.193,35.2 40.12,35.127 40.03,35.127C39.94,35.127 39.867,35.199 39.867,35.289C39.867,35.378 39.939,35.449 40.03,35.449Z" id="path_45"/><path fill="#575756ff" d="M48.877,35.449C48.966,35.449 49.039,35.377 49.039,35.289C49.039,35.2 48.966,35.127 48.877,35.127C48.787,35.127 48.713,35.199 48.713,35.289C48.713,35.378 48.786,35.449 48.877,35.449Z" id="path_46"/><path fill="#575756ff" d="M49.401,35.449C49.491,35.449 49.563,35.377 49.563,35.289C49.563,35.2 49.491,35.127 49.401,35.127C49.311,35.127 49.237,35.199 49.237,35.289C49.237,35.378 49.311,35.449 49.401,35.449Z" id="path_47"/><path fill="#575756ff" d="M52.62,35.833L52.592,35.626C52.477,35.646 52.213,35.725 52.188,35.546C52.174,35.453 52.238,35.366 52.332,35.348C52.407,35.333 52.481,35.359 52.55,35.384L52.618,35.188C52.469,35.143 52.305,35.124 52.17,35.218C52.027,35.317 51.974,35.522 52.065,35.671C51.935,35.675 51.831,35.679 51.831,35.679V35.837C51.985,35.843 52.14,35.848 52.294,35.85C52.32,35.849 52.512,35.844 52.62,35.833Z" id="path_48"/><path fill="#575756ff" d="M32.967,37.507C32.877,37.507 32.803,37.578 32.803,37.668C32.803,37.758 32.876,37.83 32.967,37.83C33.057,37.83 33.129,37.758 33.129,37.668C33.129,37.578 33.057,37.507 32.967,37.507Z" id="path_49"/><path fill="#575756ff" d="M33.492,37.507C33.403,37.507 33.329,37.578 33.329,37.668C33.329,37.758 33.401,37.83 33.492,37.83C33.582,37.83 33.655,37.758 33.655,37.668C33.655,37.578 33.582,37.507 33.492,37.507Z" id="path_50"/><path fill="#575756ff" d="M52.893,37.507C52.803,37.507 52.729,37.578 52.729,37.668C52.729,37.758 52.802,37.83 52.893,37.83C52.983,37.83 53.056,37.758 53.056,37.668C53.056,37.578 52.983,37.507 52.893,37.507Z" id="path_51"/><path fill="#575756ff" d="M53.419,37.507C53.329,37.507 53.255,37.578 53.255,37.668C53.255,37.758 53.327,37.83 53.419,37.83C53.508,37.83 53.581,37.758 53.581,37.668C53.581,37.578 53.508,37.507 53.419,37.507Z" id="path_52"/><path fill="#575756ff" d="M20.628,37.891C20.538,37.891 20.465,37.963 20.465,38.053C20.465,38.141 20.537,38.213 20.628,38.213C20.718,38.213 20.791,38.141 20.791,38.053C20.792,37.963 20.718,37.891 20.628,37.891Z" id="path_53"/><path fill="#575756ff" d="M21.154,37.891C21.064,37.891 20.99,37.963 20.99,38.053C20.99,38.141 21.063,38.213 21.154,38.213C21.243,38.213 21.316,38.141 21.316,38.053C21.316,37.963 21.243,37.891 21.154,37.891Z" id="path_54"/><path fill="#575756ff" d="M29.849,36.083C29.938,36.083 30.011,36.012 30.011,35.923C30.011,35.834 29.938,35.761 29.849,35.761C29.759,35.761 29.685,35.833 29.685,35.923C29.685,36.013 29.759,36.083 29.849,36.083Z" id="path_55"/><path fill="#575756ff" d="M22.409,35.771C22.499,35.771 22.571,35.699 22.571,35.611C22.571,35.522 22.499,35.449 22.409,35.449C22.319,35.449 22.245,35.521 22.245,35.611C22.245,35.701 22.319,35.771 22.409,35.771Z" id="path_56"/><path fill="#575756ff" d="M47.489,35.196H47.207V37.174H47.489V35.196Z" id="path_57"/><path fill="#575756ff" d="M31.317,35.196H31.035V37.174H31.317V35.196Z" id="path_58"/><path fill="#575756ff" d="M55.955,36.768C55.955,36.872 55.869,36.957 55.763,36.957H54.979C54.984,36.951 54.989,36.946 54.994,36.94C55.055,36.861 55.117,36.724 55.06,36.521C55.025,36.397 54.917,36.019 54.642,36.013C54.639,36.013 54.637,36.013 54.634,36.013C54.312,36.013 54.114,36.547 54.077,36.653C54.055,36.719 54.022,36.828 53.999,36.956C53.878,36.96 53.303,36.956 53.303,36.956C53.329,36.898 53.344,36.835 53.344,36.767V36.088H53.062V36.767C53.062,36.871 52.976,36.956 52.87,36.956H52.697C52.592,36.956 52.506,36.871 52.506,36.767V36.088H52.224V36.767C52.224,36.871 52.138,36.956 52.032,36.956H49.636C49.53,36.956 49.444,36.871 49.444,36.767V35.742H49.162V35.874C49.081,35.899 48.932,35.946 48.778,36.017C48.447,36.167 48.259,36.345 48.217,36.544C48.196,36.645 48.222,36.74 48.29,36.812C48.332,36.855 48.48,36.972 48.879,36.972C48.971,36.972 49.078,36.965 49.199,36.95C49.272,37.117 49.439,37.235 49.633,37.235H52.029C52.159,37.235 52.277,37.183 52.362,37.1C52.448,37.183 52.565,37.235 52.694,37.235H52.866C52.992,37.235 53.106,37.186 53.191,37.107V37.235C53.191,37.235 53.865,37.237 53.971,37.236C53.975,37.492 54.061,37.755 54.357,37.874C54.438,37.905 54.524,37.921 54.609,37.921C54.833,37.921 55.049,37.817 55.133,37.645C55.17,37.571 55.214,37.414 55.074,37.233H55.76C56.021,37.233 56.233,37.024 56.233,36.767V35.195H55.951V36.768H55.955ZM48.499,36.622C48.495,36.618 48.494,36.616 48.496,36.6C48.531,36.431 48.873,36.261 49.165,36.166V36.677C48.893,36.707 48.569,36.694 48.499,36.622ZM54.343,36.742C54.439,36.46 54.584,36.29 54.633,36.29H54.634C54.636,36.29 54.709,36.316 54.79,36.596C54.818,36.696 54.792,36.743 54.771,36.77C54.695,36.869 54.499,36.916 54.286,36.938C54.301,36.877 54.319,36.812 54.343,36.742ZM54.883,37.525C54.841,37.611 54.638,37.687 54.467,37.617C54.326,37.56 54.253,37.423 54.25,37.222C54.404,37.209 54.557,37.183 54.69,37.137L54.634,37.233C54.821,37.339 54.919,37.453 54.883,37.525Z" id="path_59"/><path fill="#575756ff" d="M27.996,35.196H27.714V37.174H27.996V35.196Z" id="path_60"/><path fill="#575756ff" d="M26.975,36.768C26.975,36.872 26.889,36.957 26.783,36.957H26.229C26.233,36.948 26.238,36.938 26.242,36.928C26.328,36.712 26.274,36.459 26.2,36.308C26.101,36.103 25.927,35.979 25.737,35.978H25.735C25.543,35.978 25.367,36.103 25.263,36.312C25.212,36.413 25.178,36.513 25.148,36.6C25.061,36.853 25.025,36.957 24.744,36.957H24.474C24.41,36.285 23.78,35.953 23.751,35.939L23.622,36.186C23.627,36.188 24.125,36.451 24.192,36.957H23.312V37.236H24.746C24.949,37.236 25.084,37.185 25.179,37.106C25.314,37.196 25.527,37.236 25.709,37.236C25.813,37.236 25.906,37.222 25.971,37.198C25.987,37.192 26.002,37.185 26.017,37.177V37.236H26.783C27.044,37.236 27.256,37.027 27.256,36.769V35.197H26.974V36.768H26.975ZM25.982,36.825C25.96,36.881 25.923,36.917 25.87,36.938C25.752,36.983 25.455,36.946 25.343,36.88C25.371,36.818 25.394,36.752 25.415,36.689C25.443,36.606 25.473,36.52 25.516,36.435C25.573,36.323 25.654,36.256 25.736,36.256H25.737C25.819,36.256 25.895,36.319 25.948,36.429C26,36.532 26.032,36.702 25.982,36.825Z" id="path_61"/><path fill="#575756ff" d="M42.475,35.978H42.473C42.281,35.978 42.105,36.103 42,36.312C41.95,36.413 41.916,36.513 41.886,36.6C41.799,36.853 41.763,36.957 41.482,36.957H40.335C40.23,36.957 40.144,36.872 40.144,36.768V35.743H39.862V35.876C39.78,35.9 39.632,35.947 39.478,36.018C39.147,36.169 38.958,36.346 38.917,36.545C38.896,36.646 38.922,36.741 38.99,36.813C39.032,36.856 39.181,36.973 39.58,36.973C39.672,36.973 39.779,36.966 39.9,36.951C39.972,37.118 40.14,37.236 40.335,37.236H41.482C41.685,37.236 41.821,37.185 41.916,37.106C42.127,37.243 42.532,37.266 42.708,37.198C42.835,37.15 42.928,37.057 42.98,36.928C43.066,36.712 43.012,36.459 42.938,36.308C42.838,36.103 42.666,35.979 42.475,35.978ZM39.196,36.622C39.194,36.618 39.191,36.616 39.194,36.601C39.228,36.432 39.57,36.262 39.862,36.167V36.678C39.59,36.707 39.265,36.694 39.196,36.622ZM42.719,36.826C42.697,36.882 42.66,36.918 42.607,36.939C42.489,36.984 42.191,36.948 42.079,36.881C42.107,36.819 42.131,36.753 42.152,36.69C42.18,36.607 42.21,36.521 42.253,36.436C42.309,36.324 42.39,36.257 42.473,36.257H42.474C42.555,36.257 42.632,36.32 42.685,36.43C42.736,36.533 42.768,36.702 42.719,36.826Z" id="path_62"/><path fill="#575756ff" d="M37.797,36.768C37.797,36.872 37.711,36.957 37.605,36.957H37.433C37.327,36.957 37.241,36.872 37.241,36.768V35.196H36.959V36.768C36.959,36.872 36.873,36.957 36.767,36.957H36.364C36.361,36.678 36.305,36.334 36.074,36.144C35.806,35.925 35.442,36.064 35.183,36.222C35.032,36.314 34.891,36.429 34.765,36.551V35.196H34.483V36.957H33.329C33.354,36.899 33.369,36.836 33.369,36.768V36.091H33.088V36.768C33.088,36.872 33.001,36.957 32.896,36.957H32.301C32.195,36.957 32.109,36.872 32.109,36.768V36.091H31.827V37.171C31.827,37.384 31.651,37.558 31.436,37.558V37.836C31.799,37.836 32.094,37.552 32.108,37.197C32.167,37.222 32.232,37.237 32.3,37.237H32.894C32.989,37.237 33.078,37.209 33.152,37.162V37.237H36.766C36.895,37.237 37.013,37.186 37.098,37.102C37.184,37.186 37.301,37.237 37.43,37.237H37.602C37.863,37.237 38.075,37.028 38.075,36.77V35.199H37.793V36.768H37.797ZM34.765,36.856C34.88,36.745 35.01,36.643 35.144,36.553C35.294,36.452 35.466,36.345 35.648,36.317C35.725,36.305 35.808,36.307 35.874,36.352C35.93,36.392 35.967,36.453 35.993,36.516C36.049,36.653 36.072,36.81 36.078,36.957H34.764V36.856H34.765Z" id="path_63"/><path fill="#575756ff" d="M22.696,36.768C22.696,36.872 22.609,36.957 22.504,36.957H22.378C22.269,36.957 22.176,36.871 22.176,36.768V36.398C22.176,36.284 22.131,36.184 22.047,36.119C21.952,36.043 21.816,36.019 21.673,36.052C21.411,36.111 21.221,36.328 21.221,36.569V37.204C21.221,37.281 21.151,37.326 21.092,37.351C20.906,37.429 20.586,37.401 20.394,37.219C20.211,37.044 20.187,36.765 20.323,36.414L20.06,36.314C19.82,36.932 20.044,37.272 20.199,37.419C20.385,37.597 20.636,37.671 20.862,37.671C20.988,37.671 21.106,37.648 21.202,37.608C21.392,37.528 21.502,37.382 21.502,37.205V36.57C21.502,36.458 21.6,36.354 21.735,36.324C21.802,36.308 21.849,36.32 21.871,36.338C21.877,36.342 21.895,36.356 21.895,36.4V36.769C21.895,37.022 22.116,37.236 22.378,37.236H22.504C22.764,37.236 22.976,37.027 22.976,36.769V36.092H22.694V36.768H22.696Z" id="path_64"/><path fill="#575756ff" d="M30.329,37.204C30.329,37.281 30.258,37.326 30.199,37.35C30.012,37.428 29.694,37.4 29.502,37.217C29.318,37.042 29.294,36.764 29.43,36.413L29.167,36.313C28.927,36.931 29.151,37.271 29.306,37.418C29.492,37.595 29.742,37.67 29.969,37.67C30.095,37.67 30.213,37.646 30.309,37.606C30.5,37.526 30.609,37.38 30.609,37.204V36.091H30.327V37.204H30.329Z" id="path_65"/><path fill="#575756ff" d="M46.468,36.768C46.468,36.872 46.382,36.957 46.278,36.957H46.176C45.901,36.961 45.667,36.94 45.474,36.895C45.482,36.889 45.488,36.884 45.495,36.878C45.555,36.827 45.854,36.561 45.806,36.292C45.791,36.204 45.731,36.085 45.539,36.015L45.525,36.011L45.509,36.008C45.256,35.977 45,35.974 44.748,36.001L44.732,36.002L44.717,36.007C44.559,36.063 44.505,36.164 44.487,36.24C44.434,36.477 44.687,36.752 44.797,36.859C44.815,36.876 44.833,36.892 44.852,36.908C44.696,36.946 44.528,36.957 44.326,36.959H43.914C43.808,36.959 43.722,36.874 43.722,36.769V35.197H43.44V36.769C43.44,37.027 43.652,37.236 43.913,37.236H44.325C44.652,37.236 44.917,37.207 45.168,37.09C45.429,37.193 45.766,37.242 46.177,37.236H46.278C46.539,37.236 46.75,37.027 46.75,36.769V35.197H46.468V36.768ZM45.314,36.665C45.261,36.708 45.21,36.746 45.158,36.778C45.095,36.743 45.04,36.703 44.994,36.66C44.836,36.506 44.751,36.353 44.763,36.3C44.765,36.291 44.78,36.282 44.797,36.274C45.016,36.252 45.239,36.254 45.458,36.28C45.492,36.294 45.526,36.314 45.531,36.34C45.543,36.409 45.446,36.555 45.314,36.665Z" id="path_66"/></svg>