<svg id="vector" xmlns="http://www.w3.org/2000/svg" width="40.0d" height="40.0d" viewBox="0 0 40.0 40.0"><path fill="#ffffffff" d="M20,20m-19.75,0a19.75,19.75 0,1 1,39.5 0a19.75,19.75 0,1 1,-39.5 0" stroke="#e6e6e6ff" stroke-width="0.5" id="path_0"/><path fill="#009845ff" d="M23.532,14.848C21.959,15.095 20.758,16.454 20.758,18.094C20.758,18.176 20.761,18.256 20.768,18.336C21.16,17.036 22.337,16.075 23.748,16.005C23.018,16.57 22.548,17.454 22.548,18.448C22.548,18.545 22.552,18.639 22.561,18.734C22.573,18.856 22.591,18.974 22.615,19.091C22.654,19.277 22.71,19.457 22.782,19.628C22.785,19.442 22.803,19.259 22.834,19.081C22.869,18.882 22.921,18.69 22.99,18.506C23.243,17.819 23.707,17.236 24.303,16.834C24.413,16.76 24.529,16.693 24.647,16.632C24.7,18.622 24.705,21.197 24.464,22.823C24.641,22.954 24.814,23.086 24.983,23.217C25.007,23.236 25.032,23.255 25.056,23.274C25.081,23.255 25.105,23.236 25.129,23.217C25.298,23.086 25.472,22.954 25.648,22.823C25.412,21.202 25.437,18.638 25.501,16.652C25.607,16.707 25.711,16.767 25.809,16.834C26.405,17.235 26.871,17.819 27.122,18.506C27.191,18.691 27.243,18.882 27.279,19.081C27.309,19.259 27.329,19.443 27.331,19.628C27.403,19.458 27.46,19.277 27.499,19.091C27.522,18.974 27.541,18.856 27.551,18.734C27.561,18.639 27.565,18.545 27.565,18.448C27.565,17.455 27.096,16.57 26.365,16.005C27.777,16.075 28.953,17.036 29.346,18.336C29.352,18.256 29.354,18.176 29.354,18.094C29.354,16.454 28.154,15.095 26.581,14.848C26.947,14.707 27.346,14.629 27.762,14.629C28.545,14.629 29.266,14.903 29.831,15.361C29.283,14.376 28.229,13.708 27.021,13.708C26.791,13.708 26.565,13.733 26.348,13.78C26.767,13.262 27.342,12.875 28.003,12.695C27.86,12.675 27.713,12.665 27.565,12.665C26.726,12.665 25.963,12.988 25.39,13.515C25.339,13.148 25.236,12.799 25.084,12.475C24.914,12.796 24.789,13.144 24.719,13.512C24.147,12.986 23.385,12.665 22.547,12.665C22.397,12.665 22.251,12.675 22.109,12.695C22.77,12.875 23.346,13.262 23.764,13.78C23.548,13.733 23.323,13.708 23.092,13.708C21.884,13.708 20.83,14.376 20.282,15.361C20.847,14.903 21.567,14.629 22.351,14.629C22.767,14.629 23.166,14.707 23.532,14.848Z" id="path_1"/><path fill="#d79a2bff" d="M29.586,21.765C29.073,21.797 28.562,21.9 28.07,22.065C27.328,22.313 26.649,22.706 25.973,23.091C25.247,23.506 24.518,23.916 23.798,24.343C23.28,24.649 22.785,24.994 22.268,25.305C21.865,25.548 21.458,25.82 21.004,25.949C20.857,25.991 20.689,25.959 20.591,25.834C20.56,25.794 20.543,25.735 20.482,25.735C20.371,25.735 20.378,25.899 20.385,25.974C20.406,26.255 20.661,26.444 20.914,26.513C21.283,26.613 21.667,26.493 22,26.334C22.72,25.989 23.384,25.531 24.065,25.117C24.562,24.815 25.058,24.513 25.552,24.206C26.447,23.65 27.328,23.058 28.287,22.617C29.152,22.219 30.097,21.954 31.101,21.915C30.616,21.767 30.097,21.738 29.586,21.764" id="path_2"/><path fill="#d79a2bff" d="M20.528,21.765C21.041,21.797 21.552,21.9 22.044,22.065C22.786,22.313 23.465,22.706 24.141,23.091C24.867,23.506 25.596,23.916 26.316,24.343C26.834,24.649 27.329,24.994 27.846,25.305C28.249,25.548 28.655,25.82 29.109,25.949C29.257,25.991 29.424,25.959 29.522,25.834C29.553,25.794 29.571,25.735 29.631,25.735C29.743,25.735 29.735,25.899 29.729,25.974C29.708,26.255 29.453,26.444 29.2,26.513C28.831,26.613 28.447,26.493 28.114,26.334C27.393,25.989 26.73,25.531 26.049,25.117C25.552,24.815 25.056,24.513 24.562,24.206C23.667,23.65 22.786,23.058 21.826,22.617C20.961,22.219 20.017,21.954 19.013,21.915C19.498,21.767 20.016,21.738 20.529,21.764" id="path_3"/><path fill="#e1251bff" d="M25.048,30.953C18.933,30.953 13.974,25.996 13.974,19.883C13.974,13.771 18.933,8.814 25.048,8.814C26.391,8.814 27.679,9.053 28.871,9.492C26.61,7.729 23.767,6.679 20.678,6.679C13.317,6.679 7.351,12.644 7.351,20C7.351,27.357 13.318,33.322 20.678,33.322C24.023,33.322 27.08,32.09 29.42,30.056C28.078,30.633 26.601,30.953 25.048,30.953Z" id="path_4"/></svg>