<svg id="vector" xmlns="http://www.w3.org/2000/svg" width="64.0d" height="64.0d" viewBox="0 0 64.0 64.0"><path fill="#ffffffff" d="M32,32m-31.75,0a31.75,31.75 0,1 1,63.5 0a31.75,31.75 0,1 1,-63.5 0" stroke="#e6e6e6ff" stroke-width="0.5" id="path_0"/><path fill="@drawable/$partner_zatca__0" d="M31.156,10.6L12.116,23.583L12.362,23.944L31.402,10.961L31.156,10.6Z" id="path_1"/><path fill="@drawable/$partner_zatca__1" d="M27.399,10.835L12.14,21.235L12.386,21.596L27.644,11.195L27.399,10.835Z" id="path_2"/><path fill="@drawable/$partner_zatca__2" d="M22.764,11.6L12.148,18.861L12.394,19.221L23.01,11.96L22.764,11.6Z" id="path_3"/><path fill="@drawable/$partner_zatca__3" d="M16.566,13.46L12.163,16.502L12.411,16.861L16.814,13.819L16.566,13.46Z" id="path_4"/><path fill="@drawable/$partner_zatca__4" d="M40.956,27.37L40.952,27.366L37.866,29.472L37.869,29.476L21.991,40.3L22.32,40.782L20.162,42.289L20.331,42.531L15.738,45.735L15.988,46.096L21.055,42.556L22.729,41.385L38.856,30.387L38.524,29.902L41.364,27.966L41.201,27.73L51.562,20.667L51.316,20.307L40.956,27.37Z" id="path_5"/><path fill="@drawable/$partner_zatca__5" d="M41.832,29.119V29.115L38.527,31.367L38.531,31.371L23.165,41.849L23.491,42.327L21.18,43.938L21.343,44.17L16.84,47.322L17.093,47.679L21.592,44.53L21.596,44.533L23.899,42.926L23.903,42.93L39.321,32.417L38.988,31.935L42.241,29.718L42.078,29.479L51.548,23.022L51.302,22.662L41.832,29.119Z" id="path_6"/><path fill="@drawable/$partner_zatca__6" d="M42.677,30.892L42.674,30.889L39.941,32.752V32.756L24.256,43.449L24.582,43.927L22.465,45.406L22.628,45.638L18.08,48.825L18.329,49.182L22.877,45.995L22.881,46.002L24.99,44.53L24.994,44.533L40.685,33.833L40.356,33.352L43.082,31.492L42.923,31.253L51.534,25.381L51.288,25.021L42.677,30.892Z" id="path_7"/><path fill="@drawable/$partner_zatca__7" d="M43.966,32.361V32.357L41.253,34.204L41.257,34.211L25.396,44.977L25.732,45.468L23.026,47.356L23.193,47.595L19.438,50.221L19.691,50.578L23.979,47.581V47.578L26.861,45.565L42.133,35.198L41.804,34.709L44.374,32.957L44.212,32.721L51.52,27.74L51.275,27.38L43.966,32.361Z" id="path_8"/><path fill="@drawable/$partner_zatca__8" d="M45.559,33.618L45.556,33.611L42.59,35.634V35.638L28.832,45.022L29.157,45.496L25.905,47.772L26.071,48.011L20.99,51.561L21.239,51.918L26.771,48.053L29.566,46.099L29.57,46.102L43.411,36.663L43.082,36.178L45.964,34.214L45.805,33.979L51.507,30.089L51.261,29.729L45.559,33.618Z" id="path_9"/><path fill="@drawable/$partner_zatca__9" d="M49.085,33.733L49.006,33.612L45.524,35.984L32.206,45.067L32.538,45.552L28.95,48.06L29.116,48.299L22.819,52.701L23.068,53.058L29.809,48.347L33.276,45.922L46.262,37.069L45.933,36.587L49.414,34.214L49.21,33.913L49.335,34.093L51.496,32.565L51.243,32.209L49.085,33.733Z" id="path_10"/><path fill="@drawable/$partner_zatca__10" d="M49.144,35.87V35.863L47.184,37.2H47.18L39.348,42.542L39.681,43.026L36.366,45.344L36.532,45.583L24.585,53.934L24.835,54.291L37.253,45.611L40.159,43.581L40.155,43.577L47.918,38.284L47.592,37.803L49.553,36.466L49.39,36.23L51.444,34.831L51.198,34.471L49.144,35.87Z" id="path_11"/><path fill="@drawable/$partner_zatca__11" d="M49.536,38.035L49.494,37.976L47.648,39.233H47.644L41.427,43.47L41.756,43.954L38.863,45.977L39.03,46.22L26.438,55.018L26.688,55.375L39.923,46.126V46.123L42.466,44.349L48.382,40.314L48.056,39.836L49.903,38.575L49.698,38.277L51.108,37.314L50.945,37.075L49.536,38.035Z" id="path_12"/><path fill="@drawable/$partner_zatca__12" d="M13.871,26.341L15.641,25.104L22.334,20.542L22.004,20.061L24.945,18.059L24.786,17.823L34.693,11.065L34.447,10.705L24.54,17.46L24.537,17.456L21.596,19.462V19.458L14.509,24.29L14.841,24.775L13.158,25.95L13.328,26.189L12.098,27.051L12.347,27.408L13.871,26.341Z" id="path_13"/><path fill="@drawable/$partner_zatca__13" d="M14.983,27.931V27.927L16.729,26.708L25.001,21.065L24.675,20.587L26.958,19.028L26.806,18.807L37.589,11.387L37.339,11.03L26.559,18.447L26.549,18.429L24.266,19.985L15.465,25.984L15.797,26.472L14.283,27.529L14.45,27.768L12.08,29.424L12.333,29.781L14.983,27.931Z" id="path_14"/><path fill="@drawable/$partner_zatca__14" d="M15.375,30.016L17.695,28.395L26.702,22.253L26.366,21.761L28.787,20.109L28.635,19.884L40.263,11.882L40.013,11.522L28.389,19.524L28.378,19.51L25.853,21.231L25.86,21.242L16.421,27.678L16.753,28.166L14.713,29.593L14.879,29.832L12.067,31.796L12.319,32.153L15.375,30.016Z" id="path_15"/><path fill="@drawable/$partner_zatca__15" d="M16.303,31.734L18.832,29.968L28.402,23.441L28.073,22.957L30.626,21.214L30.456,20.965L42.909,12.568L42.667,12.208L30.044,20.715L30.051,20.726L27.654,22.364L17.373,29.375L17.709,29.864L15.361,31.506L15.527,31.744L12.084,34.148L12.333,34.509L16.303,31.734Z" id="path_16"/><path fill="@drawable/$partner_zatca__16" d="M17.436,33.289L19.067,32.15V32.153L30.1,24.626L29.771,24.145L32.625,22.198L32.465,21.962L44.987,13.424L44.742,13.064L32.22,21.602L32.216,21.599L29.344,23.556V23.559L18.329,31.069L18.655,31.551L16.549,33.023L16.719,33.265L12.285,36.355L12.538,36.712L17.439,33.293L17.436,33.289Z" id="path_17"/><path fill="@drawable/$partner_zatca__17" d="M18.534,34.89L20.394,33.591L31.8,25.815L31.471,25.333L34.631,23.178L34.468,22.943L47.333,14.169L47.087,13.809L34.222,22.583L34.218,22.576L30.872,24.858V24.862L19.282,32.763L19.615,33.251L17.626,34.64L17.792,34.88L12.676,38.454L12.926,38.811L18.537,34.893L18.534,34.89Z" id="path_18"/><path fill="@drawable/$partner_zatca__18" d="M18.852,37.037L21.52,35.174L34.984,26.046L34.651,25.558L37.63,23.528L37.467,23.293L49.414,15.146L49.168,14.782L37.221,22.929L37.218,22.926L34.149,25.021L34.152,25.028L20.169,34.505L20.501,34.997L18.007,36.739L18.177,36.979L13.231,40.432L13.48,40.792L18.852,37.041V37.037Z" id="path_19"/><path fill="@drawable/$partner_zatca__19" d="M19.181,39.15L21.544,37.501L36.161,27.532L35.836,27.054L38.829,25.017L38.666,24.778L51.306,16.16L51.06,15.8L38.42,24.418L38.417,24.415L35.427,26.455L35.424,26.451L20.48,36.642L20.809,37.127L18.281,38.894L18.447,39.133L13.93,42.289L14.18,42.649L19.185,39.15H19.181Z" id="path_20"/><path fill="@drawable/$partner_zatca__20" d="M19.646,41.17L21.648,39.774H21.651L37.253,29.136L36.927,28.655L39.781,26.708L39.618,26.472L51.576,18.319L51.33,17.958L39.373,26.112L39.369,26.105L36.515,28.052L20.91,38.693L21.239,39.171L18.88,40.82L19.057,41.069L14.758,44.045L15.007,44.402L19.656,41.184L19.646,41.17Z" id="path_21"/><path fill="@drawable/$partner_zatca__21" d="M49.835,41.032L28.25,56.072L28.5,56.431L50.085,41.39L49.835,41.032Z" id="path_22"/><path fill="@drawable/$partner_zatca__22" d="M48.154,45.077L29.973,57.716L30.221,58.074L48.403,45.435L48.154,45.077Z" id="path_23"/><path fill="@drawable/$partner_zatca__23" d="M44.397,50.069L36.41,55.621L36.658,55.979L44.646,50.427L44.397,50.069Z" id="path_24"/></svg>