<svg id="vector" xmlns="http://www.w3.org/2000/svg" width="40.0d" height="40.0d" viewBox="0 0 40.0 40.0"><path fill="#ffffffff" d="M20,20m-19.75,0a19.75,19.75 0,1 1,39.5 0a19.75,19.75 0,1 1,-39.5 0" stroke="#e6e6e6ff" stroke-width="0.5" id="path_0"/><path fill="#158285ff" d="M17.017,15.774C16.948,15.762 16.88,15.751 16.812,15.742L13.699,10.778C15.498,11.383 17.183,12.285 18.681,13.446C18.087,14.178 17.561,14.962 17.11,15.789C17.079,15.784 17.048,15.779 17.017,15.774ZM19.724,20.381L24.856,22.036H24.854C25.8,24.572 26.108,27.299 25.753,29.981L19.724,20.381Z" fill-rule="evenodd" id="path_1"/><path fill="#f7941dff" d="M16.443,18.338C18.665,14.799 21.563,12.215 25.753,10.779L19.725,20.381L13.696,29.981C13.157,25.601 14.22,21.878 16.443,18.338Z" id="path_2"/><path fill="#2bb574ff" d="M14.163,18.583L7.75,16.508C10.764,15.51 13.979,15.264 17.111,15.789C16.916,16.148 16.728,16.511 16.554,16.889C16.448,17.114 16.348,17.339 16.256,17.565C15.542,17.869 14.843,18.208 14.163,18.583ZM19.724,20.381L25.285,18.583V18.58C27.822,19.969 30.014,21.908 31.698,24.252L19.724,20.381Z" fill-rule="evenodd" id="path_3"/><path fill="#fcb614ff" d="M19.724,20.38L22.636,15.741C25.676,15.279 28.782,15.543 31.698,16.51L19.724,20.38ZM14.594,22.036L7.75,24.249C10.023,21.122 12.864,19.01 16.256,17.565C15.92,18.381 15.651,19.224 15.452,20.084C15.128,20.718 14.842,21.37 14.594,22.036Z" fill-rule="evenodd" id="path_4"/></svg>