<svg id="vector" xmlns="http://www.w3.org/2000/svg" width="64.0d" height="64.0d" viewBox="0 0 64.0 64.0"><path fill="#ffffffff" d="M32,32m-31.75,0a31.75,31.75 0,1 1,63.5 0a31.75,31.75 0,1 1,-63.5 0" stroke="#e6e6e6ff" stroke-width="0.5" id="path_0"/><path fill="#bb3840ff" d="M6.633,40.631L6,23H9.642L9.801,40.631H6.633Z" stroke="#bb3840ff" stroke-width="1.0" id="path_1"/><path fill="#6e3154ff" d="M20.78,36.465C20.78,36.465 20.516,23.319 20.622,23.161C20.727,23.003 24.792,22.897 24.95,23.161C25.108,23.425 25.056,32.348 25.056,32.348L24.369,31.187L23.525,32.929L23.576,33.117C23.764,33.811 23.996,34.667 23.947,35.198C22.511,36.423 21.237,36.553 20.78,36.465ZM23.842,27.492C22.416,26.542 21.202,28.917 21.677,28.389C22.153,27.861 23.367,28.389 23.367,28.389L21.994,29.234C23.768,29.065 23.965,28.002 23.842,27.492ZM25.108,34.301V40.635C25.108,40.635 20.833,40.899 20.727,40.635C20.622,40.371 20.727,38.682 20.727,38.682C21.695,38.665 23.852,37.764 24.739,34.301H25.108Z" fill-rule="evenodd" id="path_2"/><path fill="#e95045ff" d="M16.346,33.873C16.008,36.533 15.079,37.48 14.657,37.62C14.91,30.611 13.601,27.169 12.915,26.324C14.773,29.196 14.358,37.092 13.918,40.682V40.787H19.777V38.782C17.159,37.473 18.581,34.26 19.619,32.817V23.21C19.534,22.83 14.657,23.052 12.229,23.21C13.622,24.266 13.83,25.093 13.759,25.374L13.918,25.163C15.354,26.725 15.325,28.348 15.132,28.963L15.66,28.594C17.053,31.888 16.135,33.802 15.501,34.348L16.346,33.873ZM19.671,33.292C19.038,34.207 18.162,36.164 19.724,36.67L19.671,33.292ZM10.645,23.051L10.909,40.629H13.496L14.023,37.832C13.443,37.955 12.334,37.451 12.545,34.453L13.059,34.505C13.065,34.506 13.07,34.507 13.073,34.506L13.059,34.505C12.978,34.484 12.693,34.273 12.545,33.978C12.51,33.908 12.467,33.377 12.406,32.62C12.33,31.674 12.225,30.374 12.07,29.175L12.875,29.316C12.908,29.325 12.939,29.33 12.968,29.333L12.875,29.316C12.422,29.198 11.593,28.462 11.279,26.219L11.754,26.377C11.226,25.779 10.36,24.287 11.12,23.104L10.645,23.051Z" fill-rule="evenodd" id="path_3"/><path fill="#f9c29dff" d="M25.9,23.198C25.636,23.462 26.006,32.33 26.006,32.33C29.511,27.98 30.704,29.145 30.862,30.271C30.482,32.805 27.466,34.037 26.006,34.336C26.006,34.336 25.795,40.618 26.006,40.828C26.217,41.04 31.179,40.828 31.179,40.828C31.179,40.828 31.073,23.462 30.968,23.198C30.862,22.934 26.164,22.934 25.9,23.198ZM29.384,31.433C29.138,30.87 28.202,30.303 26.428,32.541C27.431,32.418 29.427,32.024 29.384,31.433ZM27.748,25.943L26.587,27.368L27.59,28.318L28.804,26.84L27.748,25.943Z" fill-rule="evenodd" id="path_4"/><path fill="#86babdff" d="M34.241,34.771V40.842C33.66,40.842 32.319,40.799 31.601,40.631V23.053H38.622L38.78,40.789C37.918,40.666 36.141,40.462 35.93,40.631C35.718,40.799 35.842,36.795 35.93,34.771H34.241ZM33.079,29.018C34.599,26.695 34.909,25.411 34.874,25.059H34.979V29.07L34.982,29.155C34.904,29.178 34.805,29.271 34.786,29.303C34.768,29.334 34.735,29.409 34.735,29.504C34.735,29.599 34.749,29.71 34.821,29.764C34.893,29.817 34.979,29.862 35.085,29.862C35.191,29.862 35.3,29.835 35.363,29.764C35.426,29.692 35.458,29.599 35.454,29.504C35.45,29.409 35.409,29.319 35.34,29.253C35.285,29.2 35.214,29.166 35.138,29.155V29.07V25.059H35.296C35.279,25.428 35.602,26.737 37.038,29.018C36.792,29.897 36.289,31.984 36.246,33.293H33.871C33.491,30.084 33.185,29.106 33.079,29.018ZM36.669,33.505H33.554V34.56H36.669V33.505Z" fill-rule="evenodd" id="path_5"/><path fill="#062d39ff" d="M40.153,23.317V36.302C40.701,35.035 41.648,34.05 42.053,33.715C41.124,32.955 41.138,31.569 41.261,30.971C41.683,29.028 43.021,29.422 43.636,29.862L43.109,31.235L41.894,31.076C42.443,33.314 44.164,32.29 44.956,31.499L44.27,32.977L42.845,34.243C40.733,36.059 40.17,37.358 40.153,37.78C41.124,40.018 45.273,39.557 47.226,39.047C47.099,39.807 45.026,40.666 44.006,41H49.918L49.759,23.317H40.153ZM40.997,25.586V26.114L44.164,25.006L44.534,24.319L40.997,25.586ZM40.944,26.906V27.539L44.111,26.378L44.481,25.745L40.944,26.906ZM40.047,39.997V40.947H41.683C41.243,40.894 40.3,40.631 40.047,39.997Z" fill-rule="evenodd" id="path_6"/><path fill="#f49e40ff" d="M52.135,40.989C52.135,40.989 51.026,40.894 50.815,40.989C50.695,41.043 50.684,36.048 50.674,31.344C50.666,27.767 50.659,24.358 50.604,23.465C52.416,23.324 56.347,23.158 57.572,23.623C57.495,30.46 57.51,34.253 57.572,40.989H52.452C52.804,40.356 53.528,38.91 53.613,38.192H53.191C53.155,38.473 52.895,39.427 52.135,40.989ZM53.349,37.453C52.856,36.766 51.839,34.708 51.713,31.963L52.979,32.544C52.733,32.016 52.135,30.781 51.713,30.063C51.519,30.115 51.681,28.87 53.877,23.464C54.968,24.995 57.033,29.049 56.569,33.019L54.721,34.972L55.936,34.866C55.548,35.693 54.595,37.368 53.877,37.453C54.422,34.884 55.123,29.218 53.56,27.107V27.793C53.982,29.535 54.531,33.905 53.349,37.453Z" fill-rule="evenodd" id="path_7"/></svg>