<svg id="vector" xmlns="http://www.w3.org/2000/svg" width="40.0d" height="40.0d" viewBox="0 0 40.0 40.0"><defs><clipPath id="clip_path_0"><path d="M25.614,29.439H28.407V32.501H25.614V29.439Z"/></clipPath></defs><path fill="#ffffffff" d="M20,20m-19.75,0a19.75,19.75 0,1 1,39.5 0a19.75,19.75 0,1 1,-39.5 0" stroke="#e6e6e6ff" stroke-width="0.5" id="path_0"/><path fill="#2b2422ff" d="M15.715,14.818C15.865,12.679 17.03,10.903 18.603,10.247C18.471,9.938 18.395,9.58 18.395,9.191C18.395,9.065 18.406,8.944 18.421,8.828C16.561,9.646 15.205,11.921 15.132,14.626C15.22,14.652 15.308,14.68 15.396,14.708C15.503,14.743 15.609,14.779 15.715,14.818Z" id="path_1"/><path fill="#2b2422ff" d="M24.765,14.627C24.694,11.92 23.34,9.648 21.48,8.827C21.493,8.945 21.504,9.067 21.504,9.19C21.504,9.579 21.428,9.939 21.298,10.248C22.87,10.905 24.033,12.679 24.184,14.817C24.29,14.778 24.396,14.741 24.505,14.707C24.591,14.679 24.679,14.653 24.765,14.627Z" id="path_2"/><path fill="#2b2422ff" d="M19.949,10.881C20.58,10.881 21.09,10.125 21.09,9.19C21.09,8.256 20.58,7.5 19.949,7.5C19.321,7.5 18.809,8.256 18.809,9.19C18.809,10.125 19.321,10.881 19.949,10.881Z" id="path_3"/><path fill="#0083c5ff" d="M30.79,19.149C30.653,20.835 29.342,22.479 27.378,23.291C27.448,23.38 27.516,23.47 27.586,23.561C27.637,23.636 27.689,23.71 27.741,23.785C30.268,22.874 31.993,20.895 32.196,18.884C32.09,18.934 31.978,18.979 31.857,19.018C31.488,19.139 31.122,19.178 30.79,19.149Z" id="path_4"/><path fill="#0083c5ff" d="M24.76,15.241C26.827,14.744 28.853,15.304 29.956,16.587C30.207,16.367 30.527,16.185 30.897,16.064C31.015,16.025 31.134,15.997 31.251,15.973C29.906,14.468 27.345,13.88 24.766,14.627C24.769,14.701 24.77,14.776 24.77,14.852C24.77,14.982 24.766,15.111 24.76,15.241Z" id="path_5"/><path fill="#2b2422ff" d="M24.2,15.402C24.221,15.396 24.237,15.389 24.255,15.383C24.426,15.329 24.591,15.281 24.76,15.24C24.767,15.113 24.771,14.983 24.771,14.851C24.771,14.776 24.769,14.703 24.767,14.627C24.681,14.653 24.591,14.678 24.506,14.707C24.397,14.741 24.292,14.778 24.185,14.817C24.196,14.977 24.202,15.134 24.202,15.299C24.202,15.333 24.202,15.368 24.2,15.402Z" id="path_6"/><path fill="#0083c5ff" d="M32.986,17.018C32.792,16.42 31.914,16.167 31.027,16.457C30.139,16.744 29.575,17.466 29.772,18.064C29.966,18.662 30.843,18.915 31.731,18.628C32.619,18.338 33.182,17.619 32.986,17.018Z" id="path_7"/><path fill="#f4c40eff" d="M27.156,23.974C28.267,25.784 28.362,27.884 27.48,29.329C27.767,29.502 28.04,29.748 28.272,30.061C28.343,30.163 28.407,30.266 28.464,30.371C29.48,28.625 29.25,26.009 27.742,23.786C27.656,23.816 27.569,23.846 27.482,23.877C27.375,23.911 27.267,23.943 27.156,23.974Z" id="path_8"/><path fill="#f4c40eff" d="M19.93,29.422C21.581,31.561 24.007,32.598 25.991,32.168C25.91,32.082 25.828,31.989 25.754,31.889C25.528,31.574 25.376,31.239 25.301,30.913C23.648,31.304 21.671,30.558 20.291,28.928C20.235,29.012 20.174,29.096 20.113,29.18C20.056,29.262 19.993,29.343 19.93,29.422Z" id="path_9"/><g id="g_0"><path fill="#f4c40eff" d="M26.019,29.608C25.509,29.978 25.541,30.891 26.088,31.647C26.637,32.401 27.497,32.714 28.006,32.345C28.517,31.973 28.486,31.06 27.936,30.306C27.386,29.549 26.529,29.236 26.019,29.608Z" clip-path="url(#clip_path_0)"/></g><path fill="#009e3cff" d="M12.132,23.776C10.648,25.991 10.426,28.587 11.436,30.322C11.492,30.218 11.555,30.115 11.631,30.013C11.857,29.7 12.13,29.454 12.417,29.281C11.547,27.846 11.634,25.768 12.718,23.967C12.619,23.938 12.519,23.908 12.417,23.874C12.322,23.844 12.227,23.811 12.132,23.776Z" id="path_10"/><path fill="#009e3cff" d="M19.574,28.921C18.194,30.522 16.239,31.252 14.599,30.863C14.523,31.191 14.374,31.526 14.143,31.84C14.072,31.941 13.992,32.034 13.912,32.12C15.88,32.546 18.284,31.526 19.931,29.422C19.883,29.357 19.833,29.292 19.788,29.228C19.712,29.126 19.641,29.025 19.574,28.921Z" id="path_11"/><path fill="#009e3cff" d="M13.882,29.559C13.371,29.19 12.512,29.501 11.963,30.257C11.413,31.011 11.384,31.924 11.894,32.297C12.401,32.666 13.261,32.352 13.81,31.598C14.361,30.842 14.391,29.929 13.882,29.559Z" id="path_12"/><path fill="#df0725ff" d="M15.134,14.626C12.555,13.879 9.995,14.469 8.649,15.974C8.766,15.998 8.882,16.026 9.001,16.065C9.37,16.183 9.688,16.367 9.946,16.585C11.045,15.302 13.074,14.745 15.141,15.242C15.134,15.112 15.13,14.982 15.13,14.851C15.13,14.775 15.13,14.702 15.134,14.626Z" id="path_13"/><path fill="#df0725ff" d="M12.493,23.279C10.547,22.462 9.247,20.827 9.111,19.15C8.775,19.178 8.411,19.14 8.04,19.018C7.925,18.979 7.811,18.934 7.704,18.882C7.906,20.889 9.619,22.862 12.132,23.775C12.191,23.689 12.253,23.6 12.316,23.514C12.372,23.434 12.435,23.356 12.493,23.279Z" id="path_14"/><path fill="#2b2422ff" d="M15.698,15.402C15.698,15.368 15.696,15.333 15.696,15.299C15.696,15.134 15.702,14.974 15.715,14.817C15.609,14.778 15.503,14.741 15.396,14.707C15.308,14.678 15.22,14.65 15.134,14.627C15.13,14.7 15.13,14.776 15.13,14.851C15.13,14.983 15.134,15.113 15.141,15.24C15.308,15.281 15.474,15.329 15.646,15.383C15.661,15.389 15.681,15.396 15.698,15.402Z" id="path_15"/><path fill="#df0725ff" d="M10.13,18.064C10.324,17.465 9.763,16.744 8.875,16.454C7.988,16.167 7.11,16.42 6.914,17.018C6.719,17.619 7.283,18.338 8.171,18.628C9.058,18.915 9.935,18.662 10.13,18.064Z" id="path_16"/><path fill="#009e3cff" d="M25.541,23.02C25.505,23.027 25.473,23.033 25.439,23.038C25.463,23.063 25.486,23.087 25.508,23.111C25.68,23.289 25.845,23.482 25.996,23.69C27.402,25.627 27.291,28.114 25.749,29.235C24.205,30.356 21.805,29.693 20.399,27.755C20.241,27.541 20.104,27.318 19.986,27.092C19.969,27.062 19.953,27.029 19.937,27.001C19.922,27.029 19.906,27.062 19.891,27.09C19.776,27.302 19.647,27.507 19.501,27.708C18.095,29.645 15.693,30.309 14.153,29.188C12.607,28.066 12.497,25.577 13.903,23.642C14.043,23.45 14.192,23.27 14.348,23.104C14.371,23.078 14.397,23.054 14.422,23.031C14.387,23.024 14.352,23.02 14.321,23.014C14.088,22.97 13.858,22.912 13.627,22.838C11.349,22.097 9.978,20.019 10.566,18.207C11.156,16.393 13.487,15.517 15.767,16.259C16.013,16.338 16.249,16.435 16.476,16.546C16.505,16.561 16.536,16.576 16.569,16.591C16.562,16.557 16.558,16.524 16.551,16.489C16.513,16.228 16.493,15.958 16.493,15.683C16.493,13.29 18.042,11.339 19.949,11.339C21.858,11.339 23.41,13.29 23.41,15.683C23.41,15.958 23.388,16.228 23.349,16.489C23.343,16.524 23.339,16.557 23.335,16.591C23.363,16.576 23.395,16.561 23.425,16.546C23.653,16.435 23.885,16.338 24.136,16.259C26.411,15.517 28.742,16.393 29.333,18.205C29.921,20.019 28.549,22.097 26.272,22.838C26.029,22.919 25.782,22.977 25.541,23.02ZM29.413,18.179C28.811,16.321 26.43,15.422 24.108,16.178C23.874,16.252 23.654,16.343 23.441,16.444C23.475,16.196 23.495,15.943 23.495,15.683C23.495,13.243 21.904,11.255 19.949,11.255C17.997,11.255 16.405,13.243 16.405,15.683C16.405,15.943 16.424,16.196 16.461,16.444C16.246,16.343 16.024,16.252 15.793,16.178C13.469,15.422 11.09,16.321 10.485,18.181C9.883,20.039 11.278,22.165 13.601,22.919C13.816,22.99 14.034,23.046 14.248,23.087C14.104,23.244 13.966,23.413 13.834,23.592C12.399,25.567 12.52,28.107 14.101,29.256C15.686,30.404 18.135,29.732 19.571,27.757C19.707,27.569 19.829,27.379 19.937,27.183C20.053,27.395 20.183,27.604 20.33,27.807C21.764,29.781 24.218,30.453 25.799,29.304C27.381,28.155 27.497,25.615 26.063,23.64C25.923,23.446 25.769,23.262 25.609,23.093C25.84,23.05 26.07,22.994 26.298,22.919C28.621,22.165 30.016,20.039 29.413,18.179Z" id="path_17"/><path fill="#4d7341ff" d="M27.584,23.562C27.517,23.469 27.448,23.381 27.377,23.292C27.218,23.357 27.053,23.42 26.884,23.474C26.866,23.48 26.848,23.485 26.829,23.491C26.842,23.506 26.852,23.519 26.866,23.534C26.969,23.679 27.066,23.826 27.157,23.973C27.267,23.942 27.373,23.91 27.484,23.876C27.569,23.847 27.656,23.817 27.74,23.787C27.69,23.712 27.636,23.636 27.584,23.562Z" id="path_18"/><path fill="#348839ff" d="M19.981,28.535C19.964,28.511 19.949,28.487 19.933,28.464C19.929,28.472 19.924,28.479 19.918,28.487C19.808,28.639 19.692,28.782 19.574,28.922C19.642,29.025 19.713,29.127 19.787,29.228C19.834,29.293 19.881,29.358 19.931,29.423C19.993,29.343 20.055,29.263 20.114,29.179C20.175,29.097 20.234,29.013 20.292,28.928C20.184,28.801 20.08,28.671 19.981,28.535Z" id="path_19"/><path fill="#663839ff" d="M13.017,23.473C12.837,23.415 12.662,23.35 12.493,23.279C12.433,23.357 12.372,23.434 12.316,23.515C12.251,23.601 12.191,23.69 12.132,23.776C12.227,23.81 12.322,23.843 12.417,23.875C12.519,23.907 12.616,23.938 12.718,23.966C12.815,23.804 12.92,23.644 13.036,23.486C13.038,23.485 13.039,23.482 13.039,23.48C13.031,23.478 13.024,23.476 13.017,23.473Z" id="path_20"/><path fill="#009e3cff" d="M19.144,19.207C19.179,19.375 19.306,19.511 19.472,19.55L19.476,19.565L19.666,20.449H19.4L19.666,21.686H19.4L19.666,22.927H20.196L20.461,21.686H20.196L20.461,20.449H20.196L20.388,19.55C20.556,19.511 20.685,19.375 20.718,19.207C21.235,19.364 21.872,19.764 22.205,20.771C22.205,20.771 22.879,19.051 21.587,18.081C21.348,17.906 21.114,17.796 20.897,17.729C21.23,17.634 21.667,17.632 22.222,17.859C22.222,17.859 21.602,16.619 20.257,16.968C20.133,17.001 20.025,17.046 19.932,17.103C19.837,17.046 19.729,17.001 19.608,16.968C18.262,16.619 17.641,17.859 17.641,17.859C18.198,17.632 18.634,17.634 18.964,17.729C18.746,17.796 18.513,17.906 18.278,18.081C16.984,19.051 17.657,20.771 17.657,20.771C17.992,19.764 18.629,19.364 19.144,19.207Z" id="path_21"/><path fill="#009e3cff" d="M24.697,22.511C24.657,22.514 24.625,22.514 24.593,22.515C23.8,22.548 23.025,22.673 22.27,22.928C21.761,23.103 21.277,23.34 20.834,23.654C20.648,23.785 20.471,23.931 20.304,24.086C20.281,24.11 20.274,24.12 20.302,24.147C20.601,24.421 20.894,24.695 21.19,24.972C21.222,25.002 21.231,24.989 21.247,24.959C21.277,24.9 21.294,24.84 21.313,24.779C21.344,24.684 21.38,24.59 21.454,24.518C21.572,24.401 21.711,24.347 21.875,24.366C22.027,24.386 22.156,24.544 22.16,24.699C22.163,24.857 22.046,25 21.889,25.032C21.771,25.056 21.668,25.028 21.567,24.972C21.524,24.948 21.508,24.95 21.486,24.993C21.449,25.064 21.446,25.129 21.498,25.196C21.581,25.311 21.698,25.375 21.823,25.436C21.884,25.466 21.927,25.471 21.985,25.412C22.098,25.304 22.236,25.298 22.379,25.358C22.495,25.41 22.574,25.537 22.571,25.665C22.569,25.792 22.488,25.901 22.37,25.941C22.149,26.021 21.94,25.985 21.732,25.896C21.541,25.816 21.372,25.698 21.21,25.57C21.187,25.551 21.175,25.548 21.154,25.576C21.014,25.764 20.838,25.907 20.604,25.965C20.454,26.002 20.315,25.978 20.191,25.875C20.028,25.74 20.013,25.533 20.155,25.38C20.296,25.226 20.482,25.242 20.635,25.334C20.696,25.369 20.723,25.427 20.72,25.5C20.716,25.572 20.734,25.583 20.8,25.559C20.851,25.542 20.888,25.507 20.92,25.464C20.936,25.445 20.927,25.43 20.918,25.41C20.841,25.272 20.741,25.15 20.627,25.041C20.463,24.883 20.278,24.751 20.104,24.606C20.054,24.563 20.002,24.522 19.955,24.477C19.937,24.462 19.929,24.46 19.909,24.477C19.721,24.652 19.516,24.803 19.324,24.973C19.184,25.099 19.055,25.233 18.951,25.388C18.92,25.434 18.922,25.462 18.959,25.499C18.992,25.531 19.03,25.552 19.073,25.563C19.111,25.57 19.136,25.557 19.148,25.522C19.158,25.49 19.163,25.458 19.173,25.425C19.19,25.362 19.226,25.319 19.288,25.302C19.332,25.291 19.369,25.278 19.413,25.274C19.609,25.246 19.734,25.371 19.785,25.529C19.836,25.684 19.762,25.844 19.607,25.922C19.448,25.997 19.291,25.993 19.134,25.928C18.957,25.853 18.811,25.738 18.707,25.576C18.691,25.548 18.681,25.551 18.656,25.57C18.496,25.693 18.333,25.81 18.149,25.894C17.976,25.972 17.799,26.017 17.609,26C17.351,25.976 17.255,25.725 17.328,25.537C17.438,25.261 17.74,25.268 17.888,25.421C17.933,25.466 17.966,25.471 18.022,25.445C18.156,25.382 18.285,25.315 18.37,25.19C18.417,25.125 18.417,25.054 18.37,24.989C18.349,24.959 18.322,24.946 18.282,24.963C18.237,24.985 18.188,25.002 18.141,25.017C17.94,25.084 17.808,24.995 17.732,24.811C17.677,24.673 17.713,24.546 17.82,24.447C17.926,24.35 18.051,24.332 18.185,24.384C18.199,24.388 18.211,24.395 18.225,24.401C18.385,24.471 18.496,24.583 18.544,24.755C18.563,24.829 18.588,24.903 18.624,24.972C18.634,24.993 18.644,24.997 18.665,24.978C18.967,24.697 19.265,24.419 19.57,24.14C19.594,24.118 19.583,24.108 19.566,24.092C19.346,23.885 19.111,23.699 18.857,23.537C18.211,23.122 17.508,22.861 16.759,22.699C16.341,22.608 15.915,22.554 15.483,22.526C15.395,22.52 15.306,22.517 15.217,22.514C15.202,22.514 15.188,22.517 15.168,22.502C15.258,22.487 15.34,22.472 15.427,22.459C15.807,22.405 16.19,22.394 16.572,22.42C16.933,22.444 17.29,22.504 17.641,22.587C18.164,22.71 18.65,22.915 19.112,23.187C19.391,23.354 19.661,23.537 19.922,23.732C19.961,23.762 19.975,23.736 19.998,23.719C20.406,23.367 20.858,23.09 21.351,22.876C21.785,22.688 22.24,22.559 22.713,22.483C23.196,22.405 23.674,22.39 24.16,22.429C24.327,22.442 24.491,22.466 24.655,22.496C24.669,22.498 24.681,22.496 24.697,22.511Z" fill-rule="evenodd" id="path_22"/></svg>