<svg id="vector" xmlns="http://www.w3.org/2000/svg" width="64.0d" height="64.0d" viewBox="0 0 64.0 64.0"><path fill="#ffffffff" d="M32,32m-31.75,0a31.75,31.75 0,1 1,63.5 0a31.75,31.75 0,1 1,-63.5 0" stroke="#e6e6e6ff" stroke-width="0.5" id="path_0"/><path fill="@drawable/$partner_scot__0" d="M32.153,7C18.262,7 7,18.37 7,32.395C7,46.42 18.262,57.791 32.153,57.791C46.044,57.791 57.306,46.42 57.306,32.395C57.306,18.37 46.044,7 32.153,7ZM32.153,11.773C34.572,11.773 36.532,13.932 36.532,16.596C36.532,19.26 34.572,21.419 32.153,21.419C29.734,21.419 27.774,19.26 27.774,16.596C27.774,13.932 29.734,11.773 32.153,11.773ZM42.603,33.45C42.506,33.455 42.465,33.579 42.539,33.642C43.624,34.58 48.578,39.174 47.528,44.102C47.528,44.102 39.869,35.265 35.284,35.834C35.233,35.842 35.193,35.886 35.189,35.938L34.293,53.265H32.153H30.011L29.115,35.938C29.113,35.884 29.073,35.84 29.02,35.834C24.435,35.265 16.776,44.102 16.776,44.102C15.726,39.174 20.68,34.58 21.765,33.642C21.838,33.579 21.798,33.455 21.701,33.45C14.654,33.006 10.262,36.756 10.262,36.756C11.711,30.721 19.264,28.669 21.181,28.242C21.292,28.218 21.292,28.059 21.183,28.029C13.796,26.065 8.667,28.151 8.667,28.151C12.886,22.289 22.711,22.577 24.966,22.727C25.08,22.735 25.126,22.583 25.027,22.524L21.415,20.387C28.69,18.848 30.56,22.416 30.56,22.416C31.574,22.862 32.725,22.862 33.736,22.416C33.736,22.416 35.607,18.849 42.881,20.387L39.27,22.524C39.171,22.583 39.217,22.735 39.33,22.727C41.586,22.577 51.413,22.289 55.629,28.151C55.629,28.151 50.499,26.066 43.114,28.029C43.004,28.059 43.006,28.216 43.116,28.242C45.034,28.669 52.587,30.721 54.035,36.756C54.04,36.756 49.65,33.006 42.603,33.45Z" id="path_1"/></svg>