<svg id="vector" xmlns="http://www.w3.org/2000/svg" width="64.0d" height="64.0d" viewBox="0 0 64.0 64.0"><path fill="#ffffffff" d="M32,32m-31.75,0a31.75,31.75 0,1 1,63.5 0a31.75,31.75 0,1 1,-63.5 0" stroke="#e6e6e6ff" stroke-width="0.5" id="path_0"/><path fill="#ff5a00ff" d="M28.131,34.984C31.927,29.058 30.071,23.743 20.517,9L14.274,14.441L15.139,15.538C22.5,25.008 26.654,30.344 28.131,34.984Z" id="path_1"/><path fill="#ff5a00ff" d="M28.236,36.946C28.152,36.418 28.025,35.891 27.857,35.364C25.389,38.992 20.854,42.936 14.717,49.453L20.686,55.232C26.57,46.352 29.059,41.944 28.236,36.946Z" id="path_2"/><path fill="#ff5a00ff" d="M28.131,34.984C26.655,30.344 22.5,25.008 15.139,15.538L14.274,14.441L14,14.674L14.844,15.749C22.12,25.093 26.444,30.661 27.857,35.364C28.026,35.891 28.152,36.418 28.236,36.946C29.059,41.923 26.57,46.352 20.686,55.211L20.939,55.464L20.96,55.443C26.908,46.479 29.418,42.008 28.574,36.882C28.49,36.271 28.342,35.638 28.131,34.984Z" id="path_3"/><path fill="#ff5a00ff" d="M49.665,14.441L43.422,9C33.868,23.743 32.012,29.058 35.808,34.984C37.284,30.344 41.439,25.008 48.8,15.538L49.665,14.441Z" id="path_4"/><path fill="#ff5a00ff" d="M36.083,35.364C35.914,35.891 35.787,36.418 35.703,36.946C34.88,41.923 37.369,46.352 43.254,55.211L49.222,49.432C43.064,42.936 38.529,39.013 36.083,35.364Z" id="path_5"/><path fill="#ff5a00ff" d="M35.703,36.946C35.788,36.418 35.914,35.891 36.083,35.364C37.496,30.661 41.841,25.093 49.096,15.749L49.94,14.674L49.666,14.441L48.801,15.538C41.419,25.008 37.285,30.344 35.809,34.984C35.598,35.638 35.45,36.271 35.345,36.904C34.501,42.029 37.032,46.479 42.959,55.464L42.98,55.485L43.233,55.232C37.369,46.352 34.881,41.944 35.703,36.946Z" id="path_6"/></svg>