<svg id="vector" xmlns="http://www.w3.org/2000/svg" width="64.0d" height="64.0d" viewBox="0 0 64.0 64.0"><defs><clipPath id="clip_path_0"><path d="M24.942,13.784H23.711V16.937H24.942V13.784Z"/></clipPath><clipPath id="clip_path_1"><path d="M24.942,31.886H23.711V35.039H24.942V31.886Z"/></clipPath><clipPath id="clip_path_2"><path d="M39.412,13.784H38.18V16.937H39.412V13.784Z"/></clipPath><clipPath id="clip_path_3"><path d="M39.412,31.886H38.18V35.039H39.412V31.886Z"/></clipPath><clipPath id="clip_path_4"><path d="M29.766,17.14H28.226V31.683H29.766V17.14Z"/></clipPath><clipPath id="clip_path_5"><path d="M24.942,19.581H23.711V23.75H24.942V19.581Z"/></clipPath><clipPath id="clip_path_6"><path d="M27.303,15.309H25.866V33.412H27.303V15.309Z"/></clipPath><clipPath id="clip_path_7"><path d="M22.684,18.971H21.555V22.531H22.684V18.971Z"/></clipPath><clipPath id="clip_path_8"><path d="M20.529,18.36H19.503V21.207H20.529V18.36Z"/></clipPath><clipPath id="clip_path_9"><path d="M29.766,17.14H28.226V31.683H29.766V17.14Z"/></clipPath><clipPath id="clip_path_10"><path d="M24.942,25.073H23.711V29.141H24.942V25.073Z"/></clipPath><clipPath id="clip_path_11"><path d="M22.684,26.192H21.555V29.752H22.684V26.192Z"/></clipPath><clipPath id="clip_path_12"><path d="M20.529,27.615H19.503V30.36H20.529V27.615Z"/></clipPath><clipPath id="clip_path_13"><path d="M34.795,17.14H33.357V31.683H34.795V17.14Z"/></clipPath><clipPath id="clip_path_14"><path d="M39.412,19.581H38.18V23.75H39.412V19.581Z"/></clipPath><clipPath id="clip_path_15"><path d="M37.154,15.309H35.82V33.412H37.154V15.309Z"/></clipPath><clipPath id="clip_path_16"><path d="M41.567,18.971H40.438V22.531H41.567V18.971Z"/></clipPath><clipPath id="clip_path_17"><path d="M43.62,18.36H42.593V21.207H43.62V18.36Z"/></clipPath><clipPath id="clip_path_18"><path d="M34.795,17.14H33.357V31.683H34.795V17.14Z"/></clipPath><clipPath id="clip_path_19"><path d="M39.412,25.073H38.18V29.141H39.412V25.073Z"/></clipPath><clipPath id="clip_path_20"><path d="M41.567,26.192H40.438V29.752H41.567V26.192Z"/></clipPath><clipPath id="clip_path_21"><path d="M43.62,27.615H42.593V30.36H43.62V27.615Z"/></clipPath><clipPath id="clip_path_22"><path d="M32.331,12.36H30.791V41.65H32.331V12.36Z"/></clipPath></defs><path fill="#ffffffff" d="M32,32m-31.75,0a31.75,31.75 0,1 1,63.5 0a31.75,31.75 0,1 1,-63.5 0" stroke="#e6e6e6ff" stroke-width="0.5" id="path_0"/><path fill="#91a0b9ff" d="M26.587,46.616C26.273,46.616 26.016,46.869 26.016,47.181V49.993C26.016,50.305 26.272,50.558 26.587,50.558C26.902,50.558 27.158,50.305 27.158,49.993V47.181C27.158,46.869 26.902,46.616 26.587,46.616Z" id="path_1"/><path fill="#91a0b9ff" d="M24.291,48.684C24.024,48.684 23.806,48.9 23.806,49.166V51.133C23.806,51.399 24.024,51.614 24.291,51.614C24.559,51.614 24.777,51.397 24.777,51.133V49.166C24.777,48.9 24.559,48.684 24.291,48.684Z" id="path_2"/><path fill="#91a0b9ff" d="M29.003,42.212C28.627,42.212 28.32,42.515 28.32,42.889V48.845C28.32,49.218 28.627,49.521 29.003,49.521C29.381,49.521 29.686,49.218 29.686,48.845V42.889C29.686,42.515 29.379,42.212 29.003,42.212Z" id="path_3"/><path fill="#91a0b9ff" d="M24.292,40.034C23.977,40.034 23.722,40.288 23.722,40.599V43.462C23.722,43.773 23.977,44.027 24.292,44.027C24.606,44.027 24.862,43.773 24.862,43.462V40.599C24.861,40.288 24.605,40.034 24.292,40.034Z" id="path_4"/><path fill="#91a0b9ff" d="M26.589,41.092C26.545,41.092 26.5,41.097 26.458,41.107C26.42,41.115 26.383,41.126 26.346,41.142C26.113,41.239 25.962,41.464 25.962,41.715V45.167C25.962,45.424 26.126,45.656 26.369,45.746C26.385,45.753 26.401,45.758 26.425,45.764C26.45,45.77 26.463,45.774 26.479,45.776C26.527,45.785 26.559,45.787 26.589,45.787C26.933,45.787 27.215,45.508 27.215,45.167V41.716C27.215,41.371 26.933,41.092 26.589,41.092Z" id="path_5"/><path fill="#91a0b9ff" d="M22.104,39.024C21.821,39.024 21.59,39.252 21.59,39.533V41.835C21.59,42.116 21.821,42.344 22.104,42.344C22.387,42.344 22.618,42.116 22.618,41.835V39.533C22.618,39.252 22.387,39.024 22.104,39.024Z" id="path_6"/><path fill="#91a0b9ff" d="M20.018,38.066C19.765,38.066 19.561,38.27 19.561,38.52V40.289C19.561,40.54 19.765,40.742 20.018,40.742C20.271,40.742 20.475,40.539 20.475,40.289V38.52C20.477,38.27 20.271,38.066 20.018,38.066Z" id="path_7"/><path fill="#91a0b9ff" d="M18.093,37.172C17.888,37.172 17.72,37.339 17.72,37.542V38.908C17.72,39.112 17.887,39.278 18.093,39.278C18.299,39.278 18.467,39.112 18.467,38.908V37.542C18.467,37.339 18.3,37.172 18.093,37.172Z" id="path_8"/><path fill="#91a0b9ff" d="M31.559,43.388C31.182,43.388 30.877,43.691 30.877,44.065V48.009C30.877,48.381 31.182,48.686 31.559,48.686C31.935,48.686 32.242,48.383 32.242,48.009V44.065C32.242,43.691 31.937,43.388 31.559,43.388Z" id="path_9"/><path fill="#91a0b9ff" d="M36.531,46.616C36.846,46.616 37.103,46.869 37.103,47.181V49.993C37.103,50.305 36.847,50.558 36.531,50.558C36.217,50.558 35.961,50.305 35.961,49.993V47.181C35.961,46.869 36.217,46.616 36.531,46.616Z" id="path_10"/><path fill="#91a0b9ff" d="M38.828,48.684C39.096,48.684 39.313,48.9 39.313,49.166V51.133C39.313,51.399 39.095,51.614 38.828,51.614C38.56,51.614 38.342,51.397 38.342,51.133V49.166C38.342,48.9 38.56,48.684 38.828,48.684Z" id="path_11"/><path fill="#91a0b9ff" d="M34.116,42.212C34.491,42.212 34.798,42.515 34.798,42.889V48.845C34.798,49.218 34.493,49.521 34.116,49.521C33.738,49.521 33.433,49.218 33.433,48.845V42.889C33.433,42.515 33.74,42.212 34.116,42.212Z" id="path_12"/><path fill="#91a0b9ff" d="M38.828,40.034C39.143,40.034 39.398,40.288 39.398,40.599V43.462C39.398,43.773 39.143,44.027 38.828,44.027C38.514,44.027 38.258,43.773 38.258,43.462V40.599C38.258,40.288 38.514,40.034 38.828,40.034Z" id="path_13"/><path fill="#91a0b9ff" d="M36.53,41.092C36.574,41.092 36.619,41.097 36.662,41.107C36.701,41.115 36.737,41.126 36.775,41.142C37.008,41.239 37.158,41.464 37.158,41.715V45.167C37.158,45.424 36.994,45.656 36.751,45.746C36.736,45.753 36.721,45.758 36.696,45.764C36.671,45.77 36.657,45.774 36.643,45.776C36.594,45.785 36.563,45.787 36.533,45.787C36.188,45.787 35.906,45.508 35.906,45.167V41.716C35.905,41.371 36.186,41.092 36.53,41.092Z" id="path_14"/><path fill="#91a0b9ff" d="M41.015,39.024C41.298,39.024 41.528,39.252 41.528,39.533V41.835C41.528,42.116 41.298,42.344 41.015,42.344C40.731,42.344 40.501,42.116 40.501,41.835V39.533C40.501,39.252 40.731,39.024 41.015,39.024Z" id="path_15"/><path fill="#91a0b9ff" d="M43.101,38.066C43.353,38.066 43.558,38.27 43.558,38.52V40.289C43.558,40.54 43.354,40.742 43.101,40.742C42.848,40.742 42.642,40.539 42.642,40.289V38.52C42.642,38.27 42.848,38.066 43.101,38.066Z" id="path_16"/><path fill="#91a0b9ff" d="M45.026,37.172C45.231,37.172 45.399,37.339 45.399,37.542V38.908C45.399,39.112 45.232,39.278 45.026,39.278C44.82,39.278 44.652,39.112 44.652,38.908V37.542C44.652,37.339 44.819,37.172 45.026,37.172Z" id="path_17"/><g id="g_0"><g clip-path="url(#clip_path_0)"><path fill="@drawable/$partner_gas__0" d="M24.861,16.849V13.824H23.721V16.849H24.861Z"/></g></g><g id="g_1"><g clip-path="url(#clip_path_1)"><path fill="@drawable/$partner_gas__1" d="M24.861,34.946V31.922H23.721V34.946H24.861Z"/></g></g><g id="g_2"><g clip-path="url(#clip_path_2)"><path fill="@drawable/$partner_gas__2" d="M39.39,16.849V13.824H38.249V16.849H39.39Z"/></g></g><g id="g_3"><g clip-path="url(#clip_path_3)"><path fill="@drawable/$partner_gas__3" d="M39.39,34.945V31.922H38.249V34.945H39.39Z"/></g></g><g id="g_4"><g clip-path="url(#clip_path_4)"><path fill="@drawable/$partner_gas__4" d="M29.685,31.619V17.15H28.319V31.619H29.685Z"/></g></g><g id="g_5"><g clip-path="url(#clip_path_5)"><path fill="@drawable/$partner_gas__5" d="M24.861,23.675V19.633H23.721V23.675H24.861Z"/></g></g><g id="g_6"><g clip-path="url(#clip_path_6)"><path fill="@drawable/$partner_gas__6" d="M27.214,33.376V15.394H25.961V33.376H27.214Z"/></g></g><g id="g_7"><g clip-path="url(#clip_path_7)"><path fill="@drawable/$partner_gas__7" d="M22.618,22.505V19.043H21.59V22.505H22.618Z"/></g></g><g id="g_8"><g clip-path="url(#clip_path_8)"><path fill="@drawable/$partner_gas__8" d="M20.475,21.15V18.419H19.561V21.15H20.475Z"/></g></g><g id="g_9"><g clip-path="url(#clip_path_9)"><path fill="@drawable/$partner_gas__9" d="M29.685,31.621V17.151H28.319V31.621H29.685Z"/></g></g><g id="g_10"><g clip-path="url(#clip_path_10)"><path fill="@drawable/$partner_gas__10" d="M24.861,29.137V25.096H23.721V29.137H24.861Z"/></g></g><g id="g_11"><g clip-path="url(#clip_path_11)"><path fill="@drawable/$partner_gas__11" d="M22.618,29.727V26.265H21.59V29.727H22.618Z"/></g></g><g id="g_12"><g clip-path="url(#clip_path_12)"><path fill="@drawable/$partner_gas__12" d="M20.475,30.352V27.62H19.561V30.352H20.475Z"/></g></g><g id="g_13"><g clip-path="url(#clip_path_13)"><path fill="@drawable/$partner_gas__13" d="M34.791,31.619V17.15H33.425V31.619H34.791Z"/></g></g><g id="g_14"><g clip-path="url(#clip_path_14)"><path fill="@drawable/$partner_gas__14" d="M39.39,23.675V19.633H38.249V23.675H39.39Z"/></g></g><g id="g_15"><g clip-path="url(#clip_path_15)"><path fill="@drawable/$partner_gas__15" d="M37.149,33.376V15.394H35.896V33.376H37.149Z"/></g></g><g id="g_16"><g clip-path="url(#clip_path_16)"><path fill="@drawable/$partner_gas__16" d="M41.521,22.505V19.043H40.493V22.505H41.521Z"/></g></g><g id="g_17"><g clip-path="url(#clip_path_17)"><path fill="@drawable/$partner_gas__17" d="M43.549,21.15V18.418H42.635V21.15H43.549Z"/></g></g><g id="g_18"><g clip-path="url(#clip_path_18)"><path fill="@drawable/$partner_gas__18" d="M34.791,31.621V17.151H33.425V31.621H34.791Z"/></g></g><g id="g_19"><g clip-path="url(#clip_path_19)"><path fill="@drawable/$partner_gas__19" d="M39.39,29.137V25.095H38.249V29.137H39.39Z"/></g></g><g id="g_20"><g clip-path="url(#clip_path_20)"><path fill="@drawable/$partner_gas__20" d="M41.521,29.727V26.265H40.493V29.727H41.521Z"/></g></g><g id="g_21"><g clip-path="url(#clip_path_21)"><path fill="@drawable/$partner_gas__21" d="M43.549,30.352V27.62H42.635V30.352H43.549Z"/></g></g><g id="g_22"><g clip-path="url(#clip_path_22)"><path fill="@drawable/$partner_gas__22" d="M32.234,41.594V12.377H30.868V41.594H32.234Z"/></g></g></svg>