<svg id="vector" xmlns="http://www.w3.org/2000/svg" width="64.0d" height="64.0d" viewBox="0 0 64.0 64.0"><path fill="#ffffffff" d="M32,32m-31.75,0a31.75,31.75 0,1 1,63.5 0a31.75,31.75 0,1 1,-63.5 0" stroke="#e6e6e6ff" stroke-width="0.5" id="path_0"/><path fill="#020203ff" d="M8.427,38.146C8.234,38.752 8.137,39.137 8.137,39.303C8.137,39.557 8.2,39.683 8.328,39.683C8.423,39.683 8.525,39.571 8.635,39.346H8.649L8.673,39.376C8.584,39.849 8.454,40.086 8.283,40.086H8.224C8.1,40.086 8.011,40.005 7.962,39.844C7.952,39.776 7.948,39.723 7.948,39.682V39.484C7.948,39.093 8.097,38.647 8.395,38.144H8.427V38.146ZM14.047,40.946C13.794,40.946 13.616,40.819 13.514,40.565C13.463,40.44 13.421,40.204 13.384,39.856C13.356,39.603 13.307,39.476 13.237,39.476C13.218,39.476 13.197,39.529 13.172,39.638C13.14,39.775 13.1,39.88 13.052,39.954C12.975,40.07 12.863,40.138 12.714,40.157C12.762,40.345 12.786,40.533 12.786,40.718C12.786,40.95 12.743,41.138 12.66,41.284C12.485,41.582 12.118,41.891 11.563,42.209C10.911,42.582 10.291,42.769 9.701,42.769C9.309,42.769 8.999,42.611 8.771,42.294C8.559,41.998 8.452,41.62 8.452,41.16C8.452,40.897 8.49,40.633 8.565,40.369C8.59,40.279 8.613,40.215 8.634,40.177C8.659,40.133 8.674,40.129 8.678,40.167C8.685,40.205 8.679,40.274 8.661,40.376C8.626,40.567 8.609,40.75 8.609,40.925C8.609,41.833 9.037,42.288 9.893,42.288C10.356,42.288 10.927,42.105 11.612,41.739C12.263,41.389 12.595,41.121 12.605,40.934C12.617,40.764 12.569,40.571 12.465,40.355C12.331,40.073 12.262,39.927 12.259,39.917C12.271,39.836 12.292,39.708 12.324,39.533C12.331,39.527 12.337,39.523 12.344,39.523C12.351,39.523 12.384,39.555 12.441,39.621C12.499,39.686 12.571,39.717 12.658,39.715C12.847,39.712 12.985,39.631 13.068,39.469C13.104,39.397 13.142,39.278 13.181,39.112C13.209,38.99 13.237,38.927 13.266,38.927C13.384,38.927 13.466,39.06 13.511,39.327C13.555,39.576 13.596,39.825 13.637,40.074C13.714,40.341 13.849,40.474 14.04,40.474V40.946H14.047ZM12.368,35.068C12.425,35.068 12.485,35.124 12.55,35.237C12.554,35.248 12.556,35.264 12.556,35.284V35.303C12.536,35.416 12.511,35.472 12.481,35.472C12.474,35.472 12.433,35.435 12.357,35.361L12.309,35.341C12.225,35.341 12.142,35.583 12.06,36.065C12.006,36.215 11.965,36.291 11.937,36.291C11.917,36.291 11.897,36.219 11.878,36.076C11.792,35.825 11.715,35.661 11.649,35.588H11.618L11.571,35.625H11.544C11.481,35.625 11.41,35.566 11.332,35.447V35.426C11.398,35.296 11.449,35.217 11.486,35.191H11.506C11.713,35.191 11.869,35.426 11.974,35.898V35.908H11.984C12.075,35.348 12.202,35.068 12.368,35.068ZM10.296,38.98C10.207,39.259 10.163,39.437 10.163,39.512C10.163,39.629 10.193,39.687 10.252,39.687C10.296,39.687 10.342,39.637 10.393,39.533H10.399L10.41,39.546C10.369,39.764 10.309,39.873 10.232,39.873H10.205C10.148,39.873 10.108,39.836 10.085,39.762C10.081,39.73 10.079,39.706 10.079,39.687V39.596C10.079,39.417 10.148,39.212 10.284,38.98H10.296ZM11.939,38.243C11.926,38.318 11.913,38.391 11.902,38.466C11.877,38.581 11.848,38.637 11.813,38.637C11.772,38.637 11.695,38.608 11.581,38.549C11.477,38.496 11.421,38.462 11.412,38.446C11.404,38.432 11.397,38.405 11.393,38.366C11.418,38.291 11.449,38.181 11.486,38.037C11.493,37.994 11.506,37.974 11.523,37.977L11.581,38.014C11.65,38.041 11.752,38.088 11.889,38.155C11.905,38.159 11.92,38.165 11.933,38.172C11.946,38.179 11.949,38.203 11.939,38.243ZM11.652,42.659C11.563,42.937 11.519,43.115 11.519,43.191C11.519,43.307 11.548,43.366 11.608,43.366C11.652,43.366 11.698,43.315 11.748,43.212H11.755L11.766,43.225C11.725,43.443 11.665,43.551 11.588,43.551H11.56C11.503,43.551 11.463,43.515 11.441,43.44C11.437,43.409 11.434,43.384 11.434,43.366V43.274C11.434,43.095 11.503,42.89 11.64,42.659H11.652ZM12.835,42.454C12.821,42.528 12.808,42.601 12.798,42.676C12.772,42.791 12.743,42.847 12.709,42.847C12.668,42.847 12.591,42.818 12.477,42.76C12.372,42.706 12.316,42.672 12.307,42.659C12.299,42.646 12.292,42.618 12.288,42.578C12.314,42.502 12.344,42.391 12.381,42.249C12.388,42.206 12.401,42.186 12.418,42.188L12.477,42.225C12.546,42.252 12.648,42.3 12.784,42.366C12.8,42.37 12.815,42.377 12.828,42.383C12.841,42.39 12.843,42.413 12.835,42.454ZM13.429,42.236C13.416,42.31 13.402,42.383 13.392,42.458C13.367,42.571 13.337,42.629 13.303,42.629C13.262,42.629 13.185,42.6 13.071,42.541C12.966,42.488 12.91,42.454 12.901,42.441C12.893,42.428 12.887,42.4 12.882,42.36C12.908,42.284 12.938,42.173 12.975,42.03C12.982,41.987 12.995,41.968 13.012,41.97L13.071,42.007C13.14,42.034 13.242,42.081 13.379,42.148C13.394,42.152 13.409,42.159 13.422,42.165C13.436,42.172 13.438,42.195 13.429,42.236ZM13.518,37.47C13.429,37.748 13.385,37.926 13.385,38.002C13.385,38.118 13.414,38.177 13.474,38.177C13.518,38.177 13.564,38.125 13.615,38.021H13.621L13.632,38.034C13.591,38.253 13.531,38.361 13.454,38.361H13.426C13.369,38.361 13.33,38.325 13.307,38.25C13.303,38.219 13.3,38.194 13.3,38.175V38.084C13.3,37.905 13.369,37.7 13.506,37.469H13.518V37.47Z" id="path_1"/><path fill="#020203ff" d="M15.112,39.85C15.144,40.085 15.064,40.313 14.873,40.533C14.797,40.623 14.681,40.711 14.528,40.796C14.347,40.896 14.186,40.947 14.047,40.947C14.047,40.79 14.047,40.634 14.047,40.475C14.253,40.475 14.465,40.417 14.686,40.297C14.884,40.189 14.974,40.112 14.956,40.068C14.924,39.989 14.799,39.827 14.583,39.58C14.376,39.345 14.233,39.109 14.152,38.873C14.104,38.873 14.082,38.862 14.083,38.837C14.092,38.753 14.105,38.639 14.124,38.493C14.137,38.424 14.161,38.404 14.196,38.436C14.31,38.514 14.449,38.613 14.612,38.735C14.669,38.782 14.697,38.819 14.697,38.846C14.697,38.868 14.677,38.88 14.639,38.88C14.575,38.88 14.519,38.876 14.472,38.867C14.491,38.927 14.603,39.071 14.803,39.298C14.988,39.506 15.09,39.69 15.112,39.85ZM15.014,41.841C15.014,41.989 14.968,42.122 14.873,42.242C14.741,42.174 14.608,42.106 14.474,42.037C14.408,42.002 14.375,41.963 14.375,41.922C14.375,41.938 14.416,41.798 14.498,41.501C14.558,41.551 14.67,41.615 14.836,41.693C14.954,41.747 15.014,41.797 15.014,41.841ZM15.12,38.035C15.031,38.313 14.988,38.491 14.988,38.566C14.988,38.683 15.017,38.742 15.076,38.742C15.12,38.742 15.167,38.689 15.217,38.586H15.224L15.234,38.599C15.193,38.817 15.133,38.926 15.056,38.926H15.029C14.972,38.926 14.932,38.889 14.909,38.815C14.905,38.783 14.903,38.758 14.903,38.74V38.649C14.903,38.47 14.972,38.264 15.108,38.033H15.12V38.035Z" id="path_2"/><path fill="#020203ff" d="M17.33,40.946C17.123,40.946 16.931,40.848 16.753,40.653C16.619,40.505 16.526,40.349 16.476,40.185C16.409,39.972 16.346,39.566 16.285,38.967C16.216,38.298 16.137,37.674 16.049,37.092C16.023,36.922 15.965,36.692 15.875,36.406C15.792,36.141 15.751,36.002 15.751,35.989C15.783,35.883 15.82,35.749 15.86,35.582C15.867,35.57 15.876,35.565 15.888,35.565C15.945,35.565 16.025,35.735 16.127,36.073C16.222,36.389 16.294,36.694 16.342,36.985C16.424,37.501 16.489,38.029 16.537,38.57C16.559,38.864 16.583,39.158 16.608,39.452C16.652,39.793 16.758,40.058 16.929,40.249C17.063,40.4 17.197,40.475 17.329,40.475V40.946H17.33ZM16.062,39.815C15.973,40.094 15.929,40.271 15.929,40.347C15.929,40.464 15.958,40.522 16.018,40.522C16.062,40.522 16.108,40.471 16.159,40.368H16.165L16.176,40.381C16.135,40.599 16.075,40.708 15.998,40.708H15.97C15.913,40.708 15.873,40.671 15.851,40.597C15.847,40.565 15.844,40.541 15.844,40.522V40.431C15.844,40.252 15.913,40.047 16.05,39.815H16.062ZM16.458,35.195H16.469C16.722,35.383 16.848,35.613 16.848,35.885V35.968C16.848,36.1 16.818,36.201 16.756,36.268H16.749C16.737,36.268 16.732,36.26 16.732,36.244C16.747,36.162 16.756,36.087 16.756,36.022C16.756,35.812 16.625,35.591 16.365,35.362C16.374,35.32 16.404,35.264 16.458,35.195ZM17.383,36.232C17.294,36.511 17.25,36.688 17.25,36.764C17.25,36.881 17.279,36.939 17.339,36.939C17.383,36.939 17.429,36.888 17.48,36.785H17.486L17.497,36.798C17.456,37.016 17.396,37.125 17.319,37.125H17.291C17.234,37.125 17.194,37.088 17.172,37.014C17.168,36.982 17.165,36.958 17.165,36.939V36.848C17.165,36.669 17.234,36.464 17.371,36.232H17.383Z" id="path_3"/><path fill="#020203ff" d="M21.382,40.946C20.972,40.968 20.492,40.994 19.944,41.023C19.91,41.026 19.862,40.973 19.801,40.869C19.646,40.925 19.538,40.96 19.476,40.973C19.353,41.002 19.204,41.019 19.029,41.024C18.88,41.027 18.726,40.988 18.565,40.907C18.53,40.95 18.484,41.028 18.424,41.142C18.392,41.205 18.371,41.205 18.359,41.142C18.35,41.097 18.37,41.005 18.417,40.866C18.335,40.797 18.221,40.628 18.075,40.362C17.964,40.588 17.856,40.743 17.754,40.824C17.652,40.907 17.51,40.947 17.331,40.947V40.475C17.496,40.475 17.656,40.404 17.813,40.26C17.876,40.201 17.996,40.064 18.171,39.846C18.189,39.823 18.204,39.812 18.215,39.812C18.237,39.812 18.249,39.84 18.249,39.895V40.01C18.287,40.208 18.402,40.363 18.591,40.474C18.673,40.33 18.756,40.187 18.84,40.043C18.933,39.895 19.067,39.719 19.24,39.515C19.535,39.165 19.839,38.99 20.148,38.99C20.378,38.99 20.594,39.056 20.796,39.188C20.997,39.32 21.098,39.469 21.098,39.633C21.098,40.059 20.899,40.357 20.5,40.524C20.493,40.524 20.599,40.516 20.819,40.5C21.04,40.485 21.227,40.475 21.382,40.473V40.946ZM18.041,38.709C17.952,38.987 17.908,39.165 17.908,39.241C17.908,39.357 17.937,39.416 17.997,39.416C18.041,39.416 18.087,39.363 18.138,39.26H18.144L18.155,39.273C18.114,39.492 18.054,39.6 17.977,39.6H17.949C17.892,39.6 17.852,39.563 17.83,39.489C17.826,39.458 17.823,39.433 17.823,39.414V39.323C17.823,39.144 17.892,38.939 18.029,38.708H18.041V38.709ZM20.315,41.461C20.414,41.47 20.463,41.518 20.463,41.606V41.633C20.463,41.815 20.33,41.96 20.066,42.067C19.996,42.096 19.915,42.11 19.823,42.11L19.598,42.067C19.376,42.067 19.111,42.243 18.802,42.595C18.638,42.754 18.505,42.834 18.403,42.834C18.403,42.843 18.363,42.854 18.283,42.868V42.858C18.283,42.851 18.404,42.769 18.646,42.612C18.715,42.561 18.864,42.402 19.097,42.134C19.315,41.93 19.492,41.828 19.626,41.828H19.797C20.029,41.584 20.2,41.461 20.309,41.461H20.315ZM20.89,39.897C20.819,39.769 20.693,39.658 20.514,39.563C20.358,39.485 20.223,39.446 20.111,39.446C19.797,39.446 19.505,39.595 19.237,39.894C19.135,40.006 18.985,40.223 18.79,40.547C18.904,40.563 19.071,40.571 19.293,40.571C19.548,40.571 19.843,40.496 20.177,40.349C20.488,40.21 20.725,40.06 20.89,39.897ZM19.875,41.855L19.892,41.862H19.91C20.059,41.862 20.211,41.81 20.361,41.708L20.371,41.691C20.346,41.653 20.309,41.633 20.258,41.633H20.221C20.142,41.633 20.028,41.706 19.875,41.855ZM20.424,35.337C20.331,35.63 20.285,35.816 20.285,35.894C20.285,36.017 20.317,36.077 20.379,36.077C20.423,36.077 20.472,36.023 20.525,35.915H20.532L20.544,35.929C20.5,36.158 20.436,36.273 20.355,36.273H20.327C20.268,36.273 20.227,36.234 20.203,36.157C20.197,36.124 20.196,36.098 20.196,36.078V35.983C20.196,35.796 20.268,35.581 20.411,35.337H20.424Z" id="path_4"/><path fill="#020203ff" d="M23.008,41.448H23.045C23.086,41.448 23.134,41.495 23.188,41.589C23.198,41.642 23.202,41.678 23.202,41.693C23.202,41.803 23.17,41.881 23.106,41.929H23.072C23.012,41.929 22.92,41.872 22.794,41.76C22.763,41.854 22.715,41.944 22.651,42.029C22.439,42.232 22.224,42.374 22.005,42.456C21.615,42.547 21.385,42.595 21.312,42.604V42.583C22.045,42.283 22.475,42.062 22.603,41.921C22.658,41.864 22.711,41.783 22.76,41.679C22.794,41.625 22.814,41.598 22.821,41.598H22.841L22.854,41.604C22.904,41.5 22.955,41.448 23.008,41.448ZM23.531,40.798C23.531,41.108 23.387,41.265 23.1,41.27C22.817,41.274 22.572,41.096 22.362,40.735C22.2,40.785 22.038,40.832 21.875,40.878C21.712,40.924 21.548,40.947 21.382,40.947V40.475C21.675,40.475 21.948,40.431 22.199,40.341C22.151,40.215 22.09,40.013 22.017,39.735C21.956,39.374 21.863,38.681 21.74,37.658C21.731,37.546 21.708,37.202 21.671,36.625C21.651,36.571 21.623,36.495 21.589,36.398C21.607,36.346 21.642,36.243 21.695,36.089C21.708,36.026 21.735,36.026 21.773,36.089C22.044,36.512 22.179,36.781 22.179,36.894C22.179,36.963 22.168,36.998 22.149,36.998C22.135,36.996 22.122,36.986 22.111,36.968C22.025,36.865 21.958,36.807 21.91,36.797L22.142,38.856C22.212,39.451 22.314,39.919 22.446,40.26C22.668,40.2 22.849,40.171 22.985,40.176C23.215,40.185 23.367,40.245 23.443,40.358C23.501,40.438 23.531,40.585 23.531,40.798ZM23.13,35.68C23.174,35.68 23.219,35.718 23.267,35.795C23.271,35.801 23.273,35.813 23.273,35.829V35.839C23.257,35.917 23.237,35.957 23.215,35.957C23.208,35.957 23.178,35.931 23.122,35.88L23.085,35.867C23.021,35.867 22.959,36.031 22.896,36.362C22.855,36.465 22.824,36.516 22.801,36.516C22.788,36.516 22.773,36.466 22.76,36.368C22.694,36.199 22.635,36.087 22.586,36.035H22.566L22.529,36.059H22.509C22.459,36.059 22.406,36.018 22.349,35.937V35.924C22.399,35.834 22.438,35.78 22.465,35.762H22.479C22.635,35.762 22.755,35.924 22.834,36.247V36.253H22.841C22.909,35.87 23.005,35.68 23.13,35.68ZM22.854,36.679H22.889C23.044,36.722 23.167,36.817 23.261,36.962C23.261,36.965 23.265,36.973 23.272,36.985C23.237,37.138 23.179,37.214 23.094,37.214C22.887,37.267 22.748,37.326 22.678,37.389C22.801,37.761 22.862,38.126 22.862,38.483C22.862,38.59 22.845,38.713 22.81,38.85H22.79L22.784,38.805V38.735C22.784,38.454 22.724,38.037 22.606,37.483C22.606,37.47 22.602,37.448 22.595,37.415C22.595,37.209 22.694,37.078 22.889,37.022L22.932,37.011V37.005C22.926,36.982 22.89,36.96 22.826,36.941C22.806,36.941 22.756,36.988 22.676,37.082C22.663,37.082 22.656,37.077 22.656,37.065C22.683,36.807 22.749,36.679 22.854,36.679ZM23.312,40.798C23.316,40.758 23.285,40.721 23.219,40.687C23.142,40.649 23.041,40.63 22.918,40.63C22.847,40.63 22.773,40.636 22.696,40.649C22.788,40.73 22.865,40.781 22.928,40.803C22.94,40.807 23.007,40.822 23.13,40.844C23.222,40.861 23.281,40.845 23.312,40.798ZM23.154,38.85C23.065,39.128 23.021,39.306 23.021,39.382C23.021,39.498 23.05,39.557 23.11,39.557C23.154,39.557 23.2,39.506 23.251,39.403H23.257L23.268,39.416C23.227,39.634 23.167,39.742 23.09,39.742H23.062C23.005,39.742 22.965,39.706 22.943,39.631C22.939,39.6 22.936,39.575 22.936,39.557V39.465C22.936,39.286 23.005,39.081 23.142,38.85H23.154ZM22.963,41.666C23.054,41.734 23.115,41.766 23.147,41.766V41.739C23.122,41.663 23.086,41.624 23.038,41.624H23.032C23.004,41.627 22.981,41.64 22.963,41.666Z" id="path_5"/><path fill="#020203ff" d="M24.763,40.149C24.772,40.261 24.776,40.37 24.776,40.475C24.776,40.848 24.732,41.116 24.643,41.28C24.609,41.343 24.584,41.375 24.568,41.375C24.542,41.375 24.54,41.303 24.557,41.159C24.58,40.977 24.581,40.788 24.561,40.59C24.479,39.949 24.365,38.985 24.219,37.696C24.2,37.461 24.17,37.121 24.126,36.677C24.119,36.652 24.089,36.585 24.033,36.478C24.02,36.453 24.056,36.311 24.142,36.051C24.146,36.035 24.154,36.027 24.162,36.027C24.184,36.027 24.216,36.076 24.257,36.172C24.328,36.32 24.398,36.469 24.466,36.617C24.574,36.845 24.63,36.988 24.63,37.044C24.63,37.062 24.623,37.071 24.61,37.071C24.601,37.071 24.586,37.065 24.566,37.05C24.509,37.007 24.45,36.954 24.385,36.889C24.381,36.951 24.427,37.364 24.525,38.127C24.645,39.034 24.724,39.708 24.763,40.149Z" id="path_6"/><path fill="#020203ff" d="M26.854,40.322C26.866,40.576 26.819,40.803 26.714,41.006C26.559,41.228 26.283,41.485 25.888,41.779C25.364,42.172 24.905,42.368 24.511,42.365C24.219,42.362 24,42.23 23.854,41.968C23.74,41.758 23.683,41.502 23.683,41.197C23.683,41.156 23.684,41.116 23.687,41.075C23.7,40.849 23.764,40.589 23.878,40.298C23.935,40.151 23.98,40.079 24.015,40.079C24.027,40.079 24.032,40.091 24.032,40.116C24.032,40.16 24.013,40.231 23.978,40.328C23.936,40.435 23.907,40.522 23.889,40.59C23.857,40.716 23.838,40.839 23.834,40.958C23.814,41.577 24.088,41.887 24.654,41.887C24.993,41.887 25.43,41.692 25.966,41.304C26.41,40.982 26.665,40.758 26.731,40.627C26.718,40.576 26.662,40.525 26.564,40.475C26.447,40.417 26.319,40.392 26.178,40.398C26.066,40.402 25.996,40.405 25.97,40.405C25.71,40.405 25.578,40.282 25.573,40.038C25.569,39.831 25.628,39.653 25.751,39.502C25.865,39.363 25.987,39.293 26.117,39.293C26.238,39.293 26.376,39.372 26.531,39.532C26.732,39.741 26.841,40.004 26.854,40.322ZM26.386,39.966C26.246,39.812 26.126,39.733 26.031,39.733C25.914,39.733 25.854,39.784 25.849,39.885C25.874,39.925 25.934,39.947 26.027,39.953C26.097,39.95 26.167,39.949 26.235,39.949C26.287,39.95 26.337,39.957 26.386,39.966ZM26.301,42.019C26.192,42.362 26.137,42.582 26.137,42.679C26.137,42.822 26.173,42.894 26.246,42.894C26.3,42.894 26.358,42.83 26.419,42.702H26.426L26.439,42.719C26.389,42.988 26.316,43.123 26.22,43.123H26.186C26.116,43.123 26.065,43.077 26.036,42.984C26.032,42.946 26.029,42.916 26.029,42.893V42.782C26.029,42.557 26.114,42.302 26.283,42.017H26.301V42.019Z" id="path_7"/><path fill="#020203ff" d="M28.922,40.066C28.935,40.064 28.947,40.06 28.957,40.057C28.979,40.057 28.991,40.077 28.991,40.116C28.991,40.236 28.946,40.353 28.855,40.461C28.763,40.571 28.585,40.683 28.32,40.797C28.024,40.928 27.819,41.042 27.703,41.14C27.637,41.16 27.587,41.165 27.553,41.155C27.514,41.151 27.494,41.137 27.494,41.111C27.494,41.041 27.618,40.907 27.866,40.704C27.707,40.674 27.622,40.658 27.613,40.654C27.543,40.619 27.482,40.525 27.429,40.375C27.594,39.835 27.832,39.566 28.141,39.566C28.238,39.566 28.315,39.6 28.374,39.669C28.405,39.702 28.397,39.821 28.354,40.027C28.328,40.053 28.303,40.081 28.28,40.111C28.25,40.128 28.19,40.129 28.101,40.116C28.084,40.112 28.075,40.092 28.071,40.057C28.067,40.021 28.06,40.004 28.051,40.004C27.841,40.034 27.738,40.09 27.738,40.175C27.841,40.276 27.942,40.341 28.042,40.371C28.128,40.387 28.213,40.405 28.295,40.424C28.421,40.379 28.535,40.32 28.638,40.248C28.774,40.153 28.869,40.092 28.922,40.066Z" id="path_8"/><path fill="#020203ff" d="M30.361,39.583C30.371,39.695 30.375,39.804 30.375,39.91C30.375,40.282 30.331,40.55 30.242,40.715C30.208,40.777 30.182,40.809 30.166,40.809C30.141,40.809 30.139,40.737 30.156,40.593C30.178,40.411 30.18,40.222 30.16,40.025C30.077,39.383 29.963,38.419 29.817,37.13C29.799,36.895 29.768,36.555 29.725,36.111C29.718,36.086 29.688,36.019 29.632,35.912C29.619,35.887 29.654,35.745 29.741,35.485C29.745,35.469 29.753,35.461 29.76,35.461C29.783,35.461 29.815,35.51 29.856,35.606C29.926,35.754 29.997,35.903 30.064,36.051C30.173,36.279 30.229,36.422 30.229,36.478C30.229,36.496 30.222,36.506 30.209,36.506C30.199,36.506 30.185,36.499 30.165,36.485C30.108,36.442 30.048,36.388 29.983,36.323C29.979,36.385 30.026,36.798 30.124,37.561C30.243,38.47 30.322,39.144 30.361,39.583Z" id="path_9"/><path fill="#020203ff" d="M32.693,41.611C32.481,41.611 32.287,41.513 32.11,41.318C31.97,41.165 31.836,40.815 31.706,40.268C31.67,40.421 31.62,40.545 31.556,40.641C31.391,40.888 31.105,41.156 30.702,41.446C30.231,41.783 29.831,41.951 29.503,41.951C29.157,41.951 28.985,41.697 28.985,41.19C28.985,40.793 29.138,40.341 29.446,39.834C29.507,39.735 29.554,39.686 29.583,39.686C29.596,39.686 29.603,39.697 29.603,39.716C29.603,39.757 29.583,39.814 29.544,39.887C29.253,40.441 29.115,40.847 29.131,41.103C29.144,41.347 29.29,41.47 29.568,41.47C29.635,41.47 29.772,41.431 29.982,41.352C30.251,41.249 30.489,41.124 30.696,40.976C30.871,40.85 30.998,40.752 31.078,40.683C31.337,40.454 31.527,40.222 31.648,39.987C31.635,39.917 31.613,39.813 31.587,39.673C31.578,39.623 31.506,39.401 31.372,39.007C31.267,38.722 31.161,38.408 31.054,38.064L31.115,37.667C31.124,37.654 31.135,37.648 31.145,37.648C31.221,37.648 31.392,38.054 31.661,38.866C31.759,39.162 31.86,39.588 31.965,40.145C32.026,40.474 32.129,40.728 32.275,40.905C32.4,41.062 32.539,41.14 32.692,41.14V41.611H32.693ZM34,36.374C34.061,36.374 34.127,36.435 34.197,36.559C34.204,36.571 34.208,36.586 34.208,36.61V36.63C34.183,36.752 34.155,36.815 34.125,36.815C34.116,36.815 34.071,36.773 33.989,36.691L33.937,36.67C33.846,36.67 33.756,36.934 33.668,37.461C33.608,37.624 33.563,37.706 33.531,37.706C33.511,37.706 33.49,37.628 33.47,37.471C33.377,37.197 33.294,37.02 33.221,36.939H33.187L33.135,36.98H33.104C33.035,36.98 32.96,36.915 32.875,36.785V36.764C32.945,36.62 33.001,36.536 33.042,36.508H33.062C33.29,36.508 33.46,36.764 33.571,37.275V37.286H33.582C33.68,36.678 33.819,36.374 34,36.374Z" id="path_10"/><path fill="#020203ff" d="M34.907,41.611L34.599,41.631C34.748,41.769 34.839,41.9 34.876,42.021C34.917,42.158 34.912,42.319 34.863,42.506C34.84,42.588 34.791,42.659 34.718,42.716C34.644,42.774 34.574,42.803 34.509,42.803C34.119,42.803 33.843,42.519 33.679,41.951C33.656,41.875 33.652,41.785 33.668,41.681C33.64,41.679 33.599,41.675 33.542,41.668L33.576,41.54C33.405,41.587 33.112,41.611 32.696,41.611V41.139C32.858,41.137 33.006,41.134 33.14,41.129C33.457,41.116 33.673,41.092 33.789,41.058C33.858,40.876 33.956,40.601 34.086,40.23C34.14,40.098 34.214,39.878 34.307,39.574C34.359,39.578 34.411,39.815 34.461,40.287C34.473,40.375 34.484,40.461 34.496,40.546C34.505,40.636 34.498,40.72 34.476,40.798C34.444,40.904 34.359,41.033 34.22,41.189C34.305,41.177 34.433,41.164 34.606,41.148C34.74,41.139 34.842,41.137 34.909,41.138V41.611H34.907ZM34.665,42.267C34.529,42.047 34.433,41.918 34.379,41.88C34.274,41.808 34.118,41.756 33.908,41.722C33.944,41.85 34.023,41.974 34.144,42.096C34.277,42.23 34.405,42.298 34.534,42.298C34.579,42.297 34.624,42.288 34.665,42.267ZM34.33,40.763C34.326,40.675 34.293,40.52 34.23,40.295C34.21,40.345 34.161,40.481 34.083,40.705C34.055,40.796 34.022,40.89 33.981,40.988C34.116,40.934 34.232,40.86 34.33,40.763Z" id="path_11"/><path fill="#020203ff" d="M38.682,41.611C38.418,41.604 38.236,41.533 38.138,41.395C38.085,41.324 38.056,41.232 38.049,41.12C37.874,41.51 37.675,41.705 37.451,41.705C37.31,41.705 37.211,41.661 37.154,41.575C37.144,41.561 37.117,41.483 37.069,41.342C37.03,41.405 36.955,41.499 36.843,41.624C36.672,41.777 36.492,41.853 36.299,41.853C36.143,41.853 36.018,41.8 35.927,41.695C35.826,41.578 35.784,41.418 35.797,41.214C35.673,41.311 35.498,41.403 35.27,41.493C35.074,41.572 34.952,41.611 34.904,41.611V41.139C35.143,41.139 35.486,41.024 35.932,40.793C36.009,40.762 36.038,40.746 36.017,40.746C36.026,40.749 36.03,40.756 36.03,40.77C36.03,40.788 36.024,40.817 36.012,40.858C36,40.9 35.981,40.959 35.959,41.035C36.057,41.254 36.207,41.364 36.41,41.364C36.528,41.364 36.65,41.326 36.776,41.25C36.887,41.179 36.972,41.096 37.029,41.005C37.079,40.922 37.154,40.831 37.254,40.732C37.268,40.725 37.28,40.721 37.289,40.721C37.302,40.721 37.309,40.729 37.309,40.745C37.309,40.747 37.284,40.827 37.233,40.984C37.341,41.13 37.447,41.209 37.551,41.219C37.72,41.237 37.859,41.142 37.968,40.933C37.984,40.89 38.032,40.796 38.111,40.651C38.168,40.607 38.204,40.596 38.217,40.614C38.229,40.63 38.223,40.673 38.2,40.742C38.212,40.773 38.231,40.822 38.258,40.887C38.286,40.952 38.337,41.011 38.412,41.065C38.501,41.114 38.59,41.139 38.679,41.139V41.611H38.682ZM35.639,38.323C35.55,38.602 35.506,38.779 35.506,38.855C35.506,38.971 35.535,39.03 35.595,39.03C35.639,39.03 35.685,38.978 35.736,38.875H35.742L35.753,38.888C35.712,39.106 35.652,39.215 35.575,39.215H35.547C35.49,39.215 35.451,39.178 35.428,39.103C35.424,39.072 35.421,39.047 35.421,39.029V38.938C35.421,38.758 35.49,38.553 35.627,38.322H35.639V38.323ZM37.955,41.944H37.961C37.993,41.963 38.009,41.993 38.009,42.036V42.1C37.977,42.288 37.928,42.382 37.862,42.382H37.827C37.792,42.382 37.732,42.368 37.65,42.338C37.561,42.429 37.472,42.476 37.383,42.476H37.366C37.249,42.455 37.183,42.446 37.164,42.446C36.967,42.446 36.727,42.6 36.447,42.907C36.29,43.055 36.159,43.13 36.054,43.13C36.054,43.136 36.028,43.144 35.976,43.153L35.969,43.136C36.128,43.051 36.274,42.949 36.407,42.83C36.705,42.489 36.891,42.312 36.964,42.298C37.046,42.246 37.136,42.221 37.237,42.221L37.439,42.262H37.476C37.546,42.262 37.62,42.186 37.697,42.036L37.717,42.023H37.735C37.746,42.023 37.752,42.027 37.752,42.036V42.046C37.752,42.066 37.74,42.102 37.717,42.153C37.743,42.166 37.782,42.173 37.837,42.173H37.906L37.882,42.066C37.883,42.036 37.907,41.995 37.955,41.944ZM36.838,39.195C36.838,39.249 36.823,39.316 36.794,39.397C36.76,39.492 36.724,39.539 36.685,39.539C36.663,39.539 36.578,39.495 36.432,39.41C36.276,39.319 36.196,39.254 36.196,39.216C36.196,39.175 36.25,39.037 36.361,38.802C36.429,38.871 36.538,38.948 36.688,39.034C36.787,39.089 36.838,39.143 36.838,39.195ZM36.96,38.507C36.96,38.664 36.914,38.796 36.819,38.905C36.685,38.837 36.55,38.77 36.416,38.702C36.347,38.664 36.314,38.625 36.314,38.585C36.314,38.623 36.356,38.485 36.44,38.17C36.5,38.217 36.612,38.279 36.782,38.356C36.902,38.412 36.96,38.463 36.96,38.507ZM37.521,39.003C37.521,39.038 37.506,39.101 37.477,39.188C37.441,39.292 37.4,39.367 37.358,39.414C37.269,39.365 37.18,39.315 37.091,39.267C36.968,39.197 36.907,39.144 36.907,39.109C36.989,38.864 37.045,38.742 37.074,38.742C37.371,38.866 37.521,38.953 37.521,39.003ZM38.194,39.201C38.105,39.48 38.061,39.658 38.061,39.733C38.061,39.85 38.09,39.908 38.15,39.908C38.194,39.908 38.24,39.857 38.29,39.754H38.297L38.308,39.767C38.266,39.986 38.207,40.094 38.13,40.094H38.102C38.045,40.094 38.005,40.057 37.983,39.983C37.979,39.951 37.976,39.927 37.976,39.908V39.817C37.976,39.638 38.045,39.433 38.182,39.201H38.194Z" id="path_12"/><path fill="#020203ff" d="M39.499,40.319C39.508,40.75 39.44,41.062 39.297,41.258C39.123,41.493 38.919,41.611 38.682,41.611V41.139C38.87,41.139 39.011,41.112 39.102,41.058C39.175,41.018 39.236,40.944 39.286,40.84C39.29,40.833 39.293,40.815 39.293,40.786C39.293,40.58 39.178,39.604 38.948,37.858C38.91,37.557 38.879,37.219 38.859,36.841C38.855,36.828 38.834,36.797 38.798,36.747C38.785,36.729 38.778,36.704 38.778,36.673C38.778,36.613 38.814,36.47 38.887,36.245C38.891,36.23 38.899,36.222 38.907,36.222C38.93,36.222 38.961,36.274 39.003,36.377C39.237,36.815 39.354,37.099 39.354,37.229C39.354,37.252 39.347,37.263 39.333,37.263C39.321,37.263 39.306,37.257 39.289,37.244C39.285,37.24 39.224,37.174 39.109,37.049C39.225,37.882 39.355,38.973 39.499,40.319ZM39.206,41.84H39.257C39.343,41.84 39.395,41.893 39.411,42.002V42.072C39.411,42.29 39.233,42.535 38.878,42.809L38.826,42.82V42.809C39.106,42.509 39.247,42.313 39.247,42.224V42.213C39.247,42.173 39.225,42.143 39.186,42.122H39.093C39.068,42.122 39.03,42.139 38.98,42.173C38.967,42.173 38.96,42.162 38.96,42.143C38.996,41.94 39.077,41.84 39.206,41.84Z" id="path_13"/><path fill="#020203ff" d="M41.094,39.46C41.104,39.572 41.107,39.681 41.107,39.787C41.107,40.159 41.064,40.427 40.975,40.592C40.94,40.654 40.915,40.686 40.899,40.686C40.874,40.686 40.871,40.614 40.889,40.47C40.911,40.289 40.912,40.099 40.893,39.902C40.81,39.26 40.696,38.296 40.55,37.007C40.532,36.772 40.501,36.432 40.458,35.988C40.451,35.963 40.421,35.897 40.365,35.789C40.352,35.765 40.387,35.622 40.473,35.362C40.478,35.347 40.485,35.339 40.493,35.339C40.516,35.339 40.548,35.387 40.589,35.484C40.659,35.631 40.729,35.78 40.797,35.928C40.906,36.157 40.962,36.299 40.962,36.355C40.962,36.374 40.955,36.383 40.94,36.383C40.931,36.383 40.917,36.376 40.897,36.362C40.84,36.319 40.78,36.265 40.716,36.2C40.712,36.263 40.759,36.675 40.857,37.438C40.976,38.347 41.056,39.021 41.094,39.46Z" id="path_14"/><path fill="#020203ff" d="M44.377,40.299C44.39,40.584 44.354,40.814 44.268,40.989C44.218,41.09 44.055,41.259 43.78,41.497C43.452,41.785 43.116,42.02 42.772,42.204C42.333,42.439 41.937,42.557 41.584,42.557C41.104,42.557 40.757,42.382 40.545,42.032C40.397,41.781 40.333,41.492 40.354,41.167C40.379,40.785 40.434,40.488 40.519,40.274C40.557,40.175 40.59,40.127 40.618,40.127C40.63,40.127 40.635,40.14 40.635,40.167C40.635,40.208 40.623,40.265 40.601,40.338C40.519,40.604 40.478,40.826 40.478,41.005C40.478,41.303 40.572,41.551 40.761,41.748C40.975,41.968 41.269,42.077 41.642,42.077C41.929,42.077 42.291,41.969 42.728,41.751C43.109,41.563 43.457,41.342 43.771,41.088C44.085,40.835 44.242,40.652 44.239,40.54C44.239,40.458 44.17,40.389 44.031,40.33C43.901,40.277 43.754,40.251 43.59,40.253C43.353,40.256 43.201,40.242 43.133,40.213C43.021,40.166 42.962,40.049 42.955,39.863C42.946,39.647 43.006,39.465 43.133,39.318C43.244,39.187 43.368,39.123 43.502,39.123C43.645,39.123 43.813,39.228 44.007,39.435C44.24,39.686 44.364,39.974 44.377,40.299ZM42.375,38.888C42.432,38.888 42.492,38.944 42.556,39.056C42.56,39.068 42.563,39.084 42.563,39.103V39.124C42.541,39.237 42.517,39.293 42.487,39.293C42.48,39.293 42.439,39.256 42.364,39.182L42.316,39.162C42.231,39.162 42.149,39.404 42.067,39.886C42.012,40.036 41.971,40.112 41.943,40.112C41.923,40.112 41.903,40.04 41.885,39.897C41.799,39.646 41.722,39.482 41.655,39.409H41.625L41.577,39.446H41.549C41.486,39.446 41.415,39.387 41.337,39.267V39.247C41.403,39.117 41.454,39.038 41.491,39.012H41.511C41.718,39.012 41.874,39.247 41.979,39.719V39.729H41.989C42.082,39.167 42.21,38.888 42.375,38.888ZM41.59,40.353C41.501,40.631 41.458,40.809 41.458,40.884C41.458,41.001 41.487,41.06 41.547,41.06C41.59,41.06 41.637,41.009 41.687,40.905H41.694L41.704,40.918C41.663,41.137 41.604,41.245 41.527,41.245H41.499C41.442,41.245 41.402,41.208 41.379,41.134C41.375,41.103 41.373,41.078 41.373,41.06V40.968C41.373,40.789 41.442,40.584 41.578,40.353H41.59ZM43.25,38.04C43.25,38.093 43.235,38.16 43.206,38.238C43.171,38.332 43.133,38.38 43.089,38.38C43.07,38.38 42.988,38.338 42.844,38.255C42.685,38.164 42.605,38.098 42.605,38.061C42.605,38.033 42.661,37.895 42.772,37.644C42.841,37.712 42.95,37.787 43.1,37.873C43.201,37.93 43.25,37.986 43.25,38.04ZM43.746,39.81C43.613,39.669 43.492,39.599 43.384,39.599C43.324,39.599 43.264,39.642 43.202,39.729C43.23,39.767 43.287,39.788 43.376,39.793C43.442,39.793 43.508,39.792 43.573,39.789C43.632,39.792 43.689,39.799 43.746,39.81ZM43.937,37.845C43.937,37.88 43.921,37.943 43.889,38.031C43.852,38.136 43.812,38.212 43.77,38.259C43.681,38.21 43.592,38.161 43.503,38.114C43.38,38.042 43.319,37.989 43.319,37.952C43.319,37.937 43.341,37.871 43.388,37.755C43.433,37.64 43.466,37.581 43.487,37.581C43.787,37.705 43.937,37.793 43.937,37.845Z" id="path_15"/><path fill="#020203ff" d="M47.746,39.344C47.758,39.597 47.71,39.825 47.605,40.027C47.45,40.249 47.176,40.507 46.779,40.801C46.255,41.193 45.796,41.389 45.402,41.386C45.111,41.383 44.892,41.251 44.746,40.989C44.632,40.78 44.575,40.524 44.575,40.218C44.575,40.177 44.576,40.137 44.579,40.096C44.592,39.87 44.656,39.61 44.77,39.319C44.827,39.173 44.872,39.101 44.906,39.101C44.918,39.101 44.924,39.112 44.924,39.137C44.924,39.182 44.905,39.252 44.869,39.349C44.828,39.456 44.799,39.544 44.78,39.612C44.748,39.737 44.73,39.86 44.726,39.979C44.706,40.598 44.979,40.908 45.546,40.908C45.885,40.908 46.321,40.713 46.857,40.325C47.302,40.004 47.556,39.779 47.623,39.648C47.609,39.597 47.554,39.546 47.456,39.497C47.34,39.438 47.21,39.413 47.069,39.419C46.958,39.423 46.889,39.426 46.861,39.426C46.601,39.426 46.47,39.303 46.465,39.059C46.461,38.852 46.519,38.675 46.643,38.523C46.757,38.384 46.879,38.314 47.008,38.314C47.129,38.314 47.267,38.394 47.422,38.553C47.624,38.764 47.733,39.026 47.746,39.344ZM45.959,39.438H46.011C46.097,39.438 46.149,39.491 46.165,39.6V39.67C46.165,39.889 45.987,40.134 45.632,40.407L45.58,40.418V40.407C45.86,40.107 46,39.911 46,39.822V39.812C46,39.771 45.979,39.741 45.939,39.72H45.847C45.821,39.72 45.784,39.737 45.734,39.771C45.721,39.771 45.714,39.761 45.714,39.741C45.75,39.54 45.832,39.438 45.959,39.438ZM47.278,38.987C47.137,38.833 47.018,38.754 46.922,38.754C46.807,38.754 46.746,38.805 46.742,38.906C46.767,38.946 46.826,38.969 46.92,38.974C46.99,38.971 47.06,38.97 47.128,38.97C47.178,38.973 47.229,38.978 47.278,38.987Z" id="path_16"/><path fill="#020203ff" d="M50.777,41.611C50.564,41.611 50.369,41.513 50.193,41.318C50.054,41.165 49.92,40.815 49.79,40.268C49.753,40.421 49.704,40.545 49.64,40.641C49.474,40.888 49.189,41.156 48.786,41.446C48.315,41.783 47.914,41.951 47.587,41.951C47.241,41.951 47.068,41.697 47.068,41.19C47.068,40.793 47.222,40.341 47.53,39.834C47.591,39.734 47.637,39.686 47.666,39.686C47.68,39.686 47.688,39.696 47.688,39.716C47.688,39.757 47.668,39.814 47.629,39.887C47.337,40.441 47.2,40.847 47.215,41.103C47.229,41.347 47.375,41.47 47.653,41.47C47.719,41.47 47.857,41.431 48.067,41.352C48.336,41.249 48.574,41.124 48.78,40.976C48.956,40.85 49.083,40.752 49.162,40.683C49.423,40.454 49.612,40.222 49.733,39.987C49.72,39.917 49.698,39.813 49.672,39.673C49.662,39.623 49.591,39.401 49.457,39.007C49.352,38.722 49.246,38.408 49.14,38.064L49.201,37.667C49.21,37.654 49.221,37.648 49.231,37.648C49.307,37.648 49.478,38.054 49.747,38.866C49.846,39.162 49.946,39.588 50.051,40.145C50.112,40.474 50.216,40.728 50.361,40.905C50.486,41.062 50.625,41.14 50.778,41.14V41.611H50.777ZM49.367,41.235C49.278,41.513 49.234,41.691 49.234,41.766C49.234,41.883 49.263,41.942 49.323,41.942C49.367,41.942 49.413,41.889 49.464,41.787H49.47L49.481,41.8C49.44,42.019 49.38,42.127 49.303,42.127H49.275C49.218,42.127 49.178,42.09 49.156,42.016C49.152,41.985 49.149,41.96 49.149,41.942V41.85C49.149,41.671 49.218,41.466 49.355,41.235H49.367ZM49.8,41.359C50.006,41.359 50.108,41.411 50.108,41.517C50.108,41.617 49.95,41.817 49.633,42.115C49.586,42.169 49.562,42.218 49.562,42.263V42.27C49.562,42.345 49.632,42.384 49.774,42.384H49.828C49.832,42.384 49.835,42.388 49.835,42.395L49.852,42.384H49.913C50.05,42.384 50.248,42.349 50.507,42.28L50.514,42.297C50.305,42.494 50.072,42.594 49.818,42.594H49.701C49.536,42.558 49.456,42.488 49.456,42.384V42.314C49.456,42.17 49.571,41.994 49.8,41.786L49.933,41.645C49.904,41.6 49.808,41.577 49.649,41.577C49.608,41.577 49.549,41.591 49.472,41.62C49.468,41.607 49.465,41.598 49.465,41.593C49.526,41.446 49.594,41.374 49.667,41.374C49.667,41.367 49.712,41.361 49.8,41.359ZM51.722,36.311C51.77,36.311 51.822,36.359 51.876,36.454C51.882,36.464 51.884,36.477 51.884,36.494V36.509C51.864,36.605 51.843,36.653 51.82,36.653C51.814,36.653 51.778,36.62 51.714,36.556L51.675,36.541C51.604,36.541 51.534,36.746 51.465,37.156C51.419,37.284 51.384,37.347 51.359,37.347C51.343,37.347 51.327,37.286 51.311,37.164C51.238,36.951 51.175,36.814 51.118,36.75H51.091L51.051,36.781H51.027C50.974,36.781 50.915,36.73 50.85,36.63V36.614C50.904,36.503 50.948,36.436 50.98,36.415H50.995C51.173,36.415 51.305,36.614 51.391,37.013V37.02H51.399C51.474,36.547 51.583,36.311 51.722,36.311Z" id="path_17"/><path fill="#020203ff" d="M52.079,41.611C52.01,41.611 51.923,41.583 51.813,41.53C51.685,41.467 51.591,41.393 51.533,41.308C51.485,41.236 51.464,41.147 51.472,41.041C51.371,41.244 51.29,41.373 51.229,41.432C51.104,41.551 50.953,41.611 50.778,41.611V41.139C50.992,41.139 51.151,41.104 51.253,41.032C51.281,41.014 51.314,40.965 51.355,40.887C51.403,40.796 51.432,40.743 51.44,40.732C51.554,40.585 51.611,40.556 51.611,40.644C51.611,40.675 51.602,40.717 51.583,40.768C51.595,40.799 51.614,40.839 51.64,40.884C51.667,40.93 51.732,40.984 51.836,41.047C51.941,41.108 52.022,41.139 52.079,41.139V41.611ZM51.559,39.484C51.559,39.638 51.514,39.772 51.423,39.887C51.289,39.818 51.153,39.749 51.019,39.678C50.953,39.643 50.92,39.604 50.92,39.563C50.92,39.576 50.961,39.438 51.043,39.146C51.103,39.194 51.216,39.256 51.382,39.335C51.501,39.389 51.559,39.439 51.559,39.484ZM51.501,41.709C51.392,42.053 51.336,42.272 51.336,42.369C51.336,42.513 51.372,42.584 51.445,42.584C51.5,42.584 51.558,42.521 51.619,42.392H51.626L51.639,42.409C51.588,42.679 51.515,42.813 51.42,42.813H51.386C51.315,42.813 51.265,42.767 51.236,42.675C51.232,42.637 51.229,42.607 51.229,42.583V42.472C51.229,42.247 51.314,41.993 51.482,41.708H51.501V41.709Z" id="path_18"/><path fill="#020203ff" d="M55.861,39.951C55.867,40.008 55.871,40.06 55.871,40.11C55.871,40.278 55.81,40.465 55.687,40.671C55.468,40.887 55.172,41.076 54.798,41.24C54.436,41.399 54.135,41.479 53.896,41.479C53.648,41.479 53.456,41.438 53.319,41.357C53.266,41.471 53.23,41.567 53.211,41.64C53.197,41.689 53.18,41.714 53.159,41.714C53.136,41.714 53.13,41.678 53.139,41.603C53.151,41.522 53.175,41.414 53.211,41.276C53.135,41.202 53.055,41.086 52.972,40.926C52.815,41.152 52.695,41.304 52.614,41.381C52.452,41.534 52.274,41.61 52.081,41.61V41.138C52.297,41.138 52.46,41.105 52.569,41.04C52.693,40.965 52.846,40.778 53.023,40.478C53.051,40.431 53.078,40.407 53.106,40.407C53.127,40.407 53.136,40.426 53.136,40.461C53.136,40.474 53.136,40.49 53.135,40.508C53.134,40.526 53.13,40.565 53.123,40.626C53.184,40.733 53.264,40.819 53.362,40.882C53.489,40.594 53.65,40.319 53.843,40.053C54.032,39.8 54.197,39.629 54.338,39.542C54.51,39.437 54.704,39.384 54.919,39.384C55.366,39.387 55.68,39.575 55.861,39.951ZM52.858,39.06C52.742,39.426 52.684,39.659 52.684,39.757C52.684,39.911 52.722,39.989 52.801,39.989C52.858,39.989 52.919,39.921 52.985,39.784H52.992L53.005,39.804C52.952,40.089 52.875,40.231 52.773,40.231H52.738C52.663,40.231 52.611,40.183 52.582,40.086C52.575,40.043 52.571,40.012 52.571,39.988V39.866C52.571,39.631 52.661,39.362 52.842,39.059H52.858V39.06ZM55.065,41.891C55.163,41.9 55.212,41.948 55.212,42.036V42.063C55.212,42.245 55.079,42.39 54.815,42.497C54.745,42.526 54.664,42.541 54.573,42.541L54.347,42.497C54.126,42.497 53.861,42.673 53.551,43.025C53.387,43.184 53.254,43.264 53.152,43.264C53.152,43.273 53.112,43.285 53.033,43.298V43.287C53.033,43.281 53.153,43.199 53.395,43.042C53.464,42.989 53.614,42.831 53.846,42.563C54.065,42.36 54.241,42.258 54.375,42.258H54.545C54.777,42.013 54.948,41.891 55.057,41.891H55.065ZM55.672,40.319C55.538,40.146 55.362,40.01 55.143,39.911C54.977,39.835 54.837,39.797 54.723,39.797C54.536,39.797 54.323,39.92 54.087,40.164C53.884,40.375 53.693,40.64 53.513,40.959C53.64,41.003 53.814,41.027 54.032,41.027C54.229,41.027 54.506,40.954 54.862,40.809C55.236,40.652 55.507,40.49 55.672,40.319ZM54.625,42.284L54.642,42.29H54.659C54.809,42.29 54.96,42.238 55.11,42.136L55.12,42.119C55.095,42.081 55.058,42.062 55.008,42.062H54.971C54.891,42.062 54.777,42.136 54.625,42.284ZM55.717,37.563C55.583,37.986 55.516,38.255 55.516,38.37C55.516,38.548 55.561,38.636 55.652,38.636C55.716,38.636 55.786,38.557 55.865,38.4H55.875L55.893,38.42C55.829,38.752 55.737,38.918 55.619,38.918H55.578C55.492,38.918 55.431,38.862 55.398,38.749C55.391,38.702 55.387,38.664 55.387,38.634V38.496C55.387,38.224 55.491,37.913 55.697,37.56H55.717V37.563Z" id="path_19"/><path fill="#020203ff" d="M9.819,46.997C9.621,47.469 9.522,47.768 9.522,47.896C9.522,48.094 9.588,48.192 9.719,48.192C9.817,48.192 9.922,48.105 10.035,47.932H10.049L10.072,47.954C9.982,48.322 9.849,48.507 9.677,48.507H9.614C9.487,48.507 9.398,48.444 9.346,48.318C9.337,48.266 9.332,48.223 9.332,48.192V48.04C9.332,47.734 9.484,47.387 9.789,46.997H9.819ZM13.674,49.023C13.448,49.023 13.262,48.97 13.117,48.863C13.14,48.978 13.15,49.098 13.15,49.224C13.15,49.556 13.089,49.811 12.967,49.99C12.816,50.209 12.442,50.494 11.847,50.846C11.141,51.264 10.545,51.474 10.059,51.474C9.545,51.474 9.158,51.312 8.894,50.987C8.653,50.691 8.532,50.284 8.532,49.766C8.532,49.454 8.577,49.119 8.667,48.763C8.685,48.691 8.703,48.635 8.722,48.593C8.759,48.507 8.784,48.496 8.799,48.564C8.811,48.632 8.801,48.733 8.769,48.867C8.714,49.101 8.685,49.326 8.685,49.542C8.685,50.471 9.167,50.934 10.132,50.934C10.474,50.934 10.888,50.826 11.373,50.609C11.762,50.435 12.134,50.224 12.494,49.974C12.819,49.748 12.979,49.605 12.978,49.548C12.955,49.17 12.835,48.819 12.616,48.495C12.601,48.473 12.604,48.39 12.624,48.245C12.648,48.062 12.661,47.962 12.661,47.942C12.676,47.916 12.694,47.913 12.715,47.934C12.782,48.014 12.878,48.145 13.009,48.327C13.192,48.453 13.414,48.516 13.676,48.516V49.023H13.674ZM11.481,46.991C11.466,47.07 11.453,47.15 11.441,47.229C11.414,47.351 11.382,47.413 11.345,47.413C11.302,47.413 11.218,47.381 11.096,47.319C10.983,47.261 10.924,47.225 10.914,47.209C10.906,47.193 10.898,47.165 10.894,47.124C10.921,47.042 10.954,46.924 10.994,46.77C11.002,46.724 11.015,46.702 11.034,46.705L11.096,46.744C11.169,46.772 11.279,46.824 11.426,46.895C11.443,46.901 11.459,46.906 11.474,46.914C11.488,46.922 11.49,46.946 11.481,46.991ZM12.264,51.159C12.169,51.457 12.121,51.648 12.121,51.729C12.121,51.854 12.153,51.917 12.217,51.917C12.263,51.917 12.314,51.862 12.367,51.751H12.375L12.385,51.765C12.341,51.999 12.278,52.116 12.194,52.116H12.165C12.104,52.116 12.061,52.076 12.036,51.997C12.031,51.963 12.028,51.937 12.028,51.917V51.819C12.028,51.627 12.101,51.406 12.248,51.159H12.264Z" id="path_20"/><path fill="#020203ff" d="M14.822,47.845C14.854,48.097 14.767,48.342 14.566,48.578C14.485,48.672 14.36,48.766 14.192,48.859C13.994,48.968 13.822,49.021 13.676,49.021V48.516C13.896,48.516 14.124,48.452 14.36,48.325C14.575,48.207 14.673,48.125 14.653,48.079C14.619,47.996 14.486,47.82 14.254,47.556C14.031,47.304 13.877,47.051 13.792,46.799C13.741,46.799 13.717,46.785 13.719,46.759C13.729,46.668 13.743,46.545 13.763,46.391C13.775,46.319 13.8,46.298 13.836,46.329C13.961,46.413 14.111,46.52 14.287,46.651C14.348,46.702 14.379,46.741 14.379,46.77C14.379,46.793 14.359,46.806 14.32,46.806C14.247,46.806 14.185,46.801 14.133,46.792C14.156,46.855 14.276,47.009 14.495,47.255C14.69,47.477 14.799,47.674 14.822,47.845ZM14.36,49.881C14.375,49.905 14.361,49.984 14.322,50.119C14.282,50.254 14.238,50.321 14.192,50.321C14.172,50.321 14.103,50.284 13.983,50.209C13.852,50.13 13.786,50.069 13.786,50.029C13.786,49.991 13.844,49.839 13.962,49.578C14.05,49.664 14.139,49.73 14.226,49.773C14.29,49.804 14.335,49.841 14.36,49.881ZM14.524,45.471C14.429,45.769 14.381,45.96 14.381,46.041C14.381,46.166 14.413,46.229 14.477,46.229C14.523,46.229 14.574,46.174 14.627,46.063H14.635L14.645,46.077C14.601,46.311 14.538,46.428 14.454,46.428H14.425C14.364,46.428 14.322,46.388 14.296,46.309C14.291,46.275 14.288,46.249 14.288,46.229V46.131C14.288,45.939 14.361,45.718 14.509,45.471H14.524ZM15.005,49.69C15.005,49.728 14.987,49.796 14.953,49.893C14.915,50.004 14.872,50.084 14.828,50.135C14.528,49.969 14.377,49.863 14.377,49.817C14.377,49.798 14.4,49.726 14.446,49.6C14.498,49.463 14.535,49.395 14.56,49.395C14.857,49.539 15.005,49.637 15.005,49.69Z" id="path_21"/><path fill="#020203ff" d="M15.393,44.507C15.298,44.805 15.25,44.995 15.25,45.076C15.25,45.202 15.282,45.264 15.346,45.264C15.392,45.264 15.442,45.21 15.495,45.098H15.503L15.514,45.113C15.47,45.347 15.407,45.463 15.323,45.463H15.294C15.233,45.463 15.19,45.424 15.165,45.344C15.16,45.31 15.157,45.284 15.157,45.264V45.167C15.157,44.974 15.23,44.754 15.377,44.507H15.393ZM18.284,47.11C18.284,47.341 18.228,47.533 18.115,47.687C18.057,47.767 17.935,47.865 17.749,47.982C17.607,48.071 17.466,48.16 17.327,48.249C16.889,48.564 16.602,48.765 16.462,48.852C16.149,49.041 15.897,49.136 15.704,49.136C15.559,49.136 15.445,49.062 15.359,48.913C15.278,48.773 15.238,48.598 15.238,48.386C15.238,48.288 15.263,48.124 15.315,47.895C15.379,47.604 15.456,47.392 15.546,47.26C15.56,47.257 15.568,47.269 15.568,47.297C15.568,47.316 15.542,47.436 15.488,47.657C15.433,47.878 15.407,48.062 15.407,48.21C15.407,48.327 15.437,48.429 15.498,48.514C15.559,48.599 15.635,48.642 15.725,48.642C15.954,48.642 16.364,48.449 16.956,48.061C17.092,47.977 17.392,47.781 17.854,47.473C18.046,47.341 18.134,47.252 18.114,47.206C18.059,47.074 17.964,46.97 17.824,46.893C17.573,46.761 17.32,46.627 17.066,46.495C16.885,46.395 16.689,46.228 16.476,45.994C16.299,45.802 16.191,45.705 16.149,45.705C16.132,45.705 16.118,45.711 16.106,45.723C16.106,45.721 16.114,45.675 16.128,45.586C16.143,45.497 16.148,45.395 16.143,45.279C16.14,45.181 16.145,45.131 16.157,45.131C16.165,45.131 16.205,45.165 16.278,45.232C16.319,45.27 16.44,45.334 16.64,45.423C16.818,45.5 16.908,45.551 16.908,45.574C16.908,45.589 16.883,45.598 16.831,45.603C16.779,45.608 16.7,45.619 16.59,45.636C16.761,45.799 17.019,45.964 17.367,46.13C17.738,46.307 17.945,46.413 17.99,46.447C18.185,46.6 18.284,46.821 18.284,47.11ZM16.583,46.759C16.488,47.057 16.44,47.248 16.44,47.329C16.44,47.455 16.472,47.517 16.535,47.517C16.582,47.517 16.632,47.462 16.685,47.351H16.693L16.704,47.366C16.66,47.6 16.596,47.716 16.513,47.716H16.484C16.423,47.716 16.38,47.677 16.355,47.597C16.35,47.563 16.347,47.537 16.347,47.517V47.419C16.347,47.227 16.42,47.006 16.567,46.759H16.583ZM17.683,48.402C17.587,48.7 17.539,48.891 17.539,48.972C17.539,49.097 17.571,49.16 17.635,49.16C17.681,49.16 17.732,49.105 17.785,48.994H17.793L17.803,49.008C17.76,49.242 17.696,49.359 17.612,49.359H17.583C17.522,49.359 17.48,49.319 17.455,49.24C17.449,49.206 17.447,49.18 17.447,49.16V49.062C17.447,48.87 17.52,48.649 17.667,48.402H17.683Z" id="path_22"/><path fill="#020203ff" d="M21.207,49.023C21.152,49.028 21.095,49.031 21.034,49.031C21.029,49.057 21.018,49.113 21.001,49.197C20.952,49.454 20.846,49.672 20.683,49.85C20.353,50.145 19.968,50.435 19.529,50.72C19.134,50.972 18.806,51.152 18.547,51.255C18.013,51.332 17.534,51.447 17.111,51.601C17.023,51.632 16.952,51.648 16.899,51.648C16.864,51.648 16.847,51.64 16.847,51.626C16.847,51.595 16.915,51.55 17.049,51.493C17.458,51.318 17.885,51.119 18.327,50.897C18.87,50.627 19.432,50.294 20.016,49.897C20.585,49.51 20.871,49.271 20.876,49.182C20.865,49.125 20.847,49.074 20.825,49.031C20.361,49.031 20.071,49.007 19.956,48.959C19.892,48.933 19.834,48.886 19.78,48.818C19.716,48.741 19.684,48.666 19.684,48.594C19.687,48.392 19.752,48.201 19.878,48.022C20.005,47.843 20.136,47.753 20.273,47.753C20.371,47.753 20.497,47.832 20.654,47.991C20.817,48.157 20.928,48.333 20.987,48.521C21.067,48.521 21.139,48.52 21.203,48.517V49.023H21.207ZM19.244,49.008H19.298C19.391,49.008 19.445,49.066 19.463,49.182V49.258C19.463,49.492 19.272,49.755 18.891,50.049L18.837,50.059V50.049C19.136,49.726 19.288,49.517 19.288,49.42V49.41C19.288,49.367 19.265,49.334 19.221,49.312H19.122C19.095,49.312 19.054,49.33 19.001,49.365C18.986,49.365 18.979,49.355 18.979,49.333C19.018,49.116 19.106,49.008 19.244,49.008ZM20.481,48.513C20.459,48.485 20.432,48.447 20.4,48.401C20.351,48.329 20.285,48.29 20.203,48.286C20.144,48.283 20.097,48.296 20.059,48.324C20.022,48.351 20.005,48.393 20.008,48.448C20.048,48.482 20.205,48.504 20.481,48.513ZM20.826,50.283C20.709,50.651 20.65,50.886 20.65,50.989C20.65,51.144 20.688,51.221 20.766,51.221C20.825,51.221 20.887,51.153 20.953,51.016H20.961L20.976,51.034C20.922,51.323 20.845,51.466 20.741,51.466H20.704C20.628,51.466 20.574,51.417 20.542,51.319C20.537,51.278 20.534,51.246 20.534,51.221V51.102C20.534,50.861 20.625,50.588 20.805,50.283H20.826Z" id="path_23"/><path fill="#020203ff" d="M22.672,48.56V49.023H21.207C21.005,49.023 20.951,48.879 20.951,48.781C20.951,48.695 21.009,48.561 21.207,48.561H22.672V48.56Z" id="path_24"/><path fill="#020203ff" d="M25.082,49.023C24.828,49.023 24.628,48.965 24.48,48.852C24.333,48.738 24.21,48.588 24.111,48.402C23.857,48.563 23.56,48.713 23.218,48.849C22.927,48.964 22.745,49.023 22.671,49.023V48.517C22.781,48.517 22.958,48.478 23.202,48.398C23.472,48.312 23.723,48.206 23.952,48.081C23.874,47.855 23.836,47.638 23.836,47.431C23.836,46.911 23.984,46.651 24.283,46.651C24.375,46.651 24.475,46.748 24.582,46.94C24.69,47.132 24.744,47.308 24.744,47.466C24.742,47.698 24.706,47.859 24.638,47.95C24.58,48.03 24.487,48.121 24.36,48.224C24.462,48.338 24.578,48.419 24.707,48.47C24.788,48.501 24.913,48.517 25.081,48.517V49.023H25.082ZM24.02,45.883C24.02,45.94 24.005,46.012 23.976,46.096C23.938,46.196 23.895,46.247 23.851,46.247C23.829,46.247 23.74,46.201 23.584,46.11C23.413,46.013 23.328,45.945 23.328,45.905C23.328,45.883 23.387,45.735 23.507,45.461C23.577,45.53 23.695,45.611 23.858,45.702C23.967,45.763 24.02,45.823 24.02,45.883ZM24.057,48.661C23.962,48.959 23.914,49.15 23.914,49.23C23.914,49.356 23.946,49.419 24.009,49.419C24.056,49.419 24.106,49.364 24.159,49.253H24.167L24.178,49.267C24.134,49.501 24.07,49.617 23.987,49.617H23.958C23.897,49.617 23.854,49.578 23.829,49.498C23.824,49.465 23.821,49.438 23.821,49.419V49.321C23.821,49.129 23.894,48.908 24.041,48.661H24.057ZM24.592,47.593C24.574,47.487 24.509,47.383 24.398,47.28C24.297,47.188 24.22,47.142 24.167,47.142C24.111,47.142 24.07,47.174 24.046,47.236C24.041,47.251 24.023,47.336 23.988,47.493C24.02,47.592 24.082,47.746 24.175,47.958C24.377,47.821 24.516,47.699 24.592,47.593ZM24.753,45.67C24.753,45.708 24.738,45.776 24.706,45.872C24.669,45.983 24.628,46.064 24.581,46.118C24.483,46.066 24.387,46.012 24.292,45.958C24.161,45.884 24.094,45.828 24.094,45.789C24.094,45.774 24.118,45.706 24.167,45.586C24.219,45.457 24.255,45.391 24.277,45.391C24.594,45.529 24.753,45.621 24.753,45.67Z" id="path_25"/><path fill="#020203ff" d="M26.804,49.023C26.442,49.023 26.142,48.912 25.903,48.691C25.555,48.912 25.28,49.023 25.082,49.023V48.517C25.285,48.517 25.487,48.477 25.687,48.394C25.635,48.281 25.61,48.151 25.61,48.005C25.608,47.791 25.669,47.575 25.793,47.359C25.927,47.124 26.079,47.005 26.247,47.005C26.334,47.005 26.409,47.093 26.467,47.269C26.519,47.426 26.544,47.593 26.544,47.771C26.544,47.994 26.455,48.203 26.276,48.396C26.45,48.478 26.625,48.518 26.804,48.518V49.023ZM26.09,46.315C26.09,46.476 26.04,46.618 25.941,46.741C25.816,46.679 25.691,46.614 25.566,46.55C25.535,46.531 25.519,46.498 25.519,46.45C25.545,46.366 25.589,46.217 25.65,46.006C25.714,46.057 25.816,46.115 25.958,46.182C26.047,46.222 26.09,46.267 26.09,46.315ZM26.386,47.878C26.372,47.764 26.336,47.67 26.28,47.593C26.228,47.525 26.179,47.493 26.134,47.493C26.065,47.493 25.991,47.533 25.909,47.616C25.826,47.698 25.775,47.791 25.753,47.896C25.8,48.002 25.886,48.112 26.014,48.224C26.157,48.129 26.281,48.013 26.386,47.878ZM26.035,49.062C25.939,49.36 25.892,49.551 25.892,49.632C25.892,49.757 25.923,49.82 25.987,49.82C26.033,49.82 26.084,49.765 26.137,49.654H26.145L26.155,49.668C26.112,49.902 26.048,50.019 25.964,50.019H25.935C25.874,50.019 25.832,49.979 25.807,49.9C25.801,49.866 25.799,49.84 25.799,49.82V49.722C25.799,49.53 25.872,49.309 26.019,49.062H26.035ZM26.02,43.933H26.031C26.263,44.113 26.378,44.363 26.378,44.681V44.731C26.378,44.895 26.312,45.15 26.181,45.497L26.162,45.606C26.162,45.743 26.199,45.811 26.272,45.811C26.321,45.811 26.373,45.75 26.43,45.627H26.455C26.409,45.892 26.34,46.024 26.247,46.024H26.207C26.112,46.007 26.064,45.917 26.064,45.753V45.729C26.064,45.585 26.128,45.351 26.255,45.028C26.267,44.946 26.274,44.886 26.274,44.848V44.79C26.274,44.567 26.157,44.342 25.922,44.116V44.106C25.955,44.028 25.988,43.972 26.02,43.933Z" id="path_26"/><path fill="#020203ff" d="M28.548,49.56H28.588C28.632,49.56 28.684,49.611 28.742,49.711C28.751,49.769 28.756,49.807 28.756,49.824C28.756,49.941 28.722,50.026 28.654,50.076H28.617C28.553,50.076 28.455,50.016 28.32,49.896C28.286,49.996 28.235,50.093 28.166,50.185C27.939,50.401 27.709,50.554 27.474,50.643C27.056,50.74 26.808,50.792 26.73,50.803V50.78C27.516,50.458 27.978,50.221 28.115,50.069C28.173,50.009 28.23,49.923 28.283,49.809C28.32,49.752 28.341,49.723 28.349,49.723H28.372L28.386,49.731C28.438,49.616 28.493,49.56 28.548,49.56ZM29.109,48.863C29.109,49.195 28.955,49.364 28.648,49.369C28.345,49.374 28.081,49.182 27.856,48.795C27.682,48.849 27.508,48.9 27.333,48.948C27.158,48.998 26.982,49.023 26.804,49.023V48.517C27.12,48.517 27.412,48.469 27.679,48.373C27.628,48.239 27.564,48.022 27.486,47.724C27.419,47.337 27.321,46.595 27.189,45.497C27.179,45.377 27.154,45.007 27.116,44.389C27.093,44.332 27.064,44.251 27.028,44.147C27.048,44.092 27.085,43.981 27.142,43.815C27.157,43.748 27.185,43.748 27.227,43.815C27.518,44.27 27.663,44.558 27.663,44.678C27.663,44.752 27.653,44.79 27.63,44.79C27.616,44.788 27.603,44.777 27.59,44.758C27.498,44.646 27.426,44.585 27.374,44.573L27.624,46.782C27.699,47.419 27.808,47.921 27.95,48.287C28.189,48.222 28.382,48.192 28.528,48.197C28.775,48.206 28.938,48.271 29.019,48.392C29.079,48.478 29.109,48.635 29.109,48.863ZM28.68,43.374C28.726,43.374 28.775,43.414 28.825,43.497C28.831,43.505 28.833,43.516 28.833,43.533V43.544C28.816,43.627 28.795,43.67 28.771,43.67C28.763,43.67 28.731,43.643 28.671,43.587L28.632,43.572C28.563,43.572 28.497,43.749 28.43,44.103C28.386,44.214 28.352,44.269 28.328,44.269C28.313,44.269 28.299,44.217 28.284,44.11C28.214,43.926 28.152,43.808 28.097,43.753H28.075L28.035,43.778H28.012C27.958,43.778 27.901,43.734 27.84,43.648V43.634C27.893,43.537 27.935,43.48 27.965,43.46H27.979C28.148,43.46 28.275,43.634 28.36,43.98V43.988H28.368C28.442,43.579 28.545,43.374 28.68,43.374ZM28.384,44.445H28.421C28.587,44.491 28.721,44.592 28.82,44.749C28.82,44.754 28.824,44.762 28.831,44.773C28.794,44.937 28.73,45.019 28.64,45.019C28.417,45.076 28.268,45.139 28.193,45.207C28.324,45.607 28.39,45.998 28.39,46.381C28.39,46.496 28.372,46.627 28.336,46.774H28.313L28.306,46.727V46.651C28.306,46.35 28.242,45.902 28.115,45.309C28.115,45.295 28.111,45.271 28.104,45.237C28.104,45.016 28.209,44.875 28.42,44.815L28.467,44.805V44.797C28.459,44.773 28.422,44.75 28.353,44.729C28.331,44.729 28.278,44.78 28.191,44.88C28.177,44.88 28.169,44.874 28.169,44.862C28.201,44.584 28.271,44.445 28.384,44.445ZM28.875,48.863C28.88,48.82 28.847,48.78 28.775,48.744C28.691,48.704 28.584,48.683 28.453,48.683C28.377,48.683 28.298,48.691 28.214,48.705C28.312,48.792 28.394,48.848 28.463,48.871C28.475,48.876 28.548,48.891 28.68,48.914C28.778,48.931 28.843,48.914 28.875,48.863ZM28.706,46.774C28.611,47.072 28.563,47.263 28.563,47.344C28.563,47.469 28.595,47.532 28.658,47.532C28.705,47.532 28.755,47.477 28.808,47.366H28.816L28.827,47.38C28.783,47.614 28.719,47.73 28.636,47.73H28.607C28.545,47.73 28.503,47.691 28.478,47.611C28.473,47.577 28.47,47.551 28.47,47.532V47.434C28.47,47.242 28.543,47.021 28.69,46.774H28.706ZM28.5,49.795C28.599,49.867 28.664,49.903 28.698,49.903V49.875C28.671,49.792 28.632,49.752 28.581,49.752H28.573C28.544,49.752 28.52,49.766 28.5,49.795Z" id="path_27"/><path fill="#020203ff" d="M30.494,47.853C30.503,47.973 30.508,48.09 30.508,48.203C30.508,48.603 30.461,48.891 30.365,49.066C30.328,49.134 30.302,49.166 30.284,49.166C30.258,49.166 30.254,49.089 30.274,48.935C30.298,48.74 30.299,48.537 30.278,48.325C30.19,47.636 30.068,46.603 29.912,45.221C29.892,44.969 29.859,44.605 29.812,44.128C29.804,44.102 29.772,44.03 29.713,43.915C29.698,43.889 29.737,43.736 29.829,43.456C29.835,43.439 29.841,43.431 29.852,43.431C29.876,43.431 29.91,43.483 29.954,43.587C30.03,43.746 30.104,43.904 30.177,44.064C30.294,44.309 30.353,44.462 30.353,44.522C30.353,44.542 30.345,44.551 30.331,44.551C30.322,44.551 30.306,44.543 30.283,44.529C30.222,44.483 30.157,44.426 30.089,44.355C30.084,44.423 30.135,44.865 30.239,45.683C30.368,46.659 30.451,47.381 30.494,47.853Z" id="path_28"/><path fill="#020203ff" d="M34.043,47.64C34.055,47.912 34.005,48.157 33.893,48.373C33.728,48.611 33.432,48.888 33.007,49.203C32.445,49.624 31.953,49.833 31.531,49.832C31.218,49.829 30.985,49.688 30.828,49.406C30.706,49.182 30.645,48.907 30.645,48.58C30.645,48.537 30.646,48.494 30.649,48.451C30.664,48.207 30.733,47.929 30.855,47.617C30.916,47.46 30.965,47.382 31.001,47.382C31.013,47.382 31.019,47.395 31.019,47.421C31.019,47.469 30.999,47.545 30.961,47.648C30.917,47.763 30.885,47.857 30.865,47.929C30.831,48.064 30.811,48.194 30.807,48.322C30.784,48.986 31.077,49.318 31.686,49.318C32.05,49.318 32.519,49.11 33.094,48.694C33.57,48.35 33.843,48.108 33.915,47.968C33.9,47.913 33.84,47.859 33.736,47.806C33.611,47.743 33.473,47.716 33.322,47.723C33.202,47.728 33.128,47.73 33.099,47.73C32.82,47.73 32.679,47.6 32.674,47.337C32.669,47.116 32.733,46.924 32.866,46.764C32.987,46.614 33.119,46.54 33.258,46.54C33.388,46.54 33.535,46.625 33.701,46.796C33.912,47.017 34.029,47.298 34.043,47.64ZM32.127,47.741H32.181C32.274,47.741 32.328,47.798 32.346,47.915V47.991C32.346,48.224 32.154,48.487 31.774,48.781L31.719,48.792V48.781C32.019,48.458 32.171,48.249 32.171,48.153V48.142C32.171,48.099 32.148,48.066 32.104,48.044H32.005C31.978,48.044 31.937,48.062 31.884,48.098C31.869,48.098 31.861,48.087 31.861,48.065C31.903,47.849 31.99,47.741 32.127,47.741ZM33.542,47.257C33.391,47.091 33.263,47.008 33.161,47.008C33.037,47.008 32.972,47.061 32.968,47.17C32.994,47.213 33.058,47.238 33.159,47.242C33.234,47.239 33.308,47.238 33.381,47.238C33.433,47.242 33.487,47.248 33.542,47.257ZM33.449,49.459C33.332,49.828 33.273,50.063 33.273,50.166C33.273,50.32 33.311,50.397 33.389,50.397C33.448,50.397 33.51,50.33 33.576,50.192H33.584L33.599,50.211C33.545,50.499 33.468,50.643 33.364,50.643H33.327C33.251,50.643 33.197,50.593 33.165,50.495C33.16,50.455 33.157,50.422 33.157,50.397V50.279C33.157,50.038 33.248,49.765 33.428,49.459H33.449Z" id="path_29"/><path fill="#020203ff" d="M39.451,48.539C39.416,48.65 39.243,48.823 38.931,49.059C38.582,49.322 38.208,49.54 37.81,49.717C37.319,49.934 36.874,50.041 36.473,50.038C36.097,50.035 35.795,49.893 35.569,49.608C35.359,49.343 35.261,49.025 35.276,48.656C35.295,48.187 35.399,47.767 35.587,47.396C35.687,47.201 35.757,47.103 35.795,47.103C35.805,47.106 35.81,47.115 35.81,47.132C35.81,47.187 35.773,47.291 35.7,47.443C35.526,47.797 35.445,48.146 35.454,48.49C35.463,48.776 35.566,49.018 35.766,49.215C35.966,49.412 36.209,49.51 36.496,49.51C36.919,49.51 37.375,49.411 37.866,49.215C38.244,49.066 38.597,48.878 38.92,48.652C39.208,48.454 39.339,48.338 39.313,48.301C39.269,48.239 39.107,48.183 38.829,48.132C38.472,48.064 38.236,48.006 38.118,47.958C37.874,47.86 37.752,47.719 37.752,47.536C37.752,47.055 37.959,46.574 38.375,46.092C38.675,45.743 38.94,45.569 39.17,45.569C39.358,45.569 39.452,45.704 39.452,45.973C39.452,46.179 39.394,46.284 39.276,46.284C39.266,46.284 39.251,46.247 39.228,46.174C39.206,46.101 39.145,46.064 39.045,46.064C38.853,46.064 38.622,46.225 38.357,46.548C38.081,46.882 37.943,47.111 37.943,47.234C37.943,47.242 37.944,47.247 37.947,47.252C38.045,47.389 38.246,47.49 38.552,47.555C39.001,47.652 39.264,47.715 39.339,47.746C39.461,47.797 39.522,47.921 39.522,48.117C39.52,48.244 39.497,48.385 39.451,48.539ZM37.326,46.286C37.387,46.286 37.452,46.347 37.52,46.467C37.525,46.479 37.528,46.496 37.528,46.518V46.54C37.505,46.66 37.479,46.72 37.447,46.72C37.439,46.72 37.395,46.681 37.315,46.601L37.264,46.579C37.174,46.579 37.085,46.838 36.996,47.355C36.937,47.516 36.894,47.597 36.864,47.597C36.842,47.597 36.822,47.52 36.802,47.366C36.709,47.097 36.627,46.922 36.557,46.843H36.524L36.472,46.882H36.443C36.374,46.882 36.298,46.818 36.216,46.692V46.669C36.286,46.53 36.342,46.446 36.38,46.417H36.403C36.626,46.417 36.793,46.669 36.904,47.175V47.186H36.915C37.01,46.586 37.147,46.286 37.326,46.286ZM36.424,45.127H36.435C36.705,45.33 36.842,45.576 36.842,45.867V45.957C36.842,46.1 36.809,46.207 36.742,46.279H36.735C36.722,46.279 36.716,46.271 36.716,46.254C36.733,46.165 36.741,46.085 36.741,46.016C36.741,45.79 36.602,45.553 36.323,45.309C36.333,45.263 36.366,45.203 36.424,45.127ZM39.175,49.445C39.079,49.743 39.032,49.934 39.032,50.015C39.032,50.14 39.064,50.203 39.127,50.203C39.174,50.203 39.224,50.148 39.277,50.037H39.285L39.296,50.051C39.252,50.285 39.188,50.401 39.105,50.401H39.076C39.014,50.401 38.972,50.362 38.947,50.283C38.942,50.249 38.939,50.222 38.939,50.203V50.105C38.939,49.913 39.012,49.692 39.159,49.445H39.175Z" id="path_30"/><path fill="#020203ff" d="M42.963,49.023C42.885,49.025 42.819,49.015 42.765,48.99C42.788,49.096 42.799,49.196 42.799,49.293C42.799,49.464 42.755,49.669 42.667,49.91C42.645,49.97 42.529,50.092 42.32,50.275C42.061,50.503 41.789,50.691 41.507,50.838C41.129,51.032 40.769,51.13 40.43,51.13C39.878,51.13 39.602,50.779 39.602,50.077C39.602,49.568 39.698,49.127 39.887,48.756C39.939,48.655 39.981,48.604 40.016,48.604C40.03,48.604 40.039,48.619 40.039,48.648C40.039,48.684 40.024,48.735 39.995,48.803C39.853,49.126 39.783,49.442 39.783,49.752C39.783,50.335 40.009,50.623 40.464,50.622C40.935,50.619 41.426,50.455 41.934,50.128C42.354,49.856 42.586,49.646 42.63,49.497C42.636,49.477 42.638,49.458 42.638,49.436C42.638,49.301 42.514,49.049 42.264,48.682C42.256,48.673 42.254,48.655 42.254,48.631C42.254,48.593 42.264,48.517 42.287,48.405C42.309,48.292 42.32,48.22 42.32,48.186C42.332,48.164 42.349,48.163 42.372,48.179C42.427,48.258 42.508,48.361 42.613,48.489C42.63,48.509 42.748,48.518 42.968,48.518V49.023H42.963ZM40.909,45.742H40.923C41.239,45.922 41.395,46.171 41.395,46.489V46.54C41.395,46.703 41.305,46.958 41.125,47.306L41.102,47.414C41.102,47.551 41.151,47.619 41.248,47.619C41.314,47.619 41.386,47.558 41.464,47.435H41.498C41.434,47.7 41.34,47.832 41.215,47.832H41.161C41.031,47.815 40.967,47.725 40.967,47.562V47.537C40.967,47.393 41.052,47.159 41.223,46.836C41.24,46.754 41.248,46.694 41.248,46.656V46.599C41.248,46.375 41.089,46.151 40.772,45.924V45.914C40.82,45.837 40.865,45.779 40.909,45.742ZM41.608,48.55C41.512,48.848 41.464,49.038 41.464,49.119C41.464,49.245 41.496,49.307 41.56,49.307C41.606,49.307 41.657,49.253 41.71,49.142H41.718L41.728,49.156C41.685,49.39 41.621,49.506 41.537,49.506H41.508C41.447,49.506 41.405,49.467 41.379,49.387C41.374,49.353 41.371,49.327 41.371,49.307V49.209C41.371,49.017 41.444,48.797 41.592,48.55H41.608ZM42.707,50.686C42.612,50.984 42.564,51.175 42.564,51.256C42.564,51.381 42.596,51.444 42.659,51.444C42.706,51.444 42.756,51.389 42.809,51.278H42.817L42.828,51.292C42.784,51.526 42.72,51.643 42.637,51.643H42.608C42.547,51.643 42.504,51.604 42.479,51.524C42.474,51.49 42.471,51.464 42.471,51.444V51.346C42.471,51.154 42.544,50.933 42.691,50.686H42.707Z" id="path_31"/><path fill="#020203ff" d="M46.807,48.005C46.807,48.517 46.624,48.773 46.258,48.773C46.142,48.773 46.04,48.733 45.95,48.65C45.889,48.576 45.827,48.503 45.763,48.431C45.719,48.52 45.654,48.623 45.569,48.742C45.459,48.893 45.296,48.969 45.079,48.969C44.919,48.969 44.79,48.919 44.686,48.821C44.571,48.708 44.522,48.548 44.536,48.342C44.26,48.548 44.049,48.691 43.902,48.768C43.585,48.939 43.272,49.024 42.964,49.024C42.964,48.855 42.964,48.687 42.964,48.518C43.321,48.518 43.616,48.469 43.848,48.371C43.992,48.311 44.247,48.158 44.613,47.912C44.652,47.886 44.679,47.873 44.694,47.873C44.716,47.873 44.727,47.892 44.727,47.93C44.727,47.945 44.726,47.964 44.723,47.988C44.721,48.011 44.711,48.075 44.694,48.179C44.801,48.39 44.953,48.496 45.148,48.496C45.414,48.496 45.617,48.343 45.755,48.037C45.807,47.926 45.88,47.827 45.975,47.738C45.985,47.733 45.995,47.73 46.004,47.728C46.019,47.728 46.027,47.741 46.027,47.767C46.027,47.79 45.999,47.896 45.942,48.081C46.052,48.224 46.185,48.297 46.341,48.297C46.39,48.297 46.449,48.286 46.518,48.261C46.599,48.232 46.638,48.202 46.638,48.171C46.638,48.145 46.617,48.104 46.576,48.05C46.535,47.997 46.514,47.954 46.514,47.922C46.502,47.757 46.527,47.622 46.591,47.519C46.599,47.507 46.607,47.5 46.616,47.5C46.653,47.5 46.693,47.559 46.738,47.675C46.784,47.79 46.807,47.902 46.807,48.005ZM43.699,46.651C43.604,46.949 43.556,47.14 43.556,47.221C43.556,47.346 43.588,47.409 43.652,47.409C43.698,47.409 43.748,47.354 43.801,47.243H43.809L43.82,47.257C43.776,47.491 43.713,47.607 43.629,47.607H43.6C43.539,47.607 43.496,47.568 43.471,47.489C43.466,47.455 43.463,47.429 43.463,47.409V47.311C43.463,47.119 43.536,46.898 43.683,46.651H43.699ZM46.418,49.123H46.426C46.461,49.143 46.478,49.176 46.478,49.221V49.289C46.444,49.492 46.392,49.592 46.32,49.592H46.283C46.244,49.592 46.181,49.577 46.092,49.545C45.996,49.643 45.901,49.693 45.807,49.693H45.788C45.664,49.671 45.592,49.66 45.572,49.66C45.36,49.66 45.103,49.825 44.803,50.154C44.634,50.314 44.494,50.392 44.381,50.392C44.381,50.4 44.353,50.408 44.296,50.417L44.288,50.399C44.459,50.307 44.616,50.197 44.758,50.071C45.077,49.705 45.276,49.515 45.354,49.501C45.442,49.446 45.54,49.417 45.648,49.417L45.864,49.46H45.904C45.979,49.46 46.059,49.379 46.142,49.219L46.165,49.204H46.183C46.195,49.204 46.202,49.209 46.202,49.219V49.229C46.202,49.251 46.19,49.289 46.165,49.344C46.192,49.359 46.234,49.366 46.294,49.366H46.367L46.341,49.251C46.341,49.221 46.367,49.178 46.418,49.123ZM44.711,45.37C44.581,45.774 44.518,46.032 44.518,46.143C44.518,46.311 44.56,46.395 44.646,46.395C44.71,46.395 44.778,46.32 44.852,46.171H44.86L44.874,46.194C44.816,46.508 44.73,46.667 44.618,46.667H44.579C44.495,46.667 44.438,46.613 44.406,46.505C44.398,46.459 44.396,46.422 44.396,46.396V46.267C44.396,46.007 44.495,45.709 44.693,45.372H44.711V45.37Z" id="path_32"/><path fill="#020203ff" d="M50.034,47.993C50.022,48.193 50.006,48.292 49.986,48.292C49.974,48.292 49.954,48.246 49.928,48.155C49.896,48.047 49.872,47.979 49.855,47.95C49.779,47.796 49.652,47.595 49.474,47.344C49.112,47.014 48.486,46.422 47.595,45.568C47.429,45.404 47.168,45.059 46.811,44.532C46.776,44.514 46.725,44.479 46.653,44.423C46.65,44.418 46.649,44.413 46.649,44.405C46.649,44.4 46.654,44.366 46.665,44.301C46.676,44.237 46.681,44.179 46.681,44.123C46.681,44.07 46.676,44.017 46.666,43.963C46.664,43.955 46.662,43.95 46.662,43.945C46.662,43.939 46.665,43.937 46.67,43.937C46.707,43.937 46.772,43.975 46.868,44.052C46.882,44.064 47.014,44.155 47.263,44.326C47.449,44.452 47.542,44.53 47.542,44.562C47.542,44.573 47.53,44.58 47.505,44.58C47.487,44.58 47.463,44.576 47.432,44.569C47.393,44.564 47.32,44.555 47.215,44.541C47.271,44.704 48.021,45.461 49.461,46.81C49.618,46.957 49.751,47.14 49.864,47.359C49.987,47.602 50.043,47.813 50.034,47.993ZM49.104,43.989C49.119,43.987 49.127,43.996 49.127,44.014C49.127,44.115 49.092,44.198 49.025,44.264C48.97,44.315 48.84,44.393 48.632,44.499C48.408,44.612 48.22,44.731 48.068,44.856C47.975,44.933 47.929,44.935 47.929,44.863C47.929,44.84 47.942,44.808 47.969,44.769C48.025,44.687 48.055,44.644 48.06,44.64C48.104,44.589 48.176,44.539 48.277,44.488C48.213,44.486 48.148,44.454 48.08,44.394C48.013,44.334 47.979,44.277 47.979,44.221C47.979,44.115 48.055,43.977 48.209,43.812C48.361,43.644 48.493,43.561 48.603,43.561C48.705,43.561 48.757,43.626 48.757,43.755C48.72,43.929 48.677,44.011 48.628,44.005C48.604,43.985 48.575,43.949 48.543,43.893C48.523,43.856 48.493,43.839 48.452,43.839C48.368,43.839 48.278,43.908 48.181,44.048C48.323,44.188 48.449,44.257 48.558,44.257C48.627,44.256 48.808,44.167 49.104,43.989ZM50.452,47.319C50.46,47.408 50.462,47.493 50.462,47.571C50.462,47.92 50.377,48.295 50.209,48.697C50.153,48.832 50.086,48.952 50.007,49.058C49.861,49.255 49.682,49.402 49.473,49.498C49.385,49.539 49.084,49.659 48.572,49.859C48.474,49.897 48.409,49.917 48.375,49.917C48.355,49.917 48.346,49.91 48.346,49.898C48.346,49.872 48.396,49.825 48.495,49.757C48.849,49.519 49.054,49.381 49.107,49.342C49.403,49.13 49.62,48.946 49.759,48.789C49.867,48.669 49.974,48.55 50.082,48.432C50.194,48.3 50.253,48.203 50.258,48.143C50.263,48.103 50.266,48.055 50.266,48C50.266,47.653 50.172,46.954 49.984,45.902C49.771,44.718 49.659,44.066 49.647,43.946C49.58,43.877 49.551,43.826 49.559,43.794C49.571,43.746 49.607,43.602 49.665,43.362C49.673,43.333 49.684,43.319 49.698,43.319C49.721,43.319 49.745,43.35 49.771,43.413C49.83,43.495 49.986,43.806 50.241,44.347C50.27,44.419 50.262,44.457 50.216,44.46C50.198,44.46 50.176,44.447 50.147,44.42C50.106,44.382 50.047,44.33 49.974,44.265C50.018,44.551 50.119,45.125 50.274,45.986C50.363,46.485 50.423,46.929 50.452,47.319ZM48.726,47.206C48.609,47.575 48.55,47.81 48.55,47.913C48.55,48.068 48.588,48.145 48.666,48.145C48.725,48.145 48.787,48.077 48.854,47.939H48.861L48.876,47.958C48.822,48.246 48.745,48.39 48.641,48.39H48.604C48.528,48.39 48.474,48.341 48.442,48.243C48.437,48.202 48.434,48.169 48.434,48.145V48.026C48.434,47.785 48.525,47.512 48.705,47.206H48.726ZM50.269,49.502H50.323C50.416,49.502 50.47,49.56 50.487,49.676V49.752C50.487,49.986 50.297,50.249 49.916,50.542L49.861,50.553V50.542C50.161,50.22 50.313,50.011 50.313,49.914V49.903C50.313,49.86 50.29,49.828 50.246,49.806H50.147C50.12,49.806 50.079,49.824 50.026,49.859C50.011,49.859 50.003,49.849 50.003,49.826C50.043,49.611 50.132,49.502 50.269,49.502Z" id="path_33"/><path fill="#020203ff" d="M52.298,47.853C52.307,47.973 52.313,48.09 52.313,48.203C52.313,48.603 52.265,48.891 52.169,49.066C52.132,49.134 52.106,49.166 52.089,49.166C52.062,49.166 52.058,49.089 52.078,48.935C52.102,48.74 52.103,48.537 52.082,48.325C51.994,47.636 51.872,46.603 51.716,45.221C51.696,44.969 51.663,44.605 51.616,44.128C51.608,44.102 51.576,44.03 51.517,43.915C51.502,43.889 51.541,43.736 51.633,43.456C51.639,43.439 51.646,43.431 51.656,43.431C51.68,43.431 51.714,43.483 51.758,43.587C51.834,43.746 51.908,43.904 51.981,44.064C52.098,44.309 52.157,44.462 52.157,44.522C52.157,44.542 52.15,44.551 52.135,44.551C52.126,44.551 52.11,44.543 52.087,44.529C52.026,44.483 51.961,44.426 51.894,44.355C51.888,44.423 51.939,44.865 52.043,45.683C52.172,46.659 52.256,47.381 52.298,47.853Z" id="path_34"/><path fill="#020203ff" d="M55.847,47.64C55.859,47.912 55.809,48.157 55.697,48.373C55.532,48.611 55.236,48.888 54.812,49.203C54.249,49.624 53.757,49.833 53.335,49.832C53.022,49.829 52.789,49.688 52.632,49.406C52.51,49.182 52.449,48.907 52.449,48.58C52.449,48.537 52.451,48.494 52.453,48.451C52.468,48.207 52.537,47.929 52.659,47.617C52.72,47.46 52.769,47.382 52.805,47.382C52.817,47.382 52.823,47.395 52.823,47.421C52.823,47.469 52.803,47.545 52.765,47.648C52.721,47.763 52.689,47.857 52.669,47.929C52.635,48.064 52.615,48.194 52.611,48.322C52.589,48.986 52.882,49.318 53.49,49.318C53.854,49.318 54.323,49.11 54.898,48.694C55.374,48.35 55.647,48.108 55.719,47.968C55.704,47.913 55.644,47.859 55.54,47.806C55.415,47.743 55.277,47.716 55.126,47.723C55.006,47.728 54.932,47.73 54.903,47.73C54.625,47.73 54.482,47.6 54.479,47.337C54.473,47.116 54.537,46.924 54.669,46.764C54.792,46.614 54.923,46.54 55.062,46.54C55.192,46.54 55.339,46.625 55.505,46.796C55.717,47.017 55.833,47.298 55.847,47.64ZM53.932,47.741H53.986C54.079,47.741 54.134,47.798 54.151,47.915V47.991C54.151,48.224 53.96,48.487 53.579,48.781L53.525,48.792V48.781C53.825,48.458 53.976,48.249 53.976,48.153V48.142C53.976,48.099 53.953,48.066 53.91,48.044H53.81C53.784,48.044 53.742,48.062 53.689,48.098C53.675,48.098 53.667,48.087 53.667,48.065C53.707,47.849 53.794,47.741 53.932,47.741ZM55.346,47.257C55.195,47.091 55.068,47.008 54.965,47.008C54.841,47.008 54.776,47.061 54.772,47.17C54.798,47.213 54.862,47.238 54.963,47.242C55.038,47.239 55.113,47.238 55.186,47.238C55.239,47.242 55.292,47.248 55.346,47.257ZM55.255,49.459C55.138,49.828 55.078,50.063 55.078,50.166C55.078,50.32 55.117,50.397 55.195,50.397C55.253,50.397 55.315,50.33 55.382,50.192H55.39L55.404,50.211C55.35,50.499 55.273,50.643 55.17,50.643H55.132C55.057,50.643 55.002,50.593 54.971,50.495C54.965,50.455 54.963,50.422 54.963,50.397V50.279C54.963,50.038 55.053,49.765 55.233,49.459H55.255Z" id="path_35"/><path fill="#020203ff" d="M54.318,37.358C53.809,37.557 50.923,38.328 50.421,38.488L50.413,38.48L50.476,38.199C51.055,38.007 54.029,37.211 54.476,37.04L54.484,37.052L54.318,37.358Z" id="path_36"/><path fill="#020203ff" d="M36.111,37.765C35.602,37.965 32.716,38.736 32.214,38.896L32.206,38.888L32.269,38.607C32.848,38.415 35.822,37.619 36.269,37.448L36.277,37.459L36.111,37.765Z" id="path_37"/><path fill="#020203ff" d="M13.9,36.634C13.391,36.834 10.504,37.605 10.003,37.764L9.995,37.756L10.057,37.475C10.637,37.283 13.611,36.487 14.058,36.316L14.066,36.328L13.9,36.634Z" id="path_38"/><path fill="#020203ff" d="M45.344,44.282C44.835,44.482 41.948,45.253 41.447,45.412L41.439,45.404L41.501,45.123C42.081,44.931 45.055,44.136 45.502,43.964L45.51,43.976L45.344,44.282Z" id="path_39"/><path fill="#020203ff" d="M35.03,44.572C34.521,44.772 31.635,45.543 31.133,45.702L31.125,45.694L31.188,45.414C31.767,45.221 34.741,44.426 35.188,44.254L35.196,44.266L35.03,44.572Z" id="path_40"/><path fill="#020203ff" d="M23.68,45.296C23.171,45.496 20.285,46.267 19.784,46.426L19.776,46.418L19.838,46.137C20.418,45.945 23.391,45.15 23.838,44.978L23.846,44.99L23.68,45.296Z" id="path_41"/><path fill="#020203ff" d="M27.147,37.844C26.638,38.044 25.669,38.386 25.169,38.545L25.161,38.537L25.223,38.257C25.803,38.064 26.858,37.697 27.305,37.526L27.313,37.538L27.147,37.844Z" id="path_42"/><path fill="#020203ff" d="M20.63,44.757C20.642,44.789 20.639,44.824 20.626,44.865C20.611,44.905 20.595,44.922 20.577,44.916C20.524,44.899 20.465,44.871 20.399,44.832C20.318,44.974 20.154,45.159 19.907,45.382C19.66,45.607 19.496,45.718 19.415,45.718C19.398,45.718 19.387,45.711 19.38,45.698C19.534,45.566 19.689,45.434 19.846,45.301C20.103,45.08 20.258,44.914 20.312,44.801C20.261,44.769 20.209,44.738 20.159,44.707C20.112,44.666 20.089,44.61 20.089,44.537C20.089,44.496 20.119,44.436 20.179,44.356C20.239,44.277 20.29,44.236 20.331,44.236C20.456,44.236 20.517,44.309 20.517,44.456C20.517,44.514 20.504,44.578 20.477,44.648C20.526,44.673 20.577,44.709 20.63,44.757ZM20.392,44.629C20.4,44.607 20.404,44.584 20.404,44.56C20.404,44.467 20.375,44.422 20.317,44.422C20.309,44.422 20.302,44.423 20.297,44.424C20.262,44.43 20.244,44.449 20.237,44.483C20.232,44.522 20.284,44.572 20.392,44.629Z" id="path_43"/><path fill="#020203ff" d="M46.786,37.422C46.798,37.453 46.795,37.488 46.782,37.529C46.767,37.569 46.751,37.586 46.733,37.58C46.68,37.563 46.621,37.535 46.555,37.496C46.474,37.639 46.31,37.823 46.063,38.046C45.816,38.271 45.652,38.382 45.571,38.382C45.554,38.382 45.543,38.375 45.536,38.362C45.69,38.23 45.845,38.098 46.002,37.965C46.259,37.744 46.414,37.578 46.467,37.465C46.417,37.433 46.365,37.402 46.315,37.371C46.268,37.33 46.244,37.274 46.244,37.201C46.244,37.16 46.275,37.1 46.335,37.02C46.394,36.941 46.446,36.9 46.487,36.9C46.612,36.9 46.673,36.973 46.673,37.12C46.673,37.179 46.66,37.243 46.633,37.312C46.682,37.338 46.734,37.373 46.786,37.422ZM46.55,37.293C46.558,37.271 46.562,37.248 46.562,37.224C46.562,37.131 46.532,37.086 46.474,37.086C46.466,37.086 46.459,37.087 46.454,37.088C46.42,37.093 46.401,37.113 46.394,37.147C46.388,37.188 46.439,37.236 46.55,37.293Z" id="path_44"/><path fill="#020203ff" d="M20.235,37.422C20.247,37.453 20.244,37.488 20.231,37.529C20.216,37.569 20.2,37.586 20.181,37.58C20.128,37.563 20.07,37.535 20.004,37.496C19.923,37.639 19.758,37.823 19.512,38.046C19.265,38.271 19.101,38.382 19.02,38.382C19.002,38.382 18.992,38.375 18.985,38.362C19.139,38.23 19.294,38.098 19.451,37.965C19.708,37.744 19.863,37.578 19.916,37.465C19.866,37.433 19.814,37.402 19.764,37.371C19.717,37.33 19.693,37.274 19.693,37.201C19.693,37.16 19.724,37.1 19.784,37.02C19.843,36.941 19.895,36.9 19.936,36.9C20.061,36.9 20.122,36.973 20.122,37.12C20.122,37.179 20.108,37.243 20.082,37.312C20.131,37.338 20.181,37.373 20.235,37.422ZM19.997,37.293C20.005,37.271 20.009,37.248 20.009,37.224C20.009,37.131 19.98,37.086 19.921,37.086C19.914,37.086 19.907,37.087 19.902,37.088C19.867,37.093 19.849,37.113 19.842,37.147C19.835,37.188 19.887,37.236 19.997,37.293Z" id="path_45"/><path fill="#020203ff" d="M55.131,45.262C54.622,45.462 54.105,45.637 53.604,45.796L53.597,45.789L53.659,45.507C54.238,45.315 54.842,45.117 55.289,44.944L55.297,44.956L55.131,45.262Z" id="path_46"/><path fill="#020203ff" d="M27.77,13.339C27.77,13.339 27.836,13.404 27.836,13.435C27.836,13.339 27.902,13.209 27.934,13.111L28,13.177C28,13.08 28.067,13.014 28.098,12.95C28.165,12.95 28.165,13.016 28.165,13.047C28.165,12.95 28.231,12.885 28.263,12.821C28.329,12.886 28.329,12.886 28.361,12.918C28.361,12.756 28.526,12.756 28.591,12.692C28.591,12.692 28.657,12.757 28.657,12.788C28.723,12.723 28.755,12.626 28.886,12.626C28.953,12.626 28.953,12.692 28.953,12.723C29.019,12.658 29.051,12.626 29.182,12.626C29.249,12.626 29.249,12.692 29.249,12.723C29.315,12.658 29.315,12.658 29.347,12.626C29.445,12.723 29.642,12.561 29.741,12.692C29.905,13.048 29.445,13.112 29.116,13.371C28.886,13.533 28.656,13.695 28.491,13.921C28.327,14.147 28.195,14.375 28.097,14.601C27.933,15.054 27.933,15.572 28.031,16.058C28.097,15.896 27.965,15.67 28.097,15.508C28.195,15.604 28.097,15.799 28.163,15.961C28.23,15.799 28.23,15.637 28.328,15.444C28.426,15.54 28.328,15.735 28.394,15.832C28.461,15.606 28.394,15.378 28.559,15.216C28.625,15.216 28.559,15.378 28.657,15.442C28.657,15.28 28.591,15.054 28.755,14.892C28.755,14.892 28.821,14.958 28.821,14.989C28.821,14.827 28.755,14.601 28.92,14.535C29.018,14.535 28.986,14.698 28.986,14.762C29.052,14.535 29.052,14.244 29.215,14.146C29.282,14.081 29.282,14.243 29.282,14.308C29.348,14.146 29.348,13.855 29.511,13.791C29.577,13.791 29.577,13.953 29.577,14.017C29.644,13.855 29.742,13.693 29.807,13.499C29.873,13.565 29.873,13.565 29.905,13.596C29.971,13.434 30.069,13.272 30.234,13.304C30.399,13.304 30.3,13.467 30.234,13.531C29.84,13.919 29.445,14.308 29.215,14.762C28.886,15.539 28.92,16.445 29.313,17.19C29.247,17.027 29.149,16.736 29.313,16.672C29.412,16.607 29.313,16.834 29.412,16.898C29.412,16.574 29.412,16.283 29.51,15.927C29.576,15.993 29.608,16.024 29.608,16.153C29.608,16.088 29.608,16.056 29.674,16.056C29.772,16.122 29.741,16.219 29.741,16.348C29.839,16.056 29.872,15.83 29.674,15.57C29.576,15.408 29.674,15.279 29.741,15.117C29.807,15.182 29.839,15.214 29.839,15.343C29.905,15.117 29.839,14.826 29.937,14.598C30.035,14.663 30.003,14.76 30.003,14.824C30.101,14.662 29.937,14.436 30.101,14.307C30.199,14.307 30.101,14.469 30.199,14.533C30.199,14.371 30.133,14.145 30.298,14.015C30.364,14.015 30.364,14.177 30.364,14.241C30.364,14.015 30.462,13.788 30.66,13.691C30.726,13.691 30.758,13.691 30.758,13.757C30.66,13.822 30.758,13.919 30.66,13.983C30.758,13.983 30.824,14.048 30.889,14.079C30.66,14.241 30.56,14.403 30.429,14.63C30.495,14.533 30.658,14.467 30.758,14.564C30.462,14.661 30.199,14.856 30.233,15.18C30.233,15.083 30.331,14.954 30.462,14.888C30.528,14.888 30.627,14.888 30.627,14.954C30.397,15.18 30.166,15.407 30.233,15.731C30.299,15.634 30.299,15.44 30.462,15.44C30.528,15.44 30.56,15.505 30.528,15.536C30.233,15.828 30.233,16.216 30.299,16.54C30.299,16.443 30.233,16.249 30.365,16.314C30.463,16.314 30.432,16.476 30.432,16.605L30.498,16.54C30.596,16.702 30.432,16.831 30.498,16.993C30.564,17.156 30.564,17.285 30.596,17.447C30.662,17.285 30.53,17.059 30.662,16.897C30.761,17.123 30.761,17.414 30.761,17.674C30.761,17.609 30.761,17.578 30.827,17.578C30.925,17.643 30.827,17.804 30.925,17.869C30.859,17.481 31.023,17.091 31.023,16.671C30.957,16.671 30.925,16.671 30.925,16.605C30.925,16.509 30.859,16.281 30.991,16.281C31.09,16.216 30.991,16.507 31.09,16.573C31.023,16.411 31.09,16.249 31.156,16.119C31.222,16.119 31.222,15.893 31.32,16.054C31.32,16.119 31.32,16.151 31.254,16.151C31.32,16.247 31.483,16.313 31.55,16.216C31.55,16.151 31.483,16.054 31.616,15.99C31.714,18.288 31.714,19.421 31.616,21.753C31.616,21.849 31.55,21.979 31.518,22.077C31.452,22.594 31.682,22.983 31.42,23.437C31.353,23.599 31.486,23.761 31.486,23.954C31.552,24.472 31.157,24.861 30.928,25.315C31.684,25.315 32.473,25.315 33.228,25.315C32.932,24.927 32.767,24.537 32.603,24.116C32.537,23.89 32.767,23.663 32.701,23.437C32.603,23.275 32.537,23.113 32.537,22.92C32.47,22.823 32.537,22.628 32.603,22.531C32.669,22.24 32.505,21.981 32.505,21.69C32.407,19.424 32.34,18.258 32.505,15.991C32.603,16.088 32.505,16.315 32.734,16.283C32.899,16.217 32.734,15.991 32.832,16.056C32.997,16.122 32.997,16.348 32.997,16.574C33.095,16.509 32.997,16.25 33.095,16.283C33.193,16.283 33.161,16.509 33.161,16.607C33.161,16.672 33.095,16.672 33.063,16.672C33.063,17.06 33.228,17.449 33.161,17.87C33.259,17.805 33.161,17.644 33.259,17.579C33.326,17.579 33.326,17.644 33.326,17.676C33.326,17.384 33.326,17.125 33.424,16.898C33.522,17.06 33.424,17.286 33.49,17.448C33.556,17.286 33.556,17.157 33.588,16.995C33.655,16.833 33.49,16.703 33.588,16.541L33.655,16.607C33.655,16.51 33.588,16.315 33.721,16.315C33.819,16.25 33.787,16.412 33.787,16.541C33.886,16.153 33.721,15.797 33.558,15.472C33.558,15.472 33.624,15.407 33.656,15.407C33.754,15.472 33.82,15.569 33.82,15.698C33.887,15.374 33.656,15.148 33.426,14.921C33.426,14.856 33.525,14.856 33.591,14.856C33.689,14.921 33.82,15.018 33.82,15.147C33.887,14.823 33.591,14.63 33.295,14.532C33.393,14.435 33.591,14.466 33.624,14.597C33.624,14.435 33.46,14.371 33.46,14.209C33.393,14.047 33.164,14.047 33.131,13.885C33.131,13.819 33.197,13.819 33.229,13.819C33.295,13.819 33.295,13.885 33.295,13.916C33.362,13.916 33.393,13.916 33.393,13.916C33.46,13.851 33.393,13.69 33.46,13.69C33.624,13.755 33.689,14.014 33.689,14.208C33.689,14.142 33.689,13.981 33.756,13.981C33.92,14.078 33.854,14.306 33.854,14.499C33.952,14.434 33.92,14.273 33.952,14.273C34.116,14.37 33.952,14.597 34.05,14.79C34.05,14.725 33.984,14.628 34.116,14.564C34.214,14.79 34.183,15.082 34.214,15.309C34.214,15.212 34.281,15.147 34.313,15.083C34.379,15.18 34.411,15.309 34.411,15.407C34.313,15.698 34.181,16.022 34.313,16.314C34.313,16.217 34.246,16.088 34.379,16.022C34.445,16.022 34.445,16.088 34.445,16.119C34.445,16.022 34.512,15.957 34.543,15.893C34.641,16.217 34.641,16.509 34.641,16.864C34.74,16.799 34.641,16.573 34.74,16.638C34.904,16.703 34.806,16.962 34.74,17.156C35.134,16.378 35.265,15.407 34.838,14.63C34.542,14.176 34.082,13.852 33.753,13.399C33.753,13.333 33.753,13.237 33.819,13.237C33.984,13.302 34.115,13.399 34.148,13.561C34.214,13.495 34.214,13.495 34.246,13.464C34.313,13.626 34.411,13.788 34.476,13.981C34.476,13.916 34.476,13.755 34.542,13.755C34.707,13.821 34.707,14.079 34.771,14.273C34.771,14.208 34.771,14.047 34.838,14.111C35.002,14.208 35.002,14.499 35.067,14.726C35.067,14.661 35.001,14.5 35.134,14.5C35.298,14.566 35.232,14.792 35.232,14.954C35.232,14.888 35.298,14.857 35.298,14.857C35.463,15.019 35.396,15.245 35.396,15.407C35.494,15.342 35.463,15.181 35.494,15.181C35.659,15.343 35.592,15.569 35.659,15.797C35.659,15.7 35.592,15.505 35.725,15.408C35.823,15.57 35.823,15.732 35.89,15.926C35.956,15.764 35.823,15.602 35.956,15.472C36.054,15.634 35.956,15.861 36.022,16.022C36.252,15.278 36.022,14.566 35.562,13.886C35.102,13.271 34.346,13.108 33.854,12.655C33.952,12.558 34.149,12.72 34.248,12.59C34.314,12.655 34.314,12.655 34.346,12.686C34.346,12.59 34.412,12.524 34.444,12.59C34.542,12.686 34.608,12.59 34.74,12.59C34.806,12.655 34.838,12.686 34.904,12.752C34.904,12.686 34.97,12.655 34.97,12.655C35.037,12.72 35.2,12.72 35.2,12.881C35.266,12.816 35.266,12.816 35.298,12.785C35.364,12.85 35.396,12.881 35.396,13.01C35.396,12.945 35.396,12.914 35.463,12.914C35.561,13.076 35.758,13.205 35.758,13.431C35.758,13.366 35.825,13.335 35.825,13.335C35.923,13.431 35.825,13.626 35.923,13.723C35.989,13.399 35.923,13.043 35.825,12.752C35.66,12.526 35.364,12.298 35.135,12.234C34.51,12.008 33.722,11.91 33.031,12.169C32.965,12.169 33.196,11.845 33.327,11.715C33.393,11.715 33.492,11.65 33.556,11.781C33.623,11.715 33.458,11.619 33.556,11.555C33.655,11.555 33.786,11.62 33.886,11.651C33.886,11.586 33.886,11.555 33.819,11.555C33.917,11.458 34.049,11.555 34.148,11.62C34.148,11.555 34.082,11.555 34.082,11.524C34.082,11.458 34.148,11.427 34.18,11.458C34.246,11.524 34.409,11.524 34.409,11.684C34.409,11.619 34.343,11.458 34.476,11.458C34.64,11.524 34.705,11.75 34.805,11.846C34.871,11.069 33.819,10.875 33.194,11.005C32.8,11.101 32.438,11.329 32.274,11.75C32.176,11.524 32.11,11.296 32.044,11.005C32.044,11.07 32.044,11.101 31.978,11.167C31.88,10.941 31.912,10.649 31.814,10.422C31.715,10.648 31.747,10.939 31.649,11.167C31.583,11.101 31.583,11.07 31.583,11.005C31.517,11.296 31.485,11.522 31.353,11.75C31.189,11.458 31.024,11.199 30.664,11.07C30.105,10.908 29.579,10.973 29.053,11.296C28.824,11.393 28.758,11.62 28.824,11.846C28.922,11.75 28.989,11.522 29.153,11.458C29.251,11.458 29.219,11.62 29.219,11.684C29.219,11.522 29.384,11.522 29.449,11.458C29.515,11.458 29.547,11.458 29.547,11.524L29.481,11.589C29.579,11.654 29.71,11.427 29.81,11.589L29.743,11.654C29.841,11.719 30.039,11.492 30.137,11.654C30.071,11.719 30.071,11.751 30.071,11.816C30.3,11.59 30.465,11.913 30.531,12.108C30.531,12.173 30.465,12.204 30.465,12.204C29.775,11.88 29.084,12.042 28.461,12.27C27.836,12.432 27.54,13.047 27.671,13.727C27.736,13.63 27.671,13.435 27.77,13.339Z" id="path_47"/><path fill="#020203ff" d="M37.266,31.145C36.806,30.983 36.346,30.757 36.116,30.368C36.018,30.206 36.183,29.818 36.281,29.85C36.906,30.239 37.662,30.076 37.825,29.397C37.923,28.944 37.595,28.49 37.135,28.393C36.741,28.328 36.281,28.49 35.985,28.847C35.689,29.171 35.689,29.624 35.46,29.98C34.671,29.235 33.85,28.523 33.061,27.778C36.018,24.961 40.257,23.893 44.332,23.795C40.093,23.017 35.525,24.086 32.271,26.904C30.727,25.771 29.084,24.735 27.178,24.217C24.812,23.472 22.412,23.31 20.079,23.764C24.122,23.86 28.361,24.962 31.351,27.747C30.562,28.491 29.741,29.204 28.951,29.948C28.722,29.624 28.722,29.171 28.426,28.816C28.197,28.589 27.966,28.491 27.67,28.362C27.145,28.265 26.685,28.524 26.585,29.042C26.519,29.43 26.75,29.819 27.11,30.013C27.439,30.109 27.8,29.947 28.096,29.85C28.26,29.785 28.425,30.174 28.325,30.368C28.096,30.756 27.636,30.983 27.175,31.145C26.88,30.757 26.386,30.628 25.959,30.854C25.565,31.145 25.434,31.632 25.663,32.052C25.761,32.278 25.992,32.376 26.222,32.44C27.307,32.537 28.226,31.923 29.015,31.308C29.344,31.858 29.936,32.278 30.559,32.376C31.084,32.442 31.709,32.214 31.808,31.632C31.875,31.243 31.644,30.854 31.283,30.661C30.987,30.564 30.725,30.595 30.429,30.726C30.133,30.823 30.264,31.341 30.035,31.341C29.871,31.341 29.51,31.115 29.641,30.953C30.331,29.95 31.285,29.367 32.172,28.589C33.026,29.367 34.111,29.95 34.702,31.017C34.769,31.083 34.473,31.341 34.309,31.341C34.079,31.407 34.242,31.115 34.144,30.953C34.046,30.727 33.815,30.662 33.586,30.629C33.125,30.533 32.665,30.855 32.567,31.309C32.501,31.535 32.567,31.762 32.665,31.924C33.454,32.928 34.834,32.086 35.36,31.309C36.215,31.988 37.364,32.7 38.45,32.28C38.843,32.118 39.008,31.535 38.745,31.147C38.418,30.627 37.595,30.627 37.266,31.145Z" id="path_48"/></svg>