<svg id="vector" xmlns="http://www.w3.org/2000/svg" width="40.0d" height="40.0d" viewBox="0 0 40.0 40.0"><defs><clipPath id="clip_path_0"><path d="M6.25,6.25h27.5v27.5h-27.5z"/></clipPath></defs><path fill="#ffffffff" d="M20,20m-19.75,0a19.75,19.75 0,1 1,39.5 0a19.75,19.75 0,1 1,-39.5 0" stroke="#e6e6e6ff" stroke-width="0.5" id="path_0"/><g id="g_0"><path fill="#998543ff" d="M18.696,19.784C18.696,19.784 18.006,18.708 18.528,18.087L21.812,14.945L26.998,19.901L18.494,28.015C18.494,28.015 11.119,27.965 7.381,22.505C7.381,22.505 4.535,18.104 9.806,14.24C9.806,14.24 13.022,12.14 15.026,11.972L15.076,12.19C12.163,12.761 9.822,14.727 9.822,14.727C4.939,18.658 8.829,22.471 8.829,22.471C12.331,26.066 18.174,26.319 18.174,26.319L24.944,19.834L21.778,16.827L18.713,19.767L18.696,19.784Z" clip-path="url(#clip_path_0)"/><path fill="#1a5632ff" d="M21.643,20.472C21.643,20.472 22.334,21.514 21.829,22.136L18.545,25.277L13.359,20.321L21.862,12.19C21.862,12.19 29.238,12.241 32.976,17.684C32.976,17.684 35.839,22.085 30.551,25.949C30.551,25.949 27.335,28.049 25.331,28.217L25.264,27.999C28.177,27.427 30.518,25.462 30.518,25.462C35.401,21.531 31.511,17.717 31.511,17.717C28.009,14.122 22.166,13.87 22.166,13.87L15.396,20.355L18.579,23.396L21.643,20.472Z"/><path fill="#1a5632ff" d="M21.492,18.053L18.495,20.96C18.495,20.96 18.141,21.682 18.663,22.572L21.391,19.901C21.391,19.901 22.166,18.977 21.492,18.053Z"/></g></svg>