<svg id="vector" xmlns="http://www.w3.org/2000/svg" width="64.0d" height="64.0d" viewBox="0 0 64.0 64.0"><path fill="#ffffffff" d="M32,32m-31.75,0a31.75,31.75 0,1 1,63.5 0a31.75,31.75 0,1 1,-63.5 0" stroke="#e6e6e6ff" stroke-width="0.5" id="path_0"/><path fill="#0e593bff" d="M49.159,46.821L46.134,48.444L49.307,51.685L36.713,49.963L41.548,45.02L49.159,46.821Z" id="path_1"/><path fill="#2b2624ff" d="M49.497,51.779L36.568,50.012L41.527,44.944L41.566,44.952L49.353,46.795L46.247,48.461L49.497,51.779ZM36.857,49.914L49.118,51.589L46.022,48.426L48.968,46.845L41.571,45.096L36.857,49.914Z" id="path_2"/><path fill="#2b2624ff" d="M36.78,49.939L43.44,48.785L38.283,48.402L36.78,49.939Z" id="path_3"/><path fill="#0e593bff" d="M14.458,46.76L17.482,48.385L14.308,51.626L26.905,49.902L22.069,44.963L14.458,46.76Z" id="path_4"/><path fill="#2b2624ff" d="M14.118,51.721L17.369,48.402L14.266,46.735L22.09,44.888L22.118,44.916L27.049,49.951L26.913,49.971L14.118,51.721ZM14.649,46.785L17.595,48.367L17.531,48.433L14.497,51.531L26.759,49.853L22.046,45.04L14.649,46.785Z" id="path_5"/><path fill="#2b2624ff" d="M26.835,49.879L20.177,48.729L25.335,48.344L26.835,49.879Z" id="path_6"/><path fill="#ffffffff" d="M31.832,13.01L10.982,34.232L31.832,55.539L52.771,34.232L31.832,13.01Z" id="path_7"/><path fill="#0e593bff" d="M31.831,55.835L10.694,34.231L26.687,17.952L37.185,18.144L37.244,18.204L53.06,34.231L52.917,34.374L31.831,55.835ZM11.271,34.231L31.831,55.245L52.482,34.231L37.01,18.553L26.858,18.368L11.271,34.231Z" id="path_8"/><path fill="#0e593bff" d="M31.811,36.016H32.064V31.571C32.064,31.571 32.69,31.63 32.69,32.446C32.69,32.446 33.072,32.141 32.82,31.368C32.82,31.368 33.276,31.342 33.446,32.127C33.446,32.127 33.685,31.575 33.446,30.85C33.446,30.85 33.733,30.804 33.976,31.301C33.976,31.301 33.984,30.779 33.668,30.453C33.668,30.453 34.035,30.41 34.318,30.703C34.318,30.703 34.156,30.138 33.61,29.776C33.61,29.776 33.888,29.521 34.31,29.776C34.31,29.776 34.157,29.296 33.234,29.252C33.234,29.252 33.429,29.011 33.757,29.062C33.757,29.062 33.243,28.737 32.582,28.828C32.582,28.828 32.713,28.435 33.178,28.361C33.178,28.361 32.566,28.155 31.915,28.818C31.915,28.818 31.821,28.442 31.761,28.381H31.742C31.682,28.443 31.588,28.818 31.588,28.818C30.937,28.155 30.323,28.361 30.323,28.361C30.787,28.434 30.919,28.828 30.919,28.828C30.257,28.737 29.745,29.062 29.745,29.062C30.07,29.011 30.267,29.252 30.267,29.252C29.346,29.296 29.19,29.776 29.19,29.776C29.613,29.521 29.89,29.776 29.89,29.776C29.346,30.137 29.184,30.703 29.184,30.703C29.469,30.412 29.835,30.453 29.835,30.453C29.517,30.78 29.523,31.301 29.523,31.301C29.768,30.804 30.053,30.85 30.053,30.85C29.818,31.575 30.053,32.127 30.053,32.127C30.222,31.342 30.679,31.368 30.679,31.368C30.425,32.142 30.809,32.446 30.809,32.446C30.809,31.63 31.438,31.571 31.438,31.571V36.016H31.688H31.811Z" id="path_9"/><path fill="#0e593bff" d="M26.324,36.094C26.324,36.094 28.259,34.325 31.819,36.787L33.269,37.809C33.592,37.05 33.986,37.34 34.214,37.577C34.214,37.577 33.835,38.018 33.835,38.185C33.835,38.185 34.148,38.698 34.635,38.39C34.92,38.296 35.15,39.002 34.524,39.167C34.524,39.167 34.04,39.041 33.58,38.74C33.58,38.74 32.93,39.479 32.565,38.945C32.382,38.571 32.957,38.336 32.957,38.336C32.957,38.336 30.684,35.763 26.324,36.094Z" id="path_10"/><path fill="#0e593bff" d="M37.387,36.094C37.387,36.094 35.452,34.325 31.892,36.787L30.443,37.809C30.118,37.05 29.728,37.34 29.496,37.577C29.496,37.577 29.876,38.018 29.876,38.185C29.876,38.185 29.564,38.698 29.077,38.39C28.793,38.296 28.562,39.002 29.186,39.167C29.186,39.167 29.673,39.041 30.133,38.74C30.133,38.74 30.781,39.479 31.148,38.945C31.332,38.571 30.756,38.336 30.756,38.336C30.756,38.336 33.029,35.763 37.387,36.094Z" id="path_11"/><path fill="#0e593bff" d="M17.785,44.016C17.785,44.016 32.817,40.824 45.739,44.016L43.478,48.821C43.478,48.821 29.428,47.403 19.994,48.821L17.785,44.016Z" id="path_12"/><path fill="#2b2624ff" d="M19.954,48.898L19.932,48.851L17.685,43.966L17.77,43.948C17.836,43.933 24.554,42.528 32.748,42.528C37.563,42.528 41.939,43.006 45.755,43.948L45.837,43.968L43.52,48.894L43.471,48.889C43.409,48.883 37.15,48.259 30.277,48.259C26.239,48.259 22.785,48.471 20.004,48.889L19.954,48.898ZM30.277,48.122C36.837,48.122 42.838,48.691 43.437,48.749L45.642,44.062C41.855,43.136 37.518,42.665 32.748,42.665C25.065,42.665 18.683,43.904 17.883,44.065L20.035,48.746C22.813,48.333 26.258,48.122 30.277,48.122Z" id="path_13"/><path fill="#0e593bff" d="M28.571,26.17C28.634,26.119 28.718,26.069 28.802,26.106C28.861,26.124 28.907,26.091 28.949,26.047C28.98,26.064 29.029,26.086 29.059,26.053C29.085,26.004 29.115,25.932 29.075,25.881C29.062,25.894 29.051,25.917 29.044,25.932C29.044,25.948 29.056,25.965 29.051,25.981L28.988,25.979C28.957,25.968 28.995,25.94 28.983,25.917H28.979C28.945,25.945 28.938,25.994 28.898,26.016C28.874,26.026 28.844,26.024 28.822,26.013C28.667,25.965 28.555,26.118 28.462,26.229C28.403,26.306 28.322,26.351 28.246,26.401C28.277,26.398 28.302,26.385 28.327,26.376C28.425,26.341 28.489,26.236 28.571,26.17Z" id="path_14"/><path fill="#0e593bff" d="M36.594,23.585C36.606,23.566 36.619,23.543 36.619,23.517H36.614L35.341,24.166L34.535,24.589L34.328,24.705C34.314,24.735 34.306,24.768 34.302,24.802C34.419,24.725 34.544,24.661 34.668,24.592L36.594,23.585Z" id="path_15"/><path fill="#0e593bff" d="M30.973,24.966C30.985,24.968 30.992,24.964 30.995,24.956C31,24.956 31.013,24.951 31.015,24.959C31.051,25.015 31.071,25.073 31.091,25.135C31.097,25.156 31.097,25.177 31.104,25.203C31.11,25.203 31.114,25.198 31.118,25.192C31.164,25.117 31.161,25.017 31.189,24.934C31.197,24.909 31.205,24.886 31.231,24.872C31.262,24.867 31.269,24.905 31.295,24.915C31.31,24.893 31.32,24.867 31.317,24.841C31.306,24.819 31.289,24.793 31.269,24.783C31.26,24.774 31.245,24.774 31.233,24.783C31.148,24.847 31.154,24.961 31.129,25.056L31.122,25.076C31.111,25.037 31.107,25.002 31.096,24.966C31.072,24.904 31.032,24.821 30.957,24.817C30.933,24.841 30.915,24.875 30.905,24.905C30.92,24.934 30.947,24.961 30.973,24.966Z" id="path_16"/><path fill="#0e593bff" d="M29.481,23.893C29.494,23.878 29.508,23.855 29.508,23.831H29.501L27.815,24.478C27.8,24.505 27.791,24.537 27.781,24.569L28.302,24.357L29.422,23.92L29.481,23.893Z" id="path_17"/><path fill="#0e593bff" d="M30.398,25.734L30.538,25.637L30.959,25.349C30.967,25.33 30.972,25.313 30.969,25.294H30.968L30.409,25.665C30.404,25.688 30.399,25.713 30.398,25.734Z" id="path_18"/><path fill="#0e593bff" d="M25.89,26.177L26.032,26.079L26.45,25.791C26.458,25.773 26.463,25.756 26.458,25.734H26.457L25.901,26.106C25.897,26.127 25.891,26.152 25.89,26.177Z" id="path_19"/><path fill="#0e593bff" d="M33.592,26.623L33.743,26.563L34.199,26.384C34.211,26.371 34.218,26.352 34.218,26.331H34.217L33.615,26.557C33.609,26.582 33.6,26.601 33.592,26.623Z" id="path_20"/><path fill="#0e593bff" d="M27.351,23.997C27.356,23.981 27.376,23.974 27.391,23.969C27.41,23.965 27.422,23.976 27.425,23.991C27.431,24.01 27.429,24.039 27.423,24.056C27.397,24.045 27.359,24.028 27.351,23.997ZM27.423,24.163C27.442,24.175 27.461,24.191 27.48,24.211C27.494,24.183 27.513,24.157 27.52,24.125C27.504,24.103 27.481,24.09 27.457,24.079C27.476,24.025 27.492,23.963 27.471,23.907C27.455,23.873 27.411,23.883 27.386,23.896C27.339,23.932 27.295,23.976 27.293,24.039C27.293,24.089 27.347,24.124 27.386,24.146C27.247,24.285 27.084,24.355 26.93,24.46L26.914,24.472C27.105,24.423 27.29,24.331 27.423,24.163Z" id="path_21"/><path fill="#0e593bff" d="M26.331,23.659C26.299,23.67 26.279,23.701 26.279,23.733C26.269,23.75 26.294,23.755 26.299,23.761C26.306,23.824 26.292,23.893 26.331,23.944C26.346,23.963 26.37,23.966 26.394,23.963C26.434,23.951 26.461,23.904 26.469,23.863C26.479,23.887 26.489,23.912 26.512,23.932C26.531,23.943 26.548,23.948 26.567,23.939C26.59,23.926 26.604,23.896 26.611,23.877C26.646,23.804 26.604,23.736 26.585,23.679C26.576,23.654 26.576,23.626 26.567,23.608C26.504,23.679 26.566,23.766 26.595,23.831C26.59,23.836 26.587,23.851 26.576,23.855C26.555,23.863 26.536,23.858 26.517,23.844C26.49,23.818 26.498,23.779 26.492,23.741C26.487,23.7 26.482,23.653 26.457,23.621C26.445,23.637 26.441,23.653 26.434,23.672C26.435,23.728 26.475,23.791 26.441,23.843C26.426,23.866 26.404,23.882 26.378,23.882C26.313,23.843 26.345,23.758 26.345,23.696C26.342,23.682 26.345,23.663 26.331,23.659Z" id="path_22"/><path fill="#0e593bff" d="M31.549,23.509C31.521,23.521 31.497,23.551 31.497,23.585C31.493,23.599 31.513,23.604 31.521,23.614C31.525,23.675 31.511,23.746 31.549,23.794C31.565,23.813 31.591,23.816 31.613,23.81C31.654,23.799 31.679,23.754 31.69,23.711C31.698,23.735 31.713,23.761 31.733,23.785C31.751,23.792 31.77,23.797 31.79,23.786C31.814,23.776 31.823,23.75 31.833,23.727C31.865,23.655 31.823,23.586 31.805,23.529C31.795,23.508 31.795,23.478 31.79,23.46C31.727,23.529 31.786,23.617 31.816,23.681C31.814,23.691 31.809,23.703 31.794,23.708C31.777,23.712 31.755,23.71 31.74,23.695C31.713,23.67 31.721,23.631 31.715,23.595C31.707,23.551 31.706,23.508 31.678,23.472C31.663,23.485 31.662,23.502 31.654,23.521C31.656,23.58 31.698,23.64 31.662,23.694C31.646,23.719 31.627,23.728 31.599,23.728C31.532,23.694 31.564,23.611 31.564,23.546C31.561,23.535 31.562,23.515 31.549,23.509Z" id="path_23"/><path fill="#0e593bff" d="M37.698,23.791C37.667,23.801 37.644,23.832 37.644,23.866C37.64,23.885 37.663,23.885 37.667,23.893C37.674,23.955 37.658,24.024 37.698,24.074C37.715,24.096 37.737,24.097 37.762,24.093C37.804,24.082 37.826,24.039 37.836,23.993C37.845,24.018 37.858,24.042 37.881,24.061C37.896,24.072 37.916,24.078 37.935,24.072C37.962,24.059 37.971,24.029 37.979,24.006C38.011,23.935 37.971,23.866 37.95,23.81C37.943,23.786 37.943,23.759 37.935,23.739C37.872,23.81 37.932,23.896 37.964,23.963C37.962,23.972 37.953,23.982 37.943,23.987C37.926,23.993 37.902,23.991 37.885,23.976C37.859,23.951 37.868,23.912 37.863,23.873C37.853,23.832 37.851,23.786 37.825,23.755C37.812,23.766 37.81,23.785 37.798,23.805C37.804,23.858 37.842,23.925 37.81,23.977C37.791,24.002 37.774,24.015 37.744,24.015C37.678,23.977 37.713,23.894 37.713,23.83C37.708,23.815 37.713,23.797 37.698,23.791Z" id="path_24"/><path fill="#0e593bff" d="M28.254,23.943L28.368,23.951C28.381,23.958 28.402,23.962 28.402,23.979C28.285,24.061 28.151,24.109 28.039,24.197C28.123,24.18 28.204,24.158 28.285,24.132C28.411,24.095 28.502,23.952 28.563,23.843C28.572,23.827 28.57,23.806 28.553,23.795C28.455,23.75 28.34,23.76 28.226,23.759C28.183,23.76 28.136,23.767 28.104,23.799C28.076,23.847 28.047,23.89 28.026,23.94L28.029,23.944L28.254,23.943Z" id="path_25"/><path fill="#0e593bff" d="M25.584,23.85L25.659,23.858C25.664,23.862 25.68,23.865 25.674,23.873C25.605,23.93 25.52,23.955 25.45,24.014C25.503,24 25.554,23.984 25.605,23.969C25.684,23.947 25.741,23.859 25.78,23.789C25.784,23.777 25.781,23.766 25.771,23.758C25.711,23.728 25.639,23.737 25.568,23.735C25.541,23.737 25.514,23.739 25.492,23.761C25.474,23.791 25.457,23.817 25.441,23.848L25.445,23.849L25.584,23.85Z" id="path_26"/><path fill="#0e593bff" d="M34.723,23.826L34.837,23.837C34.848,23.844 34.869,23.848 34.869,23.863C34.751,23.948 34.618,23.993 34.506,24.083C34.592,24.067 34.672,24.041 34.751,24.016C34.88,23.98 34.971,23.838 35.031,23.728C35.039,23.709 35.035,23.691 35.02,23.68C34.923,23.635 34.807,23.645 34.695,23.645C34.65,23.645 34.607,23.651 34.572,23.687C34.545,23.729 34.515,23.775 34.493,23.824L34.496,23.826H34.723Z" id="path_27"/><path fill="#0e593bff" d="M37.78,24.567C37.795,24.696 37.834,24.814 37.845,24.945C37.848,24.997 37.845,25.056 37.852,25.109C37.897,24.921 37.854,24.728 37.805,24.553C37.853,24.504 37.926,24.5 37.986,24.479L38.016,24.427C38.027,24.404 38.018,24.382 38.004,24.368C37.963,24.328 37.919,24.281 37.861,24.291C37.809,24.315 37.805,24.382 37.805,24.434C37.826,24.423 37.832,24.393 37.853,24.384C37.874,24.384 37.895,24.393 37.904,24.407L37.836,24.438C37.792,24.464 37.78,24.518 37.78,24.567Z" id="path_28"/><path fill="#0e593bff" d="M27.137,26.074C27.147,26.093 27.17,26.106 27.192,26.108C27.176,26.133 27.161,26.152 27.149,26.174C27.13,26.219 27.115,26.263 27.126,26.308C27.142,26.33 27.161,26.34 27.183,26.347C27.274,26.357 27.36,26.329 27.42,26.262C27.344,26.281 27.26,26.307 27.174,26.281C27.162,26.281 27.15,26.265 27.15,26.249C27.164,26.198 27.204,26.155 27.244,26.113C27.272,26.079 27.327,26.067 27.333,26.018C27.335,26.003 27.34,25.984 27.333,25.977C27.297,25.999 27.272,26.047 27.225,26.043C27.205,26.039 27.185,26.028 27.179,26.008L27.185,25.984C27.198,25.972 27.205,25.96 27.224,25.96C27.237,25.96 27.244,25.973 27.247,25.984C27.261,25.962 27.289,25.944 27.278,25.918C27.271,25.879 27.229,25.902 27.215,25.915C27.17,25.962 27.119,26.011 27.137,26.074Z" id="path_29"/><path fill="#0e593bff" d="M29.012,24.647C29.019,24.647 29.027,24.646 29.034,24.65C29.072,24.724 29.1,24.795 29.117,24.879L29.125,24.893C29.183,24.82 29.174,24.713 29.205,24.625C29.214,24.607 29.222,24.578 29.246,24.563C29.278,24.556 29.287,24.597 29.309,24.605C29.326,24.587 29.338,24.556 29.332,24.528C29.322,24.503 29.3,24.467 29.264,24.467C29.248,24.468 29.24,24.478 29.231,24.487C29.166,24.57 29.166,24.673 29.135,24.766C29.127,24.731 29.123,24.693 29.11,24.659C29.091,24.595 29.047,24.507 28.969,24.513C28.929,24.58 28.89,24.652 28.821,24.703C28.691,24.796 28.562,24.88 28.426,24.958L28.399,24.983H28.407C28.605,24.92 28.828,24.829 28.926,24.617C28.945,24.629 28.965,24.654 28.99,24.659C28.998,24.663 29.006,24.661 29.012,24.647Z" id="path_30"/><path fill="#0e593bff" d="M36.379,24.576C36.39,24.576 36.396,24.572 36.4,24.577C36.441,24.647 36.469,24.721 36.482,24.802C36.482,24.809 36.482,24.821 36.493,24.82C36.552,24.743 36.543,24.636 36.573,24.551C36.582,24.527 36.592,24.504 36.614,24.488C36.645,24.481 36.656,24.521 36.677,24.528C36.695,24.51 36.707,24.481 36.7,24.46C36.688,24.428 36.667,24.392 36.629,24.392C36.619,24.393 36.605,24.402 36.597,24.411C36.532,24.494 36.532,24.598 36.503,24.691C36.495,24.655 36.487,24.617 36.478,24.584C36.455,24.521 36.414,24.432 36.338,24.437C36.294,24.505 36.256,24.579 36.187,24.629C36.058,24.723 35.928,24.806 35.792,24.883L35.764,24.909H35.772C35.973,24.846 36.194,24.752 36.294,24.54C36.311,24.555 36.331,24.582 36.358,24.584C36.37,24.587 36.377,24.585 36.379,24.576Z" id="path_31"/><path fill="#0e593bff" d="M36.877,24.035L36.901,23.988C36.937,24.009 36.98,24.026 37.002,24.071C36.992,24.09 36.966,24.1 36.947,24.117C36.928,24.121 36.905,24.13 36.882,24.124C36.855,24.107 36.871,24.061 36.877,24.035ZM36.859,24.206C36.893,24.224 36.94,24.216 36.97,24.194C37.027,24.158 37.027,24.091 37.032,24.028C37.026,23.972 36.978,23.93 36.935,23.894L36.973,23.786C36.969,23.774 36.949,23.782 36.945,23.786C36.891,23.874 36.858,23.972 36.836,24.076C36.831,24.117 36.82,24.18 36.859,24.206Z" id="path_32"/><path fill="#0e593bff" d="M32.52,23.779C32.518,23.837 32.509,23.902 32.553,23.943C32.564,23.949 32.586,23.949 32.599,23.945C32.649,23.91 32.659,23.845 32.666,23.786C32.646,23.814 32.633,23.866 32.59,23.858C32.564,23.85 32.558,23.818 32.556,23.794C32.556,23.694 32.596,23.607 32.617,23.521C32.567,23.598 32.534,23.682 32.52,23.779Z" id="path_33"/><path fill="#0e593bff" d="M31.418,25.422C31.415,25.476 31.404,25.545 31.45,25.584C31.462,25.593 31.485,25.593 31.497,25.586C31.548,25.551 31.559,25.487 31.563,25.432C31.544,25.456 31.531,25.509 31.486,25.502C31.462,25.492 31.456,25.464 31.452,25.437C31.452,25.34 31.491,25.25 31.511,25.164C31.464,25.241 31.431,25.327 31.418,25.422Z" id="path_34"/><path fill="#0e593bff" d="M38.7,26.365C38.698,26.421 38.691,26.487 38.734,26.526C38.747,26.534 38.768,26.534 38.783,26.528C38.833,26.494 38.844,26.428 38.848,26.374C38.827,26.399 38.813,26.45 38.77,26.444C38.746,26.433 38.738,26.402 38.736,26.376C38.736,26.279 38.775,26.19 38.799,26.104C38.748,26.184 38.714,26.266 38.7,26.365Z" id="path_35"/><path fill="#0e593bff" d="M29.458,26.2C29.457,26.258 29.444,26.322 29.491,26.362C29.503,26.369 29.523,26.369 29.538,26.364C29.586,26.328 29.597,26.264 29.602,26.209C29.586,26.233 29.571,26.286 29.525,26.28C29.502,26.269 29.495,26.239 29.491,26.214C29.491,26.114 29.532,26.025 29.552,25.939C29.504,26.021 29.471,26.105 29.458,26.2Z" id="path_36"/><path fill="#0e593bff" d="M33.605,24.595C33.603,24.649 33.595,24.716 33.639,24.755C33.652,24.764 33.673,24.764 33.688,24.756C33.736,24.723 33.747,24.657 33.752,24.602C33.733,24.63 33.718,24.68 33.675,24.673C33.651,24.664 33.646,24.635 33.641,24.607C33.641,24.51 33.679,24.422 33.702,24.333C33.652,24.412 33.62,24.499 33.605,24.595Z" id="path_37"/><path fill="#0e593bff" d="M30.36,26.294C30.359,26.367 30.346,26.447 30.402,26.495C30.417,26.506 30.443,26.506 30.462,26.502C30.524,26.454 30.538,26.375 30.544,26.305C30.521,26.338 30.501,26.406 30.446,26.394C30.416,26.385 30.407,26.343 30.405,26.313C30.405,26.187 30.453,26.08 30.482,25.972C30.42,26.068 30.379,26.174 30.36,26.294Z" id="path_38"/><path fill="#0e593bff" d="M27.734,26.411C27.731,26.481 27.721,26.563 27.775,26.611C27.788,26.622 27.816,26.622 27.835,26.615C27.895,26.573 27.909,26.491 27.917,26.42C27.893,26.454 27.876,26.52 27.82,26.511C27.789,26.5 27.781,26.46 27.78,26.427C27.78,26.307 27.827,26.196 27.857,26.087C27.792,26.185 27.75,26.291 27.734,26.411Z" id="path_39"/><path fill="#0e593bff" d="M24.748,26.29C24.746,26.36 24.735,26.441 24.791,26.492C24.802,26.501 24.83,26.501 24.849,26.495C24.912,26.45 24.925,26.371 24.931,26.299C24.907,26.331 24.89,26.4 24.834,26.391C24.802,26.377 24.798,26.34 24.794,26.307C24.794,26.184 24.842,26.075 24.869,25.964C24.807,26.065 24.768,26.168 24.748,26.29Z" id="path_40"/><path fill="#0e593bff" d="M25.785,24.399C25.781,24.467 25.771,24.549 25.825,24.598C25.84,24.61 25.867,24.61 25.885,24.602C25.949,24.56 25.962,24.479 25.969,24.407C25.943,24.439 25.928,24.505 25.872,24.496C25.84,24.486 25.834,24.447 25.831,24.415C25.831,24.29 25.877,24.181 25.906,24.073C25.844,24.173 25.802,24.278 25.785,24.399Z" id="path_41"/><path fill="#0e593bff" d="M36.352,26.407C36.349,26.461 36.341,26.518 36.382,26.558C36.393,26.566 36.413,26.566 36.427,26.56C36.471,26.528 36.484,26.469 36.489,26.416C36.47,26.436 36.457,26.49 36.416,26.481C36.394,26.473 36.388,26.445 36.383,26.42C36.383,26.328 36.421,26.248 36.441,26.165C36.397,26.24 36.364,26.318 36.352,26.407Z" id="path_42"/><path fill="#0e593bff" d="M26.849,23.994C26.848,24.045 26.839,24.107 26.882,24.143C26.892,24.153 26.913,24.153 26.927,24.147C26.971,24.117 26.982,24.055 26.988,24.001C26.969,24.026 26.954,24.075 26.915,24.067C26.892,24.059 26.887,24.029 26.885,24.007C26.885,23.917 26.92,23.833 26.941,23.751C26.894,23.824 26.862,23.902 26.849,23.994Z" id="path_43"/><path fill="#0e593bff" d="M33.834,23.805C33.844,23.779 33.866,23.759 33.887,23.746C33.908,23.741 33.92,23.762 33.922,23.776C33.927,23.797 33.929,23.824 33.926,23.844C33.89,23.837 33.851,23.837 33.834,23.805ZM33.966,23.762C34.009,23.776 34.051,23.819 34.056,23.866C34.023,23.866 33.99,23.855 33.957,23.85C33.962,23.824 33.966,23.792 33.966,23.762ZM33.935,23.925L34.046,23.938C34.075,23.921 34.082,23.889 34.094,23.861C34.118,23.798 34.07,23.758 34.037,23.714C33.986,23.672 33.941,23.628 33.873,23.625C33.852,23.629 33.838,23.643 33.826,23.659C33.819,23.681 33.822,23.714 33.828,23.732C33.807,23.775 33.791,23.831 33.815,23.877C33.835,23.904 33.866,23.912 33.891,23.921C33.759,24.046 33.603,24.117 33.457,24.213L33.429,24.235H33.44C33.621,24.179 33.805,24.097 33.935,23.925Z" id="path_44"/><path fill="#0e593bff" d="M25.015,23.91C25.025,23.885 25.05,23.863 25.072,23.851C25.092,23.85 25.103,23.867 25.106,23.883C25.11,23.902 25.113,23.93 25.108,23.949C25.073,23.944 25.032,23.946 25.015,23.91ZM25.149,23.867C25.191,23.883 25.231,23.925 25.241,23.969C25.209,23.969 25.173,23.963 25.142,23.955C25.147,23.93 25.149,23.893 25.149,23.867ZM25.114,24.03L25.229,24.042C25.257,24.026 25.265,23.996 25.275,23.966C25.301,23.908 25.25,23.866 25.216,23.818C25.166,23.777 25.122,23.736 25.054,23.728C25.035,23.736 25.018,23.75 25.007,23.765C24.999,23.789 25.001,23.818 25.011,23.839C24.989,23.883 24.972,23.94 24.995,23.982C25.014,24.009 25.045,24.016 25.072,24.026C24.939,24.155 24.782,24.222 24.637,24.317L24.609,24.342H24.618C24.803,24.286 24.986,24.198 25.114,24.03Z" id="path_45"/><path fill="#0e593bff" d="M31.959,26.539C32.003,26.515 32.045,26.48 32.078,26.44C32.117,26.383 32.167,26.309 32.13,26.233C32.117,26.218 32.093,26.218 32.071,26.218C32.025,26.228 32.009,26.28 32.004,26.321L32.007,26.325C32.026,26.313 32.048,26.298 32.071,26.306C32.093,26.313 32.098,26.337 32.092,26.357C32.065,26.426 32.006,26.48 31.959,26.539Z" id="path_46"/><path fill="#0e593bff" d="M32.167,25.46C32.275,25.446 32.397,25.447 32.487,25.497L32.32,25.582C32.275,25.534 32.221,25.496 32.167,25.46ZM32.913,23.933L32.917,23.93L32.944,23.962C32.963,23.979 32.978,24.003 33,24L33.004,23.984C32.966,23.844 32.913,23.708 32.861,23.577C32.857,23.56 32.85,23.543 32.836,23.541C32.809,23.598 32.788,23.658 32.773,23.718C32.797,23.777 32.808,23.844 32.801,23.914L32.861,24.783L32.903,25.497C32.907,25.559 32.908,25.627 32.89,25.685C32.848,25.729 32.793,25.757 32.736,25.77C32.627,25.773 32.52,25.765 32.442,25.695C32.519,25.651 32.596,25.614 32.677,25.578L32.751,25.453C32.772,25.43 32.745,25.403 32.728,25.39C32.664,25.346 32.597,25.324 32.524,25.296C32.32,25.232 32.081,25.268 31.89,25.333C31.814,25.364 31.817,25.451 31.781,25.508C31.78,25.519 31.768,25.533 31.78,25.55C31.812,25.543 31.838,25.519 31.876,25.523C31.992,25.504 32.074,25.586 32.154,25.666C31.94,25.762 31.727,25.839 31.523,25.953C31.361,26.031 31.238,26.195 31.126,26.336C31.037,26.419 30.934,26.493 30.815,26.457C30.763,26.432 30.735,26.374 30.729,26.317C30.722,26.153 30.797,26.014 30.84,25.867C30.847,25.842 30.863,25.812 30.855,25.784L30.835,25.811C30.758,25.972 30.681,26.132 30.681,26.324C30.686,26.445 30.753,26.573 30.869,26.614C30.957,26.643 31.042,26.603 31.105,26.544C31.236,26.407 31.358,26.241 31.512,26.142C31.754,26 32.025,25.915 32.271,25.782C32.367,25.862 32.461,25.961 32.59,25.966C32.696,25.982 32.802,25.972 32.87,25.875C32.985,25.719 33.008,25.523 33.004,25.316L32.913,23.933Z" id="path_47"/><path fill="#0e593bff" d="M30.125,23.946L30.13,23.933C30.14,23.946 30.148,23.955 30.162,23.968C30.175,23.984 30.192,24.01 30.214,24.004C30.224,23.982 30.212,23.962 30.209,23.944L30.075,23.577C30.065,23.566 30.069,23.546 30.052,23.546C30.021,23.603 29.996,23.663 29.987,23.728C30.012,23.785 30.02,23.85 30.02,23.92L30.143,25.838L30.147,26.033C30.151,26.113 30.136,26.187 30.139,26.268H30.144C30.229,26.114 30.251,25.927 30.244,25.736L30.125,23.946Z" id="path_48"/><path fill="#0e593bff" d="M39.211,25.324L39.114,24.035L39.108,23.939C39.119,23.933 39.128,23.955 39.137,23.964C39.156,23.981 39.171,24.009 39.199,24.006C39.205,23.981 39.195,23.955 39.188,23.933L39.064,23.595C39.053,23.581 39.053,23.555 39.034,23.549C39.014,23.581 39.002,23.618 38.991,23.651C38.981,23.679 38.966,23.709 38.972,23.739C39,23.795 39,23.863 39,23.931L39.111,25.498C39.117,25.601 39.117,25.718 39.101,25.822C39.101,25.841 39.097,25.865 39.108,25.879L39.111,25.878C39.198,25.712 39.222,25.52 39.211,25.324Z" id="path_49"/><path fill="#0e593bff" d="M38.885,25.667C38.819,25.674 38.753,25.651 38.716,25.593C38.776,25.577 38.865,25.574 38.901,25.637C38.906,25.65 38.898,25.667 38.885,25.667ZM38.353,26.046C38.355,26.05 38.355,26.068 38.345,26.068C38.247,26.08 38.17,26.006 38.117,25.932C38.113,25.921 38.121,25.918 38.121,25.918C38.214,25.927 38.305,25.959 38.353,26.046ZM38.719,25.401C38.692,25.41 38.661,25.422 38.634,25.428C38.58,25.232 38.567,25.02 38.548,24.811L38.513,24.212L38.505,23.964L38.513,23.957C38.523,23.971 38.534,23.981 38.542,23.993C38.562,24.006 38.575,24.029 38.598,24.028C38.606,24.006 38.596,23.987 38.594,23.971C38.543,23.837 38.5,23.697 38.442,23.57L38.434,23.568C38.404,23.623 38.38,23.685 38.37,23.749C38.401,23.817 38.401,23.895 38.401,23.978C38.412,24.488 38.445,24.996 38.535,25.475L38.178,25.65C38.136,25.681 38.073,25.704 38.067,25.763C38.053,25.75 38.041,25.759 38.033,25.765C37.96,25.889 37.87,26.053 37.717,26.079C37.658,26.088 37.583,26.088 37.544,26.032C37.488,25.941 37.48,25.826 37.473,25.713L37.455,24.666C37.446,24.305 37.408,23.959 37.318,23.636C37.312,23.624 37.312,23.607 37.299,23.607C37.272,23.664 37.264,23.732 37.255,23.795L37.319,24.236C37.347,24.46 37.353,25.198 37.358,25.422C37.362,25.578 37.372,25.75 37.347,25.896C37.331,25.985 37.261,26.072 37.178,26.094C37.098,26.121 36.986,26.136 36.91,26.089C36.875,26.062 36.866,26.014 36.866,25.969L37.127,25.933L37.157,25.907C37.185,25.862 37.204,25.814 37.219,25.763C37.231,25.666 37.2,25.575 37.132,25.504C36.929,25.312 36.617,25.324 36.345,25.353L35.486,25.453C35.23,25.475 34.97,25.51 34.707,25.476C34.626,25.466 34.547,25.46 34.486,25.404C34.465,25.385 34.487,25.365 34.499,25.35C34.746,25.083 35.019,24.857 35.336,24.75C35.395,24.729 35.441,24.767 35.47,24.809L35.483,24.802C35.514,24.735 35.566,24.661 35.526,24.589C35.507,24.566 35.483,24.557 35.454,24.555C35.311,24.552 35.199,24.63 35.079,24.697C34.859,24.846 34.598,25.019 34.459,25.27C34.418,25.358 34.374,25.454 34.398,25.559C34.42,25.616 34.477,25.643 34.525,25.66C34.662,25.692 34.818,25.689 34.968,25.687L36.161,25.568L36.558,25.532C36.767,25.532 36.986,25.536 37.104,25.733C37.106,25.743 37.117,25.757 37.104,25.761L36.857,25.787L35.882,25.915L35.233,25.995C35.041,26.01 34.85,26.034 34.654,26.022C34.486,26.015 34.309,26.015 34.157,25.962C34.017,25.895 34.009,25.727 33.887,25.636C33.844,25.614 33.792,25.636 33.758,25.661C33.575,25.794 33.524,26 33.437,26.176C33.415,26.223 33.392,26.266 33.353,26.304C33.326,26.34 33.275,26.35 33.232,26.339C33.175,26.321 33.136,26.262 33.117,26.212C33.07,26.052 33.075,25.861 33.098,25.691C33.098,25.678 33.102,25.659 33.09,25.649C33.07,25.673 33.068,25.703 33.06,25.729C33.023,25.889 33.014,26.092 33.067,26.25C33.102,26.351 33.153,26.5 33.286,26.505C33.338,26.505 33.38,26.468 33.409,26.422C33.487,26.308 33.52,26.173 33.578,26.052C33.63,25.963 33.701,25.849 33.809,25.83C33.839,25.82 33.863,25.836 33.883,25.858C33.957,25.967 34.017,26.124 34.158,26.163C34.327,26.222 34.522,26.22 34.713,26.225C34.937,26.225 35.146,26.195 35.362,26.172L36.814,25.974C36.803,26.079 36.798,26.21 36.892,26.281C36.982,26.34 37.119,26.325 37.208,26.27C37.335,26.2 37.386,26.064 37.395,25.932C37.408,26.016 37.414,26.1 37.457,26.173C37.511,26.267 37.617,26.297 37.719,26.282C37.861,26.253 37.95,26.096 37.998,25.975C38.01,26.011 38.025,26.049 38.042,26.083C38.108,26.184 38.209,26.286 38.335,26.277C38.416,26.253 38.468,26.165 38.487,26.092C38.506,25.955 38.445,25.838 38.335,25.759C38.412,25.72 38.499,25.69 38.579,25.649C38.63,25.75 38.73,25.871 38.855,25.871C38.902,25.874 38.946,25.845 38.966,25.804C39.026,25.703 39.019,25.545 38.956,25.453C38.906,25.364 38.794,25.387 38.719,25.401Z" id="path_50"/><path fill="#0e593bff" d="M33.187,23.993L33.297,25.555C33.301,25.666 33.301,25.777 33.288,25.881C33.288,25.905 33.283,25.923 33.292,25.94H33.299C33.385,25.773 33.407,25.581 33.397,25.384L33.299,24.095L33.297,23.999C33.305,23.999 33.312,24.017 33.322,24.024C33.342,24.04 33.361,24.069 33.384,24.069C33.388,24.04 33.38,24.016 33.374,23.991L33.249,23.655C33.238,23.642 33.238,23.616 33.217,23.608C33.198,23.642 33.188,23.677 33.173,23.709C33.17,23.739 33.152,23.768 33.155,23.797C33.183,23.855 33.187,23.925 33.187,23.993Z" id="path_51"/><path fill="#0e593bff" d="M30.587,23.621L30.579,23.623C30.555,23.674 30.532,23.726 30.511,23.777L30.671,23.888C30.704,23.855 30.716,23.813 30.736,23.773L30.878,23.873C30.882,23.878 30.894,23.884 30.901,23.873C30.925,23.824 30.96,23.778 30.97,23.723C30.916,23.679 30.863,23.641 30.806,23.612C30.782,23.65 30.767,23.692 30.744,23.73C30.694,23.688 30.643,23.65 30.587,23.621Z" id="path_52"/><path fill="#0e593bff" d="M30.937,24.439C30.99,24.341 31.071,24.205 31.196,24.193C31.218,24.193 31.239,24.212 31.253,24.227L31.362,24.407C31.433,24.509 31.543,24.529 31.661,24.526C31.813,24.521 31.941,24.407 32.021,24.284L32.034,24.346C32.056,24.425 32.136,24.488 32.216,24.493C32.301,24.509 32.374,24.461 32.414,24.39C32.485,24.263 32.496,24.072 32.423,23.948C32.417,23.934 32.41,23.903 32.388,23.921L32.347,24.072C32.341,24.134 32.404,24.176 32.405,24.236C32.386,24.26 32.361,24.278 32.337,24.284C32.263,24.298 32.174,24.309 32.122,24.245C32.085,24.197 32.102,24.131 32.115,24.072C32.115,24.072 32.115,24.056 32.102,24.056C32.044,24.103 31.999,24.165 31.948,24.221C31.834,24.326 31.66,24.348 31.513,24.299C31.392,24.24 31.368,24.102 31.276,24.014C31.241,23.981 31.18,23.999 31.144,24.019C30.944,24.151 30.891,24.372 30.799,24.561L30.751,24.643C30.718,24.691 30.67,24.722 30.617,24.709C30.567,24.7 30.517,24.655 30.5,24.606C30.437,24.461 30.443,24.261 30.464,24.096C30.464,24.07 30.477,24.04 30.461,24.017C30.456,24.017 30.454,24.024 30.45,24.027C30.393,24.203 30.381,24.431 30.436,24.614C30.47,24.708 30.504,24.823 30.613,24.867C30.656,24.885 30.705,24.867 30.737,24.835C30.842,24.722 30.877,24.576 30.937,24.439Z" id="path_53"/><path fill="#0e593bff" d="M26.36,24.231C26.371,24.231 26.388,24.231 26.391,24.216C26.388,24.205 26.377,24.197 26.369,24.19L26.134,24.075C26.123,24.072 26.105,24.052 26.091,24.067L26.09,24.216C26.087,24.257 26.12,24.272 26.145,24.29L26.245,24.407C26.352,24.526 26.48,24.595 26.609,24.654C26.706,24.71 26.811,24.746 26.885,24.836C26.898,24.893 26.827,24.919 26.796,24.951C26.605,25.083 26.413,25.216 26.217,25.329C26.118,25.374 26.016,25.451 25.9,25.407C25.853,25.382 25.823,25.333 25.818,25.28C25.81,25.151 25.848,25.028 25.877,24.912C25.879,24.893 25.891,24.88 25.879,24.866L25.871,24.868C25.819,24.979 25.788,25.098 25.771,25.225C25.765,25.357 25.749,25.514 25.862,25.596C25.954,25.648 26.062,25.604 26.145,25.561C26.374,25.429 26.595,25.273 26.811,25.105C26.893,25.05 26.916,24.963 26.93,24.88C26.942,24.756 26.928,24.629 26.817,24.562C26.634,24.454 26.431,24.399 26.27,24.234L26.36,24.231Z" id="path_54"/><path fill="#0e593bff" d="M32.179,24.572L32.111,24.71L32.104,24.729L32.263,24.838L32.272,24.833L32.325,24.74C32.332,24.718 32.356,24.69 32.332,24.669C32.282,24.63 32.234,24.596 32.179,24.572Z" id="path_55"/><path fill="#0e593bff" d="M24.649,24.735L24.787,24.835C24.794,24.839 24.803,24.848 24.81,24.835C24.837,24.786 24.872,24.744 24.88,24.684C24.826,24.643 24.774,24.602 24.716,24.577C24.69,24.611 24.678,24.655 24.656,24.695C24.607,24.653 24.552,24.614 24.501,24.585L24.494,24.588C24.468,24.639 24.442,24.691 24.423,24.74L24.583,24.854C24.615,24.821 24.628,24.775 24.649,24.735Z" id="path_56"/><path fill="#0e593bff" d="M25.089,25.066L25.069,24.993L25.365,24.722C25.378,24.712 25.391,24.697 25.407,24.697V24.713L25.38,24.767C25.285,24.868 25.19,24.971 25.089,25.066ZM24.874,25.625C24.822,25.634 24.754,25.649 24.702,25.619C24.689,25.601 24.706,25.587 24.715,25.572C24.795,25.456 24.91,25.365 25.013,25.264C25.03,25.335 25.052,25.405 25.057,25.483C25.036,25.565 24.942,25.593 24.874,25.625ZM25.568,25.446C25.546,25.496 25.532,25.551 25.534,25.607C25.558,25.656 25.589,25.703 25.612,25.753C25.616,25.771 25.628,25.791 25.616,25.807C25.583,25.871 25.512,25.884 25.445,25.876C25.331,25.845 25.245,25.725 25.211,25.618L25.113,25.169C25.239,25.045 25.366,24.918 25.445,24.774C25.469,24.728 25.5,24.672 25.482,24.617C25.456,24.581 25.409,24.602 25.378,24.617C25.259,24.696 25.152,24.821 25.038,24.92L24.999,24.835C24.989,24.815 24.983,24.786 24.962,24.771C24.936,24.835 24.919,24.9 24.91,24.964L24.932,25.021C24.791,25.142 24.647,25.25 24.499,25.346C24.469,25.368 24.433,25.388 24.41,25.423C24.429,25.419 24.446,25.416 24.46,25.41C24.638,25.332 24.802,25.222 24.959,25.094L24.984,25.164C24.862,25.283 24.706,25.399 24.652,25.553C24.628,25.628 24.607,25.727 24.639,25.804C24.652,25.828 24.677,25.838 24.702,25.841C24.817,25.846 24.913,25.799 25.006,25.732C25.068,25.684 25.079,25.607 25.098,25.535C25.126,25.718 25.164,25.892 25.305,26.024C25.371,26.075 25.462,26.1 25.544,26.069C25.626,26.021 25.664,25.933 25.677,25.845C25.693,25.697 25.677,25.552 25.588,25.442C25.581,25.431 25.57,25.437 25.568,25.446Z" id="path_57"/><path fill="#0e593bff" d="M31.513,24.646L31.509,24.653C31.484,24.7 31.458,24.752 31.439,24.805L31.6,24.916C31.63,24.881 31.644,24.835 31.662,24.797L31.804,24.895C31.804,24.895 31.822,24.908 31.825,24.899C31.855,24.851 31.888,24.805 31.896,24.75C31.842,24.704 31.792,24.664 31.733,24.639C31.708,24.675 31.694,24.718 31.672,24.756C31.621,24.716 31.569,24.677 31.513,24.646Z" id="path_58"/><path fill="#0e593bff" d="M33.825,25.122L33.966,25.223C33.97,25.23 33.982,25.234 33.985,25.223C34.015,25.175 34.05,25.132 34.056,25.077C34.003,25.036 33.952,24.993 33.892,24.963C33.866,25.001 33.854,25.042 33.833,25.08C33.783,25.04 33.731,25.002 33.676,24.974L33.67,24.978C33.646,25.03 33.619,25.079 33.599,25.132L33.758,25.244C33.79,25.212 33.805,25.165 33.825,25.122Z" id="path_59"/><path fill="#0e593bff" d="M27.435,25.4C27.389,25.353 27.333,25.313 27.278,25.275C27.389,25.263 27.51,25.263 27.601,25.318L27.435,25.4ZM26.628,25.614C26.606,25.604 26.601,25.577 26.609,25.555C26.633,25.524 26.683,25.524 26.718,25.533C26.757,25.55 26.792,25.584 26.818,25.624C26.761,25.634 26.682,25.641 26.628,25.614ZM29.801,23.929L29.672,23.581C29.662,23.557 29.659,23.535 29.636,23.522C29.612,23.577 29.586,23.639 29.574,23.703C29.601,23.76 29.604,23.818 29.604,23.884L29.687,25.177V25.327C29.681,25.359 29.683,25.394 29.659,25.418C29.607,25.46 29.549,25.492 29.479,25.49C29.434,25.492 29.4,25.473 29.366,25.442C29.33,25.401 29.328,25.336 29.336,25.277C29.333,25.269 29.333,25.26 29.323,25.26C29.307,25.26 29.301,25.277 29.295,25.287C29.245,25.378 29.176,25.49 29.076,25.516C29.022,25.531 28.962,25.524 28.928,25.476C28.898,25.437 28.872,25.378 28.903,25.331C28.906,25.319 28.919,25.297 28.903,25.287C28.829,25.346 28.777,25.427 28.701,25.483C28.613,25.552 28.471,25.579 28.369,25.524C28.323,25.502 28.297,25.454 28.3,25.401C28.3,25.368 28.318,25.34 28.314,25.313C28.305,25.3 28.296,25.306 28.284,25.309C28.175,25.398 28.088,25.531 27.958,25.57C27.827,25.605 27.66,25.605 27.555,25.511C27.632,25.472 27.71,25.432 27.792,25.4L27.863,25.268L27.873,25.241C27.861,25.222 27.839,25.207 27.82,25.198C27.755,25.156 27.683,25.133 27.608,25.107C27.413,25.056 27.187,25.092 27.006,25.153C26.93,25.177 26.932,25.268 26.898,25.327C26.892,25.34 26.885,25.354 26.892,25.368C26.923,25.365 26.953,25.34 26.989,25.34C27.106,25.324 27.189,25.405 27.267,25.489C27.174,25.526 27.078,25.571 26.983,25.601C26.958,25.552 26.932,25.501 26.897,25.46C26.842,25.398 26.78,25.327 26.694,25.351C26.606,25.384 26.539,25.477 26.514,25.563C26.499,25.634 26.492,25.732 26.563,25.778C26.66,25.838 26.799,25.823 26.908,25.8C26.912,25.822 26.918,25.845 26.918,25.865C26.916,25.906 26.886,25.933 26.861,25.963C26.733,26.107 26.591,26.225 26.439,26.314C26.295,26.409 26.07,26.489 25.906,26.371C25.736,26.227 25.837,25.969 25.876,25.796C25.876,25.784 25.885,25.765 25.875,25.76L25.85,25.801C25.769,26.016 25.692,26.342 25.866,26.537C25.95,26.637 26.087,26.647 26.206,26.618C26.459,26.537 26.664,26.346 26.856,26.136C26.941,26.037 26.983,25.916 26.997,25.783C27.126,25.727 27.257,25.672 27.386,25.603C27.433,25.645 27.483,25.686 27.53,25.721C27.622,25.799 27.746,25.796 27.858,25.791C28.005,25.772 28.116,25.645 28.212,25.532C28.222,25.526 28.236,25.513 28.242,25.528C28.247,25.573 28.251,25.622 28.27,25.662C28.292,25.715 28.347,25.746 28.397,25.752C28.578,25.787 28.72,25.643 28.819,25.503C28.829,25.591 28.86,25.695 28.952,25.719C29.039,25.738 29.114,25.714 29.168,25.645C29.212,25.599 29.23,25.542 29.258,25.491C29.271,25.512 29.282,25.544 29.299,25.572C29.33,25.643 29.4,25.699 29.479,25.695C29.537,25.695 29.581,25.669 29.621,25.632C29.773,25.47 29.791,25.243 29.785,25.011L29.712,23.92L29.716,23.913L29.773,23.972C29.781,23.975 29.791,23.992 29.804,23.981C29.808,23.962 29.804,23.944 29.801,23.929Z" id="path_60"/><path fill="#0e593bff" d="M25.358,26.406C25.307,26.364 25.254,26.326 25.201,26.297L25.193,26.301C25.171,26.352 25.142,26.402 25.124,26.45L25.282,26.565C25.313,26.531 25.329,26.487 25.348,26.447L25.489,26.547C25.496,26.551 25.507,26.561 25.512,26.547C25.536,26.501 25.57,26.455 25.577,26.4C25.528,26.355 25.476,26.313 25.414,26.287C25.389,26.322 25.376,26.371 25.358,26.406Z" id="path_61"/><path fill="#0e593bff" d="M26.604,40.313C26.63,40.33 26.788,40.419 26.81,40.419C26.833,40.419 26.941,40.28 26.958,40.249L26.748,40.135C26.733,40.152 26.631,40.244 26.618,40.244C26.59,40.244 26.46,40.159 26.43,40.135C26.379,40.188 26.327,40.244 26.283,40.306C26.35,40.352 26.414,40.392 26.49,40.415C26.525,40.382 26.566,40.338 26.604,40.313Z" id="path_62"/><path fill="#0e593bff" d="M28.405,39.775C28.313,39.84 27.506,40.188 27.503,40.306C27.605,40.23 28.39,39.904 28.405,39.775Z" id="path_63"/><path fill="#0e593bff" d="M28.111,40.113C28.065,40.144 28.048,40.212 28.048,40.265C28.048,40.309 28.051,40.336 28.098,40.336C28.149,40.336 28.187,40.302 28.217,40.265C28.23,40.269 28.242,40.276 28.254,40.276C28.351,40.276 28.363,40.121 28.362,40.049V40.015C28.303,40.062 28.316,40.103 28.305,40.164C28.305,40.172 28.304,40.174 28.295,40.174C28.259,40.174 28.238,40.174 28.238,40.132L28.241,40.091C28.185,40.113 28.2,40.235 28.126,40.235C28.107,40.235 28.103,40.224 28.103,40.207C28.103,40.182 28.122,40.156 28.122,40.129C28.123,40.13 28.118,40.114 28.111,40.113Z" id="path_64"/><path fill="#0e593bff" d="M28.301,41.648C28.269,41.648 28.156,41.563 28.125,41.537C28.091,41.579 28,41.674 27.985,41.715C28.044,41.764 28.113,41.802 28.185,41.828C28.213,41.792 28.251,41.749 28.286,41.725C28.312,41.74 28.454,41.834 28.476,41.834C28.5,41.834 28.594,41.69 28.621,41.661L28.415,41.532L28.301,41.648Z" id="path_65"/><path fill="#0e593bff" d="M29.686,41.996C29.786,41.929 30.076,41.76 30.089,41.646C29.975,41.728 29.831,41.802 29.728,41.896C29.706,41.916 29.686,41.967 29.686,41.996Z" id="path_66"/><path fill="#0e593bff" d="M29.706,40.533C29.736,40.533 29.889,40.411 29.889,40.382C29.889,40.363 29.73,40.231 29.704,40.21C29.678,40.215 29.526,40.363 29.526,40.385C29.525,40.412 29.679,40.533 29.706,40.533Z" id="path_67"/><path fill="#0e593bff" d="M26.701,40.977C26.712,40.943 26.766,40.925 26.794,40.906C26.843,40.879 26.869,40.827 26.908,40.783L26.953,41.007L26.701,40.977ZM29.286,41.007C29.36,40.982 29.351,40.95 29.442,40.95C29.586,40.95 29.666,41.012 29.785,41.073C29.74,41.1 29.652,41.117 29.552,41.117H29.151C29.123,41.115 29.1,41.106 29.096,41.073C29.057,40.774 29.076,40.456 29.002,40.162L28.993,40.157L28.801,40.428L28.9,41.117H28.727H28.652C28.59,41.117 28.537,41.078 28.537,40.999C28.537,40.94 28.555,40.875 28.555,40.812V40.681C28.508,40.731 28.37,40.853 28.37,40.925C28.37,40.984 28.385,41.06 28.354,41.117H28.012H27.909H27.714H27.598H27.409H27.298H27.281C27.227,41.117 27.179,41.093 27.164,41.058C27.102,40.866 27.072,40.538 27.016,40.319L27.005,40.309L26.856,40.574C26.86,40.598 26.868,40.625 26.881,40.65C26.515,40.873 26.483,40.81 26.371,41.262L26.82,41.342C26.881,41.355 26.931,41.174 26.983,41.138C27.011,41.226 27.028,41.398 27.151,41.398H27.299H27.41H27.599H27.715H27.91H28.013H28.299C28.327,41.342 28.356,41.289 28.39,41.237C28.413,41.319 28.475,41.398 28.566,41.398H28.644H28.729H28.823L28.91,41.231C28.913,41.262 28.909,41.398 28.956,41.398H29.131H29.208H29.556C29.66,41.398 29.818,41.241 29.977,41.241C30.106,41.241 30.24,41.256 30.373,41.267L30.54,41.022C30.233,40.989 29.832,40.686 29.646,40.686C29.462,40.682 29.372,40.874 29.286,41.007Z" id="path_68"/><path fill="#0e593bff" d="M30.749,40.597L30.861,41.418C30.967,41.289 31.006,41.15 31.006,40.985C31.006,40.742 30.969,40.5 30.933,40.263C30.868,40.355 30.786,40.49 30.749,40.597Z" id="path_69"/><path fill="#0e593bff" d="M32.509,40.252C32.5,40.23 32.495,40.202 32.495,40.174L32.481,40.158C32.407,40.243 32.349,40.36 32.3,40.457C32.307,40.479 32.371,40.515 32.378,40.536C32.409,40.614 32.466,41 32.466,41.089C32.466,41.097 32.464,41.109 32.457,41.115H32.3H32.198H32.177C32.111,41.082 31.996,40.499 31.952,40.378L31.81,40.666L31.914,41.089L31.91,41.109H31.418C31.392,41.109 31.38,41.043 31.38,41.021C31.38,40.977 31.39,40.928 31.39,40.88C31.304,40.89 31.261,41.245 31.261,41.32C31.261,41.347 31.282,41.395 31.313,41.395H31.842C31.881,41.395 31.909,41.269 31.951,41.243C31.966,41.273 31.992,41.395 32.025,41.395H32.197H32.299H32.53C32.54,41.391 32.561,41.381 32.567,41.371C32.59,41.338 32.64,41.097 32.636,41.054L32.606,40.711L32.799,40.455C32.742,40.428 32.526,40.307 32.509,40.252Z" id="path_70"/><path fill="#0e593bff" d="M33.006,40.597L33.119,41.418C33.224,41.289 33.264,41.15 33.264,40.985C33.264,40.742 33.225,40.5 33.193,40.263C33.127,40.355 33.045,40.49 33.006,40.597Z" id="path_71"/><path fill="#0e593bff" d="M34.202,41.163C34.15,41.163 34.077,41.144 34.077,41.076C34.077,41.023 34.151,40.943 34.177,40.897C34.242,40.943 34.37,41.055 34.39,41.134C34.333,41.15 34.262,41.163 34.202,41.163ZM34.287,40.636C34.173,40.766 33.921,41.092 33.921,41.273C33.921,41.424 34.079,41.418 34.185,41.418C34.385,41.418 34.591,41.209 34.591,41.009C34.59,40.846 34.416,40.708 34.287,40.636Z" id="path_72"/><path fill="#0e593bff" d="M34.222,40.395L34.438,40.509C34.494,40.475 34.562,40.39 34.594,40.331L34.375,40.212C34.353,40.231 34.255,40.324 34.236,40.324C34.205,40.324 34.078,40.234 34.044,40.212C33.99,40.269 33.938,40.324 33.887,40.384C33.951,40.437 34.024,40.479 34.099,40.507L34.222,40.395Z" id="path_73"/><path fill="#0e593bff" d="M35.268,39.84C35.154,39.923 35.013,39.994 34.907,40.093C34.886,40.114 34.865,40.161 34.865,40.188C34.963,40.125 35.255,39.957 35.268,39.84Z" id="path_74"/><path fill="#0e593bff" d="M35.149,40.704C35.105,40.787 35.078,40.871 35.048,40.963C35.089,41.007 35.263,41.187 35.263,41.237C35.263,41.365 34.934,41.637 34.806,41.637C34.733,41.637 34.636,41.593 34.571,41.56H34.54C34.535,41.568 34.532,41.576 34.532,41.586C34.532,41.668 34.945,41.807 35.021,41.807C35.253,41.807 35.396,41.374 35.396,41.182C35.397,40.968 35.297,40.841 35.149,40.704Z" id="path_75"/><path fill="#0e593bff" d="M35.754,40.263C35.69,40.356 35.608,40.49 35.572,40.597L35.681,41.418C35.787,41.289 35.828,41.15 35.828,40.985C35.828,40.742 35.788,40.499 35.754,40.263Z" id="path_76"/><path fill="#0e593bff" d="M36.557,39.77C36.445,39.855 36.303,39.925 36.198,40.023C36.179,40.043 36.158,40.096 36.158,40.125C36.254,40.057 36.545,39.888 36.557,39.77Z" id="path_77"/><path fill="#0e593bff" d="M36.396,40.216C36.377,40.216 36.223,40.363 36.223,40.382C36.223,40.406 36.372,40.521 36.398,40.521C36.432,40.505 36.574,40.42 36.574,40.382C36.574,40.367 36.407,40.216 36.396,40.216Z" id="path_78"/><path fill="#0e593bff" d="M36.441,40.704C36.396,40.787 36.371,40.871 36.34,40.963C36.38,41.007 36.555,41.187 36.555,41.237C36.555,41.365 36.226,41.637 36.097,41.637C36.026,41.637 35.929,41.593 35.859,41.56H35.832C35.824,41.568 35.824,41.576 35.824,41.586C35.824,41.668 36.236,41.807 36.315,41.807C36.544,41.807 36.689,41.374 36.689,41.182C36.689,40.968 36.588,40.841 36.441,40.704Z" id="path_79"/><path fill="#0e593bff" d="M37.345,39.817C37.229,39.901 37.086,39.974 36.982,40.07C36.963,40.092 36.942,40.141 36.942,40.168C37.039,40.103 37.33,39.933 37.345,39.817Z" id="path_80"/><path fill="#0e593bff" d="M37.282,41.075C37.264,41.081 37.223,41.099 37.206,41.099C37.156,41.099 37.129,41.078 37.093,41.05C37.104,41.009 37.15,40.955 37.196,40.955C37.249,40.955 37.283,41.021 37.282,41.067V41.075ZM37.272,40.667C37.12,40.711 36.983,40.988 36.983,41.144C36.983,41.261 37.016,41.362 37.15,41.362C37.296,41.362 37.311,41.291 37.362,41.179C37.37,41.187 37.37,41.197 37.37,41.209C37.37,41.229 37.362,41.26 37.355,41.275C37.298,41.418 37.043,41.632 36.895,41.672C36.785,41.7 36.663,41.678 36.557,41.711V41.728C36.654,41.804 36.946,41.828 37.067,41.828C37.353,41.828 37.492,41.34 37.492,41.106C37.492,40.967 37.424,40.708 37.272,40.667Z" id="path_81"/><path fill="#ffffffff" d="M26.532,44.012L26.989,44.244C27.11,44.138 27.214,43.994 27.303,43.855L26.842,43.594C26.801,43.632 26.59,43.851 26.566,43.851C26.497,43.853 26.229,43.668 26.161,43.618L25.841,44.006C25.9,44.068 26.227,44.256 26.299,44.254C26.376,44.179 26.455,44.096 26.532,44.012Z" id="path_82"/><path fill="#ffffffff" d="M27.386,45.177C27.48,45.354 27.583,45.475 27.621,45.689L25.993,45.744C25.848,45.751 25.613,45.549 25.608,45.39C25.605,45.254 25.673,45.012 25.715,44.882L25.714,44.831L25.687,44.82C25.437,44.92 25.303,45.594 25.311,45.85C25.32,46.104 25.569,46.389 25.807,46.378L27.682,46.315C27.838,46.001 27.99,45.657 27.981,45.294C27.973,45.091 27.792,44.761 27.664,44.616L27.386,45.177Z" id="path_83"/><path fill="#ffffffff" d="M28.728,43.776C28.6,43.983 28.439,44.289 28.368,44.53L28.66,46.329C28.869,46.04 28.94,45.728 28.928,45.362C28.911,44.829 28.815,44.306 28.728,43.776Z" id="path_84"/><path fill="#ffffffff" d="M30.079,44.307C30.146,44.264 30.439,44.062 30.436,43.984C30.434,43.952 30.077,43.633 30.053,43.633C30.014,43.633 29.706,43.962 29.708,44.007C29.71,44.066 30.028,44.301 30.079,44.307Z" id="path_85"/><path fill="#ffffffff" d="M30.182,44.704C30.094,44.893 30.05,45.076 29.994,45.281C30.077,45.375 30.453,45.761 30.455,45.867C30.465,46.154 29.804,46.771 29.539,46.781C29.387,46.785 29.186,46.699 29.042,46.629L28.982,46.631C28.973,46.655 28.966,46.672 28.967,46.694C28.975,46.876 29.837,47.151 30.002,47.149C30.478,47.133 30.746,46.162 30.73,45.74C30.717,45.263 30.5,44.999 30.182,44.704Z" id="path_86"/><path fill="#ffffffff" d="M31.046,44.436L31.337,46.236C31.546,45.947 31.619,45.636 31.606,45.271C31.59,44.741 31.495,44.214 31.403,43.688C31.278,43.891 31.118,44.198 31.046,44.436Z" id="path_87"/><path fill="#ffffffff" d="M32.99,45.504C32.868,45.502 32.742,45.456 32.679,45.337C32.68,45.333 32.679,45.337 32.68,45.313C32.674,45.258 32.807,45.131 32.852,45.131C32.978,45.131 33.053,45.381 33.091,45.477C33.061,45.492 33.02,45.504 32.99,45.504ZM37.472,44.101C37.359,44.04 36.948,43.793 36.884,43.703C36.846,43.634 36.852,43.526 36.843,43.449C36.7,43.512 36.506,43.945 36.437,44.096C36.448,44.148 36.558,44.237 36.597,44.266C36.662,44.763 36.777,45.308 36.772,45.808V45.841C36.66,45.949 36.103,46.088 35.951,46.086C35.818,46.084 35.708,46.051 35.717,45.882L35.711,45.863C35.711,45.84 35.717,45.826 35.747,45.826C35.851,45.826 35.962,45.861 36.074,45.873C36.194,45.7 36.314,45.533 36.436,45.36C35.749,45.255 34.975,44.591 34.557,44.587C34.241,44.583 33.966,45.025 33.85,45.3C33.97,45.212 34.092,45.169 34.228,45.169C34.415,45.17 34.704,45.353 34.857,45.463C34.784,45.488 34.644,45.533 34.567,45.532L33.817,45.525L33.604,45.52H33.506C33.467,45.245 33.349,44.554 33.024,44.548C32.688,44.547 32.358,45.416 32.357,45.7C32.352,46.084 32.824,46.093 33.067,46.148C32.839,46.379 32.398,46.667 32.07,46.663C31.928,46.663 31.775,46.57 31.623,46.57C31.607,46.57 31.592,46.575 31.577,46.584L31.575,46.641C31.754,46.873 32.229,47.052 32.504,47.056C32.895,47.061 33.269,46.489 33.417,46.139H33.6L33.811,46.144L34.4,46.148C34.572,46.152 34.947,45.795 35.381,45.799C35.422,45.802 35.468,45.807 35.512,45.819C35.446,46.009 35.378,46.187 35.375,46.391C35.373,46.674 35.481,46.779 35.739,46.782C35.92,46.784 36.645,46.609 36.772,46.477C36.839,46.403 37.116,45.537 37.116,45.415C37.12,45.188 37.08,44.939 37.062,44.72C37.062,44.695 37.063,44.672 37.063,44.643C37.189,44.455 37.335,44.278 37.472,44.101Z" id="path_88"/><path fill="#ffffffff" d="M34.82,46.647C34.741,46.647 34.467,46.986 34.403,47.064C34.462,47.125 34.772,47.372 34.838,47.372C34.857,47.372 35.241,46.984 35.243,46.978C35.21,46.935 34.855,46.647 34.82,46.647Z" id="path_89"/><path fill="#ffffffff" d="M38.253,43.688C38.119,43.891 37.947,44.187 37.885,44.421L38.103,46.233C38.318,45.952 38.402,45.644 38.402,45.279C38.402,44.745 38.325,44.221 38.253,43.688Z" id="path_90"/><path fill="#ffd34bff" d="M36.903,12.589C36.903,12.589 36.398,11.942 34.625,11.894C33.632,11.898 32.076,11.386 32.079,10.962H31.877C31.871,11.386 30.302,11.911 29.309,11.914C27.535,11.976 27.014,12.632 27.014,12.632C23.695,12.183 23.868,17.651 23.868,17.651C25.901,18.297 26.927,20.741 26.927,20.741C26.927,20.741 27.315,21.384 29.435,21.654C28.797,21.524 28.136,21.338 27.448,21.073C27.201,20.98 27.042,20.781 26.859,20.591C26.859,20.591 31.459,18.355 36.767,20.448C36.767,20.448 36.667,20.884 36.126,21.087C35.66,21.262 35.023,21.475 34.246,21.639C36.407,21.351 36.814,20.701 36.814,20.701C36.814,20.701 37.893,18.245 39.941,17.582C39.94,17.583 40.232,12.111 36.903,12.589ZM26.363,18.105L25.769,18.414L25.038,17.208C25.038,17.208 25.156,14.589 26.411,13.811C26.411,13.812 25.954,15.922 26.363,18.105ZM31.036,16.053C31.036,16.053 28.648,15.952 27.419,16.765L27.569,14.212C27.569,14.212 27.864,13.357 28.723,13.353C29.941,13.524 31.154,12.869 31.329,12.688L31.036,16.053ZM33.12,16.043L32.898,12.686C33.068,12.861 34.27,13.505 35.489,13.325C36.352,13.321 36.626,14.172 36.626,14.172L36.721,16.725C35.511,15.923 33.12,16.043 33.12,16.043ZM38.058,18.335L37.574,18.056C38.031,15.871 37.62,13.763 37.62,13.763C38.856,14.533 38.918,17.151 38.918,17.151L38.058,18.335Z" id="path_91"/><path fill="#ee8f22ff" d="M32.086,21.774L31.63,21.777C30.743,21.78 30.025,21.732 29.435,21.655C31.322,22.042 32.973,21.91 34.245,21.642C33.661,21.716 32.955,21.77 32.086,21.774Z" id="path_92"/><path fill="#2b2624ff" d="M31.804,22C31.008,22 30.203,21.919 29.413,21.758L29.448,21.551C30.06,21.631 30.771,21.671 31.563,21.671L32.086,21.669C32.879,21.665 33.581,21.622 34.232,21.536L34.268,21.743C33.454,21.914 32.626,22 31.804,22Z" id="path_93"/><path fill="#2b2624ff" d="M31.533,21.881C27.524,21.881 26.863,20.84 26.836,20.796C26.819,20.759 25.799,18.375 23.835,17.752L23.765,17.73L23.763,17.656C23.758,17.53 23.682,14.564 25.018,13.184C25.532,12.653 26.189,12.429 26.975,12.522C27.132,12.366 27.755,11.864 29.306,11.812C30.344,11.807 31.768,11.265 31.773,10.961L31.774,10.859H32.184L32.183,10.964C32.183,10.998 32.209,11.043 32.257,11.093C32.594,11.431 33.802,11.79 34.609,11.79C36.17,11.832 36.786,12.322 36.943,12.478C37.733,12.379 38.389,12.6 38.895,13.132C40.195,14.504 40.052,17.463 40.047,17.588L40.042,17.659L39.974,17.681C37.993,18.323 36.92,20.718 36.91,20.743C36.876,20.8 36.185,21.86 32.088,21.877L31.533,21.881ZM27.023,20.701C27.023,20.701 27.691,21.671 31.533,21.671L32.086,21.669C36.027,21.653 36.718,20.654 36.724,20.646C36.762,20.557 37.815,18.206 39.839,17.506C39.853,17.045 39.874,14.468 38.742,13.275C38.275,12.78 37.659,12.586 36.918,12.693L36.858,12.701L36.821,12.654C36.821,12.654 36.312,12.043 34.623,11.997C33.728,11.997 32.49,11.622 32.11,11.239C32.053,11.183 32.014,11.125 31.993,11.067H31.959C31.757,11.558 30.223,12.016 29.311,12.019C27.622,12.079 27.103,12.692 27.098,12.698L27.061,12.743L27.002,12.736C26.265,12.635 25.648,12.835 25.17,13.33C24.006,14.531 23.969,17.11 23.972,17.576C25.979,18.261 26.979,20.6 27.023,20.701Z" id="path_94"/><path fill="#2b2624ff" d="M31.372,17.138L30.889,16.161L31.075,16.069L31.381,16.688C31.496,16.527 31.706,16.304 31.992,16.276C32.227,16.258 32.48,16.37 32.718,16.63L32.993,15.983L33.187,16.065L32.775,17.033L32.666,16.893C32.439,16.602 32.225,16.472 32.015,16.483C31.684,16.517 31.468,16.945 31.468,16.945L31.372,17.138Z" id="path_95"/><path fill="#2b2624ff" d="M26.653,20.162L26.589,20.038L27.454,19.601L27.636,19.311L27.348,19.148L26.296,19.607L26.239,19.479L27.356,18.993L27.71,19.192L27.884,18.912L27.434,18.632L27.739,18.266L27.44,18.131L25.764,18.93L25.705,18.805L27.437,17.979L27.83,18.154L28.077,17.857L28.096,17.85C29.383,17.425 31.597,17.404 31.619,17.404H31.643L31.986,17.669L32.328,17.428L32.352,17.429C32.452,17.432 34.822,17.504 35.887,17.815L35.904,17.82L36.157,18.081L36.492,17.938L36.52,17.951L38.065,18.639L38.008,18.767L36.49,18.09L36.26,18.188L36.625,18.564L36.096,18.867L36.231,19.117L36.547,18.954L36.572,18.961L37.636,19.259L37.599,19.393L36.563,19.103L36.298,19.24L36.441,19.505L37.212,19.762L37.168,19.893L36.345,19.621L36.173,19.304L35.743,19.526L35.539,19.188L35.265,19.346L35.243,19.342L32.643,19.031L32.409,18.854L31.977,19.293L31.556,18.86L31.315,19.054L31.295,19.056L28.582,19.347L28.367,19.213L28.122,19.584L27.753,19.377L27.551,19.709L27.535,19.717L26.653,20.162ZM27.831,19.26L28.081,19.402L28.253,19.141L28.003,18.985L27.831,19.26ZM35.664,19.12L35.798,19.344L36.11,19.184L35.977,18.94L35.664,19.12ZM28.447,19.099L28.619,19.207L31.263,18.922L31.462,18.761L31.229,18.522C30.994,18.532 29.462,18.614 28.625,18.828L28.447,19.099ZM32.701,18.9L35.24,19.205L35.472,19.073L35.296,18.779C35.049,18.734 33.375,18.433 32.764,18.499L32.512,18.757L32.701,18.9ZM31.669,18.775L31.983,19.097L32.3,18.773L31.975,18.528L31.669,18.775ZM28.075,18.868L28.328,19.025L28.538,18.708L28.564,18.701C29.476,18.46 31.183,18.385 31.256,18.382L31.286,18.381L31.571,18.674L31.861,18.442L31.392,18.089L31.869,17.755L31.599,17.545C31.356,17.547 29.358,17.587 28.161,17.978L27.965,18.213L28.371,18.395L28.075,18.868ZM32.97,18.351C33.763,18.351 35.28,18.636 35.35,18.647L35.381,18.654L35.591,19.002L35.911,18.817L35.633,18.306L36.02,18.142L35.831,17.947C34.83,17.66 32.622,17.579 32.373,17.57L32.102,17.761L32.525,18.089L32.087,18.441L32.397,18.674L32.698,18.368L32.722,18.366C32.792,18.354 32.876,18.351 32.97,18.351ZM27.644,18.598L27.958,18.793L28.167,18.456L27.872,18.325L27.644,18.598ZM35.829,18.373L36.032,18.748L36.403,18.534L36.125,18.249L35.829,18.373ZM31.628,18.095L31.973,18.353L32.3,18.09L31.984,17.845L31.628,18.095Z" id="path_96"/><path fill="#2b2624ff" d="M29.398,18.535H29.397C29.286,18.535 29.183,18.492 29.104,18.413C29.027,18.334 28.985,18.231 28.986,18.12C28.988,17.89 29.176,17.703 29.406,17.703C29.519,17.703 29.625,17.746 29.703,17.826C29.779,17.903 29.82,18.006 29.819,18.118C29.816,18.348 29.627,18.535 29.398,18.535ZM29.405,17.773C29.213,17.773 29.057,17.929 29.056,18.12C29.055,18.212 29.09,18.298 29.154,18.364C29.218,18.429 29.304,18.466 29.396,18.466V18.5L29.397,18.466C29.588,18.466 29.745,18.309 29.747,18.118C29.748,18.025 29.713,17.94 29.65,17.876C29.587,17.81 29.499,17.773 29.405,17.773Z" id="path_97"/><path fill="#2b2624ff" d="M29.51,18.118C29.51,18.177 29.46,18.224 29.401,18.224C29.341,18.225 29.292,18.179 29.292,18.121C29.293,18.06 29.344,18.012 29.401,18.011C29.461,18.011 29.51,18.06 29.51,18.118Z" id="path_98"/><path fill="#2b2624ff" d="M34.561,18.512C34.451,18.512 34.346,18.469 34.269,18.391C34.192,18.314 34.15,18.208 34.152,18.098C34.154,17.869 34.342,17.682 34.572,17.682C34.685,17.682 34.786,17.724 34.862,17.8C34.939,17.878 34.981,17.983 34.98,18.094C34.978,18.326 34.79,18.512 34.561,18.512ZM34.576,17.751C34.375,17.751 34.223,17.903 34.222,18.098C34.219,18.19 34.254,18.277 34.319,18.342C34.383,18.407 34.468,18.443 34.561,18.443C34.752,18.443 34.909,18.286 34.913,18.094C34.913,18.002 34.877,17.914 34.812,17.85C34.75,17.786 34.666,17.751 34.576,17.751Z" id="path_99"/><path fill="#2b2624ff" d="M34.673,18.099C34.673,18.156 34.625,18.204 34.562,18.204C34.503,18.204 34.456,18.158 34.457,18.099C34.457,18.04 34.506,17.988 34.565,17.988C34.627,17.988 34.673,18.04 34.673,18.099Z" id="path_100"/><path fill="#2b2624ff" d="M26.533,19.33C26.424,19.33 26.323,19.288 26.25,19.213C26.177,19.138 26.138,19.038 26.14,18.931C26.14,18.711 26.319,18.531 26.539,18.531C26.648,18.531 26.748,18.574 26.822,18.647C26.898,18.724 26.938,18.825 26.936,18.932C26.935,19.155 26.757,19.328 26.533,19.33ZM26.543,18.601C26.357,18.601 26.209,18.749 26.209,18.932C26.207,19.021 26.24,19.102 26.3,19.163C26.36,19.226 26.444,19.26 26.533,19.26C26.718,19.259 26.865,19.115 26.868,18.932C26.869,18.844 26.834,18.76 26.773,18.697C26.712,18.634 26.63,18.601 26.543,18.601ZM37.368,19.283C37.261,19.283 37.162,19.241 37.087,19.166C37.013,19.09 36.974,18.992 36.974,18.886C36.977,18.664 37.16,18.484 37.381,18.484C37.489,18.484 37.587,18.524 37.662,18.598C37.736,18.674 37.776,18.775 37.775,18.885C37.775,19.103 37.594,19.281 37.371,19.281H37.368V19.283ZM37.383,18.553C37.197,18.553 37.046,18.703 37.043,18.887C37.042,18.973 37.075,19.055 37.136,19.116C37.198,19.178 37.278,19.213 37.367,19.213V19.248L37.369,19.213C37.554,19.213 37.704,19.066 37.704,18.885C37.705,18.794 37.672,18.711 37.611,18.649C37.551,18.587 37.47,18.553 37.383,18.553ZM26.74,17.702C26.632,17.702 26.532,17.66 26.456,17.585C26.382,17.509 26.342,17.408 26.344,17.301C26.345,17.083 26.526,16.902 26.747,16.901C26.859,16.901 26.957,16.944 27.032,17.018C27.107,17.093 27.146,17.194 27.145,17.3C27.143,17.522 26.962,17.702 26.74,17.702ZM26.752,16.971C26.564,16.972 26.414,17.12 26.413,17.302C26.412,17.39 26.445,17.473 26.507,17.535C26.569,17.598 26.652,17.632 26.74,17.632C26.92,17.632 27.073,17.479 27.074,17.298C27.076,17.21 27.044,17.128 26.982,17.067C26.92,17.006 26.84,16.971 26.752,16.971ZM37.199,17.622C37.093,17.622 36.994,17.58 36.919,17.505C36.846,17.429 36.805,17.33 36.808,17.223C36.81,17.003 36.991,16.822 37.209,16.82C37.317,16.82 37.417,16.861 37.492,16.937C37.568,17.013 37.609,17.114 37.609,17.222C37.606,17.444 37.425,17.622 37.203,17.622H37.199ZM37.209,16.89C37.029,16.891 36.878,17.042 36.877,17.224C36.875,17.312 36.909,17.394 36.97,17.457C37.032,17.52 37.113,17.553 37.2,17.553V17.587L37.202,17.553C37.386,17.553 37.537,17.404 37.539,17.222C37.54,17.133 37.505,17.049 37.443,16.987C37.381,16.923 37.297,16.89 37.209,16.89ZM27.64,17.472H27.639C27.417,17.472 27.244,17.297 27.244,17.072C27.249,16.851 27.427,16.673 27.649,16.669C27.869,16.669 28.047,16.846 28.047,17.067C28.045,17.291 27.863,17.472 27.64,17.472ZM27.649,16.738C27.465,16.742 27.316,16.89 27.313,17.072C27.313,17.257 27.456,17.402 27.639,17.402V17.438L27.64,17.402C27.824,17.402 27.974,17.25 27.977,17.066C27.978,16.885 27.83,16.738 27.649,16.738ZM36.331,17.385C36.224,17.385 36.124,17.344 36.049,17.268C35.975,17.192 35.935,17.092 35.935,16.986C35.939,16.762 36.115,16.586 36.338,16.584C36.447,16.584 36.547,16.626 36.623,16.702C36.697,16.778 36.737,16.878 36.736,16.984C36.734,17.204 36.553,17.385 36.331,17.385ZM36.338,16.653C36.154,16.654 36.008,16.801 36.004,16.987C36.002,17.074 36.037,17.158 36.097,17.22C36.159,17.282 36.241,17.316 36.328,17.316V17.351L36.33,17.316C36.513,17.315 36.664,17.166 36.665,16.983C36.667,16.896 36.633,16.814 36.572,16.751C36.511,16.687 36.427,16.653 36.338,16.653ZM28.616,17.174C28.51,17.174 28.412,17.133 28.34,17.061C28.265,16.986 28.225,16.884 28.226,16.777C28.227,16.557 28.408,16.377 28.629,16.375C28.736,16.375 28.837,16.416 28.912,16.492C28.987,16.566 29.026,16.667 29.025,16.772C29.024,16.994 28.843,17.174 28.621,17.174H28.616ZM28.632,16.443C28.446,16.444 28.297,16.594 28.296,16.776C28.295,16.865 28.329,16.949 28.39,17.011C28.45,17.071 28.531,17.104 28.617,17.104V17.14L28.621,17.104C28.805,17.104 28.956,16.955 28.957,16.772C28.958,16.685 28.924,16.603 28.863,16.54C28.801,16.478 28.718,16.443 28.632,16.443ZM35.422,17.139C35.315,17.139 35.215,17.097 35.14,17.021C35.066,16.946 35.023,16.844 35.025,16.737C35.027,16.515 35.208,16.336 35.428,16.334C35.535,16.334 35.634,16.376 35.71,16.452C35.785,16.528 35.826,16.627 35.824,16.733C35.822,16.956 35.642,17.136 35.422,17.139ZM35.43,16.404C35.246,16.405 35.096,16.554 35.094,16.737C35.094,16.827 35.128,16.911 35.191,16.973C35.252,17.034 35.334,17.069 35.421,17.069C35.604,17.068 35.752,16.917 35.756,16.733C35.757,16.646 35.722,16.564 35.661,16.5C35.599,16.438 35.517,16.404 35.43,16.404ZM24.528,17.106H24.527C24.42,17.106 24.32,17.064 24.246,16.989C24.171,16.913 24.13,16.812 24.132,16.702C24.132,16.483 24.314,16.304 24.537,16.304C24.646,16.304 24.747,16.346 24.82,16.421C24.894,16.495 24.934,16.596 24.931,16.703C24.93,16.926 24.748,17.106 24.528,17.106ZM24.537,16.375C24.351,16.375 24.2,16.522 24.2,16.704C24.199,16.795 24.233,16.878 24.294,16.939C24.355,17.003 24.439,17.036 24.525,17.036V17.071L24.527,17.036C24.71,17.036 24.86,16.886 24.86,16.702C24.861,16.613 24.829,16.53 24.768,16.47C24.709,16.409 24.626,16.375 24.537,16.375ZM39.37,17.088C39.263,17.088 39.164,17.048 39.089,16.974C39.014,16.899 38.974,16.798 38.974,16.691C38.976,16.469 39.157,16.288 39.38,16.288C39.487,16.288 39.587,16.329 39.66,16.405C39.735,16.479 39.777,16.58 39.774,16.686C39.773,16.906 39.591,17.088 39.37,17.088ZM39.382,16.358C39.195,16.358 39.044,16.507 39.042,16.691C39.042,16.78 39.076,16.863 39.137,16.924C39.198,16.986 39.281,17.019 39.367,17.019C39.551,17.018 39.702,16.868 39.704,16.685C39.705,16.597 39.67,16.515 39.61,16.453C39.55,16.392 39.468,16.358 39.382,16.358ZM29.522,17.028C29.417,17.028 29.316,16.986 29.242,16.911C29.168,16.837 29.127,16.736 29.128,16.63C29.129,16.406 29.308,16.229 29.531,16.227C29.638,16.227 29.74,16.269 29.816,16.345C29.889,16.421 29.926,16.52 29.926,16.626C29.923,16.847 29.742,17.028 29.522,17.028ZM29.532,16.298C29.346,16.299 29.199,16.444 29.197,16.63C29.196,16.718 29.231,16.799 29.291,16.863C29.353,16.926 29.436,16.959 29.522,16.959C29.704,16.959 29.855,16.809 29.857,16.626C29.858,16.538 29.825,16.457 29.765,16.396C29.704,16.331 29.62,16.298 29.532,16.298ZM34.48,16.95C34.375,16.95 34.274,16.908 34.201,16.833C34.125,16.757 34.084,16.655 34.085,16.548C34.09,16.327 34.269,16.148 34.488,16.146C34.596,16.146 34.696,16.187 34.772,16.264C34.847,16.338 34.886,16.438 34.885,16.545C34.881,16.77 34.705,16.948 34.484,16.95H34.48ZM34.488,16.215C34.308,16.216 34.157,16.366 34.154,16.549C34.153,16.639 34.188,16.721 34.249,16.784C34.31,16.846 34.393,16.88 34.479,16.88V16.915L34.482,16.88C34.666,16.878 34.812,16.731 34.816,16.544C34.816,16.456 34.784,16.374 34.722,16.313C34.66,16.25 34.577,16.215 34.488,16.215ZM30.51,16.929H30.509C30.402,16.929 30.302,16.888 30.227,16.812C30.153,16.737 30.113,16.636 30.115,16.529C30.116,16.308 30.298,16.129 30.519,16.129C30.627,16.129 30.726,16.17 30.801,16.246C30.876,16.32 30.917,16.42 30.917,16.528C30.912,16.749 30.729,16.929 30.51,16.929ZM30.52,16.199C30.335,16.199 30.184,16.347 30.183,16.53C30.182,16.618 30.214,16.701 30.277,16.763C30.339,16.825 30.42,16.859 30.509,16.859V16.895L30.51,16.859C30.693,16.859 30.843,16.71 30.845,16.527C30.846,16.439 30.812,16.357 30.75,16.295C30.689,16.232 30.606,16.199 30.52,16.199ZM33.545,16.915C33.44,16.915 33.341,16.873 33.267,16.798C33.192,16.722 33.152,16.623 33.153,16.516C33.154,16.295 33.333,16.114 33.554,16.114C33.662,16.114 33.763,16.155 33.839,16.232C33.912,16.307 33.951,16.407 33.95,16.514C33.947,16.735 33.767,16.914 33.547,16.914L33.545,16.915ZM33.555,16.184C33.371,16.184 33.223,16.333 33.222,16.517C33.222,16.605 33.255,16.687 33.316,16.75C33.377,16.813 33.46,16.845 33.546,16.845V16.881L33.548,16.845C33.729,16.845 33.88,16.697 33.883,16.514C33.883,16.427 33.85,16.345 33.79,16.283C33.728,16.219 33.643,16.184 33.555,16.184ZM26.75,16.842H26.748C26.642,16.842 26.542,16.8 26.468,16.724C26.392,16.648 26.351,16.548 26.353,16.442C26.356,16.221 26.537,16.04 26.757,16.039C26.866,16.039 26.967,16.08 27.042,16.156C27.117,16.232 27.156,16.333 27.155,16.439C27.152,16.659 26.97,16.839 26.75,16.842ZM26.759,16.108C26.575,16.109 26.426,16.26 26.422,16.442C26.421,16.529 26.455,16.611 26.517,16.674C26.579,16.737 26.661,16.771 26.748,16.771V16.806L26.75,16.771C26.932,16.77 27.083,16.621 27.085,16.438C27.086,16.351 27.052,16.267 26.991,16.205C26.929,16.143 26.847,16.108 26.759,16.108ZM37.206,16.786C36.99,16.786 36.814,16.608 36.814,16.389C36.818,16.168 37,15.986 37.218,15.984C37.327,15.984 37.426,16.025 37.502,16.101C37.577,16.177 37.617,16.278 37.616,16.384C37.614,16.606 37.433,16.786 37.212,16.786H37.206ZM37.218,16.054C37.038,16.057 36.887,16.207 36.883,16.389C36.883,16.57 37.029,16.718 37.206,16.718V16.753L37.211,16.718C37.394,16.718 37.545,16.568 37.545,16.384C37.546,16.297 37.513,16.213 37.451,16.152C37.391,16.088 37.307,16.054 37.218,16.054ZM24.687,16.079C24.58,16.079 24.481,16.038 24.408,15.962C24.333,15.886 24.293,15.787 24.295,15.681C24.299,15.459 24.479,15.278 24.698,15.278C24.807,15.278 24.906,15.321 24.981,15.396C25.056,15.471 25.096,15.573 25.095,15.679C25.093,15.901 24.912,16.08 24.691,16.08L24.687,16.079ZM24.701,15.348C24.517,15.348 24.367,15.497 24.364,15.682C24.363,15.769 24.396,15.851 24.456,15.914C24.518,15.976 24.598,16.01 24.686,16.01V16.046L24.689,16.01C24.872,16.01 25.022,15.861 25.025,15.678C25.025,15.589 24.992,15.506 24.931,15.443C24.869,15.381 24.787,15.348 24.701,15.348ZM39.208,16.056C39.1,16.056 38.999,16.014 38.924,15.937C38.848,15.861 38.809,15.761 38.81,15.654C38.811,15.432 38.994,15.25 39.215,15.25C39.321,15.25 39.421,15.291 39.495,15.367C39.571,15.443 39.612,15.543 39.611,15.651C39.608,15.872 39.426,16.054 39.208,16.056ZM39.215,15.32C39.032,15.32 38.881,15.469 38.881,15.654C38.879,15.743 38.911,15.826 38.974,15.888C39.036,15.951 39.119,15.985 39.208,15.985C39.388,15.983 39.538,15.833 39.542,15.649C39.542,15.561 39.509,15.477 39.446,15.415C39.384,15.354 39.302,15.32 39.215,15.32ZM26.842,15.993C26.624,15.993 26.446,15.812 26.446,15.592C26.45,15.37 26.631,15.189 26.85,15.189C26.957,15.189 27.058,15.23 27.132,15.305C27.207,15.38 27.249,15.481 27.249,15.589C27.245,15.81 27.063,15.992 26.842,15.993ZM26.85,15.259C26.669,15.259 26.52,15.408 26.516,15.593C26.516,15.774 26.663,15.923 26.843,15.923C27.025,15.922 27.176,15.771 27.18,15.588C27.18,15.499 27.145,15.416 27.085,15.354C27.022,15.292 26.939,15.259 26.85,15.259ZM37.22,15.898H37.218C37.112,15.898 37.012,15.857 36.938,15.781C36.862,15.705 36.822,15.605 36.824,15.499C36.826,15.278 37.007,15.098 37.228,15.096C37.334,15.096 37.434,15.138 37.51,15.213C37.585,15.289 37.626,15.388 37.626,15.495C37.623,15.719 37.442,15.898 37.22,15.898ZM37.229,15.166C37.046,15.168 36.896,15.318 36.895,15.499C36.894,15.587 36.928,15.67 36.989,15.733C37.051,15.795 37.132,15.829 37.219,15.829V15.864L37.221,15.829C37.401,15.829 37.555,15.676 37.558,15.495C37.559,15.407 37.524,15.325 37.463,15.263C37.4,15.2 37.316,15.166 37.229,15.166ZM32.056,15.788C31.949,15.788 31.85,15.748 31.775,15.671C31.699,15.597 31.658,15.496 31.659,15.388C31.662,15.166 31.844,14.986 32.063,14.986C32.173,14.986 32.272,15.027 32.346,15.102C32.422,15.178 32.461,15.278 32.46,15.386C32.458,15.607 32.276,15.787 32.056,15.788ZM32.066,15.056C31.882,15.056 31.732,15.205 31.727,15.389C31.726,15.478 31.761,15.56 31.823,15.623C31.886,15.685 31.966,15.719 32.054,15.719C32.238,15.717 32.389,15.568 32.39,15.385C32.392,15.295 32.358,15.213 32.297,15.152C32.237,15.09 32.154,15.056 32.066,15.056ZM24.955,15.195C24.849,15.195 24.75,15.154 24.676,15.079C24.6,15.003 24.559,14.902 24.56,14.793C24.562,14.572 24.744,14.392 24.963,14.392C25.073,14.392 25.172,14.434 25.247,14.508C25.321,14.584 25.361,14.684 25.361,14.79C25.357,15.011 25.175,15.192 24.955,15.195ZM24.966,14.461C24.782,14.461 24.632,14.61 24.63,14.793C24.629,14.882 24.664,14.966 24.726,15.03C24.787,15.09 24.867,15.125 24.955,15.125C25.138,15.122 25.288,14.972 25.291,14.788C25.291,14.7 25.258,14.619 25.198,14.557C25.135,14.495 25.054,14.461 24.966,14.461ZM39.015,15.139C38.909,15.139 38.81,15.099 38.736,15.024C38.662,14.949 38.622,14.848 38.622,14.741C38.626,14.52 38.809,14.34 39.028,14.337C39.134,14.337 39.233,14.379 39.309,14.455C39.385,14.531 39.425,14.632 39.425,14.737C39.421,14.96 39.238,15.14 39.02,15.14L39.015,15.139ZM39.027,14.406C38.845,14.408 38.695,14.558 38.692,14.741C38.691,14.83 38.724,14.913 38.786,14.975C38.845,15.035 38.927,15.069 39.015,15.069V15.103L39.019,15.069C39.201,15.069 39.351,14.92 39.356,14.735C39.357,14.648 39.322,14.565 39.26,14.502C39.196,14.441 39.114,14.406 39.027,14.406ZM26.854,15.079C26.748,15.079 26.648,15.038 26.573,14.962C26.497,14.885 26.456,14.784 26.457,14.676C26.462,14.453 26.642,14.275 26.861,14.275C26.969,14.275 27.069,14.317 27.144,14.392C27.218,14.467 27.257,14.567 27.255,14.674C27.253,14.893 27.073,15.075 26.854,15.079ZM26.861,14.345C26.681,14.345 26.531,14.494 26.527,14.676C26.526,14.766 26.561,14.85 26.624,14.912C26.684,14.975 26.766,15.009 26.854,15.009C27.034,15.006 27.184,14.856 27.186,14.673C27.187,14.585 27.156,14.504 27.094,14.441C27.033,14.38 26.951,14.345 26.861,14.345ZM37.232,14.93H37.23C37.124,14.93 37.024,14.888 36.95,14.813C36.875,14.737 36.834,14.638 36.836,14.532C36.838,14.313 37.02,14.132 37.239,14.128C37.348,14.128 37.449,14.171 37.524,14.247C37.599,14.322 37.639,14.422 37.638,14.528C37.635,14.747 37.449,14.93 37.232,14.93ZM37.238,14.198C37.058,14.201 36.907,14.35 36.905,14.532C36.904,14.619 36.938,14.703 37,14.765C37.06,14.827 37.142,14.862 37.23,14.862V14.897L37.232,14.862C37.412,14.862 37.566,14.709 37.566,14.528C37.568,14.441 37.535,14.358 37.473,14.297C37.411,14.234 37.328,14.198 37.238,14.198ZM32.067,14.654C31.959,14.654 31.859,14.612 31.785,14.536C31.711,14.462 31.67,14.361 31.671,14.256C31.673,14.034 31.854,13.852 32.076,13.851C32.182,13.851 32.282,13.892 32.357,13.967C32.431,14.043 32.471,14.144 32.471,14.251C32.469,14.474 32.289,14.654 32.067,14.654ZM32.077,13.921C31.893,13.922 31.743,14.073 31.742,14.256C31.741,14.344 31.775,14.426 31.836,14.487C31.898,14.548 31.982,14.584 32.069,14.584C32.252,14.584 32.403,14.434 32.404,14.251C32.405,14.162 32.371,14.079 32.31,14.017C32.246,13.955 32.164,13.921 32.077,13.921ZM25.376,14.323C25.267,14.323 25.166,14.281 25.091,14.208C25.017,14.132 24.976,14.03 24.976,13.922C24.978,13.702 25.16,13.522 25.383,13.521C25.49,13.521 25.589,13.563 25.664,13.638C25.738,13.713 25.778,13.814 25.778,13.921C25.776,14.145 25.598,14.322 25.376,14.323ZM25.384,13.59C25.198,13.592 25.048,13.739 25.047,13.922C25.047,14.012 25.08,14.096 25.142,14.157C25.204,14.219 25.286,14.254 25.375,14.254C25.558,14.252 25.705,14.106 25.708,13.92C25.709,13.832 25.675,13.748 25.614,13.686C25.553,13.625 25.472,13.59 25.384,13.59ZM38.59,14.299H38.588C38.482,14.299 38.382,14.258 38.308,14.182C38.233,14.107 38.194,14.007 38.194,13.901C38.197,13.677 38.374,13.499 38.597,13.497C38.703,13.497 38.804,13.538 38.878,13.614C38.954,13.69 38.995,13.791 38.993,13.897C38.992,14.12 38.811,14.299 38.59,14.299ZM38.598,13.567C38.414,13.57 38.267,13.717 38.264,13.903C38.263,13.99 38.296,14.073 38.357,14.135C38.418,14.197 38.5,14.231 38.588,14.231V14.265L38.59,14.23C38.773,14.23 38.923,14.08 38.924,13.899C38.925,13.81 38.891,13.726 38.829,13.664C38.767,13.602 38.685,13.567 38.598,13.567ZM26.949,14.133C26.841,14.133 26.741,14.092 26.667,14.016C26.592,13.94 26.551,13.839 26.553,13.731C26.555,13.51 26.737,13.331 26.958,13.331C27.067,13.331 27.166,13.372 27.24,13.448C27.314,13.522 27.354,13.623 27.353,13.73C27.35,13.949 27.169,14.13 26.949,14.133ZM26.961,13.402C26.776,13.402 26.626,13.55 26.623,13.733C26.622,13.82 26.656,13.904 26.717,13.966C26.778,14.028 26.86,14.062 26.949,14.062C27.13,14.061 27.28,13.91 27.282,13.729C27.283,13.641 27.251,13.558 27.191,13.497C27.128,13.435 27.048,13.402 26.961,13.402ZM37.106,13.989C37.002,13.989 36.903,13.948 36.83,13.873C36.755,13.799 36.716,13.698 36.716,13.592C36.717,13.369 36.898,13.188 37.12,13.188C37.339,13.188 37.517,13.368 37.517,13.587C37.513,13.809 37.33,13.989 37.111,13.989H37.106ZM37.123,13.258C36.936,13.258 36.786,13.408 36.785,13.592C36.784,13.68 36.817,13.764 36.879,13.825C36.939,13.886 37.02,13.92 37.106,13.92V13.954L37.11,13.92C37.294,13.92 37.443,13.771 37.446,13.586C37.446,13.406 37.301,13.258 37.123,13.258ZM37.94,13.644C37.832,13.644 37.731,13.602 37.655,13.527C37.582,13.451 37.543,13.352 37.544,13.247C37.545,13.027 37.724,12.844 37.946,12.843C38.054,12.843 38.153,12.885 38.229,12.96C38.304,13.036 38.346,13.137 38.345,13.242C38.343,13.465 38.161,13.644 37.94,13.644ZM37.948,12.912C37.764,12.914 37.616,13.064 37.615,13.247C37.614,13.333 37.647,13.415 37.708,13.476C37.77,13.539 37.852,13.573 37.941,13.573C38.124,13.573 38.274,13.425 38.277,13.239C38.278,13.153 38.243,13.07 38.181,13.007C38.118,12.947 38.036,12.912 37.948,12.912ZM26.056,13.644C25.948,13.644 25.848,13.602 25.774,13.527C25.7,13.451 25.659,13.35 25.661,13.242C25.663,13.022 25.844,12.843 26.064,12.843C26.174,12.843 26.274,12.884 26.347,12.957C26.42,13.032 26.462,13.134 26.46,13.24C26.458,13.462 26.277,13.643 26.056,13.644ZM26.069,12.912C25.883,12.912 25.732,13.061 25.73,13.242C25.729,13.332 25.762,13.415 25.823,13.477C25.885,13.54 25.967,13.575 26.056,13.575C26.238,13.573 26.388,13.423 26.39,13.24C26.391,13.151 26.357,13.068 26.296,13.007C26.237,12.946 26.156,12.912 26.069,12.912ZM32.08,13.481H32.078C31.972,13.481 31.871,13.439 31.797,13.364C31.722,13.288 31.683,13.186 31.685,13.079C31.686,12.86 31.866,12.681 32.087,12.681C32.197,12.681 32.297,12.723 32.372,12.798C32.446,12.872 32.487,12.973 32.486,13.079C32.481,13.299 32.299,13.48 32.08,13.481ZM32.09,12.751C31.905,12.751 31.756,12.898 31.755,13.08C31.754,13.167 31.786,13.252 31.848,13.314C31.91,13.376 31.99,13.411 32.078,13.411V13.446L32.079,13.411C32.261,13.41 32.412,13.259 32.415,13.077C32.417,12.99 32.384,12.908 32.322,12.847C32.261,12.784 32.178,12.751 32.09,12.751ZM27.672,13.413C27.566,13.413 27.467,13.372 27.393,13.297C27.317,13.221 27.277,13.12 27.278,13.012C27.281,12.79 27.463,12.609 27.682,12.609C27.789,12.609 27.888,12.651 27.962,12.725C28.037,12.802 28.078,12.904 28.077,13.012C28.075,13.23 27.893,13.411 27.672,13.413ZM27.683,12.678C27.5,12.678 27.35,12.829 27.347,13.012C27.347,13.101 27.38,13.185 27.443,13.248C27.504,13.31 27.585,13.345 27.672,13.345C27.855,13.341 28.006,13.193 28.007,13.01C28.008,12.92 27.974,12.836 27.913,12.774C27.851,12.713 27.769,12.678 27.683,12.678ZM36.413,13.373H36.411C36.304,13.373 36.206,13.333 36.132,13.258C36.057,13.183 36.017,13.085 36.017,12.979C36.019,12.757 36.201,12.575 36.42,12.573C36.527,12.573 36.627,12.616 36.703,12.69C36.779,12.766 36.819,12.867 36.819,12.973C36.815,13.195 36.632,13.373 36.413,13.373ZM36.421,12.643C36.239,12.644 36.09,12.795 36.087,12.979C36.086,13.066 36.121,13.147 36.181,13.21C36.242,13.271 36.323,13.303 36.411,13.303V13.339L36.413,13.303C36.594,13.303 36.747,13.155 36.75,12.972C36.751,12.885 36.716,12.802 36.655,12.739C36.591,12.678 36.509,12.643 36.421,12.643ZM35.449,13.168C35.343,13.168 35.244,13.127 35.17,13.053C35.095,12.979 35.054,12.878 35.055,12.772C35.059,12.55 35.239,12.37 35.458,12.368C35.567,12.368 35.667,12.409 35.742,12.485C35.816,12.561 35.856,12.66 35.855,12.766C35.853,12.987 35.672,13.167 35.452,13.168H35.449ZM35.46,12.437C35.277,12.439 35.127,12.59 35.124,12.774C35.124,12.86 35.157,12.943 35.219,13.005C35.279,13.066 35.361,13.1 35.448,13.1V13.135L35.45,13.1C35.633,13.099 35.783,12.95 35.784,12.765C35.786,12.678 35.752,12.597 35.69,12.533C35.63,12.472 35.549,12.437 35.46,12.437ZM28.695,13.047C28.591,13.047 28.493,13.007 28.419,12.932C28.344,12.856 28.305,12.755 28.306,12.647C28.306,12.428 28.486,12.246 28.708,12.244C28.815,12.244 28.914,12.286 28.989,12.36C29.064,12.436 29.105,12.538 29.105,12.644C29.101,12.866 28.92,13.046 28.7,13.047H28.695ZM28.709,12.314C28.525,12.316 28.375,12.466 28.375,12.648C28.374,12.736 28.408,12.82 28.469,12.882C28.529,12.944 28.61,12.977 28.695,12.977V13.012L28.699,12.977C28.881,12.976 29.032,12.825 29.036,12.643C29.036,12.555 29.002,12.471 28.94,12.41C28.879,12.347 28.796,12.314 28.709,12.314ZM29.712,13.043H29.71C29.604,13.043 29.506,13.002 29.433,12.927C29.357,12.851 29.315,12.75 29.316,12.642C29.321,12.42 29.502,12.24 29.722,12.24C29.83,12.24 29.93,12.282 30.004,12.357C30.078,12.433 30.118,12.532 30.115,12.639C30.114,12.859 29.932,13.041 29.712,13.043ZM29.724,12.311C29.54,12.311 29.39,12.459 29.387,12.643C29.386,12.732 29.421,12.815 29.482,12.878C29.543,12.938 29.625,12.973 29.711,12.973V13.007L29.712,12.973C29.894,12.971 30.046,12.821 30.049,12.639C30.05,12.551 30.016,12.469 29.955,12.408C29.894,12.344 29.811,12.311 29.724,12.311ZM34.438,12.992C34.33,12.992 34.229,12.95 34.153,12.874C34.077,12.799 34.038,12.699 34.039,12.592C34.041,12.372 34.223,12.192 34.442,12.19C34.552,12.19 34.651,12.23 34.724,12.306C34.799,12.381 34.84,12.483 34.838,12.588C34.838,12.81 34.657,12.991 34.438,12.992ZM34.446,12.259C34.261,12.26 34.11,12.411 34.108,12.591C34.107,12.679 34.14,12.763 34.203,12.824C34.265,12.887 34.347,12.922 34.437,12.922C34.618,12.92 34.768,12.771 34.768,12.587C34.77,12.498 34.735,12.416 34.675,12.354C34.614,12.293 34.533,12.259 34.446,12.259ZM33.524,12.789C33.417,12.789 33.316,12.746 33.242,12.67C33.169,12.595 33.129,12.494 33.131,12.385C33.132,12.167 33.311,11.986 33.533,11.985C33.64,11.985 33.74,12.027 33.818,12.102C33.891,12.178 33.931,12.279 33.931,12.384C33.925,12.606 33.744,12.788 33.524,12.789ZM33.532,12.053C33.349,12.054 33.2,12.205 33.199,12.385C33.198,12.476 33.231,12.56 33.292,12.622C33.353,12.684 33.436,12.719 33.524,12.719C33.705,12.718 33.856,12.567 33.86,12.383C33.862,12.297 33.828,12.215 33.766,12.152C33.703,12.088 33.62,12.053 33.532,12.053ZM30.626,12.789C30.518,12.789 30.417,12.747 30.343,12.671C30.269,12.597 30.228,12.496 30.229,12.39C30.233,12.168 30.414,11.988 30.634,11.987C30.742,11.987 30.841,12.029 30.916,12.104C30.991,12.18 31.031,12.281 31.03,12.388C31.027,12.608 30.845,12.789 30.626,12.789ZM30.634,12.056C30.453,12.057 30.303,12.207 30.3,12.391C30.3,12.478 30.334,12.562 30.394,12.623C30.455,12.685 30.537,12.719 30.627,12.719C30.807,12.719 30.957,12.569 30.959,12.387C30.96,12.299 30.928,12.215 30.865,12.153C30.805,12.09 30.723,12.056 30.634,12.056ZM31.62,12.545H31.618C31.511,12.545 31.411,12.503 31.336,12.427C31.26,12.353 31.22,12.252 31.221,12.147C31.224,11.925 31.407,11.743 31.628,11.741C31.735,11.741 31.835,11.782 31.91,11.858C31.984,11.934 32.024,12.035 32.022,12.143C32.019,12.361 31.839,12.543 31.62,12.545ZM31.628,11.811C31.445,11.812 31.293,11.964 31.291,12.147C31.289,12.234 31.323,12.316 31.385,12.377C31.447,12.439 31.53,12.475 31.618,12.475V12.51L31.62,12.475C31.8,12.472 31.95,12.323 31.95,12.142C31.952,12.054 31.919,11.97 31.857,11.908C31.797,11.845 31.715,11.811 31.628,11.811ZM32.6,12.538C32.493,12.538 32.394,12.496 32.318,12.421C32.244,12.347 32.204,12.246 32.206,12.142C32.208,11.92 32.39,11.739 32.609,11.736C32.717,11.736 32.817,11.778 32.891,11.853C32.967,11.929 33.008,12.03 33.008,12.139C33.006,12.359 32.824,12.538 32.601,12.538H32.6ZM32.611,11.806C32.428,11.809 32.277,11.96 32.275,12.143C32.274,12.228 32.307,12.312 32.369,12.373C32.431,12.434 32.512,12.469 32.6,12.469V12.504L32.602,12.469C32.787,12.469 32.938,12.32 32.939,12.139C32.94,12.048 32.905,11.965 32.844,11.902C32.781,11.84 32.697,11.806 32.611,11.806Z" id="path_101"/><path fill="#2b2624ff" d="M25.524,18.741L25.413,18.564C25.475,18.525 31.633,14.803 38.387,18.487L38.287,18.671C31.64,15.045 25.583,18.703 25.524,18.741Z" id="path_102"/><path fill="#ffd34bff" d="M31.539,9.303L32.057,8.538L32.574,9.233L32.106,10.324L31.539,9.303Z" id="path_103"/><path fill="#2b2624ff" d="M32.119,10.562L31.418,9.297L32.054,8.356L32.694,9.218L32.119,10.562ZM31.662,9.308L32.093,10.088L32.452,9.248L32.061,8.718L31.662,9.308Z" id="path_104"/><path fill="#ffd34bff" d="M32.984,10.921C32.978,11.439 32.553,11.861 32.04,11.861C31.524,11.863 31.11,11.45 31.112,10.932C31.121,10.414 31.544,9.991 32.06,9.99C32.572,9.987 32.99,10.406 32.984,10.921Z" id="path_105"/><path fill="#2b2624ff" d="M32.034,11.965C31.758,11.965 31.499,11.858 31.305,11.663C31.112,11.468 31.006,11.208 31.007,10.93C31.015,10.354 31.488,9.885 32.059,9.884C32.337,9.884 32.597,9.993 32.791,10.189C32.986,10.384 33.09,10.645 33.087,10.921C33.082,11.497 32.611,11.965 32.04,11.965C32.039,11.965 32.034,11.965 32.034,11.965ZM32.062,10.093C31.601,10.094 31.222,10.471 31.216,10.933C31.215,11.154 31.301,11.362 31.454,11.517C31.607,11.672 31.814,11.757 32.033,11.757V11.861L32.037,11.757C32.495,11.757 32.874,11.382 32.878,10.92C32.882,10.701 32.796,10.493 32.642,10.336C32.488,10.179 32.281,10.093 32.062,10.093Z" id="path_106"/><path fill="#ffd34bff" d="M31.229,12.801L30.904,13.285L30.628,13.444L30.735,13.8L30.556,13.97L30.675,14.273L30.445,14.493L30.626,14.782L30.475,14.924L30.621,15.17L30.454,15.328L30.648,15.665L30.478,15.829L30.914,16.246L31.432,15.749L31.164,15.663L31.331,15.345L31.126,15.262L31.305,14.936L31.143,14.78L31.331,14.42L31.138,14.231L31.362,13.863L31.186,13.694L31.444,13.355L31.28,13.197L31.229,12.801Z" id="path_107"/><path fill="#2b2624ff" d="M30.912,16.337L30.382,15.828L30.565,15.651L30.369,15.314L30.535,15.157L30.391,14.91L30.54,14.768L30.361,14.48L30.596,14.255L30.478,13.951L30.657,13.779L30.548,13.411L30.858,13.234L31.273,12.617L31.343,13.164L31.534,13.347L31.276,13.686L31.448,13.85L31.223,14.218L31.413,14.405L31.225,14.765L31.389,14.921L31.222,15.227L31.426,15.309L31.261,15.62L31.56,15.718L30.912,16.337ZM30.574,15.828L30.913,16.153L31.306,15.777L31.07,15.7L31.238,15.378L31.033,15.293L31.223,14.946L31.062,14.792L31.249,14.431L31.054,14.239L31.278,13.873L31.098,13.701L31.357,13.362L31.219,13.229L31.187,12.985L30.94,13.342L30.708,13.474L30.812,13.818L30.636,13.986L30.755,14.289L30.532,14.503L30.712,14.79L30.559,14.935L30.706,15.182L30.537,15.339L30.732,15.675L30.574,15.828Z" id="path_108"/><path fill="#2b2624ff" d="M30.913,16.317L30.402,15.828L30.583,15.654L30.387,15.318L30.554,15.161L30.408,14.915L30.56,14.772L30.38,14.484L30.615,14.26L30.496,13.955L30.675,13.783L30.567,13.418L30.868,13.245L31.264,12.658L31.33,13.173L31.514,13.35L31.256,13.69L31.428,13.855L31.204,14.222L31.394,14.41L31.207,14.77L31.371,14.925L31.2,15.235L31.403,15.318L31.238,15.631L31.531,15.726L30.913,16.317ZM30.553,15.828L30.913,16.173L31.333,15.771L31.088,15.692L31.257,15.371L31.052,15.288L31.24,14.945L31.078,14.791L31.266,14.431L31.071,14.24L31.295,13.873L31.115,13.701L31.374,13.361L31.231,13.223L31.195,12.948L30.931,13.332L30.689,13.469L30.794,13.817L30.617,13.985L30.736,14.289L30.512,14.503L30.692,14.792L30.54,14.936L30.686,15.182L30.518,15.34L30.713,15.676L30.553,15.828Z" id="path_109"/><path fill="#ee8f22ff" d="M32.901,12.794L33.212,13.275L33.486,13.432L33.372,13.789L33.545,13.957L33.422,14.263L33.646,14.479L33.461,14.768L33.607,14.91L33.457,15.158L33.619,15.314L33.418,15.652L33.586,15.814L33.144,16.236L32.631,15.744L32.903,15.655L32.741,15.339L32.949,15.257L32.779,14.929L32.944,14.769L32.761,14.415L32.96,14.222L32.742,13.858L32.925,13.688L32.673,13.35L32.839,13.193L32.901,12.794Z" id="path_110"/><path fill="#ffd34bff" d="M32.901,12.794L33.212,13.275L33.486,13.432L33.372,13.789L33.545,13.957L33.422,14.263L33.646,14.479L33.461,14.768L33.607,14.91L33.457,15.158L33.619,15.314L33.418,15.652L33.586,15.814L33.144,16.236L32.631,15.744L32.903,15.655L32.741,15.339L32.949,15.257L32.779,14.929L32.944,14.769L32.761,14.415L32.96,14.222L32.742,13.858L32.925,13.688L32.673,13.35L32.839,13.193L32.901,12.794Z" id="path_111"/><path fill="#2b2624ff" d="M33.144,16.327L32.505,15.714L32.807,15.615L32.647,15.303L32.856,15.22L32.696,14.916L32.86,14.755L32.68,14.401L32.875,14.21L32.658,13.845L32.836,13.679L32.583,13.341L32.776,13.159L32.858,12.611L33.258,13.225L33.563,13.401L33.446,13.771L33.621,13.94L33.498,14.247L33.729,14.468L33.544,14.758L33.69,14.9L33.539,15.147L33.7,15.304L33.5,15.642L33.68,15.814L33.144,16.327ZM32.757,15.772L33.144,16.144L33.49,15.814L33.333,15.663L33.535,15.326L33.372,15.168L33.523,14.921L33.376,14.777L33.561,14.487L33.344,14.279L33.467,13.972L33.295,13.807L33.406,13.463L33.158,13.311L32.94,12.975L32.902,13.222L32.761,13.356L33.013,13.694L32.827,13.87L33.043,14.232L32.842,14.428L33.024,14.783L32.859,14.941L33.041,15.289L32.832,15.373L32.995,15.694L32.757,15.772Z" id="path_112"/></svg>