<svg id="vector" xmlns="http://www.w3.org/2000/svg" width="64.0d" height="64.0d" viewBox="0 0 64.0 64.0"><path fill="#ffffffff" d="M32,32m-31.75,0a31.75,31.75 0,1 1,63.5 0a31.75,31.75 0,1 1,-63.5 0" stroke="#e6e6e6ff" stroke-width="0.5" id="path_0"/><path fill="#45978eff" d="M28.136,30.441C28.136,31.848 28.144,33.257 28.131,34.665C28.127,35.047 28.172,35.42 28.234,35.794C28.307,36.228 28.704,36.557 29.143,36.617C30.579,36.809 32.022,36.66 33.46,36.709C33.598,36.714 33.617,36.683 33.551,36.552C33.409,36.273 33.277,35.987 33.167,35.693C32.996,35.239 32.891,34.766 32.861,34.279C32.816,33.547 32.917,32.833 33.154,32.141C33.364,31.526 33.661,30.958 34.134,30.495C34.688,29.954 35.35,29.609 36.095,29.409C36.724,29.239 37.376,29.254 37.998,29.334C38.778,29.434 39.503,29.73 40.103,30.308C40.632,30.818 41.014,31.408 41.274,32.073C41.592,32.887 41.675,33.781 41.551,34.644C41.49,35.076 41.377,35.501 41.216,35.907C41.136,36.11 41.031,36.3 40.942,36.498C40.863,36.672 40.895,36.707 41.093,36.707C42.314,36.71 43.536,36.725 44.757,36.698C45.091,36.69 45.435,36.618 45.752,36.444C45.955,36.333 46.086,36.182 46.144,35.993C46.22,35.741 46.264,35.47 46.266,35.207C46.278,33.959 46.278,32.711 46.266,31.463C46.264,31.225 46.336,31.059 46.539,30.954C47.31,30.553 48.083,30.156 48.856,29.761C49.021,29.677 49.06,29.699 49.068,29.86C49.074,29.972 49.07,30.084 49.07,30.196C49.07,32.005 49.052,33.813 49.078,35.621C49.089,36.431 48.816,37.132 48.407,37.797C47.929,38.576 47.182,39.007 46.333,39.267C46.037,39.359 45.713,39.394 45.4,39.395C43.022,39.405 40.643,39.403 38.265,39.397C38.032,39.396 37.799,39.324 37.565,39.308C37.325,39.292 37.079,39.276 36.843,39.31C35.551,39.499 34.254,39.373 32.96,39.396C31.675,39.418 30.388,39.422 29.103,39.394C27.988,39.371 26.996,39.001 26.25,38.139C25.855,37.683 25.615,37.133 25.431,36.559C25.337,36.265 25.337,35.968 25.337,35.669C25.337,32.853 25.337,30.036 25.337,27.22C25.337,27.124 25.343,27.027 25.335,26.931C25.324,26.785 25.386,26.693 25.516,26.626C26.289,26.23 27.059,25.827 27.834,25.435C28.07,25.315 28.134,25.362 28.135,25.641C28.138,27.24 28.136,28.84 28.136,30.441ZM35.646,33.744C35.651,33.744 35.655,33.745 35.66,33.745C35.66,33.809 35.663,33.872 35.66,33.937C35.626,34.547 35.854,35.077 36.202,35.554C36.379,35.796 36.619,35.996 36.843,36.202C37.112,36.45 37.217,36.45 37.537,36.232C37.667,36.143 37.801,36.057 37.915,35.95C38.597,35.301 38.889,34.493 38.841,33.565C38.798,32.727 38.229,32.065 37.414,31.919C37.033,31.851 36.646,31.948 36.333,32.167C36.02,32.386 35.767,32.683 35.7,33.082C35.662,33.299 35.662,33.523 35.646,33.744Z" id="path_1"/><path fill="#45978eff" d="M17.849,39.4C16.917,39.4 15.984,39.402 15.053,39.398C14.807,39.398 14.762,39.331 14.875,39.111C15.059,38.752 15.254,38.4 15.443,38.044C15.61,37.728 15.735,37.293 15.965,37.023C16.316,36.61 16.904,36.659 17.392,36.694C18.041,36.742 18.702,36.721 19.352,36.704C19.6,36.699 19.855,36.653 20.092,36.581C20.544,36.444 20.683,36.031 20.692,35.647C20.728,34.242 20.253,33.055 19.051,32.225C18.921,32.136 18.794,32.041 18.667,31.948C18.48,31.812 18.424,31.622 18.535,31.435C18.9,30.829 19.268,30.225 19.642,29.624C19.787,29.391 19.789,29.404 20.02,29.537C20.654,29.904 21.236,30.342 21.737,30.874C22.504,31.688 23.075,32.611 23.325,33.722C23.595,34.914 23.712,36.246 23.284,37.418C22.962,38.298 22.391,38.979 21.423,39.232C21.104,39.315 20.788,39.403 20.453,39.401C19.585,39.397 18.717,39.4 17.849,39.4Z" id="path_2"/><path fill="#45978eff" d="M21.287,26.137C21.319,26.386 21.259,26.659 21.133,26.918C20.915,27.364 20.482,27.502 20.053,27.575C19.415,27.683 18.893,27.407 18.536,26.89C18.344,26.613 18.282,26.268 18.362,25.919C18.396,25.767 18.401,25.607 18.451,25.462C18.594,25.047 18.882,24.784 19.317,24.678C19.79,24.561 20.244,24.547 20.68,24.815C21.093,25.068 21.265,25.442 21.286,25.905C21.289,25.969 21.287,26.032 21.287,26.137Z" id="path_3"/><path fill="#45978eff" d="M38.688,26.408C38.684,26.621 38.65,26.83 38.593,27.013C38.364,27.75 37.55,27.947 36.982,27.859C36.436,27.774 35.978,27.501 35.832,26.939C35.605,26.072 35.719,25.242 36.744,24.94C37.21,24.802 37.7,24.856 38.119,25.115C38.538,25.375 38.696,25.904 38.688,26.408Z" id="path_4"/><path fill="#45978eff" d="M46.271,26.085C46.227,25.504 46.482,25.072 46.978,24.796C47.533,24.486 48.112,24.53 48.645,24.836C48.954,25.013 49.129,25.335 49.161,25.7C49.184,25.957 49.194,26.216 49.169,26.477C49.118,27.003 48.796,27.37 48.278,27.492C47.971,27.564 47.687,27.593 47.357,27.52C46.996,27.442 46.749,27.27 46.53,27.018C46.344,26.806 46.27,26.487 46.271,26.085Z" id="path_5"/></svg>