<svg id="vector" xmlns="http://www.w3.org/2000/svg" width="64.0d" height="64.0d" viewBox="0 0 64.0 64.0"><path fill="#ffffffff" d="M32,32m-31.75,0a31.75,31.75 0,1 1,63.5 0a31.75,31.75 0,1 1,-63.5 0" stroke="#e6e6e6ff" stroke-width="0.5" id="path_0"/><path fill="#1e2447ff" d="M49.656,28.719C49.656,28.212 50.06,27.799 50.558,27.799C51.055,27.799 51.459,28.212 51.459,28.719C51.459,29.227 51.055,29.64 50.558,29.64C50.06,29.64 49.656,29.227 49.656,28.719ZM36.421,36.204C35.924,36.204 35.519,36.616 35.519,37.124C35.519,37.631 35.924,38.045 36.421,38.045C36.918,38.045 37.323,37.632 37.323,37.124C37.323,36.616 36.918,36.204 36.421,36.204ZM38.604,29.398H40.407V32.387C40.407,32.855 40.327,33.265 40.169,33.608C40.011,33.95 39.792,34.239 39.518,34.465C39.242,34.693 38.907,34.869 38.523,34.985C38.134,35.103 37.71,35.163 37.264,35.163H24.507L22.564,37.59H20.541L22.489,35.157L22.254,35.125C21.952,35.084 21.668,35.009 21.41,34.904C20.987,34.732 20.612,34.492 20.296,34.19C19.98,33.89 19.729,33.529 19.548,33.119C19.369,32.71 19.277,32.257 19.277,31.772C19.277,31.287 19.369,30.833 19.548,30.424C19.729,30.014 19.98,29.654 20.296,29.354C20.612,29.052 20.987,28.812 21.41,28.64C21.834,28.468 22.291,28.38 22.767,28.38C23.244,28.38 23.711,28.468 24.131,28.64C24.55,28.812 24.923,29.052 25.239,29.354C25.554,29.655 25.805,30.015 25.985,30.424C26.166,30.833 26.257,31.287 26.257,31.772C26.257,32.258 26.166,32.711 25.985,33.119L25.922,33.248L25.797,33.494H33.007C33.172,33.494 33.324,33.463 33.458,33.4C33.591,33.339 33.71,33.253 33.811,33.147C33.914,33.038 33.993,32.909 34.047,32.759C34.1,32.613 34.127,32.452 34.127,32.282C34.127,32.112 34.1,31.95 34.047,31.804C33.993,31.654 33.914,31.523 33.811,31.416C33.71,31.31 33.591,31.225 33.459,31.163C33.323,31.1 33.172,31.069 33.007,31.069H27.973V29.726L30.711,26.307H32.618L30.142,29.398H33.007C33.42,29.398 33.811,29.472 34.167,29.619C34.524,29.766 34.84,29.97 35.11,30.226C35.377,30.481 35.59,30.789 35.743,31.135C35.896,31.483 35.973,31.869 35.973,32.282C35.973,32.641 35.911,32.987 35.787,33.309L35.717,33.494H37.265C37.876,33.494 38.604,33.234 38.604,31.995V29.398V29.398ZM24.402,31.771C24.402,31.52 24.362,31.284 24.284,31.069C24.206,30.851 24.09,30.661 23.94,30.504C23.792,30.348 23.619,30.223 23.424,30.134C23.229,30.042 23.007,29.996 22.767,29.996C22.526,29.996 22.316,30.042 22.115,30.133C21.917,30.223 21.74,30.348 21.592,30.504C21.442,30.661 21.327,30.851 21.248,31.069C21.171,31.284 21.131,31.52 21.131,31.771C21.131,32.023 21.17,32.258 21.248,32.473C21.327,32.692 21.442,32.881 21.592,33.039C21.741,33.195 21.917,33.32 22.115,33.409C22.315,33.501 22.534,33.546 22.767,33.546C22.999,33.546 23.229,33.501 23.424,33.409C23.618,33.319 23.792,33.195 23.94,33.039C24.09,32.882 24.205,32.692 24.284,32.473C24.362,32.258 24.402,32.023 24.402,31.771ZM54.522,29.398V32.387C54.522,32.855 54.442,33.265 54.284,33.608C54.127,33.95 53.907,34.239 53.633,34.465C53.356,34.693 53.022,34.869 52.638,34.985C52.249,35.103 51.826,35.163 51.379,35.163H47.084L45.141,37.59H43.118L45.066,35.157L44.83,35.125C44.528,35.084 44.244,35.009 43.986,34.904C43.563,34.732 43.188,34.492 42.871,34.19C42.556,33.89 42.305,33.529 42.124,33.119C41.944,32.71 41.853,32.257 41.853,31.772C41.853,31.287 41.944,30.833 42.124,30.424C42.305,30.014 42.556,29.654 42.871,29.354C43.187,29.052 43.562,28.812 43.986,28.64C44.41,28.468 44.867,28.38 45.343,28.38C45.819,28.38 46.287,28.468 46.707,28.64C47.126,28.812 47.499,29.052 47.815,29.354C48.13,29.654 48.381,30.015 48.562,30.424C48.741,30.833 48.833,31.287 48.833,31.772C48.833,32.258 48.741,32.711 48.562,33.119L48.498,33.249L48.373,33.494H51.378C51.989,33.494 52.718,33.234 52.718,31.995V29.398H54.521L54.522,29.398ZM46.98,31.771C46.98,31.52 46.94,31.284 46.862,31.069C46.783,30.851 46.668,30.661 46.518,30.504C46.371,30.348 46.198,30.223 46.003,30.134C45.807,30.042 45.585,29.996 45.345,29.996C45.104,29.996 44.895,30.042 44.694,30.133C44.495,30.223 44.319,30.348 44.171,30.504C44.021,30.661 43.905,30.851 43.827,31.069C43.748,31.285 43.709,31.52 43.709,31.771C43.709,32.023 43.748,32.258 43.827,32.473C43.905,32.692 44.021,32.881 44.17,33.039C44.318,33.195 44.494,33.32 44.693,33.409C44.893,33.501 45.111,33.546 45.344,33.546C45.576,33.546 45.807,33.501 46.002,33.409C46.196,33.319 46.37,33.195 46.518,33.039C46.667,32.882 46.782,32.692 46.861,32.473C46.939,32.258 46.979,32.023 46.979,31.771" id="path_1"/><path fill="#1e2447ff" d="M51.002,39.569C50.511,39.569 50.049,39.657 49.625,39.831C49.202,40.004 48.826,40.246 48.507,40.551C48.188,40.854 47.935,41.218 47.754,41.631C47.572,42.045 47.48,42.501 47.48,42.991C47.48,43.481 47.572,43.94 47.754,44.351C47.935,44.764 48.188,45.128 48.507,45.432C48.826,45.736 49.202,45.978 49.625,46.152C50.048,46.325 50.511,46.413 51.002,46.413C51.492,46.413 51.944,46.325 52.371,46.152C52.799,45.978 53.177,45.736 53.496,45.432C53.814,45.128 54.068,44.764 54.25,44.351C54.431,43.938 54.523,43.48 54.523,42.991C54.523,42.502 54.431,42.044 54.25,41.631C54.068,41.218 53.814,40.854 53.496,40.551C53.178,40.245 52.799,40.004 52.371,39.831C51.944,39.657 51.483,39.569 51.002,39.569ZM51.002,44.784C50.758,44.784 50.535,44.737 50.336,44.646C50.14,44.554 49.965,44.429 49.817,44.272C49.666,44.113 49.549,43.921 49.469,43.7C49.39,43.483 49.35,43.245 49.35,42.991C49.35,42.737 49.39,42.499 49.469,42.282C49.549,42.062 49.666,41.869 49.817,41.71C49.965,41.553 50.14,41.428 50.336,41.336C50.535,41.245 50.759,41.199 51.002,41.199C51.245,41.199 51.456,41.245 51.659,41.336C51.86,41.427 52.037,41.553 52.187,41.71C52.338,41.869 52.454,42.062 52.535,42.282C52.613,42.5 52.653,42.738 52.653,42.991C52.653,43.244 52.613,43.482 52.535,43.7C52.454,43.921 52.338,44.113 52.188,44.272C52.037,44.43 51.86,44.555 51.659,44.646C51.457,44.737 51.236,44.784 51.002,44.784ZM26.517,39.749V43.689C26.517,44.148 26.597,44.551 26.752,44.888C26.906,45.224 27.122,45.508 27.391,45.73C27.663,45.955 27.991,46.126 28.369,46.241C28.75,46.357 29.166,46.416 29.606,46.416C30.046,46.416 30.462,46.356 30.844,46.241C31.221,46.126 31.549,45.955 31.821,45.73C32.09,45.507 32.306,45.224 32.461,44.888C32.616,44.551 32.695,44.148 32.695,43.689V39.749H30.924V43.302C30.924,44.521 30.208,44.777 29.606,44.777C29.004,44.777 28.288,44.521 28.288,43.302V39.749H26.517ZM40.488,42.807C40.478,42.348 40.393,41.921 40.235,41.536C40.066,41.125 39.83,40.772 39.534,40.486C39.237,40.198 38.879,39.971 38.472,39.81C38.064,39.65 37.614,39.568 37.137,39.568C36.551,39.568 36.013,39.677 35.535,39.891C35.062,40.105 34.667,40.42 34.362,40.83C34.172,41.089 34.021,41.417 33.917,41.801C33.861,42.012 33.819,42.244 33.793,42.497C33.771,42.659 33.76,42.825 33.76,42.994C33.759,43.06 33.758,43.128 33.758,43.197V48.632H35.516V46.01C35.611,46.063 35.71,46.11 35.811,46.154C36.216,46.327 36.659,46.415 37.127,46.415C37.594,46.415 38.028,46.327 38.437,46.154C38.845,45.98 39.207,45.738 39.512,45.434C39.816,45.129 40.058,44.766 40.232,44.352C40.405,43.94 40.493,43.482 40.493,42.993L40.489,42.805L40.488,42.807ZM38.591,43.702C38.515,43.923 38.402,44.115 38.256,44.274C38.111,44.432 37.94,44.557 37.745,44.648C37.551,44.739 37.337,44.786 37.111,44.786C36.885,44.786 36.66,44.739 36.469,44.648C36.28,44.557 36.111,44.431 35.966,44.274C35.82,44.115 35.708,43.923 35.63,43.702C35.554,43.485 35.516,43.247 35.516,42.993C35.516,42.739 35.554,42.501 35.63,42.284C35.707,42.064 35.82,41.872 35.966,41.713C36.11,41.556 36.279,41.43 36.469,41.339C36.661,41.247 36.877,41.201 37.111,41.201C37.345,41.201 37.55,41.247 37.745,41.339C37.94,41.429 38.112,41.556 38.256,41.713C38.402,41.872 38.514,42.064 38.591,42.284C38.667,42.502 38.706,42.74 38.706,42.993C38.706,43.247 38.668,43.485 38.591,43.702ZM47.281,45.737C47.207,45.782 47.12,45.832 47.021,45.889C46.873,45.972 46.691,46.054 46.478,46.131L46.425,46.149C46.224,46.218 45.994,46.28 45.738,46.332C45.511,46.376 45.26,46.403 44.991,46.411C44.495,46.406 44.027,46.319 43.598,46.151C43.157,45.977 42.764,45.734 42.431,45.431C42.099,45.126 41.834,44.763 41.645,44.349C41.49,44.01 41.398,43.642 41.37,43.252L41.362,43.082L41.36,43.003V42.964C41.361,42.877 41.365,42.792 41.372,42.708L41.373,42.689L41.379,42.616C41.416,42.266 41.504,41.936 41.644,41.63C41.834,41.217 42.098,40.854 42.431,40.549C42.763,40.244 43.155,40.002 43.597,39.829C43.968,39.682 44.369,39.598 44.79,39.574H44.817C45.151,39.574 45.46,39.602 45.737,39.658C46.015,39.714 46.265,39.781 46.478,39.858C46.69,39.934 46.873,40.015 47.021,40.1C47.119,40.156 47.206,40.207 47.28,40.252L46.511,41.622L46.451,41.587C46.36,41.536 46.246,41.483 46.112,41.428C45.977,41.372 45.819,41.324 45.644,41.282C45.482,41.244 45.303,41.223 45.113,41.22C44.88,41.222 44.663,41.269 44.471,41.356C44.276,41.447 44.102,41.571 43.955,41.726C43.805,41.884 43.69,42.075 43.611,42.293C43.533,42.508 43.493,42.744 43.493,42.995C43.493,43.247 43.533,43.483 43.611,43.699C43.69,43.917 43.805,44.107 43.955,44.264C44.104,44.42 44.277,44.545 44.471,44.635C44.663,44.724 44.88,44.769 45.116,44.771C45.305,44.768 45.483,44.747 45.645,44.709C45.82,44.668 45.978,44.619 46.113,44.564C46.246,44.508 46.36,44.455 46.452,44.404L46.512,44.37L47.281,45.739V45.737ZM23.686,46.234H25.456V42.294C25.456,41.835 25.377,41.431 25.222,41.095C25.067,40.757 24.851,40.475 24.583,40.252C24.311,40.028 23.982,39.857 23.605,39.742C23.223,39.625 22.807,39.567 22.367,39.567C21.927,39.567 21.512,39.626 21.13,39.742C20.752,39.857 20.423,40.028 20.152,40.252C19.882,40.475 19.668,40.759 19.513,41.095C19.358,41.431 19.279,41.835 19.279,42.294V46.234H21.05V42.681C21.05,41.461 21.767,41.206 22.368,41.206C22.97,41.206 23.686,41.461 23.686,42.681V46.234H23.686Z" id="path_2"/><path fill="@drawable/$partner_nupco__0" d="M13.77,16.031L10.111,18.202C10.037,18.245 9.997,18.326 10.001,18.409V22.517C9.994,22.603 10.034,22.687 10.112,22.733L12.668,24.248C12.814,24.335 12.998,24.226 12.998,24.055V23.038C12.998,22.958 12.956,22.884 12.888,22.845L11.301,21.904V19.03L13.883,17.499L16.468,19.031V22.007C16.468,22.09 16.514,22.166 16.586,22.205L17.448,22.664C17.594,22.743 17.767,22.635 17.767,22.467V18.418C17.775,18.332 17.734,18.247 17.657,18.201L13.993,16.031L13.881,16L13.77,16.031" id="path_3"/><path fill="@drawable/$partner_nupco__1" d="M16.574,23.134C16.509,23.175 16.469,23.248 16.469,23.327V24.388C16.469,24.472 16.514,24.55 16.587,24.588L17.443,25.046L17.545,25.073L17.66,25.04C17.727,24.999 17.767,24.925 17.767,24.846V23.785C17.767,23.701 17.721,23.624 17.648,23.585L16.792,23.127L16.689,23.101L16.574,23.134Z" id="path_4"/><path fill="@drawable/$partner_nupco__2" d="M18.409,20.702V21.72C18.409,21.799 18.45,21.874 18.517,21.914L20.104,22.853V25.727L17.523,27.26L14.937,25.727V22.751C14.937,22.669 14.892,22.592 14.819,22.553L13.958,22.093C13.811,22.015 13.637,22.123 13.637,22.291V26.34C13.63,26.425 13.67,26.51 13.748,26.556L17.413,28.728C17.482,28.769 17.567,28.769 17.636,28.728L21.296,26.556C21.369,26.513 21.409,26.431 21.406,26.35V22.242C21.412,22.156 21.372,22.072 21.295,22.024L18.737,20.51L18.628,20.48C18.514,20.48 18.409,20.573 18.409,20.703" id="path_5"/></svg>