<svg id="vector" xmlns="http://www.w3.org/2000/svg" width="64.0d" height="64.0d" viewBox="0 0 64.0 64.0"><defs><clipPath id="clip_path_0"><path d="M49.897,18.617H13.51V43.078H49.897V18.617Z"/></clipPath><clipPath id="clip_path_1"><path d="M49.897,18.617H13.51V43.078H49.897V18.617Z"/></clipPath><clipPath id="clip_path_2"><path d="M49.897,18.617H13.51V43.078H49.897V18.617Z"/></clipPath><clipPath id="clip_path_3"><path d="M49.897,18.617H13.51V43.078H49.897V18.617Z"/></clipPath><clipPath id="clip_path_4"><path d="M49.897,18.617H13.51V43.078H49.897V18.617Z"/></clipPath><clipPath id="clip_path_5"><path d="M49.897,18.617H13.51V43.078H49.897V18.617Z"/></clipPath><clipPath id="clip_path_6"><path d="M49.897,18.617H13.51V43.078H49.897V18.617Z"/></clipPath><clipPath id="clip_path_7"><path d="M39.556,21.081H24.087V42.897H39.556V21.081Z"/></clipPath><clipPath id="clip_path_8"><path d="M50.972,9H24.073V42.76H50.972V9Z"/></clipPath><clipPath id="clip_path_9"><path d="M43.834,21.461H19.683V29.264H43.834V21.461Z"/></clipPath><clipPath id="clip_path_10"><path d="M40.902,25.443H22.696V29.285H40.902V25.443Z"/></clipPath></defs><path fill="#ffffffff" d="M32,32m-31.75,0a31.75,31.75 0,1 1,63.5 0a31.75,31.75 0,1 1,-63.5 0" stroke="#e6e6e6ff" stroke-width="0.5" id="path_0"/><path fill="#ac8f3dff" d="M27.088,53.621C26.86,54.074 26.67,54.534 26.509,55C28.035,53.403 29.848,52.156 31.821,51.301C31.046,50.965 30.248,50.69 29.432,50.478C28.497,51.353 27.697,52.407 27.088,53.621Z" id="path_1"/><path fill="#ac8f3dff" d="M41.992,48.689C38.664,46.993 34.888,47.151 31.821,48.776C32.681,49.231 33.487,49.799 34.21,50.477C37.921,49.512 41.981,49.85 45.67,51.729C45.679,51.733 45.687,51.738 45.696,51.742C44.728,50.503 43.483,49.448 41.992,48.689Z" id="path_2"/><path fill="#ac8f3dff" d="M37.133,55C36.972,54.534 36.781,54.073 36.554,53.621C35.945,52.407 35.145,51.352 34.21,50.477C33.395,50.689 32.596,50.965 31.822,51.3C33.793,52.156 35.606,53.403 37.133,55Z" id="path_3"/><path fill="#ac8f3dff" d="M21.65,48.689C20.16,49.449 18.914,50.503 17.946,51.743C17.954,51.738 17.963,51.733 17.972,51.729C21.661,49.849 25.721,49.512 29.431,50.477C30.155,49.799 30.961,49.231 31.821,48.776C28.753,47.151 24.979,46.994 21.65,48.689Z" id="path_4"/><path fill="#88673aff" d="M29.431,50.477C30.247,50.69 31.045,50.965 31.821,51.301C32.595,50.965 33.394,50.69 34.209,50.477C33.486,49.8 32.681,49.23 31.821,48.775C30.961,49.23 30.155,49.8 29.431,50.477Z" id="path_5"/><g id="g_0"><g clip-path="url(#clip_path_0)"><path fill="#c5c5c5ff" d="M31.644,36.843C31.685,36.875 31.726,36.906 31.767,36.938C31.808,36.906 31.849,36.875 31.891,36.843C36.078,33.607 38.261,30.07 38.261,30.07L31.767,18.617L25.273,30.07C25.273,30.07 27.457,33.607 31.644,36.843Z" stroke-opacity="0.47" fill-opacity="0.47"/></g></g><g id="g_1"><g clip-path="url(#clip_path_1)"><path fill="#c5c5c5ff" d="M32.362,34.87C32.446,33.908 33.446,33.242 34.314,33.14C34.576,33.11 34.851,33.147 35.115,33.236L35.347,27.929C35.347,27.929 32.061,25.949 27.249,25.072C27.202,25.064 27.154,25.056 27.107,25.048C19.779,23.757 13.509,26.186 13.509,26.186L32.028,38.314C32.04,37.164 32.261,36.013 32.362,34.87Z" stroke-opacity="0.47" fill-opacity="0.47"/></g></g><g id="g_2"><g clip-path="url(#clip_path_2)"><path fill="#c5c5c5ff" d="M35.293,30.31C35.456,29.665 35.901,29.195 36.454,28.946L35.378,26.33C35.378,26.33 31.568,25.938 26.841,27.196C26.795,27.208 26.749,27.221 26.703,27.234C19.523,29.19 14.862,34.065 14.862,34.065L34.117,36.785C33.815,34.616 34.754,32.437 35.293,30.31Z" stroke-opacity="0.47" fill-opacity="0.47"/></g></g><g id="g_3"><g clip-path="url(#clip_path_3)"><path fill="#c5c5c5ff" d="M37.802,28.19C37.802,28.19 37.8,28.19 37.8,28.19C37.681,28.155 37.56,28.088 37.448,28.04C37.208,27.94 36.967,27.84 36.724,27.742C36.265,27.555 35.805,27.371 35.344,27.191C34.376,26.81 33.402,26.443 32.428,26.08C31.384,25.693 30.755,24.795 30.882,23.696C30.725,23.566 30.576,23.424 30.444,23.271C29.492,24.159 27.365,26.327 25.522,29.517C25.498,29.558 25.474,29.6 25.451,29.642C21.746,36.143 21.871,42.909 21.871,42.909L38.525,30.252C37.812,29.915 38.527,28.502 37.802,28.19Z" stroke-opacity="0.47" fill-opacity="0.47"/></g></g><g id="g_4"><g clip-path="url(#clip_path_4)"><path fill="#c5c5c5ff" d="M31.216,35.018C31.113,34.059 30.1,33.412 29.23,33.326C28.968,33.301 28.693,33.343 28.431,33.438L28.097,28.137C28.097,28.137 31.345,26.093 36.138,25.122C36.186,25.113 36.232,25.104 36.279,25.094C43.58,23.66 49.896,25.966 49.896,25.966L31.615,38.455C31.581,37.305 31.338,36.16 31.216,35.018Z" stroke-opacity="0.47" fill-opacity="0.47"/></g></g><g id="g_5"><g clip-path="url(#clip_path_5)"><path fill="#c5c5c5ff" d="M28.221,30.31C28.058,29.665 27.612,29.195 27.059,28.946L28.135,26.33C28.135,26.33 31.946,25.938 36.672,27.196C36.719,27.208 36.765,27.221 36.811,27.234C43.991,29.19 48.651,34.065 48.651,34.065L29.396,36.785C29.698,34.616 28.76,32.437 28.221,30.31Z" stroke-opacity="0.47" fill-opacity="0.47"/></g></g><g id="g_6"><g clip-path="url(#clip_path_6)"><path fill="#c5c5c5ff" d="M37.95,29.811C37.926,29.769 37.902,29.728 37.879,29.686C36.036,26.496 33.907,24.328 32.955,23.441C32.824,23.594 32.675,23.736 32.517,23.866C32.646,24.965 32.016,25.863 30.973,26.25C29.997,26.613 29.024,26.98 28.056,27.361C27.594,27.541 27.134,27.725 26.675,27.912C26.434,28.011 26.192,28.11 25.951,28.212C25.886,28.238 25.819,28.271 25.75,28.302C26.002,28.39 26.253,28.482 26.5,28.588C27.677,29.088 28.676,29.982 28.955,31.293C29.108,32.014 28.95,32.699 28.542,33.211L41.528,43.08C41.529,43.078 41.654,36.311 37.95,29.811Z" stroke-opacity="0.47" fill-opacity="0.47"/></g></g><g id="g_7"><g clip-path="url(#clip_path_7)"><path fill="@drawable/$partner_efaa__0" d="M39.554,21.081H24.087V42.897H39.554V21.081Z" stroke-opacity="0.1412" fill-opacity="0.1412"/></g></g><g id="g_8"><path fill="#e8e8e8ff" d="M24.073,29.173C24.073,29.173 26.664,24.977 31.631,21.138C39.259,15.242 50.971,9 50.971,9L31.777,42.76L24.073,29.173Z" clip-path="url(#clip_path_8)"/><g><path fill="#45a0a3ff" d="M50.972,9H24.073V42.76H50.972V9Z"/></g></g><path fill="@drawable/$partner_efaa__1" d="M39.478,29.169C39.478,29.169 36.887,24.974 31.92,21.135C24.293,15.238 15.633,14.29 15.633,14.29L31.774,42.756L39.478,29.169Z" id="path_6"/><g id="g_9"><path fill="@drawable/$partner_efaa__2" d="M39.445,29.232L39.434,29.252C39.439,29.257 39.443,29.259 39.449,29.264L43.835,21.549C41.773,21.648 39.544,21.93 37.254,22.503C37.194,22.518 37.134,22.533 37.072,22.548C36.14,22.788 35.257,23.057 34.426,23.342C37.734,26.463 39.445,29.232 39.445,29.232Z" stroke-opacity="0.22" fill-opacity="0.22" clip-path="url(#clip_path_9)"/></g><path fill="@drawable/$partner_efaa__3" d="M24.082,29.215L24.049,29.158C24.049,29.158 25.794,26.333 29.168,23.173C28.418,22.924 27.629,22.686 26.799,22.473C26.74,22.459 26.679,22.444 26.619,22.428C25.407,22.125 24.213,21.903 23.052,21.747C21.892,21.592 20.763,21.502 19.683,21.46L24.081,29.216L24.082,29.215Z" stroke-opacity="0.22" fill-opacity="0.22" id="path_7"/><g id="g_10"><path fill="#9b9a9aff" d="M25.471,25.836C24.508,26.097 23.583,26.402 22.694,26.734L24.063,29.144C24.063,29.144 25.033,27.571 26.927,25.472C26.508,25.568 26.08,25.671 25.647,25.786C25.587,25.803 25.53,25.819 25.471,25.836Z" stroke-opacity="0.22" fill-opacity="0.22" clip-path="url(#clip_path_10)"/><g><path fill="@drawable/$partner_efaa__4" d="M26.927,25.473H22.694V29.145H26.927V25.473Z" stroke-opacity="0.22" fill-opacity="0.22"/></g></g><path fill="@drawable/$partner_efaa__5" d="M38.41,25.904C38.351,25.889 38.293,25.872 38.235,25.855C37.784,25.736 37.342,25.629 36.906,25.531C36.769,25.501 36.631,25.471 36.496,25.442C36.745,25.717 36.979,25.981 37.196,26.237C38.688,27.978 39.451,29.214 39.451,29.214L39.418,29.273C39.422,29.276 39.426,29.28 39.431,29.284L40.902,26.698C40.1,26.406 39.268,26.139 38.41,25.904Z" stroke-opacity="0.22" fill-opacity="0.22" id="path_8"/></svg>