<svg id="vector" xmlns="http://www.w3.org/2000/svg" width="64.0d" height="64.0d" viewBox="0 0 64.0 64.0"><path fill="#ffffffff" d="M32,32m-31.75,0a31.75,31.75 0,1 1,63.5 0a31.75,31.75 0,1 1,-63.5 0" stroke="#e6e6e6ff" stroke-width="0.5" id="path_0"/><path fill="#69767bff" d="M14.766,48.404C14.073,48.584 13.804,48.647 13.508,48.647C12.97,48.647 12.532,48.518 12.243,48.273C12.195,48.232 12.155,48.184 12.124,48.129C12.018,47.941 12.058,47.685 12.222,47.507C12.239,47.489 12.256,47.472 12.262,47.461C12.811,47.298 13.473,47.179 14.126,47.128L14.146,47.127L14.276,46.529L14.238,46.533C13.797,46.585 13.389,46.655 13.036,46.741C12.489,46.64 12.084,46.192 12.025,45.641C12.239,45.23 12.69,44.942 13.121,44.942C13.341,44.942 13.544,44.994 13.924,45.148L13.946,45.157L14.069,44.933L14.048,44.92C13.908,44.83 13.799,44.749 13.694,44.67C13.555,44.566 13.424,44.467 13.22,44.356C12.444,44.356 11.613,44.954 11.613,45.846C11.613,46.286 11.88,46.744 12.281,47.001C12.242,47.022 12.113,47.097 12.113,47.097C12.032,47.149 11.956,47.237 11.889,47.36C11.647,47.807 11.675,48.336 11.96,48.706C12.133,48.931 12.368,49.086 12.641,49.155C12.898,49.219 13.187,49.252 13.499,49.252H13.505L13.51,49.25C13.754,49.143 13.961,49.048 14.163,48.956C14.387,48.853 14.604,48.754 14.855,48.645L14.879,48.635L14.789,48.398L14.766,48.404ZM28.001,44.285C27.213,44.285 26.71,45.435 26.71,46.037C26.71,46.529 27.256,46.876 28.488,47.165H15.993C15.977,45.738 15.94,44.966 15.874,43.571L15.847,42.993H15.232L15.235,43.021C15.409,44.974 15.476,46.225 15.533,47.726L15.534,47.752H29.076L29.08,47.73C29.106,47.601 29.185,46.752 29.185,46.543C29.185,45.129 28.743,44.285 28.001,44.285ZM28.725,46.69C27.972,46.536 27.607,46.38 27.125,46.03C27.18,45.398 27.556,44.844 27.929,44.844C28.397,44.844 28.725,45.583 28.725,46.642V46.69ZM28.45,43.444L27.979,42.992L27.48,43.51L27.991,43.972L28.45,43.444ZM48.649,43.876L48.178,43.424L47.679,43.942L48.19,44.403L48.649,43.876ZM42.778,43.885L42.306,43.424L41.807,43.942L42.318,44.403L42.778,43.885ZM41.702,43.875L41.231,43.424L40.732,43.942L41.243,44.403L41.702,43.875ZM44.698,44.805L44.124,45.132L44.136,45.155C44.534,45.931 44.775,46.561 44.92,47.185C44.702,47.883 44.234,48.437 43.697,48.632C43.458,48.739 43.08,48.809 42.687,48.819L42.662,48.82L42.651,49.068L43.987,49.247C44.809,48.621 45.28,47.807 45.28,47.012C45.28,46.518 45.104,45.846 44.709,44.835L44.698,44.805ZM46.903,47.75C46.86,45.789 46.824,44.888 46.742,43.018L46.741,42.992H46.126L46.128,43.021C46.269,44.841 46.325,45.908 46.404,47.383L46.424,47.75H46.903V47.75ZM48.617,44.805L48.043,45.132L48.055,45.155C48.452,45.931 48.694,46.561 48.839,47.185C48.621,47.883 48.153,48.437 47.616,48.632C47.376,48.739 46.999,48.809 46.606,48.819L46.581,48.82L46.57,49.068L47.905,49.247C48.728,48.621 49.199,47.807 49.199,47.012C49.199,46.518 49.023,45.846 48.628,44.835L48.617,44.805ZM51.204,44.709C50.462,44.709 49.903,45.756 49.903,46.434C49.903,47.015 50.538,47.4 51.843,47.611C51.636,48.085 51.263,48.471 50.841,48.65C50.609,48.753 50.251,48.81 49.776,48.819L49.752,48.82L49.729,49.068L51.067,49.247C51.918,48.615 52.387,47.77 52.387,46.868C52.387,45.556 51.923,44.709 51.204,44.709ZM50.318,46.428C50.39,45.811 50.77,45.269 51.132,45.269C51.584,45.269 51.897,45.945 51.97,47.081C51.133,46.958 50.62,46.75 50.318,46.428ZM35.913,43.018L35.912,42.992H35.297L35.299,43.021C35.429,44.695 35.486,45.708 35.564,47.165H32.812C32.55,47.165 32.359,47.022 32.194,46.7C31.949,46.239 31.792,45.559 31.7,44.561L31.697,44.523L31.165,44.755L31.168,44.775C31.311,45.778 31.556,46.606 31.858,47.106C31.876,47.137 31.895,47.163 31.915,47.191C31.606,47.244 31.308,47.255 30.959,47.255C30.542,47.255 30.177,47.216 29.773,47.129L29.745,47.124L29.646,47.681L29.671,47.687C30.074,47.785 30.524,47.842 30.905,47.842C31.298,47.842 31.713,47.831 32.094,47.751L32.111,47.748L32.176,47.495C32.362,47.661 32.564,47.746 32.767,47.746L32.786,47.751L36.076,47.75L36.075,47.723C36.032,45.742 35.996,44.9 35.913,43.018ZM43.237,47.102C43.239,46.75 42.655,45.523 42.179,44.786C42.06,44.845 41.855,44.998 41.728,45.1C41.057,45.638 40.591,46.351 40.591,46.84C40.591,47.392 41.17,47.842 41.882,47.842C42.32,47.842 42.743,47.732 43.054,47.528L43.237,47.102ZM41.928,47.274C41.55,47.274 41.207,47.109 41.013,46.857C41.19,46.326 41.55,45.835 42.002,45.505C42.318,46.004 42.535,46.459 42.744,47.063C42.492,47.218 42.159,47.274 41.928,47.274ZM37.629,47.75C37.586,45.788 37.55,44.887 37.468,43.018L37.467,42.992H36.851L36.854,43.021C36.995,44.841 37.051,45.908 37.13,47.383L37.149,47.75H37.629V47.75Z" id="path_1"/><path fill="#69767bff" d="M13.061,51.665L12.116,50.334H11.613L11.784,50.574V53.039H12.126V51.053L12.993,52.268L13.899,51.057V53.039H14.308V50.334H14.077L13.061,51.665Z" id="path_2"/><path fill="#69767bff" d="M28.083,51.512L27.468,50.356L27.456,50.334H27L27.825,51.898V53.039H28.235V51.927L29.12,50.334H28.735L28.083,51.512Z" id="path_3"/><path fill="#69767bff" d="M26.222,51.727C26.286,51.684 26.345,51.631 26.399,51.569C26.454,51.506 26.501,51.432 26.538,51.347C26.576,51.263 26.596,51.167 26.596,51.061C26.596,50.932 26.57,50.818 26.522,50.723C26.472,50.627 26.404,50.547 26.319,50.484C26.234,50.421 26.132,50.373 26.015,50.341C25.9,50.309 25.772,50.293 25.634,50.293C25.465,50.293 25.323,50.301 25.213,50.318C25.114,50.332 25.014,50.35 24.915,50.37L24.883,50.377V53.039H25.292V51.942L25.685,51.946L26.469,53.039H26.981L26.055,51.818C26.105,51.799 26.161,51.768 26.222,51.727ZM26.15,51.295C26.128,51.353 26.097,51.405 26.061,51.452C26.025,51.498 25.986,51.537 25.946,51.569C25.914,51.595 25.878,51.621 25.824,51.646H25.292V50.601H25.524C25.748,50.601 25.916,50.64 26.024,50.718C26.132,50.796 26.186,50.924 26.186,51.098C26.186,51.17 26.174,51.236 26.15,51.295Z" id="path_4"/><path fill="#69767bff" d="M15.573,50.334H15.164V53.039H15.573V50.334Z" id="path_5"/><path fill="#69767bff" d="M19.799,50.334H19.389V53.039H19.799V50.334Z" id="path_6"/><path fill="#69767bff" d="M18.186,52.191L16.703,50.335H16.191L16.463,50.675V53.039H16.805V51.107L18.344,53.039H18.532V50.335H18.186V52.191Z" id="path_7"/><path fill="#69767bff" d="M22.416,50.668H23.218V53.039H23.628V50.668H24.362L24.491,50.334H22.416V50.668Z" id="path_8"/><path fill="#69767bff" d="M21.925,51.901C21.877,51.847 21.824,51.798 21.768,51.756C21.712,51.714 21.659,51.677 21.608,51.646L21.361,51.491C21.307,51.46 21.257,51.43 21.209,51.399C21.162,51.368 21.119,51.334 21.081,51.298C21.043,51.261 21.013,51.222 20.992,51.181C20.969,51.14 20.958,51.091 20.958,51.035C20.958,50.969 20.972,50.909 21,50.858C21.028,50.807 21.066,50.764 21.113,50.731C21.159,50.697 21.213,50.672 21.273,50.655C21.333,50.639 21.397,50.63 21.464,50.63C21.589,50.63 21.701,50.656 21.797,50.708C21.864,50.744 21.926,50.786 21.98,50.834L22.047,50.893V50.466L22.028,50.454C22.005,50.44 21.977,50.426 21.944,50.41C21.902,50.391 21.854,50.372 21.801,50.356C21.75,50.339 21.696,50.325 21.635,50.313C21.438,50.276 21.251,50.3 21.095,50.352C20.985,50.388 20.888,50.441 20.809,50.509C20.728,50.578 20.666,50.662 20.623,50.758C20.579,50.855 20.557,50.963 20.557,51.081C20.557,51.214 20.597,51.337 20.676,51.451C20.754,51.564 20.883,51.677 21.059,51.786L21.41,51.998C21.449,52.021 21.489,52.051 21.529,52.086C21.567,52.12 21.601,52.16 21.63,52.205C21.658,52.249 21.671,52.301 21.671,52.359C21.671,52.42 21.658,52.476 21.632,52.524C21.605,52.572 21.569,52.615 21.525,52.649C21.481,52.684 21.429,52.711 21.372,52.73C21.316,52.75 21.256,52.76 21.195,52.76C21.051,52.76 20.922,52.735 20.814,52.687C20.731,52.65 20.651,52.604 20.577,52.552L20.503,52.499L20.562,52.967L20.585,52.975C20.673,53.008 20.77,53.036 20.871,53.058C20.98,53.082 21.097,53.093 21.22,53.093C21.343,53.093 21.459,53.075 21.566,53.039C21.673,53.002 21.766,52.949 21.842,52.883C21.919,52.815 21.98,52.733 22.024,52.638C22.067,52.542 22.089,52.436 22.089,52.321C22.089,52.237 22.073,52.159 22.043,52.089C22.012,52.02 21.972,51.957 21.925,51.901Z" id="path_9"/><path fill="#69767bff" d="M49.967,51.901C49.92,51.847 49.867,51.798 49.811,51.756C49.756,51.715 49.702,51.678 49.651,51.647L49.403,51.491C49.35,51.46 49.3,51.43 49.252,51.398C49.205,51.368 49.162,51.335 49.125,51.298C49.087,51.262 49.057,51.222 49.035,51.181C49.012,51.139 49.001,51.09 49.001,51.035C49.001,50.969 49.015,50.909 49.043,50.858C49.07,50.806 49.108,50.764 49.156,50.731C49.203,50.697 49.257,50.672 49.317,50.656C49.376,50.639 49.44,50.63 49.507,50.63C49.632,50.63 49.744,50.656 49.84,50.708C49.907,50.744 49.969,50.786 50.023,50.834L50.09,50.893V50.466L50.07,50.454C50.048,50.44 50.02,50.425 49.987,50.41C49.945,50.391 49.896,50.372 49.844,50.356C49.792,50.339 49.738,50.325 49.678,50.314C49.48,50.276 49.294,50.3 49.138,50.352C49.027,50.388 48.931,50.441 48.851,50.509C48.771,50.579 48.708,50.663 48.665,50.758C48.622,50.855 48.6,50.964 48.6,51.081C48.6,51.213 48.64,51.337 48.719,51.451C48.797,51.564 48.925,51.677 49.102,51.786L49.453,51.998C49.492,52.021 49.533,52.051 49.572,52.086C49.611,52.121 49.644,52.161 49.673,52.205C49.7,52.249 49.714,52.301 49.714,52.359C49.714,52.42 49.701,52.476 49.675,52.524C49.648,52.572 49.612,52.615 49.568,52.649C49.524,52.684 49.472,52.711 49.416,52.731C49.359,52.75 49.299,52.76 49.238,52.76C49.093,52.76 48.965,52.735 48.856,52.687C48.774,52.649 48.694,52.604 48.62,52.552L48.545,52.499L48.604,52.967L48.628,52.975C48.717,53.008 48.813,53.036 48.913,53.058C49.022,53.082 49.14,53.093 49.263,53.093C49.386,53.093 49.502,53.075 49.609,53.039C49.715,53.002 49.808,52.949 49.885,52.883C49.962,52.815 50.023,52.733 50.067,52.638C50.11,52.543 50.132,52.436 50.132,52.321C50.132,52.237 50.116,52.158 50.086,52.089C50.055,52.019 50.015,51.956 49.967,51.901Z" id="path_10"/><path fill="#69767bff" d="M43.948,51.824H44.708L44.832,51.507H43.948V50.651H44.884L45.013,50.334H43.539V53.039H44.918L45.089,52.71H43.948V51.824Z" id="path_11"/><path fill="#69767bff" d="M41.517,53.039H41.927V51.883H42.707L42.835,51.566H41.927V50.651H42.888L43.016,50.334H41.517V53.039Z" id="path_12"/><path fill="#69767bff" d="M32.543,50.682C32.426,50.558 32.284,50.46 32.121,50.392C31.959,50.323 31.779,50.288 31.587,50.288C31.394,50.288 31.214,50.323 31.052,50.392C30.89,50.46 30.747,50.558 30.63,50.682C30.512,50.807 30.42,50.957 30.354,51.127C30.288,51.297 30.255,51.487 30.255,51.691C30.255,51.898 30.288,52.089 30.354,52.259C30.42,52.43 30.512,52.578 30.63,52.702C30.748,52.825 30.89,52.922 31.052,52.99C31.214,53.059 31.393,53.094 31.587,53.094C31.779,53.094 31.959,53.059 32.121,52.99C32.284,52.922 32.426,52.824 32.543,52.7C32.66,52.576 32.752,52.426 32.819,52.255C32.884,52.085 32.918,51.895 32.918,51.691C32.918,51.487 32.884,51.297 32.819,51.127C32.753,50.956 32.66,50.806 32.543,50.682ZM32.483,51.691C32.483,51.846 32.463,51.991 32.422,52.121C32.382,52.25 32.324,52.363 32.248,52.456C32.173,52.549 32.079,52.623 31.968,52.676C31.857,52.729 31.728,52.756 31.587,52.756C31.445,52.756 31.316,52.729 31.205,52.676C31.094,52.623 30.999,52.549 30.922,52.456C30.846,52.364 30.788,52.251 30.749,52.121C30.709,51.992 30.69,51.847 30.69,51.691C30.69,51.538 30.71,51.394 30.751,51.263C30.791,51.133 30.849,51.02 30.924,50.925C31,50.832 31.094,50.758 31.205,50.706C31.316,50.653 31.445,50.626 31.587,50.626C31.728,50.626 31.857,50.653 31.968,50.706C32.079,50.759 32.174,50.833 32.248,50.925C32.324,51.019 32.382,51.132 32.422,51.263C32.463,51.395 32.483,51.539 32.483,51.691Z" id="path_13"/><path fill="#69767bff" d="M51.246,52.71V51.824H52.006L52.13,51.507H51.246V50.651H52.182L52.311,50.335H50.836V53.039H52.216L52.387,52.71H51.246Z" id="path_14"/><path fill="#69767bff" d="M47.49,52.191L46.007,50.334H45.494L45.767,50.675V53.039H46.109V51.107L47.647,53.039H47.836V50.334H47.49V52.191Z" id="path_15"/><path fill="#69767bff" d="M39.736,51.824H40.496L40.62,51.507H39.736V50.651H40.672L40.801,50.334H39.326V53.039H40.706L40.877,52.71H39.736V51.824Z" id="path_16"/><path fill="#69767bff" d="M33.521,53.039H33.931V51.883H34.712L34.84,51.566H33.931V50.651H34.893L35.021,50.334H33.521V53.039Z" id="path_17"/><path fill="#69767bff" d="M38.354,50.673C38.235,50.552 38.088,50.457 37.916,50.391C37.744,50.326 37.548,50.293 37.333,50.293C37.16,50.293 37.007,50.301 36.879,50.318C36.763,50.333 36.653,50.351 36.551,50.371L36.518,50.377V52.984L36.549,52.992C36.641,53.016 36.752,53.039 36.878,53.06C37.015,53.083 37.167,53.094 37.329,53.094C37.538,53.094 37.732,53.06 37.903,52.992C38.076,52.926 38.224,52.829 38.344,52.706C38.464,52.583 38.558,52.435 38.624,52.266C38.689,52.097 38.723,51.907 38.723,51.699C38.723,51.484 38.691,51.288 38.628,51.116C38.566,50.944 38.473,50.796 38.354,50.673ZM38.288,51.703C38.288,51.84 38.267,51.974 38.223,52.102C38.18,52.23 38.118,52.346 38.037,52.446C37.957,52.546 37.857,52.627 37.739,52.687C37.563,52.776 37.336,52.799 37.104,52.756C37.029,52.742 36.97,52.73 36.928,52.719V50.601H37.231C37.4,50.601 37.552,50.628 37.682,50.683C37.813,50.737 37.924,50.813 38.012,50.909C38.101,51.005 38.17,51.122 38.217,51.257C38.264,51.393 38.288,51.543 38.288,51.703Z" id="path_18"/><path fill="#dbbf74ff" d="M32.419,12.096H31.581C31.581,11.909 31.703,11.75 31.873,11.696C31.913,11.683 31.956,11.676 32,11.676C32.231,11.676 32.419,11.864 32.419,12.096Z" id="path_19"/><path fill="#9e892eff" d="M32.419,12.096C32.419,12.327 32.232,12.515 32,12.515C31.986,12.515 31.971,12.514 31.957,12.513C31.823,12.499 31.707,12.422 31.641,12.311C31.603,12.248 31.581,12.175 31.581,12.096H32.419Z" id="path_20"/><path fill="#dbbf74ff" d="M32,10.906C31.914,11.144 31.696,11.52 31.696,11.52H32H32.304C32.304,11.52 32.086,11.144 32,10.906Z" id="path_21"/><path fill="#9e892eff" d="M32,11.52H31.696L31.873,11.696C31.913,11.683 31.956,11.677 32,11.677C32.045,11.677 32.087,11.683 32.127,11.696L32.304,11.52H32Z" id="path_22"/><path fill="#9ea5a9ff" d="M27.584,19.811C27.544,19.836 27.505,19.863 27.465,19.89L27.551,19.999C27.591,19.972 27.631,19.944 27.672,19.918C28.739,19.228 29.979,18.786 31.313,18.672C31.313,18.626 31.316,18.58 31.319,18.534C29.95,18.648 28.677,19.101 27.584,19.811Z" id="path_23"/><path fill="#9ea5a9ff" d="M26.238,19.246C25.521,19.806 24.889,20.468 24.361,21.209L24.239,21.142C24.777,20.385 25.422,19.708 26.153,19.137L26.238,19.246Z" id="path_24"/><path fill="#9ea5a9ff" d="M32,37.386C31.861,37.386 31.722,37.384 31.584,37.378C31.602,37.398 31.62,37.417 31.638,37.436L31.72,37.521C31.813,37.523 31.906,37.525 32,37.525C32.094,37.525 32.187,37.523 32.28,37.521L32.362,37.436C32.38,37.417 32.398,37.398 32.416,37.378C32.278,37.383 32.139,37.386 32,37.386Z" id="path_25"/><path fill="#9ea5a9ff" d="M30.662,31.686C30.952,31.767 31.213,31.812 31.506,31.839V31.978C31.226,31.953 30.985,31.912 30.71,31.841L30.662,31.686Z" id="path_26"/><path fill="#9ea5a9ff" d="M21.417,24.055C21.454,24.07 21.498,24.085 21.548,24.1H21.549C22.519,20.095 25.739,16.958 29.789,16.108C29.771,16.069 29.75,16.026 29.725,15.981C25.643,16.852 22.401,20.016 21.417,24.055Z" id="path_27"/><path fill="#9ea5a9ff" d="M23.613,22.452C23.324,23.029 23.094,23.64 22.928,24.276C22.88,24.277 22.832,24.277 22.785,24.277C22.953,23.619 23.19,22.989 23.487,22.395L23.613,22.452Z" id="path_28"/><path fill="#9ea5a9ff" d="M22.749,25.127C22.67,25.617 22.628,26.121 22.628,26.633C22.628,27.3 22.698,27.951 22.831,28.578C22.787,28.594 22.744,28.61 22.7,28.626C22.562,27.984 22.489,27.317 22.489,26.633C22.489,26.113 22.532,25.602 22.612,25.105L22.749,25.127Z" id="path_29"/><path fill="#9ea5a9ff" d="M37.737,19.227C38.544,19.854 39.247,20.609 39.813,21.462C39.867,21.459 39.921,21.457 39.975,21.457C39.392,20.562 38.663,19.771 37.822,19.118L37.737,19.227Z" id="path_30"/><path fill="#9ea5a9ff" d="M35.549,22.609C35.705,22.747 35.852,22.893 35.991,23.047L35.863,23.112C35.737,22.974 35.604,22.843 35.464,22.719L35.549,22.609Z" id="path_31"/><path fill="#9ea5a9ff" d="M36.13,21.299C36.546,21.622 36.924,21.993 37.254,22.403L37.129,22.467C36.809,22.074 36.446,21.719 36.046,21.408L36.13,21.299Z" id="path_32"/><path fill="#9ea5a9ff" d="M36.891,20.317C37.453,20.753 37.954,21.262 38.382,21.83C38.425,21.809 38.468,21.79 38.511,21.771C38.072,21.184 37.555,20.658 36.976,20.208L36.891,20.317Z" id="path_33"/><path fill="#9ea5a9ff" d="M21.341,24.389C21.189,25.113 21.109,25.864 21.109,26.633C21.109,27.92 21.333,29.157 21.745,30.304L21.87,30.242C21.467,29.113 21.247,27.898 21.247,26.633C21.247,25.918 21.317,25.219 21.451,24.543C21.404,24.487 21.369,24.438 21.342,24.388H21.341V24.389Z" id="path_34"/><path fill="#9ea5a9ff" d="M23.899,25.952C23.88,26.177 23.871,26.404 23.871,26.633C23.871,27.188 23.927,27.732 24.033,28.256L24.17,28.235C24.065,27.717 24.009,27.182 24.009,26.633C24.009,26.409 24.018,26.188 24.036,25.969C23.989,25.964 23.944,25.958 23.899,25.952H23.899Z" id="path_35"/><path fill="#9ea5a9ff" d="M25.251,26.618C25.25,27.109 25.302,27.588 25.401,28.049L25.538,28.028C25.44,27.575 25.389,27.104 25.389,26.621H25.39C25.345,26.621 25.277,26.619 25.251,26.618Z" id="path_36"/><path fill="#9ea5a9ff" d="M26.658,27.155C26.677,27.359 26.709,27.559 26.751,27.755L26.878,27.69C26.842,27.514 26.815,27.335 26.796,27.154H26.797C26.739,27.154 26.709,27.155 26.657,27.156L26.658,27.155Z" id="path_37"/><path fill="#9ea5a9ff" d="M27.241,34.705C28.418,35.404 29.744,35.844 31.178,35.969C31.178,35.969 30.762,35.985 30.452,36.018C29.259,35.821 28.194,35.435 27.194,34.837C27.194,34.837 27.234,34.736 27.241,34.705Z" id="path_38"/><path fill="#9ea5a9ff" d="M27.755,33.401C28.066,33.599 28.357,33.754 28.696,33.909C28.715,33.957 28.736,34.005 28.759,34.053L28.781,34.098C28.391,33.929 28.057,33.752 27.701,33.526L27.755,33.401Z" id="path_39"/><path fill="#9ea5a9ff" d="M30.12,37.362C30.099,37.313 30.079,37.263 30.067,37.212C28.519,36.93 27.086,36.315 25.844,35.445L25.844,35.445C25.597,35.331 25.07,35.029 25.07,35.029C26.495,36.207 28.224,37.03 30.12,37.362Z" id="path_40"/><path fill="#9ea5a9ff" d="M28.366,32.152C28.491,32.235 28.618,32.313 28.748,32.387L28.692,32.513C28.557,32.437 28.425,32.357 28.296,32.272L28.366,32.152Z" id="path_41"/><path fill="#9ea5a9ff" d="M31.506,33.225V33.363C30.769,33.31 30.064,33.137 29.411,32.865C29.381,32.821 29.352,32.777 29.326,32.731C29.312,32.708 29.3,32.685 29.288,32.661C29.973,32.971 30.721,33.167 31.506,33.225Z" id="path_42"/><path fill="#9ea5a9ff" d="M24.742,22.973C24.542,23.368 24.373,23.782 24.239,24.211C24.289,24.207 24.338,24.204 24.387,24.201C24.517,23.796 24.677,23.405 24.868,23.031L24.742,22.973Z" id="path_43"/><path fill="#9ea5a9ff" d="M26.097,23.365C25.953,23.624 25.825,23.894 25.715,24.173C25.764,24.176 25.813,24.18 25.86,24.184C25.964,23.924 26.085,23.671 26.22,23.427L26.097,23.365Z" id="path_44"/><path fill="#9ea5a9ff" d="M27.328,23.992C27.227,24.17 27.136,24.354 27.056,24.545V24.544C27.095,24.568 27.135,24.593 27.174,24.619C27.255,24.425 27.348,24.236 27.451,24.055L27.328,23.992Z" id="path_45"/><path fill="#9ea5a9ff" d="M28.523,22.73L28.439,22.62C28.205,22.828 27.989,23.056 27.795,23.301L27.92,23.365C28.104,23.137 28.305,22.924 28.523,22.73Z" id="path_46"/><path fill="#9ea5a9ff" d="M27.845,21.319C27.352,21.705 26.915,22.158 26.545,22.664L26.67,22.728C27.029,22.239 27.453,21.801 27.93,21.428L27.845,21.319Z" id="path_47"/><path fill="#9ea5a9ff" d="M26.999,20.228C26.415,20.685 25.894,21.221 25.454,21.819L25.575,21.886C26.006,21.304 26.514,20.783 27.084,20.337L26.999,20.228Z" id="path_48"/><path fill="#9ea5a9ff" d="M42.583,24.055C42.547,24.07 42.502,24.085 42.452,24.1C41.481,20.095 38.262,16.958 34.211,16.108C34.228,16.069 34.25,16.026 34.275,15.981C38.357,16.852 41.599,20.016 42.583,24.055Z" id="path_49"/><path fill="#9ea5a9ff" d="M33.296,31.843C33.032,31.91 32.763,31.954 32.494,31.978V31.839C32.777,31.813 33.057,31.764 33.337,31.689L33.296,31.843Z" id="path_50"/><path fill="#9ea5a9ff" d="M36.827,34.825C35.835,35.412 34.728,35.823 33.548,36.018C33.238,35.985 32.822,35.969 32.822,35.969C34.259,35.844 35.603,35.393 36.782,34.692L36.827,34.825Z" id="path_51"/><path fill="#9ea5a9ff" d="M36.308,33.525C35.962,33.742 35.598,33.934 35.22,34.098L35.241,34.053C35.264,34.005 35.285,33.957 35.304,33.909C35.632,33.76 35.948,33.589 36.25,33.398L36.308,33.525Z" id="path_52"/><path fill="#9ea5a9ff" d="M38.931,35.029C38.931,35.029 38.403,35.331 38.156,35.445V35.445C36.915,36.315 35.481,36.93 33.933,37.212C33.922,37.263 33.901,37.313 33.881,37.362C35.776,37.031 37.505,36.207 38.931,35.029Z" id="path_53"/><path fill="#9ea5a9ff" d="M35.606,32.171C35.49,32.247 35.372,32.319 35.252,32.387L35.308,32.514C35.433,32.443 35.555,32.369 35.675,32.291L35.606,32.171Z" id="path_54"/><path fill="#9ea5a9ff" d="M34.712,32.661C34.7,32.684 34.688,32.708 34.674,32.731C34.648,32.777 34.619,32.821 34.589,32.865C33.936,33.138 33.231,33.31 32.494,33.363V33.225C33.279,33.167 34.027,32.971 34.712,32.661Z" id="path_55"/><path fill="#9ea5a9ff" d="M40.181,22.063C40.567,22.752 40.869,23.494 41.072,24.276C41.12,24.277 41.168,24.277 41.215,24.277C41.004,23.451 40.684,22.667 40.272,21.943C40.242,21.984 40.212,22.024 40.181,22.063Z" id="path_56"/><path fill="#9ea5a9ff" d="M39.119,23.004C39.315,23.386 39.48,23.786 39.613,24.201C39.662,24.204 39.711,24.208 39.761,24.211C39.622,23.766 39.446,23.338 39.236,22.93C39.145,22.989 39.129,22.998 39.119,23.004Z" id="path_57"/><path fill="#9ea5a9ff" d="M37.893,23.639C37.983,23.817 38.066,23.999 38.14,24.185C38.188,24.18 38.236,24.177 38.285,24.174C38.204,23.97 38.115,23.771 38.016,23.577L37.893,23.639Z" id="path_58"/><path fill="#9ea5a9ff" d="M36.663,24.266L36.786,24.204C36.842,24.315 36.896,24.429 36.944,24.544C36.904,24.568 36.865,24.593 36.826,24.619C36.776,24.499 36.721,24.382 36.663,24.266Z" id="path_59"/><path fill="#9ea5a9ff" d="M41.388,25.105L41.251,25.127C41.331,25.617 41.372,26.12 41.372,26.633C41.372,27.372 41.286,28.09 41.124,28.78L41.267,28.777C41.426,28.088 41.511,27.37 41.511,26.633C41.511,26.113 41.468,25.602 41.388,25.105Z" id="path_60"/><path fill="#9ea5a9ff" d="M40.101,25.952C40.056,25.959 40.012,25.965 39.964,25.969C39.982,26.188 39.991,26.41 39.991,26.633C39.991,27.223 39.927,27.798 39.805,28.352L39.933,28.411C40.062,27.838 40.13,27.243 40.13,26.633C40.13,26.404 40.12,26.177 40.101,25.952H40.101Z" id="path_61"/><path fill="#9ea5a9ff" d="M38.61,26.621C38.627,26.621 38.644,26.621 38.661,26.621L38.669,26.62C38.696,26.62 38.722,26.619 38.748,26.618C38.75,27.145 38.69,27.658 38.576,28.15L38.434,28.152C38.55,27.66 38.611,27.147 38.61,26.621Z" id="path_62"/><path fill="#9ea5a9ff" d="M37.203,27.154C37.247,27.154 37.287,27.154 37.325,27.155C37.331,27.155 37.337,27.155 37.342,27.155C37.312,27.472 37.254,27.78 37.17,28.078L37.044,28.014C37.121,27.736 37.174,27.448 37.204,27.154H37.203Z" id="path_63"/><path fill="#3c934eff" d="M25.878,14.829C25.425,15.222 25.085,15.658 24.86,16.108C24.635,16.559 24.536,16.998 24.53,17.407C24.827,16.537 25.268,15.665 25.878,14.829Z" id="path_64"/><path fill="#3c934eff" d="M27.069,14.452C26.594,14.781 26.222,15.16 25.958,15.56C25.694,15.961 25.552,16.362 25.501,16.745C25.881,15.958 26.397,15.182 27.069,14.452Z" id="path_65"/><path fill="#3c934eff" d="M28.262,14.192C27.771,14.462 27.376,14.783 27.081,15.134C26.786,15.485 26.605,15.847 26.515,16.2C26.966,15.5 27.542,14.82 28.262,14.192Z" id="path_66"/><path fill="#3c934eff" d="M24.701,15.336C24.279,15.795 23.979,16.29 23.8,16.788C23.621,17.287 23.571,17.76 23.615,18.191H23.615C23.816,17.244 24.168,16.277 24.701,15.336Z" id="path_67"/><path fill="#3c934eff" d="M22.88,38.551C24.045,38.995 25.242,39.143 26.334,39.031C27.333,38.93 28.192,38.625 28.876,38.204C28.834,38.195 28.792,38.185 28.75,38.176C26.894,38.709 24.886,38.863 22.88,38.551Z" id="path_68"/><path fill="#3c934eff" d="M21.076,36.868C22.075,37.472 23.138,37.804 24.146,37.875C25.101,37.943 25.953,37.78 26.663,37.473C26.64,37.463 26.618,37.453 26.595,37.443C24.807,37.664 22.916,37.491 21.076,36.868Z" id="path_69"/><path fill="#3c934eff" d="M19.695,34.982C20.534,35.71 21.465,36.19 22.381,36.416C23.272,36.637 24.099,36.613 24.816,36.424C24.806,36.416 24.796,36.409 24.785,36.401C23.093,36.331 21.349,35.869 19.695,34.982Z" id="path_70"/><path fill="#3c934eff" d="M18.701,32.978C19.388,33.794 20.186,34.391 21.007,34.747C21.812,35.097 22.593,35.202 23.297,35.131C23.292,35.126 23.286,35.12 23.281,35.114C21.717,34.782 20.146,34.072 18.701,32.978Z" id="path_71"/><path fill="#3c934eff" d="M18.056,30.925C18.598,31.799 19.268,32.483 19.99,32.944C20.697,33.397 21.413,33.616 22.086,33.658C22.081,33.651 22.077,33.644 22.073,33.638C20.661,33.079 19.282,32.171 18.056,30.925Z" id="path_72"/><path fill="#3c934eff" d="M17.724,28.883C18.13,29.788 18.675,30.533 19.297,31.076C19.902,31.605 20.544,31.918 21.17,32.06C21.166,32.05 21.161,32.041 21.157,32.032C19.911,31.288 18.731,30.231 17.724,28.883Z" id="path_73"/><path fill="#3c934eff" d="M17.669,26.9C17.948,27.813 18.375,28.594 18.897,29.197C19.4,29.778 19.961,30.166 20.531,30.392C20.527,30.379 20.522,30.366 20.518,30.352C19.445,29.466 18.464,28.303 17.669,26.9Z" id="path_74"/><path fill="#3c934eff" d="M17.858,25.012C18.019,25.914 18.335,26.712 18.759,27.354C19.162,27.964 19.639,28.405 20.143,28.701C20.14,28.683 20.138,28.665 20.135,28.647C19.236,27.658 18.45,26.432 17.858,25.012Z" id="path_75"/><path fill="#3c934eff" d="M18.258,23.248C18.312,24.123 18.522,24.919 18.853,25.584C19.162,26.208 19.558,26.686 19.997,27.035C19.997,27.015 19.997,26.996 19.996,26.977C19.221,25.884 18.651,24.615 18.258,23.248Z" id="path_76"/><path fill="#3c934eff" d="M18.84,21.63C18.796,22.464 18.909,23.243 19.149,23.915C19.373,24.542 19.694,25.046 20.071,25.434C20.073,25.415 20.075,25.395 20.077,25.376C19.486,24.262 19.064,22.961 18.84,21.63Z" id="path_77"/><path fill="#3c934eff" d="M19.574,20.169C19.444,20.952 19.466,21.702 19.621,22.368C19.767,22.992 20.018,23.511 20.335,23.928C20.339,23.909 20.344,23.891 20.348,23.873C19.951,22.781 19.645,21.452 19.574,20.169Z" id="path_78"/><path fill="#3c934eff" d="M20.436,18.874C20.228,19.599 20.169,20.309 20.244,20.956C20.316,21.571 20.501,22.097 20.761,22.534C20.766,22.52 20.771,22.506 20.776,22.493C20.513,21.402 20.366,20.108 20.436,18.874Z" id="path_79"/><path fill="#3c934eff" d="M21.4,17.747C21.124,18.408 20.993,19.072 20.994,19.691C20.996,20.288 21.118,20.814 21.322,21.261C21.327,21.252 21.332,21.243 21.336,21.235C21.199,20.159 21.198,18.925 21.4,17.747Z" id="path_80"/><path fill="#3c934eff" d="M22.445,16.786C22.111,17.381 21.915,17.991 21.85,18.575C21.786,19.147 21.847,19.663 21.997,20.113C22,20.109 22.004,20.104 22.007,20.099C21.988,19.052 22.121,17.897 22.445,16.786Z" id="path_81"/><path fill="#3c934eff" d="M23.552,15.985C23.169,16.512 22.917,17.066 22.791,17.609C22.666,18.147 22.671,18.646 22.767,19.091C22.768,19.089 22.77,19.087 22.771,19.086C22.865,18.08 23.116,17.017 23.552,15.985Z" id="path_82"/><path fill="#3c934eff" d="M30.868,38.704C29.083,39.461 27.149,39.895 25.147,39.933C26.481,40.174 27.81,40.102 28.977,39.782C29.705,39.583 30.344,39.298 30.885,38.96C30.874,38.931 30.868,38.899 30.868,38.866V38.704Z" id="path_83"/><path fill="#056d31ff" d="M25.312,16.106C25.548,15.667 25.742,15.243 25.878,14.829C25.268,15.665 24.827,16.537 24.53,17.407C24.811,16.977 25.076,16.545 25.312,16.106Z" id="path_84"/><path fill="#056d31ff" d="M26.392,15.599C26.665,15.208 26.895,14.828 27.069,14.452C26.397,15.183 25.881,15.958 25.501,16.745C25.817,16.368 26.118,15.989 26.392,15.599Z" id="path_85"/><path fill="#056d31ff" d="M27.493,15.207C27.797,14.866 28.057,14.529 28.261,14.192C27.542,14.82 26.966,15.499 26.515,16.2C26.859,15.876 27.19,15.548 27.493,15.207Z" id="path_86"/><path fill="#056d31ff" d="M30.868,38.52C29.929,38.752 29.04,38.953 28.184,39.151C27.064,39.408 26.057,39.648 25.147,39.933C27.149,39.895 29.083,39.461 30.868,38.703V38.52Z" id="path_87"/><path fill="#056d31ff" d="M30.915,38.267C25.183,37.834 21.155,33.731 20.4,28.458C19.632,22.975 22.439,18.125 26.943,16.081C27.5,15.819 28.118,15.62 28.269,15.568L28.262,15.547C28.262,15.547 28.138,15.585 27.906,15.656C26.233,16.195 24.792,17.074 23.615,18.191C23.853,17.708 24.075,17.226 24.266,16.739C24.457,16.253 24.608,15.786 24.701,15.336C24.167,16.277 23.815,17.244 23.615,18.191V18.192C23.319,18.472 23.04,18.768 22.778,19.076C22.962,18.552 23.13,18.03 23.267,17.507C23.407,16.974 23.507,16.469 23.552,15.985C23.115,17.017 22.865,18.081 22.771,19.086C22.77,19.087 22.768,19.089 22.767,19.091C22.501,19.406 22.252,19.735 22.022,20.076C22.145,19.518 22.253,18.965 22.331,18.414C22.412,17.84 22.456,17.298 22.445,16.786C22.121,17.897 21.988,19.052 22.007,20.099C22.003,20.104 22,20.109 21.997,20.113C21.765,20.461 21.552,20.821 21.358,21.192C21.416,20.611 21.459,20.035 21.473,19.465C21.489,18.855 21.471,18.283 21.4,17.747C21.198,18.925 21.199,20.159 21.336,21.235C21.331,21.243 21.327,21.252 21.322,21.261C21.127,21.64 20.954,22.03 20.801,22.429C20.789,21.832 20.766,21.243 20.714,20.661C20.658,20.023 20.572,19.426 20.436,18.874C20.366,20.108 20.513,21.402 20.776,22.493C20.771,22.506 20.766,22.52 20.761,22.533C20.608,22.943 20.477,23.362 20.369,23.788C20.287,23.183 20.193,22.586 20.073,21.999C19.939,21.341 19.779,20.729 19.574,20.169C19.646,21.451 19.95,22.78 20.348,23.872C20.344,23.891 20.339,23.909 20.335,23.928C20.229,24.368 20.147,24.817 20.09,25.27C19.933,24.66 19.765,24.06 19.573,23.471C19.356,22.804 19.118,22.187 18.84,21.629C19.064,22.961 19.486,24.262 20.077,25.375C20.075,25.395 20.073,25.414 20.071,25.434C20.018,25.907 19.993,26.385 19.996,26.865C19.756,26.254 19.507,25.652 19.237,25.065C18.931,24.402 18.612,23.792 18.258,23.248C18.651,24.615 19.221,25.884 19.997,26.977C19.997,26.996 19.997,27.015 19.997,27.035C20.007,27.539 20.048,28.045 20.121,28.551C19.788,27.942 19.449,27.343 19.09,26.762C18.692,26.117 18.288,25.528 17.858,25.012C18.45,26.432 19.236,27.658 20.135,28.647C20.138,28.665 20.14,28.683 20.143,28.701C20.226,29.23 20.344,29.757 20.498,30.281C20.058,29.687 19.619,29.101 19.161,28.536C18.667,27.928 18.177,27.375 17.669,26.899C18.464,28.303 19.445,29.466 20.518,30.352C20.522,30.365 20.526,30.378 20.531,30.392C20.693,30.928 20.894,31.459 21.134,31.982C20.582,31.428 20.036,30.88 19.476,30.355C18.885,29.802 18.308,29.302 17.724,28.883C18.731,30.23 19.911,31.288 21.157,32.032C21.161,32.041 21.166,32.05 21.17,32.06C21.427,32.605 21.721,33.119 22.048,33.601C21.38,33.117 20.727,32.635 20.065,32.176C19.377,31.698 18.714,31.27 18.056,30.925C19.282,32.171 20.661,33.079 22.073,33.637C22.077,33.644 22.081,33.651 22.086,33.657C22.438,34.17 22.827,34.645 23.25,35.082C22.47,34.7 21.715,34.313 20.958,33.947C20.174,33.568 19.428,33.232 18.701,32.977C20.146,34.072 21.717,34.782 23.281,35.114C23.286,35.12 23.292,35.125 23.297,35.131C23.74,35.584 24.219,35.994 24.728,36.361C23.855,36.112 23.016,35.852 22.187,35.608C21.308,35.351 20.484,35.127 19.695,34.982C21.348,35.869 23.093,36.331 24.785,36.401C24.795,36.409 24.806,36.416 24.816,36.423C25.341,36.793 25.897,37.115 26.479,37.389C25.545,37.298 24.653,37.187 23.78,37.087C22.813,36.976 21.918,36.886 21.076,36.867C22.916,37.491 24.807,37.664 26.596,37.443C26.618,37.453 26.64,37.463 26.663,37.473C27.263,37.743 27.89,37.96 28.538,38.124C27.574,38.199 26.658,38.247 25.77,38.299C24.721,38.36 23.764,38.425 22.88,38.55C24.885,38.862 26.894,38.709 28.75,38.175C28.792,38.185 28.834,38.194 28.876,38.204C29.523,38.347 30.189,38.437 30.868,38.471H30.868V38.419C30.868,38.363 30.885,38.311 30.915,38.267Z" id="path_88"/><path fill="#3c934eff" d="M38.122,14.829C38.575,15.222 38.915,15.658 39.14,16.108C39.365,16.559 39.464,16.998 39.47,17.407C39.173,16.537 38.732,15.665 38.122,14.829Z" id="path_89"/><path fill="#3c934eff" d="M36.931,14.452C37.407,14.781 37.778,15.16 38.042,15.56C38.306,15.961 38.449,16.362 38.499,16.745C38.119,15.958 37.603,15.182 36.931,14.452Z" id="path_90"/><path fill="#3c934eff" d="M35.738,14.192C36.229,14.462 36.624,14.783 36.919,15.134C37.214,15.485 37.395,15.847 37.486,16.2C37.035,15.5 36.458,14.82 35.738,14.192Z" id="path_91"/><path fill="#3c934eff" d="M39.299,15.336C39.721,15.795 40.021,16.29 40.201,16.788C40.379,17.287 40.429,17.76 40.385,18.191H40.385C40.185,17.244 39.833,16.277 39.299,15.336Z" id="path_92"/><path fill="#3c934eff" d="M41.12,38.551C39.955,38.995 38.758,39.143 37.666,39.031C36.667,38.93 35.808,38.625 35.124,38.204C35.166,38.195 35.207,38.185 35.25,38.176C37.106,38.709 39.114,38.863 41.12,38.551Z" id="path_93"/><path fill="#3c934eff" d="M42.924,36.868C41.926,37.472 40.862,37.804 39.854,37.875C38.9,37.943 38.047,37.78 37.338,37.473C37.36,37.463 37.382,37.453 37.405,37.443C39.193,37.664 41.084,37.491 42.924,36.868Z" id="path_94"/><path fill="#3c934eff" d="M44.305,34.982C43.466,35.71 42.536,36.19 41.619,36.416C40.728,36.637 39.901,36.613 39.184,36.424C39.194,36.416 39.204,36.409 39.215,36.401C40.907,36.331 42.651,35.869 44.305,34.982Z" id="path_95"/><path fill="#3c934eff" d="M45.299,32.978C44.612,33.794 43.814,34.391 42.993,34.747C42.188,35.097 41.407,35.202 40.703,35.131C40.708,35.126 40.714,35.12 40.719,35.114C42.283,34.782 43.854,34.072 45.299,32.978Z" id="path_96"/><path fill="#3c934eff" d="M45.944,30.925C45.402,31.799 44.732,32.483 44.011,32.944C43.303,33.397 42.586,33.616 41.914,33.658C41.918,33.651 41.923,33.644 41.927,33.638C43.339,33.079 44.718,32.171 45.944,30.925Z" id="path_97"/><path fill="#3c934eff" d="M46.276,28.883C45.87,29.788 45.325,30.533 44.703,31.076C44.098,31.605 43.456,31.918 42.83,32.06C42.834,32.05 42.839,32.041 42.843,32.032C44.089,31.288 45.269,30.231 46.276,28.883Z" id="path_98"/><path fill="#3c934eff" d="M46.331,26.9C46.052,27.813 45.625,28.594 45.103,29.197C44.6,29.778 44.039,30.166 43.469,30.392C43.473,30.379 43.478,30.366 43.482,30.352C44.555,29.466 45.536,28.303 46.331,26.9Z" id="path_99"/><path fill="#3c934eff" d="M46.142,25.012C45.981,25.914 45.666,26.712 45.241,27.354C44.838,27.964 44.361,28.405 43.857,28.701C43.86,28.683 43.862,28.665 43.865,28.647C44.764,27.658 45.55,26.432 46.142,25.012Z" id="path_100"/><path fill="#3c934eff" d="M45.742,23.248C45.688,24.123 45.478,24.919 45.148,25.584C44.838,26.208 44.442,26.686 44.003,27.035C44.003,27.015 44.004,26.996 44.004,26.977C44.779,25.884 45.349,24.615 45.742,23.248Z" id="path_101"/><path fill="#3c934eff" d="M45.161,21.63C45.204,22.464 45.091,23.243 44.851,23.915C44.627,24.542 44.306,25.046 43.93,25.434C43.927,25.415 43.925,25.395 43.923,25.376C44.514,24.262 44.936,22.961 45.161,21.63Z" id="path_102"/><path fill="#3c934eff" d="M44.426,20.169C44.557,20.952 44.534,21.702 44.379,22.368C44.234,22.992 43.982,23.511 43.666,23.928C43.661,23.909 43.657,23.891 43.652,23.873C44.05,22.781 44.355,21.452 44.426,20.169Z" id="path_103"/><path fill="#3c934eff" d="M43.564,18.874C43.772,19.599 43.831,20.309 43.756,20.956C43.685,21.571 43.499,22.097 43.24,22.534C43.234,22.52 43.229,22.506 43.224,22.493C43.487,21.402 43.634,20.108 43.564,18.874Z" id="path_104"/><path fill="#3c934eff" d="M42.6,17.747C42.876,18.408 43.007,19.072 43.006,19.691C43.004,20.288 42.882,20.814 42.678,21.261C42.673,21.252 42.668,21.243 42.664,21.235C42.801,20.159 42.802,18.925 42.6,17.747Z" id="path_105"/><path fill="#3c934eff" d="M41.555,16.786C41.889,17.381 42.085,17.991 42.15,18.575C42.215,19.147 42.152,19.663 42.003,20.113C42,20.109 41.996,20.104 41.993,20.099C42.012,19.052 41.879,17.897 41.555,16.786Z" id="path_106"/><path fill="#3c934eff" d="M40.449,15.985C40.831,16.512 41.083,17.066 41.209,17.609C41.334,18.147 41.329,18.646 41.234,19.091C41.232,19.089 41.23,19.087 41.229,19.086C41.135,18.08 40.884,17.017 40.449,15.985Z" id="path_107"/><path fill="#3c934eff" d="M33.132,38.704C34.917,39.461 36.851,39.895 38.853,39.933C37.519,40.174 36.19,40.102 35.023,39.782C34.295,39.583 33.656,39.298 33.115,38.96C33.126,38.931 33.132,38.899 33.132,38.866V38.704Z" id="path_108"/><path fill="#056d31ff" d="M38.688,16.106C38.452,15.667 38.258,15.243 38.122,14.829C38.732,15.665 39.173,16.537 39.47,17.407C39.189,16.977 38.924,16.545 38.688,16.106Z" id="path_109"/><path fill="#056d31ff" d="M37.609,15.599C37.335,15.208 37.105,14.828 36.931,14.452C37.603,15.183 38.119,15.958 38.5,16.745C38.183,16.368 37.882,15.989 37.609,15.599Z" id="path_110"/><path fill="#056d31ff" d="M36.507,15.207C36.203,14.866 35.943,14.529 35.739,14.192C36.458,14.82 37.034,15.499 37.486,16.2C37.141,15.876 36.811,15.548 36.507,15.207Z" id="path_111"/><path fill="#056d31ff" d="M33.132,38.52C34.071,38.752 34.96,38.953 35.816,39.151C36.936,39.408 37.942,39.648 38.853,39.933C36.851,39.895 34.917,39.461 33.132,38.703V38.52Z" id="path_112"/><path fill="#056d31ff" d="M33.085,38.267C38.818,37.834 42.845,33.731 43.6,28.458C44.368,22.975 41.562,18.125 37.057,16.081C36.5,15.819 35.882,15.62 35.731,15.568L35.738,15.547C35.738,15.547 35.862,15.585 36.094,15.656C37.767,16.195 39.208,17.074 40.385,18.191C40.147,17.708 39.925,17.226 39.734,16.739C39.543,16.253 39.393,15.786 39.299,15.336C39.833,16.277 40.185,17.243 40.385,18.191L40.385,18.192C40.681,18.472 40.96,18.768 41.222,19.076C41.038,18.552 40.87,18.03 40.733,17.507C40.593,16.974 40.493,16.469 40.449,15.985C40.885,17.017 41.135,18.081 41.229,19.086C41.231,19.087 41.232,19.089 41.234,19.091C41.5,19.406 41.748,19.735 41.978,20.076C41.855,19.518 41.747,18.965 41.669,18.414C41.588,17.84 41.544,17.298 41.555,16.786C41.879,17.897 42.012,19.052 41.994,20.099C41.997,20.104 42,20.109 42.003,20.113C42.235,20.461 42.449,20.821 42.642,21.192C42.584,20.611 42.541,20.035 42.527,19.465C42.511,18.855 42.529,18.283 42.6,17.747C42.802,18.925 42.801,20.159 42.664,21.235C42.669,21.243 42.674,21.252 42.678,21.261C42.873,21.64 43.047,22.03 43.2,22.429C43.211,21.832 43.235,21.243 43.286,20.661C43.342,20.023 43.429,19.426 43.565,18.874C43.634,20.108 43.487,21.402 43.224,22.493C43.229,22.506 43.235,22.52 43.24,22.533C43.393,22.943 43.523,23.362 43.631,23.788C43.713,23.183 43.807,22.586 43.927,21.999C44.061,21.341 44.221,20.729 44.426,20.169C44.355,21.451 44.05,22.78 43.652,23.872C43.657,23.891 43.661,23.909 43.666,23.928C43.772,24.368 43.853,24.817 43.91,25.27C44.068,24.66 44.236,24.06 44.427,23.471C44.645,22.804 44.882,22.187 45.16,21.629C44.936,22.961 44.514,24.262 43.923,25.375C43.925,25.395 43.927,25.414 43.93,25.434C43.982,25.907 44.008,26.385 44.005,26.865C44.245,26.254 44.493,25.652 44.763,25.065C45.069,24.402 45.389,23.792 45.742,23.248C45.349,24.615 44.779,25.884 44.004,26.977C44.003,26.996 44.003,27.015 44.003,27.035C43.993,27.539 43.952,28.045 43.879,28.551C44.213,27.942 44.55,27.343 44.91,26.762C45.308,26.117 45.712,25.528 46.142,25.012C45.55,26.432 44.764,27.658 43.865,28.647C43.862,28.665 43.86,28.683 43.857,28.701C43.774,29.23 43.656,29.757 43.503,30.281C43.942,29.687 44.381,29.101 44.839,28.536C45.333,27.928 45.823,27.375 46.331,26.899C45.536,28.303 44.555,29.466 43.482,30.352C43.478,30.365 43.474,30.378 43.47,30.392C43.307,30.928 43.106,31.459 42.866,31.982C43.418,31.428 43.964,30.88 44.525,30.355C45.115,29.802 45.692,29.302 46.276,28.883C45.269,30.23 44.089,31.288 42.843,32.032C42.839,32.041 42.834,32.05 42.83,32.06C42.573,32.605 42.279,33.119 41.952,33.601C42.62,33.117 43.274,32.635 43.935,32.176C44.623,31.698 45.286,31.27 45.944,30.925C44.718,32.171 43.339,33.079 41.928,33.637C41.923,33.644 41.919,33.651 41.914,33.657C41.562,34.17 41.173,34.645 40.751,35.082C41.53,34.7 42.286,34.313 43.042,33.947C43.826,33.568 44.572,33.232 45.299,32.977C43.854,34.072 42.283,34.782 40.72,35.114C40.714,35.12 40.708,35.125 40.703,35.131C40.26,35.584 39.781,35.994 39.272,36.361C40.145,36.112 40.984,35.852 41.814,35.608C42.692,35.351 43.516,35.127 44.305,34.982C42.652,35.869 40.907,36.331 39.215,36.401C39.205,36.409 39.194,36.416 39.184,36.423C38.659,36.793 38.103,37.115 37.521,37.389C38.455,37.298 39.347,37.187 40.22,37.087C41.187,36.976 42.082,36.886 42.924,36.867C41.084,37.491 39.193,37.664 37.405,37.443C37.382,37.453 37.36,37.463 37.338,37.473C36.737,37.743 36.11,37.96 35.462,38.124C36.426,38.199 37.342,38.247 38.23,38.299C39.279,38.36 40.236,38.425 41.12,38.55C39.115,38.862 37.106,38.709 35.25,38.175C35.208,38.185 35.166,38.194 35.124,38.204C34.477,38.347 33.811,38.437 33.132,38.471V38.419C33.132,38.363 33.115,38.311 33.085,38.267Z" id="path_113"/><path fill="#951b15ff" d="M32,37.027H32.963C33.11,36.81 33.235,36.58 33.337,36.338L33.405,36.177L33.407,36.171H32H30.593L30.663,36.338C30.743,36.526 30.837,36.708 30.944,36.882C30.974,36.931 31.005,36.979 31.037,37.027H32Z" id="path_114"/><path fill="#cb3438ff" d="M32.712,39.136H32.861C32.978,39.136 33.077,39.063 33.115,38.96C33.126,38.931 33.132,38.899 33.132,38.866V38.704V38.52V38.471V38.419C33.132,38.363 33.115,38.311 33.085,38.267C33.056,38.224 33.015,38.19 32.966,38.17L33.636,37.402C33.829,37.18 33.852,36.857 33.692,36.61L33.407,36.171L33.405,36.177L33.337,36.338C33.235,36.58 33.11,36.81 32.963,37.027C32.834,37.219 32.689,37.399 32.528,37.567L32,38.116L31.472,37.567C31.312,37.399 31.166,37.219 31.037,37.027C31.005,36.979 30.974,36.931 30.944,36.882C30.837,36.708 30.743,36.526 30.663,36.338L30.593,36.171L30.308,36.61C30.148,36.857 30.171,37.18 30.364,37.402L31.034,38.17C30.985,38.19 30.944,38.224 30.915,38.267C30.885,38.311 30.868,38.363 30.868,38.419V38.471V38.52V38.704V38.866C30.868,38.899 30.874,38.931 30.885,38.96C30.923,39.063 31.022,39.136 31.139,39.136H31.288C30.862,39.591 30.297,40.001 29.557,40.353H30.606C30.606,40.353 31.407,39.701 31.689,39.136H31.69H32H32.311H32.311C32.593,39.701 33.394,40.353 33.394,40.353H34.443C33.703,40.001 33.138,39.591 32.712,39.136Z" id="path_115"/><path fill="#951b15ff" d="M30.607,40.353L30.604,41.381C31.248,40.664 31.756,39.939 32,39.195C32.244,39.939 32.752,40.664 33.396,41.381L33.394,40.353C33.394,40.353 32.593,39.701 32.31,39.136H31.69C31.407,39.701 30.607,40.353 30.607,40.353Z" id="path_116"/><path fill="#ffffffff" d="M32,30.186C30.054,30.186 28.476,28.608 28.476,26.662C28.476,24.715 30.054,23.137 32,23.137C33.947,23.137 35.525,24.715 35.525,26.662C35.525,28.608 33.946,30.186 32,30.186Z" id="path_117"/><path fill="#056d31ff" d="M34.621,26.906C33.856,26.906 32.8,27.448 32.196,27.799C32.078,26.51 32.123,25.674 32.159,25.242C32.159,25.239 32.163,25.237 32.165,25.239C32.539,25.475 32.434,26.133 32.356,26.322C32.354,26.325 32.36,26.328 32.362,26.325C32.828,25.774 32.601,25.165 32.505,25.01C32.503,25.007 32.508,25.004 32.511,25.006C32.928,25.345 32.909,25.795 32.887,26.047C32.886,26.051 32.892,26.052 32.894,26.049C33.063,25.715 33.115,25.151 32.596,24.693C32.592,24.691 32.595,24.686 32.598,24.687C33.063,24.799 33.251,25.239 33.254,25.568C33.254,25.573 33.255,25.579 33.255,25.584C33.255,25.589 33.261,25.589 33.262,25.585C33.329,25.339 33.314,25.14 33.255,24.98C33.12,24.618 32.756,24.46 32.579,24.438C32.574,24.438 32.575,24.431 32.579,24.431C32.925,24.398 33.135,24.506 33.255,24.612C33.328,24.677 33.368,24.742 33.384,24.772C33.386,24.775 33.392,24.773 33.391,24.769C33.379,24.637 33.328,24.527 33.255,24.44C33.049,24.195 32.665,24.127 32.416,24.231C32.412,24.233 32.409,24.229 32.411,24.226C32.573,23.995 32.894,23.97 33.065,24.051C33.068,24.053 33.071,24.049 33.069,24.046C32.814,23.753 32.394,23.746 32.17,24.085C32.169,24.088 32.166,24.088 32.164,24.085C32.14,24.042 32.117,23.994 32.095,23.943C32.047,23.833 32.025,23.708 32.005,23.584C32.004,23.579 31.997,23.579 31.996,23.584C31.975,23.708 31.954,23.833 31.906,23.943C31.883,23.994 31.86,24.042 31.836,24.085C31.834,24.088 31.831,24.088 31.83,24.085C31.606,23.746 31.187,23.753 30.931,24.046C30.929,24.049 30.932,24.053 30.935,24.051C31.106,23.97 31.428,23.995 31.589,24.226C31.591,24.229 31.588,24.233 31.584,24.231C31.336,24.127 30.951,24.195 30.746,24.44C30.672,24.527 30.622,24.637 30.609,24.769C30.608,24.773 30.614,24.775 30.616,24.772C30.632,24.742 30.672,24.677 30.746,24.612C30.866,24.506 31.075,24.398 31.421,24.431C31.425,24.431 31.426,24.437 31.422,24.438C31.244,24.46 30.88,24.618 30.746,24.98C30.686,25.14 30.672,25.339 30.738,25.585C30.739,25.589 30.746,25.589 30.745,25.584C30.745,25.579 30.746,25.573 30.746,25.568C30.749,25.239 30.937,24.799 31.402,24.687C31.405,24.686 31.408,24.691 31.405,24.693C30.885,25.151 30.937,25.715 31.106,26.049C31.108,26.052 31.114,26.051 31.113,26.047C31.091,25.795 31.073,25.345 31.489,25.006C31.492,25.004 31.497,25.007 31.495,25.01C31.399,25.165 31.172,25.774 31.638,26.325C31.64,26.328 31.646,26.325 31.645,26.322C31.566,26.133 31.461,25.475 31.835,25.239C31.838,25.237 31.841,25.239 31.841,25.242C31.877,25.674 31.921,26.51 31.804,27.799C31.2,27.448 30.144,26.906 29.38,26.906C29.144,26.906 28.948,26.969 28.961,26.971C29.972,27.131 31.169,27.834 31.673,28.153C31.348,28.356 30.307,29 30.183,29C30.119,29 30.11,28.923 30.056,28.923C30.008,28.923 30.008,28.959 30.008,28.973C30.008,29.189 30.303,29.33 30.542,29.218L32,28.375L33.459,29.218C33.697,29.33 33.992,29.189 33.992,28.973C33.992,28.959 33.992,28.923 33.944,28.923C33.89,28.923 33.881,29 33.818,29C33.693,29 32.652,28.356 32.327,28.153C32.831,27.834 34.029,27.131 35.04,26.971C35.052,26.969 34.856,26.906 34.621,26.906Z" id="path_118"/><path fill="#69767bff" d="M37.834,26.144C38.321,26.185 39.352,26.311 39.667,26.085C39.684,26.174 39.35,26.501 38.321,26.433C37.455,26.375 36.327,26.249 36.014,26.509C36.096,26.138 36.826,26.061 37.834,26.144Z" id="path_119"/><path fill="#69767bff" d="M22.037,29.884L22.148,30.102L24.851,28.723L22.037,29.884Z" id="path_120"/><path fill="#69767bff" d="M41.124,28.78L40.759,28.788L41.29,29.03L41.447,28.773L41.266,28.777L41.124,28.78Z" id="path_121"/><path fill="#69767bff" d="M40.679,30.235L38.148,28.918C37.8,28.737 37.405,28.669 37.017,28.722L38.201,30.387L40.062,31.439L39.947,31.717L40.857,32.181L41.13,31.646C41.392,31.132 41.191,30.502 40.679,30.235Z" id="path_122"/><path fill="#69767bff" d="M35.154,32.441C35.107,32.345 35.052,32.249 34.987,32.152C35.102,33.09 34.499,33.519 34.499,33.519L34.896,33.244C34.896,33.244 34.57,34.149 33.842,34.494C33.115,34.839 32,35.207 32,35.324C32,35.206 30.826,34.839 30.099,34.494C29.371,34.149 29.045,33.244 29.045,33.244L29.641,33.493L29.855,33.452C29.622,33.307 29.392,33.068 29.229,32.786C29.193,32.722 29.159,32.655 29.13,32.587C29.07,32.448 29.029,32.301 29.013,32.153C28.948,32.249 28.892,32.345 28.845,32.441C28.825,32.483 28.806,32.526 28.789,32.568C28.6,33.037 28.624,33.512 28.859,34.005L29.022,33.778C29.464,35.07 31.328,35.006 32,35.935H32C32.671,35.006 34.536,35.07 34.978,33.778L35.141,34.005C35.376,33.512 35.4,33.037 35.21,32.568C35.194,32.526 35.175,32.483 35.154,32.441Z" id="path_123"/><path fill="#69767bff" d="M26.166,26.144C25.679,26.185 24.648,26.311 24.333,26.085C24.316,26.174 24.65,26.501 25.679,26.433C26.545,26.375 27.674,26.249 27.986,26.509C27.904,26.138 27.174,26.061 26.166,26.144Z" id="path_124"/><path fill="#69767bff" d="M27.269,25.787C27.237,25.735 27.202,25.689 27.165,25.647C26.659,25.078 25.685,25.399 24.665,25.492C23.784,25.572 23.437,25.502 23.155,25.38C22.969,25.3 22.955,25.268 22.955,25.268C22.955,25.268 22.952,25.274 22.952,25.283C22.952,25.413 23.395,25.883 24.689,25.791C25.857,25.707 26.779,25.486 27.269,25.787Z" id="path_125"/><path fill="#69767bff" d="M36.731,25.787C36.763,25.735 36.798,25.689 36.835,25.647C37.341,25.078 38.315,25.399 39.335,25.492C40.216,25.572 40.563,25.502 40.845,25.38C41.031,25.3 41.045,25.268 41.045,25.268C41.045,25.268 41.048,25.274 41.048,25.283C41.048,25.413 40.606,25.883 39.311,25.791C38.143,25.707 37.22,25.486 36.731,25.787Z" id="path_126"/><path fill="#bec6cbff" d="M39.555,31.152L40.062,31.439L39.947,31.717L39.555,31.152Z" id="path_127"/><path fill="#bec6cbff" d="M27.795,23.301L26.67,22.728L26.545,22.664L26.313,22.546L26.344,22.49C26.383,22.414 26.354,22.32 26.279,22.279L25.575,21.886L25.454,21.819L24.361,21.209L24.239,21.142L23.492,20.725L23.331,21.041L23.037,21.617L22.882,21.921L23.067,22.014L23.078,21.994C23.234,21.687 23.608,21.565 23.915,21.72L26.16,22.853L26.016,23.135L26.132,23.107C26.359,23.054 26.597,23.083 26.804,23.187L28.999,24.293C29.083,24.208 29.17,24.126 29.262,24.048L27.921,23.365L27.795,23.301Z" id="path_128"/><path fill="#bec6cbff" d="M34.499,33.519C34.499,33.519 35.102,33.091 34.987,32.153C34.971,32.301 34.93,32.447 34.87,32.587C34.841,32.655 34.807,32.722 34.77,32.786C34.608,33.068 34.377,33.307 34.144,33.452L34.499,33.519Z" id="path_129"/><path fill="#bec6cbff" d="M33.174,34.386C33.101,34.386 33.031,34.378 32.964,34.364L32.963,34.364C32.599,34.475 32.358,34.586 32.208,34.668C32.058,34.751 32,34.806 32,34.806V30.262C31.871,30.262 31.743,30.257 31.618,30.246V33.549C31.618,33.815 31.546,34.024 31.404,34.17C30.955,34.631 29.875,34.326 29.501,33.519L29.641,33.493L29.045,33.244C29.045,33.244 29.372,34.15 30.099,34.494C30.826,34.839 32,35.206 32,35.324C32,35.208 33.115,34.839 33.842,34.494C34.57,34.15 34.896,33.244 34.896,33.244L34.499,33.519C34.245,34.069 33.662,34.386 33.174,34.386Z" id="path_130"/><path fill="#bec6cbff" d="M32.441,18.405C32.353,18.427 32.215,18.448 32,18.462C31.866,18.47 31.724,18.472 31.523,18.472C31.523,18.472 31.526,18.503 31.565,18.541C31.578,18.554 31.595,18.568 31.617,18.581C31.671,18.614 31.756,18.647 31.889,18.667C31.923,18.672 31.959,18.676 32,18.679V23.068C31.636,23.068 31.281,23.112 30.943,23.196V21.604C30.943,21.505 30.999,21.414 31.088,21.37L31.312,21.243C31.202,21.306 31.142,21.432 31.164,21.558L31.177,21.632L31.411,22.999V18.719C31.411,18.311 31.486,17.905 31.631,17.523L32,16.495V18.032C32,18.255 32.024,18.385 32.441,18.405Z" id="path_131"/><path fill="#bec6cbff" d="M25.407,29.813L22.703,31.191L22.814,31.409L25.407,29.813Z" id="path_132"/><path fill="#bec6cbff" d="M25.506,26.703C25.505,26.702 25.503,26.7 25.502,26.699C25.503,26.7 25.504,26.702 25.506,26.703Z" id="path_133"/><path fill="#bec6cbff" d="M27.986,26.509C27.492,26.365 25.824,26.746 25.502,26.698C25.503,26.7 25.504,26.701 25.505,26.703C25.58,26.793 26.181,26.784 26.885,26.763C27.11,26.756 27.575,26.709 28.013,26.862C27.995,26.569 27.987,26.511 27.986,26.509Z" id="path_134"/><path fill="#bec6cbff" d="M27.979,26.481C27.919,26.262 27.715,25.992 27.353,25.822C27.324,25.809 27.297,25.797 27.269,25.787C26.872,25.644 26.48,25.817 25.176,26.037C24.933,26.078 24.448,26.111 24.334,26.085C24.334,26.085 24.334,26.085 24.333,26.085C24.648,26.312 25.678,26.185 26.166,26.144C27.174,26.061 27.904,26.138 27.986,26.509C27.984,26.5 27.982,26.49 27.979,26.481Z" id="path_135"/><path fill="#bec6cbff" d="M27.234,25.732C27.044,25.436 26.857,25.259 26.656,25.157C26.238,24.946 25.761,25.07 25.075,25.153C24.145,25.267 23.281,25.392 22.955,25.268C22.955,25.268 22.969,25.3 23.155,25.38C23.438,25.502 23.784,25.572 24.665,25.492C25.685,25.399 26.659,25.078 27.165,25.647C27.202,25.689 27.237,25.735 27.269,25.787C27.257,25.768 27.246,25.75 27.234,25.732Z" id="path_136"/><path fill="#bec6cbff" d="M38.494,26.703C38.495,26.702 38.497,26.7 38.498,26.699C38.497,26.7 38.496,26.702 38.494,26.703Z" id="path_137"/><path fill="#bec6cbff" d="M36.014,26.509C36.508,26.365 38.176,26.746 38.498,26.698C38.497,26.7 38.496,26.701 38.494,26.703C38.421,26.793 37.819,26.784 37.115,26.763C36.89,26.756 36.425,26.709 35.987,26.862C36.005,26.569 36.013,26.511 36.014,26.509Z" id="path_138"/><path fill="#bec6cbff" d="M36.021,26.481C36.081,26.262 36.285,25.992 36.647,25.822C36.676,25.809 36.703,25.797 36.731,25.787C37.128,25.644 37.521,25.817 38.824,26.037C39.067,26.078 39.552,26.111 39.666,26.085C39.666,26.085 39.667,26.085 39.667,26.085C39.352,26.312 38.321,26.185 37.834,26.144C36.826,26.061 36.096,26.138 36.014,26.509C36.016,26.5 36.018,26.49 36.021,26.481Z" id="path_139"/><path fill="#bec6cbff" d="M36.766,25.732C36.957,25.436 37.144,25.259 37.344,25.157C37.763,24.946 38.239,25.07 38.925,25.153C39.855,25.267 40.719,25.392 41.045,25.268C41.045,25.268 41.031,25.3 40.845,25.38C40.563,25.502 40.217,25.572 39.335,25.492C38.315,25.399 37.341,25.078 36.835,25.647C36.798,25.689 36.763,25.735 36.731,25.787C36.743,25.768 36.754,25.75 36.766,25.732Z" id="path_140"/><path fill="#bec6cbff" d="M26.75,27.755L26.497,27.884L25.538,28.029L25.401,28.05L24.17,28.236L24.033,28.256L23.914,28.274C23.546,28.35 23.184,28.452 22.831,28.578C22.787,28.594 22.744,28.61 22.7,28.627C22.424,28.731 22.155,28.85 21.891,28.984L21.642,29.111L22.037,29.885L24.851,28.723L22.148,30.102L21.87,30.242L21.745,30.304C21.884,30.691 22.044,31.067 22.224,31.432C22.067,31.124 22.189,30.746 22.497,30.59L28.175,27.7C28.114,27.519 28.069,27.332 28.042,27.14C28.024,27.134 28.007,27.129 27.99,27.123L26.878,27.69L26.75,27.755Z" id="path_141"/><path fill="#bec6cbff" d="M27.056,24.544C26.711,24.34 26.326,24.228 25.86,24.184C25.813,24.18 25.764,24.176 25.716,24.173C25.611,24.167 25.503,24.163 25.391,24.162C25.085,24.16 24.747,24.178 24.387,24.201C24.338,24.204 24.289,24.207 24.239,24.211C24.05,24.223 23.866,24.235 23.682,24.246C23.427,24.261 23.172,24.273 22.928,24.276C22.88,24.277 22.832,24.277 22.785,24.277L22.624,24.276C22.315,24.273 21.835,24.186 21.548,24.1C21.498,24.085 21.453,24.07 21.417,24.055C21.387,24.043 21.362,24.031 21.344,24.02C21.337,24.017 21.332,24.013 21.327,24.01C21.327,24.01 21.357,24.041 21.357,24.041C22.169,24.899 23.366,24.596 25.684,24.505C26.774,24.463 27.485,25.266 28.042,26.188C28.063,26.042 28.095,25.898 28.136,25.757H28.136C28.001,25.495 27.814,25.179 27.601,24.975C27.463,24.837 27.322,24.719 27.174,24.619C27.135,24.593 27.096,24.568 27.056,24.544Z" id="path_142"/><path fill="#bec6cbff" d="M36.826,24.619C36.865,24.593 36.904,24.568 36.944,24.544V24.545C37.29,24.34 37.674,24.228 38.14,24.184C38.188,24.18 38.236,24.176 38.285,24.174C38.389,24.167 38.496,24.163 38.609,24.162C38.915,24.16 39.253,24.178 39.613,24.201C39.662,24.204 39.711,24.207 39.761,24.211C39.95,24.223 40.134,24.235 40.318,24.246C40.574,24.261 40.829,24.273 41.072,24.276C41.12,24.277 41.168,24.277 41.215,24.277L41.376,24.276C41.685,24.273 42.165,24.186 42.452,24.1C42.502,24.085 42.547,24.07 42.583,24.055C42.613,24.043 42.638,24.031 42.657,24.02C42.663,24.017 42.668,24.013 42.673,24.009C42.673,24.009 42.644,24.041 42.644,24.041C41.831,24.899 40.634,24.596 38.316,24.505C37.226,24.462 36.515,25.266 35.958,26.188C35.937,26.042 35.905,25.898 35.864,25.757V25.757C35.999,25.496 36.186,25.179 36.399,24.975C36.537,24.837 36.678,24.719 36.826,24.619Z" id="path_143"/><path fill="#9e892eff" d="M32,12.515C31.99,12.586 31.948,12.649 31.889,12.719C31.83,12.789 31.754,12.867 31.673,12.969C31.25,13.176 30.065,13.041 30.065,14.223C30.065,14.545 30.217,14.855 30.482,15.053C30.152,14.979 29.845,14.738 29.737,14.245C29.637,13.718 29.937,13.23 30.411,12.992C30.862,12.766 31.755,12.787 31.957,12.513C31.971,12.514 31.986,12.515 32,12.515Z" id="path_144"/><path fill="#9e892eff" d="M29.645,13.411C29.622,13.451 29.599,13.494 29.577,13.539C29.573,13.546 29.569,13.554 29.566,13.561H29.566C29.18,13.653 28.893,13.999 28.893,14.412C28.893,14.578 28.928,14.739 29.019,14.864C29.037,14.888 29.055,14.91 29.074,14.93L29.074,14.931C29.074,14.931 29.074,14.93 29.073,14.93C28.663,14.529 28.701,14.026 28.988,13.608C29.154,13.366 29.403,13.153 29.697,13.003C29.699,13.002 29.701,13.001 29.702,13C29.663,13.115 29.636,13.269 29.645,13.411Z" id="path_145"/><path fill="#9e892eff" d="M29.347,15.344L29.345,15.344C29.707,15.554 30.007,15.99 30.055,16.417C30.692,16.169 31.142,16.02 32,16.02C31.113,15.184 29.819,15.357 29.347,15.344Z" id="path_146"/><path fill="#9e892eff" d="M32,12.515C32.011,12.586 32.053,12.649 32.111,12.719C32.17,12.789 32.246,12.867 32.327,12.969C32.75,13.176 33.935,13.041 33.935,14.223C33.935,14.545 33.783,14.855 33.519,15.053C33.848,14.979 34.155,14.738 34.263,14.245C34.364,13.718 34.064,13.23 33.589,12.992C33.138,12.766 32.245,12.787 32.043,12.513C32.029,12.514 32.014,12.515 32,12.515Z" id="path_147"/><path fill="#9e892eff" d="M34.355,13.411C34.378,13.451 34.401,13.494 34.423,13.539C34.427,13.546 34.431,13.554 34.434,13.561H34.434C34.82,13.653 35.107,13.999 35.107,14.412C35.107,14.578 35.072,14.739 34.981,14.864C34.964,14.888 34.945,14.91 34.926,14.93L34.926,14.931L34.927,14.93C35.336,14.529 35.299,14.026 35.012,13.608C34.846,13.366 34.597,13.153 34.303,13.003C34.301,13.002 34.299,13.001 34.298,13C34.337,13.115 34.364,13.269 34.355,13.411Z" id="path_148"/><path fill="#dbbf74ff" d="M34.298,13C34.3,13.001 34.301,13.002 34.303,13.003C34.597,13.153 34.846,13.366 35.012,13.607C35.299,14.026 35.337,14.529 34.927,14.93L34.926,14.931L34.926,14.931C34.612,15.281 34.15,15.209 34.014,15.178C33.988,15.172 33.979,15.169 33.976,15.168C34.063,15.189 34.571,14.824 34.571,14.223C34.571,14.097 34.555,13.972 34.531,13.859C34.506,13.745 34.472,13.642 34.434,13.561C34.431,13.554 34.427,13.546 34.423,13.539C34.401,13.494 34.378,13.452 34.355,13.411C33.769,12.394 32.848,12.72 32.36,12.312C32.326,12.367 32.281,12.414 32.227,12.448C32.173,12.483 32.11,12.506 32.043,12.513C32.245,12.786 33.137,12.766 33.589,12.992C34.063,13.23 34.363,13.718 34.263,14.244C34.155,14.738 33.848,14.979 33.519,15.053C33.272,14.999 33.1,14.955 32.919,14.924C32.738,14.891 32.549,14.871 32.268,14.863C32.347,14.699 32.406,14.523 32.444,14.338C32.478,14.181 32.496,14.017 32.496,13.849C32.496,13.551 32.443,13.257 32.327,12.969L32.327,12.969C32.165,12.766 32.021,12.657 32,12.515C31.978,12.657 31.834,12.766 31.673,12.969L31.673,12.969C31.557,13.257 31.503,13.551 31.503,13.849C31.503,14.017 31.522,14.181 31.555,14.338C31.594,14.523 31.653,14.699 31.732,14.863C31.451,14.871 31.261,14.891 31.081,14.924C30.9,14.955 30.728,14.999 30.481,15.053C30.152,14.979 29.845,14.738 29.737,14.244C29.636,13.717 29.936,13.23 30.41,12.992C30.862,12.766 31.755,12.786 31.957,12.513C31.889,12.507 31.827,12.483 31.773,12.448C31.719,12.414 31.673,12.367 31.64,12.312C31.151,12.72 30.231,12.394 29.645,13.411C29.621,13.452 29.598,13.494 29.576,13.539C29.573,13.546 29.569,13.554 29.566,13.561C29.528,13.642 29.494,13.745 29.469,13.859C29.444,13.972 29.429,14.097 29.429,14.223C29.429,14.824 29.937,15.189 30.023,15.168C30.021,15.169 30.012,15.172 29.986,15.178C29.85,15.209 29.388,15.281 29.074,14.931H29.074V14.931C29.073,14.931 29.073,14.93 29.073,14.93C28.663,14.529 28.7,14.026 28.987,13.607C29.153,13.366 29.402,13.153 29.696,13.003C29.698,13.002 29.7,13.001 29.702,13C28.951,13.035 28.353,13.653 28.353,14.413C28.353,14.648 28.412,14.871 28.514,15.066C28.532,15.1 28.55,15.132 28.571,15.164C28.597,15.163 28.623,15.16 28.649,15.16C28.902,15.16 29.14,15.225 29.345,15.344C29.345,15.344 29.345,15.344 29.346,15.344H29.346C29.818,15.357 31.113,15.184 31.999,16.02H32C32.887,15.184 34.181,15.357 34.653,15.344C34.654,15.344 34.654,15.344 34.654,15.344C34.859,15.226 35.097,15.16 35.35,15.16C35.377,15.16 35.403,15.163 35.429,15.164C35.449,15.132 35.468,15.1 35.485,15.066C35.587,14.87 35.646,14.648 35.646,14.413C35.647,13.653 35.048,13.035 34.298,13Z" id="path_149"/><path fill="#9e892eff" d="M34.654,15.344L34.655,15.344C34.293,15.554 33.993,15.99 33.945,16.417C33.308,16.169 32.858,16.02 32,16.02C32.887,15.184 34.182,15.357 34.654,15.344Z" id="path_150"/><path fill="#69767bff" d="M42.673,24.01C42.673,24.01 42.644,24.041 42.644,24.041C41.832,24.899 40.634,24.596 38.317,24.505C37.226,24.463 36.515,25.266 35.958,26.188C35.937,26.042 35.905,25.898 35.864,25.758C35.821,25.609 35.768,25.465 35.706,25.325C35.681,25.271 35.656,25.218 35.629,25.165C35.628,25.164 35.627,25.162 35.626,25.16C35.625,25.157 35.623,25.154 35.622,25.15C35.548,25.007 35.464,24.868 35.37,24.737L38.845,22.966C39.528,22.618 40.063,22.093 40.421,21.476C40.418,21.478 39.411,21.986 39.408,21.987C39.389,21.998 38.936,22.244 39.061,22.606C39.061,22.606 38.671,22.161 38.637,21.853C38.637,21.853 38.618,22.105 38.646,22.372L34.953,24.246C34.791,24.085 34.618,23.947 34.446,23.83L35.646,22.287L35.588,21.8L38.302,18.299L38.185,18.206L35.678,21.433L34.028,23.574C34.024,23.572 34.019,23.569 34.014,23.566H34.013C33.664,23.381 33.374,23.274 33.058,23.196V21.604C33.058,21.505 33.001,21.414 32.912,21.37C32.911,21.369 32.59,21.188 32.589,21.187V18.719C32.589,18.311 32.515,17.905 32.369,17.523L32,16.495V18.031C32,18.254 32.025,18.385 32.441,18.405C32.354,18.426 32.216,18.448 32,18.462C31.866,18.47 31.724,18.472 31.523,18.472C31.523,18.472 31.529,18.527 31.617,18.581C31.671,18.614 31.756,18.647 31.889,18.667C31.923,18.672 31.96,18.676 32,18.679V23.068C31.636,23.067 31.281,23.112 30.943,23.196C30.605,23.279 30.206,23.439 29.969,23.57L25.818,18.209L25.698,18.299L28.412,21.799L28.354,22.287L29.552,23.828C29.447,23.9 29.349,23.974 29.261,24.048C29.17,24.126 29.082,24.208 28.999,24.293L26.804,23.187C26.596,23.083 26.359,23.054 26.132,23.107L26.015,23.134L26.159,22.853L23.916,21.72C23.608,21.565 23.234,21.687 23.077,21.994L23.068,22.014L25.778,23.263C25.855,23.299 25.948,23.268 25.987,23.191L26.015,23.134L28.782,24.536C28.49,24.894 28.266,25.31 28.136,25.757C28.095,25.898 28.064,26.042 28.042,26.188C27.485,25.266 26.774,24.463 25.684,24.505C23.366,24.596 22.169,24.899 21.357,24.041C21.357,24.041 21.327,24.009 21.328,24.009C21.306,24.073 21.38,24.206 21.42,24.265C21.631,24.577 22.223,25.036 23.497,24.967C24.794,24.898 25.46,24.851 25.894,24.89C26.191,24.917 26.44,25.012 26.656,25.157C26.857,25.258 27.044,25.436 27.234,25.732C27.246,25.75 27.257,25.768 27.269,25.787C27.297,25.797 27.325,25.808 27.353,25.821C27.716,25.991 27.92,26.261 27.979,26.481C27.982,26.49 27.985,26.499 27.987,26.509C27.987,26.511 27.995,26.569 28.013,26.862C27.575,26.709 27.11,26.756 26.885,26.763C26.181,26.784 25.58,26.792 25.506,26.703C25.506,26.703 25.506,26.703 25.506,26.703C25.575,26.799 25.99,26.99 26.694,26.975C27.011,26.968 27.524,26.977 27.991,27.123C28.008,27.128 28.025,27.134 28.042,27.139C28.07,27.331 28.115,27.518 28.175,27.7L22.497,30.589C22.189,30.746 22.067,31.123 22.224,31.431L22.703,31.191L25.407,29.813L22.814,31.408L23.207,32.181L23.456,32.054C24.096,31.728 24.689,31.318 25.219,30.835L27.076,28.962L28.429,28.273C28.429,28.274 28.429,28.274 28.43,28.275C28.535,28.464 28.658,28.643 28.796,28.81C29.247,29.356 29.863,29.778 30.569,30.023C30.901,30.138 31.253,30.215 31.618,30.246C31.744,30.257 31.871,30.262 32,30.262V34.806C32,34.806 32.234,34.586 32.963,34.364C32.82,34.333 32.694,34.27 32.596,34.17C32.454,34.023 32.382,33.814 32.383,33.548V30.246C32.747,30.215 33.099,30.138 33.431,30.023C34.138,29.778 34.754,29.356 35.205,28.81C35.314,28.677 35.415,28.537 35.504,28.389H35.503C35.57,28.278 35.632,28.163 35.686,28.045L35.687,28.046L37.017,28.722C36.848,28.374 36.572,28.106 36.255,27.948L35.815,27.727C35.887,27.517 35.931,27.331 35.959,27.139C35.975,27.134 35.993,27.128 36.01,27.123C36.476,26.977 36.989,26.968 37.306,26.975C38.01,26.99 38.426,26.799 38.494,26.703C38.494,26.703 38.494,26.703 38.495,26.703C38.421,26.792 37.819,26.784 37.115,26.763C36.89,26.756 36.425,26.709 35.987,26.862C36.005,26.569 36.013,26.511 36.014,26.509C36.016,26.499 36.018,26.49 36.021,26.481C36.081,26.261 36.285,25.991 36.648,25.821C36.676,25.808 36.703,25.797 36.731,25.787C36.743,25.768 36.754,25.75 36.766,25.732C36.957,25.436 37.144,25.258 37.344,25.157C37.56,25.012 37.809,24.917 38.106,24.89C38.54,24.851 39.207,24.898 40.503,24.967C41.778,25.036 42.369,24.577 42.58,24.265C42.623,24.201 42.694,24.071 42.673,24.01ZM32,30.186C30.053,30.186 28.475,28.608 28.475,26.662C28.475,24.715 30.054,23.137 32,23.137C33.947,23.137 35.525,24.715 35.525,26.662C35.525,28.608 33.946,30.186 32,30.186Z" id="path_151"/><path fill="#bec6cbff" d="M41.447,28.773L41.29,29.03L40.759,28.788L39.933,28.411L39.805,28.352L39.346,28.143L38.577,28.15L38.435,28.152L37.336,28.162L37.17,28.078L37.044,28.014L35.902,27.431C35.879,27.526 35.85,27.624 35.815,27.727L36.255,27.948C36.569,28.105 36.844,28.37 37.012,28.714C37.014,28.717 37.015,28.719 37.017,28.722C37.405,28.669 37.8,28.737 38.148,28.918L40.679,30.236C41.191,30.502 41.392,31.132 41.13,31.646L40.858,32.181L42.358,29.238L41.447,28.773Z" id="path_152"/><path fill="#bec6cbff" d="M34.013,23.566H34.014C34.019,23.569 34.023,23.572 34.028,23.574L35.678,21.434L38.185,18.206L37.974,18.04L35.884,20.725L34.125,22.998L35.635,20.53L34.083,22.42L33.846,22.429L33.185,23.23C33.454,23.305 33.711,23.406 34.013,23.566Z" id="path_153"/><path fill="#69767bff" d="M35.634,20.531L35.635,20.53L35.429,20.367C35.377,20.33 35.333,20.299 35.281,20.286C35.13,20.249 35.004,20.369 34.972,20.651L34.846,21.491L35.634,20.531Z" id="path_154"/><path fill="#9ea5a9ff" d="M34.972,20.651C34.975,20.626 34.979,20.604 34.984,20.582C34.282,20.234 33.513,20.005 32.7,19.921V20.06C33.505,20.145 34.268,20.375 34.961,20.724L34.972,20.651Z" id="path_155"/><path fill="#69767bff" d="M35.88,20.731L35.635,20.53L34.125,22.997L35.88,20.731Z" id="path_156"/><path fill="#bec6cbff" d="M25.818,18.21L29.969,23.57C30.176,23.455 30.509,23.319 30.815,23.23L30.154,22.429L29.917,22.42L28.366,20.53L28.116,20.725L26.026,18.04L25.818,18.21Z" id="path_157"/><path fill="#69767bff" d="M29.154,21.491L29.028,20.65C28.996,20.369 28.87,20.249 28.719,20.286C28.667,20.299 28.623,20.33 28.571,20.367L28.365,20.53L29.154,21.491Z" id="path_158"/><path fill="#9ea5a9ff" d="M29.017,20.581C29.021,20.603 29.025,20.626 29.028,20.651L29.039,20.725C29.733,20.376 30.494,20.145 31.3,20.059V19.921C30.487,20.005 29.718,20.234 29.017,20.581Z" id="path_159"/><path fill="#69767bff" d="M29.875,22.997L28.366,20.53L28.116,20.725L29.875,22.997Z" id="path_160"/><path fill="#bec6cbff" d="M37.254,22.403L37.129,22.467L35.991,23.047L35.863,23.112L34.45,23.832C34.619,23.949 34.792,24.086 34.953,24.246L38.647,22.372C38.618,22.105 38.636,21.853 38.636,21.853C38.641,21.892 38.651,21.932 38.665,21.974C38.693,22.057 38.737,22.144 38.786,22.227C38.811,22.268 38.836,22.308 38.862,22.345C38.964,22.495 39.061,22.607 39.061,22.607C39.046,22.561 39.039,22.518 39.04,22.476C39.041,22.29 39.186,22.145 39.294,22.063C39.33,22.035 39.362,22.015 39.382,22.002C39.416,21.982 39.314,22.035 40.421,21.476C40.266,21.461 40.112,21.454 39.975,21.457V21.456C39.921,21.457 39.867,21.459 39.813,21.462C39.375,21.487 38.934,21.588 38.511,21.771C38.468,21.79 38.425,21.809 38.382,21.83C38.351,21.844 38.32,21.86 38.289,21.875L37.254,22.403Z" id="path_161"/><path fill="#9ea5a9ff" d="M36.285,29.862C36.519,29.552 36.72,29.217 36.883,28.861L36.76,28.798C36.605,29.137 36.414,29.455 36.194,29.75L36.285,29.862Z" id="path_162"/><path fill="#9ea5a9ff" d="M37.051,31.101C37.334,30.78 37.589,30.435 37.808,30.066L37.721,29.942C37.503,30.318 37.248,30.67 36.963,30.994L37.051,31.101Z" id="path_163"/><path fill="#9ea5a9ff" d="M37.937,32.178C38.287,31.803 38.604,31.397 38.879,30.961L38.759,30.893C38.492,31.314 38.186,31.707 37.848,32.07L37.937,32.178Z" id="path_164"/><path fill="#9ea5a9ff" d="M38.82,33.254C39.224,32.838 39.591,32.385 39.914,31.902L39.829,31.78C39.507,32.269 39.138,32.726 38.732,33.146L38.82,33.254Z" id="path_165"/><path fill="#9ea5a9ff" d="M25.268,33.146C24.872,32.737 24.513,32.293 24.197,31.819C24.158,31.844 24.118,31.867 24.08,31.891L24.079,31.892C24.404,32.379 24.773,32.835 25.18,33.254L25.268,33.146Z" id="path_166"/><path fill="#9ea5a9ff" d="M26.152,32.07C25.835,31.73 25.545,31.363 25.291,30.971C25.291,30.971 25.201,31.052 25.188,31.065C25.447,31.462 25.741,31.833 26.063,32.178L26.152,32.07Z" id="path_167"/><path fill="#9ea5a9ff" d="M27.038,30.992C26.758,30.674 26.506,30.331 26.291,29.963L26.19,30.064C26.41,30.434 26.666,30.78 26.949,31.101L27.038,30.992Z" id="path_168"/><path fill="#9ea5a9ff" d="M27.806,29.751C27.633,29.519 27.478,29.273 27.345,29.014L27.222,29.077C27.364,29.353 27.53,29.614 27.716,29.86L27.806,29.751Z" id="path_169"/><path fill="#9ea5a9ff" d="M26.702,18.739C26.673,18.758 26.644,18.778 26.615,18.798L26.7,18.907C26.73,18.886 26.76,18.866 26.79,18.846C28.181,17.913 29.834,17.346 31.614,17.274L31.664,17.133C29.832,17.198 28.13,17.777 26.702,18.739Z" id="path_170"/><path fill="#9ea5a9ff" d="M29.573,22.003C29.615,21.981 29.657,21.958 29.699,21.938C30.058,21.761 30.439,21.624 30.838,21.534C30.849,21.476 30.873,21.423 30.908,21.377C30.451,21.472 30.015,21.625 29.609,21.828C29.567,21.849 29.525,21.872 29.484,21.894L29.573,22.003Z" id="path_171"/><path fill="#9ea5a9ff" d="M34.301,21.938C34.343,21.959 34.385,21.981 34.427,22.003L34.517,21.894C34.475,21.871 34.434,21.849 34.391,21.828C33.985,21.625 33.549,21.472 33.092,21.377C33.127,21.423 33.151,21.476 33.162,21.534C33.561,21.625 33.942,21.761 34.301,21.938Z" id="path_172"/><path fill="#9ea5a9ff" d="M36.45,19.999L36.535,19.889C36.496,19.863 36.456,19.837 36.416,19.81C35.323,19.101 34.05,18.648 32.681,18.534C32.683,18.58 32.687,18.626 32.687,18.672C34.021,18.786 35.261,19.228 36.328,19.918C36.369,19.944 36.409,19.971 36.45,19.999Z" id="path_173"/><path fill="#9ea5a9ff" d="M37.3,18.907L37.385,18.798C37.356,18.778 37.327,18.758 37.298,18.738C35.87,17.777 34.167,17.198 32.336,17.133L32.386,17.274C34.165,17.346 35.819,17.912 37.21,18.846C37.24,18.866 37.27,18.886 37.3,18.907Z" id="path_174"/><path fill="#69767bff" d="M31.177,21.632L31.411,22.998V21.187L31.314,21.242C31.202,21.305 31.142,21.431 31.164,21.557L31.177,21.632Z" id="path_175"/><path fill="#69767bff" d="M26.429,33.37C26.429,33.37 26.559,34.076 26.681,34.68C26.673,34.661 26.664,34.642 26.656,34.624C26.648,34.605 26.594,34.461 26.464,34.261C26.359,34.103 26.258,33.969 26.112,33.819H26.111C25.545,33.741 24.694,33.82 24.344,34.271C24.321,34.298 24.311,34.33 24.311,34.361C24.311,34.409 24.334,34.455 24.378,34.483L26.665,35.616C26.688,35.631 26.715,35.638 26.74,35.638C26.778,35.638 26.815,35.623 26.841,35.596C26.872,35.565 26.888,35.518 26.902,35.442C27.437,33.346 28.57,31.598 28.846,31.193C28.89,31.129 28.906,31.113 28.915,31.104C28.946,31.073 28.988,31.055 29.035,31.055C29.082,31.055 29.124,31.073 29.155,31.104C29.188,31.137 29.195,31.164 29.233,31.278C29.236,31.286 29.576,32.325 29.587,32.368C29.603,32.425 29.627,32.468 29.657,32.499C29.693,32.535 29.737,32.552 29.786,32.552C29.844,32.552 29.909,32.528 29.976,32.481L30.592,32.051C30.592,32.051 30.611,32.036 30.616,32.031C30.636,32.011 30.648,31.984 30.648,31.953C30.648,31.924 30.636,31.896 30.615,31.875C30.596,31.855 30.567,31.845 30.56,31.845L29.916,31.725C29.915,31.726 29.915,31.726 29.914,31.728V31.728C29.833,31.876 29.736,32.069 29.677,32.241C29.685,32.109 29.722,31.501 29.737,31.274L29.372,30.34C29.332,30.237 29.24,30.163 29.13,30.148C29.021,30.132 28.911,30.176 28.843,30.263L26.429,33.37Z" id="path_176"/><path fill="#9ea5a9ff" d="M24.332,34.288C24.332,34.287 24.333,34.287 24.333,34.286C24.334,34.284 24.335,34.282 24.337,34.28C24.339,34.277 24.341,34.274 24.343,34.271C24.358,34.253 24.372,34.236 24.388,34.219C23.596,33.428 22.94,32.527 22.424,31.522L22.299,31.582C22.823,32.605 23.506,33.535 24.313,34.34C24.315,34.321 24.322,34.304 24.332,34.288Z" id="path_177"/><path fill="#bec6cbff" d="M24.368,34.242C24.732,33.817 25.558,33.743 26.111,33.819H26.111C26.259,33.97 26.359,34.103 26.464,34.261C26.594,34.461 26.648,34.605 26.656,34.623C26.664,34.643 26.673,34.661 26.681,34.68C26.559,34.077 26.429,33.369 26.429,33.369L28.843,30.263C28.911,30.176 29.021,30.132 29.13,30.147C29.24,30.163 29.332,30.237 29.372,30.34L29.737,31.274C29.722,31.501 29.685,32.109 29.677,32.241C29.737,32.069 29.833,31.876 29.915,31.728C29.915,31.726 29.915,31.726 29.916,31.725L30.56,31.845C30.568,31.845 30.596,31.855 30.615,31.875C30.626,31.885 30.634,31.897 30.639,31.91C30.592,31.749 30,29.776 30,29.776C29.532,29.531 29.121,29.204 28.796,28.811C28.76,28.767 28.725,28.723 28.692,28.678L27.152,30.544L27.17,30.832L24.368,34.242Z" id="path_178"/><path fill="#69767bff" d="M37.571,33.37C37.571,33.37 37.44,34.076 37.32,34.68C37.327,34.661 37.336,34.642 37.344,34.624C37.352,34.605 37.406,34.461 37.536,34.261C37.641,34.103 37.742,33.969 37.888,33.819H37.889C38.454,33.741 39.306,33.82 39.656,34.271C39.679,34.298 39.689,34.33 39.689,34.361C39.689,34.409 39.666,34.455 39.622,34.483L37.335,35.616C37.312,35.631 37.285,35.638 37.26,35.638C37.222,35.638 37.186,35.623 37.159,35.596C37.128,35.565 37.112,35.518 37.098,35.442C36.563,33.346 35.43,31.598 35.154,31.193C35.11,31.129 35.094,31.113 35.085,31.104C35.054,31.073 35.012,31.055 34.965,31.055C34.918,31.055 34.876,31.073 34.845,31.104C34.813,31.137 34.805,31.164 34.767,31.278C34.764,31.286 34.424,32.325 34.413,32.368C34.397,32.425 34.373,32.468 34.343,32.499C34.307,32.535 34.263,32.552 34.214,32.552C34.156,32.552 34.091,32.528 34.024,32.481L33.408,32.051C33.408,32.051 33.389,32.036 33.385,32.031C33.364,32.011 33.352,31.984 33.352,31.953C33.352,31.924 33.364,31.896 33.385,31.875C33.404,31.855 33.432,31.845 33.44,31.845L34.084,31.725C34.085,31.726 34.085,31.726 34.086,31.728V31.728C34.167,31.876 34.264,32.069 34.323,32.241C34.315,32.109 34.278,31.501 34.263,31.274L34.628,30.34C34.668,30.237 34.76,30.163 34.87,30.148C34.98,30.132 35.089,30.176 35.157,30.263L37.571,33.37Z" id="path_179"/><path fill="#9ea5a9ff" d="M42.891,26.633C42.891,25.864 42.811,25.113 42.659,24.389C42.632,24.437 42.581,24.505 42.549,24.543C42.683,25.219 42.753,25.918 42.753,26.633C42.753,28.447 42.302,30.157 41.505,31.657H41.506C41.001,32.609 40.368,33.464 39.613,34.219C39.628,34.236 39.643,34.253 39.657,34.271C39.657,34.271 39.657,34.271 39.657,34.271C39.659,34.274 39.661,34.277 39.663,34.28C39.665,34.282 39.666,34.284 39.667,34.286C39.668,34.287 39.668,34.287 39.668,34.288C39.678,34.304 39.685,34.322 39.688,34.34C40.458,33.571 41.115,32.689 41.629,31.72C42.435,30.201 42.891,28.469 42.891,26.633Z" id="path_180"/><path fill="#bec6cbff" d="M39.632,34.242C39.269,33.817 38.442,33.743 37.889,33.819H37.888C37.741,33.97 37.641,34.103 37.536,34.261C37.406,34.461 37.352,34.605 37.344,34.623C37.336,34.643 37.327,34.661 37.32,34.68C37.44,34.077 37.571,33.369 37.571,33.369L35.157,30.263C35.089,30.176 34.979,30.132 34.87,30.147C34.76,30.163 34.668,30.237 34.628,30.34L34.263,31.274C34.278,31.501 34.315,32.109 34.323,32.241C34.264,32.069 34.167,31.876 34.086,31.728C34.085,31.726 34.085,31.726 34.084,31.725L33.44,31.845C33.432,31.845 33.405,31.855 33.384,31.875C33.374,31.885 33.366,31.897 33.361,31.91C33.409,31.749 34,29.776 34,29.776C34.468,29.531 34.879,29.204 35.204,28.811C35.24,28.767 35.275,28.723 35.309,28.678L36.848,30.544L36.83,30.832L39.632,34.242Z" id="path_181"/></svg>