<svg id="vector" xmlns="http://www.w3.org/2000/svg" width="64.0d" height="64.0d" viewBox="0 0 64.0 64.0"><defs><clipPath id="clip_path_0"><path d="M10.533,25.805L10.772,25.983L22.15,16.511L20.542,15.796L10.533,25.805Z"/></clipPath><clipPath id="clip_path_1"><path d="M22.15,16.511L33.053,21.396L36.865,20.919L22.925,15.855L22.15,16.511Z"/></clipPath><clipPath id="clip_path_2"><path d="M20.542,15.796L22.15,16.511L22.925,15.855L21.078,15.2L20.542,15.796Z"/></clipPath><clipPath id="clip_path_3"><path d="M24.116,22.468L24.354,23.541L27.095,23.421L25.844,22.23L24.116,22.468Z"/></clipPath><clipPath id="clip_path_4"><path d="M27.572,22.051L29.001,23.362L36.806,23.064L33.052,21.396L27.572,22.051Z"/></clipPath><clipPath id="clip_path_5"><path d="M16.074,23.421L16.312,23.898L23.044,23.6L22.865,22.587L16.074,23.421Z"/></clipPath><clipPath id="clip_path_6"><path d="M33.052,21.396L36.806,23.064L36.865,20.919L33.052,21.396Z"/></clipPath><clipPath id="clip_path_7"><path d="M15.478,23.898L28.346,48.919L26.916,42.009L16.312,23.898H15.478Z"/></clipPath><clipPath id="clip_path_8"><path d="M15.478,23.898H16.312L16.074,23.421L15.478,23.898Z"/></clipPath><clipPath id="clip_path_9"><path d="M22.865,22.587L24.116,22.468L23.461,19.966L22.031,18.536L22.865,22.587Z"/></clipPath><clipPath id="clip_path_10"><path d="M23.044,23.6L26.916,42.009L30.55,48.264L24.355,23.541L23.044,23.6Z"/></clipPath><clipPath id="clip_path_11"><path d="M22.865,22.587L23.044,23.6L24.354,23.541L24.116,22.468L22.865,22.587Z"/></clipPath><clipPath id="clip_path_12"><path d="M28.346,48.919L30.55,48.264L26.916,42.009L28.346,48.919Z"/></clipPath><clipPath id="clip_path_13"><path d="M27.095,23.421L44.193,39.864L45.861,39.03L29.001,23.362L27.095,23.421Z"/></clipPath><clipPath id="clip_path_14"><path d="M23.461,19.966L25.844,22.23L27.572,22.051L22.925,17.762L23.461,19.966Z"/></clipPath><clipPath id="clip_path_15"><path d="M44.967,40.638L46.04,41.711L48.125,41.055L46.635,39.745L44.967,40.638Z"/></clipPath><clipPath id="clip_path_16"><path d="M25.844,22.23L27.095,23.421L29.001,23.361L27.572,22.051L25.844,22.23Z"/></clipPath><clipPath id="clip_path_17"><path d="M22.031,18.536L23.461,19.966L22.925,17.762L22.031,18.536Z"/></clipPath><clipPath id="clip_path_18"><path d="M39.189,43.915L32.397,47.728L47.827,43.379L46.04,41.711L39.189,43.915Z"/></clipPath><clipPath id="clip_path_19"><path d="M46.04,41.711L47.827,43.379L48.125,41.055L46.04,41.711Z"/></clipPath><clipPath id="clip_path_20"><path d="M31.563,46.298L39.189,43.915L44.967,40.639L44.193,39.864L31.563,46.298Z"/></clipPath><clipPath id="clip_path_21"><path d="M45.861,39.03L46.635,39.745L47.827,39.089L47.35,38.255L45.861,39.03Z"/></clipPath><clipPath id="clip_path_22"><path d="M48.721,37.6L49.197,38.315L52.95,36.171L53.427,35.158L48.721,37.6Z"/></clipPath><clipPath id="clip_path_23"><path d="M44.193,39.864L44.967,40.639L46.636,39.745L45.861,39.03L44.193,39.864Z"/></clipPath><clipPath id="clip_path_24"><path d="M31.563,46.298L32.397,47.728L39.189,43.915L31.563,46.298Z"/></clipPath><clipPath id="clip_path_25"><path d="M52.95,36.17L50.865,40.579L52.414,42.783L53.963,35.634L52.95,36.17Z"/></clipPath><clipPath id="clip_path_26"><path d="M52.95,36.171L53.963,35.634L53.427,35.158L52.95,36.171Z"/></clipPath><clipPath id="clip_path_27"><path d="M47.827,39.089L49.912,42.485L50.865,40.579L49.197,38.315L47.827,39.089Z"/></clipPath><clipPath id="clip_path_28"><path d="M38.771,24.196L47.35,38.255L48.721,37.6L39.069,24.017L38.771,24.196Z"/></clipPath><clipPath id="clip_path_29"><path d="M47.35,38.255L47.827,39.089L49.197,38.315L48.721,37.6L47.35,38.255Z"/></clipPath><clipPath id="clip_path_30"><path d="M49.912,42.485L52.414,42.783L50.865,40.579L49.912,42.485Z"/></clipPath></defs><path fill="#ffffffff" d="M32,32m-31.75,0a31.75,31.75 0,1 1,63.5 0a31.75,31.75 0,1 1,-63.5 0" stroke="#e6e6e6ff" stroke-width="0.5" id="path_0"/><path fill="#092270ff" d="M37.938,38.494C37.878,38.494 37.818,38.494 37.759,38.494C36.567,38.494 35.674,38.97 34.721,39.685C34.601,38.851 34.542,38.076 34.542,37.421C34.542,36.647 34.601,35.991 34.661,35.515C35.018,35.753 35.078,36.17 35.078,36.587C35.078,36.885 35.018,37.183 34.959,37.302C35.316,36.885 35.435,36.409 35.435,36.051C35.435,35.634 35.316,35.277 35.197,35.098C35.733,35.574 35.852,36.111 35.852,36.528C35.852,36.647 35.852,36.706 35.852,36.826C35.972,36.587 36.031,36.289 36.031,35.991C36.031,35.515 35.852,35.038 35.316,34.562C36.091,34.74 36.389,35.455 36.389,35.991C36.448,35.813 36.448,35.634 36.448,35.515C36.448,35.336 36.389,35.157 36.389,35.038C36.15,34.443 35.555,34.204 35.257,34.145C35.316,34.145 35.376,34.145 35.435,34.145C35.912,34.145 36.15,34.323 36.329,34.443C36.448,34.562 36.508,34.681 36.567,34.681C36.567,34.443 36.448,34.264 36.329,34.145C36.091,33.847 35.733,33.728 35.376,33.728C35.257,33.728 35.078,33.728 34.959,33.787C35.138,33.549 35.435,33.43 35.733,33.43C35.852,33.43 35.972,33.43 36.091,33.489C35.912,33.251 35.614,33.132 35.376,33.132C35.078,33.132 34.84,33.251 34.601,33.549C34.542,33.489 34.542,33.37 34.482,33.311C34.423,33.191 34.363,33.013 34.363,32.834C34.363,32.834 34.363,32.834 34.304,32.834C34.304,32.834 34.304,32.834 34.244,32.834C34.184,33.013 34.184,33.132 34.125,33.311C34.065,33.37 34.065,33.489 34.006,33.549C33.827,33.251 33.529,33.132 33.291,33.132C33.052,33.132 32.755,33.251 32.576,33.489C32.695,33.43 32.814,33.43 32.933,33.43C33.172,33.43 33.469,33.549 33.648,33.787C33.529,33.728 33.35,33.728 33.231,33.728C32.874,33.728 32.516,33.847 32.278,34.145C32.159,34.264 32.099,34.443 32.04,34.681C32.04,34.621 32.159,34.502 32.278,34.383C32.457,34.264 32.695,34.085 33.172,34.085C33.231,34.085 33.35,34.085 33.41,34.085C33.112,34.145 32.516,34.383 32.278,34.979C32.218,35.098 32.218,35.277 32.218,35.455C32.218,35.634 32.218,35.813 32.278,35.991C32.278,35.455 32.576,34.74 33.35,34.562C32.814,35.038 32.635,35.515 32.635,35.991C32.635,36.289 32.695,36.587 32.814,36.826C32.814,36.766 32.814,36.647 32.814,36.528C32.814,36.111 32.933,35.574 33.469,35.098C33.41,35.217 33.231,35.574 33.231,35.991C33.231,36.349 33.35,36.826 33.708,37.243C33.648,37.123 33.589,36.826 33.589,36.528C33.589,36.111 33.708,35.694 34.065,35.515C34.125,35.932 34.125,36.587 34.125,37.362C34.125,38.076 34.065,38.851 33.946,39.685C33.052,38.97 32.099,38.494 30.908,38.494C30.848,38.494 30.789,38.494 30.729,38.494C30.133,38.494 29.538,38.672 29.061,38.97C29.478,38.851 29.895,38.791 30.312,38.791C30.431,38.791 30.55,38.791 30.669,38.791C31.206,38.851 31.682,38.97 32.099,39.208C32.755,39.506 33.291,39.923 33.827,40.34C33.529,40.638 32.397,41.651 32.04,41.83C31.98,41.711 31.861,41.651 31.682,41.651C31.682,41.651 31.623,41.651 31.563,41.651C31.444,41.711 31.265,41.83 31.265,41.949C31.265,42.008 31.265,42.008 31.265,42.068C31.265,42.187 31.325,42.247 31.325,42.306C31.444,42.425 31.563,42.485 31.742,42.485C31.861,42.485 31.92,42.485 32.04,42.425C32.576,42.187 33.172,41.532 33.946,40.817C34.006,40.757 34.065,40.698 34.125,40.638C34.184,40.698 34.244,40.757 34.304,40.817C35.078,41.532 35.733,42.187 36.21,42.425C36.329,42.485 36.448,42.485 36.508,42.485C36.627,42.485 36.806,42.425 36.925,42.306C36.984,42.247 36.984,42.128 36.984,42.068C36.984,42.008 36.984,42.008 36.984,41.949C36.925,41.83 36.806,41.711 36.686,41.651C36.627,41.651 36.627,41.651 36.567,41.651C36.448,41.651 36.329,41.711 36.21,41.83C35.852,41.651 34.721,40.579 34.423,40.34C34.959,39.923 35.495,39.506 36.15,39.208C36.627,39.03 37.104,38.851 37.58,38.791C37.699,38.791 37.818,38.791 37.938,38.791C38.354,38.791 38.772,38.851 39.189,38.97C39.129,38.672 38.533,38.494 37.938,38.494Z" id="path_1"/><g id="g_0"><path fill="@drawable/$partner_mcit__0" d="M17.503,10.077L27.155,21.932L15.18,31.643L5.589,19.847L17.503,10.077Z" clip-path="url(#clip_path_0)"/></g><g id="g_1"><path fill="@drawable/$partner_mcit__1" d="M30.967,8.647L39.546,19.191L28.048,28.545L19.469,18.06L30.967,8.647Z" clip-path="url(#clip_path_1)"/></g><g id="g_2"><path fill="@drawable/$partner_mcit__2" d="M21.972,14.008L23.58,15.974L21.495,17.702L19.886,15.736L21.972,14.008Z" clip-path="url(#clip_path_2)"/></g><g id="g_3"><path fill="@drawable/$partner_mcit__3" d="M23.58,22.468L26.559,21.038L27.631,23.302L24.652,24.732L23.58,22.468Z" clip-path="url(#clip_path_3)"/></g><g id="g_4"><path fill="@drawable/$partner_mcit__4" d="M26.737,21.753L35.078,17.762L37.58,23.004L29.299,26.996L26.737,21.753Z" clip-path="url(#clip_path_4)"/></g><g id="g_5"><path fill="@drawable/$partner_mcit__5" d="M15.538,22.826L21.733,19.847L23.58,23.66L17.384,26.638L15.538,22.826Z" clip-path="url(#clip_path_5)"/></g><g id="g_6"><path fill="@drawable/$partner_mcit__6" d="M32.218,21.336L36.15,19.43L37.699,22.647L33.767,24.553L32.218,21.336Z" clip-path="url(#clip_path_6)"/></g><g id="g_7"><path fill="@drawable/$partner_mcit__7" d="M5.708,28.604L25.903,18.894L38.116,44.213L17.861,53.924L5.708,28.604Z" clip-path="url(#clip_path_7)"/></g><g id="g_8"><path fill="@drawable/$partner_mcit__8" d="M15.299,23.54L16.133,23.123L16.491,23.838L15.657,24.255L15.299,23.54Z" clip-path="url(#clip_path_8)"/></g><g id="g_9"><path fill="@drawable/$partner_mcit__9" d="M23.64,17.643L25.844,21.634L22.508,23.481L20.244,19.49L23.64,17.643Z" clip-path="url(#clip_path_9)"/></g><g id="g_10"><path fill="@drawable/$partner_mcit__10" d="M28.763,20.383L41.035,42.426L24.831,51.481L12.559,29.438L28.763,20.383Z" clip-path="url(#clip_path_10)"/></g><g id="g_11"><path fill="@drawable/$partner_mcit__11" d="M23.997,21.813L24.891,23.362L23.223,24.256L22.389,22.707L23.997,21.813Z" clip-path="url(#clip_path_11)"/></g><g id="g_12"><path fill="@drawable/$partner_mcit__12" d="M29.657,40.46L33.47,47.311L27.75,50.468L23.938,43.677L29.657,40.46Z" clip-path="url(#clip_path_12)"/></g><g id="g_13"><path fill="@drawable/$partner_mcit__13" d="M39.129,48.919L19.172,33.966L33.887,14.366L53.844,29.319L39.129,48.919Z" clip-path="url(#clip_path_13)"/></g><g id="g_14"><path fill="@drawable/$partner_mcit__14" d="M25.903,24.434L20.78,20.621L24.593,15.557L29.657,19.37L25.903,24.434Z" clip-path="url(#clip_path_14)"/></g><g id="g_15"><path fill="@drawable/$partner_mcit__15" d="M46.993,43.2L44.014,40.996L46.099,38.196L49.078,40.459L46.993,43.2Z" clip-path="url(#clip_path_15)"/></g><g id="g_16"><path fill="@drawable/$partner_mcit__16" d="M27.869,24.97L25.189,22.944L26.976,20.562L29.657,22.528L27.869,24.97Z" clip-path="url(#clip_path_16)"/></g><g id="g_17"><path fill="@drawable/$partner_mcit__17" d="M22.925,20.621L20.959,19.191L22.567,17.106L24.533,18.536L22.925,20.621Z" clip-path="url(#clip_path_17)"/></g><g id="g_18"><path fill="@drawable/$partner_mcit__18" d="M49.972,46.834L34.661,53.208L30.252,42.604L45.504,36.23L49.972,46.834Z" clip-path="url(#clip_path_18)"/></g><g id="g_19"><path fill="@drawable/$partner_mcit__19" d="M48.959,43.021L46.397,44.153L45.265,41.413L47.827,40.34L48.959,43.021Z" clip-path="url(#clip_path_19)"/></g><g id="g_20"><path fill="@drawable/$partner_mcit__20" d="M47.291,45.345L33.589,51.124L29.24,40.877L42.942,35.098L47.291,45.345Z" clip-path="url(#clip_path_20)"/></g><g id="g_21"><path fill="@drawable/$partner_mcit__21" d="M48.363,39.506L46.159,40.4L45.384,38.494L47.529,37.6L48.363,39.506Z" clip-path="url(#clip_path_21)"/></g><g id="g_22"><path fill="@drawable/$partner_mcit__22" d="M54.559,37.839L49.435,39.983L47.589,35.634L52.712,33.49L54.559,37.839Z" clip-path="url(#clip_path_22)"/></g><g id="g_23"><path fill="@drawable/$partner_mcit__23" d="M47.231,40.4L44.55,41.532L43.597,39.268L46.278,38.136L47.231,40.4Z" clip-path="url(#clip_path_23)"/></g><g id="g_24"><path fill="@drawable/$partner_mcit__24" d="M40.559,47.132L32.695,50.468L30.193,44.451L38.057,41.175L40.559,47.132Z" clip-path="url(#clip_path_24)"/></g><g id="g_25"><path fill="@drawable/$partner_mcit__25" d="M56.525,41.71L51.282,43.915L48.304,36.706L53.486,34.502L56.525,41.71Z" clip-path="url(#clip_path_25)"/></g><g id="g_26"><path fill="@drawable/$partner_mcit__26" d="M54.321,36.051L53.129,36.588L52.593,35.336L53.844,34.8L54.321,36.051Z" clip-path="url(#clip_path_26)"/></g><g id="g_27"><path fill="@drawable/$partner_mcit__27" d="M52.354,41.889L48.304,43.557L46.338,38.911L50.389,37.243L52.354,41.889Z" clip-path="url(#clip_path_27)"/></g><g id="g_28"><path fill="@drawable/$partner_mcit__28" d="M53.784,36.111L40.261,41.83L33.708,26.162L47.231,20.502L53.784,36.111Z" clip-path="url(#clip_path_28)"/></g><g id="g_29"><path fill="@drawable/$partner_mcit__29" d="M49.733,38.851L47.648,39.745L46.814,37.838L48.899,36.945L49.733,38.851Z" clip-path="url(#clip_path_29)"/></g><g id="g_30"><path fill="@drawable/$partner_mcit__30" d="M53.189,42.485L50.329,43.676L49.138,40.936L52.057,39.745L53.189,42.485Z" clip-path="url(#clip_path_30)"/></g></svg>