<svg id="vector" xmlns="http://www.w3.org/2000/svg" width="40.0d" height="40.0d" viewBox="0 0 40.0 40.0"><path fill="#ffffffff" d="M20,20m-19.75,0a19.75,19.75 0,1 1,39.5 0a19.75,19.75 0,1 1,-39.5 0" stroke="#e6e6e6ff" stroke-width="0.5" id="path_0"/><path fill="#929497ff" d="M6.983,26.516C7.001,26.537 7.011,26.537 7.022,26.516L7.569,25.475C7.576,25.461 7.587,25.454 7.601,25.454H7.701C7.719,25.454 7.737,25.472 7.737,25.489V26.684C7.737,26.705 7.719,26.719 7.701,26.719H7.601C7.58,26.719 7.566,26.702 7.566,26.684V25.754L7.086,26.648C7.033,26.745 6.915,26.745 6.865,26.648L6.471,25.872V26.687C6.471,26.709 6.457,26.723 6.436,26.723H6.339C6.321,26.723 6.303,26.705 6.303,26.687V25.493C6.303,25.472 6.321,25.457 6.339,25.457H6.439C6.453,25.457 6.464,25.464 6.471,25.479L6.983,26.516Z" id="path_1"/><path fill="#929497ff" d="M8.177,25.779H8.277C8.299,25.779 8.313,25.797 8.313,25.815V26.684C8.313,26.705 8.299,26.719 8.277,26.719H8.177C8.156,26.719 8.141,26.702 8.141,26.684V25.815C8.141,25.793 8.159,25.779 8.177,25.779Z" id="path_2"/><path fill="#929497ff" d="M8.227,25.454C8.277,25.454 8.32,25.497 8.32,25.547C8.32,25.597 8.277,25.64 8.227,25.64C8.177,25.64 8.134,25.597 8.134,25.547C8.134,25.497 8.177,25.454 8.227,25.454Z" id="path_3"/><path fill="#929497ff" d="M9.994,25.779H10.094C10.115,25.779 10.13,25.797 10.13,25.815V26.684C10.13,26.705 10.112,26.72 10.094,26.72H9.994C9.976,26.72 9.958,26.702 9.958,26.684V25.815C9.958,25.793 9.976,25.779 9.994,25.779Z" id="path_4"/><path fill="#929497ff" d="M10.043,25.454C10.094,25.454 10.137,25.497 10.137,25.547C10.137,25.597 10.094,25.64 10.043,25.64C9.993,25.64 9.951,25.597 9.951,25.547C9.951,25.497 9.993,25.454 10.043,25.454Z" id="path_5"/><path fill="#929497ff" d="M22.964,25.779H23.064C23.082,25.779 23.1,25.797 23.1,25.815V26.684C23.1,26.705 23.082,26.719 23.064,26.719H22.964C22.943,26.719 22.928,26.702 22.928,26.684V25.815C22.928,25.793 22.946,25.779 22.964,25.779Z" id="path_6"/><path fill="#929497ff" d="M23.014,25.454C23.064,25.454 23.107,25.497 23.107,25.547C23.107,25.597 23.064,25.64 23.014,25.64C22.964,25.64 22.921,25.597 22.921,25.547C22.921,25.497 22.964,25.454 23.014,25.454Z" id="path_7"/><path fill="#929497ff" d="M9.411,26.154C9.411,25.933 9.225,25.858 8.842,25.861V26.68C8.842,26.698 8.824,26.716 8.806,26.716H8.706C8.688,26.716 8.671,26.698 8.671,26.68V25.811C8.671,25.79 8.688,25.775 8.706,25.775C8.857,25.775 9.007,25.772 9.157,25.775C9.425,25.786 9.582,25.954 9.582,26.215V26.684C9.582,26.702 9.565,26.72 9.547,26.72H9.447C9.429,26.72 9.411,26.702 9.411,26.684V26.154Z" id="path_8"/><path fill="#929497ff" d="M25.285,26.154C25.285,25.933 25.099,25.858 24.716,25.861V26.68C24.716,26.698 24.698,26.716 24.681,26.716H24.58C24.563,26.716 24.545,26.698 24.545,26.68V25.811C24.545,25.79 24.563,25.775 24.58,25.775C24.731,25.775 24.881,25.772 25.031,25.775C25.299,25.786 25.456,25.954 25.456,26.215V26.684C25.456,26.702 25.439,26.72 25.421,26.72H25.321C25.303,26.72 25.285,26.702 25.285,26.684V26.154Z" id="path_9"/><path fill="#929497ff" d="M18.966,26.337C18.966,26.559 19.152,26.634 19.535,26.63V25.811C19.535,25.793 19.553,25.775 19.571,25.775H19.671C19.689,25.775 19.706,25.793 19.706,25.811V26.68C19.706,26.702 19.689,26.716 19.671,26.716C19.521,26.716 19.37,26.72 19.22,26.716C18.952,26.705 18.795,26.537 18.795,26.276V25.808C18.795,25.79 18.812,25.772 18.83,25.772H18.93C18.948,25.772 18.966,25.79 18.966,25.808V26.337Z" id="path_10"/><path fill="#929497ff" d="M11.345,26.28V25.489C11.345,25.468 11.363,25.454 11.381,25.454H11.481C11.503,25.454 11.517,25.472 11.517,25.489V25.761C11.517,25.772 11.524,25.779 11.535,25.779H11.785C11.796,25.779 11.803,25.786 11.803,25.797V25.847C11.803,25.858 11.796,25.865 11.785,25.865H11.535C11.524,25.865 11.517,25.872 11.517,25.883V26.366C11.517,26.509 11.599,26.591 11.764,26.627C11.864,26.648 11.892,26.723 11.771,26.72C11.506,26.712 11.345,26.541 11.345,26.28Z" id="path_11"/><path fill="#929497ff" d="M22.184,26.28V25.489C22.184,25.468 22.202,25.454 22.22,25.454H22.32C22.338,25.454 22.356,25.472 22.356,25.489V25.761C22.356,25.772 22.363,25.779 22.374,25.779H22.624C22.635,25.779 22.642,25.786 22.642,25.797V25.847C22.642,25.858 22.635,25.865 22.624,25.865H22.374C22.363,25.865 22.356,25.872 22.356,25.883V26.365C22.356,26.509 22.438,26.591 22.603,26.627C22.703,26.648 22.732,26.723 22.61,26.719C22.342,26.712 22.184,26.541 22.184,26.28Z" id="path_12"/><path fill="#929497ff" d="M15.4,25.893V26.684C15.4,26.702 15.418,26.719 15.436,26.719H15.536C15.554,26.719 15.572,26.702 15.572,26.684V26.14C15.572,26.129 15.579,26.122 15.59,26.122H15.84C15.851,26.122 15.858,26.115 15.858,26.104V26.054C15.858,26.044 15.851,26.037 15.84,26.037H15.59C15.579,26.037 15.572,26.029 15.572,26.019V25.811C15.572,25.668 15.654,25.586 15.819,25.55C15.919,25.529 15.948,25.454 15.826,25.457C15.558,25.461 15.4,25.632 15.4,25.893Z" id="path_13"/><path fill="#929497ff" d="M12.075,26.215V26.684C12.075,26.702 12.093,26.72 12.111,26.72H12.211C12.229,26.72 12.247,26.702 12.247,26.684C12.247,26.08 12.247,26.948 12.247,26.133C12.247,25.99 12.329,25.908 12.494,25.872C12.594,25.851 12.622,25.775 12.501,25.779C12.233,25.786 12.075,25.954 12.075,26.215Z" id="path_14"/><path fill="#929497ff" d="M13.459,26.737C13.459,26.727 13.452,26.72 13.441,26.72C13.373,26.72 13.33,26.72 13.237,26.716C12.969,26.705 12.812,26.537 12.812,26.276V25.808C12.812,25.79 12.83,25.772 12.848,25.772H12.948C12.966,25.772 12.983,25.79 12.983,25.808V26.333C12.983,26.494 13.087,26.637 13.227,26.637C13.313,26.637 13.463,26.569 13.463,26.391C13.463,26.198 13.463,26.001 13.463,25.808C13.463,25.79 13.481,25.772 13.498,25.772H13.599C13.616,25.772 13.634,25.79 13.634,25.808V26.852C13.634,27.113 13.477,27.285 13.209,27.292C13.087,27.295 13.116,27.22 13.216,27.199C13.38,27.163 13.463,27.07 13.466,26.927L13.459,26.737Z" id="path_15"/><path fill="#929497ff" d="M16.549,25.454C16.821,25.454 17.096,25.454 17.368,25.454C17.382,25.454 17.393,25.464 17.393,25.479V25.55C17.393,25.565 17.382,25.575 17.368,25.575H16.685V25.997H17.171C17.185,25.997 17.196,26.008 17.196,26.022V26.094C17.196,26.108 17.185,26.119 17.171,26.119H16.685V26.598H17.368C17.382,26.598 17.393,26.609 17.393,26.623V26.695C17.393,26.709 17.382,26.72 17.368,26.72C17.096,26.72 16.821,26.72 16.549,26.72C16.527,26.72 16.513,26.702 16.513,26.684V25.489C16.513,25.472 16.531,25.454 16.549,25.454Z" id="path_16"/><path fill="#929497ff" d="M14.832,25.779H14.617C14.421,25.779 14.26,25.94 14.26,26.137V26.362C14.26,26.559 14.421,26.719 14.617,26.719H14.832C15.028,26.719 15.189,26.559 15.189,26.362V26.137C15.189,25.94 15.028,25.779 14.832,25.779ZM15.003,26.408C15.003,26.526 14.907,26.626 14.785,26.626H14.657C14.539,26.626 14.438,26.53 14.438,26.408V26.09C14.442,25.969 14.539,25.872 14.657,25.872H14.785C14.903,25.872 15.003,25.969 15.003,26.09V26.408Z" id="path_17"/><path fill="#929497ff" d="M23.958,25.779H23.744C23.547,25.779 23.386,25.94 23.386,26.137V26.362C23.386,26.559 23.547,26.719 23.744,26.719H23.958C24.155,26.719 24.316,26.559 24.316,26.362V26.137C24.316,25.94 24.155,25.779 23.958,25.779ZM24.134,26.408C24.134,26.526 24.037,26.626 23.916,26.626H23.787C23.669,26.626 23.569,26.53 23.569,26.408V26.09C23.572,25.969 23.669,25.872 23.787,25.872H23.916C24.034,25.872 24.134,25.969 24.134,26.09V26.408Z" id="path_18"/><path fill="#929497ff" d="M18.437,25.454H18.337C18.319,25.454 18.301,25.472 18.301,25.489V25.761C18.301,25.772 18.294,25.779 18.283,25.779H17.883C17.686,25.779 17.525,25.94 17.525,26.137V26.362C17.525,26.559 17.686,26.72 17.883,26.72H18.337H18.401H18.437C18.458,26.72 18.473,26.702 18.473,26.684V25.489C18.473,25.468 18.455,25.454 18.437,25.454ZM18.301,26.619C18.301,26.63 18.294,26.637 18.283,26.637H17.961C17.818,26.637 17.7,26.519 17.7,26.376V26.126C17.7,25.983 17.818,25.865 17.961,25.865H18.283C18.294,25.865 18.301,25.872 18.301,25.883V26.619Z" id="path_19"/><path fill="#929497ff" d="M21.848,25.779C21.68,25.779 21.541,25.779 21.298,25.779C21.101,25.779 20.94,25.94 20.94,26.137V26.362C20.94,26.559 21.101,26.72 21.298,26.72C21.473,26.72 21.687,26.694 21.712,26.698C21.73,26.702 21.737,26.72 21.766,26.72H21.848C21.87,26.72 21.884,26.702 21.884,26.684V25.815C21.884,25.793 21.866,25.779 21.848,25.779ZM21.716,26.416C21.716,26.501 21.659,26.655 21.376,26.634C21.233,26.623 21.115,26.516 21.115,26.373V26.122C21.115,25.979 21.233,25.861 21.376,25.861H21.698C21.709,25.861 21.716,25.868 21.716,25.879V26.416Z" id="path_20"/><path fill="#929497ff" d="M20.289,26.72C20.093,26.72 19.931,26.559 19.931,26.362V26.137C19.931,25.94 20.093,25.779 20.289,25.779H20.758C20.761,25.779 20.765,25.783 20.765,25.786V25.854C20.765,25.858 20.761,25.861 20.758,25.861C20.625,25.861 20.497,25.861 20.364,25.861C20.221,25.861 20.103,25.979 20.103,26.122V26.373C20.103,26.516 20.221,26.634 20.364,26.634C20.497,26.634 20.625,26.634 20.758,26.634C20.761,26.634 20.765,26.637 20.765,26.641V26.709C20.765,26.712 20.761,26.716 20.758,26.716L20.289,26.72Z" id="path_21"/><path fill="#929497ff" d="M10.949,25.851C11.035,25.851 11.035,25.733 10.952,25.725C10.713,25.7 10.491,25.754 10.434,25.944C10.391,26.087 10.477,26.215 10.684,26.255C10.956,26.305 11.059,26.437 10.945,26.559C10.884,26.619 10.702,26.598 10.57,26.605C10.427,26.612 10.444,26.719 10.57,26.719C10.784,26.723 11.024,26.752 11.11,26.609C11.199,26.458 11.124,26.251 10.956,26.215C10.731,26.169 10.591,26.119 10.62,25.99C10.645,25.861 10.756,25.854 10.949,25.851Z" id="path_22"/><path fill="#008a79ff" d="M25.485,18.52C25.628,18.52 25.743,18.634 25.743,18.777C25.743,18.92 25.628,19.035 25.485,19.035C25.342,19.035 25.228,18.92 25.228,18.777C25.231,18.634 25.346,18.52 25.485,18.52Z" id="path_23"/><path fill="#008a79ff" d="M25.485,16.306C25.639,16.306 25.764,16.431 25.764,16.585C25.764,16.739 25.639,16.864 25.485,16.864C25.331,16.864 25.206,16.739 25.206,16.585C25.206,16.431 25.331,16.306 25.485,16.306Z" id="path_24"/><path fill="#00897dff" d="M26.765,17.358C26.919,17.358 27.044,17.483 27.044,17.636C27.044,17.79 26.919,17.915 26.765,17.915C26.611,17.915 26.486,17.79 26.486,17.636C26.486,17.483 26.611,17.358 26.765,17.358Z" id="path_25"/><path fill="#00897dff" d="M24.262,17.404C24.416,17.404 24.541,17.529 24.541,17.683C24.541,17.837 24.416,17.962 24.262,17.962C24.108,17.962 23.983,17.837 23.983,17.683C23.98,17.529 24.105,17.404 24.262,17.404Z" id="path_26"/><path fill="#008880ff" d="M21.68,17.794C21.823,17.794 21.938,17.908 21.938,18.051C21.938,18.194 21.823,18.309 21.68,18.309C21.537,18.309 21.423,18.194 21.423,18.051C21.423,17.908 21.537,17.794 21.68,17.794Z" id="path_27"/><path fill="#008880ff" d="M29.308,17.762C29.451,17.762 29.565,17.876 29.565,18.019C29.565,18.162 29.451,18.277 29.308,18.277C29.165,18.277 29.05,18.162 29.05,18.019C29.05,17.876 29.168,17.762 29.308,17.762Z" id="path_28"/><path fill="#008880ff" d="M26.83,15.305C26.998,15.305 27.13,15.441 27.13,15.605C27.13,15.773 26.994,15.906 26.83,15.906C26.662,15.906 26.529,15.77 26.529,15.605C26.529,15.437 26.662,15.305 26.83,15.305Z" id="path_29"/><path fill="#008880ff" d="M24.191,15.337C24.359,15.337 24.491,15.473 24.491,15.637C24.491,15.805 24.355,15.938 24.191,15.938C24.023,15.938 23.89,15.802 23.89,15.637C23.89,15.473 24.026,15.337 24.191,15.337Z" id="path_30"/><path fill="#008880ff" d="M22.878,16.46C23.046,16.46 23.178,16.596 23.178,16.76C23.178,16.928 23.042,17.061 22.878,17.061C22.71,17.061 22.577,16.925 22.577,16.76C22.577,16.596 22.713,16.46 22.878,16.46Z" id="path_31"/><path fill="#008880ff" d="M28.142,16.41C28.321,16.41 28.464,16.553 28.464,16.732C28.464,16.91 28.321,17.053 28.142,17.053C27.963,17.053 27.82,16.91 27.82,16.732C27.82,16.553 27.967,16.41 28.142,16.41Z" id="path_32"/><path fill="#00998bff" d="M28.239,14.422C28.435,14.422 28.593,14.579 28.593,14.776C28.593,14.972 28.435,15.13 28.239,15.13C28.042,15.13 27.885,14.972 27.885,14.776C27.885,14.579 28.042,14.422 28.239,14.422Z" id="path_33"/><path fill="#009b8bff" d="M29.734,13.739C29.977,13.739 30.174,13.935 30.174,14.178C30.174,14.422 29.977,14.618 29.734,14.618C29.49,14.618 29.294,14.422 29.294,14.178C29.294,13.939 29.49,13.739 29.734,13.739Z" id="path_34"/><path fill="#00a08bff" d="M31.285,13.256C31.568,13.256 31.797,13.485 31.797,13.767C31.797,14.05 31.568,14.278 31.285,14.278C31.003,14.278 30.774,14.05 30.774,13.767C30.774,13.485 31.003,13.256 31.285,13.256Z" id="path_35"/><path fill="#00b4a6ff" d="M32.873,12.927C33.17,12.927 33.406,13.166 33.406,13.46C33.406,13.757 33.167,13.993 32.873,13.993C32.577,13.993 32.337,13.753 32.337,13.46C32.337,13.166 32.577,12.927 32.873,12.927Z" id="path_36"/><path fill="#00b6a7ff" d="M34.486,12.709C34.815,12.709 35.083,12.977 35.083,13.306C35.083,13.635 34.815,13.903 34.486,13.903C34.157,13.903 33.889,13.635 33.889,13.306C33.889,12.973 34.157,12.709 34.486,12.709Z" id="path_37"/><path fill="#00998bff" d="M29.633,15.673C29.83,15.673 29.987,15.83 29.987,16.027C29.987,16.224 29.83,16.381 29.633,16.381C29.437,16.381 29.279,16.224 29.279,16.027C29.276,15.834 29.437,15.673 29.633,15.673Z" id="path_38"/><path fill="#009b8bff" d="M31.189,15.101C31.432,15.101 31.629,15.298 31.629,15.541C31.629,15.784 31.432,15.981 31.189,15.981C30.946,15.981 30.749,15.784 30.749,15.541C30.749,15.301 30.946,15.101 31.189,15.101Z" id="path_39"/><path fill="#00a08bff" d="M32.826,14.736C33.109,14.736 33.338,14.965 33.338,15.248C33.338,15.53 33.109,15.759 32.826,15.759C32.544,15.759 32.315,15.53 32.315,15.248C32.315,14.965 32.544,14.736 32.826,14.736Z" id="path_40"/><path fill="#00b4a6ff" d="M34.55,14.679C34.847,14.679 35.083,14.919 35.083,15.212C35.083,15.509 34.843,15.748 34.55,15.748C34.253,15.748 34.014,15.509 34.014,15.212C34.014,14.919 34.253,14.679 34.55,14.679Z" id="path_41"/><path fill="#00998bff" d="M30.978,16.989C31.175,16.989 31.332,17.146 31.332,17.343C31.332,17.54 31.175,17.697 30.978,17.697C30.781,17.697 30.624,17.54 30.624,17.343C30.624,17.146 30.781,16.989 30.978,16.989Z" id="path_42"/><path fill="#009b8bff" d="M32.827,16.549C33.07,16.549 33.267,16.746 33.267,16.989C33.267,17.232 33.07,17.429 32.827,17.429C32.584,17.429 32.387,17.232 32.387,16.989C32.387,16.75 32.584,16.549 32.827,16.549Z" id="path_43"/><path fill="#00a08bff" d="M34.597,16.503C34.861,16.503 35.076,16.717 35.076,16.982C35.076,17.247 34.861,17.461 34.597,17.461C34.332,17.461 34.118,17.247 34.118,16.982C34.114,16.717 34.332,16.503 34.597,16.503Z" id="path_44"/><path fill="#00998bff" d="M22.775,14.468C22.971,14.468 23.129,14.625 23.129,14.822C23.129,15.019 22.971,15.176 22.775,15.176C22.578,15.176 22.421,15.019 22.421,14.822C22.421,14.629 22.578,14.468 22.775,14.468Z" id="path_45"/><path fill="#009d8aff" d="M21.301,13.803C21.544,13.803 21.741,14 21.741,14.243C21.741,14.486 21.544,14.683 21.301,14.683C21.058,14.683 20.861,14.486 20.861,14.243C20.858,14 21.058,13.803 21.301,13.803Z" id="path_46"/><path fill="#00a08bff" d="M19.739,13.316C20.021,13.316 20.25,13.545 20.25,13.828C20.25,14.11 20.021,14.339 19.739,14.339C19.456,14.339 19.227,14.11 19.227,13.828C19.227,13.545 19.456,13.316 19.739,13.316Z" id="path_47"/><path fill="#00b4a6ff" d="M18.154,13.005C18.451,13.005 18.687,13.245 18.687,13.542C18.687,13.839 18.447,14.075 18.154,14.075C17.857,14.075 17.618,13.835 17.618,13.542C17.618,13.245 17.857,13.005 18.154,13.005Z" id="path_48"/><path fill="#00b6a7ff" d="M16.545,12.709C16.874,12.709 17.142,12.977 17.142,13.306C17.142,13.635 16.874,13.903 16.545,13.903C16.216,13.903 15.948,13.635 15.948,13.306C15.948,12.973 16.216,12.709 16.545,12.709Z" id="path_49"/><path fill="#00998bff" d="M21.387,15.72C21.583,15.72 21.741,15.877 21.741,16.074C21.741,16.27 21.583,16.428 21.387,16.428C21.19,16.428 21.033,16.27 21.033,16.074C21.033,15.881 21.19,15.72 21.387,15.72Z" id="path_50"/><path fill="#009d8aff" d="M19.817,15.151C20.06,15.151 20.257,15.348 20.257,15.591C20.257,15.834 20.06,16.031 19.817,16.031C19.574,16.031 19.377,15.834 19.377,15.591C19.377,15.348 19.574,15.151 19.817,15.151Z" id="path_51"/><path fill="#00a08bff" d="M18.154,14.783C18.437,14.783 18.666,15.012 18.666,15.294C18.666,15.577 18.437,15.806 18.154,15.806C17.872,15.806 17.643,15.577 17.643,15.294C17.643,15.012 17.872,14.783 18.154,14.783Z" id="path_52"/><path fill="#00b4a6ff" d="M16.481,14.726C16.777,14.726 17.017,14.965 17.017,15.258C17.017,15.555 16.777,15.795 16.481,15.795C16.184,15.795 15.948,15.555 15.948,15.258C15.948,14.965 16.184,14.726 16.481,14.726Z" id="path_53"/><path fill="#00998bff" d="M20.049,17.036C20.246,17.036 20.403,17.193 20.403,17.39C20.403,17.586 20.246,17.744 20.049,17.744C19.853,17.744 19.695,17.586 19.695,17.39C19.695,17.197 19.853,17.036 20.049,17.036Z" id="path_54"/><path fill="#009d8aff" d="M18.247,16.599C18.491,16.599 18.687,16.796 18.687,17.039C18.687,17.282 18.491,17.479 18.247,17.479C18.004,17.479 17.808,17.282 17.808,17.039C17.808,16.796 18.004,16.599 18.247,16.599Z" id="path_55"/><path fill="#00a08bff" d="M16.402,16.553C16.667,16.553 16.881,16.767 16.881,17.032C16.881,17.297 16.667,17.511 16.402,17.511C16.137,17.511 15.923,17.297 15.923,17.032C15.923,16.767 16.137,16.553 16.402,16.553Z" id="path_56"/><path fill="#019a8bff" d="M8.857,24.206C8.936,24.206 9,24.142 9,24.063C9,23.984 8.936,23.92 8.857,23.92C8.778,23.92 8.713,23.984 8.713,24.063C8.713,24.142 8.778,24.206 8.857,24.206Z" id="path_57"/><path fill="#019a8bff" d="M15.995,21.956C16.073,21.956 16.138,21.892 16.138,21.813C16.138,21.734 16.073,21.67 15.995,21.67C15.915,21.67 15.851,21.734 15.851,21.813C15.851,21.892 15.915,21.956 15.995,21.956Z" id="path_58"/><path fill="#019a8bff" d="M9.339,23.92C9.257,23.92 9.193,23.984 9.196,24.063C9.196,24.141 9.261,24.206 9.339,24.206C9.418,24.206 9.482,24.141 9.482,24.063C9.482,23.984 9.418,23.92 9.339,23.92Z" id="path_59"/><path fill="#019a8bff" d="M20.386,21.956C20.465,21.956 20.529,21.892 20.529,21.813C20.529,21.734 20.465,21.67 20.386,21.67C20.307,21.67 20.243,21.734 20.243,21.813C20.243,21.892 20.307,21.956 20.386,21.956Z" id="path_60"/><path fill="#019a8bff" d="M16.477,21.956C16.556,21.956 16.62,21.892 16.62,21.813C16.62,21.735 16.556,21.67 16.477,21.67C16.395,21.67 16.33,21.735 16.334,21.813C16.334,21.892 16.398,21.956 16.477,21.956Z" id="path_61"/><path fill="#019a8bff" d="M19.906,21.956C19.985,21.956 20.049,21.892 20.049,21.813C20.049,21.735 19.985,21.67 19.906,21.67C19.824,21.67 19.76,21.735 19.763,21.813C19.763,21.892 19.828,21.956 19.906,21.956Z" id="path_62"/><path fill="#019a8bff" d="M23.34,22.339H23.107C23.093,22.339 23.082,22.35 23.078,22.364C23.078,22.786 23.078,23.204 23.078,23.626C23.078,24.048 22.882,24.063 22.803,24.091C22.699,24.127 22.724,24.245 22.846,24.227C23.025,24.202 23.365,24.073 23.365,23.505C23.365,23.068 23.365,22.8 23.365,22.364C23.365,22.35 23.354,22.339 23.34,22.339Z" id="path_63"/><path fill="#019a8bff" d="M23.228,21.956C23.307,21.956 23.371,21.892 23.371,21.813C23.371,21.734 23.307,21.67 23.228,21.67C23.149,21.67 23.085,21.734 23.085,21.813C23.085,21.892 23.149,21.956 23.228,21.956Z" id="path_64"/><path fill="#019a8bff" d="M25.428,22.332H24.602C24.094,22.332 23.768,22.507 23.772,23V23.53C23.772,23.544 23.783,23.555 23.797,23.555H25.145C25.16,23.562 25.174,23.573 25.174,23.587V23.909C25.17,23.987 25.059,24.052 24.995,24.105C24.938,24.156 24.938,24.191 25.059,24.181C25.213,24.166 25.456,23.977 25.453,23.802V23.533V23.29V22.357C25.453,22.343 25.442,22.332 25.428,22.332ZM25.17,23.301C25.17,23.315 25.156,23.329 25.142,23.329H24.087C24.072,23.329 24.058,23.315 24.058,23.301V22.933C24.058,22.768 24.173,22.571 24.494,22.571H25.142C25.156,22.571 25.17,22.586 25.17,22.6V23.301Z" id="path_65"/><path fill="#019a8bff" d="M22.542,21.667H22.31C22.295,21.667 22.285,21.681 22.285,21.695V23.54C22.285,23.555 22.295,23.566 22.31,23.566H22.542C22.556,23.566 22.567,23.555 22.567,23.54V21.692C22.567,21.677 22.556,21.667 22.542,21.667Z" id="path_66"/><path fill="#019a8bff" d="M18.162,21.667H17.929C17.918,21.667 17.904,21.681 17.904,21.695V23.54C17.904,23.555 17.915,23.566 17.929,23.566H18.162C18.176,23.566 18.187,23.555 18.187,23.54V21.692C18.187,21.677 18.176,21.667 18.162,21.667Z" id="path_67"/><path fill="#019a8bff" d="M21.777,22.339H21.544C21.53,22.339 21.519,22.35 21.516,22.364C21.516,22.786 21.516,23.204 21.516,23.626C21.516,24.048 21.319,24.063 21.24,24.091C21.137,24.127 21.162,24.245 21.283,24.227C21.462,24.202 21.802,24.073 21.802,23.505C21.802,23.068 21.802,22.8 21.802,22.364C21.802,22.35 21.791,22.339 21.777,22.339Z" id="path_68"/><path fill="#019a8bff" d="M20.901,22.339H20.075C19.567,22.339 19.241,22.514 19.245,23.008V23.537C19.245,23.551 19.256,23.562 19.27,23.562C19.813,23.562 20.357,23.562 20.901,23.562C20.915,23.562 20.926,23.551 20.926,23.537V22.364C20.926,22.35 20.915,22.339 20.901,22.339ZM20.64,23.301C20.64,23.315 20.625,23.33 20.611,23.33H19.556C19.542,23.33 19.527,23.315 19.527,23.301V22.933C19.527,22.768 19.642,22.571 19.964,22.571H20.611C20.625,22.571 20.64,22.586 20.64,22.6V23.301Z" id="path_69"/><path fill="#019a8bff" d="M17.403,21.663H17.174C17.16,21.663 17.149,21.674 17.149,21.688V23.254C17.149,23.269 17.139,23.279 17.124,23.279H16.406C16.391,23.279 16.381,23.269 16.381,23.254V22.357C16.381,22.343 16.37,22.332 16.355,22.332H16.123C16.109,22.332 16.098,22.343 16.098,22.357V23.254C16.098,23.269 16.087,23.279 16.073,23.279H13.134C13.119,23.279 13.105,23.265 13.105,23.251V22.933C13.105,22.768 13.219,22.568 13.541,22.568H14.732C14.746,22.568 14.757,22.557 14.757,22.543V22.36C14.757,22.346 14.746,22.335 14.732,22.335H13.648C13.141,22.335 12.815,22.511 12.819,23.004V23.251C12.819,23.265 12.808,23.276 12.794,23.276H10.405C10.391,23.276 10.38,23.265 10.38,23.251V21.681C10.38,21.667 10.369,21.656 10.355,21.656H10.122C10.108,21.656 10.097,21.667 10.097,21.681V23.254C10.097,23.269 10.087,23.279 10.072,23.279H9.268C9.253,23.279 9.243,23.269 9.243,23.254V22.375C9.243,22.36 9.232,22.35 9.218,22.35H8.985C8.971,22.35 8.96,22.36 8.96,22.375V23.254C8.96,23.269 8.949,23.279 8.935,23.279H8.413C8.399,23.279 8.388,23.269 8.388,23.254V23.008C8.392,22.514 8.066,22.339 7.558,22.339H6.539C6.525,22.339 6.514,22.35 6.514,22.364V23.909H6.518C6.514,23.987 6.403,24.052 6.339,24.105C6.282,24.156 6.282,24.191 6.403,24.181C6.557,24.166 6.8,23.977 6.797,23.802V23.558H8.359H17.403C17.418,23.558 17.428,23.548 17.428,23.533V21.688C17.428,21.674 17.418,21.663 17.403,21.663ZM8.106,23.251C8.106,23.265 8.095,23.279 8.077,23.279H6.829C6.815,23.279 6.8,23.265 6.8,23.251V22.6C6.8,22.586 6.815,22.571 6.829,22.571H7.669C7.991,22.571 8.106,22.768 8.106,22.933V23.251Z" id="path_70"/></svg>