<svg id="vector" xmlns="http://www.w3.org/2000/svg" width="24.0d" height="24.0d" viewBox="0 0 24.0 24.0"><path fill="#000000ff" d="M21.463,11.264C21.462,11.264 21.462,11.263 21.461,11.263L13.302,3.513C12.954,3.182 12.492,3 12,3C11.508,3 11.046,3.182 10.698,3.512L2.543,11.259C2.54,11.261 2.537,11.264 2.535,11.267C1.821,11.949 1.822,13.056 2.538,13.737C2.866,14.048 3.298,14.228 3.76,14.247C3.779,14.248 3.798,14.249 3.817,14.249H4.142V19.953C4.142,21.082 5.109,22 6.297,22H9.489C9.813,22 10.075,21.751 10.075,21.443V16.972C10.075,16.457 10.517,16.038 11.059,16.038H12.941C13.484,16.038 13.925,16.457 13.925,16.972V21.443C13.925,21.751 14.187,22 14.511,22H17.703C18.891,22 19.858,21.082 19.858,19.953V14.249H20.16C20.651,14.249 21.114,14.067 21.462,13.737C22.179,13.055 22.179,11.946 21.463,11.264Z" id="path_0"/></svg>