<svg id="vector" xmlns="http://www.w3.org/2000/svg" width="303.0d" height="241.0d" viewBox="0 0 303.0 241.0"><path fill="#b3dfd9ff" d="M300.76,52.075L287.432,38.313C286.003,36.837 284.065,36 282.047,36L249.625,36C245.415,36.016 242,39.543 242,43.89L242,112.127C242,116.473 245.415,120 249.625,120L295.375,120C299.585,120 303,116.473 303,112.127L303,57.652C303,55.569 302.19,53.551 300.76,52.075ZM297.17,55.798C297.504,56.143 297.726,56.553 297.837,57.012L282.667,57.012L282.667,41.347C283.111,41.462 283.509,41.692 283.842,42.036L297.17,55.798ZM295.375,114.751L249.625,114.751C248.227,114.751 247.083,113.57 247.083,112.127L247.083,43.89C247.083,42.446 248.227,41.265 249.625,41.265L277.583,41.265L277.583,58.325C277.583,60.506 279.283,62.261 281.396,62.261L297.917,62.261L297.917,112.127C297.917,113.57 296.773,114.751 295.375,114.751Z" stroke="#00000000" stroke-width="1.0" stroke-opacity="0.79582286" fill-opacity="0.79582286" fill-rule="nonzero" id="path_0"/><path fill="#b3dfd9ff" d="M216.348,11.291L206.516,1.624C205.461,0.588 204.031,0 202.543,0L178.625,0C175.52,0.012 173,2.489 173,5.542L173,53.47C173,56.523 175.52,59 178.625,59L212.375,59C215.48,59 218,56.523 218,53.47L218,15.208C218,13.745 217.402,12.328 216.348,11.291ZM213.699,13.906C213.945,14.148 214.109,14.436 214.191,14.759L203,14.759L203,3.756C203.328,3.837 203.621,3.998 203.867,4.24L213.699,13.906ZM212.375,55.313L178.625,55.313C177.594,55.313 176.75,54.484 176.75,53.47L176.75,5.542C176.75,4.528 177.594,3.698 178.625,3.698L199.25,3.698L199.25,15.68C199.25,17.213 200.504,18.445 202.063,18.445L214.25,18.445L214.25,53.47C214.25,54.484 213.406,55.313 212.375,55.313Z" stroke="#00000000" stroke-width="1.0" stroke-opacity="0.79582286" fill-opacity="0.79582286" fill-rule="nonzero" id="path_1"/><path fill="#42ae9fff" d="M127.559,132.813C113.087,166.909 128.865,206.245 162.955,221.058L162.955,230.115C162.931,235.691 158.374,240.195 152.77,240.181L10.134,240.181C7.439,240.174 4.858,239.103 2.958,237.203C1.057,235.302 -0.007,232.728 0,230.048L0,34.083C0.007,31.402 1.084,28.834 2.994,26.943C4.904,25.052 7.49,23.993 10.185,24L108.636,24L108.636,71.29C108.636,75.021 111.676,78.045 115.426,78.045L162.955,78.045L162.955,97.185C147.011,104.121 134.345,116.87 127.559,132.813L127.559,132.813Z" stroke="#00000000" stroke-width="1.0" stroke-opacity="0.4" fill-opacity="0.4" fill-rule="nonzero" id="path_2"/><path fill="#42ae9fff" d="M162.3,75.47C162.3,72.794 161.232,70.227 159.33,68.334L117.785,26.956C115.87,25.057 113.274,23.993 110.571,24L107.982,24L107.982,71.29C107.982,75.021 111.022,78.046 114.772,78.046L162.3,78.046L162.3,75.47ZM268.947,219.096L236.097,186.411C241.079,178.165 243.733,168.735 243.778,159.114C243.778,129.265 219.459,105.068 189.46,105.068C159.46,105.068 135.141,129.265 135.141,159.114C135.141,188.962 159.46,213.159 189.46,213.159C199.517,213.159 208.815,210.254 216.895,205.513L249.745,238.202C251.018,239.469 252.745,240.181 254.547,240.181C256.348,240.181 258.075,239.469 259.348,238.202L268.947,228.651C270.221,227.384 270.937,225.665 270.937,223.873C270.937,222.081 270.221,220.363 268.947,219.096L268.947,219.096ZM189.46,186.137C174.46,186.137 162.3,174.038 162.3,159.114C162.3,144.19 174.46,132.091 189.46,132.091C204.459,132.091 216.619,144.19 216.619,159.114C216.619,174.038 204.459,186.137 189.46,186.137Z" stroke="#00000000" stroke-width="1.0" fill-rule="nonzero" id="path_3"/></svg>