<svg id="vector" xmlns="http://www.w3.org/2000/svg" width="21.0d" height="22.0d" viewBox="0 0 21.0 22.0"><path fill="#000000ff" d="M6.268,1.344C5.683,1.929 5.683,2.872 5.683,4.758V14.197C5.683,16.083 5.683,17.025 6.268,17.611C6.854,18.197 7.797,18.197 9.683,18.197H16.368C18.254,18.197 19.197,18.197 19.782,17.611C20.368,17.025 20.368,16.083 20.368,14.197V4.758C20.368,2.872 20.368,1.929 19.782,1.344C19.197,0.758 18.254,0.758 16.368,0.758H9.683C7.797,0.758 6.854,0.758 6.268,1.344ZM14.861,3.929C14.585,3.929 14.361,4.153 14.361,4.429C14.361,4.706 14.585,4.929 14.861,4.929L17.614,4.929C17.89,4.929 18.114,4.706 18.114,4.429C18.114,4.153 17.89,3.929 17.614,3.929L14.861,3.929ZM14.361,7.183C14.361,6.907 14.585,6.683 14.861,6.683L17.614,6.683C17.89,6.683 18.114,6.907 18.114,7.183C18.114,7.459 17.89,7.683 17.614,7.683L14.861,7.683C14.585,7.683 14.361,7.459 14.361,7.183ZM8.436,10.354C8.16,10.354 7.936,10.578 7.936,10.854C7.936,11.13 8.16,11.354 8.436,11.354L17.615,11.354C17.891,11.354 18.115,11.13 18.115,10.854C18.115,10.578 17.891,10.354 17.615,10.354L8.436,10.354ZM7.936,13.608C7.936,13.331 8.16,13.108 8.436,13.108L17.615,13.108C17.891,13.108 18.115,13.331 18.115,13.608C18.115,13.884 17.891,14.108 17.615,14.108L8.436,14.108C8.16,14.108 7.936,13.884 7.936,13.608ZM9.436,3.512C8.884,3.512 8.436,3.959 8.436,4.512V7.101C8.436,7.653 8.884,8.101 9.436,8.101H12.026C12.578,8.101 13.026,7.653 13.026,7.101V4.512C13.026,3.959 12.578,3.512 12.026,3.512H9.436Z" fill-rule="evenodd" id="path_0"/><path fill="#000000ff" d="M4.702,5.712L1.603,6.799C0.561,7.165 0.012,8.306 0.378,9.348L4.218,20.298C4.584,21.34 5.725,21.888 6.768,21.523L13.443,19.182H7.702C6.045,19.182 4.702,17.838 4.702,16.182V5.712Z" fill-rule="evenodd" id="path_1"/></svg>