<svg id="vector" xmlns="http://www.w3.org/2000/svg" width="24.0d" height="24.0d" viewBox="0 0 24.0 24.0"><path fill="#000000ff" d="M3.436,6.184C3,7.04 3,8.16 3,10.4V13V18V19.586C3,20.477 4.077,20.923 4.707,20.293L6.707,18.293C6.895,18.105 7.149,18 7.414,18H14.6C16.84,18 17.96,18 18.816,17.564C19.569,17.181 20.181,16.569 20.564,15.816C21,14.96 21,13.84 21,11.6V10.4C21,8.16 21,7.04 20.564,6.184C20.181,5.431 19.569,4.819 18.816,4.436C17.96,4 16.84,4 14.6,4H9.4C7.16,4 6.04,4 5.184,4.436C4.431,4.819 3.819,5.431 3.436,6.184ZM7,8.5C6.724,8.5 6.5,8.724 6.5,9C6.5,9.276 6.724,9.5 7,9.5H16C16.276,9.5 16.5,9.276 16.5,9C16.5,8.724 16.276,8.5 16,8.5H7ZM7,12.5C6.724,12.5 6.5,12.724 6.5,13C6.5,13.276 6.724,13.5 7,13.5H11.5C11.776,13.5 12,13.276 12,13C12,12.724 11.776,12.5 11.5,12.5H7Z" fill-rule="evenodd" id="path_0"/></svg>