<svg id="vector" xmlns="http://www.w3.org/2000/svg" width="24.0d" height="24.0d" viewBox="0 0 24.0 24.0"><path fill="#000000ff" d="M2.685,4.638C2.685,3.533 3.58,2.638 4.685,2.638H8.85C9.954,2.638 10.85,3.533 10.85,4.638V8.803C10.85,9.908 9.954,10.803 8.85,10.803H4.685C3.58,10.803 2.685,9.908 2.685,8.803V4.638Z" id="path_0"/><path fill="#000000ff" d="M2.685,15.197C2.685,14.093 3.58,13.197 4.685,13.197H8.85C9.954,13.197 10.85,14.093 10.85,15.197V19.363C10.85,20.467 9.954,21.363 8.85,21.363H4.685C3.58,21.363 2.685,20.467 2.685,19.363V15.197Z" id="path_1"/><path fill="#000000ff" d="M13.15,4.638C13.15,3.533 14.046,2.638 15.15,2.638H19.316C20.42,2.638 21.316,3.533 21.316,4.638V8.803C21.316,9.908 20.42,10.803 19.316,10.803H15.15C14.046,10.803 13.15,9.908 13.15,8.803V4.638Z" id="path_2"/><path fill="#000000ff" d="M13.15,15.197C13.15,14.093 14.046,13.197 15.15,13.197H19.316C20.42,13.197 21.316,14.093 21.316,15.197V19.363C21.316,20.467 20.42,21.363 19.316,21.363H15.15C14.046,21.363 13.15,20.467 13.15,19.363V15.197Z" id="path_3"/></svg>