<svg id="vector" xmlns="http://www.w3.org/2000/svg" width="25.0d" height="22.0d" viewBox="0 0 25.0 22.0"><path fill="#6275beff" d="M24.912,13.47a8.34,8.34 0,0 1,-5.95 3.03,4.77 4.77,0 0,0 -2.322,-2.264c0.017,-0.153 0.026,-0.307 0.026,-0.461 0,-2.277 -1.87,-4.132 -4.167,-4.132 -0.542,0 -1.079,0.104 -1.58,0.31a5.402,5.402 0,0 0,-0.724 -0.612,8.006 8.006,0 0,1 -0.078,-1.076C10.117,3.698 13.849,0 18.445,0c0.511,0 1.02,0.047 1.523,0.138 0.356,0.069 0.439,0.542 0.122,0.719a6.461,6.461 0,0 0,-3.303 5.629c0,4.046 3.707,7.12 7.747,6.36a0.392,0.392 0,0 1,0.41 0.18,0.384 0.384,0 0,1 -0.032,0.443z" fill-rule="nonzero" id="path_0"/><path fill="#c1e7f4ff" d="M18.054,18.563C18.054,20.46 16.5,22 14.582,22H4.166C1.866,22 0,20.153 0,17.875c0,-1.8 1.176,-3.317 2.804,-3.88 -0.005,-0.082 -0.026,-0.16 -0.026,-0.245 0,-2.278 1.865,-4.125 4.166,-4.125 1.571,0 2.925,0.872 3.633,2.144 0.999,-0.96 2.563,-1.037 3.654,-0.179a2.724,2.724 0,0 1,0.647 3.565c1.775,0.15 3.176,1.607 3.176,3.408z" stroke-opacity="0.4" fill-opacity="0.4" fill-rule="nonzero" id="path_1"/></svg>