<svg id="vector" xmlns="http://www.w3.org/2000/svg" width="24.0d" height="24.0d" viewBox="0 0 24.0 24.0"><path fill="#cdcdcdff" d="M22.75,10.89l-4.288,-2.142 1.517,-4.546c0.204,-0.616 -0.38,-1.2 -0.992,-0.992l-4.546,1.517L12.294,0.435C12.162,0.168 11.89,0 11.592,0c-0.297,0 -0.569,0.168 -0.701,0.435L8.749,4.723 4.198,3.206c-0.616,-0.204 -1.2,0.38 -0.992,0.992l1.517,4.546L0.435,10.89c-0.267,0.133 -0.435,0.404 -0.435,0.702 0,0.298 0.168,0.57 0.435,0.702l4.288,2.142 -1.517,4.55c-0.204,0.616 0.38,1.2 0.992,0.992l4.546,-1.517 2.142,4.288c0.133,0.267 0.404,0.435 0.702,0.435 0.297,0 0.57,-0.168 0.702,-0.435l2.142,-4.288 4.546,1.517c0.616,0.204 1.2,-0.38 0.992,-0.992l-1.517,-4.546 4.288,-2.142c0.27,-0.13 0.441,-0.402 0.443,-0.7 0.002,-0.3 -0.166,-0.574 -0.434,-0.708zM15.69,15.69c-2.26,2.26 -5.936,2.26 -8.195,0 -2.26,-2.265 -2.26,-5.931 0,-8.196 2.26,-2.26 5.936,-2.26 8.196,0 2.26,2.265 2.26,5.931 0,8.196z" stroke-opacity="0.4" fill-opacity="0.4" fill-rule="nonzero" id="path_0"/><path fill="#cdcdcdff" d="M15.939,11.592c0,2.4 -1.946,4.347 -4.347,4.347 -2.4,0 -4.347,-1.946 -4.347,-4.347 0,-2.4 1.946,-4.347 4.347,-4.347 2.4,0.004 4.343,1.948 4.347,4.347z" fill-rule="nonzero" id="path_1"/></svg>