<svg id="vector" xmlns="http://www.w3.org/2000/svg" width="27.0d" height="27.0d" viewBox="0 0 27.0 27.0"><path fill="#cdcdcdff" d="M16.56,1.656L15.732,0l-0.828,1.656 -1.656,0.828 1.656,0.828 0.828,1.656 0.828,-1.656 1.656,-0.828 -1.656,-0.828zM23.738,9.382l-1.382,-2.758 -1.382,2.758 -2.758,1.382 2.758,1.382 1.382,2.758 1.382,-2.758 2.758,-1.382 -2.758,-1.382z" stroke-opacity="0.4" fill-opacity="0.4" fill-rule="nonzero" id="path_0"/><path fill="#cdcdcdff" d="M17.191,22.066c0.42,-0.083 0.72,0.414 0.445,0.75 -1.88,2.33 -4.716,3.684 -7.71,3.68C4.44,26.496 0,22.046 0,16.56c0,-6.21 5.625,-10.899 11.747,-9.77 0.425,0.082 0.523,0.652 0.145,0.864 -2.436,1.383 -3.94,3.968 -3.938,6.769 0,4.864 4.42,8.56 9.237,7.643z" fill-rule="nonzero" id="path_1"/></svg>