<svg id="vector" xmlns="http://www.w3.org/2000/svg" width="44.0d" height="44.0d" viewBox="0 0 44.0 44.0"><path fill="#f7efc8ff" d="M43.177,20.668l-8.139,-4.065 2.88,-8.628c0.386,-1.169 -0.723,-2.277 -1.883,-1.882l-8.628,2.88L23.333,0.824C23.082,0.32 22.566,0 22.001,0c-0.565,0 -1.08,0.32 -1.332,0.825l-4.065,8.138 -8.637,-2.878c-1.17,-0.387 -2.278,0.721 -1.882,1.882l2.879,8.628 -8.139,4.073C0.32,20.919 0,21.435 0,22c0,0.565 0.32,1.08 0.825,1.332l8.139,4.065 -2.88,8.636c-0.386,1.17 0.723,2.278 1.883,1.882l8.629,-2.878 4.064,8.138c0.252,0.505 0.768,0.825 1.332,0.825 0.565,0 1.081,-0.32 1.332,-0.825l4.066,-8.138 8.628,2.878c1.169,0.387 2.277,-0.721 1.882,-1.882l-2.879,-8.628 8.138,-4.064c0.511,-0.248 0.837,-0.764 0.841,-1.331 0.004,-0.568 -0.316,-1.088 -0.823,-1.342zM29.779,29.778c-4.289,4.287 -11.267,4.287 -15.554,0 -4.289,-4.299 -4.289,-11.257 0,-15.555 4.288,-4.288 11.266,-4.288 15.554,0 4.289,4.298 4.289,11.256 0,15.554z" fill-rule="nonzero" id="path_0"/><path fill="#ecd776ff" d="M30,22c0,4.418 -3.582,8 -8,8s-8,-3.582 -8,-8 3.582,-8 8,-8c4.415,0.007 7.993,3.585 8,8z" fill-rule="nonzero" id="path_1"/></svg>