<svg id="vector" xmlns="http://www.w3.org/2000/svg" width="27.0d" height="23.0d" viewBox="0 0 27.0 23.0"><path fill="#cbcbcbff" d="M19.99,8.85l1.434,-4.601c0.193,-0.623 -0.36,-1.215 -0.937,-1.004l-4.296,1.536L14.163,0.44C14.038,0.17 13.781,0 13.5,0s-0.538,0.17 -0.663,0.44l-2.024,4.34 -4.3,-1.535c-0.582,-0.206 -1.134,0.385 -0.937,1.004L7.009,8.85 3,11h5.092c0.145,-1.247 0.641,-2.457 1.536,-3.415 2.14,-2.287 5.604,-2.287 7.744,0 0.895,0.958 1.39,2.168 1.536,3.415H24l-4.01,-2.15zM13.5,7.333c-2.032,0 -3.71,1.59 -4.04,3.667h8.08c-0.33,-2.076 -2.008,-3.667 -4.04,-3.667z" stroke-opacity="0.4" fill-opacity="0.4" fill-rule="nonzero" id="path_0"/><path fill="#cdcdcdff" d="M3.375,15.143L17.55,15.143c0.373,0 0.675,-0.32 0.675,-0.714v-0.715c0,-0.394 -0.302,-0.714 -0.675,-0.714L3.375,13c-0.373,0 -0.675,0.32 -0.675,0.714v0.715c0,0.394 0.302,0.714 0.675,0.714zM26.325,13h-5.4c-0.373,0 -0.675,0.32 -0.675,0.714v0.715c0,0.394 0.302,0.714 0.675,0.714h5.4c0.373,0 0.675,-0.32 0.675,-0.714v-0.715c0,-0.394 -0.302,-0.714 -0.675,-0.714zM8.775,20.857h-5.4c-0.373,0 -0.675,0.32 -0.675,0.714v0.715c0,0.394 0.302,0.714 0.675,0.714h5.4c0.373,0 0.675,-0.32 0.675,-0.714v-0.715c0,-0.394 -0.302,-0.714 -0.675,-0.714zM26.325,20.857L12.15,20.857c-0.373,0 -0.675,0.32 -0.675,0.714v0.715c0,0.394 0.302,0.714 0.675,0.714h14.175c0.373,0 0.675,-0.32 0.675,-0.714v-0.715c0,-0.394 -0.302,-0.714 -0.675,-0.714zM24.3,18.357v-0.714c0,-0.395 -0.302,-0.714 -0.675,-0.714L0.675,16.929c-0.373,0 -0.675,0.32 -0.675,0.714v0.714c0,0.395 0.302,0.714 0.675,0.714h22.95c0.373,0 0.675,-0.32 0.675,-0.714z" fill-rule="nonzero" id="path_1"/></svg>