<svg id="vector" xmlns="http://www.w3.org/2000/svg" width="20.0d" height="31.0d" viewBox="0 0 20.0 31.0"><path fill="#dededeff" d="M1.8181,25.2497L1.8181,24.1629C1.8181,22.4319 2.7812,20.8756 4.3309,20.1013L7.2728,18.6319L7.2728,13.1431C7.2728,11.6961 7.9461,10.3712 9.0727,9.5231C9.014,9.2033 8.8182,8.9344 8.5637,8.8497C6.7037,8.2315 5.4547,6.4997 5.4547,4.5405C5.4547,1.7338 7.9648,-0.3925 10.7571,0.0612C12.9164,0.4117 14.5456,2.4213 14.5456,4.7349L14.5456,7.8046C16.8114,10.1997 18.1819,13.4449 18.1819,16.9436L18.1819,22.0733C18.1819,23.4328 17.8024,24.7339 17.0941,25.8563C18.7926,26.5146 20,28.1652 20,30.0918L20,31L2.7274,31C1.2237,31 0,29.7775 0,28.2754C0,26.9918 0.7116,25.8369 1.8181,25.2497L1.8181,25.2497ZM4.9679,21.8222C4.1419,22.312 3.6365,23.1918 3.6365,24.1629L3.6365,24.5934L5.6959,23.9075L4.9679,21.8222ZM12.7272,4.7349C12.7272,3.3023 11.7547,2.0635 10.465,1.8539C8.7204,1.5701 7.2728,2.9114 7.2728,4.5405C7.2728,5.7162 8.0225,6.7554 9.1376,7.1265C9.8551,7.3649 10.4129,7.9202 10.6981,8.6257L12.7272,7.6121L12.7272,4.7349ZM16.3637,16.9436C16.3637,14.0908 15.3297,11.3962 13.4393,9.2875L10.5987,10.7061C9.6686,11.1704 9.0909,12.1048 9.0909,13.1431L9.0909,19.7543L6.6054,20.9963L7.4208,23.3335L10.9091,22.1715L10.9091,13.6228L12.7272,13.6228L12.7272,23.4806L9.9735,24.3978C11.1861,25.7426 13.1055,26.284 14.8952,25.6882L14.9528,25.6688C15.8637,24.6873 16.3637,23.4193 16.3637,22.0733L16.3637,16.9436ZM2.7274,29.1836L18.0261,29.1836C17.6655,28.1671 16.7169,27.4265 15.591,27.3707C15.5103,27.3911 14.6576,27.7456 13.4145,27.7456C11.3414,27.7456 9.3613,26.7454 8.1395,25.0082L2.9213,26.7459C2.2618,26.9656 1.8181,27.5803 1.8181,28.2754C1.8181,28.7761 2.226,29.1836 2.7274,29.1836L2.7274,29.1836Z" stroke="#00000000" stroke-width="1.0" fill-rule="nonzero" id="path_0"/></svg>