<svg id="vector" xmlns="http://www.w3.org/2000/svg" width="28.0d" height="24.0d" viewBox="0 0 28.0 24.0"><path fill="#c9c9c9ff" d="M11.841,17.225c-0.947,0.393 -1.67,1.083 -2.143,1.911h7.691c-1.095,-1.916 -3.455,-2.776 -5.548,-1.911zM23.838,16.3l-4.899,-0.35 -0.35,-4.898c-0.021,-0.304 -0.212,-0.57 -0.494,-0.687 -0.281,-0.117 -0.604,-0.065 -0.835,0.134l-3.712,3.22 -3.712,-3.22c-0.23,-0.199 -0.554,-0.25 -0.835,-0.134 -0.282,0.117 -0.473,0.383 -0.495,0.687l-0.35,4.899 -4.898,0.35c-0.304,0.02 -0.57,0.212 -0.687,0.493 -0.116,0.282 -0.064,0.605 0.135,0.835l1.306,1.507h4.03c0.009,-0.023 0.009,-0.046 0.018,-0.064 1.256,-3.027 4.734,-4.472 7.76,-3.216 1.477,0.612 2.643,1.795 3.234,3.28h4.03l1.306,-1.504c0.2,-0.23 0.254,-0.555 0.137,-0.837 -0.117,-0.282 -0.384,-0.474 -0.689,-0.495z" stroke-opacity="0.4" fill-opacity="0.4" fill-rule="nonzero" id="path_0"/><path fill="#cdcdcdff" d="M26.06,21.344L1.036,21.344c-0.406,0 -0.736,0.33 -0.736,0.736v0.736c0,0.406 0.33,0.736 0.736,0.736L26.06,23.552c0.406,0 0.736,-0.33 0.736,-0.736v-0.736c0,-0.406 -0.33,-0.736 -0.736,-0.736zM9.077,5.888h2.999v3.68c0,0.406 0.33,0.736 0.736,0.736h1.472c0.406,0 0.736,-0.33 0.736,-0.736v-3.68h3c0.657,0 0.984,-0.796 0.514,-1.26L14.1,0.23c-0.305,-0.304 -0.799,-0.304 -1.104,0L8.562,4.632c-0.47,0.458 -0.138,1.256 0.515,1.256z" fill-rule="nonzero" id="path_1"/></svg>