<svg id="vector" xmlns="http://www.w3.org/2000/svg" width="45.0d" height="44.0d" viewBox="0 0 45.0 44.0"><path fill="#f7efc8ff" d="M19.64,31.541c-1.588,0.708 -2.799,1.959 -3.593,3.459h12.89c-1.834,-3.467 -5.79,-5.026 -9.297,-3.459zM39.746,29.866l-8.21,-0.634 -0.586,-8.877c-0.036,-0.55 -0.357,-1.032 -0.829,-1.243 -0.471,-0.212 -1.013,-0.118 -1.4,0.243L22.5,25.19l-6.222,-5.835c-0.386,-0.36 -0.928,-0.455 -1.4,-0.243 -0.47,0.211 -0.792,0.693 -0.828,1.243l-0.586,8.877 -8.21,0.634c-0.51,0.039 -0.955,0.385 -1.15,0.895 -0.197,0.51 -0.11,1.096 0.224,1.513L6.518,35h6.754c0.015,-0.042 0.015,-0.083 0.03,-0.117 2.105,-5.484 7.934,-8.101 13.007,-5.826 2.474,1.109 4.429,3.252 5.42,5.943h6.753l2.19,-2.726c0.333,-0.417 0.42,-1.003 0.225,-1.513 -0.196,-0.51 -0.641,-0.856 -1.15,-0.895z" fill-rule="nonzero" id="path_0"/><path fill="#ecb776ff" d="M43.75,39.875H1.25c-0.69,0 -1.25,0.616 -1.25,1.375v1.375C0,43.385 0.56,44 1.25,44h42.5c0.69,0 1.25,-0.616 1.25,-1.375V41.25c0,-0.76 -0.56,-1.375 -1.25,-1.375zM21.562,18.82c0.519,0.568 1.357,0.568 1.875,0l7.532,-8.224c0.789,-0.868 0.234,-2.355 -0.883,-2.355H25V1.375C25,0.615 24.44,0 23.75,0h-2.5C20.56,0 20,0.616 20,1.375V8.25h-5.094c-1.117,0 -1.672,1.487 -0.875,2.355l7.531,8.215z" fill-rule="nonzero" id="path_1"/></svg>