<svg id="vector" xmlns="http://www.w3.org/2000/svg" width="44.0d" height="44.0d" viewBox="0 0 44.0 44.0"><path fill="#ecd776ff" d="M26.75,2.778L25.312,0l-1.437,2.778L21,4.167l2.875,1.389 1.438,2.777 1.437,-2.777 2.875,-1.39 -2.875,-1.388zM39.211,15.738l-2.398,-4.627 -2.4,4.627 -4.788,2.318 4.789,2.317L36.812,25l2.4,-4.627L44,18.056l-4.789,-2.318z" stroke-opacity="0.953" fill-opacity="0.953" fill-rule="nonzero" id="path_0"/><path fill="#6275beff" d="M29.069,36.645c0.709,-0.138 1.216,0.687 0.753,1.246 -3.18,3.869 -7.975,6.115 -13.039,6.109C7.508,44 0,36.61 0,27.502 0,17.192 9.512,9.406 19.864,11.28c0.717,0.138 0.883,1.083 0.245,1.435 -4.119,2.296 -6.662,6.589 -6.66,11.24 0,8.076 7.473,14.212 15.62,12.69z" fill-rule="nonzero" id="path_1"/></svg>