<svg id="vector" xmlns="http://www.w3.org/2000/svg" width="27.0d" height="24.0d" viewBox="0 0 27.0 24.0"><path fill="#f4df78ff" d="M12.066,17.252c-0.97,0.401 -1.71,1.104 -2.195,1.948h7.875a4.555,4.555 0,0 0,-5.68 -1.948zM24.349,16.31 L19.333,15.954 18.975,10.962a0.82,0.82 0,0 0,-0.506 -0.7,0.827 0.827,0 0,0 -0.855,0.138l-3.801,3.28 -3.8,-3.28a0.827,0.827 0,0 0,-0.856 -0.137,0.82 0.82,0 0,0 -0.506,0.7l-0.358,4.991 -5.016,0.356a0.824,0.824 0,0 0,-0.702 0.504,0.817 0.817,0 0,0 0.137,0.85L4.05,19.2h4.126c0.009,-0.023 0.009,-0.047 0.018,-0.066 1.286,-3.084 4.847,-4.556 7.946,-3.276a6.045,6.045 0,0 1,3.31 3.342h4.126l1.338,-1.533a0.817,0.817 0,0 0,0.14 -0.852,0.824 0.824,0 0,0 -0.705,-0.505z" fill-rule="nonzero" id="path_0"/><path fill="#acdff0ff" d="M26.25,21.75H0.75a0.75,0.75 0,0 0,-0.75 0.75v0.75c0,0.414 0.336,0.75 0.75,0.75h25.5a0.75,0.75 0,0 0,0.75 -0.75v-0.75a0.75,0.75 0,0 0,-0.75 -0.75zM8.944,5.999H12v3.75c0,0.414 0.336,0.75 0.75,0.75h1.5a0.75,0.75 0,0 0,0.75 -0.75v-3.75h3.056a0.75,0.75 0,0 0,0.525 -1.285L14.063,0.232a0.797,0.797 0,0 0,-1.126 0L8.42,4.72c-0.478,0.466 -0.14,1.28 0.525,1.28z" stroke-opacity="0.75" fill-opacity="0.75" fill-rule="nonzero" id="path_1"/></svg>