<svg id="vector" xmlns="http://www.w3.org/2000/svg" width="15.0d" height="12.0d" viewBox="0 0 15.0 12.0"><path fill="#1d897aff" d="m11.055,4.526 l0.786,-2.353a0.405,0.405 0,0 0,-0.514 -0.514l-2.353,0.786 -1.11,-2.22a0.406,0.406 0,0 0,-0.727 0l-1.109,2.22 -2.355,-0.786a0.405,0.405 0,0 0,-0.514 0.514l0.786,2.353 -2.197,1.099h2.79c0.08,-0.637 0.351,-1.256 0.84,-1.746a3.003,3.003 0,0 1,4.243 0c0.49,0.49 0.762,1.109 0.841,1.746h2.79l-2.197,-1.1zM7.5,3.75a2.249,2.249 0,0 0,-2.213 1.875h4.426A2.249,2.249 0,0 0,7.5 3.75z" stroke-opacity="0.4" fill-opacity="0.4" fill-rule="nonzero" id="path_0"/><path fill="#1d897aff" d="M1.875,7.875L9.75,7.875a0.375,0.375 0,0 0,0.375 -0.375v-0.375a0.375,0.375 0,0 0,-0.375 -0.375L1.875,6.75a0.375,0.375 0,0 0,-0.375 0.375L1.5,7.5c0,0.207 0.168,0.375 0.375,0.375zM14.625,6.75h-3a0.375,0.375 0,0 0,-0.375 0.375L11.25,7.5c0,0.207 0.168,0.375 0.375,0.375h3A0.375,0.375 0,0 0,15 7.5v-0.375a0.375,0.375 0,0 0,-0.375 -0.375zM4.875,10.875h-3a0.375,0.375 0,0 0,-0.375 0.375v0.375c0,0.207 0.168,0.375 0.375,0.375h3a0.375,0.375 0,0 0,0.375 -0.375v-0.375a0.375,0.375 0,0 0,-0.375 -0.375zM14.625,10.875L6.75,10.875a0.375,0.375 0,0 0,-0.375 0.375v0.375c0,0.207 0.168,0.375 0.375,0.375h7.875a0.375,0.375 0,0 0,0.375 -0.375v-0.375a0.375,0.375 0,0 0,-0.375 -0.375zM13.5,9.563v-0.375a0.375,0.375 0,0 0,-0.375 -0.375L0.375,8.813A0.375,0.375 0,0 0,0 9.188v0.375c0,0.207 0.168,0.375 0.375,0.375h12.75a0.375,0.375 0,0 0,0.375 -0.375z" fill-rule="nonzero" id="path_1"/></svg>